<svg xmlns="http://www.w3.org/2000/svg" xmlns:xlink="http://www.w3.org/1999/xlink" width="295" height="278.388" viewBox="0 0 295 278.388">
  <defs>
    <clipPath id="clip-path">
      <rect id="Rectángulo_309891" data-name="Rectángulo 309891" width="236.173" height="295" fill="#eafff1"/>
    </clipPath>
    <clipPath id="clip-path-2">
      <rect id="Rectángulo_312926" data-name="Rectángulo 312926" width="221.062" height="278.388" fill="none"/>
    </clipPath>
    <clipPath id="clip-path-4">
      <rect id="Rectángulo_312911" data-name="Rectángulo 312911" width="17.103" height="67.185" fill="none"/>
    </clipPath>
    <clipPath id="clip-path-5">
      <rect id="Rectángulo_312912" data-name="Rectángulo 312912" width="8.478" height="7.005" fill="none"/>
    </clipPath>
    <clipPath id="clip-path-6">
      <rect id="Rectángulo_312913" data-name="Rectángulo 312913" width="15.185" height="7.884" fill="none"/>
    </clipPath>
    <clipPath id="clip-path-7">
      <rect id="Rectángulo_312914" data-name="Rectángulo 312914" width="15.36" height="9.065" fill="none"/>
    </clipPath>
    <clipPath id="clip-path-8">
      <rect id="Rectángulo_312915" data-name="Rectángulo 312915" width="3.543" height="47.207" fill="none"/>
    </clipPath>
    <clipPath id="clip-path-9">
      <rect id="Rectángulo_312916" data-name="Rectángulo 312916" width="18.185" height="17.412" fill="none"/>
    </clipPath>
    <clipPath id="clip-path-10">
      <rect id="Rectángulo_312917" data-name="Rectángulo 312917" width="8.52" height="22.944" fill="none"/>
    </clipPath>
    <clipPath id="clip-path-11">
      <rect id="Rectángulo_312919" data-name="Rectángulo 312919" width="44.774" height="23.369" fill="#ea2e2e"/>
    </clipPath>
    <clipPath id="clip-path-12">
      <rect id="Rectángulo_312920" data-name="Rectángulo 312920" width="8.229" height="30.153" fill="none"/>
    </clipPath>
    <clipPath id="clip-path-13">
      <rect id="Rectángulo_312921" data-name="Rectángulo 312921" width="16.098" height="56.098" fill="none"/>
    </clipPath>
    <clipPath id="clip-path-14">
      <rect id="Rectángulo_312922" data-name="Rectángulo 312922" width="38.514" height="28.462" fill="#ea2e2e"/>
    </clipPath>
  </defs>
  <g id="Grupo_996012" data-name="Grupo 996012" transform="translate(-915 -2679.763)">
    <g id="Grupo_995934" data-name="Grupo 995934" transform="translate(1210 2715.602) rotate(90)">
      <g id="Grupo_995683" data-name="Grupo 995683" clip-path="url(#clip-path)">
        <path id="Trazado_654602" data-name="Trazado 654602" d="M227.948,149.564s25.205,63.344-12.631,93.832-87.249-43.7-125,32.887C63.666,330.367-8.442,302.7.815,245.446,11.349,180.293,48.1,224.595,26.262,80.736,15.446,9.5,166.876-43.144,227.948,149.564" transform="translate(0 -10.39)" fill="#eafff1"/>
        <path id="Trazado_654603" data-name="Trazado 654603" d="M467.831,32.744s15.473,7.078,13.406,17.222-21.278,1.444-24.413-7.624,5.677-12.938,11.008-9.6" transform="translate(-294.8 -20.394)" fill="#eafff1"/>
        <path id="Trazado_654604" data-name="Trazado 654604" d="M400.521,5.375A7.4,7.4,0,0,1,411.033.807c3.29,1.648,6.462,4.438,5.5,8.93-1.861,8.691-10.706,4.08-14.545,1.032-1.628-1.293-1.837-3.992-1.466-5.394" transform="translate(-258.737 0)" fill="#eafff1"/>
        <path id="Trazado_654605" data-name="Trazado 654605" d="M532.092,691.575s15.1-5.7,20.474,1.724-13.027,14.58-20.811,11.194-5.029-11.444.337-12.917" transform="translate(-340.528 -445.584)" fill="#eafff1"/>
        <path id="Trazado_654606" data-name="Trazado 654606" d="M615.191,662.856a6.545,6.545,0,0,0-3.805,9.4c1.531,2.873,4.07,5.616,8.021,4.664,7.645-1.841,7.235-9.961,1.358-13.271a9,9,0,0,0-5.574-.792" transform="translate(-394.599 -428.271)" fill="#eafff1"/>
      </g>
    </g>
    <g id="Grupo_996052" data-name="Grupo 996052" transform="translate(951.969 2679.763)">
      <g id="Grupo_996051" data-name="Grupo 996051" clip-path="url(#clip-path-2)">
        <g id="Grupo_996050" data-name="Grupo 996050">
          <g id="Grupo_996049" data-name="Grupo 996049" clip-path="url(#clip-path-2)">
            <path id="Trazado_658219" data-name="Trazado 658219" d="M82.017,297.634c0,2.209-1.681,6.194-5.443,6.194s-6.813-1.791-6.813-4-.15-3.325,3.613-3.325,8.644-1.079,8.644,1.13" transform="translate(-7.538 -32.013)" fill="#2b1011"/>
            <rect id="Rectángulo_312910" data-name="Rectángulo 312910" width="3.418" height="50.049" transform="translate(65.835 222.614)" fill="#c4cdff"/>
            <path id="Trazado_658220" data-name="Trazado 658220" d="M83.248,214.271,82.3,233.458l-.371,7.588-.208,4.156a7.7,7.7,0,0,1-5.32,7.2,6.012,6.012,0,0,1-1.707.243,6.341,6.341,0,0,1-1.707-.235,7.7,7.7,0,0,1-5.321-7.209l-.226-4.58-.326-6.5-.975-19.855Z" transform="translate(-7.147 -23.155)" fill="#5760a3"/>
            <path id="Trazado_658221" data-name="Trazado 658221" d="M79.648,308.8H70.725l.8-12.832c.155-2.5,1.75-4.431,3.665-4.431s3.51,1.928,3.665,4.431Z" transform="translate(-7.643 -31.504)" fill="#5760a3"/>
            <path id="Trazado_658222" data-name="Trazado 658222" d="M88.049,148.673c1.389,5.218-14.471,8.192-32.946,9.455s-33.78-2.206-33.962-4.876c-.154-2.117,9.111-4.56,22.136-6.113,3.434-.409,7.131-.754,10.982-1.018a185.889,185.889,0,0,1,21.4-.345c7.476.382,12,1.447,12.39,2.9" transform="translate(-2.284 -15.735)" fill="#2b1011"/>
            <path id="Trazado_658223" data-name="Trazado 658223" d="M47.682,232.075l-.091,2.961-.227,7.885-1.572,53.41H32.231V232.075Z" transform="translate(-3.483 -25.079)" fill="#96544a"/>
            <path id="Trazado_658224" data-name="Trazado 658224" d="M107.618,109.875l-.009.009c-3.215,4.915-9.229,9.192-14.2,11.972a17.67,17.67,0,0,1-5.087,1.989,11.806,11.806,0,0,1-3.288.218c-4.17-.326-7.131-2.97-9.393-5.168a10.861,10.861,0,0,1-3.442-5.968c-.564-3.5,1.3-7.021,5.55-10.065l.009-.009c.255-.182.527-.373.809-.554.517-.336,1.071-.673,1.653-1,6.159-3.452,13.68-8.847,20.056-8.583a9.037,9.037,0,0,1,5.26,1.889,12.01,12.01,0,0,1,2.48,2.67c2.979,4.314,2.189,8.665-.4,12.6" transform="translate(-7.792 -10.018)" fill="#fadbaf"/>
            <path id="Trazado_658225" data-name="Trazado 658225" d="M60.685,141.587q-.365,3.351-.722,6.7c-.26,2.435-.519,4.861-.788,7.3q-1.593,14.928-3.2,29.856-1.833,17.14-3.685,34.279c-.322,3.085-.654,6.161-.994,9.248a2.454,2.454,0,0,1-.813.274,140.483,140.483,0,0,1-23.586,1.365,2.617,2.617,0,0,1-.524-.078c-.249-3.042-.5-6.086-.719-9.13-1.337-17.911-2.091-35.809-1.054-53.439.414-7,1.1-13.967,2.15-20.87q.693-4.53,1.589-9.017c3.717.394,8.057.862,12.534,1.358,4.349.475,8.818.963,12.966,1.415,2.426.26,4.742.517,6.848.741" transform="translate(-2.606 -14.921)" fill="#00a559"/>
            <path id="Trazado_658226" data-name="Trazado 658226" d="M34.568,178.505a.227.227,0,0,1-.226-.208c-1.373-16.164.544-27.7,5.7-34.285a3.863,3.863,0,0,0,.33-.453.227.227,0,1,1,.413.189,3.4,3.4,0,0,1-.384.544c-5.082,6.492-6.968,17.92-5.6,33.967a.227.227,0,0,1-.207.245h-.02" transform="translate(-3.665 -15.499)" fill="#0c7c55"/>
            <path id="Trazado_658227" data-name="Trazado 658227" d="M87.944,139.35c0,26.723-1.281,53.865-2.208,80.888q-.163,4.647-.3,9.283c-.091.018-.191.037-.281.045a138.79,138.79,0,0,1-23.8,0c-.027,0-.045-.009-.072-.009-.454-3.125-.89-6.259-1.281-9.392-.136-1-.263-2-.391-3-1.281-10.328-2.262-20.674-2.825-31v-.009q-.326-6-.473-11.972a306.248,306.248,0,0,1,.918-32.673c.028-.391.063-.781.1-1.172,9.166,0,21.455-.99,30.611-.99" transform="translate(-6.076 -15.059)" fill="#00a559"/>
            <path id="Trazado_658228" data-name="Trazado 658228" d="M59.286,50.51C63.82,63.112,69.5,74.55,73.63,85.9a99.832,99.832,0,0,1,4.39,15.343v.016q.454,2.369.747,4.766c3.713-1.237,7.574-2.792,11.442-4.3,3.434-1.333,6.867-2.632,10.22-3.636,0-.017-.007-.034-.006-.05A291.225,291.225,0,0,0,93.048,61.01c-2.737-10-10.882-14.715-21.575-12.974-3.623.59-8.547.993-12.187,2.474" transform="translate(-6.407 -5.153)" fill="#fadbaf"/>
            <path id="Trazado_658229" data-name="Trazado 658229" d="M92.3,139.872c-.009.018-.028.028-.028.037-.971-2.653-11.708-2.9-11.708-2.9-1.444-6.549-4.8-22.327-6.622-34.208-.127-.79-.235-1.562-.345-2.307-2.18-15.388.236-34.727-6.068-40.712,0,0-.118-.037-.335-.109-1.2-.418-5.16-2.008-4.342-4.542,2.4-2.389,2.38-5.4.672-8.629L79.5,47.82l7.167,51.55a57.922,57.922,0,0,0,5.173,16.987q.363.759.695,1.55c3.624,8.621,3.333,17.359-.236,21.964" transform="translate(-6.78 -5.025)" fill="#fadbaf"/>
            <path id="Trazado_658230" data-name="Trazado 658230" d="M95.914,151.447a.732.732,0,0,0-.063-.227c0-.009.018-.018.027-.036Z" transform="translate(-10.358 -16.337)" fill="#fadbaf"/>
            <path id="Trazado_658231" data-name="Trazado 658231" d="M23.657,144.043a69.711,69.711,0,0,0,17.981-.509c3.758-11.347.793-39.541,0-52.994A106.974,106.974,0,0,1,43.829,61.6v-.008c4.135-2.014,2.471-6.132,2.371-6.374l-.008-.008c-.225-.192-.441-.391-.649-.6a9.937,9.937,0,0,1-2.728-4.925L26.3,53.526l-12.929,75.55-.749,4.371c-.756,4.177,3.132,9.545,11.035,10.6" transform="translate(-1.354 -5.369)" fill="#fadbaf"/>
            <path id="Trazado_658232" data-name="Trazado 658232" d="M47.475,60.567v.008c4.983,4.46,12.113,4.817,16.264.666a9.679,9.679,0,0,0,1.672-2.247c-1.2-.416-5.158-2.005-4.343-4.543,3.045-3.036,2.654-8.361-.865-11.88-.083-.084-.175-.167-.258-.242a12.414,12.414,0,0,0-10.5-1.531h-.009a6.755,6.755,0,0,0-1.115.907c-3.044,3.044-2.654,8.361.866,11.88q.312.312.648.6l.008.008c.1.242,1.764,4.36-2.371,6.373" transform="translate(-5 -4.348)" fill="#de9254"/>
            <g id="Grupo_996018" data-name="Grupo 996018" transform="translate(13.786 70.992)" opacity="0.5">
              <g id="Grupo_996017" data-name="Grupo 996017">
                <g id="Grupo_996016" data-name="Grupo 996016" clip-path="url(#clip-path-4)">
                  <path id="Trazado_658233" data-name="Trazado 658233" d="M30.359,79.593a365.845,365.845,0,0,0,2.033,47.341c2.135,20.264-16.936,19.843-16.936,19.843l1.612-34.224L19.93,93.388Z" transform="translate(-15.456 -79.593)" fill="#8f5b31"/>
                </g>
              </g>
            </g>
            <path id="Trazado_658234" data-name="Trazado 658234" d="M78.234,134.97a185.889,185.889,0,0,0-21.4.345c-3.851.263-7.2.466-10.635.874,1.717-12.227-.348-33.993-1.056-46.092a107.164,107.164,0,0,1,2.189-28.94v-.009c4.133-2.017,2.471-6.131,2.371-6.376l-.009-.009c-.218-.191-.436-.391-.645-.6a9.912,9.912,0,0,1-2.734-4.923l15.569-3.625c1.707,3.225,1.444,7.031-.953,9.42-.818,2.535,3.142,4.124,4.342,4.542.218.073.335.109.335.109,6.3,5.987,3.888,25.325,6.068,40.712,1.426,10.01,5.287,28.549,6.558,34.571" transform="translate(-4.859 -4.929)" fill="#2b1011"/>
            <path id="Trazado_658235" data-name="Trazado 658235" d="M95.2,119.251a.228.228,0,0,1-.217-.16c-.1-.32-.2-.64-.293-.97a143.488,143.488,0,0,1-3.838-17.436c-.21-1.292-.418-2.6-.619-3.918,0-.012,0-.059,0-.07-2.518-16.825-3.6-35.77-2.278-39.713a.224.224,0,0,1,.288-.143.227.227,0,0,1,.143.287c-1.308,3.888-.212,22.732,2.3,39.534,0,.012,0,.059,0,.07.2,1.283.407,2.59.615,3.879A143.011,143.011,0,0,0,95.126,118c.092.329.191.645.29.961a.227.227,0,0,1-.149.285.224.224,0,0,1-.068.011" transform="translate(-9.443 -6.141)" fill="#8f5b31"/>
            <path id="Trazado_658236" data-name="Trazado 658236" d="M46.46,48.592l15.566-3.628A10.2,10.2,0,0,0,60.2,42.5c-.083-.083-.175-.166-.258-.241-3.1-2.912-7.471-3.487-10.5-1.531h-.009a6.8,6.8,0,0,0-1.115.907,7.486,7.486,0,0,0-1.863,6.955" transform="translate(-5 -4.278)" fill="#2b1011"/>
            <path id="Trazado_658237" data-name="Trazado 658237" d="M82.555,172.555h-.021a.227.227,0,0,1-.206-.246c.435-4.875-1.123-21.207-1.139-21.371a.229.229,0,0,1,.2-.249.237.237,0,0,1,.248.205c.016.164,1.578,16.537,1.139,21.455a.227.227,0,0,1-.226.207" transform="translate(-8.774 -16.284)" fill="#0c7c55"/>
            <path id="Trazado_658238" data-name="Trazado 658238" d="M33.237,234.12a.229.229,0,0,1-.2-.118c-1.6-2.886-2.049-8.034-2.345-11.44a16.347,16.347,0,0,0-.371-2.9.227.227,0,1,1,.4-.223,12.282,12.282,0,0,1,.428,3.088c.293,3.367.736,8.457,2.29,11.26a.227.227,0,0,1-.088.309.235.235,0,0,1-.111.029" transform="translate(-3.274 -23.7)" fill="#0c7c55"/>
            <path id="Trazado_658239" data-name="Trazado 658239" d="M66.011,237.525a.227.227,0,0,1-.227-.219c-.008-.207-.668-20.954.028-22.215a.227.227,0,1,1,.4.219c-.513.929-.153,17.174.028,21.977a.227.227,0,0,1-.218.236Z" transform="translate(-7.078 -23.231)" fill="#0c7c55"/>
            <path id="Trazado_658240" data-name="Trazado 658240" d="M2.25,104.639c7.115,2.186,12.148,3.631,19.139,6.017C23.754,100.6,25.538,94.809,27.773,82.2,30.6,66.263,38.421,64.243,40.528,48.988c-5.109,1.737-9.884,3.021-13.961,4.064a24.993,24.993,0,0,0-17.794,17.2A187.409,187.409,0,0,0,2.25,104.639" transform="translate(-0.243 -5.294)" fill="#fadbaf"/>
            <path id="Trazado_658241" data-name="Trazado 658241" d="M22.283,172.127l-1-1.977-.075-.143-4.267-8.419a9.745,9.745,0,0,1,3.6.889l.009,0c.173.081.343.171.5.267l2.322,4.9,0,.009c1.964,4.355,2.08,5.643,2.08,5.643.171.531-.587,1.194-1.081.936a4.885,4.885,0,0,1-2.084-2.106" transform="translate(-1.831 -17.462)" fill="#96544a"/>
            <path id="Trazado_658242" data-name="Trazado 658242" d="M65.015,8.869c-1.822,2.84-2.216,5.837-.879,6.7s3.9-.748,5.721-3.587,2.216-5.838.879-6.7-3.9.747-5.721,3.587" transform="translate(-6.845 -0.546)" fill="#2b1011"/>
            <path id="Trazado_658243" data-name="Trazado 658243" d="M46.389,49.975h.017a5.4,5.4,0,0,0-.017.823c.175,3.652,3.553,6.465,7.546,6.273s7.088-3.3,6.913-6.955c0-.049-.008-.091-.008-.141h.008V30.216H46.389Z" transform="translate(-5.012 -3.265)" fill="#96544a"/>
            <path id="Trazado_658244" data-name="Trazado 658244" d="M64.412,8.513c.441,3.75,1.384,6.722,2.109,6.636s.955-3.194.515-6.944-1.384-6.722-2.109-6.637-.955,3.195-.515,6.945" transform="translate(-6.936 -0.169)" fill="#2b1011"/>
            <path id="Trazado_658245" data-name="Trazado 658245" d="M57.339,9.883c1.222,3.573,3.271,6.107,4.576,5.66s1.372-3.7.15-7.276S58.794,2.16,57.489,2.606s-1.372,3.705-.15,7.277" transform="translate(-6.102 -0.276)" fill="#2b1011"/>
            <path id="Trazado_658246" data-name="Trazado 658246" d="M53.912,14.127c1.222,3.573,2.767,6.279,3.449,6.046s.245-3.319-.977-6.891S53.618,7,52.935,7.235s-.245,3.32.977,6.892" transform="translate(-5.685 -0.78)" fill="#2b1011"/>
            <path id="Trazado_658247" data-name="Trazado 658247" d="M64.581,7.736c-1.2,3.579-1.712,6.637-1.14,6.83s2.01-2.555,3.212-6.134,1.713-6.637,1.14-6.83-2.01,2.555-3.212,6.134" transform="translate(-6.83 -0.172)" fill="#2b1011"/>
            <g id="Grupo_996021" data-name="Grupo 996021" transform="translate(47.359 30.453)" opacity="0.5">
              <g id="Grupo_996020" data-name="Grupo 996020">
                <g id="Grupo_996019" data-name="Grupo 996019" clip-path="url(#clip-path-5)">
                  <path id="Trazado_658248" data-name="Trazado 658248" d="M53.1,34.143c.325.292,3.785,5.624,8.478,7.005V35.715Z" transform="translate(-53.096 -34.143)" fill="#2b1011"/>
                </g>
              </g>
            </g>
            <path id="Trazado_658249" data-name="Trazado 658249" d="M53.834,8.638c1.222,3.573,3.119,6.159,4.238,5.776s1.033-3.588-.189-7.161-3.119-6.159-4.237-5.776-1.034,3.589.188,7.161" transform="translate(-5.712 -0.155)" fill="#2b1011"/>
            <path id="Trazado_658250" data-name="Trazado 658250" d="M48.811,9.664c1.888,3.27,3.842,5.676,4.365,5.375s-.584-3.2-2.472-6.467S46.862,2.9,46.339,3.2s.583,3.2,2.472,6.467" transform="translate(-4.994 -0.343)" fill="#2b1011"/>
            <path id="Trazado_658251" data-name="Trazado 658251" d="M59.94,6.493c-.741,3.7-.862,6.8-.27,6.919s1.672-2.787,2.414-6.49.862-6.8.27-6.919-1.672,2.787-2.414,6.49" transform="translate(-6.408 0)" fill="#2b1011"/>
            <path id="Trazado_658252" data-name="Trazado 658252" d="M60.468,10.1c-.741,3.7-.491,6.874.559,7.085s2.5-2.621,3.242-6.324.491-6.874-.559-7.085S61.21,6.4,60.468,10.1" transform="translate(-6.488 -0.407)" fill="#2b1011"/>
            <path id="Trazado_658253" data-name="Trazado 658253" d="M50.912,10.753c.987,3.645,2.626,6.372,3.659,6.093s1.071-3.463.083-7.107S52.028,3.368,51,3.648s-1.07,3.461-.083,7.105" transform="translate(-5.424 -0.392)" fill="#2b1011"/>
            <path id="Trazado_658254" data-name="Trazado 658254" d="M45.864,16.349c2.236,3.042,4.747,5,5.609,4.362s-.251-3.614-2.486-6.657-4.748-4.995-5.61-4.362.251,3.615,2.487,6.657" transform="translate(-4.656 -1.034)" fill="#2b1011"/>
            <path id="Trazado_658255" data-name="Trazado 658255" d="M46.806,12.878c1.461,3.481,3.327,6.018,4.168,5.666s.337-3.462-1.124-6.943-3.327-6.019-4.168-5.666-.337,3.461,1.124,6.943" transform="translate(-4.893 -0.638)" fill="#2b1011"/>
            <path id="Trazado_658256" data-name="Trazado 658256" d="M48.4,33.554l10.9,1.229a7.22,7.22,0,0,0,8.016-7.619l-.93-15.1-18.438.663Z" transform="translate(-5.182 -1.304)" fill="#96544a"/>
            <path id="Trazado_658257" data-name="Trazado 658257" d="M50.718,25.25,50.97,21.4c.665-4.05,2.223-6.608,6.957-7.527,7.774-1.509,8.31.608,8.31.608l.836-5.742L45.966,9.72,45.53,23.09Z" transform="translate(-4.92 -0.944)" fill="#2b1011"/>
            <path id="Trazado_658258" data-name="Trazado 658258" d="M43.83,28.641c1.741,1.742,4.348,1.959,5.823.484s1.258-4.082-.483-5.823-4.35-1.959-5.824-.484-1.258,4.082.485,5.823" transform="translate(-4.578 -2.36)" fill="#96544a"/>
            <path id="Trazado_658259" data-name="Trazado 658259" d="M46.57,12.1c2.364,2.944,4.661,5.025,5.132,4.647s-1.064-3.071-3.428-6.015-4.661-5.025-5.132-4.648S44.207,9.157,46.57,12.1" transform="translate(-4.653 -0.653)" fill="#2b1011"/>
            <path id="Trazado_658260" data-name="Trazado 658260" d="M66.386,10.653a.227.227,0,0,1-.2-.326A30.3,30.3,0,0,0,68.047,3.47a.223.223,0,0,1,.258-.193.227.227,0,0,1,.192.258,30.773,30.773,0,0,1-1.907,6.988.226.226,0,0,1-.2.129" transform="translate(-7.149 -0.354)" fill="#96544a"/>
            <path id="Trazado_658261" data-name="Trazado 658261" d="M64.747,9.525a.226.226,0,0,1-.224-.265c.049-.434.112-4.313-.536-5.113a.221.221,0,0,0-.133-.094c-.756-.091-1.744,1.852-2.579,5.01a.227.227,0,0,1-.44-.115C61.5,6.442,62.567,3.468,63.9,3.6a.671.671,0,0,1,.486.315c.761,1.072.623,5.287.586,5.437a.227.227,0,0,1-.22.171" transform="translate(-6.573 -0.389)" fill="#96544a"/>
            <path id="Trazado_658262" data-name="Trazado 658262" d="M59.647,8.607l-.036,0a.227.227,0,0,1-.189-.26c.008-.049.868-5.088,1.649-6.612a.23.23,0,0,1,.306-.1.226.226,0,0,1,.1.305,36.973,36.973,0,0,0-1.6,6.475.227.227,0,0,1-.224.192" transform="translate(-6.421 -0.174)" fill="#96544a"/>
            <path id="Trazado_658263" data-name="Trazado 658263" d="M58.7,10.21a.226.226,0,0,1-.222-.18,22.174,22.174,0,0,0-2.2-5.848c-1.1-1.815-1.975-2.656-2.6-2.51-.32.148-.977,2.5-.057,6.6a.228.228,0,0,1-.444.1c-.915-4.083-.376-6.955.4-7.14.876-.205,1.831.63,3.094,2.718a22.162,22.162,0,0,1,2.254,5.99.228.228,0,0,1-.175.269.211.211,0,0,1-.047,0" transform="translate(-5.695 -0.13)" fill="#96544a"/>
            <path id="Trazado_658264" data-name="Trazado 658264" d="M52.33,11.525a.229.229,0,0,1-.2-.118c-.038-.07-3.867-6.987-5.533-7.958a.4.4,0,0,0-.174-.071c-.089.2.151,1.325,2.036,5.4.17.367.287.621.314.7a.227.227,0,0,1-.428.152c-.026-.071-.137-.311-.3-.658-1.845-3.98-2.34-5.534-1.9-5.938.161-.147.387-.136.675.031,1.772,1.034,5.542,7.842,5.7,8.131a.227.227,0,0,1-.089.309.221.221,0,0,1-.11.029" transform="translate(-4.971 -0.316)" fill="#96544a"/>
            <path id="Trazado_658265" data-name="Trazado 658265" d="M48.122,14.461a.229.229,0,0,1-.2-.111c-.7-1.193-2.761-4.346-3.9-4.623a.373.373,0,0,0-.308.032.23.23,0,0,1-.313-.071.227.227,0,0,1,.071-.313.827.827,0,0,1,.656-.089c1.527.372,3.914,4.379,4.181,4.834a.227.227,0,0,1-.2.342" transform="translate(-4.687 -1)" fill="#96544a"/>
            <path id="Trazado_658266" data-name="Trazado 658266" d="M46.576,8.946a.226.226,0,0,1-.175-.081c-.02-.023-1.962-2.333-3.151-2.623a.228.228,0,0,1-.168-.275.233.233,0,0,1,.276-.167c1.333.326,3.308,2.673,3.391,2.773a.226.226,0,0,1-.029.32.222.222,0,0,1-.144.053" transform="translate(-4.655 -0.626)" fill="#96544a"/>
            <path id="Trazado_658267" data-name="Trazado 658267" d="M65.274,6.652a.216.216,0,0,1-.087-.018.227.227,0,0,1-.122-.3c.048-.116,1.2-2.873,1.805-3.9a.227.227,0,0,1,.391.233c-.594.995-1.764,3.809-1.777,3.838a.227.227,0,0,1-.21.14" transform="translate(-7.029 -0.252)" fill="#96544a"/>
            <path id="Trazado_658268" data-name="Trazado 658268" d="M44.071,26.884a.226.226,0,0,1-.21-.142,2.905,2.905,0,0,1,.329-2.148,1.977,1.977,0,0,1,1.507-1,3.512,3.512,0,0,1,2.63,1.033c.008.006.8.717.8.982a.227.227,0,0,1-.442.07c-.122-.2-1.453-1.812-2.929-1.634a1.517,1.517,0,0,0-1.171.78,2.523,2.523,0,0,0-.3,1.746.227.227,0,0,1-.126.3.217.217,0,0,1-.085.016" transform="translate(-4.73 -2.548)" fill="#2b1011"/>
            <path id="Trazado_658269" data-name="Trazado 658269" d="M64.111,24.4H62.957a.227.227,0,0,1,0-.454h1.154a.6.6,0,0,0,.569-.788,21.52,21.52,0,0,0-.79-2.224.214.214,0,0,1,.011-.31.242.242,0,0,1,.331.012,10.189,10.189,0,0,1,.88,2.378,1.053,1.053,0,0,1-1,1.384" transform="translate(-6.779 -2.222)" fill="#2b1011"/>
            <path id="Trazado_658270" data-name="Trazado 658270" d="M62.8,28.061a2.659,2.659,0,0,1-.518-.053c-1.824-.359-2.209-1.445-2.224-1.49a.227.227,0,0,1,.431-.145c.012.035.334.887,1.882,1.19a1.806,1.806,0,0,0,2.068-1.075.227.227,0,0,1,.423.166A2.319,2.319,0,0,1,62.8,28.061" transform="translate(-6.489 -2.833)" fill="#2b1011"/>
            <path id="Trazado_658271" data-name="Trazado 658271" d="M60.82,17.441a7.068,7.068,0,0,1-3.454,1.391.524.524,0,0,1-.666-.42c.232-1.68,2.554-2.59,3.941-1.861a.522.522,0,0,1,.178.891" transform="translate(-6.127 -1.761)" fill="#2b1011"/>
            <path id="Trazado_658272" data-name="Trazado 658272" d="M65.92,16.553a2.863,2.863,0,0,1,3.287.986c.458.563.563,2.114-.481,1.573a5.692,5.692,0,0,0-1.292-.867c-.349-.249-2.745-.873-1.515-1.692" transform="translate(-7.086 -1.77)" fill="#2b1011"/>
            <path id="Trazado_658273" data-name="Trazado 658273" d="M58.15,20.7c0,.578.3,1.046.661,1.046s.66-.468.66-1.046-.3-1.046-.66-1.046-.661.468-.661,1.046" transform="translate(-6.284 -2.124)" fill="#2b1011"/>
            <path id="Trazado_658274" data-name="Trazado 658274" d="M65.571,20.7c0,.578.3,1.046.661,1.046s.66-.468.66-1.046-.3-1.046-.66-1.046-.661.468-.661,1.046" transform="translate(-7.086 -2.124)" fill="#2b1011"/>
            <path id="Trazado_658275" data-name="Trazado 658275" d="M24.392,180.488a1.358,1.358,0,0,1-.9-.342l-6.081-5.373c-.026-.023-.051-.046-.075-.071-.952-.98-1.922-4.321-1.922-6.622a1.362,1.362,0,1,1,2.725,0A11.629,11.629,0,0,0,19.29,172.8l6,5.305a1.362,1.362,0,0,1-.9,2.383" transform="translate(-1.665 -18.016)" fill="#96544a"/>
            <path id="Trazado_658276" data-name="Trazado 658276" d="M20.9,181.213a1.361,1.361,0,0,1-.927-.363,60.04,60.04,0,0,1-5.763-6.007c-.852-1.033-1.545-4.443-1.357-6.736a1.362,1.362,0,1,1,2.715.223,11.415,11.415,0,0,0,.783,4.83,59.194,59.194,0,0,0,5.476,5.692,1.362,1.362,0,0,1-.928,2.361" transform="translate(-1.385 -18.031)" fill="#96544a"/>
            <g id="Grupo_996024" data-name="Grupo 996024" transform="translate(59.967 210.303)" opacity="0.5">
              <g id="Grupo_996023" data-name="Grupo 996023">
                <g id="Grupo_996022" data-name="Grupo 996022" clip-path="url(#clip-path-6)">
                  <path id="Trazado_658277" data-name="Trazado 658277" d="M82.418,235.783l-.37,7.588a55.469,55.469,0,0,1-14.49-.425l-.326-6.5,4.842-.668Z" transform="translate(-67.233 -235.783)" fill="#343b70"/>
                </g>
              </g>
            </g>
            <path id="Trazado_658278" data-name="Trazado 658278" d="M17.255,181.248a1.356,1.356,0,0,1-.923-.361c-3.947-3.641-5.008-5.529-5.293-6.276-.743-1.385-.9-4.851-.79-6.179a1.362,1.362,0,1,1,2.715.223,15.051,15.051,0,0,0,.439,4.606,1.365,1.365,0,0,1,.208.468h0c.009,0,.652,1.542,4.568,5.155a1.362,1.362,0,0,1-.924,2.365m-3.921-8.078v0" transform="translate(-1.104 -18.066)" fill="#96544a"/>
            <path id="Trazado_658279" data-name="Trazado 658279" d="M13.673,180.36a1.36,1.36,0,0,1-.982-.417l-4.338-4.518c-.024-.025-.046-.05-.069-.077-1.007-1.22-.607-6.246-.59-6.459a1.363,1.363,0,0,1,2.716.223,22.535,22.535,0,0,0,.079,4.6l4.166,4.337a1.362,1.362,0,0,1-.983,2.307m-3.151-6.525h0Z" transform="translate(-0.822 -18.115)" fill="#96544a"/>
            <g id="Grupo_996027" data-name="Grupo 996027" transform="translate(28.748 209.348)" opacity="0.5">
              <g id="Grupo_996026" data-name="Grupo 996026">
                <g id="Grupo_996025" data-name="Grupo 996025" clip-path="url(#clip-path-7)">
                  <path id="Trazado_658280" data-name="Trazado 658280" d="M47.591,235.321l-.227,7.885a93.207,93.207,0,0,1-10.709.572c-1.517,0-3-.027-4.424-.09v-8.875c1.426-.073,2.907-.1,4.424-.1a92.21,92.21,0,0,1,10.936.608" transform="translate(-32.231 -234.712)" fill="#2b1011"/>
                </g>
              </g>
            </g>
            <path id="Trazado_658281" data-name="Trazado 658281" d="M62.6,43.591c2.92,3.495,3.086,8.344.233,11.189-.815,2.538,3.145,4.127,4.343,4.543,2.363-4.376,1.315-10.407-2.9-14.617a13.4,13.4,0,0,0-1.68-1.431Z" transform="translate(-6.765 -4.676)" fill="#ffd357"/>
            <g id="Grupo_996030" data-name="Grupo 996030" transform="translate(51.621 153.785)" opacity="0.5">
              <g id="Grupo_996029" data-name="Grupo 996029">
                <g id="Grupo_996028" data-name="Grupo 996028" clip-path="url(#clip-path-8)">
                  <path id="Trazado_658282" data-name="Trazado 658282" d="M61.418,172.417l-1.626,47.207c-.754-5.423-1.4-11.236-1.917-17.195l3.071-28.24Z" transform="translate(-57.875 -172.417)" fill="#195452"/>
                </g>
              </g>
            </g>
            <path id="Trazado_658283" data-name="Trazado 658283" d="M57.837,201.476a.187.187,0,0,1-.038,0,.226.226,0,0,1-.186-.262l.009-.054,4.339-39.963a.234.234,0,0,1,.251-.2.227.227,0,0,1,.2.251l-4.341,39.977s-.011.062-.011.068a.227.227,0,0,1-.224.189" transform="translate(-6.226 -17.397)" fill="#0c7c55"/>
            <path id="Trazado_658284" data-name="Trazado 658284" d="M88.536,231.753c-.345,1.917-.681,3.834-1.027,5.749a2.447,2.447,0,0,1-1.835,1.808c-.091.018-.191.037-.282.045a138.779,138.779,0,0,1-23.8,0c-.027,0-.045-.009-.072-.009a2.462,2.462,0,0,1-2.044-1.845c-.344-1.916-.681-3.833-1.026-5.749a1.458,1.458,0,0,1,1.671-1.808c.036,0,.081.01.118.01a137.636,137.636,0,0,0,25.733.072l.89-.082a1.458,1.458,0,0,1,1.671,1.808" transform="translate(-6.313 -24.847)" fill="#0c7c55"/>
            <path id="Trazado_658285" data-name="Trazado 658285" d="M6.528,161.466c0,.268,0,8.137,1.392,11.8.276.726,10.7-1.036,10.492-1.3s-1.557-3.413-.749-4.782,1.96,1.578,1.96,1.578l1.519-3.786-2.569-6.607Z" transform="translate(-0.705 -17.113)" fill="#96544a"/>
            <path id="Trazado_658286" data-name="Trazado 658286" d="M53.548,231.423c-.379,1.942-.758,3.875-1.128,5.815a2.523,2.523,0,0,1-1.3,1.622,2.429,2.429,0,0,1-.812.274A140.586,140.586,0,0,1,26.723,240.5a2.676,2.676,0,0,1-.524-.079,2.557,2.557,0,0,1-1.783-1.562c-.6-1.886-1.2-3.761-1.791-5.647a1.4,1.4,0,0,1,1.46-1.968c.465.019.93.037,1.395.046a141.959,141.959,0,0,0,26.381-1.654c.09-.014.172-.019.253-.024a1.391,1.391,0,0,1,1.433,1.81" transform="translate(-2.434 -24.813)" fill="#0c7c55"/>
            <path id="Trazado_658287" data-name="Trazado 658287" d="M32.234,293.018v9.859H45.8l.3-10.253a16.965,16.965,0,0,1-13.862.394" transform="translate(-3.483 -31.622)" fill="#fff"/>
            <path id="Trazado_658288" data-name="Trazado 658288" d="M31.17,310.072H68.458V308.9a2.315,2.315,0,0,0-1.83-2.255L56.778,304.6l-10.666-8.062s-1.531,2.33-6.9,3.528c-6.756,1.506-7.155-2.213-7.155-2.213l-.715,9.809Z" transform="translate(-3.368 -32.045)" fill="#e77046"/>
            <path id="Trazado_658289" data-name="Trazado 658289" d="M68.879,310.108h37.28v-1.88a1.7,1.7,0,0,0-1.357-1.647l-10.84-2.071L81.4,296.868s.879,2.034-4.479,3.231c-6.756,1.506-7.155-2.213-7.155-2.213l-.715,9.809Z" transform="translate(-7.443 -32.081)" fill="#e77046"/>
            <path id="Trazado_658290" data-name="Trazado 658290" d="M46.449,60.282c.192.191.391.383.6.557,4.134-2.013,2.471-6.131,2.371-6.373l-.008-.008q-.337-.288-.649-.6a9.353,9.353,0,0,1-2.787-8.186v-2.92a7.98,7.98,0,0,0-.748.665c-4.318,4.318-3.768,11.872,1.223,16.864" transform="translate(-4.573 -4.62)" fill="#ffd357"/>
            <path id="Trazado_658291" data-name="Trazado 658291" d="M68.879,311.42h37.28v-1.88a1.637,1.637,0,0,0-.092-.533H69.054Z" transform="translate(-7.443 -33.392)" fill="#2b1011"/>
            <path id="Trazado_658292" data-name="Trazado 658292" d="M31.17,311.42H68.458v-1.173a2.281,2.281,0,0,0-.366-1.24H31.345Z" transform="translate(-3.368 -33.392)" fill="#2b1011"/>
            <path id="Trazado_658293" data-name="Trazado 658293" d="M1.51,111.739c-1.969,15.955-4.18,44.475,8.671,44.118,11.639-.322,14.811-21.643,15.835-37.687,1.105-17.312-4.435-23.492-13.474-20.534-5.38,1.76-9.063-1.852-11.032,14.1" transform="translate(0 -10.474)" fill="#fadbaf"/>
            <path id="Trazado_658294" data-name="Trazado 658294" d="M6.073,165c3.843,1.02,9.337.211,14.371-2.315-.656-1.859-.59-6.7-.59-6.7-6.689,1.762-11.573,3.1-15.426,2.827Z" transform="translate(-0.479 -16.856)" fill="#ffd357"/>
            <path id="Trazado_658295" data-name="Trazado 658295" d="M27.2,99.829a.2.2,0,0,1-.04,0,.226.226,0,0,1-.184-.263c1.174-6.58,3.322-14.967,4.606-19.978.59-2.3,1.054-4.115,1.057-4.337a.228.228,0,0,1,.227-.226.22.22,0,0,1,.227.226c0,.258-.328,1.55-1.071,4.45-1.282,5-3.428,13.381-4.6,19.944a.227.227,0,0,1-.223.187" transform="translate(-2.915 -8.107)" fill="#8f5b31"/>
            <path id="Trazado_658296" data-name="Trazado 658296" d="M17.688,156.233a.227.227,0,0,1-.128-.415c2.465-1.692,1.328-7.894,1.316-7.956a.228.228,0,0,1,.181-.266.224.224,0,0,1,.265.181c.051.267,1.2,6.557-1.5,8.415a.227.227,0,0,1-.128.04" transform="translate(-1.887 -15.949)" fill="#8f5b31"/>
            <path id="Trazado_658297" data-name="Trazado 658297" d="M21.7,149.544a.221.221,0,0,1-.1-.022.227.227,0,0,1-.108-.3c.067-.14,6.681-14.247,6.681-34.806,0-15.173-5.9-19.645-5.961-19.689a.227.227,0,0,1,.266-.368c.252.182,6.149,4.621,6.149,20.057,0,20.668-6.658,34.86-6.725,35a.228.228,0,0,1-.205.13" transform="translate(-2.32 -10.192)" fill="#8f5b31"/>
            <path id="Trazado_658298" data-name="Trazado 658298" d="M30.867,64.9a.227.227,0,0,1-.2-.119c-.022-.042-2.319-4.213-6.229-5.343a7.94,7.94,0,0,0-6.245.932.227.227,0,1,1-.222-.4,8.376,8.376,0,0,1,6.6-.971c4.095,1.184,6.4,5.384,6.5,5.561a.228.228,0,0,1-.092.309.233.233,0,0,1-.108.027" transform="translate(-1.929 -6.344)" fill="#8f5b31"/>
            <path id="Trazado_658299" data-name="Trazado 658299" d="M7.054,158.434a2.929,2.929,0,0,1-1.36-.714c-.962-.789-2.616-2.755-2.905-7.049A.227.227,0,0,1,3,150.43a.224.224,0,0,1,.243.212c.386,5.741,3.293,7.292,3.812,7.338a.219.219,0,0,1,.243.2.237.237,0,0,1-.208.255l-.035,0" transform="translate(-0.301 -16.256)" fill="#8f5b31"/>
            <path id="Trazado_658300" data-name="Trazado 658300" d="M89.749,305.824a.227.227,0,0,1-.136-.409l3.605-2.678a.227.227,0,1,1,.27.364l-3.6,2.679a.228.228,0,0,1-.136.045" transform="translate(-9.674 -32.71)" fill="#fff"/>
            <path id="Trazado_658301" data-name="Trazado 658301" d="M87.113,303.616a.227.227,0,0,1-.136-.409l3.6-2.678a.227.227,0,1,1,.271.364l-3.6,2.678a.227.227,0,0,1-.136.046" transform="translate(-9.389 -32.471)" fill="#fff"/>
            <path id="Trazado_658302" data-name="Trazado 658302" d="M84.687,301.494a.231.231,0,0,1-.183-.091.228.228,0,0,1,.047-.318l3.6-2.679a.227.227,0,1,1,.271.364l-3.6,2.678a.227.227,0,0,1-.136.045" transform="translate(-9.127 -32.242)" fill="#fff"/>
            <path id="Trazado_658303" data-name="Trazado 658303" d="M52.555,306.125a.227.227,0,0,1-.136-.409l3.6-2.678a.227.227,0,1,1,.271.364l-3.6,2.678a.227.227,0,0,1-.136.046" transform="translate(-5.655 -32.742)" fill="#fff"/>
            <path id="Trazado_658304" data-name="Trazado 658304" d="M49.919,303.919a.227.227,0,0,1-.136-.409l3.605-2.678a.227.227,0,1,1,.27.364l-3.6,2.679a.226.226,0,0,1-.136.045" transform="translate(-5.37 -32.504)" fill="#fff"/>
            <path id="Trazado_658305" data-name="Trazado 658305" d="M47.494,301.8a.231.231,0,0,1-.183-.091.228.228,0,0,1,.047-.318l3.6-2.678a.227.227,0,1,1,.271.364l-3.6,2.678a.227.227,0,0,1-.136.045" transform="translate(-5.108 -32.275)" fill="#fff"/>
            <path id="Trazado_658306" data-name="Trazado 658306" d="M63.1,160.886a.227.227,0,0,1-.151-.4l4.957-4.42a.227.227,0,0,1,.3.34l-4.958,4.42a.224.224,0,0,1-.151.057" transform="translate(-6.795 -16.859)" fill="#0c7c55"/>
            <path id="Trazado_658307" data-name="Trazado 658307" d="M90.221,97.065a.227.227,0,0,1-.192-.1.22.22,0,0,1,.058-.309.815.815,0,0,1,.069-.052,25.04,25.04,0,0,1,6.18-3.107,14.981,14.981,0,0,1,8.963-.384.227.227,0,0,1-.126.437,14.534,14.534,0,0,0-8.7.378,24.614,24.614,0,0,0-6.065,3.051.283.283,0,0,1-.063.049.246.246,0,0,1-.128.037" transform="translate(-9.725 -10.006)" fill="#8f5b31"/>
            <path id="Trazado_658308" data-name="Trazado 658308" d="M105.412,93.169l4.749-2.038s5.793,14.332,5.6,14.4-4.774,2.058-4.774,2.058l-5-5.355Z" transform="translate(-11.391 -9.848)" fill="#195452"/>
            <path id="Trazado_658309" data-name="Trazado 658309" d="M113.269,98.46c1.654,3.941.885,8.02-1.718,9.113s-6.053-1.217-7.706-5.157-.885-8.02,1.717-9.113,6.054,1.217,7.707,5.157" transform="translate(-11.128 -10.053)" fill="#ffd357"/>
            <path id="Trazado_658310" data-name="Trazado 658310" d="M115.973,105.519a4.105,4.105,0,0,1-3.434-.245,9.436,9.436,0,0,1-4.278-4.915,10.248,10.248,0,0,1-.454-1.29,9.744,9.744,0,0,1-.373-3.687v-.01a5.479,5.479,0,0,1,.082-.563,4.471,4.471,0,0,1,2.462-3.561,3.544,3.544,0,0,1,1.371-.273h.01a5.246,5.246,0,0,1,3.051,1.127.585.585,0,0,1,.145.109,10.186,10.186,0,0,1,3.134,4.2,10.787,10.787,0,0,1,.6,1.881c.763,3.288-.128,6.312-2.316,7.23" transform="translate(-11.605 -9.831)" fill="#2b1011"/>
            <path id="Trazado_658311" data-name="Trazado 658311" d="M119.025,95.947s-.263,1.081-.736,2.48c-.736,2.208-1.98,5.241-3.488,6.1a9.308,9.308,0,0,1-2.261.89,9.448,9.448,0,0,1-4.279-4.915,10.248,10.248,0,0,1-.454-1.29,9.749,9.749,0,0,1-.373-3.688v-.009l2.5-2.216,3.515-.881.854-.054.255-.009,1.416-.091L119,93.867Z" transform="translate(-11.605 -9.97)" fill="#96544a"/>
            <path id="Trazado_658312" data-name="Trazado 658312" d="M115.532,101.818a1.363,1.363,0,0,1-1.149-2.092l3.663-5.771a1.362,1.362,0,0,1-.032-2.322,1.963,1.963,0,0,1,2.592.221,2.465,2.465,0,0,1,.113,2.975l-4.036,6.357a1.362,1.362,0,0,1-1.151.632m2.968-8.571-.01.014.01-.014" transform="translate(-12.338 -9.861)" fill="#96544a"/>
            <path id="Trazado_658313" data-name="Trazado 658313" d="M118.824,102.06a1.363,1.363,0,0,1-1.149-2.093l2.546-4.012a1.334,1.334,0,0,1-.116-.136,1.362,1.362,0,0,1,.286-1.905,1.784,1.784,0,0,1,2.4.075,2.231,2.231,0,0,1,.169,2.729l-2.99,4.71a1.363,1.363,0,0,1-1.151.632m1.92-6.921h0" transform="translate(-12.693 -10.103)" fill="#96544a"/>
            <path id="Trazado_658314" data-name="Trazado 658314" d="M120.967,102.857a1.363,1.363,0,0,1-1.149-2.093l2.037-3.209a1.349,1.349,0,0,1-.222-.469,1.363,1.363,0,0,1,.98-1.659,1.866,1.866,0,0,1,2,2.871l-2.493,3.927a1.363,1.363,0,0,1-1.151.632" transform="translate(-12.925 -10.306)" fill="#96544a"/>
            <path id="Trazado_658315" data-name="Trazado 658315" d="M115.937,90.014l-1.526,1.608-.109.118-6.5,6.849a9.747,9.747,0,0,1-.372-3.688v-.009c.018-.191.045-.382.081-.564l3.834-3.833h.009c3.443-3.314,4.617-3.856,4.617-3.856a.853.853,0,0,1,1.244.7,4.883,4.883,0,0,1-1.283,2.67" transform="translate(-11.605 -9.35)" fill="#96544a"/>
            <path id="Trazado_658316" data-name="Trazado 658316" d="M112.976,99.767a1.363,1.363,0,0,1-1.089-2.18L115.5,92.77l-2.5.977a1.363,1.363,0,0,1-.99-2.539l3.883-1.513a1.327,1.327,0,0,1,.156-.05,1.98,1.98,0,0,1,2.168.885,2.868,2.868,0,0,1,0,3.166l-4.143,5.526a1.361,1.361,0,0,1-1.091.545" transform="translate(-12.01 -9.681)" fill="#96544a"/>
            <path id="Trazado_658317" data-name="Trazado 658317" d="M110.191,98.619a.227.227,0,0,1-.125-.417,13.531,13.531,0,0,0,3-3.043,71.6,71.6,0,0,0,4.02-6.876.228.228,0,0,1,.4.21,72.3,72.3,0,0,1-4.059,6.936,13.694,13.694,0,0,1-3.12,3.155.225.225,0,0,1-.124.036" transform="translate(-11.883 -9.527)" fill="#2b1011"/>
            <path id="Trazado_658318" data-name="Trazado 658318" d="M112.888,100.441a1.058,1.058,0,0,1-.875-.458,3.165,3.165,0,0,1,.073-3,.227.227,0,1,1,.41.2,2.721,2.721,0,0,0-.116,2.537.61.61,0,0,0,.61.265c.887-.12,4.2-4.625,5-6.391a2.384,2.384,0,0,0,.023-2.352.227.227,0,0,1,.367-.268,2.815,2.815,0,0,1,.024,2.809c-.644,1.415-4.075,6.48-5.355,6.653a1.274,1.274,0,0,1-.163.011" transform="translate(-12.067 -9.821)" fill="#2b1011"/>
            <path id="Trazado_658319" data-name="Trazado 658319" d="M115.267,102.334a1.669,1.669,0,0,1-.479-.084l-.1-.029a.655.655,0,0,1-.434-.373,3.679,3.679,0,0,1,.26-2.682.227.227,0,0,1,.418.177,3.369,3.369,0,0,0-.274,2.3c.039.078.085.124.136.136s.081.021.124.034c.433.126,1.153.335,3.479-2.814,2.515-3.405,2.337-6.038,2.334-6.064a.227.227,0,0,1,.208-.244.232.232,0,0,1,.245.207c.009.113.2,2.817-2.422,6.372-1.919,2.6-2.885,3.065-3.492,3.065" transform="translate(-12.329 -10.016)" fill="#2b1011"/>
            <path id="Trazado_658320" data-name="Trazado 658320" d="M118.466,102.539c-.042,0-.084,0-.127,0a.864.864,0,0,1-.687-.364,1.893,1.893,0,0,1-.082-1.424.223.223,0,0,1,.283-.151.228.228,0,0,1,.152.284,1.474,1.474,0,0,0,.022,1.034.4.4,0,0,0,.343.168c.841.049,1.539-.624,2.757-2.7a30.143,30.143,0,0,0,2.011-4.314.227.227,0,0,1,.427.153,30.546,30.546,0,0,1-2.047,4.391c-1.107,1.888-1.934,2.929-3.053,2.929" transform="translate(-12.694 -10.257)" fill="#2b1011"/>
            <path id="Trazado_658321" data-name="Trazado 658321" d="M22.981,180.3a.222.222,0,0,1-.121-.035,38.734,38.734,0,0,1-6.214-5.025,10.841,10.841,0,0,1-3.009-6.083.229.229,0,0,1,.208-.246.238.238,0,0,1,.245.208,10.578,10.578,0,0,0,2.884,5.807,38.382,38.382,0,0,0,6.129,4.956.227.227,0,0,1-.121.418" transform="translate(-1.473 -18.253)" fill="#2b1011"/>
            <path id="Trazado_658322" data-name="Trazado 658322" d="M19.818,181.629a.231.231,0,0,1-.138-.047c-.217-.166-5.337-4.1-6.9-6.8a16.716,16.716,0,0,1-1.974-5.021.228.228,0,0,1,.185-.262.237.237,0,0,1,.263.185,16.572,16.572,0,0,0,1.919,4.87c1.515,2.621,6.729,6.628,6.781,6.668a.228.228,0,0,1-.138.408" transform="translate(-1.168 -18.316)" fill="#2b1011"/>
            <path id="Trazado_658323" data-name="Trazado 658323" d="M15.722,181.245a.221.221,0,0,1-.16-.065c-.022-.021-2.191-2.153-4.348-4.535a16.391,16.391,0,0,1-2.761-5.563.226.226,0,1,1,.436-.122,16.329,16.329,0,0,0,2.661,5.38c2.15,2.372,4.308,4.494,4.329,4.517a.226.226,0,0,1-.158.388" transform="translate(-0.913 -18.456)" fill="#2b1011"/>
            <g id="Grupo_996033" data-name="Grupo 996033" transform="translate(81.632 94.507)" opacity="0.5">
              <g id="Grupo_996032" data-name="Grupo 996032">
                <g id="Grupo_996031" data-name="Grupo 996031" clip-path="url(#clip-path-9)">
                  <path id="Trazado_658324" data-name="Trazado 658324" d="M109.708,111.316c-3.215,4.915-9.229,9.192-14.2,11.972-.054.027-.1.054-.154.081a144.431,144.431,0,0,1-3.833-17.412,17.97,17.97,0,0,0,.89,2.57,9.582,9.582,0,0,0,5.813,5.6,11.152,11.152,0,0,0,11.482-2.816" transform="translate(-91.523 -105.957)" fill="#8f5b31"/>
                </g>
              </g>
            </g>
            <g id="Grupo_996036" data-name="Grupo 996036" transform="translate(78.163 63.841)" opacity="0.5">
              <g id="Grupo_996035" data-name="Grupo 996035">
                <g id="Grupo_996034" data-name="Grupo 996034" clip-path="url(#clip-path-10)">
                  <path id="Trazado_658325" data-name="Trazado 658325" d="M96.153,91.441A24.872,24.872,0,0,0,90.03,94.52l-2.4-22.944s3.116,14.2,8.521,19.865" transform="translate(-87.632 -71.576)" fill="#8f5b31"/>
                </g>
              </g>
            </g>
            <path id="Trazado_658326" data-name="Trazado 658326" d="M199.375,297.029c-.31-.092-.611-.19-.913-.281L186,270.079l-2.4-4.911-.029-.05-.45-.927-.049-.085V264.1l-.366-.752-.056-.112-.1-.2-.154-.31-.014-.035-.309-.632-.021-.043-.232-.477-.394-.8-10.364-21.207-2.537-5.192-.189-.38-.219-.45.626-.309.274.563,1.222,2.494.26.541.92,1.87,10.006,20.475.956,1.953.288.59.12.239.14.288.1.2.035.07v.007l.049.105.225.45.056.127.148.288v.007l.548,1.11.225.471,1.68,3.429Z" transform="translate(-18.168 -25.2)" fill="#9ba4db"/>
            <path id="Trazado_658327" data-name="Trazado 658327" d="M213.293,279.182l-49.222-22.433.282-.644,49.222,22.433Z" transform="translate(-17.73 -27.676)" fill="#9ba4db"/>
            <path id="Trazado_658328" data-name="Trazado 658328" d="M194.1,226.343l-.2.73-.077.268-.485,1.77-1.729,6.31-1.827,6.64-1.11,4.069-1.082,3.934-.211.766-.576,2.109-1.947,7.1-.252.913-.021.085-.078.288-.126.45-.043.148-.084.3-.049.183-.056.2-.219.814-.021.063-.26.942-7.324,25.029-.021.07c-.225-.077-.442-.154-.668-.232l6.6-22.372.787-2.874.387-1.413.049-.169.042-.147.127-.457.007-.036.028-.091.021-.1.056-.2.084-.317.2-.7.07-.26L186.8,250.3l.007-.013.2-.752.984-3.584,1.118-4.069,1.82-6.626,2.185-7.961.127-.478.183-.661.26.07Z" transform="translate(-18.98 -24.439)" fill="#9ba4db"/>
            <path id="Trazado_658329" data-name="Trazado 658329" d="M211.658,250.892l-.147.071-.07.034-5.657,2.761-4.23,2.067-1.265.619-4.068,1.988-.668.323-1.637.8-.681.33-3.654,1.786-3.323,1.623-.6.294-1.349.66-.415.2-.422.2-.366.175-.105.056-.359.169-.049.029-.225.105-.105.056-.962.471-.211.1-15.2,7.155c-.3-.112-.6-.225-.892-.344l16.091-7.583.043-.021.667-.331.26-.127.112-.056.3-.148.043-.013.112-.062.063-.029.667-.323.26-.127.5-.245,1.539-.753,1.5-.73,5.523-2.7.681-.337,2.094-1.026.667-.323,4.954-2.418,1.272-.625,2.4-1.174,5.726-2.8.71-.345.154-.078Z" transform="translate(-17.831 -27.044)" fill="#9ba4db"/>
            <path id="Trazado_658330" data-name="Trazado 658330" d="M202.059,297.082c-6.443,0-12.829-2.843-18.28-8.2-6.326-6.223-10.639-15.108-12.145-25.019s-.029-19.675,4.161-27.5c4.226-7.889,10.7-12.864,18.236-14.01s15.2,1.681,21.576,7.955c6.326,6.224,10.639,15.109,12.145,25.019s.029,19.675-4.161,27.5c-4.226,7.888-10.7,12.863-18.236,14.009a22.033,22.033,0,0,1-3.3.249m-4.742-73.572a20.511,20.511,0,0,0-3.076.234c-7.086,1.077-13.2,5.794-17.208,13.282-4.048,7.556-5.472,17.011-4.01,26.623s5.632,18.217,11.741,24.228c6.056,5.957,13.293,8.645,20.379,7.566s13.2-5.794,17.208-13.281c4.048-7.556,5.472-17.011,4.01-26.624s-5.632-18.217-11.741-24.228c-5.181-5.1-11.228-7.8-17.3-7.8" transform="translate(-18.485 -24.001)" fill="#2b1011"/>
            <path id="Trazado_658331" data-name="Trazado 658331" d="M201.057,268.555l3.6,28.916c-.238-.063-.484-.127-.73-.183l-3.626-29.056-.1-.815-.738-5.923-.12-.963-.112-.928-.021-.12-.029-.225-.042-.351-.091-.731-.049-.386-.275-2.221-.091-.738-.913-7.35-.562-4.526-.935-7.5-.857-6.929-.225-1.82-.07-.548-.2-1.554-.281-2.3-.183-1.447.7-.085.2,1.589.309,2.5.1.78.1.8.042.316,1.1,8.868.935,7.526.569,4.532.843,6.823.092.738.421,3.359.029.218.007.091.014.092.062.513.014.133.043.344.028.225.942,7.526Z" transform="translate(-21.009 -23.857)" fill="#9ba4db"/>
            <path id="Trazado_658332" data-name="Trazado 658332" d="M220.167,281.339c-.422-.063-.386.07-.8,0l-5.012-4.082-.625-.576-.549-.506-.885-.815L197.16,261.411l-.042-.036-.169-.154-.3-.274-.225-.2-.112-.105-.337-.316-1.35-1.244-1.089-1-.548-.506-6.45-5.945-.576-.526-.007-.007-4.56-4.2-9.69-8.925-1.236-1.138-2.621-2.774,2.361,2.233-1.883-2.753,3.7,3.758,9.373,8.636,4.568,4.209.2.19.583.534,6.921,6.373.548.513,1.322,1.209.639.6.647.6.07.056.085.084.365.337.225.2,15.8,14.559,1.187,1.1Z" transform="translate(-18.139 -25.237)" fill="#9ba4db"/>
            <path id="Trazado_658333" data-name="Trazado 658333" d="M214.923,236.442l-1.546,2.27-1.743,2.55-.7,1.027-.906,1.321-2.917,4.279-2.515,3.689-1.054,1.539-.8,1.173-4.153,6.093-.358.52-.169.252-.05.078-.056.07-.126.189-.471.689-.886,1.3-2.53,3.71-.408.59-17.207,21.564c-.232-.07-.073-.64-.305-.71L192.886,267.5l.408-.59,2.228-3.267v-.007l1.616-2.368.091-.133.085-.12.351-.52.049-.07.049-.07.07-.1,3.646-5.347.795-1.167,1.616-2.361,2.508-3.689,3.26-4.771.893-1.308.359-.526,2.059-3.022,1.377-2.017Z" transform="translate(-19.022 -25.508)" fill="#9ba4db"/>
            <path id="Trazado_658334" data-name="Trazado 658334" d="M221.463,260.709h-.007l-2.319.288-3.829.471-1.413.176-16.52,2.051-.393.049-.063.007-.056.007-.408.049-.288.036-.112.013-10.287,1.279-1.35.169-.464.056-.611.078-.309.035-.148.021-.287.035h-.007l-.309.036-.127.021-.484.056-.45.056H181.2l-12.725,1.581-2.361.3h-.021v-.014l-.091-.689,2.367-.3,12.044-1.49.788-.1.133-.014.443-.056.049-.007.66-.078.078-.013.225-.029.759-.091.078-.007.6-.078,1.539-.19.6-.077,9.416-1.167.3-.035.506-.063.12-.014h.028l.049-.007.731-.091,16.288-2.017,1.413-.176,3.829-.471,2.375-.3Z" transform="translate(-17.939 -28.098)" fill="#9ba4db"/>
            <path id="Trazado_658335" data-name="Trazado 658335" d="M197.964,266.179a.372.372,0,0,1-.083.026l-12.865,2.136-.7-4.177,12.956-2.148v.021c.711,0,1.4.774,1.607,1.825.21,1.108-.2,2.116-.92,2.317" transform="translate(-19.918 -28.314)" fill="#2b1011"/>
            <path id="Trazado_658336" data-name="Trazado 658336" d="M196.356,301.487c-7.116,0-14.164-3.357-20.158-9.68-6.69-7.056-11.3-17.037-12.983-28.1s-.247-21.968,4.042-30.692c4.457-9.066,11.452-14.747,19.7-16,16.616-2.533,33.016,14.307,36.546,37.528,1.684,11.068.248,21.968-4.042,30.693-4.456,9.065-11.452,14.747-19.7,16a22.551,22.551,0,0,1-3.405.257m-6.007-79.115a16.932,16.932,0,0,0-2.548.194c-6.373.969-11.877,5.559-15.5,12.922-3.788,7.705-5.041,17.425-3.529,27.369s5.6,18.851,11.5,25.082c5.647,5.957,12.267,8.7,18.64,7.733s11.877-5.559,15.5-12.924c3.789-7.7,5.042-17.425,3.53-27.368-2.873-18.89-14.932-33.008-27.6-33.008" transform="translate(-17.563 -23.423)" fill="#9ba4db"/>
            <path id="Trazado_658337" data-name="Trazado 658337" d="M185.91,266.253c.217,1.146-.233,2.193-1,2.339s-1.57-.665-1.787-1.811.233-2.194,1-2.34,1.57.666,1.787,1.812" transform="translate(-19.783 -28.575)" fill="#5760a3"/>
            <path id="Trazado_658338" data-name="Trazado 658338" d="M214.4,284.989l-42.636-9.432c-3.438-.813-4.417.772-4.578,1.1l-3.863-1.688c.761-1.807,3.7-4.871,9.384-3.52l42.6,9.424Z" transform="translate(-17.649 -29.298)" fill="#343b70"/>
            <path id="Trazado_658339" data-name="Trazado 658339" d="M160.027,242.053l-3.071,2.073-1.834,1.243-1.68,1.132-.12.084-3.562,2.4-.674.457-.619.421-4.911,3.317-4.617,3.127-2.747,1.854-24.871,16.248c-1.258-.275-2.508-.556-3.759-.858l25.593-16.732,2.748-1.855,7.779-5.263,4.6-3.106.569-.386,5.544-3.745,1.876-1.265.681-.464,1.5-1.012Z" transform="translate(-11.624 -25.906)" fill="#5760a3"/>
            <path id="Trazado_658340" data-name="Trazado 658340" d="M184.363,274.742l-.078.035a5.011,5.011,0,0,1-3.961.053c-13.785-5.7-94.992-39.33-96.484-40.32l-.007-.007c-.1-.063-.189-.127-.267-.183-.618-.45-.674-.689-.738-.977l.3-1.265,1.069.907,1.4-.1a1.282,1.282,0,0,0-.337-.765c.328.241,79.333,31.374,99.039,39.177a1.868,1.868,0,0,1,.065,3.445" transform="translate(-8.951 -25.079)" fill="#5760a3"/>
            <rect id="Rectángulo_312918" data-name="Rectángulo 312918" width="4.216" height="50.353" transform="translate(148.694 220.705) rotate(-74.607)" fill="#343b70"/>
            <path id="Trazado_658341" data-name="Trazado 658341" d="M167.508,196.17v71.6a2.25,2.25,0,0,1-2.163,2.249l-.068,0a2.251,2.251,0,0,1-2.337-2.249v-71.6Z" transform="translate(-17.608 -21.199)" fill="#5760a3"/>
            <path id="Trazado_658342" data-name="Trazado 658342" d="M167.187,229.258,155.463,204.5l-6.179-32.587a13.638,13.638,0,0,0-12.921-9.275H83.211v0H78.646a1.444,1.444,0,0,0-1.444,1.444,1.631,1.631,0,0,0,1.631,1.631,6.348,6.348,0,0,1,6.193,4.948l10.726,55.911Z" transform="translate(-8.343 -17.575)" fill="#2b1011"/>
            <path id="Trazado_658343" data-name="Trazado 658343" d="M214.895,243.548l-38.773-8.885a16.976,16.976,0,0,1-13.185-16.547V207.289l51.958,8.431Z" transform="translate(-17.608 -22.4)" fill="#5760a3"/>
            <path id="Trazado_658344" data-name="Trazado 658344" d="M222.859,204.583v71.005a2.25,2.25,0,0,1-2.232,2.249h-.068a2.249,2.249,0,0,1-2.268-2.249V204.583Z" transform="translate(-23.589 -22.108)" fill="#343b70"/>
            <path id="Trazado_658345" data-name="Trazado 658345" d="M210.673,205.5l-50.845-6,.056-4.732,50.916,5.52Z" transform="translate(-17.272 -21.048)" fill="#343b70"/>
            <path id="Trazado_658346" data-name="Trazado 658346" d="M210.807,200.292l-50.916-5.52h9.546l52.283,5.518Z" transform="translate(-17.278 -21.048)" fill="#343b70"/>
            <path id="Trazado_658347" data-name="Trazado 658347" d="M227.874,200.958l-.128,5.194-10.912.02.128-5.212Z" transform="translate(-23.432 -21.716)" fill="#343b70"/>
            <path id="Trazado_658348" data-name="Trazado 658348" d="M203.683,245.906l-73.49.173L83.1,234.592H154.31Z" transform="translate(-8.981 -25.351)" fill="#2b1011"/>
            <path id="Trazado_658349" data-name="Trazado 658349" d="M224.4,309.429c-4.215,0-8.013-4.109-8.885-9.843a13.46,13.46,0,0,1,1.053-7.886,6.992,6.992,0,0,1,11.98-1.821,13.47,13.47,0,0,1,3.35,7.218c.938,6.176-1.924,11.56-6.516,12.26a6.522,6.522,0,0,1-.981.074m-1.407-18.662a2.885,2.885,0,0,0-.433.033,4.152,4.152,0,0,0-2.839,2.449,10.068,10.068,0,0,0-.732,5.808c.621,4.087,3.307,7.212,5.864,6.823s4.193-4.171,3.571-8.258A10.063,10.063,0,0,0,226,292.3a4.419,4.419,0,0,0-3-1.528" transform="translate(-23.27 -31.042)" fill="#2b1011"/>
            <path id="Trazado_658350" data-name="Trazado 658350" d="M226.624,298.972c.262,1.726-.5,3.273-1.7,3.455s-2.387-1.069-2.649-2.794.5-3.272,1.7-3.455,2.387,1.069,2.649,2.794" transform="translate(-24.014 -32.004)" fill="#2b1011"/>
            <path id="Trazado_658351" data-name="Trazado 658351" d="M239.282,292.1l-7.5-33.8a10.716,10.716,0,0,0-10.84-8.378l-.205-5.617a16.3,16.3,0,0,1,16.533,12.777l7.5,33.8Z" transform="translate(-23.854 -26.399)" fill="#343b70"/>
            <path id="Trazado_658352" data-name="Trazado 658352" d="M237.052,295.367H160.57a1.23,1.23,0,0,0,0,2.459h76.482a1.23,1.23,0,0,0,0-2.459" transform="translate(-17.219 -31.918)" fill="#2b1011"/>
            <path id="Trazado_658353" data-name="Trazado 658353" d="M210.331,245.616a6.991,6.991,0,0,1-6.725,6.975,6.294,6.294,0,0,1-2-.33l-29.6-9.9-13.227-4.424.829-23.663L202,231.978a13.906,13.906,0,0,1,8.224,11.265,14.95,14.95,0,0,1,.107,2.373" transform="translate(-17.158 -23.155)" fill="#f46464"/>
            <g id="Grupo_996039" data-name="Grupo 996039" transform="translate(148.408 206.067)" opacity="0.5">
              <g id="Grupo_996038" data-name="Grupo 996038">
                <g id="Grupo_996037" data-name="Grupo 996037" clip-path="url(#clip-path-11)">
                  <path id="Trazado_658354" data-name="Trazado 658354" d="M211.153,247.427a6.991,6.991,0,0,1-6.725,6.975,6.293,6.293,0,0,1-2-.33l-29.6-9.9-6.44-13.138s20.077,15.689,33.189,17.866c8.839,1.472,11-1.659,11.47-3.844a14.95,14.95,0,0,1,.107,2.373" transform="translate(-166.388 -231.033)" fill="#ea2e2e"/>
                </g>
              </g>
            </g>
            <path id="Trazado_658355" data-name="Trazado 658355" d="M157.025,237.716H125.137c-5.383,0-8.943-5.772-8.017-12.412l2.084-14.952h43.754l2.084,14.952c.925,6.64-2.634,12.412-8.017,12.412" transform="translate(-12.641 -22.731)" fill="#f46464"/>
            <path id="Trazado_658356" data-name="Trazado 658356" d="M175.33,246.449a7.2,7.2,0,0,1-5.228,6.681.1.1,0,0,0-.045.009c-.062.018-.134.045-.223.071-.3.062-.607.116-.919.152H168.9a6.927,6.927,0,0,1-2.926-.294l-35.587-12.22-7.663-2.631-1.936-23.244,42.456,15.662c5.592,2.185,12.291,9.811,12.087,15.814" transform="translate(-13.053 -23.231)" fill="#f46464"/>
            <path id="Trazado_658357" data-name="Trazado 658357" d="M169.028,134.871l2.539.774a12.408,12.408,0,0,1,8.8,9.435L188.9,183H169.6Z" transform="translate(-18.266 -14.575)" fill="#ffead9"/>
            <g id="Grupo_996042" data-name="Grupo 996042" transform="translate(153.316 142.281)" opacity="0.5">
              <g id="Grupo_996041" data-name="Grupo 996041">
                <g id="Grupo_996040" data-name="Grupo 996040" clip-path="url(#clip-path-12)">
                  <path id="Trazado_658358" data-name="Trazado 658358" d="M171.891,185.355c.506-7.606,1.166-18.717,1.265-25.827l.009-.009c0,.75,3.821,23.812,6.567,28.727,2.015,3.6-4.3-.451-7.841-2.891" transform="translate(-171.891 -159.519)" fill="#a78a6a"/>
                </g>
              </g>
            </g>
            <path id="Trazado_658359" data-name="Trazado 658359" d="M179.62,193.364c-3.915.6-7.494-.109-9.42-1.635a3.582,3.582,0,0,1-1.435-2.271,5.339,5.339,0,0,1,.554-3.152c1.044-2.1,3.452-3.824,7.177-3.4a70.344,70.344,0,0,1,8.574,1.254,8.515,8.515,0,0,1,2.835,1.153,2.392,2.392,0,0,1,.908,1.09c1.044,2.852-3.66,6.122-9.192,6.958" transform="translate(-18.232 -19.759)" fill="#2b1011"/>
            <path id="Trazado_658360" data-name="Trazado 658360" d="M211.429,191.372l-.9,6.609c-10.282-.063-21.289.252-31.544-.22a10.169,10.169,0,0,1-8.72-6.031,9.841,9.841,0,0,1-.88-5.423c1.044-2.1,3.451-3.825,7.176-3.4a70.386,70.386,0,0,1,8.575,1.254c-.064.2-.128.409-.191.608l3.025.545c7.63,1.372,15.894,4.4,23.461,6.055" transform="translate(-18.296 -19.759)" fill="#f3a071"/>
            <path id="Trazado_658361" data-name="Trazado 658361" d="M186.685,170.7a.2.2,0,0,1-.192-.153c-2.1-9.037-5.928-13.6-8.021-15.517a.2.2,0,1,1,.266-.29c2.126,1.947,6.012,6.577,8.137,15.718a.2.2,0,0,1-.146.236.2.2,0,0,1-.044.005" transform="translate(-19.279 -16.716)" fill="#a78a6a"/>
            <path id="Trazado_658362" data-name="Trazado 658362" d="M168.011,180.835a.179.179,0,0,1-.037,0,.2.2,0,0,1-.155-.23c1.251-6.375,7.437-9.561,9.47-10.607a5.993,5.993,0,0,0,.617-.34.193.193,0,0,1,.274-.024.2.2,0,0,1,.024.28,2.912,2.912,0,0,1-.735.433c-1.992,1.026-8.05,4.146-9.265,10.333a.2.2,0,0,1-.193.16" transform="translate(-18.135 -18.326)" fill="#a78a6a"/>
            <path id="Trazado_658363" data-name="Trazado 658363" d="M167.771,136.087l-3.641,73.686c.289,4.282-18.365,5.547-32.692,4.228h-.009c-5.962-.55-11.183-1.545-13.956-2.953L115.331,170.5l-1.878-35.6c3.784-1.662,8.058-1.843,12.032-2.71a62.65,62.65,0,0,1,26.08-.118c5.509,1.138,10.569,1.762,16.206,4.011" transform="translate(-12.26 -14.131)" fill="#ffead9"/>
            <g id="Grupo_996045" data-name="Grupo 996045" transform="translate(103.071 143.771)" opacity="0.5">
              <g id="Grupo_996044" data-name="Grupo 996044">
                <g id="Grupo_996043" data-name="Grupo 996043" clip-path="url(#clip-path-13)">
                  <path id="Trazado_658364" data-name="Trazado 658364" d="M131.657,217.288c-5.962-.551-11.183-1.545-13.957-2.954l-2.141-40.542,2.168-12.6s4.263,49.2,13.929,56.1" transform="translate(-115.559 -161.19)" fill="#a78a6a"/>
                </g>
              </g>
            </g>
            <path id="Trazado_658365" data-name="Trazado 658365" d="M154.518,116.389c-.729-.8-1.853-1.951-1.853-2.05l-.531,3.912c-2.491,1.484-6.457,2.788-12.5,2.976a23.453,23.453,0,0,1-7.213-.755l.351-3.669-3.193,2.536a6.165,6.165,0,0,1-1.637-1.223,43.8,43.8,0,0,1,.7-14.389c.252-1.313.656-3.157,1.079-4.838,1.34-5.262,4.164-7.321,9.029-7.321,4.379,0,8,2.716,8.687,6.269a8.96,8.96,0,0,1,2.806,1.582c1.943,1.853,4.443,10.045,5.584,14.317.126.45-.216,1.483-1.313,2.652" transform="translate(-13.794 -9.895)" fill="#b96616"/>
            <path id="Trazado_658366" data-name="Trazado 658366" d="M133.078,123.076l-.035,0a.2.2,0,0,1-.159-.227c0-.01.168-.972.424-3.6a22.888,22.888,0,0,0-.143-5.538.2.2,0,0,1,.219-.305c.4.136.5,3.937.315,5.881-.258,2.645-.421,3.587-.428,3.627a.2.2,0,0,1-.193.162" transform="translate(-14.36 -12.254)" fill="#7b3e2e"/>
            <path id="Trazado_658367" data-name="Trazado 658367" d="M127.966,118.894a.213.213,0,0,1-.2-.187c-.014-.113.039-.245.38-1.02a42.321,42.321,0,0,0,2.807-8.3l.128-.6c1.089-5.13,2.216-10.435,4.4-11.964a.2.2,0,0,1,.226.322c-2.054,1.44-3.215,6.9-4.238,11.725l-.128.6a42.684,42.684,0,0,1-2.831,8.373c-.173.393-.336.763-.35.843a.181.181,0,0,1-.169.2l-.021,0" transform="translate(-13.807 -10.459)" fill="#7b3e2e"/>
            <path id="Trazado_658368" data-name="Trazado 658368" d="M114.89,134.208l-2.539.774a12.408,12.408,0,0,0-8.8,9.435l-8.221,37.449,20.838-3.6-.841-18.123Z" transform="translate(-10.302 -14.503)" fill="#ffead9"/>
            <path id="Trazado_658369" data-name="Trazado 658369" d="M116.079,183.635a3.248,3.248,0,0,1-.836,1.209.51.51,0,0,1-.072.063,15.7,15.7,0,0,1-6.767,3.3,28.441,28.441,0,0,1-7.676.89,15.133,15.133,0,0,1-2.907-.291c-1.607-.345-2.662-.981-2.825-1.853-.236-1.235,1.526-2.089,3.143-3.233a7.785,7.785,0,0,0,1.889-1.754c3.869-5.477,8.929-4.887,11.526-3.406a20.477,20.477,0,0,1,2.807,2.153c.073.072.136.127.2.191a5.533,5.533,0,0,1,1.572,2.043,1.376,1.376,0,0,1-.054.69" transform="translate(-10.263 -19.185)" fill="#2b1011"/>
            <path id="Trazado_658370" data-name="Trazado 658370" d="M152.974,130.481c-2.041-.327-4.064-.855-6.116-1.026V116.042h-13.28v13.407c-2.25.187-4.717.789-6.946,1.168-.225.324-.117.333-.108.665.045,2.356,6.043,4.137,13.381,3.983s13.265-2.194,13.211-4.55c0-.18-.07-.065-.143-.235" transform="translate(-13.669 -12.54)" fill="#f3a071"/>
            <path id="Trazado_658371" data-name="Trazado 658371" d="M139.818,122.425c1.911,1.407,8.481,2.874,8.481,2.874V120.73l-1.69-.034Z" transform="translate(-15.109 -13.043)" fill="#2b1011"/>
            <path id="Trazado_658372" data-name="Trazado 658372" d="M133.964,107.19l.421,6.445a7.057,7.057,0,0,0,7.06,7.061s8.236,1.6,8.671-8.555l.3-11.444h-4.808c.913.6-9.116-2.148-9.116-2.148a76.3,76.3,0,0,0-2.53,8.64" transform="translate(-14.477 -10.65)" fill="#f3a071"/>
            <g id="Grupo_996048" data-name="Grupo 996048" transform="translate(117.332 201.714)" opacity="0.5">
              <g id="Grupo_996047" data-name="Grupo 996047">
                <g id="Grupo_996046" data-name="Grupo 996046" clip-path="url(#clip-path-14)">
                  <path id="Trazado_658373" data-name="Trazado 658373" d="M170.061,254.57a6.927,6.927,0,0,1-2.926-.294l-35.588-12.22.919-2.631,2.176-13.272c.152,1.124,12.8,17.232,22.423,23.083,7.751,4.718,11.328,5.414,13,5.334" transform="translate(-131.548 -226.153)" fill="#ea2e2e"/>
                </g>
              </g>
            </g>
            <path id="Trazado_658374" data-name="Trazado 658374" d="M135.222,109.228c1.14,1.223,1.359,2.87.491,3.679s-2.5.475-3.636-.748-1.359-2.87-.491-3.679,2.5-.475,3.636.748" transform="translate(-14.162 -11.675)" fill="#f3a071"/>
            <path id="Trazado_658375" data-name="Trazado 658375" d="M141.164,105.78a34.346,34.346,0,0,0-4.714,1.369.323.323,0,0,1-.29-.567,7.456,7.456,0,0,1,4.893-1.431.32.32,0,0,1,.111.629" transform="translate(-14.7 -11.36)" fill="#7b3e2e"/>
            <path id="Trazado_658376" data-name="Trazado 658376" d="M146.636,105.475a6.822,6.822,0,0,1,4.9,1.428.323.323,0,0,1-.322.551,24.458,24.458,0,0,0-4.6-1.346.324.324,0,0,1,.019-.633" transform="translate(-15.817 -11.393)" fill="#7b3e2e"/>
            <path id="Trazado_658377" data-name="Trazado 658377" d="M143.88,113.079a.2.2,0,0,1-.056-.384l1.269-.377a.888.888,0,0,0,.543-1.246l-1.125-2.271a.2.2,0,0,1,.351-.175l1.126,2.271a1.281,1.281,0,0,1-.783,1.8l-1.269.378a.209.209,0,0,1-.056.008" transform="translate(-15.527 -11.727)" fill="#7b3e2e"/>
            <path id="Trazado_658378" data-name="Trazado 658378" d="M147.812,109.61a.78.78,0,1,0,.764-.932.861.861,0,0,0-.764.932" transform="translate(-15.973 -11.744)" fill="#2b1011"/>
            <path id="Trazado_658379" data-name="Trazado 658379" d="M139.995,109.464a.78.78,0,1,0,.764-.932.861.861,0,0,0-.764.932" transform="translate(-15.128 -11.728)" fill="#2b1011"/>
            <path id="Trazado_658380" data-name="Trazado 658380" d="M142.474,116.7a2.4,2.4,0,0,1-2.239-1.622.227.227,0,1,1,.407-.2c.66,1.325,1.484,1.638,3.038,1.152a.227.227,0,0,1,.135.433,4.547,4.547,0,0,1-1.341.237" transform="translate(-15.152 -12.4)" fill="#7b3e2e"/>
            <path id="Trazado_658381" data-name="Trazado 658381" d="M100.73,161.585a.169.169,0,0,1-.042-.005.2.2,0,0,1-.15-.234,37.08,37.08,0,0,1,5.156-12.745.2.2,0,1,1,.325.221,36.709,36.709,0,0,0-5.1,12.608.2.2,0,0,1-.192.155" transform="translate(-10.864 -16.049)" fill="#a78a6a"/>
            <path id="Trazado_658382" data-name="Trazado 658382" d="M117.184,181.286a.2.2,0,0,1-.194-.17c-.631-4.552-3.866-6.959-9.356-6.959a.2.2,0,0,1,0-.394c5.632,0,9.093,2.593,9.745,7.3a.2.2,0,0,1-.168.221l-.028,0" transform="translate(-11.61 -18.777)" fill="#a78a6a"/>
            <path id="Trazado_658383" data-name="Trazado 658383" d="M145.118,166.8a.192.192,0,0,1-.07-.013c-5.044-1.913-14.754-9.339-14.644-10.132a.2.2,0,0,1,.391.011c.378.816,9.22,7.791,14.392,9.753a.2.2,0,0,1-.07.381" transform="translate(-14.092 -16.91)" fill="#a78a6a"/>
            <path id="Trazado_658384" data-name="Trazado 658384" d="M155.237,160.482a.193.193,0,0,1-.059-.01c-2.46-.78-20.586-7.2-20.77-7.259a.2.2,0,0,1,.132-.371c.183.065,18.3,6.478,20.755,7.256a.2.2,0,0,1-.059.384" transform="translate(-14.511 -16.515)" fill="#a78a6a"/>
            <path id="Trazado_658385" data-name="Trazado 658385" d="M118.579,181.474a.2.2,0,0,1-.2-.178c-.015-.169-1.511-16.908-.292-23.021a.2.2,0,0,1,.23-.155.2.2,0,0,1,.154.232c-1.208,6.057.284,22.741.3,22.908a.2.2,0,0,1-.177.213h-.019" transform="translate(-12.71 -17.086)" fill="#a78a6a"/>
            <path id="Trazado_658386" data-name="Trazado 658386" d="M171.219,193.676H171.2a.2.2,0,0,1-.181-.21c0-.035.266-3.515.578-8.364.427-6.42,1.16-18.312,1.265-25.817V159.2c.009-.6.017-1.18.017-1.724a.2.2,0,1,1,.393,0c0,.547-.009,1.127-.017,1.729l0,.079c-.1,7.515-.838,19.414-1.265,25.838-.313,4.849-.575,8.332-.578,8.367a.2.2,0,0,1-.2.182" transform="translate(-18.481 -16.997)" fill="#a78a6a"/>
            <path id="Trazado_658387" data-name="Trazado 658387" d="M155.032,100.82c-.743,3.586-5.533,3.717-11.415,1.1-5.9-2.28-10.957-5.651-10.519-7.941.486-1.967,5.9-3.042,11.725-2.267,5.882.8,10.957,5.562,10.208,9.1" transform="translate(-14.38 -9.884)" fill="#b96616"/>
            <path id="Trazado_658388" data-name="Trazado 658388" d="M151.727,105.212a14.586,14.586,0,0,1-5.513-1.271l-.068-.029a.2.2,0,1,1,.141-.367l.084.036c1.568.683,5.541,2.1,8.554.519a.2.2,0,1,1,.183.348,7.2,7.2,0,0,1-3.38.764" transform="translate(-15.779 -11.188)" fill="#7b3e2e"/>
            <path id="Trazado_658389" data-name="Trazado 658389" d="M157.258,118.557s-2.356-6.684-2.55-7.245a.2.2,0,1,1,.372-.128c.193.561,2.548,7.243,2.548,7.243Z" transform="translate(-16.717 -12)" fill="#7b3e2e"/>
            <path id="Trazado_658390" data-name="Trazado 658390" d="M149.227,100.218h-.022c-4.784-.541-10.253-4.334-10.307-4.372a.2.2,0,1,1,.225-.322c.054.037,5.443,3.773,10.126,4.3a.2.2,0,0,1-.021.392" transform="translate(-15.001 -10.319)" fill="#7b3e2e"/>
            <path id="Trazado_658391" data-name="Trazado 658391" d="M155.42,99.128A19.807,19.807,0,0,1,145.086,96.4a.2.2,0,0,1,.221-.325,19.661,19.661,0,0,0,10.618,2.651h0a.2.2,0,0,1,.005.392c-.173,0-.345.006-.514.006" transform="translate(-15.669 -10.379)" fill="#7b3e2e"/>
            <path id="Trazado_658392" data-name="Trazado 658392" d="M145.569,145.957c-5.409,0-13.48-9.152-15.1-14.465a.14.14,0,0,1,.094-.175.138.138,0,0,1,.176.094c1.557,5.113,9.628,14.266,14.828,14.266,5.174,0,6.225-8.794,6.391-14.036a.145.145,0,0,1,.145-.136.141.141,0,0,1,.136.145c-.169,5.344-1.26,14.308-6.672,14.308" transform="translate(-14.099 -14.19)" fill="#322924"/>
            <path id="Trazado_658393" data-name="Trazado 658393" d="M149.489,151.157a6.141,6.141,0,0,1-1.283,3.816,5.181,5.181,0,0,1-.554-7.4,6.136,6.136,0,0,1,1.836,3.582" transform="translate(-15.816 -15.947)" fill="#2b1011"/>
            <path id="Trazado_658394" data-name="Trazado 658394" d="M114.388,135.11a.2.2,0,0,1-.078-.376c.14-.061,3.5-1.476,9.951-1.088a.2.2,0,0,1,.184.208.189.189,0,0,1-.208.185c-6.343-.376-9.738,1.042-9.772,1.056a.2.2,0,0,1-.078.016" transform="translate(-12.34 -14.435)" fill="#a78a6a"/>
            <path id="Trazado_658395" data-name="Trazado 658395" d="M161.141,137.129a.194.194,0,0,1-.167-.094.2.2,0,0,1,.064-.27,14.142,14.142,0,0,1,8.932-1.5.2.2,0,0,1,.162.226.2.2,0,0,1-.226.162,13.709,13.709,0,0,0-8.663,1.448.185.185,0,0,1-.1.029" transform="translate(-17.392 -14.598)" fill="#a78a6a"/>
            <rect id="Rectángulo_312923" data-name="Rectángulo 312923" width="4.216" height="50.353" transform="translate(74.691 220.705) rotate(-74.607)" fill="#343b70"/>
            <path id="Trazado_658396" data-name="Trazado 658396" d="M130.988,284.654,85.343,274.479a18.453,18.453,0,0,0-16.776,4.3l-.107.1-2.851-3.107.108-.1a22.647,22.647,0,0,1,20.571-5.3L131.9,280.54Z" transform="translate(-7.09 -29.15)" fill="#343b70"/>
            <path id="Trazado_658397" data-name="Trazado 658397" d="M132.5,243.548l-51.958-12.4V207.289l51.958,8.431Z" transform="translate(-8.704 -22.4)" fill="#5760a3"/>
            <path id="Trazado_658398" data-name="Trazado 658398" d="M140.469,204.583v71.051a2.271,2.271,0,0,1-2.243,2.269h-.046a2.264,2.264,0,0,1-2.285-2.268V204.583Z" transform="translate(-14.685 -22.108)" fill="#343b70"/>
            <path id="Trazado_658399" data-name="Trazado 658399" d="M85.111,196.17v68.35a2.263,2.263,0,0,1-2.2,2.26h-.045a2.259,2.259,0,0,1-2.326-2.259V196.17Z" transform="translate(-8.704 -21.199)" fill="#5760a3"/>
            <path id="Trazado_658400" data-name="Trazado 658400" d="M127.552,205.5l-50.845-6,.056-4.732,50.916,5.52Z" transform="translate(-8.289 -21.048)" fill="#343b70"/>
            <path id="Trazado_658401" data-name="Trazado 658401" d="M127.686,200.292l-50.916-5.52h9.546L138.6,200.29Z" transform="translate(-8.296 -21.048)" fill="#343b70"/>
            <path id="Trazado_658402" data-name="Trazado 658402" d="M144.753,200.958l-.128,5.194-10.912.02.128-5.212Z" transform="translate(-14.449 -21.716)" fill="#343b70"/>
            <path id="Trazado_658403" data-name="Trazado 658403" d="M86.306,298.653c-14.288,0-27.567-14.126-30.47-33.22-3.123-20.533,6.925-39.153,22.4-41.506s30.6,12.44,33.721,32.975c1.507,9.91.029,19.676-4.161,27.5-4.225,7.889-10.7,12.864-18.235,14.01a21.656,21.656,0,0,1-3.252.245M81.5,225.086a20.143,20.143,0,0,0-3.051.231c-14.706,2.235-24.225,20.137-21.219,39.905s17.418,34.038,32.12,31.795c7.086-1.077,13.2-5.794,17.209-13.283,4.048-7.556,5.471-17.009,4.01-26.623-2.8-18.4-15.472-32.026-29.069-32.026" transform="translate(-5.972 -24.172)" fill="#2b1011"/>
            <path id="Trazado_658404" data-name="Trazado 658404" d="M98.559,268.555l3.24,25.536c-.239-.063-.485-.127-.73-.183l-3.261-25.676-.1-.815-.738-5.923-.12-.963-.112-.928-.021-.12-.028-.225-.043-.351-.091-.731-.049-.386-.275-2.221-.091-.738-.913-7.35-.562-4.526-.935-7.5-.857-6.929-.225-1.82-.07-.548-.2-1.554-.281-2.3-.183-1.447.7-.085.2,1.589.309,2.5.1.78.1.8.042.316,1.1,8.868.935,7.526.569,4.532.843,6.823.092.738.422,3.359.028.218.007.091.014.092.063.513.013.133.043.344.028.225.942,7.526Z" transform="translate(-9.933 -23.857)" fill="#9ba4db"/>
            <path id="Trazado_658405" data-name="Trazado 658405" d="M117.669,281.339c-.422-.063-.386.07-.8,0l-5.012-4.082-.625-.576-.548-.506-.886-.815L94.662,261.411l-.042-.036-.169-.154-.3-.274-.225-.2-.112-.105-.337-.316-1.35-1.244-1.089-1-.548-.506-6.45-5.945-.577-.526-.007-.007-4.56-4.2-9.69-8.925-1.236-1.138-2.621-2.774,2.361,2.233-1.883-2.753,3.7,3.758L78.9,245.93l4.568,4.209.2.19.584.534,6.921,6.373.548.513,1.322,1.209.639.6.647.6.071.056.084.084.365.337.225.2,15.8,14.559,1.187,1.1Z" transform="translate(-7.062 -25.237)" fill="#9ba4db"/>
            <path id="Trazado_658406" data-name="Trazado 658406" d="M112.425,236.442l-1.546,2.27-1.743,2.55-.7,1.027-.906,1.321-2.917,4.279-2.515,3.689-1.054,1.539-.8,1.173-4.153,6.093-.359.52-.169.252-.049.078-.056.07-.127.189-.47.689-.886,1.3-2.53,3.71-.408.59L73.835,289.346c-.232-.07-.073-.64-.305-.71L90.388,267.5l.408-.59,2.228-3.267v-.007l1.616-2.368.091-.133.084-.12.351-.52.05-.07.049-.07.07-.1,3.647-5.347.794-1.167,1.616-2.361,2.509-3.689,3.26-4.771.893-1.308.359-.526,2.059-3.022,1.377-2.017Z" transform="translate(-7.946 -25.508)" fill="#9ba4db"/>
            <path id="Trazado_658407" data-name="Trazado 658407" d="M118.965,260.709h-.007l-2.319.288-3.829.471-1.413.176L94.878,263.7l-.393.049-.063.007-.056.007-.408.049-.288.036-.112.013-10.288,1.279-1.349.169-.464.056-.612.078-.309.035-.148.021-.288.035h-.006l-.31.036-.127.021-.485.056-.45.056H78.7l-12.726,1.581-2.361.3h-.021v-.014l-.092-.689,2.368-.3,12.044-1.49.788-.1.133-.014.443-.056.049-.007.66-.078.078-.013.225-.029.759-.091.078-.007.6-.078,1.539-.19.6-.077,9.416-1.167.294-.035.507-.063.12-.014h.028l.049-.007.731-.091,16.288-2.017,1.412-.176,3.83-.471,2.375-.3Z" transform="translate(-6.862 -28.098)" fill="#9ba4db"/>
            <path id="Trazado_658408" data-name="Trazado 658408" d="M95.466,266.179a.372.372,0,0,1-.083.026l-12.866,2.136-.7-4.177,12.956-2.148v.021c.711,0,1.4.774,1.607,1.825.21,1.108-.2,2.116-.92,2.317" transform="translate(-8.842 -28.314)" fill="#2b1011"/>
            <path id="Trazado_658409" data-name="Trazado 658409" d="M93.858,301.487c-7.116,0-14.164-3.357-20.158-9.68-6.69-7.056-11.3-17.037-12.983-28.1s-.247-21.968,4.042-30.692c4.457-9.066,11.452-14.747,19.7-16,16.616-2.533,33.016,14.307,36.546,37.528,1.684,11.068.248,21.968-4.042,30.693-4.456,9.065-11.452,14.747-19.7,16a22.551,22.551,0,0,1-3.405.257M87.85,222.372a16.932,16.932,0,0,0-2.548.194c-6.374.969-11.877,5.559-15.5,12.922-3.788,7.705-5.041,17.425-3.529,27.369s5.6,18.851,11.5,25.082c5.647,5.957,12.267,8.7,18.64,7.733s11.877-5.559,15.5-12.924c3.789-7.7,5.042-17.425,3.53-27.368-2.873-18.89-14.932-33.008-27.6-33.008" transform="translate(-6.487 -23.423)" fill="#9ba4db"/>
            <path id="Trazado_658410" data-name="Trazado 658410" d="M96.877,297.029c-.31-.092-.611-.19-.913-.281L83.5,270.079l-2.4-4.911-.029-.05-.45-.927-.049-.085V264.1l-.366-.752-.056-.112-.1-.2-.154-.31-.014-.035-.31-.632-.021-.043-.232-.477-.394-.8L68.566,239.527l-2.537-5.192-.189-.38-.219-.45.626-.309.274.563,1.223,2.494.26.541.92,1.87,10.006,20.475.956,1.953.288.59.12.239.14.288.1.2.035.07v.007l.049.105.225.45.056.127.148.288v.007l.548,1.11.225.471,1.68,3.429Z" transform="translate(-7.091 -25.2)" fill="#9ba4db"/>
            <rect id="Rectángulo_312924" data-name="Rectángulo 312924" width="0.703" height="58.595" transform="translate(50.482 227.969) rotate(-66.316)" fill="#9ba4db"/>
            <path id="Trazado_658411" data-name="Trazado 658411" d="M91.508,226.343l-.2.73-.077.268-.485,1.77-1.729,6.31-1.827,6.64-1.11,4.069L85,250.065l-.21.766-.576,2.109-1.947,7.1-.252.913-.021.085-.078.288-.126.45-.043.148-.084.3-.049.183-.056.2-.219.814-.021.063-.26.942L72.93,291.668l-.021.07c-.225-.078-.443-.155-.668-.232l7.406-24.576.787-2.874.387-1.413.049-.169.042-.147.127-.457.007-.036.028-.091.021-.1.056-.2.084-.317.2-.7.07-.26,2.705-9.873.007-.013.2-.752.984-3.584,1.118-4.069,1.82-6.626,2.185-7.961.127-.478.183-.661.26.07Z" transform="translate(-7.807 -24.439)" fill="#9ba4db"/>
            <path id="Trazado_658412" data-name="Trazado 658412" d="M108.635,250.892l-.147.071-.07.034-5.657,2.761-4.23,2.067-1.265.619L93.2,258.433l-.668.323-1.637.8-.681.33-3.654,1.786L83.234,263.3l-.6.294-1.349.66-.415.2-.422.2-.366.175-.105.056-.359.169-.049.029-.225.105-.105.056-.962.471-.211.1-19.53,9.194c-.3-.112-.6-.225-.893-.343l20.423-9.623.043-.021.667-.331.26-.127.112-.056.3-.148.043-.013.112-.062.063-.029.667-.323.26-.127.5-.245,1.539-.753,1.5-.73,5.523-2.7.681-.337,2.094-1.026.667-.323,4.954-2.418,1.272-.625,2.4-1.174,5.726-2.8.71-.345.154-.078Z" transform="translate(-6.229 -27.044)" fill="#9ba4db"/>
            <path id="Trazado_658413" data-name="Trazado 658413" d="M83.413,266.253c.217,1.146-.233,2.193-1,2.339s-1.57-.665-1.787-1.811.233-2.194,1-2.34,1.57.666,1.787,1.812" transform="translate(-8.707 -28.575)" fill="#5760a3"/>
            <path id="Trazado_658414" data-name="Trazado 658414" d="M86.306,298.653c-14.288,0-27.567-14.126-30.47-33.22-3.123-20.533,6.925-39.153,22.4-41.506s30.6,12.44,33.721,32.975c1.507,9.91.029,19.676-4.161,27.5-4.225,7.889-10.7,12.864-18.235,14.01a21.656,21.656,0,0,1-3.252.245M81.5,225.086a20.143,20.143,0,0,0-3.051.231c-14.706,2.235-24.225,20.137-21.219,39.905s17.418,34.038,32.12,31.795c7.086-1.077,13.2-5.794,17.209-13.283,4.048-7.556,5.471-17.009,4.01-26.623-2.8-18.4-15.472-32.026-29.069-32.026" transform="translate(-5.972 -24.172)" fill="#2b1011"/>
            <path id="Trazado_658415" data-name="Trazado 658415" d="M139.581,309.429c-4.215,0-8.014-4.109-8.885-9.843a13.46,13.46,0,0,1,1.053-7.886,6.992,6.992,0,0,1,11.98-1.821,13.462,13.462,0,0,1,3.349,7.218c.939,6.176-1.923,11.56-6.516,12.26a6.522,6.522,0,0,1-.981.074m-1.407-18.662a2.885,2.885,0,0,0-.434.033,4.152,4.152,0,0,0-2.839,2.449,10.075,10.075,0,0,0-.733,5.808c.622,4.087,3.312,7.212,5.865,6.823s4.192-4.171,3.57-8.258a10.077,10.077,0,0,0-2.426-5.328,4.419,4.419,0,0,0-3-1.528" transform="translate(-14.105 -31.041)" fill="#2b1011"/>
            <path id="Trazado_658416" data-name="Trazado 658416" d="M141.806,298.972c.262,1.726-.5,3.273-1.7,3.455s-2.387-1.069-2.649-2.794.5-3.272,1.7-3.455,2.387,1.069,2.649,2.794" transform="translate(-14.849 -32.004)" fill="#2b1011"/>
            <path id="Trazado_658417" data-name="Trazado 658417" d="M157.257,292.469l-6.781-34.064a10.124,10.124,0,0,0-10.514-8.481l-.205-5.617a16.3,16.3,0,0,1,16.533,12.778l7.217,35.222Z" transform="translate(-15.103 -26.399)" fill="#343b70"/>
            <path id="Trazado_658418" data-name="Trazado 658418" d="M139.719,191.211l-1.181,6.738c-2.607-.163-24.28-.034-31.519-.843l.836.1a10.376,10.376,0,0,1-9.711-8.4A9.264,9.264,0,0,1,98.171,185c.09-.391.19-.827.29-1.281a7.77,7.77,0,0,0,1.89-1.753c3.869-5.477,8.929-4.887,11.527-3.406a20.532,20.532,0,0,1,2.807,2.152c-.382,1.254-.772,2.5-1.162,3.716.654.163,1.308.318,1.97.481,8.076,1.98,16.478,4.088,24.226,6.3" transform="translate(-10.586 -19.185)" fill="#f3a071"/>
            <path id="Trazado_658419" data-name="Trazado 658419" d="M179.445,245.944a.228.228,0,0,1-.226-.208c-.756-8.845-18.562-17.771-19.4-17.926a.227.227,0,1,1,.082-.446c.882.163,18.974,9.056,19.767,18.334a.227.227,0,0,1-.207.245h-.02" transform="translate(-17.251 -24.569)" fill="#2b1011"/>
            <path id="Trazado_658420" data-name="Trazado 658420" d="M164.749,229.432a.218.218,0,0,1-.085-.017.226.226,0,0,1-.126-.3c.579-1.449,1.581-3.91,1.772-4.106a.228.228,0,0,1,.332.311c-.145.2-.973,2.191-1.683,3.965a.227.227,0,0,1-.21.143" transform="translate(-17.779 -24.308)" fill="#2b1011"/>
            <path id="Trazado_658421" data-name="Trazado 658421" d="M140.418,191.789a13.256,13.256,0,0,0-1.3,4.21,16.6,16.6,0,0,0-.211,2.452l3.066.487.861.136a3.031,3.031,0,0,0,3.088,2.367l7.3-.319.417-5.851-9.191-2.481,0-.029-.948-.229-.6-.164v.02l-.289-.072Z" transform="translate(-15.01 -20.725)" fill="#f3a071"/>
            <path id="Trazado_658422" data-name="Trazado 658422" d="M156.46,197.034c.493,2.638,2.066,5.185,1.9,8.035a26.445,26.445,0,0,1-4.611,7.941.646.646,0,0,1-1.069-.7c.619-1.288,1.241-2.565,1.808-3.876l1.709-3.886-.08.334c-.163-1.592-1.3-3.587-1.961-5.1a13.269,13.269,0,0,1-.823-2.14,1.6,1.6,0,1,1,3.127-.607" transform="translate(-16.492 -21.142)" fill="#f3a071"/>
            <path id="Trazado_658423" data-name="Trazado 658423" d="M156.332,199.8a19.184,19.184,0,0,1,.625,4.592,4.261,4.261,0,0,1-.467,2.219,26.245,26.245,0,0,1-5.546,5.1.643.643,0,0,1-.8-.981c.376-.423.768-.9,1.157-1.388,1.109-1.373,2.312-2.9,3.487-4.2l-.241.469a12.52,12.52,0,0,0-1.222-4.777,1.6,1.6,0,1,1,3.012-1.035" transform="translate(-16.207 -21.46)" fill="#f3a071"/>
            <path id="Trazado_658424" data-name="Trazado 658424" d="M153.652,199.078a24.915,24.915,0,0,1,.835,5.795,1.744,1.744,0,0,1-.093.535,3.872,3.872,0,0,1-5.482,1.906.642.642,0,0,1-.252-.872.655.655,0,0,1,.726-.315,2.491,2.491,0,0,0,2.825-1.386.729.729,0,0,0-.038.211,19.874,19.874,0,0,0-1.534-4.841,1.6,1.6,0,1,1,3.014-1.032" transform="translate(-16.056 -21.382)" fill="#f3a071"/>
            <path id="Trazado_658425" data-name="Trazado 658425" d="M154.826,204.87a.186.186,0,0,1-.057-.009.2.2,0,0,1-.131-.244c.035-.3.056-5.352-.509-6.656-.189-.437-.424-.7-.68-.774a.629.629,0,0,0-.5.093.2.2,0,0,1-.275-.041.2.2,0,0,1,.038-.273,1.047,1.047,0,0,1,.837-.161,1.558,1.558,0,0,1,.944,1c.634,1.465.582,6.738.525,6.926a.2.2,0,0,1-.188.14" transform="translate(-16.494 -21.264)" fill="#7b3e2e"/>
            <path id="Trazado_658426" data-name="Trazado 658426" d="M150.914,211.765a.2.2,0,0,1-.146-.064.2.2,0,0,1,.013-.278c1.682-1.528,5.183-4.7,5.7-5.954.481-1.167-.678-6.827-1.131-8.08a1.193,1.193,0,0,0-1.306-.894.2.2,0,0,1-.227-.159.2.2,0,0,1,.156-.228,1.6,1.6,0,0,1,1.746,1.146c.419,1.158,1.683,7.012,1.126,8.365-.482,1.168-3.07,3.62-5.8,6.095a.2.2,0,0,1-.131.052" transform="translate(-16.287 -21.191)" fill="#7b3e2e"/>
            <path id="Trazado_658427" data-name="Trazado 658427" d="M152.827,208.727a.194.194,0,0,1-.167-.094.2.2,0,0,1,.063-.27c2-1.238,1.879-2.552,1.873-2.607a.2.2,0,0,1,.391-.047c.008.065.17,1.609-2.057,2.989a.2.2,0,0,1-.1.029" transform="translate(-16.494 -22.211)" fill="#7b3e2e"/>
            <path id="Trazado_658428" data-name="Trazado 658428" d="M213.921,192.1a13.234,13.234,0,0,0-.818,4.33,16.536,16.536,0,0,0,.066,2.46l3.1.137.87.037a3.032,3.032,0,0,0,3.336,2l7.221-1.143-.246-5.86-11.291-1.694Z" transform="translate(-23.027 -20.759)" fill="#f3a071"/>
            <path id="Trazado_658429" data-name="Trazado 658429" d="M230.472,195.489c.788,2.566,2.637,4.919,2.8,7.77a26.464,26.464,0,0,1-3.685,8.41.646.646,0,0,1-1.141-.573c.47-1.349.944-2.688,1.359-4.055l1.26-4.054-.043.341c-.342-1.564-1.695-3.418-2.525-4.849a13.266,13.266,0,0,1-1.06-2.034,1.6,1.6,0,1,1,3.039-.956" transform="translate(-24.565 -20.994)" fill="#f3a071"/>
            <path id="Trazado_658430" data-name="Trazado 658430" d="M230.309,198.391a19.181,19.181,0,0,1,1.14,4.491,4.252,4.252,0,0,1-.215,2.258,26.177,26.177,0,0,1-4.934,5.7.643.643,0,0,1-.91-.884c.325-.463.661-.986.992-1.509.947-1.49,1.97-3.145,2.992-4.569l-.186.493a12.54,12.54,0,0,0-1.754-4.61,1.6,1.6,0,1,1,2.876-1.367" transform="translate(-24.344 -21.327)" fill="#f3a071"/>
            <path id="Trazado_658431" data-name="Trazado 658431" d="M230.944,195.115a24.949,24.949,0,0,1,3.364,4.791,1.783,1.783,0,0,1,.16.519,3.872,3.872,0,0,1-4.029,4.179.646.646,0,0,1-.113-1.273,2.491,2.491,0,0,0,1.893-2.515c-.026-.053.058.238.061.205a19.912,19.912,0,0,0-3.558-3.625,1.6,1.6,0,1,1,2.223-2.282" transform="translate(-24.651 -21.023)" fill="#f3a071"/>
            <path id="Trazado_658432" data-name="Trazado 658432" d="M226.712,210.738a.192.192,0,0,1-.129-.049.2.2,0,0,1-.018-.277c1.5-1.709,4.619-5.264,4.988-6.558.346-1.216-1.444-6.707-2.036-7.9a1.193,1.193,0,0,0-1.4-.74.2.2,0,0,1-.244-.132.2.2,0,0,1,.129-.244,1.6,1.6,0,0,1,1.865.943c.547,1.1,2.464,6.773,2.062,8.184-.393,1.379-3.436,4.847-5.071,6.71a.2.2,0,0,1-.148.067" transform="translate(-24.478 -21.049)" fill="#7b3e2e"/>
            <path id="Trazado_658433" data-name="Trazado 658433" d="M220.546,198.532a27.544,27.544,0,0,0,3.121,2.631c1.2.945,2.4,1.932,3.525,3.017a.91.91,0,0,1-1.167,1.392c-1.192-.842-2.458-1.6-3.759-2.335-.729-.426-2.309-1.282-3-1.741a8.341,8.341,0,0,1-1.783-1.567,1.783,1.783,0,1,1,3.065-1.4" transform="translate(-23.449 -21.28)" fill="#f3a071"/>
            <path id="Trazado_658434" data-name="Trazado 658434" d="M233.545,204.147a.163.163,0,0,1-.029,0,.2.2,0,0,1-.165-.223,13.041,13.041,0,0,0-.914-5.447c-1.153-3.368-2.444-3.694-2.457-3.7a.2.2,0,0,1,.078-.386c.061.012,1.509.328,2.752,3.955a13.1,13.1,0,0,1,.93,5.633.2.2,0,0,1-.194.166" transform="translate(-24.836 -21.007)" fill="#7b3e2e"/>
            <path id="Trazado_658435" data-name="Trazado 658435" d="M225.46,202.35a.2.2,0,0,1-.131-.052c-.647-.582-3.624-3.9-3.732-4.114a.2.2,0,0,1,.346-.186c.142.2,2.9,3.338,3.648,4.009a.2.2,0,0,1-.131.342" transform="translate(-23.944 -21.386)" fill="#7b3e2e"/>
            <path id="Trazado_658436" data-name="Trazado 658436" d="M118.579,186.286a.215.215,0,0,1-.047-.006c-3.84-.952-10.32-2.227-10.841-2.1a.2.2,0,0,1-.243-.135.194.194,0,0,1,.132-.242c.723-.222,8.12,1.367,11.048,2.092a.2.2,0,0,1-.047.388" transform="translate(-11.61 -19.86)" fill="#7b3e2e"/>
          </g>
        </g>
      </g>
    </g>
  </g>
</svg>
