<svg xmlns="http://www.w3.org/2000/svg" xmlns:xlink="http://www.w3.org/1999/xlink" width="144" height="144" viewBox="0 0 144 144">
  <defs>
    <clipPath id="clip-path">
      <rect id="Rectángulo_309893" data-name="Rectángulo 309893" width="132.856" height="132.971" fill="none"/>
    </clipPath>
  </defs>
  <g id="Grupo_996216" data-name="Grupo 996216" transform="translate(-938 -4835)">
    <circle id="Elipse_8246" data-name="Elipse 8246" cx="72" cy="72" r="72" transform="translate(938 4835)" fill="#1cf290"/>
    <g id="Grupo_996215" data-name="Grupo 996215" transform="translate(943.571 4840.584)">
      <g id="Grupo_995688" data-name="Grupo 995688" transform="translate(0)" clip-path="url(#clip-path)">
        <path id="Trazado_654611" data-name="Trazado 654611" d="M53.562,43.326c0-2.029-.012-3.8.009-5.577a1.777,1.777,0,0,0-.408-1.09c-.564-.8-1.057-1.659-1.663-2.428A9.293,9.293,0,0,1,49.273,26.8a4.118,4.118,0,0,0-.323-1.829c-1.905-6.354-3.785-12.717-5.764-19.048a3.483,3.483,0,0,1,.932-3.838A6.148,6.148,0,0,1,49.155,0c10.451.1,20.9.045,31.355.046a6.922,6.922,0,0,1,5.118,3.682,3.128,3.128,0,0,1-.206,1.958C83.535,12,81.68,18.322,79.715,24.611a15.565,15.565,0,0,0-.406,4.763,3.9,3.9,0,0,1-.694,2.383A17,17,0,0,1,76.987,34.2c-2.638,2.566-1.918,5.816-1.978,8.917,0,.267.018.5.355.626,1.988.74,3.968,1.505,6.071,2.308,0-4.7-.013-9.2,0-13.709A19.236,19.236,0,0,1,96.664,13.353c11.65-2.637,23.185,6.333,23.335,18.28.118,9.422.028,18.847.031,28.271V61.6c3.3-2.024,6.829-1.471,10.273-1.51,2.152-.025,3.071,1.357,2.265,3.374Q126.33,79.083,120.07,94.7a4.442,4.442,0,0,1-1.228,1.714q-8.671,7.687-17.328,15.391a5.159,5.159,0,0,0-.744,3.819.5.5,0,0,0,.288.21c1.679.416,1.848,1.666,1.833,3.115-.039,3.8-.006,7.592-.016,11.389-.005,1.845-.768,2.631-2.583,2.632q-33.834.008-67.668,0c-1.906,0-2.639-.759-2.643-2.7-.008-3.93.017-7.86-.014-11.791a2.358,2.358,0,0,1,1.638-2.6c.194-.066.405-.037.515-.315A4.777,4.777,0,0,0,31.1,111.57q-8.566-7.6-17.133-15.2a4.424,4.424,0,0,1-1.2-1.732Q6.549,79.073.31,63.523c-.839-2.1.064-3.428,2.308-3.446,1.564-.012,3.127,0,4.69,0a9.85,9.85,0,0,1,5.35,1.454c.944.593,1.11.374,1.25-.616a57.079,57.079,0,0,1,3.7-14.047,27.663,27.663,0,0,1,6.38-9.787A18.049,18.049,0,0,1,50.8,39.385c.929,1.186,1.734,2.468,2.76,3.941m23.586,5.829c0,2.879.024,5.691-.008,8.5a2.144,2.144,0,0,1-3.158,2.159A37.044,37.044,0,0,1,68.8,57.7a9.6,9.6,0,0,0-9.475-.18c-.752.362-.972.594-.82,1.429a100.017,100.017,0,0,1,1.472,20.126A2.122,2.122,0,0,1,58.6,81.306c-.708.231-.8.605-.794,1.254.037,2.545.027,5.09.005,7.634a1.6,1.6,0,0,0,.579,1.384,10.731,10.731,0,0,1,3.758,8.645c-.032,4.866-.01,9.733,0,14.6,0,.449-.168.911.571,1.107a2.195,2.195,0,0,1,1.578,2.48c-.031,2.366-.009,4.733-.009,7.1,0,3.224,0,3.194,3.266,3.192.8,0,1.059-.165,1.043-1.018-.057-3.124-.013-6.251-.028-9.376,0-1.025.272-1.97,1.3-2.245.932-.249.856-.8.855-1.473-.011-5-.058-10,.011-15a10.213,10.213,0,0,1,5.443-9.207,1.717,1.717,0,0,0,.99-1.77c-.034-6.385-.02-12.769-.018-19.154,0-2.06.359-2.529,2.365-3.106a6.2,6.2,0,0,1,.906-.229c.813-.1,1.051-.522,1.038-1.348-.052-3.348-.013-6.7-.025-10.045,0-1.333.432-3.015-.211-3.9-.686-.948-2.408-1.147-3.681-1.667a1.5,1.5,0,0,0-.391,0m50.4,15.271c-4.694-.291-6.538.8-8.441,4.913q-2.916,6.3-5.821,12.615A2.524,2.524,0,0,0,113,83.592a8.412,8.412,0,0,1-4.572,9.617c-4.488,2.472-8.993,4.91-13.493,7.36-1.33.724-2.662,1.445-4,2.15a1.957,1.957,0,0,1-2.354-.335,2.005,2.005,0,0,1-.651-2.065,2.709,2.709,0,0,1,1.6-1.687q8.4-4.556,16.78-9.147c2.435-1.335,3.291-3.643,2.206-5.808-1.114-2.222-3.536-2.919-6.071-1.66Q90.589,87.9,78.768,93.83A6.389,6.389,0,0,0,75,99.959c0,4.911.029,9.822-.025,14.732-.011.972.288,1.154,1.194,1.148,5.759-.042,11.518-.021,17.277-.021,2.992,0,3.014,0,2.982-3.052a3.738,3.738,0,0,1,1.144-3.24c5.009-4.375,9.886-8.9,14.96-13.2a17.559,17.559,0,0,0,5.308-7.453c3.081-8.156,6.417-16.216,9.7-24.447M5.33,64.412c.1.289.168.495.248.694q5.459,13.645,10.906,27.3a3.811,3.811,0,0,0,1.123,1.457c5.21,4.624,10.438,9.229,15.62,13.884,3.826,3.437,3.137,1.964,3.162,7,0,.878.236,1.1,1.107,1.1q9.647-.056,19.295,0c.913.006,1.086-.286,1.079-1.124-.037-4.913-.017-9.826-.019-14.739A6.4,6.4,0,0,0,54.1,93.835q-11.89-5.963-23.789-11.906a4.525,4.525,0,0,0-2.708-.549,4.189,4.189,0,0,0-3.62,3.441,4.118,4.118,0,0,0,2.346,4.522c5.705,3.128,11.425,6.231,17.132,9.356,1.418.777,1.864,1.91,1.266,3.066-.628,1.213-1.856,1.488-3.324.69-5.757-3.128-11.52-6.245-17.252-9.416a8.3,8.3,0,0,1-4.33-9.245,2.947,2.947,0,0,0-.272-1.9c-1.933-4.161-3.845-8.332-5.77-12.5S10.159,64.2,5.33,64.412m58.98-51.5c-3.212,0-6.425.025-9.637-.018-.824-.011-1.143.14-1.133,1.069.051,4.907.023,9.814.026,14.721a1.741,1.741,0,0,0,.168,1.034c2.23,3.441,4.342,6.978,7.467,9.723,2.075,1.824,3.69,1.843,5.856.155a13.8,13.8,0,0,0,1.578-1.443,57.783,57.783,0,0,0,6.1-8.275A2.166,2.166,0,0,0,75,28.6c0-4.863-.033-9.726.025-14.588.012-1.005-.346-1.137-1.217-1.123-3.167.05-6.335.02-9.5.02m51.466,29.268c-.19-4.345.309-8.4-.286-12.432a14.957,14.957,0,0,0-29.52-.015c-.544,3.685-.133,7.4-.232,11.1-.009.355-.194.781.164,1.1,4.346-5.074,8.664-10.133,13.005-15.173a2.155,2.155,0,0,1,3.649-.009c4.343,5.04,8.66,10.1,13.221,15.431M81.437,87.641c.6-.28,1.036-.474,1.464-.688q8.674-4.329,17.346-8.664a11.363,11.363,0,0,1,3-1.1,9.1,9.1,0,0,1,6.77,1.6c1.445-3.131,2.852-6.209,4.29-9.273.287-.612.117-.872-.491-1.035-1.248-.334-2.491-.685-3.725-1.066-.584-.18-.884-.09-1.068.561a5.87,5.87,0,0,1-2.178,3.13,10.375,10.375,0,0,1-7.9,1.711c-3.086-.384-5.539-1.712-6.518-4.909-.252-.823-.713-.572-1.24-.419-2.911.839-5.818,1.693-8.744,2.474a1.166,1.166,0,0,0-1.027,1.376c.047,3.168.019,6.338.019,9.506Zm8.576-40.447c0,.848.027,1.7-.009,2.544a1.711,1.711,0,0,0,.542,1.417c2.513,2.473,4.97,5,7.5,7.459,1.826,1.775,3.544,1.751,5.4-.016,1.325-1.261,2.6-2.571,3.889-3.874,1.375-1.394,3.264-2.589,3.948-4.27s.149-3.866.184-5.829a2.149,2.149,0,0,0-.553-1.567c-3.154-3.643-6.3-7.293-9.4-10.984-.642-.765-.966-.705-1.574.022-2.517,3.013-5.022,6.042-7.673,8.934-1.645,1.794-2.9,3.594-2.255,6.163M36.564,70.806c.266-.034.757-.066,1.234-.164,4.38-.906,8.538-5.776,9.091-10.643a2.57,2.57,0,0,0-.313-2.139c-3.234-4.2-6.416-8.449-9.59-12.7-.448-.6-.674-.771-1.209-.045-3.145,4.271-6.333,8.511-9.523,12.75a2,2,0,0,0-.406,1.6,14.132,14.132,0,0,0,5.218,9.327,8.682,8.682,0,0,0,5.5,2.015m10.569,57.873c3.93,0,7.86-.016,11.789.013.744.006,1.124-.077,1.1-.987-.071-2.23-.047-4.465-.009-6.7.011-.684-.164-.92-.888-.918q-11.99.037-23.981,0c-.729,0-.9.243-.884.921.037,2.188.051,4.377-.005,6.563-.023.854.193,1.137,1.094,1.126,3.929-.051,7.859-.022,11.789-.022m38.523,0c3.93,0,7.86-.034,11.789.024.963.014,1.194-.274,1.164-1.2-.069-2.141-.05-4.286-.006-6.429.016-.738-.168-.993-.954-.99q-11.923.043-23.846,0c-.782,0-.972.245-.957.987.045,2.142.062,4.288-.006,6.429-.029.917.194,1.212,1.161,1.2,3.884-.059,7.77-.024,11.655-.024M55.682,73.747a90.861,90.861,0,0,0-2.141-17.665c-1.3-5.461-3.078-10.719-6.924-15.01a13.354,13.354,0,0,0-6.986-4.219c-.357-.084-1.045-.43-1.053.272-.017,1.333-.342,2.675.646,3.952,3.767,4.867,7.4,9.84,11.16,14.71a4.8,4.8,0,0,1,.973,3.732q-.812,7.309-1.564,14.625c-.1.969-.693,2.213-.127,2.841.623.689,1.939.219,2.949.23,3.116.033,3.117.012,3.065-3.468m-32.7,4.979c.519-.384.334-.817.3-1.188-.577-5.9-1.142-11.807-1.776-17.7a5.261,5.261,0,0,1,.972-4.12c3.567-4.63,6.986-9.374,10.548-14.008a5.646,5.646,0,0,0,1.254-3.781c-.02-1.225-.423-1.285-1.425-1.026-4.372,1.132-7.248,4.062-9.407,7.813-3.262,5.667-4.514,11.944-5.583,18.3a11.525,11.525,0,0,0,1.3,7.913c1.167,2.1,2.036,4.358,3.058,6.537.2.428.287.941.757,1.261m26.19-67.937C49.6,8.856,50.848,8.6,52.375,8.6q11.849.055,23.7,0c1.571-.009,2.852.233,3.34,2.138l1.373-4.544c.5-1.656.357-1.857-1.38-1.858q-9.1,0-18.208,0-6.092,0-12.183,0c-1.517,0-1.713.28-1.271,1.747.448,1.482.9,2.962,1.435,4.7M27.808,71.9c0,1.564.014,3.057-.007,4.551-.009.615.4.58.8.61a11,11,0,0,1,4.175,1.3c3.691,1.867,7.4,3.693,11.086,5.573.859.439,1.135.36,1.113-.678-.055-2.672-.018-5.347-.018-8.02V71.878c-6.958,4.3-9.353,4.3-17.151.025M57.851,42.3a16.649,16.649,0,0,1-.019,2.3,2.36,2.36,0,0,0,1.273,2.507c1.543,1.051,3.023,2.2,4.488,3.356a.92.92,0,0,0,1.367.013c1.682-1.316,3.414-2.566,5.117-3.854.271-.205.65-.362.633-.8a20.218,20.218,0,0,0-.117-3.555C65.831,46.086,63,46.11,57.851,42.3M85.726,52.5c0,3.772,0,7.5.006,11.222,0,.315-.121.838.484.674,1.886-.509,3.761-1.06,5.638-1.6a.432.432,0,0,0,.217-.141,8.3,8.3,0,0,0-.437-4.339c-1.942-1.923-3.894-3.836-5.909-5.817m30.014.069c-1.919,1.863-3.795,3.676-5.662,5.5-.627.612-1.142,3.805-.7,4.5a1.2,1.2,0,0,0,.652.387c1.576.466,3.165.889,4.738,1.365.763.231,1,.027.987-.781-.035-3.649-.016-7.3-.016-10.971m-19.386,10.3c.433,1.874-.822,3.939,1.209,5.066a6.316,6.316,0,0,0,6.277,0c2.07-1.131.833-3.186,1.3-5.073a8.064,8.064,0,0,1-8.784.011M53.533,85.115c0-3.73,0-3.73-3.4-3.6a.741.741,0,0,1-.134,0c-.579-.082-.782.156-.764.746.038,1.249.011,2.5.012,3.75,0,.267-.032.566.261.706a22.394,22.394,0,0,0,3.841,1.79c.4-1.066.083-2.173.186-3.256,0-.044,0-.089,0-.134M72.8,49.934l-4.161,3.135L72.8,54.723ZM56.549,50.9c1.016,2.887,1.016,2.887,2.985,1.922-.959-.691-1.672-1.649-2.985-1.922" transform="translate(0 0)" fill="#020202"/>
        <path id="Trazado_654612" data-name="Trazado 654612" d="M127,91.539a1.5,1.5,0,0,1,.391,0c1.273.52,2.994.719,3.681,1.667.642.887.206,2.569.211,3.9.011,3.349-.026,6.7.025,10.046.012.825-.224,1.244-1.038,1.348a6.18,6.18,0,0,0-.905.229c-2.006.577-2.365,1.045-2.365,3.106,0,6.385-.016,12.77.018,19.153a1.719,1.719,0,0,1-.991,1.771,10.214,10.214,0,0,0-5.443,9.207c-.069,5-.022,10-.011,15,0,.677.077,1.224-.855,1.473-1.029.275-1.305,1.22-1.3,2.245.015,3.126-.03,6.251.028,9.376.016.853-.239,1.018-1.043,1.019-3.266,0-3.266.031-3.266-3.193,0-2.366-.021-4.733.009-7.1a2.194,2.194,0,0,0-1.578-2.48c-.739-.2-.571-.658-.572-1.108-.006-4.866-.027-9.733,0-14.6a10.731,10.731,0,0,0-3.758-8.645,1.6,1.6,0,0,1-.578-1.384c.021-2.545.031-5.091-.005-7.634-.009-.649.085-1.023.794-1.254a2.121,2.121,0,0,0,1.371-2.228,100.017,100.017,0,0,0-1.471-20.126c-.152-.835.069-1.067.82-1.429a9.6,9.6,0,0,1,9.474.18,36.98,36.98,0,0,0,5.187,2.114,2.144,2.144,0,0,0,3.158-2.159c.032-2.811.008-5.623.008-8.5" transform="translate(-49.85 -42.382)" fill="#e9edf0"/>
        <path id="Trazado_654613" data-name="Trazado 654613" d="M192.21,119.95c-3.288,8.23-6.624,16.29-9.7,24.447a17.564,17.564,0,0,1-5.308,7.453c-5.075,4.3-9.952,8.824-14.961,13.2a3.738,3.738,0,0,0-1.144,3.24c.032,3.051.01,3.052-2.983,3.052-5.759,0-11.518-.021-17.277.021-.906.006-1.2-.176-1.194-1.148.055-4.91.025-9.821.025-14.732a6.389,6.389,0,0,1,3.763-6.129q11.827-5.922,23.668-11.814c2.535-1.259,4.958-.562,6.072,1.661,1.085,2.165.228,4.473-2.206,5.808q-8.379,4.594-16.78,9.148a2.706,2.706,0,0,0-1.6,1.687,2,2,0,0,0,.651,2.064,1.956,1.956,0,0,0,2.354.335c1.34-.7,2.672-1.426,4-2.15,4.5-2.45,9.005-4.888,13.492-7.36a8.412,8.412,0,0,0,4.572-9.617,2.525,2.525,0,0,1,.293-1.638q2.915-6.306,5.82-12.615c1.9-4.114,3.747-5.2,8.441-4.913" transform="translate(-64.66 -55.523)" fill="#e8c5a6"/>
        <path id="Trazado_654614" data-name="Trazado 654614" d="M9.925,119.938c4.829-.207,6.524.812,8.452,4.983s3.836,8.337,5.77,12.5a2.946,2.946,0,0,1,.271,1.9,8.3,8.3,0,0,0,4.33,9.244c5.732,3.172,11.495,6.289,17.252,9.417,1.469.8,2.7.523,3.325-.691.6-1.155.152-2.289-1.266-3.065C42.351,151.1,36.632,148,30.926,144.87a4.117,4.117,0,0,1-2.346-4.522,4.19,4.19,0,0,1,3.62-3.442,4.529,4.529,0,0,1,2.708.549q11.9,5.952,23.789,11.906a6.4,6.4,0,0,1,3.748,6.142c0,4.913-.018,9.826.019,14.738.006.839-.166,1.13-1.079,1.124q-9.647-.064-19.295,0c-.87,0-1.1-.22-1.107-1.1-.024-5.032.664-3.559-3.162-7-5.182-4.655-10.41-9.26-15.62-13.884a3.808,3.808,0,0,1-1.122-1.457q-5.43-13.658-10.907-27.3c-.079-.2-.145-.4-.248-.694" transform="translate(-4.596 -55.526)" fill="#e8c5a6"/>
        <path id="Trazado_654615" data-name="Trazado 654615" d="M110.481,24.028c3.167,0,6.335.03,9.5-.019.871-.014,1.229.117,1.217,1.123-.058,4.862-.026,9.725-.025,14.587a2.167,2.167,0,0,1-.269,1.276,57.812,57.812,0,0,1-6.1,8.275,13.793,13.793,0,0,1-1.578,1.442c-2.166,1.689-3.781,1.669-5.857-.154-3.124-2.745-5.237-6.282-7.467-9.723a1.741,1.741,0,0,1-.168-1.034c0-4.907.025-9.815-.026-14.721-.01-.928.309-1.08,1.133-1.069,3.211.042,6.424.017,9.637.017m-.075,20.323a12.588,12.588,0,0,0,5.034-1.136,2.153,2.153,0,0,0,1.3-2.822,2.114,2.114,0,0,0-2.983-1.1,7.965,7.965,0,0,1-6.587.009,2.081,2.081,0,0,0-2.972,1.114,2.129,2.129,0,0,0,1.3,2.817,12.617,12.617,0,0,0,4.907,1.119m-2.1-13.836a2.142,2.142,0,1,0-2.166,2.084,2.159,2.159,0,0,0,2.166-2.084m6.4,2.084a2.143,2.143,0,1,0-2.1-2.147,2.162,2.162,0,0,0,2.1,2.147" transform="translate(-46.172 -11.117)" fill="#e8c5a7"/>
        <path id="Trazado_654616" data-name="Trazado 654616" d="M189.665,57.014c-4.56-5.328-8.877-10.391-13.221-15.431a2.155,2.155,0,0,0-3.649.009c-4.342,5.039-8.66,10.1-13.005,15.173-.358-.315-.173-.741-.164-1.1.1-3.7-.312-7.417.232-11.1a14.956,14.956,0,0,1,29.519.015c.6,4.028.1,8.087.287,12.432" transform="translate(-73.889 -14.834)" fill="#b9866d"/>
        <path id="Trazado_654617" data-name="Trazado 654617" d="M151.649,145.707v-6.8c0-3.169.028-6.338-.019-9.506a1.166,1.166,0,0,1,1.027-1.376c2.926-.781,5.833-1.635,8.744-2.474.528-.152.989-.4,1.241.42.978,3.2,3.432,4.524,6.518,4.909a10.374,10.374,0,0,0,7.9-1.711,5.87,5.87,0,0,0,2.178-3.13c.184-.651.484-.741,1.068-.561,1.234.381,2.478.732,3.725,1.066.608.162.778.423.491,1.034-1.437,3.064-2.845,6.142-4.29,9.274a9.1,9.1,0,0,0-6.77-1.6,11.341,11.341,0,0,0-3,1.1q-8.671,4.336-17.346,8.664c-.428.214-.867.408-1.464.688" transform="translate(-70.212 -58.066)" fill="#d74f46"/>
        <path id="Trazado_654618" data-name="Trazado 654618" d="M167.488,74.383c-.645-2.568.609-4.368,2.254-6.163,2.652-2.892,5.156-5.921,7.674-8.934.608-.727.932-.787,1.574-.022,3.1,3.691,6.242,7.341,9.4,10.984a2.149,2.149,0,0,1,.553,1.567c-.035,1.963.5,4.141-.184,5.829s-2.574,2.875-3.948,4.269c-1.285,1.3-2.564,2.613-3.889,3.874-1.856,1.767-3.574,1.791-5.4.016-2.527-2.458-4.984-4.987-7.5-7.46a1.71,1.71,0,0,1-.542-1.417c.035-.846.009-1.7.009-2.543m10.756,5.332a12.686,12.686,0,0,0,4.907-1.11,2.152,2.152,0,0,0,1.3-2.922,2.108,2.108,0,0,0-3.025-1,7.81,7.81,0,0,1-6.458,0,2.1,2.1,0,0,0-3,1.058,2.148,2.148,0,0,0,1.354,2.9,12.739,12.739,0,0,0,4.917,1.076M176.06,67.935a2.142,2.142,0,1,0-2.075,2.175,2.153,2.153,0,0,0,2.075-2.175m6.382-2.107a2.141,2.141,0,1,0,2.194,2.054,2.149,2.149,0,0,0-2.194-2.054" transform="translate(-77.476 -27.188)" fill="#e8c5a6"/>
        <path id="Trazado_654619" data-name="Trazado 654619" d="M58.832,109.3a8.682,8.682,0,0,1-5.5-2.015,14.134,14.134,0,0,1-5.218-9.327,2,2,0,0,1,.407-1.6c3.189-4.239,6.377-8.478,9.523-12.749.534-.726.76-.555,1.209.045,3.173,4.251,6.356,8.5,9.589,12.7a2.573,2.573,0,0,1,.314,2.139c-.554,4.866-4.711,9.736-9.092,10.642-.477.1-.968.13-1.233.164m-.506-4.3a8.482,8.482,0,0,0,3.265-.78,2.073,2.073,0,0,0,1.186-2.648,2.016,2.016,0,0,0-2.683-1.317,3.88,3.88,0,0,1-2.942-.005,2.058,2.058,0,0,0-2.647,1.2,2.11,2.11,0,0,0,1.182,2.765,7.43,7.43,0,0,0,2.64.78M56.493,93.8a2.232,2.232,0,0,0-2.116-2.153,2.142,2.142,0,0,0-2.152,2.211,2.077,2.077,0,0,0,2.147,2.055A2.145,2.145,0,0,0,56.493,93.8m8.576,0a2.232,2.232,0,0,0-2.116-2.153A2.142,2.142,0,0,0,60.8,93.859a2.077,2.077,0,0,0,2.147,2.055A2.145,2.145,0,0,0,65.069,93.8" transform="translate(-22.268 -38.495)" fill="#e6c4a5"/>
        <path id="Trazado_654620" data-name="Trazado 654620" d="M76.667,232.244c-3.93,0-7.86-.029-11.789.022-.9.011-1.117-.272-1.095-1.126.057-2.186.042-4.376.005-6.563-.011-.679.156-.924.885-.921q11.99.038,23.98,0c.725,0,.9.234.889.918-.038,2.232-.062,4.467.009,6.7.029.91-.352.993-1.1.987-3.929-.029-7.859-.013-11.789-.013" transform="translate(-29.535 -103.565)" fill="#4f96e1"/>
        <path id="Trazado_654621" data-name="Trazado 654621" d="M148.469,232.243c-3.885,0-7.771-.034-11.655.024-.967.015-1.19-.281-1.161-1.2.068-2.141.05-4.286.005-6.429-.016-.742.176-.99.957-.987q11.923.043,23.846,0c.786,0,.969.252.954.99-.044,2.142-.062,4.288.006,6.429.029.921-.2,1.209-1.165,1.2-3.929-.058-7.859-.024-11.789-.024" transform="translate(-62.813 -103.563)" fill="#4f96e1"/>
        <path id="Trazado_654622" data-name="Trazado 654622" d="M88.894,105.392c.052,3.48.051,3.5-3.065,3.468-1.01-.011-2.326.46-2.949-.23-.566-.627.026-1.872.127-2.84q.761-7.315,1.564-14.625a4.8,4.8,0,0,0-.973-3.732c-3.763-4.87-7.394-9.843-11.16-14.711-.988-1.277-.663-2.619-.646-3.952.009-.7.7-.356,1.053-.272a13.355,13.355,0,0,1,6.986,4.219c3.846,4.29,5.621,9.549,6.924,15.009a90.86,90.86,0,0,1,2.141,17.665" transform="translate(-33.213 -31.645)" fill="#b8866c"/>
        <path id="Trazado_654623" data-name="Trazado 654623" d="M38.223,110.441c-.469-.32-.556-.832-.757-1.261-1.022-2.178-1.891-4.441-3.057-6.537a11.526,11.526,0,0,1-1.3-7.913c1.069-6.359,2.321-12.636,5.583-18.3,2.159-3.751,5.034-6.681,9.407-7.813,1-.259,1.405-.2,1.425,1.026a5.645,5.645,0,0,1-1.254,3.781C44.7,78.055,41.284,82.8,37.717,87.429a5.261,5.261,0,0,0-.972,4.12c.634,5.9,1.2,11.8,1.776,17.7.036.37.221.8-.3,1.188" transform="translate(-15.237 -31.715)" fill="#b8866c"/>
        <path id="Trazado_654624" data-name="Trazado 654624" d="M90.169,14.527c-.532-1.742-.987-3.222-1.435-4.7-.443-1.466-.247-1.744,1.27-1.747q6.092-.01,12.183,0,9.1,0,18.208,0c1.738,0,1.883.2,1.381,1.858-.438,1.446-.874,2.892-1.373,4.544-.488-1.9-1.769-2.146-3.34-2.138q-11.849.066-23.7,0c-1.527-.007-2.77.252-3.2,2.185" transform="translate(-40.992 -3.738)" fill="#ba876d"/>
        <path id="Trazado_654625" data-name="Trazado 654625" d="M51.782,133.892c7.8,4.27,10.192,4.274,17.151-.025v3.356c0,2.673-.037,5.348.018,8.02.021,1.037-.255,1.116-1.113.678-3.684-1.88-7.4-3.706-11.086-5.572a10.994,10.994,0,0,0-4.175-1.3c-.4-.03-.81,0-.8-.61.021-1.493.007-2.987.007-4.551" transform="translate(-23.974 -61.988)" fill="#93c093"/>
        <path id="Trazado_654626" data-name="Trazado 654626" d="M107.694,78.758c5.151,3.81,7.98,3.785,12.742-.027a20.163,20.163,0,0,1,.117,3.555c.018.434-.362.591-.633.8-1.7,1.289-3.435,2.539-5.116,3.854a.92.92,0,0,1-1.367-.014c-1.466-1.158-2.946-2.3-4.489-3.355a2.361,2.361,0,0,1-1.273-2.507,16.655,16.655,0,0,0,.019-2.3" transform="translate(-49.843 -36.457)" fill="#d5b69a"/>
        <path id="Trazado_654627" data-name="Trazado 654627" d="M159.651,97.776c2.014,1.981,3.967,3.893,5.909,5.817a8.3,8.3,0,0,1,.437,4.339.434.434,0,0,1-.216.141c-1.878.539-3.753,1.09-5.638,1.6-.606.163-.484-.359-.484-.674-.009-3.725-.006-7.451-.006-11.222" transform="translate(-73.925 -45.276)" fill="#b9866d"/>
        <path id="Trazado_654628" data-name="Trazado 654628" d="M209.922,97.9c0,3.673-.02,7.322.016,10.971.008.808-.225,1.012-.988.781-1.573-.476-3.162-.9-4.738-1.365a1.2,1.2,0,0,1-.652-.387c-.441-.7.073-3.89.7-4.5,1.867-1.822,3.743-3.636,5.662-5.5" transform="translate(-94.183 -45.335)" fill="#b9866d"/>
        <path id="Trazado_654629" data-name="Trazado 654629" d="M179.446,117.081a8.064,8.064,0,0,0,8.784-.011c-.465,1.886.773,3.941-1.3,5.073a6.316,6.316,0,0,1-6.277,0c-2.031-1.127-.776-3.192-1.209-5.066" transform="translate(-83.093 -54.21)" fill="#d5b69a"/>
        <path id="Trazado_654630" data-name="Trazado 654630" d="M95.99,155.38c0,.045,0,.09,0,.134-.1,1.083.214,2.19-.186,3.256a22.4,22.4,0,0,1-3.841-1.79c-.293-.139-.261-.439-.261-.705,0-1.25.026-2.5-.012-3.751-.018-.59.185-.828.764-.745a.736.736,0,0,0,.134,0c3.4-.129,3.4-.129,3.4,3.6" transform="translate(-42.456 -70.264)" fill="#e6c4a5"/>
        <path id="Trazado_654631" data-name="Trazado 654631" d="M132,93v4.788l-4.161-1.654L132,93" transform="translate(-59.194 -43.063)" fill="#81c8e4"/>
        <path id="Trazado_654632" data-name="Trazado 654632" d="M105.315,94.8c1.313.272,2.026,1.231,2.985,1.922-1.969.965-1.969.965-2.985-1.922" transform="translate(-48.766 -43.898)" fill="#81c8e4"/>
        <path id="Trazado_654633" data-name="Trazado 654633" d="M114.134,57.33a12.586,12.586,0,0,1-4.906-1.117,2.128,2.128,0,0,1-1.3-2.817,2.08,2.08,0,0,1,2.971-1.114,7.965,7.965,0,0,0,6.587-.009,2.114,2.114,0,0,1,2.983,1.1,2.153,2.153,0,0,1-1.3,2.822,12.556,12.556,0,0,1-5.035,1.134" transform="translate(-49.9 -24.097)" fill="#060504"/>
        <path id="Trazado_654634" data-name="Trazado 654634" d="M112.027,34.23a2.142,2.142,0,1,1-2.051-2.2,2.159,2.159,0,0,1,2.051,2.2" transform="translate(-49.891 -14.831)" fill="#0b0908"/>
        <path id="Trazado_654635" data-name="Trazado 654635" d="M125.821,36.314A2.143,2.143,0,1,1,128,34.243a2.155,2.155,0,0,1-2.18,2.071" transform="translate(-57.288 -14.831)" fill="#0b0908"/>
        <path id="Trazado_654636" data-name="Trazado 654636" d="M182.1,93.257a12.742,12.742,0,0,1-4.916-1.076,2.149,2.149,0,0,1-1.354-2.9,2.1,2.1,0,0,1,3-1.058,7.812,7.812,0,0,0,6.458,0,2.107,2.107,0,0,1,3.025,1,2.152,2.152,0,0,1-1.3,2.922,12.7,12.7,0,0,1-4.908,1.11" transform="translate(-81.331 -40.73)" fill="#060504"/>
        <path id="Trazado_654637" data-name="Trazado 654637" d="M179.908,74.068a2.142,2.142,0,1,1-2.142-2.107,2.163,2.163,0,0,1,2.142,2.107" transform="translate(-81.323 -33.322)" fill="#0b0908"/>
        <path id="Trazado_654638" data-name="Trazado 654638" d="M193.687,71.961a2.141,2.141,0,1,1-2.087,2.16,2.157,2.157,0,0,1,2.087-2.16" transform="translate(-88.721 -33.322)" fill="#0b0908"/>
        <path id="Trazado_654639" data-name="Trazado 654639" d="M63.719,119.644a7.442,7.442,0,0,1-2.64-.78A2.11,2.11,0,0,1,59.9,116.1a2.058,2.058,0,0,1,2.647-1.2,3.88,3.88,0,0,0,2.942.005,2.015,2.015,0,0,1,2.683,1.317,2.073,2.073,0,0,1-1.186,2.648,8.484,8.484,0,0,1-3.265.78" transform="translate(-27.66 -53.138)" fill="#060504"/>
        <path id="Trazado_654640" data-name="Trazado 654640" d="M60.058,101.143a2.145,2.145,0,0,1-2.121,2.113,2.077,2.077,0,0,1-2.147-2.055,2.142,2.142,0,0,1,2.152-2.211,2.232,2.232,0,0,1,2.116,2.153" transform="translate(-25.833 -45.838)" fill="#060504"/>
        <path id="Trazado_654641" data-name="Trazado 654641" d="M76.03,101.143a2.145,2.145,0,0,1-2.121,2.113,2.077,2.077,0,0,1-2.147-2.055,2.142,2.142,0,0,1,2.152-2.211,2.232,2.232,0,0,1,2.116,2.153" transform="translate(-33.229 -45.838)" fill="#060504"/>
      </g>
    </g>
  </g>
</svg>
