<svg xmlns="http://www.w3.org/2000/svg" xmlns:xlink="http://www.w3.org/1999/xlink" width="295" height="262.338" viewBox="0 0 295 262.338">
  <defs>
    <clipPath id="clip-path">
      <rect id="Rectángulo_312909" data-name="Rectángulo 312909" width="268" height="262" transform="translate(-7251 -11295)" fill="none"/>
    </clipPath>
    <clipPath id="clip-path-2">
      <rect id="Rectángulo_312908" data-name="Rectángulo 312908" width="281.977" height="487.069" fill="none"/>
    </clipPath>
    <clipPath id="clip-path-4">
      <rect id="Rectángulo_312897" data-name="Rectángulo 312897" width="33.717" height="83.777" fill="#059553"/>
    </clipPath>
    <clipPath id="clip-path-5">
      <rect id="Rectángulo_312898" data-name="Rectángulo 312898" width="58.472" height="36.347" fill="none"/>
    </clipPath>
    <clipPath id="clip-path-6">
      <rect id="Rectángulo_312899" data-name="Rectángulo 312899" width="52.261" height="57.801" fill="#d92f2f"/>
    </clipPath>
    <clipPath id="clip-path-7">
      <rect id="Rectángulo_312901" data-name="Rectángulo 312901" width="11.376" height="7.425" fill="none"/>
    </clipPath>
    <clipPath id="clip-path-8">
      <rect id="Rectángulo_312902" data-name="Rectángulo 312902" width="26.082" height="12.624" fill="none"/>
    </clipPath>
    <clipPath id="clip-path-9">
      <rect id="Rectángulo_312903" data-name="Rectángulo 312903" width="18.248" height="11.384" fill="none"/>
    </clipPath>
    <clipPath id="clip-path-10">
      <rect id="Rectángulo_312904" data-name="Rectángulo 312904" width="26.788" height="15.319" fill="#d92f2f"/>
    </clipPath>
    <clipPath id="clip-path-11">
      <rect id="Rectángulo_312906" data-name="Rectángulo 312906" width="0.178" height="0.248" fill="none"/>
    </clipPath>
  </defs>
  <g id="Grupo_996010" data-name="Grupo 996010" transform="translate(7264.5 11295)">
    <path id="Trazado_654295" data-name="Trazado 654295" d="M236.252,117.873V262.038H0V118.12c0-.353,0-.706.011-1.058a113.9,113.9,0,0,1,1.094-15.069c.012-.107.023-.2.036-.318a1.692,1.692,0,0,1,.036-.258c.235-1.683.505-3.341.824-4.989V96.4A112.264,112.264,0,0,1,4.928,84.288c.211-.706.424-1.411.648-2.118q1.058-3.352,2.317-6.587A118.2,118.2,0,0,1,170.562,12.258a6.973,6.973,0,0,1,.73.365,117.478,117.478,0,0,1,22.339,14.646c.165.129.317.258.47.387,1.73,1.459,3.413,2.953,5.059,4.506.188.189.388.365.577.553.647.612,1.282,1.235,1.918,1.871a118.84,118.84,0,0,1,19.728,26.127c.106.177.2.353.294.53a117.7,117.7,0,0,1,6.8,14.657,114.1,114.1,0,0,1,3.717,11.434c.693,2.588,1.306,5.2,1.811,7.847a112.945,112.945,0,0,1,1.717,11.9c.025.152.036.317.048.482q.459,5.1.482,10.305" transform="translate(-7231.506 -11294.7)" fill="#ffcb7d"/>
    <g id="Grupo_996009" data-name="Grupo 996009" transform="translate(-357.5)">
      <path id="Trazado_654296" data-name="Trazado 654296" d="M153.493,38.532H73.464a26.319,26.319,0,0,1,2.695-2.271c3.47-2.518,7.87-4,12.093-3.236,2.693.5,5.34,1.871,8.046,1.4,2.448-.423,4.353-2.246,6.235-3.87A49.759,49.759,0,0,1,121.167,20.51,29.133,29.133,0,0,1,133.1,19.321c9.564,1.33,17.139,9.482,20.3,18.611Z" transform="translate(-6926.59 -11249.904)" fill="#fee8e8"/>
      <path id="Trazado_654298" data-name="Trazado 654298" d="M97.9,16.028l-3.313,1.281a5.446,5.446,0,0,0-3.111,3.111L90.2,23.734l-1.281-3.313a5.44,5.44,0,0,0-3.11-3.111l-3.313-1.281L85.8,14.747a5.433,5.433,0,0,0,3.11-3.111L90.2,8.324l1.281,3.312a5.439,5.439,0,0,0,3.111,3.111Z" transform="translate(-6855.588 -11292.791)" fill="#fff"/>
      <path id="Trazado_654299" data-name="Trazado 654299" d="M186.172,107.957l-3.313,1.281a5.437,5.437,0,0,0-3.11,3.111l-1.281,3.312-1.281-3.312a5.443,5.443,0,0,0-3.111-3.111l-3.313-1.281,3.313-1.281a5.439,5.439,0,0,0,3.111-3.111l1.281-3.312,1.281,3.312a5.433,5.433,0,0,0,3.11,3.111Z" transform="translate(-6835.345 -11271.709)" fill="#fff"/>
      <path id="Trazado_654300" data-name="Trazado 654300" d="M25.582,175.325l-3.313,1.281a5.446,5.446,0,0,0-3.111,3.111l-1.281,3.313-1.28-3.313a5.446,5.446,0,0,0-3.111-3.111l-3.313-1.281,3.313-1.281a5.439,5.439,0,0,0,3.111-3.111l1.28-3.312,1.281,3.312a5.439,5.439,0,0,0,3.111,3.111Z" transform="translate(-6872.173 -11256.26)" fill="#fff"/>
      <path id="Trazado_654301" data-name="Trazado 654301" d="M187.041,55.626a21.523,21.523,0,1,1-27.28-33.057c-.154-.129-.306-.258-.471-.387a22.108,22.108,0,1,0,28.045,33.974c-.093-.177-.188-.353-.294-.53" transform="translate(-6840.164 -11289.613)" fill="#fff"/>
      <path id="Trazado_654302" data-name="Trazado 654302" d="M7.987,108.563A22.019,22.019,0,0,0,0,110.057v.636a21.239,21.239,0,0,1,7.987-1.542,21.528,21.528,0,0,1,0,43.056A21.215,21.215,0,0,1,0,150.665v.636a22.115,22.115,0,1,0,7.987-42.738" transform="translate(-6874.506 -11269.804)" fill="#fff"/>
      <path id="Trazado_654375" data-name="Trazado 654375" d="M173.574,43.4H73.464a32.922,32.922,0,0,1,3.371-2.84c4.341-3.149,9.845-5,15.127-4.047,3.369.62,6.68,2.34,10.065,1.752,3.062-.529,5.445-2.81,7.8-4.841a62.244,62.244,0,0,1,23.31-12.567,36.443,36.443,0,0,1,14.921-1.487c11.964,1.664,21.44,11.861,25.4,23.281Z" transform="translate(-6785.573 -11240.389)" fill="#fee8e8"/>
      <path id="Trazado_654376" data-name="Trazado 654376" d="M73.464,37.246H148.2a24.574,24.574,0,0,0-2.516-2.12A15.088,15.088,0,0,0,134.387,32.1c-2.515.463-4.987,1.747-7.513,1.307-2.286-.395-4.065-2.1-5.822-3.614a46.465,46.465,0,0,0-17.4-9.381,27.2,27.2,0,0,0-11.139-1.11c-8.931,1.242-16,8.854-18.961,17.379Z" transform="translate(-6980.464 -11176.017)" fill="#fee8e8"/>
    </g>
    <g id="Enmascarar_grupo_878557" data-name="Enmascarar grupo 878557" clip-path="url(#clip-path)">
      <g id="Grupo_995982" data-name="Grupo 995982" transform="translate(-7251.374 -11261.49)">
        <g id="Grupo_996008" data-name="Grupo 996008" clip-path="url(#clip-path-2)">
          <g id="Grupo_996007" data-name="Grupo 996007">
            <g id="Grupo_996006" data-name="Grupo 996006" clip-path="url(#clip-path-2)">
              <path id="Trazado_658143" data-name="Trazado 658143" d="M30.985,73.725l-5.967-5.8-1.26-1.09a5.985,5.985,0,0,1-2.424.647,5.769,5.769,0,0,1-4.774-2.229L8.109,54.264l7.971-7.742,11.55,8.1,10.927,7.642a12.921,12.921,0,0,1-.975,4.837,11.46,11.46,0,0,1-6.6,6.627" transform="translate(7.369 42.275)" fill="#fc9e87"/>
              <path id="Trazado_658144" data-name="Trazado 658144" d="M22.788,51.891c-4.491,2.063-9.826,2.241-13.882,4.795-.015.013.387-.525.384-.521L5.743,63.384c-1.208,2.422-2.3,4.884-3.413,7.352a1.219,1.219,0,0,1-2.315-.7A53,53,0,0,1,3.693,57.993a24.385,24.385,0,0,1,2.2-4.325c2.346-2.252,4.755-3.063,7.463-4.247a58.78,58.78,0,0,0,6.511-2.812,3.024,3.024,0,1,1,2.922,5.281" transform="translate(0 41.889)" fill="#fc9e87"/>
              <path id="Trazado_658145" data-name="Trazado 658145" d="M16.016,53.963c-2.844.916-6.19,2.065-8.419,4.06l.387-.922c-.294,2.271-.762,4.545-1.17,6.806L6.15,67.284c-.227,1.159-.447,2.317-.6,3.384a1.215,1.215,0,0,1-2.4.017,49.559,49.559,0,0,1,.628-14.268c.376-1.437,1.737-2.529,2.647-3.386a36.372,36.372,0,0,1,7.444-4.711,3.027,3.027,0,1,1,2.151,5.642" transform="translate(2.6 43.627)" fill="#fc9e87"/>
              <path id="Trazado_658146" data-name="Trazado 658146" d="M17.251,51.856a37.72,37.72,0,0,0-9.607.355c-.04.05.456-.244.351-.2a4.717,4.717,0,0,0-.67,5.927A1.233,1.233,0,0,1,6.884,59.7c-1.454.63-2.613-1.433-3.275-2.552a7.58,7.58,0,0,1,1.8-8.608,3.376,3.376,0,0,1,.9-.508A47.336,47.336,0,0,1,17.176,45.82a3.032,3.032,0,1,1,.074,6.035" transform="translate(2.682 41.621)" fill="#fc9e87"/>
              <path id="Trazado_658147" data-name="Trazado 658147" d="M2.667,71.787a.482.482,0,0,1-.1-.313c.263-6.99.66-13.75,1.775-15.89C5.635,53.1,15.706,47.76,17.9,46.951a3.117,3.117,0,0,1,3.932,1.185.486.486,0,0,1-.846.479,2.127,2.127,0,0,0-2.75-.75C15.877,48.734,6.3,53.931,5.2,56.034,4.036,58.273,3.7,67.214,3.538,71.508a.486.486,0,0,1-.87.279" transform="translate(2.332 42.434)" fill="#c2732d"/>
              <path id="Trazado_658148" data-name="Trazado 658148" d="M24.288,60.788c-3.189.055-6.249-1.136-9.236-1.764-2.75-.679-5.476-1.288-8.213-1.682a1.726,1.726,0,0,1,.208-3.438c2.964-.027,5.9.178,8.78.439,1.411.128,4.936.477,6.287.513a5.25,5.25,0,0,0,1.437-.069,3.378,3.378,0,1,1,2.4,5.915l-1.662.084" transform="translate(4.849 48.982)" fill="#fc9e87"/>
              <path id="Trazado_658149" data-name="Trazado 658149" d="M2.467,55.179a.493.493,0,0,1-.015-.576c.094-.13,2.31-3.245,8.66-6.575,6.383-3.348,8.8-2.016,9.051-1.853a.487.487,0,0,1-.517.825c-.057-.032-2.243-1.172-8.083,1.892-6.114,3.2-8.291,6.24-8.312,6.27a.486.486,0,0,1-.678.118.473.473,0,0,1-.1-.1" transform="translate(2.15 41.598)" fill="#c2732d"/>
              <path id="Trazado_658150" data-name="Trazado 658150" d="M9.139,54.792a.476.476,0,0,1-.1-.311.487.487,0,0,1,.5-.473c1.83.046,9.8-.67,10.219-.762a.466.466,0,0,1,.6.3.5.5,0,0,1-.309.63c-.437.162-8.885.849-10.538.809a.483.483,0,0,1-.372-.189" transform="translate(8.213 48.358)" fill="#c2732d"/>
              <path id="Trazado_658151" data-name="Trazado 658151" d="M56.071,397.6s6.125-.855,18.106-3.472c13.815-3.044,29.251-7,34.414.464,6.48,9.381,14.634,17.3,20.1,14.722,3.774-1.779,2.3-12.426-.107-24.907-.231-1.193-.464-2.4-.712-3.613-.41-2.1-.819-4.629-1.176-7.532-4.9-38.294-6-143.193-6.177-211.255-.09-36.052.071-61.779.071-61.779l-48.176-15.2Z" transform="translate(50.952 77.262)" fill="#6f66ff"/>
              <path id="Trazado_658152" data-name="Trazado 658152" d="M78.957,101.551s7.089,21.6,7.961,29.089c8.959,76.743,34.37,211.211,40.15,260.464.624,5.287.534,9.845,3.9,12.107,5.377,3.613,12.569-.16,16.736-3.9,2.563-2.3,13.3-9.578,16.575-10.736,38.527-13.565,45.7-3.222,45.95-2.831L161.2,240.432a245.759,245.759,0,0,1-9.15-35.7l-6.961-39.079-2.279-12.8L131.645,90.135Z" transform="translate(71.748 81.906)" fill="#6f66ff"/>
              <rect id="Rectángulo_312896" data-name="Rectángulo 312896" width="66.348" height="25.932" transform="translate(85.197 140.651) rotate(-68.133)" fill="#f29b8a"/>
              <path id="Trazado_658153" data-name="Trazado 658153" d="M129.475,125.9l6.936-1.607c-4.234-18.291-19.087-78.41-32.463-84.019l-2.754,6.566c6.827,2.865,20,43.268,28.281,79.06" transform="translate(91.955 36.6)" fill="#00ce70"/>
              <path id="Trazado_658154" data-name="Trazado 658154" d="M57.261,52.886l12.8,77.783,68.757,14.546,4.025-31.3,5.785-45.15.107-.836a22.236,22.236,0,0,0-.784-10.843l-.374-.943c-.124-.3-.284-.605-.426-.891-2.1-4.041-6.052-7.014-12.3-8.171L76.506,35.688a16.009,16.009,0,0,0-11.235,1.886,16.192,16.192,0,0,0-8.011,15.312" transform="translate(51.986 32.149)" fill="#f29b8a"/>
              <path id="Trazado_658155" data-name="Trazado 658155" d="M91.748,55.45l19.709,49.014,5.037,12.552,3.455-1.39,20.6-8.278L121.57,60.1l-5-12.462-.374-.943-.374-.909-.053.017L95.006,54.133Z" transform="translate(83.372 41.602)" fill="#f29b8a"/>
              <path id="Trazado_658156" data-name="Trazado 658156" d="M103.635,158.643c2.42,10.717,12.639,17.287,22.557,14.386q2.11-.616,4.22-1.283,5.205-1.655,10.5-3.632c18.461-6.835,26.562-30,17.161-48.353-6.818-13.317-13.976-26.153-19.564-39.56C130,83.566,120.745,86.824,110.9,89.975c-4.5,1.46-9.152,2.884-13.888,4.308-1.353,19.085,1.745,42.835,6.623,64.36" transform="translate(87.865 72.879)" fill="#00ce70"/>
              <g id="Grupo_995984" data-name="Grupo 995984" transform="translate(184.558 162.818)" opacity="0.5">
                <g id="Grupo_995983" data-name="Grupo 995983">
                  <g id="Grupo_995982-2" data-name="Grupo 995982" clip-path="url(#clip-path-4)">
                    <path id="Trazado_658157" data-name="Trazado 658157" d="M103.635,154.007c2.42,10.717,12.639,17.287,22.557,14.386q2.11-.616,4.22-1.283c-5.644-3.312-11.5-8.776-12.926-18.123-2.8-18.587-6.429-63.684-6.429-63.684l-.158.036c-4.5,1.46-9.152,2.884-13.888,4.308-1.353,19.085,1.745,42.835,6.623,64.36" transform="translate(-96.693 -85.303)" fill="#059553"/>
                  </g>
                </g>
              </g>
              <g id="Grupo_995987" data-name="Grupo 995987" transform="translate(150.018 166.758)" opacity="0.5">
                <g id="Grupo_995986" data-name="Grupo 995986">
                  <g id="Grupo_995985" data-name="Grupo 995985" clip-path="url(#clip-path-5)">
                    <path id="Trazado_658158" data-name="Trazado 658158" d="M137.068,96.582S122.646,116.834,78.6,123.716l16.466-34.8L128.1,87.367Z" transform="translate(-78.597 -87.367)" fill="#2b1011"/>
                  </g>
                </g>
              </g>
              <path id="Trazado_658159" data-name="Trazado 658159" d="M119.39,128.5l6.425-2.582a26.219,26.219,0,0,0,14.52-34.179L126.59,57.851a7.318,7.318,0,0,0-8.868-4.264l-25.4,7.553Z" transform="translate(83.894 48.418)" fill="#f46464"/>
              <path id="Trazado_658160" data-name="Trazado 658160" d="M56.1,51.173,68.9,131.7s.651,17.823,70.924,12.464c7.866-.6,4.024-31.3,4.024-31.3l5.037,12.55,3.455-1.388,1.62-55.53s-1.567-.248-4.327-.783c-4.629-.889-12.605-2.563-22.236-5.18-18.283-4.949-42.551-13.3-61.119-26.012-5.146,3.008-8.528,8.759-10.177,14.644" transform="translate(50.98 33.194)" fill="#f46464"/>
              <g id="Grupo_995990" data-name="Grupo 995990" transform="translate(157.347 105.507)" opacity="0.5">
                <g id="Grupo_995989" data-name="Grupo 995989">
                  <g id="Grupo_995988" data-name="Grupo 995988" clip-path="url(#clip-path-6)">
                    <path id="Trazado_658161" data-name="Trazado 658161" d="M130.031,92.865c.567-1.334-20.555-22.015-19.883-37.588,0,0-9.82,45.232-25.073,53.661-14.636,8.087,36.391,1.83,36.391,1.83l13.231-6.3Z" transform="translate(-82.437 -55.277)" fill="#d92f2f"/>
                  </g>
                </g>
              </g>
              <path id="Trazado_658162" data-name="Trazado 658162" d="M97.827,118.415l6.99-1.357c-9.066-46.649-1.5-65.959.809-69.238.571-.809,2.416-2.89,5.077-1.506l1.336-5.482a10.406,10.406,0,0,0-10.945,1.5c-9.744,8.039-10.965,36.483-3.268,76.087" transform="translate(84.338 36.285)" fill="#00ce70"/>
              <path id="Trazado_658163" data-name="Trazado 658163" d="M86.979,160.7c.023.011.023.011.04.006.218-.031.429-.076.659-.128,7.975-1.483,16.358-5.791,23.508-12.674,8.456-8.131,13.4-18.1,14.3-27.216a3.154,3.154,0,0,0,.048-.363,39.949,39.949,0,0,0,8.818-2.489A49.724,49.724,0,0,0,152.339,105c7.717-8.736,11.04-18.984,8.436-25.537-4.136-10.406-21.334-7.308-36.838-1.151-7.2,2.859-33.091,16.905-45.887,25.974-2.092,1.483-1.945,2.287-3.317,3.464C71.551,113,70.152,122.792,71.519,133.7c1.949,15.7,8.891,27.772,15.461,27" transform="translate(64.515 66.025)" fill="#f46464"/>
              <path id="Trazado_658164" data-name="Trazado 658164" d="M120.085,56.527,97.614,129.012c-7.692,24.813-55.912-5.7-65.86-14.626a58.323,58.323,0,0,1-14.5-19.255C12.47,84.49,38.322,57.113,38.322,57.113L75.8,87.784l17.57-45.565c1.029-2.565,26.72,14.308,26.72,14.308" transform="translate(15.143 38.124)" fill="#f46464"/>
              <path id="Trazado_658165" data-name="Trazado 658165" d="M62.461,109.12a.484.484,0,0,1-.485-.462c-.015-.3-1.47-30.614,3.714-55.244a.486.486,0,1,1,.951.2c-5.157,24.506-3.711,54.7-3.7,55a.486.486,0,0,1-.46.51Z" transform="translate(56.137 48.186)" fill="#2b1011"/>
              <path id="Trazado_658166" data-name="Trazado 658166" d="M87.625,145.645c-.233.059-.447.1-.66.136-.019,0-.019,0-.04-.019-6.57.777-13.51-11.294-15.472-27a64.068,64.068,0,0,1-.506-7.037c-.038-1.71,0-3.363.116-4.938a42.843,42.843,0,0,1,1.38-8.532,21.091,21.091,0,0,1,2.235-5.444,10.389,10.389,0,0,1,2.216-2.682,5.734,5.734,0,0,1,2.955-1.342c.04-.019.059,0,.1,0a2.546,2.546,0,0,1,.37-.019c1.962-.078,3.926.952,5.772,2.876a26.339,26.339,0,0,1,4.724,7.308A44.536,44.536,0,0,1,92.62,103.6a60.693,60.693,0,0,1,2.741,12.187c1.886,15.22-1.575,28.245-7.736,29.858" transform="translate(64.457 80.661)" fill="#2b1011"/>
              <path id="Trazado_658167" data-name="Trazado 658167" d="M58.739,64.821l7.908-1.626L61.53,65.81l7.877,2.773,2.231-2.392a9.515,9.515,0,0,0,.655,1.643l-.527,1.579,3.523,1.243.223.08a6.515,6.515,0,0,0,2.248.384c4.512,0,10.2-4.163,14.016-10.748,4.274-7.4,4.736-15.323,1.37-18.814a70.553,70.553,0,0,0,1.722-21.494l-12.834-.781C79.914,34.764,70.379,56.291,56.508,64.04Z" transform="translate(51.349 17.523)" fill="#ffe7d4"/>
              <rect id="Rectángulo_312900" data-name="Rectángulo 312900" width="22.771" height="36.426" transform="translate(142.824 42.663)" fill="#f29b8a"/>
              <g id="Grupo_995993" data-name="Grupo 995993" transform="translate(142.825 53.255)" opacity="0.5">
                <g id="Grupo_995992" data-name="Grupo 995992">
                  <g id="Grupo_995991" data-name="Grupo 995991" clip-path="url(#clip-path-7)">
                    <path id="Trazado_658168" data-name="Trazado 658168" d="M74.828,27.9v7.425A25.166,25.166,0,0,0,86.2,30.251l-7.476-1.762Z" transform="translate(-74.828 -27.901)" fill="#96544a"/>
                  </g>
                </g>
              </g>
              <path id="Trazado_658169" data-name="Trazado 658169" d="M88.3,39.054c5.654,11.263,17.993,18.327,22.618,16.169,4.753-2.178-1.378-12.937-8.755-24.275C94.652,19.627,90.117,11.964,87.088,14.2c-2.9,2.233-4.571,13.59,1.208,24.855" transform="translate(76.727 12.55)" fill="#ffe7d4"/>
              <path id="Trazado_658170" data-name="Trazado 658170" d="M88.546,75.409l3.722-4.06-1.212,4.434,7.906,1.21.96-1.46c.2.143.393.284.588.428l.231,1.3h.019L105,77.9v-.019a6.485,6.485,0,0,0,3.151-.231c5.749-1.922,7.69-11.626,4.325-21.7a31.014,31.014,0,0,0-4.308-8.475c-.284-4.308-.765-8.582-1.336-12.712a101.549,101.549,0,0,0-3.186-12.943c.019.143-13.834,1.21-13.834,1.21,1.14,14.848-.746,38.581-8.545,51.275Z" transform="translate(73.845 19.828)" fill="#ffe7d4"/>
              <path id="Trazado_658171" data-name="Trazado 658171" d="M66.685,11.9a8.264,8.264,0,0,0,.25,1.995,10.933,10.933,0,0,0,5.892,6.711,17.489,17.489,0,0,0,8.118,1.9q.641,0,1.283-.053a12.56,12.56,0,0,0,2.189-.284c6.2-1.139,10.771-5.3,10.771-10.273,0-5.858-6.373-10.593-14.243-10.593S66.685,6.044,66.685,11.9" transform="translate(60.597 1.189)" fill="#ffe7d4"/>
              <path id="Trazado_658172" data-name="Trazado 658172" d="M64.8,16.09a20.6,20.6,0,0,0,8.03,3.793c6.6,1.655,12.569.481,13.351-2.636a2.679,2.679,0,0,0,.09-.765c-.036-1.424-1.1-2.955-2.884-4.325a21.314,21.314,0,0,0-7.726-3.525,23.819,23.819,0,0,0-4.682-.712c-4.541-.25-8.083,1-8.654,3.346-.391,1.55.588,3.275,2.476,4.825" transform="translate(56.555 7.167)" fill="#ffe7d4"/>
              <g id="Grupo_995996" data-name="Grupo 995996" transform="translate(121.354 15.174)" opacity="0.5">
                <g id="Grupo_995995" data-name="Grupo 995995">
                  <g id="Grupo_995994" data-name="Grupo 995994" clip-path="url(#clip-path-8)">
                    <path id="Trazado_658173" data-name="Trazado 658173" d="M63.579,16.033a20.6,20.6,0,0,0,8.03,3.793c6.6,1.655,12.569.481,13.351-2.636a2.679,2.679,0,0,0,.09-.765,12.745,12.745,0,0,0,2.189-.284l2.422-8.19a55.971,55.971,0,0,1-7.5,4.15,48.082,48.082,0,0,1-6.516,2.474,33.944,33.944,0,0,1-12.071,1.46" transform="translate(-63.579 -7.95)" fill="#de9254"/>
                  </g>
                </g>
              </g>
              <path id="Trazado_658174" data-name="Trazado 658174" d="M21.325,390.779l84.147-288.113a2.546,2.546,0,0,1,4.888,1.428c0-.008-87.64,287.1-87.642,287.1a.727.727,0,0,1-1.393-.416" transform="translate(19.352 91.628)" fill="#2b1011"/>
              <path id="Trazado_658175" data-name="Trazado 658175" d="M74.734,16.418c-8.118,9.864-7.976,23.391.315,30.215s21.593,4.358,29.711-5.507,7.976-23.391-.315-30.215S82.852,6.554,74.734,16.418" transform="translate(62.462 6.41)" fill="#f29b8a"/>
              <path id="Trazado_658176" data-name="Trazado 658176" d="M92.1,18.451a3.917,3.917,0,0,0,.588,1.231c2.35,3.472,9.15,2.953,15.256-1.122a1.939,1.939,0,0,0,.233-.145c6.159-4.2,9.221-10.448,6.837-13.937-1.941-2.85-6.91-3.027-12.019-.695A20.458,20.458,0,0,0,99.52,5.724,19,19,0,0,0,92.6,13.647a7.156,7.156,0,0,0-.5,4.8" transform="translate(83.486 1.974)" fill="#ffe7d4"/>
              <path id="Trazado_658177" data-name="Trazado 658177" d="M91.9,19.643a4.236,4.236,0,0,0,.605.374,4.418,4.418,0,0,0,1.584.408,7.565,7.565,0,0,0,5.163-2.012A16.2,16.2,0,0,0,103.3,13.18a14.92,14.92,0,0,0,1.691-7.423c-.107-2.476-1.052-4.47-2.777-5.323C98.915-1.187,94.09,1.875,91.4,7.269c-2.493,5.056-2.243,10.38.5,12.374" transform="translate(81.492 0)" fill="#ffe7d4"/>
              <g id="Grupo_995999" data-name="Grupo 995999" transform="translate(173.18 12.575)" opacity="0.5">
                <g id="Grupo_995998" data-name="Grupo 995998">
                  <g id="Grupo_995997" data-name="Grupo 995997" clip-path="url(#clip-path-9)">
                    <path id="Trazado_658178" data-name="Trazado 658178" d="M90.732,6.588l.214,7.068a4.133,4.133,0,0,0,.605.374,4.418,4.418,0,0,0,1.584.408,3.887,3.887,0,0,0,.588,1.229c2.35,3.472,9.15,2.955,15.258-1.122A26.427,26.427,0,0,1,98.3,12.427a20.511,20.511,0,0,1-4.665-2.794,14.692,14.692,0,0,1-2.9-3.044" transform="translate(-90.731 -6.588)" fill="#de9254"/>
                  </g>
                </g>
              </g>
              <path id="Trazado_658179" data-name="Trazado 658179" d="M81.561,3.768c-5,6.392-1.531,18.419,7.373,28.184,8.776,9.8,19.326,10.471,23.517,6.829,4.113-3.409-1.26-10.641-8.994-23.382C95.525,2.556,86.591-3.328,81.561,3.768" transform="translate(72.028 0.656)" fill="#ffe7d4"/>
              <path id="Trazado_658180" data-name="Trazado 658180" d="M85.014,27.836a8.305,8.305,0,0,0,16.581,0,8.305,8.305,0,0,0-16.581,0" transform="translate(77.252 18.199)" fill="#f29b8a"/>
              <path id="Trazado_658181" data-name="Trazado 658181" d="M100.092,102.228a5.642,5.642,0,0,1-1.439,1.672l-18.329,5.52a7.045,7.045,0,0,0-4.1,3.4L74.8,115.543l-12.092-2.449,1.653-4.646a12.8,12.8,0,0,1,6.472-7.192l9.078-4.375L93.56,90.274a26.381,26.381,0,0,1,4.724,7.308,44.534,44.534,0,0,1,1.808,4.646" transform="translate(56.987 82.032)" fill="#f29b8a"/>
              <path id="Trazado_658182" data-name="Trazado 658182" d="M77.089,23.732a.473.473,0,0,1-.338-.137L75.4,22.287a2.011,2.011,0,0,1-.324-2.487l2.434-4.058a.486.486,0,0,1,.834.5L75.907,20.3a1.042,1.042,0,0,0,.17,1.288L77.427,22.9a.485.485,0,0,1-.338.834" transform="translate(67.958 14.091)" fill="#96544a"/>
              <path id="Trazado_658183" data-name="Trazado 658183" d="M90.009,30.737a3.6,3.6,0,0,1-.481-.029.486.486,0,0,1-.422-.542.494.494,0,0,1,.546-.422,4.2,4.2,0,0,0,3.1-.96,2.494,2.494,0,0,0,.561-2.247,3.641,3.641,0,0,0-3.063-3.155,2.633,2.633,0,0,1-.987-.437.486.486,0,0,1,.657-.718,3.245,3.245,0,0,0,.613.225,4.619,4.619,0,0,1,3.739,3.93,3.413,3.413,0,0,1-.821,3.077,5.01,5.01,0,0,1-3.439,1.277" transform="translate(80.967 20.084)" fill="#de9254"/>
              <path id="Trazado_658184" data-name="Trazado 658184" d="M87.305,19.418a28.648,28.648,0,0,1-7.917-4.785c-1.666-2.063,2-2.521,3.315-2.117a8.456,8.456,0,0,1,6.152,5.73,1.062,1.062,0,0,1-1.55,1.172" transform="translate(71.753 11.251)" fill="#d68341"/>
              <g id="Grupo_996002" data-name="Grupo 996002" transform="translate(190.066 171.026)" opacity="0.5">
                <g id="Grupo_996001" data-name="Grupo 996001">
                  <g id="Grupo_996000" data-name="Grupo 996000" clip-path="url(#clip-path-10)">
                    <path id="Trazado_658185" data-name="Trazado 658185" d="M99.579,104.921a39.732,39.732,0,0,0,8.8-2.483A49.684,49.684,0,0,0,126.366,89.6c-3.48,2.474-11.889,7.923-22,6.1a25.5,25.5,0,0,0-4.785,9.219" transform="translate(-99.578 -89.602)" fill="#d92f2f"/>
                  </g>
                </g>
              </g>
              <path id="Trazado_658186" data-name="Trazado 658186" d="M78.974,13.23a22.907,22.907,0,0,1-6.537.048,1.068,1.068,0,0,1-.6-1.848,6.14,6.14,0,0,1,7.978.048c.708.75.094,1.693-.84,1.752" transform="translate(64.959 9.07)" fill="#d68341"/>
              <path id="Trazado_658187" data-name="Trazado 658187" d="M93.932,10.114a.49.49,0,0,1-.284-.092.484.484,0,0,1-.109-.678c.061-.088,6.377-8.666,15.966-7.318a.486.486,0,0,1-.134.962c-9.03-1.25-14.987,6.843-15.046,6.925a.487.487,0,0,1-.393.2" transform="translate(84.915 1.711)" fill="#de9254"/>
              <path id="Trazado_658188" data-name="Trazado 658188" d="M80.208,17.813a.487.487,0,0,1-.479-.408C78.66,10.841,79.321,6.023,81.7,3.09A6.767,6.767,0,0,1,86.276.467a.5.5,0,0,1,.506.46.488.488,0,0,1-.458.512,5.8,5.8,0,0,0-3.888,2.285c-2.149,2.676-2.752,7.352-1.748,13.525a.488.488,0,0,1-.4.559.54.54,0,0,1-.078.006" transform="translate(71.999 0.424)" fill="#de9254"/>
              <path id="Trazado_658189" data-name="Trazado 658189" d="M71.411,16.118a.486.486,0,0,1-.279-.088c-.248-.176-6.035-4.337-4.451-9.99a.487.487,0,0,1,.937.263c-1.4,4.987,4.02,8.895,4.073,8.933a.485.485,0,0,1-.281.882" transform="translate(60.345 5.166)" fill="#de9254"/>
              <path id="Trazado_658190" data-name="Trazado 658190" d="M103.992,54.35a.486.486,0,0,1-.481-.416c-1.378-9.452-9.878-21.692-11.12-22.376a.468.468,0,0,1-.311-.6.5.5,0,0,1,.62-.321c1.451.424,10.351,13.4,11.773,23.154a.486.486,0,0,1-.41.552.451.451,0,0,1-.071,0" transform="translate(83.653 27.823)" fill="#de9254"/>
              <path id="Trazado_658191" data-name="Trazado 658191" d="M59.371,51.606a.486.486,0,0,1-.13-.954c8.394-2.325,18.165-14.191,18.57-14.917a.475.475,0,0,1,.632-.244.494.494,0,0,1,.252.647c-.235.55-10.3,12.989-19.194,15.451a.506.506,0,0,1-.13.017" transform="translate(53.508 32.213)" fill="#de9254"/>
              <path id="Trazado_658192" data-name="Trazado 658192" d="M64.733,50a.486.486,0,0,1-.261-.9c1.353-.865,3.071-4.379,3.995-6.268.664-1.359.75-1.535,1.019-1.628a.486.486,0,0,1,.483.823c-.1.155-.37.7-.63,1.233-1.031,2.113-2.76,5.648-4.344,6.659a.484.484,0,0,1-.261.076" transform="translate(58.382 37.421)" fill="#de9254"/>
              <path id="Trazado_658193" data-name="Trazado 658193" d="M85.31,58.8a.484.484,0,0,1-.277-.884c5.323-3.726,8.137-15.47,7.976-16.642a.458.458,0,0,1,.267-.605.514.514,0,0,1,.647.288c.426,1.01-2.512,13.678-8.335,17.755a.482.482,0,0,1-.279.088" transform="translate(77.08 36.924)" fill="#de9254"/>
              <path id="Trazado_658194" data-name="Trazado 658194" d="M90.766,57.864a.484.484,0,0,1-.311-.857c2.955-2.453,3.795-9.925,4.071-12.382.052-.464.092-.767.115-.861a.487.487,0,0,1,.941.25c-.021.09-.048.345-.09.72-.288,2.552-1.16,10.318-4.417,13.019a.47.47,0,0,1-.309.111" transform="translate(82.038 39.441)" fill="#de9254"/>
              <path id="Trazado_658195" data-name="Trazado 658195" d="M74.29,105.4a.48.48,0,0,1-.4-.212.485.485,0,0,1,.128-.676,368.008,368.008,0,0,1,40.027-23.147c21.007-10.229,26.84-8.835,27.077-8.769a.486.486,0,0,1,.344.6.5.5,0,0,1-.594.344c-.09-.023-5.967-1.246-26.4,8.7a366.528,366.528,0,0,0-39.905,23.076.479.479,0,0,1-.273.084" transform="translate(67.066 65.879)" fill="#2b1011"/>
              <path id="Trazado_658196" data-name="Trazado 658196" d="M99.5,108.087H99.49a.49.49,0,0,1-.471-.5,17.469,17.469,0,0,1,.5-3.567,1.292,1.292,0,0,1,.074-.282.633.633,0,0,1,.034-.149l.021-.044a25.718,25.718,0,0,1,4.848-9.3c.954-1.2,1.808-2.107,2.315-2.649.237-.254.4-.424.46-.506a.5.5,0,0,1,.662-.149.476.476,0,0,1,.178.638,4.554,4.554,0,0,1-.592.681c-.5.533-1.334,1.422-2.26,2.586a24.661,24.661,0,0,0-4.7,9.04c-.006.017-.011.036-.019.053a.547.547,0,0,1-.027.1.716.716,0,0,0-.05.174,16.646,16.646,0,0,0-.473,3.4.49.49,0,0,1-.487.471m.567-4.314h0Z" transform="translate(89.978 82.577)" fill="#2b1011"/>
              <path id="Trazado_658197" data-name="Trazado 658197" d="M98.189,83.8l-.038,0a.485.485,0,0,1-.447-.521c.466-5.928,3.409-14.021,14.791-18.913.275-.118.464-.195.542-.244a.474.474,0,0,1,.672.057.5.5,0,0,1-.061.7,3.22,3.22,0,0,1-.769.382c-8.78,3.773-13.559,9.86-14.2,18.1a.486.486,0,0,1-.485.447" transform="translate(88.782 58.166)" fill="#2b1011"/>
              <path id="Trazado_658198" data-name="Trazado 658198" d="M52.905,59.084a.485.485,0,0,1-.443-.685c3.277-7.32,11.225-11.723,12.784-11.723a.486.486,0,0,1,0,.972c-1.044,0-8.767,4.157-11.9,11.149a.484.484,0,0,1-.443.288" transform="translate(47.634 42.415)" fill="#2b1011"/>
              <path id="Trazado_658199" data-name="Trazado 658199" d="M82.49,21.142c.137.176-8.48-.529-8.48-.529s1.676,3.35,4.377,3.585,4.1-3.056,4.1-3.056" transform="translate(67.253 18.731)" fill="#fff"/>
              <path id="Trazado_658200" data-name="Trazado 658200" d="M77.707,21.16a8.239,8.239,0,1,0,8.24-8.238,8.24,8.24,0,0,0-8.24,8.238" transform="translate(70.613 11.742)" fill="#2b1011"/>
              <path id="Trazado_658201" data-name="Trazado 658201" d="M66.213,18.332a8.239,8.239,0,1,0,8.24-8.24,8.24,8.24,0,0,0-8.24,8.24" transform="translate(60.168 9.171)" fill="#2b1011"/>
              <path id="Trazado_658202" data-name="Trazado 658202" d="M81.63,18.084a1.615,1.615,0,1,0,1.615-1.615,1.615,1.615,0,0,0-1.615,1.615" transform="translate(74.177 14.965)" fill="#2b1011"/>
              <path id="Trazado_658203" data-name="Trazado 658203" d="M72.682,15.154A1.615,1.615,0,1,0,74.3,13.539a1.615,1.615,0,0,0-1.615,1.615" transform="translate(66.046 12.303)" fill="#2b1011"/>
              <rect id="Rectángulo_312905" data-name="Rectángulo 312905" width="0.971" height="6.164" transform="translate(142.298 30.546) rotate(-72.334)" fill="#2b1011"/>
              <path id="Trazado_658204" data-name="Trazado 658204" d="M93.78,20.953a.318.318,0,0,1-.059,0L86,20a.487.487,0,0,1-.424-.542.481.481,0,0,1,.542-.422l7.723.952a.486.486,0,0,1-.059.968" transform="translate(77.759 17.292)" fill="#2b1011"/>
              <path id="Trazado_658205" data-name="Trazado 658205" d="M85.319,23.557a.488.488,0,0,1-.473-.374L82.862,14.8a.487.487,0,1,1,.947-.225l1.983,8.381a.489.489,0,0,1-.361.586.454.454,0,0,1-.113.013" transform="translate(75.285 12.907)" fill="#9ba4db"/>
              <path id="Trazado_658206" data-name="Trazado 658206" d="M81.776,23.434a.487.487,0,0,1-.473-.38l-1.59-7.028a.485.485,0,1,1,.947-.214l1.59,7.028a.488.488,0,0,1-.365.582.541.541,0,0,1-.109.011" transform="translate(72.424 14.026)" fill="#9ba4db"/>
              <path id="Trazado_658207" data-name="Trazado 658207" d="M71.155,21.3a.484.484,0,0,1-.485-.477L70.5,11.917a.486.486,0,0,1,.477-.494h.01a.485.485,0,0,1,.485.477l.166,8.906a.484.484,0,0,1-.475.494Z" transform="translate(64.065 10.38)" fill="#9ba4db"/>
              <path id="Trazado_658208" data-name="Trazado 658208" d="M69.326,19.71a.485.485,0,0,1-.481-.429l-.708-6.117a.486.486,0,1,1,.966-.111l.706,6.115a.487.487,0,0,1-.426.54l-.057,0" transform="translate(61.913 11.47)" fill="#9ba4db"/>
              <g id="Grupo_996005" data-name="Grupo 996005" transform="translate(176.847 180.853)" opacity="0.5">
                <g id="Grupo_996004" data-name="Grupo 996004">
                  <g id="Grupo_996003" data-name="Grupo 996003" clip-path="url(#clip-path-11)">
                    <path id="Trazado_658209" data-name="Trazado 658209" d="M92.653,94.983l.036.017a1.641,1.641,0,0,0,.141-.248,1.125,1.125,0,0,0-.178.231" transform="translate(-92.653 -94.752)" fill="#202759"/>
                  </g>
                </g>
              </g>
              <path id="Trazado_658210" data-name="Trazado 658210" d="M70.224,98.7l-8.057,10.465c-2.63,4.255,1.792,12.3,1.792,12.3Z" transform="translate(55.733 89.687)"/>
              <path id="Trazado_658211" data-name="Trazado 658211" d="M73.577,101.918l-8.509,10.118.137-.2c-1.664,2.531.076,7.53,1.317,10.315a1.7,1.7,0,0,1-3.008,1.569c-2.342-4.352-4.863-9.713-2.163-14.548l7.6-10.813c2.369-3.212,7.129.431,4.621,3.558" transform="translate(54.69 88.246)" fill="#f29b8a"/>
              <path id="Trazado_658212" data-name="Trazado 658212" d="M74.3,101.525c-.79,1.386-5.825,9.767-6.419,10.935-.739,1.979-.191,4.22.353,6.43l1.372,8.568a1.991,1.991,0,0,1-3.909.752l-1.9-8.465a19.755,19.755,0,0,1-1.1-5.566c-.227-1.909.867-4.682,1.752-6.136l4.747-9.326c1.863-3.476,7.051-.645,5.112,2.808" transform="translate(56.938 88.263)" fill="#f29b8a"/>
              <path id="Trazado_658213" data-name="Trazado 658213" d="M77.185,101.136c-1.267,2.065-4.461,7.253-5.684,9.244-1.105,1.926-2.357,3.214-2.243,5.373a12.87,12.87,0,0,0,.63,3.117l1.783,7.068a1.548,1.548,0,0,1-2.962.88l-2.355-6.774c-1.08-2.42-1.787-5.783-.655-8.45,1.766-4.056,4.5-9.276,6.375-13.265,1.842-3.567,7.14-.676,5.112,2.808" transform="translate(59.177 87.868)" fill="#f29b8a"/>
              <path id="Trazado_658214" data-name="Trazado 658214" d="M78.252,100.3c-.924,1.462-5.489,8.685-6.3,9.973a4.416,4.416,0,0,0,.034,4.686l-.151-.174,3.075,3.543a1.463,1.463,0,0,1-2.084,2.046l-3.485-3.14a8.389,8.389,0,0,1-1.292-8.935l1.042-2.216L73.14,97.5c1.827-3.632,7.2-.7,5.112,2.808" transform="translate(61.158 87.08)" fill="#f29b8a"/>
              <path id="Trazado_658215" data-name="Trazado 658215" d="M61.009,85.219a.488.488,0,0,1-.458-.324c-4.905-13.846-16.7-21.471-16.823-21.545a.487.487,0,0,1,.523-.821c.12.078,12.2,7.885,17.217,22.042a.488.488,0,0,1-.458.649" transform="translate(39.53 56.751)" fill="#2b1011"/>
              <path id="Trazado_658216" data-name="Trazado 658216" d="M64.632,120.965a.488.488,0,0,1-.456-.317c-.09-.241-2.2-5.959-1.678-10.452s4.535-9.988,5.056-10.334a.486.486,0,0,1,.565.79c-.487.466-4.186,5.589-4.655,9.656-.492,4.26,1.6,9.942,1.624,10a.484.484,0,0,1-.286.624.479.479,0,0,1-.17.032" transform="translate(56.718 90.67)" fill="#96544a"/>
              <path id="Trazado_658217" data-name="Trazado 658217" d="M65.969,116.312a.489.489,0,0,1-.47-.359,17.61,17.61,0,0,1,2.657-14.544.487.487,0,0,1,.771.594,16.924,16.924,0,0,0-2.489,13.7.487.487,0,0,1-.342.6.5.5,0,0,1-.128.017" transform="translate(58.985 91.979)" fill="#96544a"/>
              <path id="Trazado_658218" data-name="Trazado 658218" d="M68.036,110.928a.488.488,0,0,1-.475-.382c-.828-3.745,1.687-9.028,1.794-9.251a.492.492,0,0,1,.649-.227.486.486,0,0,1,.227.649c-.025.052-2.476,5.205-1.72,8.62a.487.487,0,0,1-.475.592" transform="translate(61.241 91.799)" fill="#96544a"/>
            </g>
          </g>
        </g>
      </g>
    </g>
  </g>
</svg>
