<svg xmlns="http://www.w3.org/2000/svg" xmlns:xlink="http://www.w3.org/1999/xlink" width="295" height="289.794" viewBox="0 0 295 289.794">
  <defs>
    <clipPath id="clip-path">
      <rect id="Rectángulo_309891" data-name="Rectángulo 309891" width="236.173" height="295" fill="#eafff1"/>
    </clipPath>
    <clipPath id="clip-path-2">
      <rect id="Rectángulo_312941" data-name="Rectángulo 312941" width="295" height="289.794" fill="none"/>
    </clipPath>
    <clipPath id="clip-path-4">
      <rect id="Rectángulo_312928" data-name="Rectángulo 312928" width="20.638" height="61.069" fill="none"/>
    </clipPath>
    <clipPath id="clip-path-5">
      <rect id="Rectángulo_312929" data-name="Rectángulo 312929" width="44.283" height="15.964" fill="none"/>
    </clipPath>
    <clipPath id="clip-path-6">
      <rect id="Rectángulo_312930" data-name="Rectángulo 312930" width="8.253" height="23.171" fill="none"/>
    </clipPath>
    <clipPath id="clip-path-7">
      <rect id="Rectángulo_312933" data-name="Rectángulo 312933" width="13.765" height="15.224" fill="none"/>
    </clipPath>
    <clipPath id="clip-path-8">
      <rect id="Rectángulo_312934" data-name="Rectángulo 312934" width="20.396" height="13.406" fill="none"/>
    </clipPath>
    <clipPath id="clip-path-9">
      <rect id="Rectángulo_312935" data-name="Rectángulo 312935" width="18.771" height="7.446" fill="none"/>
    </clipPath>
    <clipPath id="clip-path-10">
      <rect id="Rectángulo_312936" data-name="Rectángulo 312936" width="7.002" height="3.968" fill="none"/>
    </clipPath>
    <clipPath id="clip-path-11">
      <rect id="Rectángulo_312937" data-name="Rectángulo 312937" width="12.515" height="29.172" fill="#d3a31b"/>
    </clipPath>
    <clipPath id="clip-path-12">
      <rect id="Rectángulo_312938" data-name="Rectángulo 312938" width="13.493" height="47.139" fill="none"/>
    </clipPath>
    <clipPath id="clip-path-13">
      <path id="Trazado_658665" data-name="Trazado 658665" d="M255.3,145.49l-15.087,6.327,2.584,12.913,20.269,7.817s13.472-2.49,13.988-2.7,2.835-21.611,2.319-22.577c-2.965-5.552-13.225-6.562-13.225-6.562Z" transform="translate(-240.21 -140.712)" fill="none"/>
    </clipPath>
  </defs>
  <g id="Grupo_996014" data-name="Grupo 996014" transform="translate(-915 -2688.791)">
    <g id="Grupo_995934" data-name="Grupo 995934" transform="translate(915 2951.774) rotate(-90)">
      <g id="Grupo_995683" data-name="Grupo 995683" clip-path="url(#clip-path)">
        <path id="Trazado_654602" data-name="Trazado 654602" d="M227.948,149.564s25.205,63.344-12.631,93.832-87.249-43.7-125,32.887C63.666,330.367-8.442,302.7.815,245.446,11.349,180.293,48.1,224.595,26.262,80.736,15.446,9.5,166.876-43.144,227.948,149.564" transform="translate(0 -10.39)" fill="#eafff1"/>
        <path id="Trazado_654603" data-name="Trazado 654603" d="M467.831,32.744s15.473,7.078,13.406,17.222-21.278,1.444-24.413-7.624,5.677-12.938,11.008-9.6" transform="translate(-294.8 -20.394)" fill="#eafff1"/>
        <path id="Trazado_654604" data-name="Trazado 654604" d="M400.521,5.375A7.4,7.4,0,0,1,411.033.807c3.29,1.648,6.462,4.438,5.5,8.93-1.861,8.691-10.706,4.08-14.545,1.032-1.628-1.293-1.837-3.992-1.466-5.394" transform="translate(-258.737 0)" fill="#eafff1"/>
        <path id="Trazado_654605" data-name="Trazado 654605" d="M532.092,691.575s15.1-5.7,20.474,1.724-13.027,14.58-20.811,11.194-5.029-11.444.337-12.917" transform="translate(-340.528 -445.584)" fill="#eafff1"/>
        <path id="Trazado_654606" data-name="Trazado 654606" d="M615.191,662.856a6.545,6.545,0,0,0-3.805,9.4c1.531,2.873,4.07,5.616,8.021,4.664,7.645-1.841,7.235-9.961,1.358-13.271a9,9,0,0,0-5.574-.792" transform="translate(-394.599 -428.271)" fill="#eafff1"/>
      </g>
    </g>
    <g id="Grupo_996087" data-name="Grupo 996087" transform="translate(915 2688.791)">
      <g id="Grupo_996086" data-name="Grupo 996086" clip-path="url(#clip-path-2)">
        <g id="Grupo_996081" data-name="Grupo 996081">
          <g id="Grupo_996080" data-name="Grupo 996080" clip-path="url(#clip-path-2)">
            <path id="Trazado_658441" data-name="Trazado 658441" d="M59.91,262.722a.249.249,0,0,1-.241-.191c-3.813-16-18.122-36.856-19.1-37.621a.248.248,0,0,1,.306-.389c1.414,1.1,15.569,22.339,19.278,37.9a.248.248,0,0,1-.184.3.288.288,0,0,1-.057.007" transform="translate(-1.07 -5.932)" fill="#2b1011"/>
            <path id="Trazado_658442" data-name="Trazado 658442" d="M68.469,291.53a.248.248,0,0,1-.1-.475l3.356-1.481a.248.248,0,0,1,.2.454l-3.356,1.481a.24.24,0,0,1-.1.021" transform="translate(-1.803 -7.651)" fill="#fff"/>
            <path id="Trazado_658443" data-name="Trazado 658443" d="M65.6,290.008a.248.248,0,0,1-.1-.475l3.356-1.481a.247.247,0,0,1,.327.127.249.249,0,0,1-.128.327l-3.355,1.48a.234.234,0,0,1-.1.022" transform="translate(-1.727 -7.611)" fill="#fff"/>
            <path id="Trazado_658444" data-name="Trazado 658444" d="M44.683,288.417c.338-.1.668-.207,1-.307L59.287,259l2.615-5.36.031-.055.491-1.012.054-.092v-.008l.4-.821.061-.123.107-.222.168-.338.016-.038.338-.69.022-.047.253-.521.43-.874,11.313-23.148,2.769-5.668.206-.415.239-.491-.683-.338-.3.614-1.335,2.722-.283.591-1,2.041L64.272,247.058l-1.044,2.132-.314.645-.13.261-.153.314-.108.223-.038.076v.008l-.054.115-.245.492-.061.137-.162.314v.008l-.6,1.212-.245.514-1.833,3.742Z" transform="translate(-1.181 -5.78)" fill="#abd6f2"/>
            <path id="Trazado_658445" data-name="Trazado 658445" d="M28.58,266.839l53.727-24.486-.308-.7L28.273,266.136Z" transform="translate(-0.747 -6.386)" fill="#abd6f2"/>
            <path id="Trazado_658446" data-name="Trazado 658446" d="M51.506,211.905l.215.8.084.292.53,1.933,1.887,6.887,1.994,7.248,1.212,4.441,1.181,4.294.23.836.629,2.3,2.125,7.755.276,1,.023.092.085.314.137.491.047.162.092.329.054.2.061.223.239.889.022.069.284,1.028L70.9,280.8l.023.076c.245-.084.483-.168.729-.253l-7.2-24.419-.859-3.137-.422-1.542-.055-.184-.046-.161-.138-.5-.008-.039-.03-.1-.023-.108-.061-.214-.092-.346-.215-.766-.077-.284-2.953-10.777-.008-.015-.222-.821L58.171,233.3l-1.22-4.441-1.986-7.233-2.385-8.689-.138-.522-.2-.721-.283.077Z" transform="translate(-1.361 -5.594)" fill="#abd6f2"/>
            <path id="Trazado_658447" data-name="Trazado 658447" d="M30.534,236.5l.161.077.077.038,6.174,3.014,4.618,2.255,1.381.676,4.44,2.17.729.352,1.787.875.744.36,3.989,1.948,3.628,1.772.652.322,1.472.72.453.223.46.222.4.192.115.061.391.184.054.031.245.115.115.061,1.05.514.231.107,16.59,7.81c.322-.123.652-.245.974-.376L63.9,251.942l-.047-.022-.728-.36-.284-.138-.123-.061-.329-.162-.047-.015-.123-.069-.069-.031-.728-.352-.283-.138-.545-.269-1.679-.821-1.641-.8-6.028-2.945-.744-.368-2.286-1.121-.728-.352-5.407-2.638-1.388-.682-2.624-1.281-6.25-3.052-.775-.376-.168-.085Z" transform="translate(-0.807 -6.231)" fill="#abd6f2"/>
            <path id="Trazado_658448" data-name="Trazado 658448" d="M41.252,289.491a24.043,24.043,0,0,1-3.6-.272C20.766,286.651,9.8,266.327,13.206,243.914s19.916-38.552,36.809-35.993,27.855,22.894,24.447,45.306c-1.644,10.818-6.354,20.516-13.258,27.309-5.949,5.852-12.92,8.955-19.952,8.955M14.724,244.144h0c-3.281,21.577,7.109,41.118,23.16,43.558,7.73,1.175,15.634-1.756,22.245-8.259C66.8,272.882,71.351,263.49,72.946,253c3.281-21.577-7.109-41.119-23.16-43.559s-31.779,13.13-35.061,34.705" transform="translate(-0.333 -5.487)" fill="#2b1011"/>
            <path id="Trazado_658449" data-name="Trazado 658449" d="M45.876,258.473l-3.934,31.562c.26-.069.529-.138.8-.2L46.7,258.121l.107-.89.805-6.465.13-1.051.123-1.013.023-.13.031-.245.046-.384.1-.8.054-.422.3-2.424.1-.805,1-8.022.614-4.94,1.019-8.184.936-7.562.246-1.987.076-.6.215-1.695.307-2.516.2-1.58-.759-.092-.215,1.734-.337,2.73-.108.852-.107.874-.046.345-1.2,9.679-1.02,8.215-.621,4.947-.92,7.448-.1.805-.46,3.666-.031.238-.008.1-.016.1-.069.56-.015.146-.047.376-.03.245-1.028,8.214Z" transform="translate(-1.108 -5.452)" fill="#abd6f2"/>
            <path id="Trazado_658450" data-name="Trazado 658450" d="M21.34,271.259c.461-.069.422.077.873,0l5.471-4.456.682-.629.6-.552.967-.89,16.522-15.225.046-.039.184-.168L47,249l.245-.223.123-.115.368-.345,1.473-1.358,1.189-1.088.6-.553,7.041-6.489.629-.574.008-.008,4.978-4.587,10.577-9.741,1.349-1.243,2.861-3.028-2.577,2.438,2.055-3.005-4.034,4.1L63.655,232.61,58.67,237.2l-.222.207-.637.583-7.555,6.956-.6.56-1.443,1.319-.7.652-.706.652-.077.061-.092.092-.4.368-.245.223L28.75,264.77l-1.3,1.2Z" transform="translate(-0.564 -5.789)" fill="#abd6f2"/>
            <path id="Trazado_658451" data-name="Trazado 658451" d="M28.21,222.023,29.9,224.5l1.9,2.783.759,1.121.989,1.442,3.184,4.67,2.745,4.027,1.151,1.679L41.5,241.5l4.533,6.65.39.568.185.277.054.085.061.077.137.205.514.753.967,1.419,2.761,4.048.445.645,18.782,23.537c.253-.076.08-.7.333-.776l-18.4-23.069-.445-.644-2.432-3.566v-.008l-1.764-2.585-.1-.145-.092-.131-.383-.568-.055-.076-.054-.077-.077-.107-3.98-5.837-.866-1.273-1.765-2.577L37.513,234.3,33.955,229.1l-.975-1.427-.391-.575-2.247-3.3-1.5-2.2Z" transform="translate(-0.745 -5.856)" fill="#abd6f2"/>
            <path id="Trazado_658452" data-name="Trazado 658452" d="M19.663,246.318h.008l2.531.314,4.18.514,1.542.192,18.032,2.239.429.054.069.008.061.008.445.054.314.039.123.015,11.229,1.4,1.472.184.506.061.668.085.337.038.162.023.314.038h.007l.338.039.138.022.53.061.491.062h.022L77.5,253.489l2.577.322H80.1V253.8l.1-.752-2.585-.322L64.47,251.1l-.86-.107-.145-.016-.484-.061-.054-.008-.72-.085-.085-.015-.245-.031-.829-.1-.085-.008-.659-.085-1.679-.207-.652-.084L47.7,249.017l-.322-.038-.552-.069-.13-.016h-.03l-.054-.008-.8-.1-17.778-2.2-1.541-.192-4.181-.514-2.593-.322Z" transform="translate(-0.52 -6.489)" fill="#abd6f2"/>
            <path id="Trazado_658453" data-name="Trazado 658453" d="M48.2,252.1a.4.4,0,0,0,.091.028l14.044,2.332.759-4.559L48.951,247.56v.023c-.776,0-1.529.844-1.754,1.992-.229,1.209.217,2.309,1,2.529" transform="translate(-1.246 -6.542)" fill="#2b1011"/>
            <path id="Trazado_658454" data-name="Trazado 658454" d="M46.567,294.789a24.633,24.633,0,0,1-3.718-.281c-9-1.369-16.636-7.57-21.5-17.465-4.682-9.525-6.249-21.422-4.412-33.5,3.854-25.345,21.75-43.722,39.891-40.963,9,1.369,16.636,7.571,21.5,17.466,4.682,9.524,6.249,21.422,4.412,33.5s-6.87,22.975-14.171,30.677c-6.541,6.9-14.236,10.566-22,10.566m6.556-86.356c-13.824,0-26.986,15.408-30.12,36.029-1.651,10.854-.283,21.463,3.852,29.873,3.952,8.039,9.96,13.049,16.917,14.107S57.953,286.5,64.117,280c6.447-6.8,10.907-16.524,12.558-27.378s.281-21.463-3.853-29.874C68.87,214.71,62.862,209.7,55.9,208.643a18.491,18.491,0,0,0-2.782-.21" transform="translate(-0.428 -5.346)" fill="#abd6f2"/>
            <path id="Trazado_658455" data-name="Trazado 658455" d="M61.588,251.966c-.237,1.251.254,2.394,1.1,2.553s1.713-.726,1.95-1.977-.254-2.395-1.1-2.554-1.713.727-1.95,1.978" transform="translate(-1.626 -6.605)" fill="#5785a3"/>
            <path id="Trazado_658456" data-name="Trazado 658456" d="M27.23,271.8l46.539-10.3c3.752-.888,4.821.842,5,1.2l4.217-1.842c-.83-1.972-4.038-5.317-10.243-3.842l-46.5,10.287Z" transform="translate(-0.693 -6.782)" fill="#345170"/>
            <path id="Trazado_658457" data-name="Trazado 658457" d="M81.462,227.811l3.352,2.263,2,1.357,1.833,1.235.13.092,3.888,2.624.736.5.675.46,5.361,3.621,5.039,3.413,3,2.024,27.147,17.736c1.373-.3,2.738-.607,4.1-.937l-27.936-18.263-3-2.025L99.3,236.163l-5.024-3.39-.621-.422-6.052-4.088-2.047-1.381-.744-.506-1.634-1.1Z" transform="translate(-2.153 -5.953)" fill="#5785a3"/>
            <path id="Trazado_658458" data-name="Trazado 658458" d="M51.147,264.192l.085.038a5.47,5.47,0,0,0,4.324.057c15.047-6.227,103.687-42.93,105.316-44.01l.008-.008c.107-.069.206-.138.291-.2.675-.491.736-.752.805-1.066l-.329-1.381-1.166.989-1.527-.107a1.406,1.406,0,0,1,.368-.836c-.358.264-86.595,34.246-108.1,42.763a2.039,2.039,0,0,0-.07,3.76" transform="translate(-1.319 -5.751)" fill="#5785a3"/>
            <rect id="Rectángulo_312927" data-name="Rectángulo 312927" width="54.961" height="4.602" transform="translate(24.78 236.984) rotate(-15.393)" fill="#345170"/>
            <path id="Trazado_658459" data-name="Trazado 658459" d="M79.784,181.715v78.151a2.455,2.455,0,0,0,2.361,2.453l.074,0a2.455,2.455,0,0,0,2.551-2.453V181.715Z" transform="translate(-2.108 -4.802)" fill="#5785a3"/>
            <path id="Trazado_658460" data-name="Trazado 658460" d="M73.786,221.259,87.763,193.3,94.1,156.2a15.473,15.473,0,0,1,14.66-10.522h60.3v0h5.179a1.637,1.637,0,0,1,1.638,1.638h0a1.851,1.851,0,0,1-1.851,1.851A7.2,7.2,0,0,0,167,154.779l-12.169,63.432Z" transform="translate(-1.95 -3.849)" fill="#2b1011"/>
            <path id="Trazado_658461" data-name="Trazado 658461" d="M26.655,232.412l42.323-9.7a18.53,18.53,0,0,0,14.39-18.062V192.834l-56.714,9.2Z" transform="translate(-0.704 -5.096)" fill="#5785a3"/>
            <path id="Trazado_658462" data-name="Trazado 658462" d="M24.433,190.128v77.5a2.456,2.456,0,0,0,2.436,2.455h.074a2.454,2.454,0,0,0,2.476-2.454V190.128Z" transform="translate(-0.646 -5.024)" fill="#345170"/>
            <path id="Trazado_658463" data-name="Trazado 658463" d="M31.008,192.03l55.5-6.548-.061-5.165-55.577,6.025Z" transform="translate(-0.816 -4.765)" fill="#345170"/>
            <path id="Trazado_658464" data-name="Trazado 658464" d="M30.546,186.342l55.577-6.025H75.7L18.634,186.34Z" transform="translate(-0.492 -4.765)" fill="#345170"/>
            <path id="Trazado_658465" data-name="Trazado 658465" d="M18.634,186.5l.14,5.669,11.911.021-.139-5.689Z" transform="translate(-0.492 -4.928)" fill="#345170"/>
            <path id="Trazado_658466" data-name="Trazado 658466" d="M29.553,232.487l80.217.189,51.4-12.539H83.445Z" transform="translate(-0.781 -5.817)" fill="#2b1011"/>
            <path id="Trazado_658467" data-name="Trazado 658467" d="M22.116,297a7.048,7.048,0,0,1-1.067-.081,8.081,8.081,0,0,1-5.962-4.772,15.518,15.518,0,0,1,2.506-16.487,8.083,8.083,0,0,1,7.113-2.784c5.013.762,8.138,6.64,7.114,13.381a14.69,14.69,0,0,1-3.658,7.878A8.366,8.366,0,0,1,22.116,297m-4.388-12.885a11,11,0,0,0,.8,6.34,4.536,4.536,0,0,0,3.1,2.673,4.527,4.527,0,0,0,3.752-1.632,10.978,10.978,0,0,0,2.649-5.816c.678-4.462-1.107-8.589-3.9-9.012a4.533,4.533,0,0,0-3.753,1.631,11,11,0,0,0-2.648,5.816" transform="translate(-0.363 -7.209)" fill="#2b1011"/>
            <path id="Trazado_658468" data-name="Trazado 658468" d="M20.686,284.775c-.286,1.884.544,3.572,1.855,3.772s2.605-1.166,2.892-3.05-.544-3.572-1.855-3.772-2.605,1.166-2.892,3.05" transform="translate(-0.545 -7.444)" fill="#2b1011"/>
            <path id="Trazado_658469" data-name="Trazado 658469" d="M6.153,282.024l8.187-36.893a11.7,11.7,0,0,1,11.832-9.146l.224-6.131A17.789,17.789,0,0,0,8.35,243.8L.163,280.7Z" transform="translate(-0.004 -6.074)" fill="#345170"/>
            <path id="Trazado_658470" data-name="Trazado 658470" d="M1.342,280.912H84.824a1.342,1.342,0,0,1,0,2.684H1.342a1.342,1.342,0,0,1,0-2.684" transform="translate(0 -7.423)" fill="#2b1011"/>
            <path id="Trazado_658471" data-name="Trazado 658471" d="M23.741,276.987l2.281,2.029,21.79,1.492.013-5.676.3-9.273h-10s-.217,7.8-3.577,8.931a67.471,67.471,0,0,1-10.812,2.5" transform="translate(-0.627 -7.017)" fill="#fc9e87"/>
            <path id="Trazado_658472" data-name="Trazado 658472" d="M19.505,280.758H47.659l.013-5.676c-1.165.609-3.921,1.14-9.2,2.161-7.525,1.456-13.7.483-14.277-.12-4.535.8-8.51,3.634-4.687,3.634" transform="translate(-0.475 -7.269)" fill="#195452"/>
            <path id="Trazado_658473" data-name="Trazado 658473" d="M64.165,219.47l-4.013,18.212-6.686,30.379c-.237.78-4.99.04-11.093-1.656-.887-.246-1.794-.513-2.731-.8-7.366-2.249-13.124-4.782-12.848-5.67l20.6-63.224,13.046,4.21c5.581,2.426,5.433,9.969,3.727,18.548" transform="translate(-0.708 -5.198)" fill="#fadbaf"/>
            <path id="Trazado_658474" data-name="Trazado 658474" d="M121.935,102.362a5.155,5.155,0,0,0,2.777,4.55,5.4,5.4,0,0,0,2.493.608,5.243,5.243,0,0,0,2.827-.811,5.106,5.106,0,0,0,2.442-4.347,5.271,5.271,0,0,0-10.539,0" transform="translate(-3.222 -2.569)" fill="#ffd9ab"/>
            <path id="Trazado_658475" data-name="Trazado 658475" d="M108.39,127.194c.113,5.726-13.314,4.607-12.156,14.236.773,6.43,15.329,7.592,26.1,7.155,5.738-.234,23.092-2.355,14.593-16.783a85.324,85.324,0,0,1-6.445-12.607,66.423,66.423,0,0,1-3.207-11.977c-5.743,0-19.119,8.065-18.883,19.977" transform="translate(-2.541 -2.833)" fill="#ffd9ab"/>
            <path id="Trazado_658476" data-name="Trazado 658476" d="M106.592,136.251l-8.805,28.466-.237.789-.868,2.82-.364,1.173a38.468,38.468,0,0,1-1.617,4.23,13.435,13.435,0,0,1-2.426,3.7,9.119,9.119,0,0,1-2.9,1.972,9.377,9.377,0,0,1-2.82.838,11.673,11.673,0,0,1-2.021.147,12.606,12.606,0,0,1-1.726-.137,6.253,6.253,0,0,1-2.386-.8,5.77,5.77,0,0,1-1.971-2.05,5.01,5.01,0,0,1-.325-4.112l1.508-4.259,3-8.46.858-2.465,5.6-15.806c1.292-3.658,5.206-6.2,9.672-6.32h.079l.967-.019c2.455.069,4.694.167,6.784.3" transform="translate(-2.057 -3.593)" fill="#f46464"/>
            <path id="Trazado_658477" data-name="Trazado 658477" d="M97.8,185.595c1.753.577,5.284,1.714,14.313,1.593a78.97,78.97,0,0,0,16.508-1.662,32.7,32.7,0,0,1-.963-6.06l-28.926.748a47.549,47.549,0,0,1-.933,5.381" transform="translate(-2.584 -4.742)" fill="#fc9e87"/>
            <path id="Trazado_658478" data-name="Trazado 658478" d="M124.412,99.255l.365,7.712a5.39,5.39,0,0,0,2.492.608,5.24,5.24,0,0,0,2.827-.811,7.762,7.762,0,0,0-5.685-7.509" transform="translate(-3.288 -2.623)" fill="#2b1011"/>
            <path id="Trazado_658479" data-name="Trazado 658479" d="M128.365,119.371l-7.866,2.17-13.162,3.631L104.843,113.8c-5.463-5.525-3.678-10.918,4.818-15.607,4.471-2.468,16.206-2.92,17.639,7.773.394,2.939,1.307,13.34,1.064,13.407" transform="translate(-2.688 -2.556)" fill="#ffd9ab"/>
            <path id="Trazado_658480" data-name="Trazado 658480" d="M123,102.722a.248.248,0,0,1-.221-.135c-1.826-3.575-6.166-5.336-9.319-5.165a.263.263,0,0,1-.26-.236.248.248,0,0,1,.236-.26c3.3-.165,7.864,1.675,9.785,5.434a.248.248,0,0,1-.221.361" transform="translate(-2.991 -2.561)" fill="#c2732d"/>
            <path id="Trazado_658481" data-name="Trazado 658481" d="M116.916,102.046a.245.245,0,0,1-.193-.092c-2.185-2.725-5.484-2.953-8.4-2.953a.248.248,0,1,1,0-.5c3.036,0,6.468.242,8.789,3.139a.247.247,0,0,1-.193.4" transform="translate(-2.856 -2.603)" fill="#c2732d"/>
            <path id="Trazado_658482" data-name="Trazado 658482" d="M132.543,138.8a.253.253,0,0,1-.079-.014.247.247,0,0,1-.156-.313c1.139-3.409-.97-6.33-3.2-9.421a29.81,29.81,0,0,1-2.981-4.719c-1.883-4.051-1.6-10.6-1.474-13.4.023-.539.046-1.05.029-1.146a.238.238,0,0,1,.146-.31.259.259,0,0,1,.323.155,5.122,5.122,0,0,1,0,1.323c-.121,2.761-.4,9.226,1.428,13.168a29.407,29.407,0,0,0,2.934,4.637c2.308,3.2,4.489,6.218,3.269,9.87a.246.246,0,0,1-.235.169" transform="translate(-3.292 -2.892)" fill="#c2732d"/>
            <path id="Trazado_658483" data-name="Trazado 658483" d="M140.122,139.713H140.1a.249.249,0,0,1-.225-.27c.328-3.467-2.459-6.507-5.155-9.448-2.154-2.349-4.187-4.567-4.7-6.974a.248.248,0,1,1,.485-.1c.486,2.274,2.476,4.444,4.582,6.742,2.769,3.02,5.631,6.142,5.285,9.827a.249.249,0,0,1-.247.226" transform="translate(-3.436 -3.243)" fill="#c2732d"/>
            <path id="Trazado_658484" data-name="Trazado 658484" d="M134.923,137.773c-1.065,6.853-1.2,13.3-2.09,20.963q-.075.621-.148,1.242s-.039.3-.108.858c-.119,1-.326,2.79-.572,5.176-.01.138-.029.286-.039.474-.188,1.952-.385,4.259-.572,6.823-.128,1.7-.237,3.5-.335,5.374A31.69,31.69,0,0,1,127,179.818c-.739.158-1.548.295-2.425.423a64.664,64.664,0,0,1-9.5.611c-2.811,0-5.472-.089-7.9-.256a41.417,41.417,0,0,1-10.2-1.638c.65-12.236-1.036-27.273-1.567-41.836a17.766,17.766,0,0,1,6.389-1.943l.711-.058c8.45-.75,17.314-.809,25.272.729a46.63,46.63,0,0,1,7.129,1.923" transform="translate(-2.522 -3.557)" fill="#f46464"/>
            <path id="Trazado_658485" data-name="Trazado 658485" d="M109.709,104.26s-1.263-.212-3.395-.5-.841,2.735-1.345,4.967,3.652-.922,3.652-.922Z" transform="translate(-2.773 -2.741)" fill="#2b1011"/>
            <path id="Trazado_658486" data-name="Trazado 658486" d="M108.726,119.968v16.366a7.82,7.82,0,0,0,1.246,3.923,22.261,22.261,0,0,0,5.624.7,22.7,22.7,0,0,0,4.328-.406,9.506,9.506,0,0,0,2.108-5.968V119.968Z" transform="translate(-2.873 -3.17)" fill="#fc9e87"/>
            <path id="Trazado_658487" data-name="Trazado 658487" d="M117.2,128.487s-3.682,4.158-8.475,3.707v-6.349Z" transform="translate(-2.873 -3.325)" fill="#2b1011"/>
            <path id="Trazado_658488" data-name="Trazado 658488" d="M121.922,115.279v5.86a8.117,8.117,0,0,1-8.342,7.871h-.394a8.283,8.283,0,0,1-8.513-8.033v-4.471s.159-4,.159-6.219c0-5.007,2.56-5.516,3.481-5.837.851-.3,8.681-.77,10.8,2.089,1.871,2.523,2.121,9.339,2.121,9.339Z" transform="translate(-2.766 -2.754)" fill="#fc9e87"/>
            <path id="Trazado_658489" data-name="Trazado 658489" d="M103.328,175.843c3.3-3.3,5.309-16.341,2.448-19.2s-7.857-2.508-11.155.792-3.653,8.293-.792,11.154,6.2,10.555,9.5,7.257" transform="translate(-2.428 -4.088)" fill="#f46464"/>
            <path id="Trazado_658490" data-name="Trazado 658490" d="M124.339,168.684c3.3-3.3,3.653-8.293.792-11.155s-7.856-2.507-11.155.792-3.653,8.293-.792,11.155,7.857,2.507,11.155-.792" transform="translate(-2.94 -4.112)" fill="#f46464"/>
            <path id="Trazado_658491" data-name="Trazado 658491" d="M118.029,171.861a7.009,7.009,0,0,1-5.027-2,7.205,7.205,0,0,1-1.926-6.182.248.248,0,1,1,.491.068,6.722,6.722,0,0,0,1.785,5.765c2.762,2.759,7.608,2.406,10.806-.791a.247.247,0,0,1,.35.35,9.263,9.263,0,0,1-6.478,2.794" transform="translate(-2.933 -4.319)" fill="#2b1011"/>
            <path id="Trazado_658492" data-name="Trazado 658492" d="M124.847,118.523c-.947,1.442-2.637,2-3.774,1.258s-1.289-2.521-.342-3.962,2.637-2.006,3.774-1.259,1.29,2.522.342,3.963" transform="translate(-3.174 -3.019)" fill="#fc9e87"/>
            <path id="Trazado_658493" data-name="Trazado 658493" d="M107.643,115.483c0,.647-.382,1.171-.853,1.171s-.853-.524-.853-1.171.383-1.172.853-1.172.853.525.853,1.172" transform="translate(-2.799 -3.021)" fill="#2b1011"/>
            <path id="Trazado_658494" data-name="Trazado 658494" d="M115.382,115.718c0,.647-.382,1.171-.853,1.171s-.853-.524-.853-1.171.382-1.171.853-1.171.853.524.853,1.171" transform="translate(-3.004 -3.027)" fill="#2b1011"/>
            <path id="Trazado_658495" data-name="Trazado 658495" d="M111.715,120.431a.209.209,0,0,1-.042,0l-1.159-.2a1.347,1.347,0,0,1-1.091-1.609,16.2,16.2,0,0,0,.345-2.34.241.241,0,0,1,.261-.235.248.248,0,0,1,.234.262,16.871,16.871,0,0,1-.353,2.415.849.849,0,0,0,.689,1.017l1.159.2a.248.248,0,0,1-.042.493" transform="translate(-2.891 -3.067)" fill="#c2732d"/>
            <g id="Grupo_996055" data-name="Grupo 996055" transform="translate(41.667 202.105)" opacity="0.5">
              <g id="Grupo_996054" data-name="Grupo 996054">
                <g id="Grupo_996053" data-name="Grupo 996053" clip-path="url(#clip-path-4)">
                  <path id="Trazado_658496" data-name="Trazado 658496" d="M63.435,207.59l-2.859,30.379L53.89,268.349c-.237.779-4.989.04-11.093-1.656,5.926-10.847,20.638-59.1,20.638-59.1" transform="translate(-42.797 -207.59)" fill="#b88c4f"/>
                </g>
              </g>
            </g>
            <path id="Trazado_658497" data-name="Trazado 658497" d="M113.745,110.686c2-.46,5.419.249,5.586,2.7a.154.154,0,0,1-.162.146,8.266,8.266,0,0,0-3.909-1.56l-1.5-.289a.515.515,0,0,1-.02-1" transform="translate(-2.996 -2.921)" fill="#c2732d"/>
            <path id="Trazado_658498" data-name="Trazado 658498" d="M108.719,111.461c.054.02.015.02-.032.029-.075.013-.3.047-.379.061-.325.047-1.195.192-1.529.25a9.6,9.6,0,0,0-1.728.464.582.582,0,0,1-.859-.224.552.552,0,0,1,.075-.571c1.048-1.124,2.593-1.132,3.995-1.113a6.785,6.785,0,0,1,.675.083.522.522,0,0,1-.217,1.02" transform="translate(-2.752 -2.916)" fill="#c2732d"/>
            <path id="Trazado_658499" data-name="Trazado 658499" d="M111.777,123.173c-1.713,0-2.126-.747-2.167-.831a.248.248,0,0,1,.444-.222c.011.02.344.558,1.723.558h.015a3.055,3.055,0,0,0,2.486-1.468.248.248,0,0,1,.434.241,3.525,3.525,0,0,1-2.918,1.722Z" transform="translate(-2.896 -3.2)" fill="#e46451"/>
            <path id="Trazado_658500" data-name="Trazado 658500" d="M96.9,179.567a.248.248,0,0,1-.244-.208,19.838,19.838,0,0,1,.116-3.309c.01-.115.019-.207.019-.3a7.936,7.936,0,0,0-.91-3.922,11.662,11.662,0,0,0-2.325-3.047l-.072-.069a2.707,2.707,0,0,1-.218-.232,6.708,6.708,0,0,1-1.539-2.532,5.017,5.017,0,0,1-.22-1c-.011-.189-.011-.361-.011-.523a10.238,10.238,0,0,1,2.224-5.7,5.718,5.718,0,0,0,1.306-2.8.248.248,0,1,1,.5,0,6,6,0,0,1-1.392,3.081,9.7,9.7,0,0,0-2.137,5.432c0,.151,0,.313.009.486a4.671,4.671,0,0,0,.2.886,6.272,6.272,0,0,0,1.441,2.358,2.166,2.166,0,0,0,.191.2l.071.071a12.142,12.142,0,0,1,2.422,3.176,8.422,8.422,0,0,1,.964,4.15,3.165,3.165,0,0,1-.019.316,20.59,20.59,0,0,0-.123,3.21.247.247,0,0,1-.2.284.186.186,0,0,1-.04,0" transform="translate(-2.418 -4.113)" fill="#2b1011"/>
            <path id="Trazado_658501" data-name="Trazado 658501" d="M106.692,198.253h-.009a.25.25,0,0,1-.24-.257c.134-3.952.306-9.982.228-10.393a.25.25,0,0,1,.193-.292.241.241,0,0,1,.291.185c.116.521-.16,8.853-.215,10.518a.248.248,0,0,1-.248.24" transform="translate(-2.813 -4.95)" fill="#2b1011"/>
            <path id="Trazado_658502" data-name="Trazado 658502" d="M102.71,135.12c.416,2.432,3.192,4.5,7.1,5.523a22.25,22.25,0,0,0,5.624.7,22.781,22.781,0,0,0,4.327-.4c4.155-.791,7.327-2.716,8.219-5.088-7.955-1.54-16.822-1.479-25.274-.729" transform="translate(-2.714 -3.557)" fill="#fc9e87"/>
            <path id="Trazado_658503" data-name="Trazado 658503" d="M47.56,197.979l-1.043,6.557,32.813,15.89,10.38-21.731-28.689-6.368a29.447,29.447,0,0,0-6.5-.785c-3.5.11-6.281,2.221-6.96,6.437" transform="translate(-1.229 -5.061)" fill="#fadbaf"/>
            <path id="Trazado_658504" data-name="Trazado 658504" d="M48.787,276.987l2.281,2.029,21.79,1.492.013-5.676.3-9.273h-10s-.217,7.8-3.577,8.931a67.471,67.471,0,0,1-10.812,2.5" transform="translate(-1.289 -7.017)" fill="#fc9e87"/>
            <path id="Trazado_658505" data-name="Trazado 658505" d="M44.552,280.758H72.706l.013-5.676c-1.165.609-3.921,1.14-9.2,2.161-7.525,1.456-13.7.483-14.277-.12-4.535.8-8.51,3.634-4.687,3.634" transform="translate(-1.137 -7.269)" fill="#195452"/>
            <path id="Trazado_658506" data-name="Trazado 658506" d="M125.272,223.646a16.866,16.866,0,0,1-5.788,1.075l-9.419.067a50.843,50.843,0,0,1-9.188-1.467l-18.941-5.532-10.955-3.194-4.546-14.83c1.124-3.294,2.7-5.807,6.142-6.429a8.811,8.811,0,0,1,4.655.365l15.579,4.437a107.52,107.52,0,0,0,4.161-12.374c1.755.572,5.285,1.715,14.307,1.6a79.414,79.414,0,0,0,16.507-1.666c1.706,6.99,5.067,13.814,5.669,23.753.523,8.8-3.954,12.611-8.184,14.2" transform="translate(-1.756 -4.907)" fill="#fadbaf"/>
            <path id="Trazado_658507" data-name="Trazado 658507" d="M65.82,201.649c-4.74,10.291-13.264,62.726-13.264,62.726-.247.9,5.445,3.957,14.286,5.927,7.514,1.675,14.1,2.376,14.343,1.478a.277.277,0,0,0,0-.086l3.42-51.835a15.774,15.774,0,0,0-11.549-16.224s-6.456-3.692-7.241-1.987" transform="translate(-1.389 -5.317)" fill="#fadbaf"/>
            <path id="Trazado_658508" data-name="Trazado 658508" d="M52.55,264.411a.182.182,0,0,1-.039,0,.246.246,0,0,1-.205-.283c.41-2.555,10.111-62.617,15.4-68.684,3.2-3.666,8.844-1.907,9.216-1.786,1.009.175,13.534,3.511,16.089,4.192,14.067,4.374,17.445,7.251,17.582,7.371a.247.247,0,0,1,.023.35.25.25,0,0,1-.35.023c-.033-.028-3.48-2.941-17.392-7.268-6.194-1.651-15.586-4.131-16.031-4.181a.346.346,0,0,1-.063-.013c-.055-.019-5.633-1.882-8.7,1.636-5.194,5.959-15.182,67.813-15.282,68.436a.247.247,0,0,1-.244.209" transform="translate(-1.382 -5.103)" fill="#2b1011"/>
            <path id="Trazado_658509" data-name="Trazado 658509" d="M135.088,208.567a.249.249,0,0,1-.226-.146c-.018-.04-.049-.128-.094-.259-1.581-4.572-4.279-7.7-7.8-9.048a.249.249,0,0,1,.177-.464c3.666,1.4,6.464,4.635,8.093,9.351.038.109.063.183.078.217a.248.248,0,0,1-.124.327.259.259,0,0,1-.1.022" transform="translate(-3.351 -5.249)" fill="#2b1011"/>
            <path id="Trazado_658510" data-name="Trazado 658510" d="M124.147,196.006h-8.962a.249.249,0,0,1-.246-.223l-.524-5a.248.248,0,1,1,.493-.052l.5,4.776h8.447l-.887-5.435a.248.248,0,0,1,.489-.08l.935,5.723a.246.246,0,0,1-.055.2.248.248,0,0,1-.189.088" transform="translate(-3.023 -5.015)" fill="#2b1011"/>
            <path id="Trazado_658511" data-name="Trazado 658511" d="M98.755,195A.223.223,0,0,1,98.7,195l-3.594-.819a.246.246,0,0,1-.186-.3.24.24,0,0,1,.3-.187l3.382.77,1.676-4.552a.248.248,0,1,1,.465.17l-1.751,4.758a.249.249,0,0,1-.233.163" transform="translate(-2.508 -5.014)" fill="#2b1011"/>
            <path id="Trazado_658512" data-name="Trazado 658512" d="M111.043,190.971c-6.563,0-11.34-.6-14.211-1.777a.248.248,0,0,1,.189-.459c2.038.837,6.324,1.824,15.1,1.734a69.129,69.129,0,0,0,17.216-2c.042-.011.073-.019.1-.027a.249.249,0,0,1,.162.47c-.037.012-.088.025-.137.037a69.611,69.611,0,0,1-17.332,2.013q-.552,0-1.087,0" transform="translate(-2.555 -4.979)" fill="#2b1011"/>
            <path id="Trazado_658513" data-name="Trazado 658513" d="M82.607,261.952H82.59a.247.247,0,0,1-.231-.263c.009-.134.831-13.488-3.543-23.028a.248.248,0,0,1,.451-.207c4.427,9.656,3.6,23.132,3.587,23.267a.249.249,0,0,1-.247.232" transform="translate(-2.082 -6.297)" fill="#2b1011"/>
            <path id="Trazado_658514" data-name="Trazado 658514" d="M37.61,228.373a.256.256,0,0,1-.119-.03.249.249,0,0,1-.1-.337,40.435,40.435,0,0,1,10.081-11.163.3.3,0,0,1,.214.026.245.245,0,0,1,.086.339.24.24,0,0,1-.178.119,40.939,40.939,0,0,0-9.767,10.917.249.249,0,0,1-.218.13" transform="translate(-0.987 -5.73)" fill="#2b1011"/>
            <path id="Trazado_658515" data-name="Trazado 658515" d="M110.891,150.989c-.314,0-10.019-4.162-13.147-6.866a.247.247,0,0,1,.323-.375c3.209,2.772,12.652,6.66,12.892,6.754a.248.248,0,0,1-.068.487" transform="translate(-2.581 -3.797)" fill="#2b1011"/>
            <path id="Trazado_658516" data-name="Trazado 658516" d="M112.485,158.349a.254.254,0,0,1-.079-.014c-7.424-2.48-14.7-9.21-14.779-9.277a.248.248,0,0,1,.339-.363c.071.067,7.276,6.724,14.6,9.171a.248.248,0,0,1-.079.483" transform="translate(-2.578 -3.928)" fill="#2b1011"/>
            <path id="Trazado_658517" data-name="Trazado 658517" d="M54.039,194.7a.248.248,0,0,1-.158-.057c-2.933-2.421-4.831-.251-4.911-.158a.248.248,0,1,1-.379-.321c.024-.025,2.305-2.626,5.6.1a.248.248,0,0,1-.158.439" transform="translate(-1.282 -5.101)" fill="#2b1011"/>
            <path id="Trazado_658518" data-name="Trazado 658518" d="M74.061,196.558a.248.248,0,0,1-.224-.141,3.124,3.124,0,0,0-3.74-1.695.248.248,0,1,1-.147-.473,3.661,3.661,0,0,1,4.334,1.954.248.248,0,0,1-.116.331.26.26,0,0,1-.107.024" transform="translate(-1.844 -5.129)" fill="#2b1011"/>
            <g id="Grupo_996058" data-name="Grupo 996058" transform="translate(81.749 203.919)" opacity="0.5">
              <g id="Grupo_996057" data-name="Grupo 996057">
                <g id="Grupo_996056" data-name="Grupo 996056" clip-path="url(#clip-path-5)">
                  <path id="Trazado_658519" data-name="Trazado 658519" d="M128.25,217.421l-2.515,6.853a16.867,16.867,0,0,1-5.788,1.075l-9.416.069a50.867,50.867,0,0,1-9.19-1.469l-16.181-4.724a69.3,69.3,0,0,0-1.193-9.771c2.09,2.524,7.809,7.651,20.894,9.722,17.245,2.721,23.122-1.548,23.388-1.755" transform="translate(-83.968 -209.454)" fill="#b88c4f"/>
                </g>
              </g>
            </g>
            <g id="Grupo_996061" data-name="Grupo 996061" transform="translate(122.058 153.513)" opacity="0.5">
              <g id="Grupo_996060" data-name="Grupo 996060">
                <g id="Grupo_996059" data-name="Grupo 996059" clip-path="url(#clip-path-6)">
                  <path id="Trazado_658520" data-name="Trazado 658520" d="M133.624,159.346q-.075.621-.148,1.242s-.039.3-.108.858c-.119,1-.326,2.79-.572,5.176-.01.138-.029.286-.039.474-.188,1.952-.385,4.259-.572,6.823-.128,1.7-.237,3.5-.335,5.374a31.689,31.689,0,0,1-4.053,1.134c-.739.158-1.548.295-2.425.424,5.62-3.836,4.753-23.172,4.753-23.172Z" transform="translate(-125.371 -157.68)" fill="#2b1011"/>
                </g>
              </g>
            </g>
            <rect id="Rectángulo_312931" data-name="Rectángulo 312931" width="54.962" height="4.603" transform="translate(105.556 236.984) rotate(-15.393)" fill="#345170"/>
            <path id="Trazado_658521" data-name="Trazado 658521" d="M108.909,271.563l49.823-11.107a20.142,20.142,0,0,1,18.311,4.7l.117.107,3.112-3.391-.118-.108a24.721,24.721,0,0,0-22.454-5.79l-49.792,11.1Z" transform="translate(-2.851 -6.746)" fill="#345170"/>
            <path id="Trazado_658522" data-name="Trazado 658522" d="M109.049,232.412l56.714-13.539V192.834l-56.714,9.2Z" transform="translate(-2.882 -5.096)" fill="#5785a3"/>
            <path id="Trazado_658523" data-name="Trazado 658523" d="M106.822,190.128v77.554a2.477,2.477,0,0,0,2.449,2.476h.051a2.472,2.472,0,0,0,2.494-2.476V190.128Z" transform="translate(-2.823 -5.024)" fill="#345170"/>
            <path id="Trazado_658524" data-name="Trazado 658524" d="M162.181,181.715V256.32a2.471,2.471,0,0,0,2.4,2.468h.05a2.467,2.467,0,0,0,2.539-2.466V181.715Z" transform="translate(-4.286 -4.802)" fill="#5785a3"/>
            <path id="Trazado_658525" data-name="Trazado 658525" d="M114.129,192.03l55.5-6.548-.061-5.165-55.577,6.025Z" transform="translate(-3.012 -4.765)" fill="#345170"/>
            <path id="Trazado_658526" data-name="Trazado 658526" d="M113.667,186.342l55.577-6.025h-10.42l-57.068,6.024Z" transform="translate(-2.689 -4.765)" fill="#345170"/>
            <path id="Trazado_658527" data-name="Trazado 658527" d="M101.755,186.5l.14,5.669,11.911.021-.139-5.689Z" transform="translate(-2.689 -4.928)" fill="#345170"/>
            <path id="Trazado_658528" data-name="Trazado 658528" d="M157,291.06a23.622,23.622,0,0,1-3.548-.268c-16.889-2.568-27.855-22.893-24.447-45.306s19.923-38.549,36.808-35.992,27.856,22.893,24.448,45.305C187.092,275.639,172.6,291.06,157,291.06M129.764,245.6l.758.115c-3.281,21.578,7.109,41.12,23.16,43.559s31.78-13.129,35.061-34.705-7.109-41.118-23.16-43.558-31.78,13.128-35.061,34.7Z" transform="translate(-3.393 -5.529)" fill="#2b1011"/>
            <path id="Trazado_658529" data-name="Trazado 658529" d="M148.385,258.473l-3.536,27.873c.261-.069.53-.138.8-.2l3.559-28.026.107-.89.805-6.465.13-1.051.123-1.013.023-.13.031-.245.046-.384.1-.8.054-.422.3-2.424.1-.805,1-8.022.613-4.94,1.02-8.184.936-7.562.245-1.987.077-.6.215-1.695.307-2.516.2-1.58-.759-.092-.215,1.734-.337,2.73-.108.852-.107.874-.046.345-1.2,9.679-1.02,8.215-.621,4.947-.92,7.448-.1.805-.46,3.666-.031.238-.008.1-.016.1-.068.56-.016.146-.047.376-.03.245-1.028,8.214Z" transform="translate(-3.828 -5.452)" fill="#abd6f2"/>
            <path id="Trazado_658530" data-name="Trazado 658530" d="M123.837,271.259c.46-.069.422.077.873,0l5.471-4.456.682-.629.6-.552.966-.89,16.522-15.225.046-.039.184-.168.322-.3.245-.223.123-.115.368-.345,1.473-1.358,1.189-1.088.6-.553,7.041-6.489.629-.574.008-.008,4.978-4.587,10.577-9.741,1.349-1.243,2.861-3.028-2.577,2.438,2.055-3.005-4.034,4.1-10.231,9.426-4.986,4.594-.222.207-.637.583-7.555,6.956-.6.56-1.443,1.319-.7.652-.706.652-.077.061-.092.092-.4.368-.245.223-17.25,15.892-1.3,1.2Z" transform="translate(-3.272 -5.789)" fill="#abd6f2"/>
            <path id="Trazado_658531" data-name="Trazado 658531" d="M130.708,222.023,132.4,224.5l1.9,2.783.759,1.121.989,1.442,3.184,4.67,2.745,4.027,1.151,1.679L144,241.5l4.533,6.65.39.568.184.277.055.085.061.077.137.205.514.753.967,1.419,2.761,4.048.445.645,18.782,23.537c.253-.076.08-.7.333-.776l-18.4-23.069-.445-.644-2.432-3.566v-.008l-1.764-2.585-.1-.145-.092-.131-.384-.568-.054-.076-.054-.077-.077-.107-3.98-5.837-.867-1.273-1.764-2.577-2.738-4.027-3.558-5.208-.975-1.427-.391-.575-2.247-3.3-1.5-2.2Z" transform="translate(-3.454 -5.856)" fill="#abd6f2"/>
            <path id="Trazado_658532" data-name="Trazado 658532" d="M122.16,246.318h.008l2.531.314,4.18.514,1.542.192,18.032,2.239.429.054.069.008.061.008.445.054.314.039.123.015,11.229,1.4,1.472.184.506.061.668.085.337.038.162.023.314.038h.007l.338.039.138.022.529.061.492.062h.022L180,253.489l2.577.322h.022V253.8l.1-.752-2.585-.322L166.968,251.1l-.86-.107-.145-.016-.484-.061-.054-.008-.72-.085-.085-.015-.245-.031-.829-.1-.084-.008-.66-.085-1.679-.207-.652-.084-10.278-1.273-.321-.038-.553-.069-.13-.016h-.03l-.054-.008-.8-.1-17.778-2.2-1.541-.192-4.181-.514-2.593-.322Z" transform="translate(-3.228 -6.489)" fill="#abd6f2"/>
            <path id="Trazado_658533" data-name="Trazado 658533" d="M150.7,252.1a.4.4,0,0,0,.091.028l14.043,2.332.76-4.559-14.142-2.345v.023c-.776,0-1.529.844-1.754,1.992-.229,1.209.217,2.309,1,2.529" transform="translate(-3.954 -6.542)" fill="#2b1011"/>
            <path id="Trazado_658534" data-name="Trazado 658534" d="M149.064,294.789a24.632,24.632,0,0,1-3.718-.281c-9-1.369-16.635-7.57-21.5-17.465-4.682-9.525-6.249-21.422-4.412-33.5,3.854-25.347,21.76-43.719,39.892-40.963,9,1.369,16.635,7.571,21.5,17.466,4.682,9.524,6.249,21.422,4.412,33.5s-6.87,22.975-14.171,30.677c-6.542,6.9-14.237,10.566-22,10.566m6.557-86.356c-13.824,0-26.987,15.408-30.121,36.029-1.651,10.853-.282,21.463,3.852,29.873,3.953,8.039,9.961,13.049,16.916,14.107S160.451,286.5,166.614,280c6.448-6.8,10.908-16.524,12.558-27.378s.282-21.463-3.853-29.874c-3.952-8.039-9.96-13.048-16.916-14.106a18.491,18.491,0,0,0-2.782-.21" transform="translate(-3.136 -5.346)" fill="#abd6f2"/>
            <path id="Trazado_658535" data-name="Trazado 658535" d="M147.181,288.417c.338-.1.667-.207,1-.307L161.785,259l2.615-5.36.031-.055.491-1.012.054-.092v-.008l.4-.821.061-.123.107-.222.168-.338.016-.038.338-.69.022-.047.253-.521.43-.874,11.313-23.148,2.769-5.668.206-.415.239-.491-.683-.338-.3.614-1.334,2.722-.284.591-1,2.041L166.77,247.058l-1.044,2.132-.314.645-.13.261-.153.314-.108.223-.038.076v.008l-.054.115-.245.492-.061.137-.162.314v.008l-.6,1.212-.245.514-1.833,3.742Z" transform="translate(-3.889 -5.78)" fill="#abd6f2"/>
            <rect id="Rectángulo_312932" data-name="Rectángulo 312932" width="63.958" height="0.767" transform="translate(127.314 259.75) rotate(-23.684)" fill="#abd6f2"/>
            <path id="Trazado_658536" data-name="Trazado 658536" d="M154,211.905l.215.8.084.292.53,1.933,1.887,6.887,1.994,7.248,1.212,4.441,1.181,4.294.23.836.629,2.3,2.125,7.755.276,1,.023.092.085.314.137.491.047.162.092.329.054.2.061.223.239.889.022.069.284,1.028,8.873,29.725.022.077c.245-.085.484-.169.729-.253l-8.084-26.826-.859-3.137-.423-1.542-.054-.184-.046-.161-.138-.5-.008-.039-.03-.1-.023-.108-.061-.214-.092-.346-.215-.766-.077-.284-2.953-10.777-.008-.015-.222-.821-1.074-3.912-1.22-4.441-1.986-7.233-2.385-8.689-.138-.522-.2-.721-.283.077Z" transform="translate(-4.07 -5.594)" fill="#abd6f2"/>
            <path id="Trazado_658537" data-name="Trazado 658537" d="M133.032,236.5l.161.077.077.038,6.174,3.014,4.618,2.255,1.381.676,4.44,2.17.729.352,1.786.875.744.36,3.989,1.948,3.628,1.772.652.322,1.472.72.453.223.461.222.4.192.115.061.391.184.054.031.245.115.115.061,1.051.514.231.107,21.317,10.036c.322-.123.652-.245.975-.376l-22.292-10.5-.047-.022-.728-.36-.284-.138-.123-.061-.329-.162-.047-.015-.123-.069-.069-.031-.728-.352-.283-.138-.545-.269-1.679-.821-1.641-.8-6.028-2.945-.744-.368-2.286-1.121-.728-.352-5.407-2.638-1.388-.682-2.624-1.281-6.25-3.052-.775-.376-.168-.085Z" transform="translate(-3.515 -6.231)" fill="#abd6f2"/>
            <path id="Trazado_658538" data-name="Trazado 658538" d="M164.085,251.966c-.237,1.251.254,2.394,1.1,2.553s1.713-.726,1.95-1.977-.254-2.395-1.1-2.554-1.713.727-1.95,1.978" transform="translate(-4.334 -6.605)" fill="#5785a3"/>
            <path id="Trazado_658539" data-name="Trazado 658539" d="M157,291.06a23.622,23.622,0,0,1-3.548-.268c-16.889-2.568-27.855-22.893-24.447-45.306s19.923-38.549,36.808-35.992,27.856,22.893,24.448,45.305C187.092,275.639,172.6,291.06,157,291.06M129.764,245.6l.758.115c-3.281,21.578,7.109,41.12,23.16,43.559s31.78-13.129,35.061-34.705-7.109-41.118-23.16-43.558-31.78,13.128-35.061,34.7Z" transform="translate(-3.393 -5.529)" fill="#2b1011"/>
            <path id="Trazado_658540" data-name="Trazado 658540" d="M106.934,297a7.048,7.048,0,0,1-1.067-.081A8.079,8.079,0,0,1,99.9,292.15a15.513,15.513,0,0,1,2.506-16.487,7.632,7.632,0,0,1,13.076,1.988,15.515,15.515,0,0,1-2.507,16.487A8.366,8.366,0,0,1,106.934,297m-4.388-12.885a11,11,0,0,0,.8,6.34A3.846,3.846,0,0,0,110.2,291.5a11.71,11.71,0,0,0,1.849-12.155,3.846,3.846,0,0,0-6.851-1.043,11,11,0,0,0-2.648,5.816" transform="translate(-2.605 -7.209)" fill="#2b1011"/>
            <path id="Trazado_658541" data-name="Trazado 658541" d="M105.5,284.775c-.286,1.884.544,3.572,1.855,3.772s2.605-1.166,2.892-3.05-.544-3.572-1.855-3.772-2.605,1.166-2.892,3.05" transform="translate(-2.786 -7.444)" fill="#2b1011"/>
            <path id="Trazado_658542" data-name="Trazado 658542" d="M88.283,282.424l7.4-37.182a11.052,11.052,0,0,1,11.477-9.257l.224-6.132A17.8,17.8,0,0,0,89.339,243.8l-7.877,38.446Z" transform="translate(-2.153 -6.074)" fill="#345170"/>
            <path id="Trazado_658543" data-name="Trazado 658543" d="M130.252,157.135l12.37,16.068,3.27,32.836,15.183-2.171-3.824-28.024a27.157,27.157,0,0,0-3.456-10.021l-12.2-20.893c0-.011-.01-.021-.016-.032l-.426-1.175A10.678,10.678,0,0,0,139.9,141.3a9.9,9.9,0,0,0-6.045-4.126,9.152,9.152,0,0,0-2.333-.194l-.579.022Z" transform="translate(-3.442 -3.619)" fill="#f46464"/>
            <path id="Trazado_658544" data-name="Trazado 658544" d="M161.5,205.618c0,.377-.347.773-.981,1.161a11.063,11.063,0,0,1-1.943.882,22.325,22.325,0,0,1-2.756.763c-.595.129-1.22.238-1.864.327a24.854,24.854,0,0,1-2.567.248,17.579,17.579,0,0,1-2.053,0,5.125,5.125,0,0,1-2.746-.714.666.666,0,0,1-.247-.476.844.844,0,0,1,.247-.556,6.652,6.652,0,0,1,2.637-1.457c.229-.079.466-.168.715-.247a28.348,28.348,0,0,1,3.956-.872c.664-.09,1.308-.159,1.924-.2.634-.05,1.239-.08,1.794-.069a11.154,11.154,0,0,1,2.756.307c.714.208,1.121.516,1.13.9" transform="translate(-3.867 -5.401)" fill="#2b1011"/>
            <path id="Trazado_658545" data-name="Trazado 658545" d="M85.118,224.317H85.1a.247.247,0,0,1-.233-.262,47.55,47.55,0,0,0,.03-4.866,69.034,69.034,0,0,0-1.189-9.738l-.059-.346a4.214,4.214,0,0,1-.153-1.265.248.248,0,1,1,.477.133c0,.078.078.548.165,1.047l.058.334a69.612,69.612,0,0,1,1.2,9.814,47.964,47.964,0,0,1-.03,4.916.248.248,0,0,1-.247.234" transform="translate(-2.206 -5.487)" fill="#2b1011"/>
            <path id="Trazado_658546" data-name="Trazado 658546" d="M145.379,155.557a.254.254,0,0,1-.135-.04c-1.357-.877-3.009-3.142-4.1-4.639a13.305,13.305,0,0,0-.909-1.181.247.247,0,1,1,.317-.38,10.17,10.17,0,0,1,.993,1.268c1.007,1.381,2.691,3.688,3.973,4.515a.248.248,0,0,1-.135.457" transform="translate(-3.703 -3.944)" fill="#2b1011"/>
            <path id="Trazado_658547" data-name="Trazado 658547" d="M156.962,172.457a.248.248,0,0,1-.236-.172c-.017-.049-1.613-4.866-6.179-5.737a.249.249,0,0,1-.2-.29.244.244,0,0,1,.29-.2c4.859.928,6.541,6.022,6.557,6.073a.246.246,0,0,1-.16.311.234.234,0,0,1-.076.013" transform="translate(-3.973 -4.388)" fill="#2b1011"/>
            <path id="Trazado_658548" data-name="Trazado 658548" d="M145.706,202.671a.25.25,0,0,1-.246-.217c-.463-3.663.811-11.436.957-11.773a.248.248,0,0,1,.458.189c-.134.421-1.37,7.985-.922,11.522a.248.248,0,0,1-.215.277l-.031,0" transform="translate(-3.841 -5.035)" fill="#2b1011"/>
            <path id="Trazado_658549" data-name="Trazado 658549" d="M155.826,204.48v7.028l-9.23,1.3v-5.551a6.632,6.632,0,0,1,2.637-1.458c.228-.079.465-.168.714-.247a28.348,28.348,0,0,1,3.956-.872c.665-.09,1.309-.159,1.924-.2" transform="translate(-3.874 -5.403)" fill="#fc9e87"/>
            <path id="Trazado_658550" data-name="Trazado 658550" d="M155.631,210.062c-2.477-1.852-6.577-3.662-8.856-1.468L144,215.981l9.761,3.373,1.417-4.486a10.2,10.2,0,0,0,.453-4.807" transform="translate(-3.805 -5.486)" fill="#fc9e87"/>
            <path id="Trazado_658551" data-name="Trazado 658551" d="M148.264,211.3a1.393,1.393,0,0,0,.484.074,39.9,39.9,0,0,0-10.368,2.361.808.808,0,0,1-.706-1.443,70.6,70.6,0,0,1,7.926-3.878,11.456,11.456,0,0,1,3.187-.977,2.032,2.032,0,0,1,.661.089,1.978,1.978,0,0,1-1.185,3.775" transform="translate(-3.628 -5.482)" fill="#f79f8c"/>
            <path id="Trazado_658552" data-name="Trazado 658552" d="M148.139,211.161a1.464,1.464,0,0,0,.806-.65s-.013.018-.025.04c-.181.349-.513,1.1-.675,1.469-.5,1.142-1.786,4.269-2.275,5.462-1.745,3.063-5.335,4.524-8.741,4.634a.88.88,0,0,1-.053-1.759c2.644-.153,5.679-2.15,6.436-3.717.564-1.766,1.556-4.941,2.169-6.658a4.125,4.125,0,0,1,.7-1.411,1.578,1.578,0,1,1,1.656,2.591" transform="translate(-3.603 -5.498)" fill="#f79f8c"/>
            <path id="Trazado_658553" data-name="Trazado 658553" d="M150.722,211.128a29.744,29.744,0,0,1-2.048,7.546,2.446,2.446,0,0,1-.35.625c-2.171,2.848-5.63,3.6-8.922,3.761a.881.881,0,0,1-.148-1.753c2.374-.547,5.383-1.489,6.669-3.586a48.731,48.731,0,0,0,1.657-6.936,1.581,1.581,0,0,1,3.143.343" transform="translate(-3.66 -5.534)" fill="#f79f8c"/>
            <path id="Trazado_658554" data-name="Trazado 658554" d="M150.018,211.57c-1.025.155,2.132-1.9,2.905,0,.2.631.086.349.121.437a3.9,3.9,0,0,1-.074.967c-.043.345-.228,1.283-.289,1.639-.536,2.164-.913,4.494-2.3,6.335-2.5,2.121-5.521,3.9-8.935,3.775a.881.881,0,0,1-.073-1.753c2.545-.347,4.848-2.013,6.683-3.774.158,0,.393-.68.581-1.257.473-1.583.8-3.326,1.115-4.965.04-.212.117-.651.145-.858,0,.024,0-.055,0,.055a1.338,1.338,0,0,0,0,.153l.009.076c.034.086-.081-.2.117.432.771,1.9,3.925-.157,2.9,0a1.581,1.581,0,0,1-2.9-1.256" transform="translate(-3.716 -5.569)" fill="#f79f8c"/>
            <path id="Trazado_658555" data-name="Trazado 658555" d="M154.78,214.418a20.705,20.705,0,0,1-1.284,5.925,5.81,5.81,0,0,1-.711,1.186c-1.382,2.124-4.17,2.976-6.4,3.332a.786.786,0,0,1-.523-1.478c2.211-.873,4.27-1.612,5.174-3.85a37.205,37.205,0,0,0,.931-5.214,1.407,1.407,0,0,1,2.811.1" transform="translate(-3.842 -5.629)" fill="#f79f8c"/>
            <path id="Trazado_658556" data-name="Trazado 658556" d="M138.168,222.119a.248.248,0,0,1-.046-.492c.056-.011,5.6-1.057,7.1-2.772a7.5,7.5,0,0,0,1.8-4.054.248.248,0,0,1,.493.054,8,8,0,0,1-1.921,4.326c-1.611,1.845-7.15,2.891-7.385,2.933a.263.263,0,0,1-.046,0" transform="translate(-3.645 -5.67)" fill="#c2732d"/>
            <path id="Trazado_658557" data-name="Trazado 658557" d="M140.848,223.157a.248.248,0,0,1-.066-.487l4.4-1.23c3.677-.877,4.34-3.739,4.519-5.817a.264.264,0,0,1,.268-.227.25.25,0,0,1,.227.269c-.194,2.23-.909,5.306-4.889,6.255l-4.39,1.227a.222.222,0,0,1-.066.01" transform="translate(-3.715 -5.692)" fill="#c2732d"/>
            <path id="Trazado_658558" data-name="Trazado 658558" d="M145.063,224.458a.248.248,0,0,1-.044-.493c.033-.006,3.38-.622,4.856-2.216a10.55,10.55,0,0,0,2.51-5.242.243.243,0,0,1,.287-.2.247.247,0,0,1,.2.288,11.043,11.043,0,0,1-2.634,5.488c-1.589,1.717-4.989,2.343-5.132,2.369a.35.35,0,0,1-.044,0" transform="translate(-3.827 -5.716)" fill="#c2732d"/>
            <path id="Trazado_658559" data-name="Trazado 658559" d="M85.551,181.117l-2.021.148-2.564.187L44.5,184.075l-4.733-9.446,38.859-4.723,5.68-.69.937,8.934Z" transform="translate(-1.051 -4.472)" fill="#f46464"/>
            <g id="Grupo_996064" data-name="Grupo 996064" transform="translate(79.915 161.757)" opacity="0.5">
              <g id="Grupo_996063" data-name="Grupo 996063">
                <g id="Grupo_996062" data-name="Grupo 996062" clip-path="url(#clip-path-7)">
                  <path id="Trazado_658560" data-name="Trazado 658560" d="M95.848,171.994c-.346.937-.681,1.775-1.035,2.534a13.435,13.435,0,0,1-2.426,3.7,9.094,9.094,0,0,1-2.9,1.971,9.333,9.333,0,0,1-2.819.838,11.667,11.667,0,0,1-2.021.148l-2.564.188a6.306,6.306,0,0,0,.838-.325,9.628,9.628,0,0,0,3.442-2.978c2.711-3.53,4.486-8.874,5.344-11.921a6.543,6.543,0,0,0,1.5,2.455,3.745,3.745,0,0,0,.266.276,11.874,11.874,0,0,1,2.377,3.115" transform="translate(-82.084 -166.147)" fill="#2b1011"/>
                </g>
              </g>
            </g>
            <path id="Trazado_658561" data-name="Trazado 658561" d="M46.095,182.182a3.658,3.658,0,0,1-1.626,2.033,3.984,3.984,0,0,1-3.907-.09,6.225,6.225,0,0,1-2.449-2.419,6.019,6.019,0,0,1-.773-4.135,3.758,3.758,0,0,1,1.774-2.627,4.264,4.264,0,0,1,4.72.6,6.579,6.579,0,0,1,1.646,1.9,5.847,5.847,0,0,1,.614,4.73" transform="translate(-0.984 -4.611)" fill="#2b1011"/>
            <path id="Trazado_658562" data-name="Trazado 658562" d="M45.911,182.211l-4.2.595-.832.168a3.051,3.051,0,0,1-.5,1.18,2.943,2.943,0,0,1-2.389,1.23l-7.069-.02-.635-5.631,6.871-2.132,6.494-2.022a6.579,6.579,0,0,1,1.646,1.9,5.847,5.847,0,0,1,.614,4.73" transform="translate(-0.8 -4.64)" fill="#fc9e87"/>
            <path id="Trazado_658563" data-name="Trazado 658563" d="M32.013,181.665c-.571,2.456-2.163,4.663-2.4,7.1,0,.011-.091-.32-.092-.317l1.806,3.685c.6,1.243,1.252,2.451,1.9,3.671a.622.622,0,0,1-1,.716,27,27,0,0,1-3.711-5.243,12.453,12.453,0,0,1-1.058-2.238,11.413,11.413,0,0,1,.617-4.335,30.226,30.226,0,0,0,.9-3.5,1.542,1.542,0,1,1,3.042.469" transform="translate(-0.724 -4.751)" fill="#fc9e87"/>
            <path id="Trazado_658564" data-name="Trazado 658564" d="M32.287,184.61a12.114,12.114,0,0,0-.99,4.663l-.251-.444c.825.828,1.6,1.726,2.38,2.6l1.155,1.322c.4.454.794.9,1.177,1.3a.62.62,0,0,1-.743.974,25.3,25.3,0,0,1-5.559-4.706,4.118,4.118,0,0,1-.54-2.125,18.577,18.577,0,0,1,.424-4.474,1.544,1.544,0,1,1,2.947.894" transform="translate(-0.764 -4.823)" fill="#fc9e87"/>
            <path id="Trazado_658565" data-name="Trazado 658565" d="M30.96,182.732a19.2,19.2,0,0,0-2.855,3.987.724.724,0,0,0,.028-.205,2.407,2.407,0,0,0,2.181,2.12.629.629,0,0,1,.575.729c-.2.783-1.394.607-2.052.524a3.866,3.866,0,0,1-2.911-3.412,1.743,1.743,0,0,1,.075-.52,24.173,24.173,0,0,1,2.5-5.076,1.546,1.546,0,1,1,2.458,1.854" transform="translate(-0.685 -4.76)" fill="#fc9e87"/>
            <path id="Trazado_658566" data-name="Trazado 658566" d="M34.736,195.23a.246.246,0,0,1-.159-.058c-2.738-2.287-5.34-4.557-5.856-5.676-.6-1.3.392-7.026.752-8.164a1.588,1.588,0,0,1,1.7-1.216.248.248,0,0,1-.071.491,1.085,1.085,0,0,0-1.161.875c-.387,1.224-1.28,6.71-.774,7.807.539,1.171,4.041,4.1,5.723,5.5a.248.248,0,0,1-.159.438" transform="translate(-0.754 -4.759)" fill="#c2732d"/>
            <path id="Trazado_658567" data-name="Trazado 658567" d="M40.572,184.12a21.318,21.318,0,0,1-3.594,3.176c-1.132.9-2.229,1.807-3.243,2.788a.88.88,0,0,1-1.321-1.157c.914-1.2,1.913-2.325,2.918-3.406.492-.53,1.734-1.843,2.17-2.376a2.663,2.663,0,0,0,.421-.6,1.723,1.723,0,1,1,3.135.878l-.485.7" transform="translate(-0.852 -4.775)" fill="#fc9e87"/>
            <path id="Trazado_658568" data-name="Trazado 658568" d="M27.541,189.936a.249.249,0,0,1-.237-.174,12.717,12.717,0,0,1,.051-5.545c.642-3.62,1.933-4.178,2.077-4.23a.248.248,0,0,1,.171.466c-.031.013-1.173.538-1.759,3.851a12.549,12.549,0,0,0-.066,5.311.248.248,0,0,1-.164.31.239.239,0,0,1-.073.012" transform="translate(-0.715 -4.756)" fill="#c2732d"/>
            <path id="Trazado_658569" data-name="Trazado 658569" d="M34.27,186.839a.248.248,0,0,1-.192-.4c.589-.723,2.786-4.16,2.883-4.361a.237.237,0,0,1,.307-.151.257.257,0,0,1,.158.321c-.071.228-2.431,3.85-2.964,4.5a.245.245,0,0,1-.192.092" transform="translate(-0.899 -4.807)" fill="#c2732d"/>
            <path id="Trazado_658570" data-name="Trazado 658570" d="M143.095,181.645a.247.247,0,0,1-.241-.193c-1.047-4.578,1.158-13.023,1.252-13.38a.251.251,0,0,1,.3-.176.248.248,0,0,1,.174.3c-.021.086-2.266,8.683-1.249,13.142a.249.249,0,0,1-.186.3.219.219,0,0,1-.055.007" transform="translate(-3.767 -4.436)" fill="#2b1011"/>
            <path id="Trazado_658571" data-name="Trazado 658571" d="M83.244,172.2a.244.244,0,0,1-.186-.085A4.973,4.973,0,0,0,77.6,170.4a.718.718,0,0,1-.1.025.24.24,0,0,1-.274-.219.249.249,0,0,1,.189-.269,5.531,5.531,0,0,1,6.013,1.852.248.248,0,0,1-.186.412" transform="translate(-2.041 -4.484)" fill="#2b1011"/>
            <path id="Trazado_658572" data-name="Trazado 658572" d="M134.752,163.7a.251.251,0,0,1-.178-.073c-4.255-4.331-4.671-7.1-4.9-8.586a2.116,2.116,0,0,0-.26-.955.249.249,0,0,1,.019-.35.246.246,0,0,1,.35.019,2.3,2.3,0,0,1,.381,1.21c.216,1.433.618,4.1,4.761,8.313a.248.248,0,0,1,0,.35.241.241,0,0,1-.173.071" transform="translate(-3.418 -4.061)" fill="#2b1011"/>
            <path id="Trazado_658573" data-name="Trazado 658573" d="M105.78,225.5a.236.236,0,0,1-.037,0c-5.847-.876-8.923-9.406-9.051-9.768a.248.248,0,0,1,.467-.165c.031.087,3.106,8.611,8.658,9.443a.248.248,0,0,1-.037.494" transform="translate(-2.555 -5.692)" fill="#2b1011"/>
            <path id="Trazado_658574" data-name="Trazado 658574" d="M185.04,287.352a.245.245,0,0,1-.092-.018l-.1-.04a14.926,14.926,0,0,0-5.964-1.187h-.007a.248.248,0,0,1-.007-.5,15.7,15.7,0,0,1,6.163,1.225l.1.039a.248.248,0,0,1-.092.478" transform="translate(-4.72 -7.547)" fill="#fff"/>
            <path id="Trazado_658575" data-name="Trazado 658575" d="M187.04,283.883a.245.245,0,0,1-.092-.019c-.837-.335-4.693-1.516-6.018-1.233a.245.245,0,0,1-.294-.191.248.248,0,0,1,.191-.294c1.542-.326,5.56.958,6.306,1.258a.248.248,0,0,1-.092.478" transform="translate(-4.773 -7.454)" fill="#fff"/>
            <path id="Trazado_658576" data-name="Trazado 658576" d="M187.971,280.4c-.771,0-4.922-.618-5.736-1.3a.248.248,0,0,1,.32-.379c.656.554,4.614,1.187,5.416,1.187a.248.248,0,1,1,0,.5" transform="translate(-4.813 -7.364)" fill="#fff"/>
            <path id="Trazado_658577" data-name="Trazado 658577" d="M189.92,277.095c-.771,0-4.922-.618-5.737-1.3a.248.248,0,0,1,.32-.379c.657.554,4.615,1.187,5.417,1.187a.248.248,0,0,1,0,.5" transform="translate(-4.865 -7.276)" fill="#fff"/>
            <path id="Trazado_658578" data-name="Trazado 658578" d="M165.448,286.39,205.37,89.41a1.924,1.924,0,0,1,2.288-1.534l4.27.961a1.974,1.974,0,0,1,1.454,2.376L169.43,287.285a1.922,1.922,0,0,1-2.279,1.492l-.24-.054a1.975,1.975,0,0,1-1.462-2.335" transform="translate(-4.371 -2.321)" fill="#2b1011"/>
            <path id="Trazado_658579" data-name="Trazado 658579" d="M172.374,297.08l-10.241.3,1.981-8.147a2.823,2.823,0,0,1,2.953-2.189l2.037.169a2.86,2.86,0,0,1,2.576,2.649Z" transform="translate(-4.284 -7.585)" fill="#2b1011"/>
            <path id="Trazado_658580" data-name="Trazado 658580" d="M276.961,289.94l7.255-200.893a1.927,1.927,0,0,1,2.007-1.89l4.369.245a1.972,1.972,0,0,1,1.822,2.1L281.035,290.169a1.925,1.925,0,0,1-2,1.848l-.246-.015a1.97,1.97,0,0,1-1.824-2.062" transform="translate(-7.319 -2.303)" fill="#2b1011"/>
            <path id="Trazado_658581" data-name="Trazado 658581" d="M235.744,209.185c.084,1.9,7.547,3.093,16.667,2.672,8.708-.4,15.767-2.126,16.313-3.924a.54.54,0,0,0,.043-.227v-.034c-.092-1.9-7.556-3.093-16.675-2.672-8.64.4-15.675,2.1-16.3,3.891a.6.6,0,0,0-.051.294" transform="translate(-6.229 -5.415)" fill="#2b1011"/>
            <path id="Trazado_658582" data-name="Trazado 658582" d="M205.941,206.844c9.1,2.728,17.047,3.034,17.751.691a.993.993,0,0,0,.034-.154c.384-2.359-6.345-6.355-15.252-9.017-9.1-2.728-17.128-3.449-17.823-1.1s6.178,6.86,15.29,9.579" transform="translate(-5.037 -5.175)" fill="#2b1011"/>
            <path id="Trazado_658583" data-name="Trazado 658583" d="M232.779,294.055v2.216h36.3l-.39-3.533-1.7-15.393-.373-11.1c-.935.508-3.668.871-6.892.871-3.26,0-6.012-.372-6.92-.88l.536,7.238a17.391,17.391,0,0,1-5.349,12.886,13.674,13.674,0,0,1-6.184,2.969l-5.667.835a3.908,3.908,0,0,0-3.133,2.569,3.984,3.984,0,0,0-.227,1.317" transform="translate(-6.151 -7.035)" fill="#374499"/>
            <path id="Trazado_658584" data-name="Trazado 658584" d="M219.248,190.106l-1.227,4.771-2.434,9.434-.214.818-1.412,5.481-5.043,19.51-1.256,4.819a52.527,52.527,0,0,1-8.48-1.47,54.966,54.966,0,0,1-7.321-2.376l.915-5.17,3.466-19.637,1.2-6.825.185-1.022,1.149-6.552,1.178-6.659Z" transform="translate(-5.07 -4.895)" fill="#ebb094"/>
            <g id="Grupo_996067" data-name="Grupo 996067" transform="translate(192.555 186.009)" opacity="0.5">
              <g id="Grupo_996066" data-name="Grupo 996066">
                <g id="Grupo_996065" data-name="Grupo 996065" clip-path="url(#clip-path-8)">
                  <path id="Trazado_658585" data-name="Trazado 658585" d="M218.177,195.03l-2.434,9.434a34.724,34.724,0,0,0-11.225-4.634c-3.077-.681-5.238-1.051-6.737-1.236l1.149-6.552,8.889-.983,10.252,2.96Z" transform="translate(-197.781 -191.058)" fill="#c36546"/>
                </g>
              </g>
            </g>
            <path id="Trazado_658586" data-name="Trazado 658586" d="M250.977,233.953l2.262,30.721.045.709c.908.508,3.66.88,6.92.88,3.223,0,5.957-.363,6.892-.871v-.754l.146-30.83a52,52,0,0,1-8.582.653,54.921,54.921,0,0,1-7.683-.508" transform="translate(-6.632 -6.178)" fill="#ffead9"/>
            <path id="Trazado_658587" data-name="Trazado 658587" d="M247.47,186.246l1.062,14.421.509,6.91,1.461,19.888.382,5.23a54.907,54.907,0,0,0,7.682.509,51.99,51.99,0,0,0,8.582-.654l.027-4.986.1-20.15.027-5.658.073-15.51Z" transform="translate(-6.539 -4.922)" fill="#ebb094"/>
            <g id="Grupo_996070" data-name="Grupo 996070" transform="translate(241.993 195.21)" opacity="0.5">
              <g id="Grupo_996069" data-name="Grupo 996069">
                <g id="Grupo_996068" data-name="Grupo 996068" clip-path="url(#clip-path-9)">
                  <path id="Trazado_658588" data-name="Trazado 658588" d="M248.561,201.044l.508,6.91a96.459,96.459,0,0,1,18.235-.164l.027-5.657-.718-.953-4.6-.672Z" transform="translate(-248.561 -200.508)" fill="#c36546"/>
                </g>
              </g>
            </g>
            <path id="Trazado_658589" data-name="Trazado 658589" d="M247.927,33.325c.807,2.487,2.726,4.094,4.286,3.588s2.172-2.932,1.365-5.42-2.726-4.094-4.286-3.589-2.172,2.933-1.365,5.421" transform="translate(-6.542 -0.735)" fill="#c9722a"/>
            <path id="Trazado_658590" data-name="Trazado 658590" d="M206.544,142.528c2.589,6.116,12.619,11.606,31.191,14.8s34.136,2.819,34.763-.829S256.74,152.778,240,144.113c-34.462-17.843-34.981-5.176-33.461-1.586" transform="translate(-5.446 -3.562)" fill="#2b1011"/>
            <path id="Trazado_658591" data-name="Trazado 658591" d="M233.718,144.424l1.955,62.805h.068c.621-1.789,7.656-3.487,16.3-3.891,9.118-.42,16.583.774,16.675,2.673l-1.186-63.978L242.036,143.4Z" transform="translate(-6.176 -3.753)" fill="#8f5b31"/>
            <path id="Trazado_658592" data-name="Trazado 658592" d="M245.116,143.269c-1.973,3.341-6.039,14.649-8.9,22.5-.813,2.23-1.637,4.55-2.45,6.9-4.332,12.5-8.4,25.847-9.736,31.738-.109.505-.208.951-.277,1.338-.011,0-.011-.01-.02-.01.178-1.1-1.19-2.567-3.6-4.074a50.234,50.234,0,0,0-11.66-4.948c-9.092-2.717-17.123-3.45-17.827-1.1-.208-2.726,15.358-36.9,24.668-60.54,5.882-3.173,9.12-.806,16.557,2.476,0,0,5.327,1.8,5.337,1.8,2.2.972,5.7,2.944,7.911,3.916" transform="translate(-5.038 -3.53)" fill="#8f5b31"/>
            <path id="Trazado_658593" data-name="Trazado 658593" d="M239.731,27.054c10.364,2.606,19.225,2.891,19.793.63a.923.923,0,0,0,.006-.4v-.024c-.036-.109-.064-.217-.1-.326-1.013-2.309-8.347-5.729-17.636-8.071-10-2.516-18.6-2.866-19.69-.852a.736.736,0,0,0-.094.221c-.576,2.262,7.36,6.212,17.724,8.826" transform="translate(-5.866 -0.441)" fill="#2b1011"/>
            <path id="Trazado_658594" data-name="Trazado 658594" d="M228.582,24.12c-.775,6.105,1.859,10.628,3.064,9.948,1.266-.65,1.35-4.858,2.174-9.093.7-4.237,1.818-8.225.574-9.409-1.177-1.194-5.034,2.432-5.812,8.554" transform="translate(-6.037 -0.405)" fill="#b06221"/>
            <path id="Trazado_658595" data-name="Trazado 658595" d="M227.441,19.99c-1.3,5.588.217,9.9,1.23,9.34,1.056-.532,1.606-4.407,2.733-8.27,1.03-3.87,2.357-7.486,1.529-8.645-.776-1.164-4.183,1.971-5.492,7.574" transform="translate(-5.997 -0.322)" fill="#b06221"/>
            <path id="Trazado_658596" data-name="Trazado 658596" d="M248.739,28.131c1.792,4.457,5.372,7.409,7.2,6.672s1.926-5.636.46-9.943c-1.936-5.686-5.122-6.934-6.952-6.2s-2.5,5.012-.71,9.469" transform="translate(-6.545 -0.488)" fill="#c9722a"/>
            <path id="Trazado_658597" data-name="Trazado 658597" d="M230.73,9.884l24.991,6.171.485-10.137a.351.351,0,0,0,.031-.093c.286-1.2-4.253-3.3-10.135-4.689S235.222-.388,234.936.822c0,.017-.008.025-.008.042Z" transform="translate(-6.097 0)" fill="#5840e2"/>
            <path id="Trazado_658598" data-name="Trazado 658598" d="M236.771,42.376a13.183,13.183,0,0,0,6.738,1.916,16.65,16.65,0,0,0,7.792-1.971l-.019-.237-1.162-13.9-12.958.354-.208,7.364-.109,3.915-.064,2.233Z" transform="translate(-6.257 -0.745)" fill="#ebb094"/>
            <g id="Grupo_996073" data-name="Grupo 996073" transform="translate(230.587 35.102)" opacity="0.5">
              <g id="Grupo_996072" data-name="Grupo 996072">
                <g id="Grupo_996071" data-name="Grupo 996071" clip-path="url(#clip-path-10)">
                  <path id="Trazado_658599" data-name="Trazado 658599" d="M236.846,40.023c5.149-.726,6.938-3.487,7-3.523l-6.739-.445-.154.055Z" transform="translate(-236.846 -36.055)" fill="#c36546"/>
                </g>
              </g>
            </g>
            <path id="Trazado_658600" data-name="Trazado 658600" d="M225.824,59.763c-2.4,6.59-4.587,12.635-6.368,18.431-.037.111-.074.231-.111.342-.517,1.716-1.006,3.414-1.449,5.1-.148.563-.3,1.125-.434,1.679A65.147,65.147,0,0,1,209.95,102.1c-.461.692-.941,1.366-1.44,2-1.624.471-2.224-.775-2.51-2.557-.121-.728-.194-1.55-.259-2.38-.2-2.649-.387-5.381-2.178-5.492-8.2-.526-14.388-2.621-11.739-6.313,0,0,5.085-6.894,6.691-11.48.775-2.216,1.568-4.32,2.4-6.3,3.581-8.648,7.282-15.108,11.03-18.513,4.107,2.981,9.367,5.639,13.88,8.7" transform="translate(-5.053 -1.349)" fill="#ffd357"/>
            <path id="Trazado_658601" data-name="Trazado 658601" d="M234.43,48.945l18.716-.327-1.907-7.909c-.418.545-2.833.99-5.939,1.089h-.009l-1.735,2.071-1.662-2.088.027-.019c-2.634-.118-4.667-.5-5.213-.972Z" transform="translate(-6.195 -1.076)" fill="#fff"/>
            <path id="Trazado_658602" data-name="Trazado 658602" d="M238.372,37.04l.783.013a7.975,7.975,0,0,0,8.251-7.168L248.792,12.1l-17.5-1.364-.651,18.553a7.684,7.684,0,0,0,7.732,7.751" transform="translate(-6.095 -0.284)" fill="#ebb094"/>
            <path id="Trazado_658603" data-name="Trazado 658603" d="M263.327,67.3c1.752,3.66,3.433,7.174,5.013,10.58q1.376,2.928,2.642,5.775,1.089,2.465,2.116,4.885c.209.481.409.972.608,1.453.073.173.136.337.209.509q1.294,3.173,2.434,6.32c.817,2.252,1.57,4.5,2.252,6.774,13.24,1.9,22.975-1.725,23.02-7.773v-.01a6.454,6.454,0,0,0-.382-2.2,76.846,76.846,0,0,0-6.665-14.947c-1.062-1.907-2.2-3.823-3.378-5.712-4.558-7.246-9.889-14.139-14.656-18.571a31.4,31.4,0,0,0-3.787-3.051.371.371,0,0,0-.109-.072,17.351,17.351,0,0,0-1.453,2.07c-2.671,4.305-4.513,10.144-7.865,13.967" transform="translate(-6.958 -1.355)" fill="#ffd357"/>
            <path id="Trazado_658604" data-name="Trazado 658604" d="M229.619,13.934c-1.85,2.771-2.287,6.313-1.4,6.834.888.553,2.892-1.919,4.834-4.424,1.928-2.531,2.928-4.338,1.948-5.157-.966-.792-3.533-.054-5.378,2.746" transform="translate(-6.019 -0.288)" fill="#c9722a"/>
            <path id="Trazado_658605" data-name="Trazado 658605" d="M246.68,23.154c-1.767,1.867-1.914,4.6-.328,6.1s4.3,1.2,6.069-.665,1.913-4.6.328-6.1-4.3-1.2-6.069.665" transform="translate(-6.481 -0.569)" fill="#ebb094"/>
            <path id="Trazado_658606" data-name="Trazado 658606" d="M232.813,15.249c-2.807,2.822-4.158,6.908-3.256,7.747.9.876,3.815-1.555,6.665-4.039,2.84-2.519,4.432-4.411,3.489-5.624-.933-1.178-4.09-.941-6.9,1.917" transform="translate(-6.059 -0.335)" fill="#c9722a"/>
            <path id="Trazado_658607" data-name="Trazado 658607" d="M245.142,20.33a27.321,27.321,0,0,1-5.314-.672,1.011,1.011,0,0,1,.039-1.946,4.841,4.841,0,0,1,5.338,2.53.065.065,0,0,1-.063.088" transform="translate(-6.318 -0.465)" fill="#8a440d"/>
            <path id="Trazado_658608" data-name="Trazado 658608" d="M234.956,18.914a21.353,21.353,0,0,1-5.1,1.132A4.633,4.633,0,0,1,233.21,17.1c.843-.268,2.532-.4,2.45.937a1.058,1.058,0,0,1-.7.882" transform="translate(-6.074 -0.447)" fill="#8a440d"/>
            <path id="Trazado_658609" data-name="Trazado 658609" d="M246.148,21.537c-.377,3.442,1.006,6.244,2.033,6.215s.5-3.611,2.373-6.526c2.681-4.182,1.73-6.613.848-7.14-1.442-.863-4.551,1.028-5.253,7.451" transform="translate(-6.503 -0.367)" fill="#c9722a"/>
            <path id="Trazado_658610" data-name="Trazado 658610" d="M221.959,17.816c.051-.01.092-.028.142-.038,1.087-2.014,9.69-1.663,19.69.852,9.288,2.341,16.622,5.763,17.636,8.072q-1.909-6.531-3.879-12.867c-7.415-4.321-15.2-6.012-24-5.768q-4.786,4.8-9.585,9.749" transform="translate(-5.865 -0.213)" fill="#5840e2"/>
            <path id="Trazado_658611" data-name="Trazado 658611" d="M206.159,138.628c2.252-11.9,28.33,3.4,46.365,11.965,9.191,4.359,16.991,7.292,19.906,4.631-1.153-11.833-1.434-21.777-2.225-32.592-.208-2.852-.454-5.757-.754-8.781-.155,0-.3.009-.454,0-17.635.164-35.272-8.037-52.907-7.728-.844,6.293-5.366,15.529-7.246,22.712-1.353,5.176-3.149,7.868-2.685,9.793" transform="translate(-5.446 -2.804)" fill="#fff"/>
            <path id="Trazado_658612" data-name="Trazado 658612" d="M225.392,46.26s14.185,25.6,14.185,26.027c-.01.409,25.626-23.339,25.626-23.339h-.009a118.261,118.261,0,0,0-39.8-2.688" transform="translate(-5.956 -1.206)" fill="#fff"/>
            <path id="Trazado_658613" data-name="Trazado 658613" d="M198.715,76.374c7.092.036,14.139,4.967,18.943,9.445.554-2.234,1.19-4.5,1.889-6.784-4.848-4.1-11.332-8.209-18.434-8.963-.827,1.988-1.626,4.095-2.4,6.3" transform="translate(-5.251 -1.852)" fill="#fff"/>
            <g id="Grupo_996076" data-name="Grupo 996076" transform="translate(200.329 71.611)" opacity="0.5">
              <g id="Grupo_996075" data-name="Grupo 996075">
                <g id="Grupo_996074" data-name="Grupo 996074" clip-path="url(#clip-path-11)">
                  <path id="Trazado_658614" data-name="Trazado 658614" d="M218.281,83.4v.83c-.148.563-.295,1.126-.434,1.68a65.161,65.161,0,0,1-7.512,16.778,6.9,6.9,0,0,1-3.95-.553c-.665-.443-.859-1.191-.259-2.381a8.185,8.185,0,0,1,.812-1.265c5.391-7.051,6.765-24.937,6.765-24.937Z" transform="translate(-205.766 -73.555)" fill="#d3a31b"/>
                </g>
              </g>
            </g>
            <path id="Trazado_658615" data-name="Trazado 658615" d="M271.19,84.249q1.539,3.46,2.933,6.847c4.1-7.011,13.821-10.408,20.659-11.833-1.062-1.907-2.2-3.823-3.378-5.712-6.438,1.544-14.821,4.623-20.214,10.7" transform="translate(-7.166 -1.944)" fill="#fff"/>
            <path id="Trazado_658616" data-name="Trazado 658616" d="M234.708,139.683a.249.249,0,0,1-.248-.239c-.958-24.385,8.75-94.823,8.85-95.532a.245.245,0,0,1,.279-.211.248.248,0,0,1,.211.279c-.1.708-9.8,71.1-8.844,95.444a.25.25,0,0,1-.239.258Z" transform="translate(-6.194 -1.155)" fill="#2b1011"/>
            <path id="Trazado_658617" data-name="Trazado 658617" d="M208.916,127.253s.654-.182,1.844-.418a60.513,60.513,0,0,1,25.881.9c12.55,3.187,20.678,3.769,25.563,3.588,4.423-.146,6.193-.917,6.193-.917,1.154-1.217,1.862-4.7,1.88-9.354,0-1.5-.063-3.123-.208-4.831q-.232-2.779-.3-5.576a1.923,1.923,0,0,1-.01-.237c-.018-.89-.026-1.78-.009-2.67a90.117,90.117,0,0,1,.89-12.014c.318-2.262.663-4.723,1.017-7.311.164-1.19.327-2.415.491-3.66,1.125-8.472,2.261-17.808,2.932-25.463a8.982,8.982,0,0,0-.281-3.133,8.83,8.83,0,0,0-3.487-4.95.367.367,0,0,0-.108-.072,6.943,6.943,0,0,0-1-.591,8.632,8.632,0,0,0-1.672-.636c-1.253-.336-2.506-.653-3.769-.944,0,0-25.635,23.747-25.626,23.339,0-.426-14.185-26.027-14.185-26.027-.744.082-1.489.164-2.233.264-1.3.172-2.588.363-3.878.581a10.075,10.075,0,0,0-2.342.7c-3.741,1.6-6.53,5.34-5.64,9.317.491,2.207.936,4.331,1.326,6.356a166.665,166.665,0,0,1,2.86,20.959c.172,2.625.245,5.031.245,7.238,0,.336,0,.673-.009,1a111.66,111.66,0,0,1-1.026,13.74c-.527,4.123-2.171,5.258-3.905,9.026-2.415,5.25-1.2,10.735-1.435,11.8" transform="translate(-5.518 -1.223)" fill="#ffd357"/>
            <path id="Trazado_658618" data-name="Trazado 658618" d="M266.849,140.535a36.088,36.088,0,0,0,12.679,6.562q1.681-3.674,3.343-7.245A34.619,34.619,0,0,1,270.24,134q-1.712,3.22-3.391,6.539" transform="translate(-7.052 -3.541)" fill="#ffd357"/>
            <path id="Trazado_658619" data-name="Trazado 658619" d="M269.336,126.7c-1.661,12.144,11.13,19.449,18.452,9.79a83.344,83.344,0,0,0,9.4-16.49,61.305,61.305,0,0,0,4.921-20.755c.325-16.32-26.395-17.127-28.011-.877,0,0-2.441,11.35-4.764,28.332" transform="translate(-7.113 -2.288)" fill="#ffd357"/>
            <path id="Trazado_658620" data-name="Trazado 658620" d="M232.779,294.774v2.216h36.3l-.39-3.533h-35.68a3.984,3.984,0,0,0-.227,1.317" transform="translate(-6.151 -7.755)" fill="#c4cdff"/>
            <path id="Trazado_658621" data-name="Trazado 658621" d="M238.82,52.738a.248.248,0,0,1-.191-.09c-.127-.153-3.1-3.78-3.748-7a.248.248,0,0,1,.487-.1c.521,2.591,2.7,5.57,3.416,6.494l4.567-8.219a.242.242,0,0,1,.229-.128.248.248,0,0,1,.215.148c1.211,2.771,3.169,7.158,3.645,8.015a43.874,43.874,0,0,0,5.479-5.3.241.241,0,0,1,.293-.184.253.253,0,0,1,.189.3c-.142.654-5.218,5.424-5.892,5.707a.3.3,0,0,1-.292-.01c-.077-.049-.311-.2-3.675-7.874l-4.5,8.106a.249.249,0,0,1-.195.127h-.022" transform="translate(-6.207 -1.155)" fill="#2b1011"/>
            <path id="Trazado_658622" data-name="Trazado 658622" d="M272.091,135.686a.256.256,0,0,1-.124-.033c-4.649-2.685-2.582-13.783-.393-25.531.587-3.154,1.194-6.415,1.662-9.491,1.909-12.564,9.233-13.481,13.61-14.028.647-.081,1.259-.158,1.775-.261a.248.248,0,0,1,.1.486c-.534.107-1.153.184-1.809.267-4.512.565-11.329,1.418-13.181,13.611-.469,3.085-1.078,6.351-1.666,9.508-2.156,11.571-4.191,22.5.154,25.01a.248.248,0,0,1-.124.463" transform="translate(-7.113 -2.281)" fill="#2b1011"/>
            <path id="Trazado_658623" data-name="Trazado 658623" d="M282.268,141.726a9.129,9.129,0,0,1-3.556-.814.247.247,0,1,1,.2-.455c3.042,1.312,5.523.976,7.376-1,.061-.065.108-.114.14-.142a.248.248,0,1,1,.328.371c-.024.022-.059.06-.107.11a5.8,5.8,0,0,1-4.376,1.928" transform="translate(-7.361 -3.68)" fill="#2b1011"/>
            <path id="Trazado_658624" data-name="Trazado 658624" d="M209.846,118.783h-.013a.247.247,0,0,1-.235-.26,4.562,4.562,0,0,1,1.6-3.339c3.474-3.03,11.72-2.308,16.151-1.921a15.573,15.573,0,0,0,2.609.132.256.256,0,0,1,.325.127.24.24,0,0,1-.106.318,9.1,9.1,0,0,1-2.872-.084c-4.359-.382-12.468-1.091-15.782,1.8a4.089,4.089,0,0,0-1.43,2.991.247.247,0,0,1-.247.236" transform="translate(-5.539 -2.983)" fill="#2b1011"/>
            <path id="Trazado_658625" data-name="Trazado 658625" d="M285.337,64.451a.245.245,0,0,1-.2-.1c-.956-1.249-4.507-5.383-10.1-6.1a.248.248,0,0,1-.215-.276.251.251,0,0,1,.277-.215c5.785.744,9.447,5.005,10.432,6.293a.247.247,0,0,1-.2.4" transform="translate(-7.262 -1.526)" fill="#2b1011"/>
            <path id="Trazado_658626" data-name="Trazado 658626" d="M187.229,93.756c-5.507,7.65-12.071,23.568-11.49,28.328.635,5.2,3.484,8.605,8.513,9.091.157.013.314.025.471.026,3.952.17,7.65-2.794,10.488-5.846,1.55-1.668,9.74-13.127,12.129-18,.506-1.045,2.774-5.856,2.567-4.916-.069.313-.188-3.04-.607-5.69a24.659,24.659,0,0,0-1.456-4.673c-1.29-3.379-6.5-5.843-12.474-4.268-.012,0,.854-2.608.849-2.6-3.751.992-5.431,3.6-8.99,8.545" transform="translate(-4.643 -2.252)" fill="#ffd357"/>
            <path id="Trazado_658627" data-name="Trazado 658627" d="M185.635,135.144a.75.75,0,0,1-.069.119,1.194,1.194,0,0,1-.348.327c-1.289.9-4.263.139-7.059-1.884a13.168,13.168,0,0,1-2.974-2.905c-.932-1.288-1.318-2.518-.972-3.351a1.442,1.442,0,0,1,.168-.3c.466-.645,1.438-.833,2.658-.615a11.78,11.78,0,0,1,4.739,2.182c2.3,1.666,3.837,3.728,4.045,5.225a1.767,1.767,0,0,1-.189,1.2" transform="translate(-4.6 -3.341)" fill="#2b1011"/>
            <path id="Trazado_658628" data-name="Trazado 658628" d="M178.038,121.013q-1.977,3.149-3.85,6.282c.013,0,.019.008.031.01a1.334,1.334,0,0,1,.161-.293c1-1.384,4.311-.684,7.4,1.561,3.008,2.172,4.7,5.016,3.859,6.43.023.028.058.058.082.087q2.212-3.268,4.484-6.608a36.3,36.3,0,0,0-12.169-7.468" transform="translate(-4.603 -3.198)" fill="#ffd357"/>
            <path id="Trazado_658629" data-name="Trazado 658629" d="M189.884,90.8a.244.244,0,0,1-.185-.083.249.249,0,0,1,.019-.35c6.706-5.983,13.523-2.678,13.591-2.643a.248.248,0,0,1-.223.443c-.062-.031-6.59-3.181-13.037,2.57a.249.249,0,0,1-.166.062" transform="translate(-5.011 -2.293)" fill="#2b1011"/>
            <path id="Trazado_658630" data-name="Trazado 658630" d="M188.716,131.063a.258.258,0,0,1-.04,0,.249.249,0,0,1-.205-.285c.375-2.271-1.827-4.711-4.012-6.237-2.643-1.844-5.449-2.584-6.824-1.805a.248.248,0,1,1-.245-.431c1.8-1.02,4.99.183,7.352,1.83,2.309,1.611,4.63,4.224,4.217,6.724a.246.246,0,0,1-.243.207" transform="translate(-4.684 -3.222)" fill="#2b1011"/>
            <path id="Trazado_658631" data-name="Trazado 658631" d="M234.975,189.746a.247.247,0,0,1-.247-.238l-1.386-32.73-4.65-4.489a.247.247,0,0,1-.007-.35.251.251,0,0,1,.35-.007l4.722,4.558a.245.245,0,0,1,.075.168l1.39,32.828a.247.247,0,0,1-.237.258h-.011" transform="translate(-6.041 -4.013)" fill="#2b1011"/>
            <path id="Trazado_658632" data-name="Trazado 658632" d="M191.4,194.211a.263.263,0,0,1-.089-.017.248.248,0,0,1-.143-.32c1.6-4.2,6.1-5.643,13.356-4.3.206.038.374.07.5.088a.248.248,0,0,1-.076.491c-.125-.019-.3-.052-.51-.091-2.606-.483-10.536-1.944-12.8,3.994a.247.247,0,0,1-.232.16" transform="translate(-5.051 -4.997)" fill="#2b1011"/>
            <path id="Trazado_658633" data-name="Trazado 658633" d="M194.229,186.989a.248.248,0,0,1-.2-.4c5.323-7,18.511-8.01,19.254-7.637a.248.248,0,0,1-.205.451c-.633-.134-13.42.607-18.656,7.486a.247.247,0,0,1-.2.1" transform="translate(-5.126 -4.727)" fill="#2b1011"/>
            <path id="Trazado_658634" data-name="Trazado 658634" d="M256.24,286.621a.241.241,0,0,1-.092-.019l-.1-.04a15.058,15.058,0,0,0-5.964-1.187.248.248,0,0,1-.014-.5,15.717,15.717,0,0,1,6.163,1.225l.1.039a.248.248,0,0,1-.092.478" transform="translate(-6.602 -7.528)" fill="#fff"/>
            <path id="Trazado_658635" data-name="Trazado 658635" d="M258.24,283.152a.241.241,0,0,1-.092-.019c-.694-.277-4.616-1.524-6.018-1.233a.248.248,0,0,1-.1-.485c1.545-.317,5.559.959,6.306,1.258a.248.248,0,0,1-.092.478" transform="translate(-6.655 -7.435)" fill="#fff"/>
            <path id="Trazado_658636" data-name="Trazado 658636" d="M259.172,279.668c-.771,0-4.922-.618-5.737-1.3a.248.248,0,0,1,.32-.379c.657.554,4.615,1.187,5.417,1.187a.248.248,0,0,1,0,.5" transform="translate(-6.695 -7.344)" fill="#fff"/>
            <path id="Trazado_658637" data-name="Trazado 658637" d="M259.757,275.728c-3.55,0-5.389-.789-6.307-1.449a.248.248,0,0,1,.289-.4c.86.618,2.6,1.355,6.018,1.355a.248.248,0,1,1,0,.5" transform="translate(-6.695 -7.236)" fill="#fff"/>
            <path id="Trazado_658638" data-name="Trazado 658638" d="M159.281,294.463v2.216h35.971l.185-3.533,3.924-27.311c-.936.508-3.8,0-7.022,0-3.26,0-5.777-1.832-6.686-2.341l-1.821,8.88c-1.255,6.523-7.29,16.787-15.524,17.368l-5.667.835a3.908,3.908,0,0,0-3.133,2.569,3.983,3.983,0,0,0-.227,1.317" transform="translate(-4.209 -6.963)" fill="#374499"/>
            <path id="Trazado_658639" data-name="Trazado 658639" d="M191.713,232.335l-5.348,30.337-.13.7c.756.716,3.332,1.751,6.492,2.552,3.125.792,5.865,1.11,6.9.847l.185-.731,7.708-29.851a52.065,52.065,0,0,1-8.48-1.473,54.916,54.916,0,0,1-7.322-2.378" transform="translate(-4.921 -6.139)" fill="#ffead9"/>
            <path id="Trazado_658640" data-name="Trazado 658640" d="M159.281,295.268v2.216h36.168v-3.533H159.5a4.032,4.032,0,0,0-.224,1.317" transform="translate(-4.209 -7.768)" fill="#c4cdff"/>
            <path id="Trazado_658641" data-name="Trazado 658641" d="M252.612,26.466l-.032,0a.247.247,0,0,1-.213-.278,2.393,2.393,0,0,0-.419-1.857,2.937,2.937,0,0,0-1.76-.964.247.247,0,0,1-.219-.273.241.241,0,0,1,.274-.219,3.419,3.419,0,0,1,2.1,1.15,2.87,2.87,0,0,1,.519,2.228.248.248,0,0,1-.245.215" transform="translate(-6.605 -0.604)" fill="#96544a"/>
            <path id="Trazado_658642" data-name="Trazado 658642" d="M239.1,28.182h-1.044a1.506,1.506,0,0,1-1.435-1.966l.944-2.95a.247.247,0,1,1,.471.151l-.944,2.951a1.012,1.012,0,0,0,.964,1.319H239.1a.247.247,0,1,1,0,.495" transform="translate(-6.251 -0.61)" fill="#96544a"/>
            <path id="Trazado_658643" data-name="Trazado 658643" d="M241.494,29.58a1.529,1.529,0,0,1-.345-.042,1.181,1.181,0,0,1-.793-.533.248.248,0,0,1,.464-.173,1.037,1.037,0,0,0,.556.244.72.72,0,0,0,.6-.177,1.634,1.634,0,0,0,.312-1.352.249.249,0,0,1,.195-.292.24.24,0,0,1,.291.193,2.094,2.094,0,0,1-.464,1.819,1.2,1.2,0,0,1-.821.313" transform="translate(-6.351 -0.72)" fill="#96544a"/>
            <path id="Trazado_658644" data-name="Trazado 658644" d="M242.014,22.1a.782.782,0,1,0,.752-1,.9.9,0,0,0-.752,1" transform="translate(-6.395 -0.558)" fill="#2b1011"/>
            <path id="Trazado_658645" data-name="Trazado 658645" d="M235.058,21.556a.782.782,0,1,0,.752-1,.9.9,0,0,0-.752,1" transform="translate(-6.211 -0.543)" fill="#2b1011"/>
            <path id="Trazado_658646" data-name="Trazado 658646" d="M228.436,30.006a.248.248,0,0,1-.007-.5c1.379-.029,1.42-2.289,1.42-2.312a.269.269,0,0,1,.252-.244.249.249,0,0,1,.245.25c0,.113-.051,2.763-1.905,2.8Z" transform="translate(-6.03 -0.712)" fill="#2b1011"/>
            <path id="Trazado_658647" data-name="Trazado 658647" d="M255.59,35.529c-2.612,0-4.5-2.745-4.582-2.863a.248.248,0,0,1,.411-.278c.018.027,1.824,2.646,4.173,2.646.028,0,.055,0,.085,0a.248.248,0,0,1,.007.5h-.093" transform="translate(-6.632 -0.853)" fill="#2b1011"/>
            <path id="Trazado_658648" data-name="Trazado 658648" d="M255.963,14.579a.241.241,0,0,1-.184-.083c-.035-.037-3.467-3.766-12.848-5.763-9.2-1.96-10.949-.524-10.963-.509a.251.251,0,0,1-.349-.013.245.245,0,0,1,0-.344c.068-.069,1.8-1.666,11.412.38,9.561,2.036,12.974,5.761,13.114,5.918a.249.249,0,0,1-.019.35.245.245,0,0,1-.166.063" transform="translate(-6.119 -0.191)" fill="#dee2fc"/>
            <g id="Grupo_996079" data-name="Grupo 996079" transform="translate(215.092 154.615)" opacity="0.5">
              <g id="Grupo_996078" data-name="Grupo 996078">
                <g id="Grupo_996077" data-name="Grupo 996077" clip-path="url(#clip-path-12)">
                  <path id="Trazado_658649" data-name="Trazado 658649" d="M234.423,173.744c-4.332,12.5-8.566,26.319-9.9,32.208a10.172,10.172,0,0,0-3.589-2.83c4.154-12.919,13.074-43.546,12.45-44.309Z" transform="translate(-220.93 -158.812)" fill="#2b1011"/>
                </g>
              </g>
            </g>
            <path id="Trazado_658650" data-name="Trazado 658650" d="M273.356,89.31h-.015a.247.247,0,0,1-.233-.262c.644-11.018,5.3-17.9,5.352-17.963a.246.246,0,0,1,.346-.063.249.249,0,0,1,.063.345c-.047.067-4.629,6.839-5.266,17.71a.248.248,0,0,1-.247.234" transform="translate(-7.217 -1.876)" fill="#2b1011"/>
            <path id="Trazado_658651" data-name="Trazado 658651" d="M270.161,151.87l-16.027.862a6.2,6.2,0,0,1-3.285-.531.65.65,0,0,1,.161-1.226l15.8-6.68Z" transform="translate(-6.619 -3.813)" fill="#ebb094"/>
            <path id="Trazado_658652" data-name="Trazado 658652" d="M284.207,297.287l-10.276-.063,1.361-8.275a2.829,2.829,0,0,1,2.781-2.41l2.043.013A2.855,2.855,0,0,1,282.884,289Z" transform="translate(-7.239 -7.572)" fill="#2b1011"/>
            <path id="Trazado_658653" data-name="Trazado 658653" d="M285.4,162.2l-26.912-4.419a3.438,3.438,0,0,1-2.774-3.949,3.356,3.356,0,0,1,3.822-2.866l26.912,4.419Z" transform="translate(-6.756 -3.988)" fill="#2b1011"/>
            <path id="Trazado_658654" data-name="Trazado 658654" d="M297.529,119.333s-.077-.025-.088-.048c-3.32-6.748-6.268-9.936-5.687-17.849.206-2.8,2.426-4.9,4.793-4.548l5.878.685a35.521,35.521,0,0,1-3.207,18.143Z" transform="translate(-7.708 -2.559)" fill="#d3a31b"/>
            <path id="Trazado_658655" data-name="Trazado 658655" d="M208.42,113.734l-.144-.041c-10.008-2.854-16.91-9.855-17.5-17.757-.21-2.8,2.847-5.053,6.6-4.874l17.433,2.811Z" transform="translate(-5.041 -2.406)" fill="#d3a31b"/>
          </g>
        </g>
        <g id="Grupo_996083" data-name="Grupo 996083" transform="translate(233.862 136.994)">
          <g id="Grupo_996082" data-name="Grupo 996082" clip-path="url(#clip-path-13)">
            <path id="Trazado_658656" data-name="Trazado 658656" d="M280.06,148.1c-.492.933-3.9.106-7.6-1.846s-6.316-4.292-5.824-5.225,3.9-.106,7.6,1.847,6.316,4.292,5.824,5.224" transform="translate(-240.907 -140.71)" fill="#2b1011"/>
            <path id="Trazado_658657" data-name="Trazado 658657" d="M262.767,149.074l8.8,13.812,1.017-1.816a46.064,46.064,0,0,0,4.568-11.6q.108-.45.218-.9c.172-.672.327-1.316.472-1.889.118-.481.472-1.589.917-2.915.98-2.933,2.37-6.884,2.415-6.993l-8-6.665-5.131,11.079Z" transform="translate(-240.806 -140.432)" fill="#ebb094"/>
            <path id="Trazado_658658" data-name="Trazado 658658" d="M263.582,148.989l-4.909,7.535-8.054,3.292c-1.334.654-2.367,1.557-2.094,2.344.248.718,1.036.565,1.76.425l10.469-2a1.9,1.9,0,0,0,1.232-.824l.085-.13,5.317-8.159a2.271,2.271,0,0,0-3.8-2.479" transform="translate(-240.429 -140.903)" fill="#ebb094"/>
            <path id="Trazado_658659" data-name="Trazado 658659" d="M271.755,151.566a4.146,4.146,0,0,1-.986,2.964c-.453.725-1.755,2.6-2.251,3.33l-3.036,4.312-.083.117a2.187,2.187,0,0,1-1.935.921l-9.2-.634a1.851,1.851,0,0,1,0-3.69l9.2-.634-2.017,1.038c1.576-2.257,4.18-5.851,5.581-8.135a2.027,2.027,0,0,0-.134,1.386,2.479,2.479,0,0,1,4.861-.975" transform="translate(-240.537 -140.947)" fill="#ebb094"/>
            <path id="Trazado_658660" data-name="Trazado 658660" d="M265.724,165.7a2.5,2.5,0,0,1-.8-.13l-5.688-1.93a2.479,2.479,0,0,1,1.592-4.695l4.141,1.4c1.8-2.011,3.587-4.075,4.034-4.7a2.479,2.479,0,0,1,4.68,1.458c-.125.811-.187,1.218-6.125,7.778a2.481,2.481,0,0,1-1.838.814m3.064-9.348v0m0,0v0Z" transform="translate(-240.668 -141.07)" fill="#ebb094"/>
            <path id="Trazado_658661" data-name="Trazado 658661" d="M269.387,158.23l-3.846,6.459c-.44,1.429,3.819,3.289,5.012,1.117l2.954-5.668a2.272,2.272,0,1,0-4.12-1.907" transform="translate(-240.879 -141.138)" fill="#ebb094"/>
            <path id="Trazado_658662" data-name="Trazado 658662" d="M253.393,162.589a.248.248,0,0,1-.061-.489c2.318-.586,8.55-2.294,9.521-3.155a20.617,20.617,0,0,0,2.815-3.994.248.248,0,0,1,.433.24,20.626,20.626,0,0,1-2.919,4.125c-1.259,1.118-9.383,3.178-9.728,3.265a.263.263,0,0,1-.06.008" transform="translate(-240.552 -141.085)" fill="#96544a"/>
            <path id="Trazado_658663" data-name="Trazado 658663" d="M262.063,163.17c-1.847,0-3.785-.13-4.146-.156a.248.248,0,0,1-.23-.265.26.26,0,0,1,.264-.23c1.726.122,6.394.332,7.268-.149s2.959-3.688,3.684-4.881a.252.252,0,0,1,.341-.084.248.248,0,0,1,.084.341c-.275.451-2.711,4.421-3.869,5.057a9.8,9.8,0,0,1-3.395.366" transform="translate(-240.672 -141.152)" fill="#96544a"/>
            <path id="Trazado_658664" data-name="Trazado 658664" d="M265.939,165.884a.248.248,0,0,1-.049-.492c2.2-.433,5.315-5.816,5.346-5.87a.246.246,0,0,1,.339-.091.248.248,0,0,1,.092.339c-.132.23-3.262,5.632-5.679,6.109a.3.3,0,0,1-.049,0" transform="translate(-240.883 -141.206)" fill="#96544a"/>
          </g>
        </g>
        <g id="Grupo_996085" data-name="Grupo 996085">
          <g id="Grupo_996084" data-name="Grupo 996084" clip-path="url(#clip-path-2)">
            <path id="Trazado_658666" data-name="Trazado 658666" d="M185.639,133.947l-.6,1.646-1.051,2.894-2.6,11.154s-13.5-7.595-14.3-7.882c.5-.079,7.01-8.884,7.01-8.884l.9-2.072,1.854-4.263a11.758,11.758,0,0,1,4.739,2.181c2.3,1.666,3.837,3.728,4.045,5.225" transform="translate(-4.415 -3.344)" fill="#ebb094"/>
            <path id="Trazado_658667" data-name="Trazado 658667" d="M166.693,146.754l-.051,7.1,3.535-.394.111-4.642L168,146.829Z" transform="translate(-4.404 -3.878)" fill="#ebb094"/>
            <path id="Trazado_658668" data-name="Trazado 658668" d="M176.456,143.622l-14.984,5.752a6.193,6.193,0,0,1-3.289.506.65.65,0,0,1-.224-1.216l12.98-11.219Z" transform="translate(-4.165 -3.632)" fill="#ebb094"/>
            <path id="Trazado_658669" data-name="Trazado 658669" d="M193.559,154.308l-23.869-5.119a2.992,2.992,0,0,1,1.254-5.85l23.87,5.119Z" transform="translate(-4.422 -3.786)" fill="#2b1011"/>
            <path id="Trazado_658670" data-name="Trazado 658670" d="M168.87,155.733l-.824-.28a2.046,2.046,0,0,1-1.245-2.686l3.292-8.77c.18-.458,1.451-2.343,2-2.306,1.994-.408,2.085,2.68,1.6,4.314l-2.207,8.375a2.046,2.046,0,0,1-2.62,1.354" transform="translate(-4.404 -3.743)" fill="#ebb094"/>
            <path id="Trazado_658671" data-name="Trazado 658671" d="M172,156.955l-.728-.286a2.064,2.064,0,0,1-.867-2.817l4.43-10c.212-.484,1.1-1.852,1.734-1.853,1.8,0,1.64,2.8,1.025,4.527l-3.046,8.977A2.061,2.061,0,0,1,172,156.955" transform="translate(-4.497 -3.752)" fill="#ebb094"/>
            <path id="Trazado_658672" data-name="Trazado 658672" d="M175.89,158.2l-.631-.233a1.774,1.774,0,0,1-.794-2.4l3.98-9.625a1.334,1.334,0,0,1,1.707-.75c1.067.8.682,2.762.185,4.256l-2.283,7.46a1.771,1.771,0,0,1-2.163,1.295" transform="translate(-4.606 -3.835)" fill="#ebb094"/>
            <path id="Trazado_658673" data-name="Trazado 658673" d="M179.066,159.31l-.571-.211a1.607,1.607,0,0,1-.719-2.178l3.515-8.505a.57.57,0,0,1,.843-.33,3.129,3.129,0,0,1,.871,3.507l-1.978,6.545a1.6,1.6,0,0,1-1.96,1.172" transform="translate(-4.694 -3.911)" fill="#ebb094"/>
            <path id="Trazado_658674" data-name="Trazado 658674" d="M169.97,155.825a.427.427,0,0,1-.386-.246.423.423,0,0,1,.075-.465c.258-.431,1.758-4.046,3.848-9.272a3.792,3.792,0,0,0,.1-2.669c-.246-.694-.6-1.068-1.043-1.11-1.091-.121-2.081,2.163-2.341,2.965a.424.424,0,1,1-.806-.261c.124-.384,1.245-3.713,3.227-3.548.551.053,1.306.385,1.762,1.671a4.629,4.629,0,0,1-.115,3.266c-3.781,9.462-3.935,9.532-4.145,9.631a.43.43,0,0,1-.178.039" transform="translate(-4.476 -3.732)" fill="#c76264"/>
            <path id="Trazado_658675" data-name="Trazado 658675" d="M174.163,156.737a.425.425,0,0,1-.424-.4c-.007-.121-.019-.3,4.193-10.9.023-.951-.164-2.821-.918-2.983-1.4-.311-2.141,2.528-2.148,2.558a.424.424,0,1,1-.822-.207c.038-.149.958-3.643,3.146-3.179,1.678.359,1.6,3.553,1.586,3.916a.41.41,0,0,1-.029.14c-1.6,4.031-4.017,10.167-4.165,10.7a.427.427,0,0,1-.393.359h-.026" transform="translate(-4.591 -3.741)" fill="#c76264"/>
            <path id="Trazado_658676" data-name="Trazado 658676" d="M177.479,158.264a.425.425,0,0,1-.381-.611c.156-.361,2.118-6.112,3.406-9.905.294-.774.607-2.191.211-2.764a.717.717,0,0,0-.668-.281h0c-1.02,0-1.474,1.688-1.479,1.7a.415.415,0,0,1-.514.308.425.425,0,0,1-.308-.515c.024-.1.61-2.345,2.3-2.345h0a1.557,1.557,0,0,1,1.366.649c.773,1.125-.02,3.289-.114,3.532-1.232,3.631-3.326,9.782-3.449,10.007a.424.424,0,0,1-.372.221" transform="translate(-4.679 -3.801)" fill="#c76264"/>
            <path id="Trazado_658677" data-name="Trazado 658677" d="M215.329,99.6h0a.248.248,0,0,1-.244-.252c0-.163.25-16.336-1.107-23.149-1.344-6.751-3.3-9.108-3.32-9.131a.248.248,0,0,1,.377-.322c.083.1,2.054,2.453,3.43,9.356,1.368,6.865,1.119,23.091,1.117,23.255a.248.248,0,0,1-.248.243" transform="translate(-5.565 -1.762)" fill="#2b1011"/>
          </g>
        </g>
      </g>
    </g>
  </g>
</svg>
