<svg xmlns="http://www.w3.org/2000/svg" xmlns:xlink="http://www.w3.org/1999/xlink" width="144" height="144" viewBox="0 0 144 144">
  <defs>
    <clipPath id="clip-path">
      <rect id="Rectángulo_309968" data-name="Rectángulo 309968" width="118.702" height="118.714" fill="none"/>
    </clipPath>
  </defs>
  <g id="Grupo_996217" data-name="Grupo 996217" transform="translate(-515 -4835)">
    <circle id="Elipse_8245" data-name="Elipse 8245" cx="72" cy="72" r="72" transform="translate(515 4835)" fill="#1cf290"/>
    <g id="Grupo_995760" data-name="Grupo 995760" transform="translate(527.399 4846.307)">
      <g id="Grupo_995759" data-name="Grupo 995759" clip-path="url(#clip-path)">
        <path id="Trazado_655675" data-name="Trazado 655675" d="M23.659,56.664c-.316-.223-.6-.417-.875-.617a18.329,18.329,0,0,1-7.916-14.613,1.062,1.062,0,0,0-.813-1.142,7.035,7.035,0,0,1-4.726-6.176,7.143,7.143,0,0,1,3.448-6.987c.3-.2,1.014-.229.33-.913-4.284-4.28-4.688-9.363-2.785-14.776A17.142,17.142,0,0,1,26.466.037C31.141.01,35.815.025,40.49.033A5.537,5.537,0,0,1,46.314,4.88c.087.5.171.669.723.752A5.5,5.5,0,0,1,51.93,11.4q.017,6.953-.01,13.906a1.079,1.079,0,0,0,.835,1.235A7.343,7.343,0,0,1,52.7,40.3a1.051,1.051,0,0,0-.8,1.155,18.254,18.254,0,0,1-6.077,13.062c-.628.575-.618.8.041,1.327A15.353,15.353,0,0,1,50.4,61.756a1.874,1.874,0,0,0,1.358,1.219,23.021,23.021,0,0,1,7.191,2.758.755.755,0,0,0,.946-.071A12.893,12.893,0,0,1,62.8,64.255c.6-.2.545-.438.3-.911a17.8,17.8,0,0,1-1.906-8.483c.033-10.159,0-20.318.016-30.478A24.067,24.067,0,0,1,80.087.6c13.668-3.187,27.618,6.657,29.141,20.544a33.73,33.73,0,0,1,.2,3.7c0,9.966-.024,19.932.013,29.9a17.737,17.737,0,0,1-1.914,8.6c-.347.652-.053.734.441.938A16.915,16.915,0,0,1,118.7,80.226q-.011,14.37-.006,28.739c-.005,5.786-3.963,9.746-9.747,9.747q-49.6.006-99.206,0c-5.779,0-9.732-3.967-9.736-9.755Q0,94.645.006,80.333A16.708,16.708,0,0,1,12.486,63.688c2.253-.662,4.505-1.332,6.774-1.938a1.922,1.922,0,0,0,1.375-1.074,15.35,15.35,0,0,1,3.024-4.011M12.535,103.945a3.63,3.63,0,0,0-3.255,3.816q-.02,1.677,0,3.354a3.707,3.707,0,1,0,7.411.115q.036-1.788,0-3.578a3.653,3.653,0,0,0-4.155-3.708m92.454,10.924a3.614,3.614,0,0,0,4.423-3.466c.048-1.307.048-2.618,0-3.925a3.623,3.623,0,0,0-4.426-3.468,3.566,3.566,0,0,0-2.974,3.581q-.04,1.848,0,3.7a3.566,3.566,0,0,0,2.978,3.579M68.836,49.413a19.945,19.945,0,0,1-2.038-7.3c-.122-1.714-.105-1.715-1.856-2.094,0,5.568-.044,11.128.028,16.687a9.465,9.465,0,0,0,1.3,4.548l2.61-3.206a24.954,24.954,0,0,1,3.716-2.892c.5-.281.412-.519.041-.85a19.583,19.583,0,0,1-3.8-4.889M5.806,113.605l.108.165.041-.1-.168-.039c.133-.392-.085-.752-.1-1.128-.144-3.438-.735-6.959,1.766-9.927a7.578,7.578,0,0,1,2.676-1.77c.91-.242,1.033-.758,1.023-1.592-.045-3.9-.027-7.8-.015-11.693,0-1.428.9-2.331,2.089-2.167,1.016.139,1.609.916,1.612,2.185.009,3.937,0,7.873.014,11.809,0,.346-.193.762.229,1.089A19.883,19.883,0,0,1,19.51,97.75a22.407,22.407,0,0,1,5.134-1.281c-4.046-4.248-4.137-4.395-5.884-10.649-.155-.556-.509-.459-.868-.518a5.6,5.6,0,0,1-4.9-5.437,5.52,5.52,0,0,1,4.72-5.575c.68-.115.857-.292.863-.973a44.464,44.464,0,0,1,.179-6.932c.081-.491-.1-.635-.559-.492q-2.145.664-4.292,1.322A12.74,12.74,0,0,0,3.762,79.16C3.644,89.3,3.7,99.45,3.738,109.6a4.491,4.491,0,0,0,2.068,4.01M34.329,51.933a17.249,17.249,0,0,1,6.584,1.043,1.169,1.169,0,0,0,1.261-.242,14.941,14.941,0,0,0,3.692-3.956c1.291-2.009,1.286-2.013-.6-3.513-.363-.288-.743-.556-1.087-.865a6.919,6.919,0,0,0-4.992-1.739c-4.013.069-8.028.044-12.042.01a5.984,5.984,0,0,0-4.412,1.675c-.727.565-1.426,1.171-2.19,1.681a.989.989,0,0,0-.36,1.526,15.291,15.291,0,0,0,6.007,6.223,1.178,1.178,0,0,0,1.644-.17c1.728-.584,3.389-1.421,5.272-1.436.419-.026.881.175,1.225-.237M22.512,39.923a13.058,13.058,0,0,1,5.522-.965c3.857.054,7.716.045,11.573.006a9.894,9.894,0,0,1,6.61,2.314c.554.456,1.123.893,1.732,1.377a2.178,2.178,0,0,0,.145-.458c.046-4.05.074-8.1.144-12.149.009-.547-.3-.622-.67-.73a9.033,9.033,0,0,1-5.881-5c-.229-.484-.388-.618-.892-.29a35.8,35.8,0,0,1-18.53,5.7,27.343,27.343,0,0,1-2.862-.286c-.777-.155-.875.1-.864.786.056,3.462.06,6.925.093,10.388.006.629.061,1.258.1,2.1a42.391,42.391,0,0,1,3.775-2.8m51.68,38.031c-1-.013-2.008,0-3.01-.048-.558-.028-.727.159-.716.715.039,1.93-.053,3.866.056,5.791a12.989,12.989,0,0,0,25.443,2.554c.754-2.811.374-5.677.483-8.52.02-.524-.26-.539-.647-.535-1.158.013-2.325-.09-3.471.027a4.209,4.209,0,0,1-3.846-1.6c-1.249-1.414-1.384-1.415-2.675.045a4.347,4.347,0,0,1-3.748,1.568c-2.619-.106-5.246-.007-7.87.006M32.927,96.189a12.916,12.916,0,0,0,14.376-7.9c1.291-3.239.819-6.61.919-9.943.018-.592-.431-.424-.736-.426-1.7-.012-3.395-.025-5.091,0a9.172,9.172,0,0,1-6.559-2.4c-.491-.448-.759-.4-1.212.026A8.775,8.775,0,0,1,29.44,77.86c-1.147.118-2.31.068-3.466.094-1-.013-2.008,0-3.01-.048-.558-.028-.727.159-.716.715.039,1.93-.053,3.866.056,5.791A12.852,12.852,0,0,0,32.927,96.189M25.976,74.17c2.61.2,5.039.022,7-2.134,1.976-2.176,2.476-2.1,4.566-.019.274.272.542.55.831.8a5.129,5.129,0,0,0,3.249,1.354c1.966.065,3.937.008,5.9.041.573.009.718-.208.709-.742-.027-1.659.014-3.319-.017-4.978a12.929,12.929,0,0,0-15.509-12.53,12.59,12.59,0,0,0-8.363,5.665A14.418,14.418,0,0,0,22.264,70.7c.056,1.14-.508,2.685.24,3.314.779.655,2.284.184,3.473.156M79.753,56.154a1.521,1.521,0,0,0-.344,0A16.806,16.806,0,0,0,66.781,71.465c-.081,2.157.489,2.745,2.674,2.74.422,0,.844-.032,1.267-.049,2.506.017,5.029-.135,7.517.094,3.049.281,5.607-.28,7.382-2.978a.469.469,0,0,1,.082-.081c1.03-.943,2.1-1.077,2.909.044,1.971,2.744,4.6,3.428,7.739,2.983a11.835,11.835,0,0,1,1.5-.011c1.644-.02,2.375-.7,2.277-2.338-.409-6.891-3.734-11.882-10-14.781a14.917,14.917,0,0,0-10.381-.932M64.92,114.968c.192.012.385.033.577.033q16.513,0,33.026,0c.211,0,.454.092.7-.177-1.321-2.285-.867-4.833-.914-7.316a6.184,6.184,0,0,1,1.352-4.1c.62-.759.365-1-.317-1.426-3.062-1.894-6.451-1.891-9.865-1.819-.468.01-.441.285-.481.6a5.569,5.569,0,0,1-6.867,4.781,5.454,5.454,0,0,1-4.19-4.587c-.067-.33.124-.825-.534-.788-1.767.1-3.553-.209-5.3.25-5.677.479-10.686,6.12-10.882,12.255-.074,2.333-.074,2.335,2.2,2.331.5,0,1-.022,1.5-.034m-44.032,0q11.473.02,22.946.039,6.317.008,12.634,0c.491,0,.977.128.99-.7.077-4.693-1.487-8.606-5.268-11.535-3.248-2.515-7.02-2.752-10.9-2.607-.549.02-.458.366-.521.694a5.562,5.562,0,0,1-11.039,0c-.1-.539-.231-.71-.772-.693-1.312.042-2.634-.06-3.939.05a11.192,11.192,0,0,0-6.316,2.268c-.314.377.1.53.251.734a6.585,6.585,0,0,1,1.4,3.731c.029,2.668.489,5.4-.885,7.929a2.8,2.8,0,0,0,1.417.093M74.192,29.74c-.926-.013-1.856.022-2.777-.052-.763-.061-.964.195-.955.951.042,3.476-.026,6.953.032,10.428A14.8,14.8,0,0,0,75.35,51.837a2.6,2.6,0,0,0,3.476.58,35.822,35.822,0,0,1,5.08-.5c.692.586,1.4.151,2.107.038,1.8.606,3.736.784,5.442,1.669a1.337,1.337,0,0,0,1.494-.111,14.312,14.312,0,0,0,6.968-10.422c.59-4.3.118-8.638.242-12.959.016-.557-.318-.588-.727-.654a16.214,16.214,0,0,1-9.771-5.285c-.556-.619-.8-.518-1.292.032a16.524,16.524,0,0,1-7.31,4.7,22.232,22.232,0,0,1-6.865.816M23.424,4.218a7.149,7.149,0,0,0-.9.16,13.633,13.633,0,0,0-9.511,11.785,8.7,8.7,0,0,0,7.868,9.742c.422.026.845.085,1.266.075a31.54,31.54,0,0,0,18.868-6.628,2.012,2.012,0,0,1,3.535,1.515,5.36,5.36,0,0,0,2.615,4.27c.281.176.574.528.921.321.284-.17.126-.565.127-.857.009-3.9-.039-7.795.021-11.691.042-2.731-.027-3.885-3.451-3.615a1.428,1.428,0,0,1-.231-.005,1.867,1.867,0,0,1-1.89-1.926c-.025-.462,0-.926-.008-1.389-.027-1.571-.685-2.229-2.281-2.231q-7-.012-14.008,0a7.946,7.946,0,0,0-2.945.474M68.631,25.956q3.877.015,7.754.029a11.516,11.516,0,0,0,2.742-.384,13.831,13.831,0,0,0,8.145-5.9c1.047-1.483,2.388-1.451,3.5-.03.214.274.415.556.623.834a12.926,12.926,0,0,0,8.862,5.341c1.813.249,3.7.072,5.4,1.171.522-7.679-1.7-14.091-7.694-18.822A19.38,19.38,0,0,0,80.216,4.463a.489.489,0,0,0-.523.173.176.176,0,0,0-.168.045,3.917,3.917,0,0,0-1.65.473,20.258,20.258,0,0,0-10.52,9.327,21.7,21.7,0,0,0-2.363,12.457,9.709,9.709,0,0,1,3.64-.982M114.988,83.35c-.07-1.938.228-4.193-.342-6.39-1.429-5.513-5.079-8.7-10.523-10.03-.827-.2-1.07-.267-.846.759.475,2.173,1.023,4.392.175,6.6a.969.969,0,0,0,.327,1.326,5.367,5.367,0,0,1,1.182,6.909c-.18.331-.423.6-.322,1.056.352,1.577.677,3.162.962,4.753.1.557.315.743.892.736q3.876-.048,7.753,0c.639.009.769-.216.755-.8-.035-1.542-.012-3.085-.012-4.92M63.449,68.013a12.553,12.553,0,0,0-6.933,7.218,1.71,1.71,0,0,0,.145,1.7,5.263,5.263,0,0,1-.54,6.435,1.738,1.738,0,0,0-.49,1.225c.017,5.176.01,10.352.01,15.528a1.128,1.128,0,0,0,.264.96,18.876,18.876,0,0,1,3.417,4.515,18.12,18.12,0,0,1,4.359-5.421c-.821,0-1.349,0-1.878,0-1.97-.011-2.661-.847-2.285-2.75.889-4.5,1.761-9.007,2.675-13.5a1.788,1.788,0,0,0-.218-1.4,5.418,5.418,0,0,1-.259-5.108c.434-1.027,1.848-1.615,1.871-2.487.027-1.01-.615-2.106-.513-3.247.11-1.222.249-2.442.375-3.668m42.242-28.06c-1.267.25-2.012.68-1.908,2.12a10.61,10.61,0,0,1-.539,3.409,18.488,18.488,0,0,1-6.745,10.1c-.515.4-.681.616-.08,1.088a20.26,20.26,0,0,1,4.407,5.017,1.913,1.913,0,0,0,3.448-.148,11.139,11.139,0,0,0,1.395-4.969c.062-5.513.023-11.026.023-16.613m7.088,73.831a5.1,5.1,0,0,0,2.19-4.24c.038-5.321.006-10.643.033-15.964,0-.652-.176-.849-.832-.834q-2.892.063-5.784,0c-.661-.015-.844.187-.83.837q.06,2.949,0,5.9a1.076,1.076,0,0,0,.829,1.243,6.76,6.76,0,0,1,4.452,4.946,20.445,20.445,0,0,1-.058,8.114M93.964,96.46c2.481,0,4.635.007,6.789,0,.844,0,2.042.277,2.445-.158.519-.562-.123-1.641-.283-2.49-.492-2.612-1.049-5.212-1.561-7.82-.083-.42-.151-.721-.7-.684-.482.032-.7.212-.718.689a5,5,0,0,1-.126.8,17.067,17.067,0,0,1-5.845,9.669m-21.009,0A16.818,16.818,0,0,1,66.99,85.965c-.071-.489-.284-.629-.745-.661-.567-.038-.6.311-.675.712Q64.6,90.89,63.608,95.76c-.1.465-.081.713.5.709,2.844-.02,5.688-.009,8.841-.009M51.894,86.177A18.357,18.357,0,0,1,45.66,96.529a19.2,19.2,0,0,1,6.234,1.659ZM56.326,68.5a14.2,14.2,0,0,0-3.692-1.451c-.506-.152-.756-.088-.739.561.051,1.962.024,3.925.046,5.888,0,.26-.18.654.327.713.373.043.66.015.817-.419A17.264,17.264,0,0,1,56.326,68.5m47.594-38.146v6.068a3.471,3.471,0,0,0,0-6.068m-37.2-.025c-2.4,1.608-2.366,4.848,0,6.071Zm-14.723.04v6.044c2.1-.775,2.586-4.716,0-6.044m-37.2-.048c-2.414,1.635-2.373,4.875,0,6.075ZM66.769,79.856a2.536,2.536,0,0,0-.007-.576c-.105-.441.338-1.184-.271-1.28-.659-.1-1.184.456-1.444,1.125a1.741,1.741,0,0,0,.4,1.92c.291.319.7.634,1.1.51.472-.144.147-.661.212-1.007a3.824,3.824,0,0,0,.008-.693M51.933,77.9c0,1.108.027,2.111-.009,3.111-.026.711.288.664.762.431a1.734,1.734,0,0,0,1.073-1.867c-.116-.948-.711-1.487-1.826-1.675M18.55,79.879a3.663,3.663,0,0,0-.008-.693c-.081-.413.283-1.084-.249-1.192-.563-.114-1.064.353-1.36.9a1.746,1.746,0,0,0,.131,1.958c.3.428.762.817,1.244.7.52-.126.142-.722.234-1.1a2.484,2.484,0,0,0,.008-.576m81.6-.122c0,.386.029.774-.006,1.157-.082.89.366.746.882.47a1.822,1.822,0,0,0,.394-2.942c-.309-.288-.707-.623-1.119-.439-.328.146-.115.618-.146.944-.026.268-.005.54-.005.81M37.112,100.17c-1.11,0-2.113.026-3.113-.009-.713-.025-.66.294-.429.765a1.733,1.733,0,0,0,1.869,1.07c.948-.117,1.485-.715,1.673-1.825m48.219,0c-1.11,0-2.113.026-3.113-.009-.713-.025-.66.294-.429.765a1.733,1.733,0,0,0,1.869,1.07c.948-.117,1.485-.715,1.673-1.825" transform="translate(0 0)" fill="#020101"/>
        <path id="Trazado_655676" data-name="Trazado 655676" d="M158.646,8.976a.177.177,0,0,1,.168-.045.46.46,0,0,0,.523-.173,19.38,19.38,0,0,1,17.745,3.732c5.993,4.731,8.216,11.143,7.694,18.822-1.7-1.1-3.586-.922-5.4-1.171a12.927,12.927,0,0,1-8.862-5.341c-.208-.278-.41-.561-.623-.834-1.111-1.421-2.452-1.453-3.5.03a13.831,13.831,0,0,1-8.145,5.9,11.516,11.516,0,0,1-2.741.384q-3.877-.008-7.754-.029a41.858,41.858,0,0,1,.192-4.714,22.046,22.046,0,0,1,8.083-14.4c.87-.72,2.033-1.1,2.618-2.159" transform="translate(-79.122 -4.294)" fill="#bb7c64"/>
        <path id="Trazado_655677" data-name="Trazado 655677" d="M42.677,8.529a7.946,7.946,0,0,1,2.945-.474q7-.008,14.008,0c1.6,0,2.254.661,2.281,2.231.008.463-.016.927.008,1.389A1.868,1.868,0,0,0,63.81,13.6a1.426,1.426,0,0,0,.231.005c3.423-.27,3.492.883,3.45,3.614-.059,3.9-.012,7.794-.021,11.691,0,.292.157.687-.127.857-.347.207-.64-.145-.921-.321a5.36,5.36,0,0,1-2.615-4.27,2.011,2.011,0,0,0-3.534-1.515A31.546,31.546,0,0,1,41.4,30.291c-.421.01-.844-.048-1.266-.075-.039-.264-.275-.345-.443-.5a10.715,10.715,0,0,1-3.738-8.026c-.072-5.159,2.249-9.166,6.114-12.392.268-.223.6-.355.608-.771" transform="translate(-19.254 -4.311)" fill="#bb7c64"/>
        <path id="Trazado_655678" data-name="Trazado 655678" d="M169.342,79.321a35.833,35.833,0,0,0-5.08.5c-.433-.539-.873-1.072-1.3-1.617a15.572,15.572,0,0,1-3.282-8.5,27.041,27.041,0,0,1,.1-6.337,1.827,1.827,0,0,0,2.343.924,1.905,1.905,0,0,0,1.213-2.126c-.015-.307-.014-.615,0-.922a1.933,1.933,0,0,0-1.2-2.139,1.874,1.874,0,0,0-2.307.791c-.425-.89-.108-1.834-.2-2.748a22.231,22.231,0,0,0,6.864-.816,16.524,16.524,0,0,0,7.31-4.7c.491-.55.736-.65,1.292-.032a16.214,16.214,0,0,0,9.771,5.285c.41.065.743.1.727.654-.124,4.32.348,8.663-.242,12.959a14.311,14.311,0,0,1-6.968,10.422,1.337,1.337,0,0,1-1.493.111c-1.706-.885-3.642-1.063-5.442-1.669a6.93,6.93,0,0,0,4.184-2.237,1.876,1.876,0,0,0,.09-2.774c-.826-.8-1.844-.7-2.813.288a2.8,2.8,0,0,1-4.346-.03c-.92-.94-1.9-1.051-2.73-.31-.856.769-.808,1.817.059,2.857a9.017,9.017,0,0,0,3.449,2.167m12.537-17.6c0-.269.012-.539,0-.807a1.854,1.854,0,1,0-3.7-.027c-.015.268,0,.538,0,.807,0,1.946.61,2.852,1.9,2.82,1.25-.031,1.814-.9,1.812-2.793" transform="translate(-85.436 -27.403)" fill="#efd0c6"/>
        <path id="Trazado_655679" data-name="Trazado 655679" d="M40.266,217.907a11.192,11.192,0,0,1,6.316-2.268c1.3-.11,2.626-.008,3.939-.05.54-.017.676.154.772.693a5.562,5.562,0,0,0,11.039,0c.064-.329-.027-.674.521-.694,3.879-.144,7.651.092,10.9,2.607,3.781,2.929,5.345,6.843,5.268,11.536-.013.827-.5.7-.991.7q-6.317,0-12.634,0-11.473-.015-22.946-.039a5.465,5.465,0,0,0,1.336-3,26.323,26.323,0,0,0-.02-5.058,5.134,5.134,0,0,0-3.5-4.431" transform="translate(-21.562 -115.431)" fill="#e66c68"/>
        <path id="Trazado_655680" data-name="Trazado 655680" d="M146.936,215.863c1.751-.459,3.537-.151,5.3-.25.658-.037.467.458.534.788a5.453,5.453,0,0,0,4.19,4.587,5.569,5.569,0,0,0,6.867-4.78c.04-.314.013-.589.481-.6,3.415-.072,6.8-.076,9.866,1.819.682.422.937.667.317,1.426a6.184,6.184,0,0,0-1.352,4.1c.048,2.483-.407,5.031.914,7.316-.245.268-.488.177-.7.177q-16.512.008-33.026,0c-.192,0-.385-.022-.577-.033a19.4,19.4,0,0,1,.457-5.7,15.343,15.343,0,0,1,6.724-8.852" transform="translate(-74.835 -115.447)" fill="#efac72"/>
        <path id="Trazado_655681" data-name="Trazado 655681" d="M161.013,120.278a14.917,14.917,0,0,1,10.381.932c6.263,2.9,9.588,7.89,10,14.781.1,1.639-.633,2.318-2.277,2.338a11.833,11.833,0,0,0-1.5.011c-3.14.446-5.768-.238-7.739-2.982-.8-1.12-1.878-.987-2.909-.044a.483.483,0,0,0-.082.081c-1.776,2.7-4.334,3.259-7.383,2.978-2.487-.229-5.01-.077-7.517-.094a12.247,12.247,0,0,1-.02-4.687,18.268,18.268,0,0,1,4.443-9.346,32.664,32.664,0,0,1,4.607-3.969" transform="translate(-81.26 -64.124)" fill="#bb7c64"/>
        <path id="Trazado_655682" data-name="Trazado 655682" d="M62.642,120.2a12.929,12.929,0,0,1,15.509,12.53c.031,1.659-.01,3.319.017,4.978.009.534-.136.751-.709.741-1.968-.033-3.938.024-5.9-.04a5.132,5.132,0,0,1-3.249-1.355c-.289-.254-.558-.533-.831-.8-2.09-2.08-2.591-2.157-4.566.02-1.957,2.156-4.386,2.339-7,2.134q0-2.538-.009-5.076a14.606,14.606,0,0,1,6.176-12.454c.253-.187.525-.322.563-.674" transform="translate(-29.936 -64.233)" fill="#bb7c64"/>
        <path id="Trazado_655683" data-name="Trazado 655683" d="M55.884,164.654c1.156-.026,2.319.023,3.466-.094a8.778,8.778,0,0,0,5.184-2.315c.454-.421.722-.474,1.212-.026a9.174,9.174,0,0,0,6.559,2.4c1.7-.023,3.394-.011,5.091,0,.305,0,.753-.166.735.426-.1,3.332.373,6.7-.919,9.943a12.916,12.916,0,0,1-14.375,7.9,16.029,16.029,0,0,1-5.7-6.737,10.185,10.185,0,0,1-1.088-5.508c.973,1.144,2.1,1.337,2.959.509a3.784,3.784,0,0,0,.065-4.1c-.833-.879-1.931-.751-2.987.349-.426-.89-.108-1.834-.2-2.748m9.282,16.664a7.206,7.206,0,0,0,4.965-2.368,1.843,1.843,0,1,0-2.7-2.506c-1.565,1.566-3,1.564-4.57-.006a1.8,1.8,0,0,0-2.66-.162,1.78,1.78,0,0,0-.1,2.588,7.19,7.19,0,0,0,5.059,2.454M74.4,169.107h.007a6.906,6.906,0,0,0-.008-1.034,1.83,1.83,0,0,0-2.383-1.507,1.859,1.859,0,0,0-1.3,1.949c.007,1.141-.214,2.381,1.119,3a1.848,1.848,0,0,0,2.558-1.378,5.843,5.843,0,0,0,.009-1.033" transform="translate(-29.91 -86.7)" fill="#eed0c6"/>
        <path id="Trazado_655684" data-name="Trazado 655684" d="M159.692,164.741c2.624-.013,5.251-.112,7.87-.006a4.348,4.348,0,0,0,3.748-1.568c1.29-1.459,1.426-1.459,2.675-.045a4.206,4.206,0,0,0,3.846,1.6c1.146-.117,2.314-.014,3.471-.027.387,0,.667.011.647.535-.109,2.843.271,5.709-.483,8.519a12.912,12.912,0,0,1-14.82,9.223,16.031,16.031,0,0,1-5.7-6.737,10.185,10.185,0,0,1-1.087-5.508c.972,1.144,2.1,1.337,2.959.509a3.785,3.785,0,0,0,.064-4.1c-.833-.879-1.931-.751-2.987.349-.426-.89-.109-1.834-.2-2.748m9.283,16.659a6.45,6.45,0,0,0,5.075-2.505,1.838,1.838,0,0,0-2.786-2.4c-1.609,1.588-3.028,1.6-4.577.044a1.8,1.8,0,0,0-2.663-.194,1.821,1.821,0,0,0-.048,2.687,6.56,6.56,0,0,0,5,2.366m5.509-12.328c-.052,1.057.064,2.061,1.171,2.527a1.74,1.74,0,0,0,2.17-.559,4.2,4.2,0,0,0,.027-3.728,1.753,1.753,0,0,0-2.042-.655,1.685,1.685,0,0,0-1.175,1.169,7.594,7.594,0,0,0-.151,1.246" transform="translate(-85.499 -86.787)" fill="#eed0c6"/>
        <path id="Trazado_655685" data-name="Trazado 655685" d="M22.459,143.115q2.146-.661,4.292-1.322c.462-.143.641,0,.559.492a44.464,44.464,0,0,0-.178,6.932c-.006.681-.182.858-.863.973a5.522,5.522,0,0,0-4.72,5.575,5.6,5.6,0,0,0,4.9,5.437c.359.059.713-.038.868.519,1.747,6.255,1.838,6.4,5.884,10.649a22.408,22.408,0,0,0-5.134,1.281,19.868,19.868,0,0,0-4.429,2.686c-.423-.327-.228-.743-.229-1.089-.017-3.936,0-7.873-.014-11.809,0-1.269-.6-2.046-1.612-2.185-1.192-.163-2.085.74-2.09,2.168-.012,3.9-.029,7.8.016,11.693.009.834-.113,1.35-1.023,1.592a7.572,7.572,0,0,0-2.676,1.771Q16,167.758,15.986,157.04a21.9,21.9,0,0,1,.2-3.567,14.362,14.362,0,0,1,5.15-9.121c.415-.342,1.036-.568,1.121-1.236" transform="translate(-8.56 -75.902)" fill="#74b2e1"/>
        <path id="Trazado_655686" data-name="Trazado 655686" d="M47.865,57.228a35.8,35.8,0,0,0,18.531-5.7c.5-.327.663-.194.892.29a9.031,9.031,0,0,0,5.881,5c.369.108.679.183.67.73-.069,4.049-.1,8.1-.144,12.148a2.15,2.15,0,0,1-.145.458c-.609-.484-1.178-.922-1.732-1.377a9.9,9.9,0,0,0-6.61-2.314c-3.857.039-7.716.048-11.573-.006a13.048,13.048,0,0,0-5.522.965,6.321,6.321,0,0,1-.047-3.735,1.877,1.877,0,0,0,2.3.791,1.931,1.931,0,0,0,1.208-2.126c-.016-.344-.016-.69,0-1.034a1.927,1.927,0,0,0-1.21-2.125,1.875,1.875,0,0,0-2.3.794c-.427-.892-.108-1.838-.2-2.754m18.542,4.6c0,.269-.011.538,0,.807a1.854,1.854,0,1,0,3.7.059c.016-.268,0-.538,0-.807,0-1.959-.6-2.854-1.886-2.833-1.259.02-1.827.883-1.825,2.775" transform="translate(-25.601 -27.494)" fill="#eed0c6"/>
        <path id="Trazado_655687" data-name="Trazado 655687" d="M233.959,160.369c0,1.834-.023,3.377.012,4.919.013.581-.117.805-.755.8q-3.875-.054-7.753,0c-.577.007-.792-.179-.892-.737-.285-1.591-.611-3.175-.962-4.753-.1-.452.142-.725.322-1.056a5.367,5.367,0,0,0-1.182-6.909.968.968,0,0,1-.327-1.326c.848-2.2.3-4.423-.175-6.6-.224-1.026.019-.961.846-.759,5.444,1.329,9.094,4.516,10.523,10.03.569,2.2.272,4.452.342,6.391" transform="translate(-118.971 -77.02)" fill="#e5a8b0"/>
        <path id="Trazado_655688" data-name="Trazado 655688" d="M127.585,146.421c-.127,1.226-.265,2.446-.375,3.668-.1,1.141.54,2.237.513,3.247-.023.873-1.438,1.461-1.872,2.488a5.417,5.417,0,0,0,.26,5.107,1.788,1.788,0,0,1,.218,1.4c-.914,4.5-1.786,9-2.674,13.5-.376,1.9.315,2.74,2.285,2.75.529,0,1.057,0,1.878,0a18.129,18.129,0,0,0-4.359,5.422,18.867,18.867,0,0,0-3.417-4.516,1.129,1.129,0,0,1-.264-.96c0-5.176.006-10.352-.01-15.528a1.734,1.734,0,0,1,.49-1.225,5.264,5.264,0,0,0,.54-6.435,1.709,1.709,0,0,1-.146-1.7,12.556,12.556,0,0,1,6.933-7.218" transform="translate(-64.135 -78.408)" fill="#e5a8b0"/>
        <path id="Trazado_655689" data-name="Trazado 655689" d="M48.936,93.527a5.982,5.982,0,0,1,4.412-1.675c4.014.034,8.029.059,12.042-.01a6.919,6.919,0,0,1,4.992,1.739c.344.308.724.577,1.087.865,1.889,1.5,1.894,1.5.6,3.513a14.941,14.941,0,0,1-3.692,3.956,1.169,1.169,0,0,1-1.261.242,17.24,17.24,0,0,0-6.584-1.043,8.06,8.06,0,0,0,4.174-2.5A1.846,1.846,0,0,0,62,96.118c-1.967,1.784-2.851,1.788-4.791.02a1.8,1.8,0,0,0-2.506-.08,1.772,1.772,0,0,0-.2,2.579,6.9,6.9,0,0,0,3.661,2.277c.4.105.845.088,1.151.437-1.884.015-3.544.852-5.272,1.436-.638-.759-1.294-1.5-1.91-2.282a13.073,13.073,0,0,1-3.192-6.979" transform="translate(-26.205 -49.181)" fill="#b97b64"/>
        <path id="Trazado_655690" data-name="Trazado 655690" d="M18.154,144.7c-.085.669-.706.894-1.121,1.237a14.362,14.362,0,0,0-5.15,9.121,21.9,21.9,0,0,0-.2,3.567q0,10.718.027,21.437c-2.5,2.968-1.91,6.489-1.766,9.927.016.375.234.736.1,1.127l.02-.025a4.494,4.494,0,0,1-2.068-4.01c-.035-10.145-.094-20.291.024-30.435A12.74,12.74,0,0,1,18.154,144.7" transform="translate(-4.256 -77.487)" fill="#5da4d1"/>
        <path id="Trazado_655691" data-name="Trazado 655691" d="M216.406,86.012c0,5.587.04,11.1-.023,16.613a11.142,11.142,0,0,1-1.395,4.969,1.913,1.913,0,0,1-3.447.148,20.268,20.268,0,0,0-4.407-5.017c-.6-.472-.435-.689.08-1.087a18.488,18.488,0,0,0,6.745-10.1,10.593,10.593,0,0,0,.539-3.409c-.1-1.439.642-1.87,1.908-2.12" transform="translate(-110.715 -46.059)" fill="#b97b64"/>
        <path id="Trazado_655692" data-name="Trazado 655692" d="M236.774,220.7a20.435,20.435,0,0,0,.057-8.114,6.759,6.759,0,0,0-4.451-4.946,1.077,1.077,0,0,1-.83-1.243q.056-2.949,0-5.9c-.013-.65.17-.851.83-.837q2.891.064,5.784,0c.656-.014.836.182.832.834-.027,5.321.006,10.643-.033,15.964a5.1,5.1,0,0,1-2.19,4.24" transform="translate(-123.994 -106.919)" fill="#eed0c6"/>
        <path id="Trazado_655693" data-name="Trazado 655693" d="M155.573,70.175a27.016,27.016,0,0,0-.1,6.337,15.575,15.575,0,0,0,3.281,8.5c.424.545.864,1.079,1.3,1.617-1.321.774-2.378.474-3.475-.58a14.8,14.8,0,0,1-4.857-10.771c-.059-3.475.009-6.952-.032-10.428-.009-.757.192-1.013.955-.951.921.074,1.851.04,2.777.052.091.914-.226,1.858.2,2.748a7.246,7.246,0,0,0-.048,3.473" transform="translate(-81.229 -34.215)" fill="#e7b1a0"/>
        <path id="Trazado_655694" data-name="Trazado 655694" d="M154.343,10.075c-.585,1.061-1.748,1.439-2.618,2.159a22.046,22.046,0,0,0-8.083,14.4,41.851,41.851,0,0,0-.192,4.714,9.7,9.7,0,0,0-3.64.982,21.694,21.694,0,0,1,2.363-12.457,20.256,20.256,0,0,1,10.52-9.327,3.917,3.917,0,0,1,1.65-.473" transform="translate(-74.818 -5.394)" fill="#a5634d"/>
        <path id="Trazado_655695" data-name="Trazado 655695" d="M38.38,9.081c0,.416-.34.548-.608.771-3.865,3.226-6.185,7.233-6.114,12.392A10.715,10.715,0,0,0,35.4,30.27c.168.153.4.234.443.5a8.7,8.7,0,0,1-7.868-9.742A13.633,13.633,0,0,1,37.484,9.241a7.179,7.179,0,0,1,.9-.16" transform="translate(-14.956 -4.863)" fill="#a5634d"/>
        <path id="Trazado_655696" data-name="Trazado 655696" d="M51.785,173.755a10.189,10.189,0,0,0,1.087,5.508,16.033,16.033,0,0,0,5.7,6.737,12.851,12.851,0,0,1-10.623-11.776c-.109-1.925-.017-3.861-.056-5.791-.011-.556.158-.743.716-.715,1,.05,2.006.036,3.01.048.092.914-.226,1.858.2,2.748a6.231,6.231,0,0,0-.037,3.242" transform="translate(-25.648 -89.81)" fill="#e7b1a0"/>
        <path id="Trazado_655697" data-name="Trazado 655697" d="M155.593,173.755a10.189,10.189,0,0,0,1.087,5.508,16.033,16.033,0,0,0,5.7,6.737,12.851,12.851,0,0,1-10.623-11.776c-.109-1.925-.017-3.861-.056-5.791-.011-.556.158-.743.716-.715,1,.05,2.006.036,3.01.048.092.914-.226,1.858.2,2.748a6.231,6.231,0,0,0-.037,3.242" transform="translate(-81.237 -89.81)" fill="#e7b1a0"/>
        <path id="Trazado_655698" data-name="Trazado 655698" d="M143.731,104.174l-2.61,3.206a9.465,9.465,0,0,1-1.3-4.548c-.072-5.559-.028-11.12-.028-16.687,1.75.379,1.734.38,1.856,2.094a19.935,19.935,0,0,0,2.038,7.3c-.333.311-.207.718-.209,1.086-.011,1.993,0,3.986-.006,5.979a2.936,2.936,0,0,0,.255,1.565" transform="translate(-74.853 -46.131)" fill="#a5634d"/>
        <path id="Trazado_655699" data-name="Trazado 655699" d="M58.2,120.488c-.038.351-.309.486-.563.674a14.606,14.606,0,0,0-6.176,12.454q.008,2.538.009,5.076c-1.189.029-2.694.5-3.473-.156-.747-.629-.183-2.173-.24-3.314a14.42,14.42,0,0,1,2.079-9.068,12.591,12.591,0,0,1,8.363-5.665" transform="translate(-25.492 -64.521)" fill="#a5634d"/>
        <path id="Trazado_655700" data-name="Trazado 655700" d="M156.733,120.879a32.664,32.664,0,0,0-4.607,3.969,18.268,18.268,0,0,0-4.443,9.346,12.247,12.247,0,0,0,.02,4.687c-.422.017-.844.049-1.267.049-2.185,0-2.755-.582-2.674-2.74a16.806,16.806,0,0,1,12.628-15.309,1.55,1.55,0,0,1,.344,0" transform="translate(-76.98 -64.725)" fill="#a5634d"/>
        <path id="Trazado_655701" data-name="Trazado 655701" d="M224.552,223.835a3.623,3.623,0,0,1,4.426,3.468c.048,1.307.048,2.618,0,3.925a3.614,3.614,0,0,1-4.423,3.466,12.209,12.209,0,0,1,0-10.859" transform="translate(-119.566 -119.826)" fill="#eed0c6"/>
        <path id="Trazado_655702" data-name="Trazado 655702" d="M25.431,223.758a3.653,3.653,0,0,1,4.155,3.708q.037,1.788,0,3.578a3.647,3.647,0,0,1-4.155,3.707,11.869,11.869,0,0,1,0-10.992" transform="translate(-12.896 -119.814)" fill="#eed0c6"/>
        <path id="Trazado_655703" data-name="Trazado 655703" d="M202.289,194.8a17.067,17.067,0,0,0,5.845-9.669,4.994,4.994,0,0,0,.126-.8c.019-.477.236-.657.718-.689.549-.037.617.264.7.684.512,2.608,1.069,5.208,1.561,7.82.16.848.8,1.928.283,2.49-.4.435-1.6.154-2.445.158-2.154.011-4.308,0-6.789,0" transform="translate(-108.325 -98.339)" fill="#b97b64"/>
        <path id="Trazado_655704" data-name="Trazado 655704" d="M146.234,194.8c-3.153,0-6-.011-8.841.009-.586,0-.6-.244-.5-.709q1-4.868,1.962-9.744c.079-.4.108-.749.675-.711.461.031.674.171.745.661a16.818,16.818,0,0,0,5.964,10.494" transform="translate(-73.28 -98.339)" fill="#b97b64"/>
        <path id="Trazado_655705" data-name="Trazado 655705" d="M142.651,216.18a15.343,15.343,0,0,0-6.724,8.852,19.4,19.4,0,0,0-.457,5.7c-.5.012-1,.033-1.5.034-2.274,0-2.273,0-2.2-2.331.2-6.136,5.205-11.776,10.882-12.255" transform="translate(-70.551 -115.764)" fill="#db8f56"/>
        <path id="Trazado_655706" data-name="Trazado 655706" d="M43.836,70.086a6.321,6.321,0,0,0,.047,3.735,42.25,42.25,0,0,0-3.775,2.8c-.044-.838-.1-1.467-.105-2.1-.033-3.463-.038-6.926-.093-10.388-.011-.688.086-.941.864-.786a27.484,27.484,0,0,0,2.862.285c.093.916-.226,1.862.2,2.754a7.332,7.332,0,0,0,0,3.7" transform="translate(-21.371 -33.899)" fill="#e7b1a0"/>
        <path id="Trazado_655707" data-name="Trazado 655707" d="M175.879,105.42a9.02,9.02,0,0,1-3.449-2.167c-.868-1.04-.915-2.087-.059-2.857.825-.741,1.81-.63,2.73.31a2.8,2.8,0,0,0,4.346.03c.969-.986,1.987-1.091,2.813-.288a1.876,1.876,0,0,1-.09,2.774,6.927,6.927,0,0,1-4.184,2.237c-.7.113-1.414.548-2.107-.038" transform="translate(-91.973 -53.502)" fill="#050505"/>
        <path id="Trazado_655708" data-name="Trazado 655708" d="M65.188,105.654c-.306-.349-.753-.332-1.151-.437a6.9,6.9,0,0,1-3.661-2.277,1.771,1.771,0,0,1,.2-2.579,1.8,1.8,0,0,1,2.506.08c1.941,1.768,2.825,1.765,4.791-.02a1.828,1.828,0,0,1,2.512-.087,1.81,1.81,0,0,1,.2,2.587,8.057,8.057,0,0,1-4.174,2.5c-.344.412-.806.211-1.225.237" transform="translate(-32.083 -53.483)" fill="#050505"/>
        <path id="Trazado_655709" data-name="Trazado 655709" d="M104.534,185.526v12.01a19.192,19.192,0,0,0-6.234-1.659,18.357,18.357,0,0,0,6.234-10.351" transform="translate(-52.64 -99.349)" fill="#74b2e1"/>
        <path id="Trazado_655710" data-name="Trazado 655710" d="M45.751,95.471a13.073,13.073,0,0,0,3.192,6.979c.616.777,1.272,1.522,1.91,2.282a1.177,1.177,0,0,1-1.644.17A15.286,15.286,0,0,1,43.2,98.677a.989.989,0,0,1,.36-1.525c.764-.51,1.463-1.116,2.19-1.681" transform="translate(-23.02 -51.125)" fill="#a5634d"/>
        <path id="Trazado_655711" data-name="Trazado 655711" d="M40.135,220.615a5.134,5.134,0,0,1,3.5,4.431,26.323,26.323,0,0,1,.02,5.058,5.465,5.465,0,0,1-1.336,3,2.806,2.806,0,0,1-1.417-.093c1.374-2.529.914-5.261.885-7.929a6.583,6.583,0,0,0-1.4-3.731c-.147-.2-.564-.358-.251-.734" transform="translate(-21.431 -118.139)" fill="#c04d49"/>
        <path id="Trazado_655712" data-name="Trazado 655712" d="M23.221,223.776a11.869,11.869,0,0,0,0,10.992,3.645,3.645,0,0,1-3.256-3.822q-.02-1.676,0-3.354a3.631,3.631,0,0,1,3.256-3.816" transform="translate(-10.686 -119.832)" fill="#e7b1a0"/>
        <path id="Trazado_655713" data-name="Trazado 655713" d="M147.97,115.008a2.936,2.936,0,0,1-.255-1.565c0-1.993-.005-3.986.006-5.979,0-.368-.125-.775.209-1.086a19.571,19.571,0,0,0,3.8,4.889c.371.33.459.568-.042.85a24.948,24.948,0,0,0-3.716,2.892" transform="translate(-79.092 -56.965)" fill="#b97b64"/>
        <path id="Trazado_655714" data-name="Trazado 655714" d="M116.152,145.723a17.264,17.264,0,0,0-3.241,5.292c-.157.434-.444.462-.817.419-.508-.059-.324-.452-.327-.713-.023-1.962,0-3.926-.046-5.888-.016-.649.233-.713.739-.561a14.205,14.205,0,0,1,3.692,1.451" transform="translate(-59.826 -77.221)" fill="#74b2e1"/>
        <path id="Trazado_655715" data-name="Trazado 655715" d="M222.566,223.916a12.209,12.209,0,0,0,0,10.859,3.566,3.566,0,0,1-2.978-3.579q-.04-1.849,0-3.7a3.566,3.566,0,0,1,2.974-3.58" transform="translate(-117.581 -119.907)" fill="#e7b1a0"/>
        <path id="Trazado_655716" data-name="Trazado 655716" d="M223.725,65.351a3.471,3.471,0,0,1,0,6.068Z" transform="translate(-119.804 -34.995)" fill="#eed0c6"/>
        <path id="Trazado_655717" data-name="Trazado 655717" d="M141.57,65.3v6.071c-2.366-1.223-2.4-4.463,0-6.071" transform="translate(-74.853 -34.967)" fill="#e7b1a0"/>
        <path id="Trazado_655718" data-name="Trazado 655718" d="M111.935,65.385c2.586,1.328,2.1,5.268,0,6.044Z" transform="translate(-59.941 -35.014)" fill="#eed0c6"/>
        <path id="Trazado_655719" data-name="Trazado 655719" d="M29.773,65.28v6.076c-2.373-1.2-2.414-4.441,0-6.076" transform="translate(-14.982 -34.957)" fill="#e7b1a0"/>
        <path id="Trazado_655720" data-name="Trazado 655720" d="M141.6,169.763a3.785,3.785,0,0,1-.008.693c-.066.346.26.863-.212,1.007-.405.124-.811-.191-1.1-.51a1.741,1.741,0,0,1-.4-1.92c.259-.669.785-1.229,1.444-1.126.609.1.165.838.271,1.28a2.538,2.538,0,0,1,.007.576" transform="translate(-74.835 -89.907)" fill="#e7b1a0"/>
        <path id="Trazado_655721" data-name="Trazado 655721" d="M111.791,167.7c1.115.187,1.709.727,1.826,1.675a1.734,1.734,0,0,1-1.073,1.867c-.474.233-.787.28-.762-.431.036-1,.009-2,.009-3.111" transform="translate(-59.858 -89.806)" fill="#eed0c6"/>
        <path id="Trazado_655722" data-name="Trazado 655722" d="M37.8,169.773a2.485,2.485,0,0,1-.008.576c-.092.376.286.972-.234,1.1-.482.117-.942-.272-1.244-.7a1.745,1.745,0,0,1-.131-1.958c.3-.548.8-1.014,1.36-.9.533.108.168.779.249,1.192a3.624,3.624,0,0,1,.008.693" transform="translate(-19.245 -89.895)" fill="#e7b1a0"/>
        <path id="Trazado_655723" data-name="Trazado 655723" d="M215.571,169.621c0-.27-.02-.542.005-.81.032-.325-.182-.8.146-.944.412-.183.809.151,1.119.439a1.821,1.821,0,0,1-.394,2.942c-.516.276-.964.42-.882-.47.035-.383.006-.771.006-1.157" transform="translate(-115.42 -89.864)" fill="#eed0c6"/>
        <path id="Trazado_655724" data-name="Trazado 655724" d="M75.635,215.637c-.188,1.111-.725,1.708-1.673,1.825a1.733,1.733,0,0,1-1.869-1.07c-.231-.471-.284-.789.429-.765,1,.035,2,.009,3.113.009" transform="translate(-38.523 -115.468)" fill="#eed0c6"/>
        <path id="Trazado_655725" data-name="Trazado 655725" d="M179.443,215.637c-.188,1.111-.725,1.708-1.673,1.825a1.733,1.733,0,0,1-1.869-1.07c-.231-.471-.284-.789.429-.765,1,.035,2,.009,3.113.009" transform="translate(-94.112 -115.468)" fill="#eed0c6"/>
        <path id="Trazado_655726" data-name="Trazado 655726" d="M172.089,9.594a.46.46,0,0,1-.523.173.488.488,0,0,1,.523-.173" transform="translate(-91.873 -5.132)" fill="#a5634d"/>
        <path id="Trazado_655727" data-name="Trazado 655727" d="M12.458,244.6l.169.04-.041.1-.107-.164-.02.025" transform="translate(-6.671 -130.969)" fill="#5da4d1"/>
        <path id="Trazado_655728" data-name="Trazado 655728" d="M203.344,70.706c0,1.895-.562,2.762-1.812,2.793-1.29.032-1.9-.874-1.9-2.82,0-.269-.01-.538,0-.807a1.854,1.854,0,1,1,3.7.027c.014.268,0,.538,0,.807" transform="translate(-106.901 -36.385)" fill="#050505"/>
        <path id="Trazado_655729" data-name="Trazado 655729" d="M159.835,72.334a7.246,7.246,0,0,1,.048-3.473,1.875,1.875,0,0,1,2.307-.791,1.933,1.933,0,0,1,1.2,2.139c-.014.307-.015.615,0,.922a1.906,1.906,0,0,1-1.214,2.126,1.827,1.827,0,0,1-2.343-.924" transform="translate(-85.491 -36.374)" fill="#050505"/>
        <path id="Trazado_655730" data-name="Trazado 655730" d="M69.478,197.295a7.192,7.192,0,0,1-5.059-2.454,1.78,1.78,0,0,1,.1-2.588,1.8,1.8,0,0,1,2.66.162c1.57,1.57,3,1.572,4.57.006a1.843,1.843,0,1,1,2.7,2.506,7.208,7.208,0,0,1-4.965,2.368" transform="translate(-34.223 -102.676)" fill="#050505"/>
        <path id="Trazado_655731" data-name="Trazado 655731" d="M56.043,175.912a6.231,6.231,0,0,1,.037-3.242c1.055-1.1,2.154-1.228,2.987-.349a3.786,3.786,0,0,1-.065,4.1c-.861.829-1.987.635-2.959-.509" transform="translate(-29.905 -91.968)" fill="#050505"/>
        <path id="Trazado_655732" data-name="Trazado 655732" d="M91.515,174.367a5.843,5.843,0,0,1-.009,1.033,1.848,1.848,0,0,1-2.558,1.378c-1.333-.622-1.112-1.861-1.119-3a1.859,1.859,0,0,1,1.3-1.949,1.83,1.83,0,0,1,2.383,1.507,6.907,6.907,0,0,1,.008,1.033h-.007" transform="translate(-47.027 -91.96)" fill="#050505"/>
        <path id="Trazado_655733" data-name="Trazado 655733" d="M173.294,197.284a6.56,6.56,0,0,1-5-2.366,1.821,1.821,0,0,1,.048-2.687,1.8,1.8,0,0,1,2.663.194c1.55,1.557,2.969,1.544,4.577-.045a1.838,1.838,0,0,1,2.786,2.4,6.45,6.45,0,0,1-5.075,2.505" transform="translate(-89.818 -102.671)" fill="#050505"/>
        <path id="Trazado_655734" data-name="Trazado 655734" d="M159.851,175.912a6.231,6.231,0,0,1,.037-3.242c1.055-1.1,2.154-1.228,2.987-.349a3.786,3.786,0,0,1-.065,4.1c-.861.829-1.987.635-2.959-.509" transform="translate(-85.494 -91.968)" fill="#050505"/>
        <path id="Trazado_655735" data-name="Trazado 655735" d="M191.559,174.247A7.6,7.6,0,0,1,191.71,173a1.685,1.685,0,0,1,1.175-1.169,1.753,1.753,0,0,1,2.042.655,4.2,4.2,0,0,1-.027,3.728,1.74,1.74,0,0,1-2.17.559c-1.107-.466-1.223-1.47-1.171-2.527" transform="translate(-102.574 -91.962)" fill="#050505"/>
        <path id="Trazado_655736" data-name="Trazado 655736" d="M87.841,70.721c0-1.892.567-2.754,1.826-2.775,1.291-.021,1.887.875,1.886,2.833,0,.269.011.539,0,.807a1.854,1.854,0,1,1-3.7-.059c-.013-.268,0-.538,0-.807" transform="translate(-47.037 -36.385)" fill="#050505"/>
        <path id="Trazado_655737" data-name="Trazado 655737" d="M48.091,72.561a7.333,7.333,0,0,1,0-3.7,1.876,1.876,0,0,1,2.3-.794,1.927,1.927,0,0,1,1.21,2.125c-.016.344-.016.69,0,1.034a1.931,1.931,0,0,1-1.208,2.126,1.876,1.876,0,0,1-2.3-.791" transform="translate(-25.625 -36.374)" fill="#050505"/>
      </g>
    </g>
  </g>
</svg>
