<svg xmlns="http://www.w3.org/2000/svg" xmlns:xlink="http://www.w3.org/1999/xlink" width="85" height="85" viewBox="0 0 85 85">
  <defs>
    <clipPath id="clip-path">
      <rect id="Rect치ngulo_312842" data-name="Rect치ngulo 312842" width="71.268" height="75.945" fill="none"/>
    </clipPath>
  </defs>
  <g id="Grupo_995528" data-name="Grupo 995528" transform="translate(-1335 -6589)">
    <rect id="Rect치ngulo_309092" data-name="Rect치ngulo 309092" width="85" height="85" transform="translate(1335 6589)" fill="none"/>
    <g id="Grupo_995930" data-name="Grupo 995930" transform="translate(1341.866 6593.527)">
      <g id="Grupo_995929" data-name="Grupo 995929" clip-path="url(#clip-path)">
        <path id="Trazado_657325" data-name="Trazado 657325" d="M27.605,18.657c.924.083,1.193.338,1.344,1.252.405,2.457.827,4.912,1.212,7.372.074.476.3.629.74.715a27.973,27.973,0,0,0,5.245.205c4.026.028,8.051,0,12.077,0,.954,0,1.286.283,1.393,1.137-.133.834-.406,1.08-1.276,1.082-3.134.007-6.269,0-9.4.007-.167,0-.37-.083-.55.134l1.642.9a3.772,3.772,0,0,0,2.74.993c5.649-.054,11.3-.025,16.948-.027a3.884,3.884,0,0,0,.81-.043.86.86,0,0,0,.777-1.1c-.075-.765-.628-.857-1.229-.859-2.024-.005-4.048-.018-6.071.005a1.207,1.207,0,0,1-1.391-1.108c.232-.865.525-1.116,1.39-1.12,2.077-.009,4.153-.013,6.23,0a3.26,3.26,0,0,1,3.244,2.331,3.194,3.194,0,0,1-1.6,3.709.682.682,0,0,0-.394.7c.017.865.024,1.731,0,2.6-.012.411.106.571.539.555.79-.029,1.582-.022,2.373,0a3.551,3.551,0,0,1,3.59,3.568c.033,2.323.021,4.647.006,6.971a1.886,1.886,0,0,1-1.8,2.048c-.456.051-.486.232-.484.6.013,2.348.025,4.7-.008,7.045a.859.859,0,0,0,.608.918,8.779,8.779,0,1,1-7.635-.014c.788-.383.833-.624.2-1.2q-2.944-2.659-5.9-5.308c-.087-.078-.187-.142-.347-.263a2.885,2.885,0,0,1-1.1,2.049,3.319,3.319,0,0,1-2.185.523c-1.018-.019-1.018,0-1.109,1.023A22.029,22.029,0,0,1,5.169,60.166a19.779,19.779,0,0,1-.836-4.651c-.019-.379-.122-.532-.514-.5a10.921,10.921,0,0,1-1.112.006,2.6,2.6,0,0,1-2.7-2.856A24.8,24.8,0,0,1,3.452,40.883,26.574,26.574,0,0,1,17.11,29.254c.473-.183.548-.353.465-.839q-1.7-9.963-3.343-19.935c-.028-.17-.067-.339-.1-.508-.024-.113.008-.265-.159-.289-.184-.026-.249.084-.284.254a1.013,1.013,0,0,1-1.044.872,1,1,0,0,1-1.085-.821c-.1-.443-.429-.325-.7-.326-2.126-.006-4.252.017-6.378-.009a3.218,3.218,0,0,1-3.26-4.126A3.312,3.312,0,0,1,4.486,1.219q3.189-.021,6.378,0c.385,0,.624-.039.733-.491A.967.967,0,0,1,12.669,0a.953.953,0,0,1,.976.761c.08.465.325.46.665.455.816-.011,1.632-.019,2.447,0a3.043,3.043,0,0,1,3.052,2.239c.176.614.474.661.994.659a5.968,5.968,0,0,1,6.088,4.127,40.755,40.755,0,0,1,.866,4.577c.082.411.127.829.2,1.243.156.931.02,1.2-.831,1.643a1.223,1.223,0,0,1-1.337-1.173c-.257-1.65-.545-3.3-.84-4.939a3.627,3.627,0,0,0-2.222-2.9A2.484,2.484,0,0,0,21.6,6.36c-1.241-.107-1.242-.088-1.038,1.116Q22.1,16.511,23.6,25.552c.353,2.14.321,2.145,2.539,1.988a9.543,9.543,0,0,1,1.109.046c.641.1.724-.163.621-.73-.4-2.185-.762-4.376-1.123-6.567-.156-.946.018-1.246.859-1.632M15.571,32.45l.012-.009c-.122.016-.245.028-.306.16l.007-.006a5.408,5.408,0,0,0-.531.243C7.822,36.927,3.578,42.862,2.367,50.876c-.3,1.989-.292,1.99,1.517,1.9.414.115.43-.141.442-.446a18.908,18.908,0,0,1,.456-3.221c2.836-13.253,17.607-20.926,30.01-15.489C42.616,37.049,47.038,43.144,48.2,51.6c.177,1.291.163,1.279,1.554,1.2.451-.025.613-.207.588-.643a22.22,22.22,0,0,0-.32-2.5c-1.866-10.9-12.035-19.654-23.075-19.87a22.5,22.5,0,0,0-11.063,2.491c-.122.021-.249.031-.314.161M62.478,50.737c-.99-.058-.991-.058-.991.919v5.814c0,.978,0,.978,1,.838,1,.141,1,.141,1-.83V51.645c0-.967,0-.967-1-.908M11.456,4.444c-.081-.374.394-1.009-.482-1.008-2.163,0-4.326,0-6.49.006a1.01,1.01,0,0,0-1.133.835c.009.838.329,1.159,1.229,1.164,1.976.011,3.953,0,5.93,0,1.012,0,1.012,0,.947-1m47.767,48.8c.013-.688.005-1.377.047-2.064.025-.412-.151-.493-.513-.478-.737.029-1.476.023-2.214.032H54.085l5.138,4.624V53.246m2.308-10.4c-.018.22-.018.442-.055.659-.115.667.167.86.813.808.71-.057,1.428-.013,2.143-.013,1.4,0,1.4,0,1.3-1.444.133-2.114-.207-2.561-2.015-2.536-.726.01-1.746-.343-2.107.157-.418.578-.149,1.562-.084,2.37m-9.59-2.507H48.819a25.812,25.812,0,0,1,1.716,3.387.778.778,0,0,0,.867.58c2.169-.025,4.338-.011,6.508-.011,1.42,0,1.42,0,1.311-1.438.012-.689.006-1.378.043-2.066.022-.411-.161-.489-.524-.486-2.266.021-4.532.025-6.8.034m3.27,8.116,10.385,0c.094.024.152,0,.135-.109.013-.466.017-.932.041-1.4.016-.293-.046-.445-.394-.443-3.539.023-7.079.031-10.618.043-.591-.012-1.183-.033-1.774-.035-1.386-.005-1.355-.008-1.072,1.359.1.5.3.64.781.615.838-.043,1.678-.027,2.517-.037M20.953,28.07c.689.068.8-.238.689-.875-.654-3.737-1.27-7.481-1.9-11.223q-.967-5.759-1.932-11.518A1.073,1.073,0,0,0,16.66,3.443c-.518,0-1.037,0-1.555,0-1.449,0-1.431,0-1.4,1.462.009.431.149.571.558.533a1.711,1.711,0,0,1,1.944,1.231,1.342,1.342,0,0,0,0,.221Q17.926,17.145,19.65,27.4c.171,1.013.181,1.012,1.3.669M62.179,60.656a6.514,6.514,0,1,0,6.842,6.487,6.433,6.433,0,0,0-6.842-6.487M17.371,71.507c.371.191.732.405,1.114.57a19.166,19.166,0,0,0,9.76,1.515,19.291,19.291,0,0,0,13.435-7.277A19.2,19.2,0,0,0,45.873,51.2a18.769,18.769,0,0,0-5.75-11.42,19.264,19.264,0,0,0-17.138-5.369A18.322,18.322,0,0,0,12.608,39.7a10.692,10.692,0,0,0-2,2.154A19.764,19.764,0,0,0,13.589,69.08a14,14,0,0,0,3.782,2.427M44.253,34.748a29.264,29.264,0,0,1,2.864,3.171c.141.188.338.168.534.168,3.7,0,7.406-.005,11.11.007.385,0,.521-.11.509-.5a21.328,21.328,0,0,1,.007-2.294c.045-.592-.188-.676-.711-.673-4.542.019-9.085.01-13.627.015a.973.973,0,0,0-.684.107" transform="translate(0 0)" fill="#030303"/>
        <path id="Trazado_657326" data-name="Trazado 657326" d="M76.457,22.521a3.626,3.626,0,0,1,2.222,2.9c.295,1.644.583,3.289.84,4.939a1.223,1.223,0,0,0,1.337,1.173q.241,1.475.483,2.95c-.841.385-1.016.686-.859,1.632.361,2.191.727,4.382,1.123,6.566.1.567.02.829-.621.73a9.412,9.412,0,0,0-1.109-.046c-.249-1.594-.486-3.19-.749-4.782-.51-3.088-1.039-6.173-1.553-9.261-.377-2.266-.742-4.535-1.113-6.8" transform="translate(-53.734 -15.828)" fill="#ea6e72"/>
        <path id="Trazado_657327" data-name="Trazado 657327" d="M143.384,98.665a1.207,1.207,0,0,0,1.39,1.108c2.023-.023,4.047-.011,6.071-.006.6,0,1.154.094,1.229.859a8.646,8.646,0,0,1-2.124.158q-9.575.005-19.15.019l-1.642-.9c.18-.217.382-.133.55-.134,3.135-.006,6.269,0,9.4-.008.871,0,1.143-.248,1.277-1.082l3-.015" transform="translate(-90.772 -69.341)" fill="#6a7bc9"/>
        <path id="Trazado_657328" data-name="Trazado 657328" d="M31.658,120.388A18.322,18.322,0,0,1,42.034,115.1a19.264,19.264,0,0,1,17.138,5.369,18.769,18.769,0,0,1,5.75,11.42A19.79,19.79,0,0,1,47.294,154.28a19.166,19.166,0,0,1-9.76-1.515c-.382-.165-.743-.379-1.114-.57.021-.269-.168-.373-.357-.507a20.574,20.574,0,0,1-3.873-3.5,21.043,21.043,0,0,1-4.308-8.073,24.167,24.167,0,0,1-.769-5.379,26.27,26.27,0,0,1,.266-3.444,21.37,21.37,0,0,1,2.8-8.56,14.741,14.741,0,0,0,1.474-2.343m30.892,14.248a17.223,17.223,0,1,0-17.215,17.2,17.178,17.178,0,0,0,17.215-17.2" transform="translate(-19.05 -80.688)" fill="#645d65"/>
        <path id="Trazado_657329" data-name="Trazado 657329" d="M25.058,102.739a22.5,22.5,0,0,1,11.063-2.491c11.04.216,21.209,8.973,23.075,19.87a22.236,22.236,0,0,1,.319,2.5c.025.436-.137.618-.588.643-1.391.076-1.377.088-1.554-1.2-1.162-8.459-5.584-14.555-13.409-17.985-12.4-5.437-27.174,2.236-30.01,15.489a18.879,18.879,0,0,0-.456,3.221c-.012.3-.027.561-.441.446a18.773,18.773,0,0,1,.866-5.662,25.788,25.788,0,0,1,8.94-13.18c.537-.433,1.3-.615,1.593-1.337l-.007.006c.142.023.26,0,.306-.16l-.012.009c.144.024.264,0,.314-.161" transform="translate(-9.174 -70.451)" fill="#d7e8f8"/>
        <path id="Trazado_657330" data-name="Trazado 657330" d="M71.112,21.634c.371,2.268.736,4.537,1.113,6.8.514,3.088,1.043,6.173,1.553,9.261.263,1.592.5,3.188.749,4.782-2.218.157-2.185.152-2.539-1.988Q70.5,31.45,68.953,22.416c-.2-1.2-.2-1.224,1.038-1.116a2.48,2.48,0,0,1,1.122.334" transform="translate(-48.389 -14.94)" fill="#e7555a"/>
        <path id="Trazado_657331" data-name="Trazado 657331" d="M27.964,133.577a14.742,14.742,0,0,1-1.474,2.343,21.37,21.37,0,0,0-2.8,8.56,26.321,26.321,0,0,0-.266,3.444,24.15,24.15,0,0,0,.769,5.379,21.038,21.038,0,0,0,4.308,8.073,20.574,20.574,0,0,0,3.873,3.5c.189.134.378.238.357.507a14,14,0,0,1-3.782-2.427,19.764,19.764,0,0,1-2.986-27.227,10.692,10.692,0,0,1,2-2.154" transform="translate(-15.357 -93.877)" fill="#514d53"/>
        <path id="Trazado_657332" data-name="Trazado 657332" d="M204.661,204.052a6.514,6.514,0,1,1,.01,13.012c-.113-.406-.451-.609-.754-.849a3.543,3.543,0,0,1-1.181-1.507c.138.053.276.1.413.16a4.69,4.69,0,0,0,5.567-1.535,4.591,4.591,0,0,0-.233-5.87c-1.342-1.573-3.252-1.966-5.608-1.155-.048-.362.19-.571.407-.805a12.664,12.664,0,0,0,1.379-1.45" transform="translate(-142.482 -143.397)" fill="#645d65"/>
        <path id="Trazado_657333" data-name="Trazado 657333" d="M48.589,14.8a1.711,1.711,0,0,0-1.944-1.231c-.41.038-.55-.1-.558-.533-.029-1.462-.048-1.462,1.4-1.462.518,0,1.037,0,1.555,0A1.073,1.073,0,0,1,50.2,12.587q.963,5.759,1.932,11.518c.628,3.742,1.244,7.486,1.9,11.223.111.637,0,.943-.689.875a6.887,6.887,0,0,0-.051-.812c-.373-2.1-.773-4.2-1.137-6.3-.761-4.4-1.5-8.806-2.259-13.207-.176-1.019-.266-1.071-1.3-1.082" transform="translate(-32.384 -8.133)" fill="#d7e8f8"/>
        <path id="Trazado_657334" data-name="Trazado 657334" d="M192.5,214.743a3.545,3.545,0,0,0,1.181,1.507c.3.24.64.443.754.849a6.511,6.511,0,0,1-.01-13.012,12.714,12.714,0,0,1-1.379,1.45c-.217.234-.455.443-.407.805-.144.093-.292.18-.431.28a4.583,4.583,0,0,0-2.089,4.751,4.833,4.833,0,0,0,2.381,3.369" transform="translate(-132.243 -143.431)" fill="#514d53"/>
        <path id="Trazado_657335" data-name="Trazado 657335" d="M20.528,109.674c-.3.722-1.055.9-1.593,1.337A25.788,25.788,0,0,0,10,124.191a18.773,18.773,0,0,0-.866,5.662c-1.81.092-1.818.09-1.518-1.9C8.823,119.94,13.067,114.005,20,109.917a5.409,5.409,0,0,1,.531-.243" transform="translate(-5.246 -77.079)" fill="#b5d6f4"/>
        <path id="Trazado_657336" data-name="Trazado 657336" d="M54.515,22.429c1.035.011,1.125.063,1.3,1.082.76,4.4,1.5,8.806,2.259,13.207.364,2.1.763,4.2,1.137,6.3a6.889,6.889,0,0,1,.051.812c-1.122.343-1.133.344-1.3-.669Q56.233,32.908,54.516,22.65a1.342,1.342,0,0,1,0-.221" transform="translate(-38.31 -15.763)" fill="#b5d6f4"/>
        <path id="Trazado_657337" data-name="Trazado 657337" d="M134.685,105.443q9.575-.011,19.15-.019a8.615,8.615,0,0,0,2.124-.158.86.86,0,0,1-.777,1.1,3.882,3.882,0,0,1-.81.043c-5.65,0-11.3-.027-16.948.027a3.77,3.77,0,0,1-2.739-.993" transform="translate(-94.656 -73.981)" fill="#4c62bd"/>
        <path id="Trazado_657338" data-name="Trazado 657338" d="M195.084,158.45l-10.385,0q-.226-.951-.452-1.9c3.539-.012,7.079-.021,10.618-.043.348,0,.41.15.394.443-.025.465-.028.931-.041,1.4l-.135.109" transform="translate(-129.488 -109.988)" fill="#d7e8f8"/>
        <path id="Trazado_657339" data-name="Trazado 657339" d="M174.661,138.256c.108,1.438.108,1.438-1.312,1.438-2.169,0-4.339-.014-6.508.011a.778.778,0,0,1-.867-.58,25.772,25.772,0,0,0-1.716-3.387h3.123a6.441,6.441,0,0,0,.612,1.64,1.256,1.256,0,0,0,1.364.885c1.768-.022,3.536-.007,5.3-.008" transform="translate(-115.441 -95.396)" fill="#e7555a"/>
        <path id="Trazado_657340" data-name="Trazado 657340" d="M182.046,138.175c-1.768,0-3.536-.014-5.3.008a1.256,1.256,0,0,1-1.364-.885,6.443,6.443,0,0,1-.612-1.64c2.266-.009,4.532-.013,6.8-.034.363,0,.546.075.524.486-.037.687-.031,1.377-.043,2.066" transform="translate(-122.825 -95.315)" fill="#ea6e72"/>
        <path id="Trazado_657341" data-name="Trazado 657341" d="M206.689,137.934c-.065-.808-.334-1.792.084-2.37.361-.5,1.381-.147,2.107-.157,1.808-.025,2.148.422,2.015,2.536l-4.205-.01" transform="translate(-145.158 -95.085)" fill="#ea6e72"/>
        <path id="Trazado_657342" data-name="Trazado 657342" d="M187.118,173.22v2.114l-5.139-4.624h2.458a21.943,21.943,0,0,0,2.68,2.51" transform="translate(-127.894 -119.974)" fill="#96c6f6"/>
        <path id="Trazado_657343" data-name="Trazado 657343" d="M19.379,14.554c.065,1,.065,1-.947,1-1.976,0-3.953.007-5.929,0-.9-.005-1.22-.326-1.229-1.164a4.905,4.905,0,0,0,1.455.174c2.217-.012,4.433-.006,6.65-.006" transform="translate(-7.923 -10.111)" fill="#4c62bd"/>
        <path id="Trazado_657344" data-name="Trazado 657344" d="M19.379,12.568c-2.217,0-4.433-.005-6.65.006a4.905,4.905,0,0,1-1.455-.174,1.01,1.01,0,0,1,1.133-.835c2.163-.01,4.326,0,6.489-.005.877,0,.4.634.483,1.008" transform="translate(-7.923 -8.124)" fill="#6a7bc9"/>
        <path id="Trazado_657345" data-name="Trazado 657345" d="M207.881,178.238c-1,.141-1,.141-1-.838q0-2.907,0-5.814c0-.977,0-.977.991-.919q0,3.786.005,7.571" transform="translate(-145.398 -119.93)" fill="#b5d6f4"/>
        <path id="Trazado_657346" data-name="Trazado 657346" d="M210.224,178.236q0-3.785-.005-7.571c1-.059,1-.059,1,.908q0,2.916,0,5.833c0,.972,0,.972-1,.83" transform="translate(-147.741 -119.928)" fill="#d7e8f8"/>
        <path id="Trazado_657347" data-name="Trazado 657347" d="M206.843,144.172l4.205.01c.1,1.444.1,1.444-1.3,1.444-.714,0-1.433-.044-2.143.013-.646.052-.928-.141-.813-.808.037-.216.038-.439.055-.659" transform="translate(-145.312 -101.324)" fill="#df5157"/>
        <path id="Trazado_657348" data-name="Trazado 657348" d="M177.147,156.559l.452,1.9c-.839.009-1.679-.006-2.517.037-.48.024-.677-.115-.781-.615-.283-1.367-.315-1.364,1.072-1.359.591,0,1.183.023,1.774.035" transform="translate(-122.388 -110.004)" fill="#b5d6f4"/>
        <path id="Trazado_657349" data-name="Trazado 657349" d="M192.931,173.141a21.943,21.943,0,0,1-2.68-2.51c.738-.009,1.477,0,2.214-.032.363-.014.538.067.513.479-.042.686-.034,1.376-.047,2.064" transform="translate(-133.708 -119.895)" fill="#b5d6f4"/>
        <path id="Trazado_657350" data-name="Trazado 657350" d="M51.7,109.155c-.046.16-.164.183-.306.16.061-.132.185-.144.306-.16" transform="translate(-36.122 -76.714)" fill="#b5d6f4"/>
        <path id="Trazado_657351" data-name="Trazado 657351" d="M52.7,108.641c-.05.16-.169.185-.314.161.065-.13.192-.141.314-.161" transform="translate(-36.818 -76.353)" fill="#b5d6f4"/>
        <path id="Trazado_657352" data-name="Trazado 657352" d="M220.71,162.8l.135-.109c.017.113-.041.134-.135.109" transform="translate(-155.114 -114.339)" fill="#b5d6f4"/>
        <path id="Trazado_657353" data-name="Trazado 657353" d="M64.908,140.677a17.223,17.223,0,1,1-17.214-17.27,17.178,17.178,0,0,1,17.214,17.27m-11.6-3.205c.467,1.145.467,1.145,1.5.548q2.788-1.612,5.574-3.225c.962-.558.961-.559.346-1.5-.088-.174-.19-.341-.262-.521-.264-.661-.61-.684-1.212-.317-1.845,1.123-3.733,2.178-5.6,3.26-1.145.662-1.144.664-.342,1.753M34.758,148.143c.549,1.13.551,1.132,1.6.527q2.759-1.59,5.515-3.184c1.019-.586,1.021-.582.312-1.511a3.43,3.43,0,0,1-.276-.6c-.178-.708-.5-.619-1.029-.3-1.9,1.135-3.82,2.223-5.736,3.324-1.128.648-1.13.644-.386,1.745m25.971-.161c.615-.939.616-.941-.345-1.5q-2.785-1.614-5.573-3.224c-1.035-.6-1.037-.594-1.5.547a3.107,3.107,0,0,1-.35.466c-.541.5-.3.745.235,1.041,1.908,1.066,3.795,2.17,5.685,3.267,1.21.7,1.206.709,1.846-.6M34.76,133.135c-.749,1.1-.746,1.094.383,1.743q2.62,1.505,5.233,3.021c1.2.7,1.2.7,1.808-.595.711-.927.709-.924-.311-1.51q-2.823-1.623-5.643-3.253c-.887-.512-.888-.513-1.4.386a1.147,1.147,0,0,0-.071.208m12.941-7.47c-1.312-.106-1.312-.106-1.312,1.178v6.191c0,1.328,0,1.328,1.3,1.15.122.015.245.032.367.045.936.1.936.1.936-.833q0-3.334,0-6.669c0-1.12,0-1.12-1.148-1.09a.943.943,0,0,0-.145.027m-.01,21.428c-.121-.02-.242-.045-.363-.059-1.046-.116-.935-.247-.938.844,0,2.309.026,4.619-.019,6.927-.013.66.2.9.82.842.169-.015.339-.032.509-.048,1.294.121,1.294.121,1.294-1.119v-6.225c0-1.327,0-1.327-1.3-1.162m-.741-10.526a4.132,4.132,0,0,0,0,8.144,2.8,2.8,0,0,0,1.671.005,4.2,4.2,0,0,0,3.16-4.995,4.114,4.114,0,0,0-4.833-3.154m15.127-.176-7.353,4.25,7.353,4.244a15.094,15.094,0,0,0,0-8.494M33.32,144.884l7.353-4.244L33.3,136.39a14.95,14.95,0,0,0,.015,8.494m25.242,6.081-7.344-4.23c0,2.7.018,5.266-.013,7.833-.007.586.175.64.668.489a15.3,15.3,0,0,0,6.689-4.092m-.016-20.642a15.139,15.139,0,0,0-6.675-4.1c-.5-.14-.676-.085-.665.494.034,1.926.013,3.852.013,5.778v2.057l7.328-4.227M44.17,134.547c0-2.776,0-5.434.005-8.092,0-.436-.247-.332-.481-.267a14.99,14.99,0,0,0-6.862,4.121l7.337,4.238m0,12.182-7.339,4.244a15.1,15.1,0,0,0,6.767,4.09c.248.071.582.281.579-.288-.015-2.639-.007-5.279-.007-8.046" transform="translate(-21.409 -86.73)" fill="#030303"/>
        <path id="Trazado_657354" data-name="Trazado 657354" d="M196.921,219.1a4.833,4.833,0,0,1-2.381-3.369,4.583,4.583,0,0,1,2.089-4.751c.139-.1.287-.187.431-.28,2.356-.812,4.266-.418,5.608,1.155a4.59,4.59,0,0,1,.233,5.87,4.69,4.69,0,0,1-5.567,1.535c-.137-.055-.275-.107-.413-.16m3.547-6.2a2.373,2.373,0,0,0-3.185.434,2.46,2.46,0,0,0-.059,3.131,2.438,2.438,0,1,0,3.245-3.565" transform="translate(-136.667 -147.793)" fill="#030303"/>
        <path id="Trazado_657355" data-name="Trazado 657355" d="M81.663,167.437a4.114,4.114,0,0,1,4.833,3.155,4.2,4.2,0,0,1-3.161,4.995,2.793,2.793,0,0,1-1.671-.005c-.093-.114-.181-.232-.279-.342a5.271,5.271,0,0,1-1.181-5.6,6.444,6.444,0,0,1,1.458-2.2m1.848,4.06a1.1,1.1,0,1,0-1.128,1.121,1.112,1.112,0,0,0,1.128-1.121" transform="translate(-56.123 -117.6)" fill="#dde7f4"/>
        <path id="Trazado_657356" data-name="Trazado 657356" d="M85.316,211.3c-.169.016-.339.033-.509.048-.618.054-.833-.183-.82-.842.045-2.308.015-4.618.019-6.927,0-1.09-.108-.96.937-.844.122.014.242.039.363.059l.009,8.507" transform="translate(-59.026 -142.425)" fill="#df5157"/>
        <path id="Trazado_657357" data-name="Trazado 657357" d="M85.351,139.425c-1.3.179-1.3.179-1.3-1.15v-6.191c0-1.283,0-1.283,1.312-1.178l-.01,8.518" transform="translate(-59.069 -91.971)" fill="#df5157"/>
        <path id="Trazado_657358" data-name="Trazado 657358" d="M88.438,211.436l-.009-8.507c1.3-.165,1.3-.165,1.3,1.162q0,3.113,0,6.225c0,1.24,0,1.24-1.294,1.119" transform="translate(-62.148 -142.565)" fill="#ea6e72"/>
        <path id="Trazado_657359" data-name="Trazado 657359" d="M88.431,139.441q0-4.259.01-8.518a.889.889,0,0,1,.145-.027c1.148-.031,1.148-.03,1.148,1.09v6.669c0,.936,0,.936-.936.832-.122-.013-.245-.03-.367-.045" transform="translate(-62.149 -91.987)" fill="#ea6e72"/>
        <path id="Trazado_657360" data-name="Trazado 657360" d="M77.821,167.687a6.439,6.439,0,0,0-1.458,2.2,5.27,5.27,0,0,0,1.181,5.6c.1.109.186.228.279.342a4.132,4.132,0,0,1,0-8.144" transform="translate(-52.28 -117.85)" fill="#b5d6f4"/>
        <path id="Trazado_657361" data-name="Trazado 657361" d="M51.115,160.308c-.607,1.3-.605,1.293-1.808.595q-2.614-1.516-5.233-3.022c-1.13-.649-1.132-.645-.383-1.743,1.739,1.013,3.468,2.043,5.222,3.031a8.257,8.257,0,0,0,2.2,1.138" transform="translate(-30.34 -109.734)" fill="#e7555a"/>
        <path id="Trazado_657362" data-name="Trazado 657362" d="M113.216,196.223c-.64,1.309-.636,1.3-1.846.6-1.89-1.1-3.777-2.2-5.686-3.267-.531-.3-.776-.543-.235-1.041a3.106,3.106,0,0,0,.35-.466,1.53,1.53,0,0,0,.219.19c1.847,1.076,3.682,2.174,5.553,3.207.525.29.982.766,1.645.778" transform="translate(-73.896 -134.971)" fill="#e7555a"/>
        <path id="Trazado_657363" data-name="Trazado 657363" d="M52.342,192.61c.709.929.707.925-.312,1.511q-2.76,1.588-5.515,3.184c-1.051.605-1.052.6-1.6-.527,1.716-1.005,3.421-2.03,5.153-3.007a7.371,7.371,0,0,1,2.274-1.161" transform="translate(-31.565 -135.366)" fill="#ea6e72"/>
        <path id="Trazado_657364" data-name="Trazado 657364" d="M114.758,156.686c.616.939.617.941-.345,1.5q-2.786,1.614-5.574,3.224c-1.033.6-1.033.6-1.5-.548a4.4,4.4,0,0,1,.517-.408c1.448-.835,2.893-1.677,4.359-2.479a8.466,8.466,0,0,1,2.543-1.288" transform="translate(-75.438 -110.118)" fill="#ea6e72"/>
        <path id="Trazado_657365" data-name="Trazado 657365" d="M51.12,189.922a7.37,7.37,0,0,0-2.274,1.161c-1.732.978-3.437,2-5.153,3.007-.744-1.1-.742-1.1.386-1.745,1.916-1.1,3.84-2.189,5.736-3.324.528-.316.851-.4,1.029.3a3.42,3.42,0,0,0,.276.6" transform="translate(-30.344 -132.678)" fill="#e7555a"/>
        <path id="Trazado_657366" data-name="Trazado 657366" d="M113.423,154.142a8.467,8.467,0,0,0-2.543,1.288c-1.466.8-2.911,1.644-4.359,2.479a4.4,4.4,0,0,0-.517.408c-.8-1.089-.8-1.09.342-1.753,1.87-1.083,3.758-2.137,5.6-3.26.6-.366.948-.344,1.212.317.072.18.174.348.262.521" transform="translate(-74.102 -107.574)" fill="#e7555a"/>
        <path id="Trazado_657367" data-name="Trazado 657367" d="M114.762,193.995c-.663-.011-1.12-.488-1.645-.778-1.871-1.033-3.706-2.131-5.553-3.207a1.533,1.533,0,0,1-.219-.19c.462-1.142.463-1.145,1.5-.547q2.789,1.609,5.573,3.224c.961.557.96.558.345,1.5" transform="translate(-75.442 -132.743)" fill="#ea6e72"/>
        <path id="Trazado_657368" data-name="Trazado 657368" d="M52.345,158.085a8.257,8.257,0,0,1-2.2-1.138c-1.753-.988-3.483-2.018-5.222-3.031a1.15,1.15,0,0,1,.071-.209c.512-.9.512-.9,1.4-.386q2.821,1.628,5.643,3.254c1.02.586,1.022.583.311,1.51" transform="translate(-31.57 -107.511)" fill="#ea6e72"/>
        <path id="Trazado_657369" data-name="Trazado 657369" d="M205.6,222.222a2.38,2.38,0,0,1-3.105-.581,2.46,2.46,0,0,1,.059-3.131,2.373,2.373,0,0,1,3.185-.434c-.393.073-.454.434-.544.712a3.943,3.943,0,0,0,.405,3.433" transform="translate(-141.937 -152.967)" fill="#b5d6f4"/>
        <path id="Trazado_657370" data-name="Trazado 657370" d="M212.726,223.22a3.943,3.943,0,0,1-.405-3.433c.091-.279.151-.639.544-.712a2.37,2.37,0,0,1-.139,4.146" transform="translate(-149.064 -153.964)" fill="#d7e8f8"/>
        <path id="Trazado_657371" data-name="Trazado 657371" d="M86.946,178.759a1.1,1.1,0,1,1-1.078-1.095,1.118,1.118,0,0,1,1.078,1.095" transform="translate(-59.558 -124.862)" fill="#030303"/>
      </g>
    </g>
  </g>
</svg>
