<svg xmlns="http://www.w3.org/2000/svg" xmlns:xlink="http://www.w3.org/1999/xlink" width="295" height="367" viewBox="0 0 295 367">
  <defs>
    <clipPath id="clip-path">
      <rect id="Rectángulo_312892" data-name="Rectángulo 312892" width="130" height="124.111" fill="none"/>
    </clipPath>
  </defs>
  <g id="Grupo_995945" data-name="Grupo 995945" transform="translate(-180 -707)">
    <rect id="Rectángulo_312845" data-name="Rectángulo 312845" width="295" height="367" rx="18" transform="translate(180 707)" fill="#ffd357"/>
    <g id="Grupo_995941" data-name="Grupo 995941" transform="translate(206.643 1010.114)">
      <rect id="Rectángulo_308408" data-name="Rectángulo 308408" width="241.714" height="34" rx="17" fill="#fff"/>
      <path id="Trazado_659169" data-name="Trazado 659169" d="M12.2,12.07H7.7v3.047h5.281V17H5.361V5.625H12.97v1.9H7.7v2.711h4.5ZM16.29,8.547l.07.977a2.951,2.951,0,0,1,2.43-1.133,2.453,2.453,0,0,1,2,.789,3.682,3.682,0,0,1,.672,2.359V17H19.2V11.594a1.465,1.465,0,0,0-.312-1.043,1.4,1.4,0,0,0-1.039-.324,1.553,1.553,0,0,0-1.43.813V17H14.165V8.547Zm10.4,6.789a1.481,1.481,0,0,0,1.016-.344,1.2,1.2,0,0,0,.406-.914h2.117a2.9,2.9,0,0,1-.469,1.574A3.093,3.093,0,0,1,28.5,16.762a3.949,3.949,0,0,1-1.77.395A3.67,3.67,0,0,1,23.868,16a4.56,4.56,0,0,1-1.047-3.184v-.148a4.508,4.508,0,0,1,1.039-3.117,3.627,3.627,0,0,1,2.852-1.164,3.555,3.555,0,0,1,2.543.9,3.2,3.2,0,0,1,.973,2.4H28.111a1.551,1.551,0,0,0-.406-1.072,1.51,1.51,0,0,0-2.223.163,3.333,3.333,0,0,0-.4,1.866v.235a3.375,3.375,0,0,0,.4,1.878A1.377,1.377,0,0,0,26.689,15.336Zm9.891.8a2.831,2.831,0,0,1-2.312,1.016,2.67,2.67,0,0,1-2.074-.781,3.335,3.335,0,0,1-.73-2.289V8.547H33.72v5.467q0,1.322,1.2,1.322a1.63,1.63,0,0,0,1.578-.8V8.547h2.266V17H36.642Zm7.781,1.016a4.15,4.15,0,0,1-3.027-1.141,4.054,4.054,0,0,1-1.168-3.039v-.219a5.106,5.106,0,0,1,.492-2.277,3.612,3.612,0,0,1,1.395-1.547,3.914,3.914,0,0,1,2.059-.543,3.508,3.508,0,0,1,2.73,1.094,4.444,4.444,0,0,1,1,3.1v.922H42.454a2.1,2.1,0,0,0,.66,1.328,2,2,0,0,0,1.395.5,2.437,2.437,0,0,0,2.039-.945l1.109,1.242a3.389,3.389,0,0,1-1.375,1.121A4.511,4.511,0,0,1,44.361,17.156ZM44.1,10.211a1.411,1.411,0,0,0-1.09.455,2.357,2.357,0,0,0-.535,1.3h3.141v-.181a1.681,1.681,0,0,0-.406-1.165A1.456,1.456,0,0,0,44.1,10.211ZM51.2,8.547l.07.977A2.951,2.951,0,0,1,53.7,8.391a2.453,2.453,0,0,1,2,.789,3.682,3.682,0,0,1,.672,2.359V17H54.111V11.594a1.465,1.465,0,0,0-.312-1.043,1.4,1.4,0,0,0-1.039-.324,1.553,1.553,0,0,0-1.43.813V17H49.072V8.547Zm9.586-2.078V8.547h1.445V10.2H60.782v4.219a1.007,1.007,0,0,0,.18.672.9.9,0,0,0,.688.2,3.6,3.6,0,0,0,.664-.055v1.711a4.648,4.648,0,0,1-1.367.2,2.156,2.156,0,0,1-2.422-2.4V10.2H57.29V8.547h1.234V6.469Zm7.453,4.2a6.134,6.134,0,0,0-.812-.062,1.654,1.654,0,0,0-1.68.867V17H63.486V8.547h2.133l.063,1.008a2.092,2.092,0,0,1,1.883-1.164,2.366,2.366,0,0,1,.7.1Zm.453,2.031a5.013,5.013,0,0,1,.484-2.242A3.546,3.546,0,0,1,70.568,8.93a4.069,4.069,0,0,1,2.113-.539,3.849,3.849,0,0,1,2.793,1.047,4.2,4.2,0,0,1,1.207,2.844l.016.578a4.418,4.418,0,0,1-1.086,3.121,4.209,4.209,0,0,1-5.832,0,4.5,4.5,0,0,1-1.09-3.187Zm2.258.16A3.16,3.16,0,0,0,71.4,14.7a1.628,1.628,0,0,0,2.578.008,3.457,3.457,0,0,0,.461-2.015,3.128,3.128,0,0,0-.461-1.831,1.5,1.5,0,0,0-1.3-.649,1.474,1.474,0,0,0-1.281.646A3.516,3.516,0,0,0,70.947,12.856Zm11.719,1.808a.727.727,0,0,0-.41-.652,4.659,4.659,0,0,0-1.316-.426q-3.016-.633-3.016-2.562a2.323,2.323,0,0,1,.934-1.879A3.766,3.766,0,0,1,81.3,8.391a4.053,4.053,0,0,1,2.574.758,2.388,2.388,0,0,1,.965,1.969H82.579a1.092,1.092,0,0,0-.312-.8A1.322,1.322,0,0,0,81.29,10a1.351,1.351,0,0,0-.883.258.814.814,0,0,0-.312.656.7.7,0,0,0,.355.605,3.657,3.657,0,0,0,1.2.4,9.8,9.8,0,0,1,1.422.379,2.336,2.336,0,0,1,1.789,2.273,2.2,2.2,0,0,1-.992,1.871,4.28,4.28,0,0,1-2.562.715,4.47,4.47,0,0,1-1.887-.379,3.166,3.166,0,0,1-1.293-1.039,2.414,2.414,0,0,1-.469-1.426H79.8a1.179,1.179,0,0,0,.445.922,1.766,1.766,0,0,0,1.109.32,1.635,1.635,0,0,0,.98-.246A.766.766,0,0,0,82.665,14.664Zm11.523,2.492a4.15,4.15,0,0,1-3.027-1.141,4.054,4.054,0,0,1-1.168-3.039v-.219a5.106,5.106,0,0,1,.492-2.277A3.612,3.612,0,0,1,91.88,8.934a3.914,3.914,0,0,1,2.059-.543,3.508,3.508,0,0,1,2.73,1.094,4.444,4.444,0,0,1,1,3.1v.922H92.282a2.1,2.1,0,0,0,.66,1.328,2,2,0,0,0,1.395.5,2.437,2.437,0,0,0,2.039-.945l1.109,1.242a3.389,3.389,0,0,1-1.375,1.121A4.511,4.511,0,0,1,94.189,17.156Zm-.258-6.945a1.411,1.411,0,0,0-1.09.455,2.357,2.357,0,0,0-.535,1.3h3.141v-.181a1.681,1.681,0,0,0-.406-1.165A1.456,1.456,0,0,0,93.931,10.211Zm9.594,4.453a.727.727,0,0,0-.41-.652,4.659,4.659,0,0,0-1.316-.426q-3.016-.633-3.016-2.562a2.323,2.323,0,0,1,.934-1.879,3.766,3.766,0,0,1,2.441-.754,4.053,4.053,0,0,1,2.574.758,2.388,2.388,0,0,1,.965,1.969h-2.258a1.092,1.092,0,0,0-.312-.8A1.322,1.322,0,0,0,102.15,10a1.351,1.351,0,0,0-.883.258.814.814,0,0,0-.312.656.7.7,0,0,0,.355.605,3.657,3.657,0,0,0,1.2.4,9.8,9.8,0,0,1,1.422.379,2.336,2.336,0,0,1,1.789,2.273,2.2,2.2,0,0,1-.992,1.871,4.28,4.28,0,0,1-2.562.715,4.47,4.47,0,0,1-1.887-.379,3.166,3.166,0,0,1-1.293-1.039,2.414,2.414,0,0,1-.469-1.426h2.141a1.179,1.179,0,0,0,.445.922,1.766,1.766,0,0,0,1.109.32,1.635,1.635,0,0,0,.98-.246A.766.766,0,0,0,103.525,14.664Zm11.258-1.812a5.07,5.07,0,0,1-.887,3.129,2.843,2.843,0,0,1-2.395,1.176,2.633,2.633,0,0,1-2.07-.891V20.25h-2.258V8.547h2.094l.078.828a2.654,2.654,0,0,1,2.141-.984,2.862,2.862,0,0,1,2.43,1.156,5.207,5.207,0,0,1,.867,3.188Zm-2.258-.164a3.327,3.327,0,0,0-.418-1.82,1.361,1.361,0,0,0-1.215-.641,1.478,1.478,0,0,0-1.461.813V14.5a1.5,1.5,0,0,0,1.477.836Q112.525,15.336,112.525,12.688Zm7.547,4.469a4.15,4.15,0,0,1-3.027-1.141,4.054,4.054,0,0,1-1.168-3.039v-.219a5.106,5.106,0,0,1,.492-2.277,3.612,3.612,0,0,1,1.395-1.547,3.914,3.914,0,0,1,2.059-.543,3.508,3.508,0,0,1,2.73,1.094,4.444,4.444,0,0,1,1,3.1v.922h-5.383a2.1,2.1,0,0,0,.66,1.328,2,2,0,0,0,1.395.5,2.437,2.437,0,0,0,2.039-.945l1.109,1.242a3.389,3.389,0,0,1-1.375,1.121A4.511,4.511,0,0,1,120.072,17.156Zm-.258-6.945a1.411,1.411,0,0,0-1.09.455,2.357,2.357,0,0,0-.535,1.3h3.141v-.181a1.681,1.681,0,0,0-.406-1.165A1.456,1.456,0,0,0,119.814,10.211Zm8.531,5.125a1.481,1.481,0,0,0,1.016-.344,1.2,1.2,0,0,0,.406-.914h2.117a2.9,2.9,0,0,1-.469,1.574,3.093,3.093,0,0,1-1.262,1.109,3.949,3.949,0,0,1-1.77.395A3.67,3.67,0,0,1,125.525,16a4.56,4.56,0,0,1-1.047-3.184v-.148a4.508,4.508,0,0,1,1.039-3.117,3.627,3.627,0,0,1,2.852-1.164,3.555,3.555,0,0,1,2.543.9,3.2,3.2,0,0,1,.973,2.4h-2.117a1.551,1.551,0,0,0-.406-1.072,1.51,1.51,0,0,0-2.223.163,3.333,3.333,0,0,0-.4,1.866v.235a3.375,3.375,0,0,0,.4,1.878A1.377,1.377,0,0,0,128.345,15.336ZM135.556,17H133.29V8.547h2.266Zm-2.4-10.641a1.112,1.112,0,0,1,.34-.836,1.465,1.465,0,0,1,1.848,0,1.105,1.105,0,0,1,.344.836,1.109,1.109,0,0,1-.348.844,1.448,1.448,0,0,1-1.836,0A1.109,1.109,0,0,1,133.157,6.359ZM142.314,17a2.507,2.507,0,0,1-.227-.758,2.732,2.732,0,0,1-2.133.914,3,3,0,0,1-2.059-.719,2.312,2.312,0,0,1-.816-1.812,2.389,2.389,0,0,1,1-2.062,4.915,4.915,0,0,1,2.879-.727h1.039v-.484a1.393,1.393,0,0,0-.3-.937,1.183,1.183,0,0,0-.949-.352,1.345,1.345,0,0,0-.895.273.929.929,0,0,0-.324.75h-2.258a2.268,2.268,0,0,1,.453-1.359A3,3,0,0,1,139,8.746a4.669,4.669,0,0,1,1.859-.355,3.689,3.689,0,0,1,2.48.785,2.747,2.747,0,0,1,.918,2.207v3.664a4.041,4.041,0,0,0,.336,1.82V17Zm-1.867-1.57a1.945,1.945,0,0,0,.922-.223,1.462,1.462,0,0,0,.625-.6V13.156h-.844q-1.7,0-1.8,1.172l-.008.133a.9.9,0,0,0,.3.7A1.153,1.153,0,0,0,140.447,15.43Zm7.93,1.57h-2.266V5h2.266Zm4.242,0h-2.266V8.547h2.266Zm-2.4-10.641a1.112,1.112,0,0,1,.34-.836,1.465,1.465,0,0,1,1.848,0,1.105,1.105,0,0,1,.344.836,1.109,1.109,0,0,1-.348.844,1.448,1.448,0,0,1-1.836,0A1.109,1.109,0,0,1,150.22,6.359Zm6.852,8.82H161.2V17h-7.016V15.625l3.977-5.258h-3.859V8.547h6.773v1.33ZM167.517,17a2.507,2.507,0,0,1-.227-.758,2.732,2.732,0,0,1-2.133.914,3,3,0,0,1-2.059-.719,2.312,2.312,0,0,1-.816-1.812,2.389,2.389,0,0,1,1-2.062,4.915,4.915,0,0,1,2.879-.727H167.2v-.484a1.393,1.393,0,0,0-.3-.937,1.183,1.183,0,0,0-.949-.352,1.345,1.345,0,0,0-.895.273.929.929,0,0,0-.324.75H162.47a2.268,2.268,0,0,1,.453-1.359,3,3,0,0,1,1.281-.98,4.669,4.669,0,0,1,1.859-.355,3.689,3.689,0,0,1,2.48.785,2.747,2.747,0,0,1,.918,2.207v3.664a4.041,4.041,0,0,0,.336,1.82V17Zm-1.867-1.57a1.945,1.945,0,0,0,.922-.223,1.462,1.462,0,0,0,.625-.6V13.156h-.844q-1.7,0-1.8,1.172l-.008.133a.9.9,0,0,0,.3.7A1.153,1.153,0,0,0,165.65,15.43Zm5.2-2.719a5.094,5.094,0,0,1,.887-3.148,2.877,2.877,0,0,1,2.426-1.172,2.589,2.589,0,0,1,2.039.922V5h2.266V17h-2.039l-.109-.9a2.657,2.657,0,0,1-2.172,1.055,2.869,2.869,0,0,1-2.395-1.176A5.258,5.258,0,0,1,170.845,12.711Zm2.258.168a3.337,3.337,0,0,0,.414,1.823,1.349,1.349,0,0,0,1.2.634,1.511,1.511,0,0,0,1.477-.884V11.111a1.489,1.489,0,0,0-1.461-.884Q173.1,10.227,173.1,12.879Zm6.758-.184a5.013,5.013,0,0,1,.484-2.242A3.546,3.546,0,0,1,181.74,8.93a4.069,4.069,0,0,1,2.113-.539,3.849,3.849,0,0,1,2.793,1.047,4.2,4.2,0,0,1,1.207,2.844l.016.578a4.418,4.418,0,0,1-1.086,3.121,4.209,4.209,0,0,1-5.832,0,4.5,4.5,0,0,1-1.09-3.187Zm2.258.16a3.16,3.16,0,0,0,.453,1.843,1.628,1.628,0,0,0,2.578.008,3.457,3.457,0,0,0,.461-2.015,3.128,3.128,0,0,0-.461-1.831,1.5,1.5,0,0,0-1.3-.649,1.474,1.474,0,0,0-1.281.646A3.516,3.516,0,0,0,182.118,12.856Zm11.719,1.808a.727.727,0,0,0-.41-.652,4.659,4.659,0,0,0-1.316-.426q-3.016-.633-3.016-2.562a2.323,2.323,0,0,1,.934-1.879,3.766,3.766,0,0,1,2.441-.754,4.053,4.053,0,0,1,2.574.758,2.388,2.388,0,0,1,.965,1.969h-2.258a1.092,1.092,0,0,0-.312-.8,1.322,1.322,0,0,0-.977-.316,1.351,1.351,0,0,0-.883.258.814.814,0,0,0-.312.656.7.7,0,0,0,.355.605,3.657,3.657,0,0,0,1.2.4,9.8,9.8,0,0,1,1.422.379,2.336,2.336,0,0,1,1.789,2.273,2.205,2.205,0,0,1-.992,1.871,4.28,4.28,0,0,1-2.562.715,4.47,4.47,0,0,1-1.887-.379,3.166,3.166,0,0,1-1.293-1.039,2.414,2.414,0,0,1-.469-1.426h2.141a1.179,1.179,0,0,0,.445.922,1.766,1.766,0,0,0,1.109.32,1.635,1.635,0,0,0,.98-.246A.766.766,0,0,0,193.837,14.664Z" transform="translate(20.5 7)" fill="#12263f"/>
    </g>
    <g id="Grupo_996223" data-name="Grupo 996223">
      <circle id="Elipse_8217" data-name="Elipse 8217" cx="95.354" cy="95.354" r="95.354" transform="translate(232.146 795.146)" fill="#ffda72"/>
      <g id="Grupo_995978" data-name="Grupo 995978" transform="translate(262.5 828.443)">
        <g id="Grupo_995978-2" data-name="Grupo 995978" clip-path="url(#clip-path)">
          <path id="Trazado_658065" data-name="Trazado 658065" d="M62.58,122.255c-.294,1.4-1.187,1.859-2.573,1.856-14.553-.026-29.107-.008-43.661-.022-3.836,0-6.123-2.317-6.142-6.184-.023-4.653-.07-9.308.009-13.96.132-7.759,3.822-13.2,10.926-16.31,2.46-1.078,4.935-2.121,7.517-3.229a10.154,10.154,0,0,1-4.136-9.086c.1-2.576,0-5.16.032-7.74a1.7,1.7,0,0,0-.615-1.411,10.288,10.288,0,0,1,.036-15.632,1.748,1.748,0,0,0,.581-1.424c.072-3.506-.213-7.017.221-10.52,1.273-10.26,10.172-19.07,20.481-19.941C50.6,18.2,55.98,17.968,61.3,19.1a17.41,17.41,0,0,1,4.4,1.555c.641.333.929.223,1.226-.422A32.211,32.211,0,0,1,71.237,13.4c1.127-1.39,1.654-1.513,3.256-.756.842,1.156.571,2.158-.306,3.192a27.835,27.835,0,0,0-3.973,6.314c-.163.35-.586.756-.125,1.13a37.65,37.65,0,0,1,3.527,3.31c.156-.359.238-.55.321-.739C78.186,16.1,85.545,10.419,96.1,8.922a28.632,28.632,0,0,1,10.923.895l.023-.028c.129.221.346.214.559.213.189.089.372.193.567.263a27.164,27.164,0,0,1,10.456,44.52,29.147,29.147,0,0,1-11.036,6.975,4.061,4.061,0,0,0-.5.081A26.842,26.842,0,0,1,84.28,58.558c-.219-.139-.42-.461-.789-.224a11.267,11.267,0,0,1-.882,4.044c-.287.615-.12.9.413,1.2A31.184,31.184,0,0,0,97.7,67.855a25.668,25.668,0,0,0,6.2-.266c22.557-3.487,34.528-28.533,22.758-48.037C120.166,8.8,110.348,3.585,97.7,3.931A30.289,30.289,0,0,0,81.309,9.285c-1.14.762-2.135.942-3.184-.046-.577-1.562-.391-2.141.986-3.089C99.963-8.2,129.456,3.884,134.3,28.767A35.849,35.849,0,0,1,104.21,71.381a35.056,35.056,0,0,1-23.287-4.628c-1.351-.792-1.644-.619-1.649,1-.006,2.158-.085,4.32.017,6.474C79.48,78.218,78.736,81.8,75.1,84.4c2.746,1.176,5.3,2.241,7.837,3.363A17,17,0,0,1,92.979,99.433a18.607,18.607,0,0,1,.526,4.775q.02,6.728,0,13.456c-.009,4.191-2.239,6.423-6.418,6.429-5.671.008-11.342-.021-17.012.018a2.2,2.2,0,0,1-2.545-1.887c.487-1.595.94-1.935,2.631-1.943q6.909-.036,13.817-.063c1.056.021,2.112.06,3.167.058,1.936,0,2.529-.57,2.534-2.467.013-4.653.055-9.308-.01-13.96-.083-5.965-2.9-10.186-8.355-12.614-2.428-1.081-4.944-1.98-7.311-3.177A20.13,20.13,0,0,0,64.248,86c-2.146.04-3.616.342-4.018,2.663-2.14,3.333-5.158,5.158-9.145,4.777a9.132,9.132,0,0,1-8.251-6.66c-.215-.638-.578-.711-1.133-.705-1.945.019-3.892.035-5.836,0a6.2,6.2,0,0,0-2.689.556c-3.513,1.541-7.055,3.02-10.579,4.537-5.69,2.449-8.538,6.792-8.572,12.972-.024,4.4-.006,8.8,0,13.194,0,2.526.421,2.948,2.945,2.948q21.443,0,42.886,0c1.809,0,2.261.335,2.73,1.974M51.725,81.125a10.368,10.368,0,0,0-2.136-.2c-1.155.121-2.608-1.234-3.3-.053-.55.938-.2,2.484-.048,3.733a5.21,5.21,0,0,0,3.138,4.423c3.232,1.925,7.958-.43,8.2-4.645.062-1.091,0-2.189.032-3.282.017-.583-.094-.882-.771-.679a24.674,24.674,0,0,1-5.11.708m48.26-62.2a11.6,11.6,0,0,0-5.969,1.392,3.88,3.88,0,0,0-2.168,3.445A3.8,3.8,0,0,0,93.9,27.738c0-.884-.008-1.64,0-2.4a3.867,3.867,0,0,1,3.1-4.07,11.991,11.991,0,0,1,5.523-.108c.236.09.469.188.707.269a10.654,10.654,0,0,1,7.23,9.5c.215,3.8-1.37,6.789-4.358,9.241.79.211.8,1.893,2.055.871a12.6,12.6,0,0,0-8.175-22.122M96.951,50.1c-2.512-.957-3.045-1.825-3.058-4.854,0-1.055.035-2.055,1.183-2.563a1.938,1.938,0,0,1,2.433.789c2.151-2.038,1.175-4.5.117-6.209-1.37-2.214-3.685-3.843-5.727-5.856,0,5.869-.078,11.53.041,17.187a4.3,4.3,0,0,0,3.308,4.18c3.678.961,6.872-.849,7.694-4.4a15.779,15.779,0,0,0,.289-2.388,2.752,2.752,0,0,1,.469-1.681c.861-.985-.125-1.389-.615-1.763-.706-.537-.851.356-1.1.713a5.081,5.081,0,0,0-.774,2.763c-.148,2.775-1.492,4.038-4.257,4.081M65.169,76.2q-1.624,1.1-3.247,2.209a1.029,1.029,0,0,0-.5.53c-.845,2.587.122,3.713,2.756,3.192,2.068.007,4.138.078,6.2,0A5.291,5.291,0,0,0,75.317,77.5c.161-2.693.061-5.4.07-8.1,0-.344-.006-.74-.488-.72-1.346.055-2.69.139-4.035.227-.339.022-.488.3-.614.576A22.384,22.384,0,0,1,65.169,76.2M113.2,41.268c-.5.554-.979,1.122-1.493,1.659-1.444,1.505-1.449,1.5.207,2.907,1.416,1.449,2.882,2.853,4.227,4.365.7.789,1.027.605,1.568-.132A23.322,23.322,0,0,0,122.09,31.5c-1.937-11.044-12.582-19.573-23.628-18.907a9.368,9.368,0,0,0-2.52.188,22.858,22.858,0,0,0-11.157,4.75c-.271.211-.894.381-.338.938,1.218,1.222,2.429,2.45,3.74,3.773a7.861,7.861,0,0,1,5.04-5.78,17.1,17.1,0,0,1,9.294-1.214c.452.106.9.208,1.355.32A16.521,16.521,0,0,1,116.312,31.28a17.312,17.312,0,0,1-3.115,9.987m-3.313,8.111-2.835-2.664c-.064.447-.137.9-.191,1.358-.649,5.549-4.972,9.043-10.654,8.767-3.749-.182-8.327-3.326-8.165-9.635.159-6.213.034-12.434.036-18.652a1.9,1.9,0,0,0-.5-1.6q-2.839-2.721-5.562-5.561c-.551-.574-.812-.434-1.232.113a24.171,24.171,0,0,0-4.166,8.324,2.147,2.147,0,0,0,.2,1.671,23.423,23.423,0,0,1,1.868,5.227c.806,3.38.522,6.812.588,10.229a2.6,2.6,0,0,0,.3,1.58C84.313,55.42,90.813,59.05,99.214,59.182a22.868,22.868,0,0,0,14.5-5.058c.432-.334.494-.557.062-.963-1.318-1.238-2.6-2.518-3.892-3.782M60.868,41.527c-.335-.017-.674-.009-1.005-.054-1.869-.26-3.01.475-3.879,2.213a7.466,7.466,0,0,1-7.673,3.757,1.909,1.909,0,0,1-1.785-1.8c.3-1.523.824-2.063,2.379-2.018a4.244,4.244,0,0,0,4.286-2.674,5.7,5.7,0,0,1,5.417-3.276c2.106-.019,4.211-.018,6.317-.025a8.379,8.379,0,0,1,7.35,7.958c.1,2.127.077,2.1,2.135,2.435.729.118,1-.06.991-.816-.031-1.816-.028-3.633-.008-5.449a18.282,18.282,0,0,0-3.555-11.138,19.177,19.177,0,0,0-16.825-8.34,61.1,61.1,0,0,0-8.868.1c-8.281.972-13.787,5.495-16.74,13.213-1.256,3.281-1.063,6.73-1.051,10.152.009,2.234,0,2.232,2.14,2.132a5.822,5.822,0,0,1,1.014,0,1.614,1.614,0,0,0,1.656-.848,7.7,7.7,0,0,1,5.744-3.3c1.611-.154,2.2.269,2.527,1.9-.15,1.37-1.092,1.739-2.285,1.917a4.223,4.223,0,0,0-3.75,4.124c-.062,1.1-.05,2.2-.022,3.3.08,3.036-.254,6.087.337,9.105,1.525,7.776,9.205,13.782,16.777,13.114,7.646-.054,14.854-6.3,15.708-13.907.662-5.888.243-11.824.2-17.737a4.229,4.229,0,0,0-4.371-4.065c-1.055-.018-2.111.027-3.166.044M37.373,82.172V82.2c1.31,0,2.619.008,3.928-.005.323,0,.692.1.942-.214.485-.619-.011-3.364-.7-3.774A17.289,17.289,0,0,1,34.9,71.744c-1.1-2.028-2.219-3.455-4.746-2.932a2.025,2.025,0,0,1-.745-.123c-.712-.147-1.091-.008-1.071.867.053,2.449-.03,4.9.041,7.347a5.5,5.5,0,0,0,5.194,5.259c1.264.059,2.533.01,3.8.01m-5.808-24.11c0-2.026-.024-3.719.012-5.409.015-.7-.168-.971-.926-.941A6.661,6.661,0,1,0,31.2,65.022c.661-.034.8-.265.674-.846a32.77,32.77,0,0,1-.313-6.114m48.072.355a6.706,6.706,0,0,0-6.07-6.66c-.943-.123-1.316.026-1.324,1.126-.031,3.84.335,7.7-.338,11.516-.115.65.3.559.674.587a6.689,6.689,0,0,0,7.059-6.569m26.481-29.411a6.642,6.642,0,0,0-6.393-4.3c-1.948.031-2.013.1-2.016,2.031,0,1.995-.248,2.372-1.865,2.938l3.092,3.165a8.1,8.1,0,0,1,7.182-3.837m.387,3.931c-2.149-.188-3.7.641-4.43,2.167-.488,1.022.436,1.291.853,1.833.492.64.882.135,1.249-.161a6.38,6.38,0,0,0,2.329-3.839" transform="translate(-4.993 0)" fill="#040303"/>
          <path id="Trazado_658066" data-name="Trazado 658066" d="M87.689,203.256q-6.908.031-13.817.063c-1.692.009-2.145.349-2.632,1.944l-4.952.031c-.469-1.639-.921-1.974-2.73-1.974q-21.442,0-42.885,0c-2.523,0-2.944-.422-2.945-2.948,0-4.4-.019-8.8,0-13.194.034-6.18,2.882-10.523,8.572-12.972,3.525-1.517,7.065-3,10.579-4.537a6.2,6.2,0,0,1,2.689-.556c1.945.039,3.891.023,5.836,0,.555-.006.918.067,1.133.705a9.134,9.134,0,0,0,8.251,6.66c3.986.381,7-1.444,9.144-4.777,4.721,2.023,9.469,3.988,14.157,6.084,6.267,2.8,9.476,7.7,9.586,14.573.058,3.631.01,7.263.01,10.9" transform="translate(-8.701 -83.038)" fill="#f9e085"/>
          <path id="Trazado_658067" data-name="Trazado 658067" d="M135.733,13.032c1.048.988,2.044.808,3.184.046a30.287,30.287,0,0,1,16.391-5.353,37.437,37.437,0,0,1,8.645,4.8c.366.288.8.5.679,1.083a28.635,28.635,0,0,0-10.924-.894c-10.555,1.5-17.914,7.175-22.164,16.926-.082.189-.164.379-.32.739a37.52,37.52,0,0,0-3.527-3.31c-.461-.375-.038-.78.125-1.13a27.855,27.855,0,0,1,3.974-6.314c.877-1.034,1.148-2.036.306-3.192a22.3,22.3,0,0,1,3.631-3.4" transform="translate(-62.601 -3.793)" fill="#e86c71"/>
          <path id="Trazado_658068" data-name="Trazado 658068" d="M0,102.961a16.389,16.389,0,0,1,4.58-10.7C5.6,91.172,6.7,91,7.569,91.764c.9.79.826,1.938-.208,3.108-4.776,5.409-4.75,12.576.065,18.052.965,1.1,1.028,2.234.167,3.018-.89.81-1.932.656-2.986-.443C1.69,112.459,0,108.209,0,102.961" transform="translate(0 -44.83)" fill="#040404"/>
          <path id="Trazado_658069" data-name="Trazado 658069" d="M13.13,109.084a9.416,9.416,0,0,1,2.528-6.433,1.959,1.959,0,0,1,2.8-.383c.9.748.918,1.827.059,2.9-2.1,2.636-2.093,5.086.024,7.774a1.917,1.917,0,0,1-.017,2.817,1.964,1.964,0,0,1-2.9-.357,9.567,9.567,0,0,1-2.495-6.322" transform="translate(-6.447 -50.005)" fill="#040404"/>
          <path id="Trazado_658070" data-name="Trazado 658070" d="M58.962,67.034c-.331-1.627-.917-2.051-2.527-1.9a7.7,7.7,0,0,0-5.744,3.3,1.613,1.613,0,0,1-1.656.848,5.823,5.823,0,0,0-1.014,0c-2.138.1-2.132.1-2.14-2.132-.013-3.423-.205-6.871,1.051-10.152C49.884,49.29,55.39,44.767,63.671,43.8a61.178,61.178,0,0,1,8.868-.1c.095.431.505.553.8.765a22.159,22.159,0,0,1,9.114,14.586c-2.106.008-4.212.007-6.317.025a5.7,5.7,0,0,0-5.416,3.276,4.245,4.245,0,0,1-4.286,2.674c-1.555-.045-2.076.494-2.379,2.018a33.257,33.257,0,0,0-5.09,0" transform="translate(-22.52 -21.401)" fill="#655e66"/>
          <path id="Trazado_658071" data-name="Trazado 658071" d="M65.733,85.6a33.257,33.257,0,0,1,5.09,0,1.909,1.909,0,0,0,1.785,1.8,7.465,7.465,0,0,0,7.673-3.757c.869-1.739,2.011-2.474,3.879-2.213.331.046.67.038,1.006.054.614,1.051,1.468,2.043,1.495,3.3a52.762,52.762,0,0,1-.079,6.826,1.886,1.886,0,0,0-2.347-1.558c-1.236.256-1.495,1.212-1.486,2.31.007.8.015,1.6,0,2.4-.022,1.054.243,1.955,1.352,2.308a1.907,1.907,0,0,0,2.379-1.149c.476,1.823.193,3.678.194,5.514a16.648,16.648,0,0,1-3.413,9.978,21,21,0,0,1-6.471,5.732c-7.571.668-15.252-5.338-16.777-13.114-.591-3.018-.258-6.069-.337-9.105-.028-1.1-.04-2.2.022-3.3a4.223,4.223,0,0,1,3.75-4.124c1.194-.178,2.135-.548,2.285-1.917M76.172,112.5a10.7,10.7,0,0,0,7.458-2.926,1.926,1.926,0,0,0,.316-2.8,1.892,1.892,0,0,0-2.811-.079c-3.412,2.722-6.479,2.736-9.832.044-1.037-.833-2.051-.836-2.812-.011a1.9,1.9,0,0,0,.333,2.888,10.517,10.517,0,0,0,7.347,2.884M71.112,99.559a2.2,2.2,0,0,0,.408,1.473c1.152,1.287,2.293,2.592,3.537,3.788a1.653,1.653,0,0,0,2.4-.072,1.75,1.75,0,0,0,.248-2.505,10.256,10.256,0,0,0-1.7-1.863c-.76-.63-.61-1.09-.023-1.718A16.674,16.674,0,0,0,77.8,96.394a1.709,1.709,0,0,0-.369-2.388A1.68,1.68,0,0,0,75.014,94,34.05,34.05,0,0,0,71.4,98.384a2.383,2.383,0,0,0-.291,1.175m-5.257-6.006c0,.59-.032,1.183.007,1.771a1.861,1.861,0,0,0,1.856,1.852A1.776,1.776,0,0,0,69.61,95.5a20.51,20.51,0,0,0-.014-3.913,1.7,1.7,0,0,0-1.953-1.574,1.744,1.744,0,0,0-1.777,1.771c-.046.587-.008,1.18-.011,1.77" transform="translate(-29.291 -39.962)" fill="#f4cdbf"/>
          <path id="Trazado_658072" data-name="Trazado 658072" d="M191.47,13.593c.12-.579-.313-.794-.679-1.083a37.477,37.477,0,0,0-8.645-4.8c12.648-.347,22.466,4.868,28.955,15.62,11.77,19.5-.2,44.55-22.758,48.037a25.616,25.616,0,0,1-6.2.266c1.7-.917,3.583-1.464,5.2-2.546s3.447-1.941,4.69-3.547a29.153,29.153,0,0,0,11.036-6.975A27.165,27.165,0,0,0,192.62,14.041c-.2-.07-.378-.175-.567-.263a.489.489,0,0,0-.559-.213Z" transform="translate(-89.439 -3.777)" fill="#e65559"/>
          <path id="Trazado_658073" data-name="Trazado 658073" d="M163.235,79.463c-8.4-.132-14.9-3.762-19.645-10.649a2.606,2.606,0,0,1-.3-1.58c-.066-3.417.218-6.849-.588-10.229a23.413,23.413,0,0,0-1.868-5.227,2.146,2.146,0,0,1-.2-1.67,24.157,24.157,0,0,1,4.166-8.324c.42-.547.681-.687,1.232-.113q2.726,2.834,5.563,5.561a1.909,1.909,0,0,1,.5,1.6c0,6.218.124,12.439-.036,18.652-.162,6.309,4.416,9.453,8.165,9.635,5.682.275,10-3.218,10.654-8.767.053-.457.127-.911.19-1.358L173.9,69.66a1.009,1.009,0,0,1-.084.365,25.847,25.847,0,0,1-9.5,8.492c-.436.211-1,.313-1.082.946" transform="translate(-69.013 -20.28)" fill="#e0f1f8"/>
          <path id="Trazado_658074" data-name="Trazado 658074" d="M132.277,203.184c0-3.632.048-7.264-.01-10.9-.109-6.869-3.318-11.77-9.586-14.573-4.688-2.1-9.436-4.061-14.157-6.084.4-2.321,1.872-2.623,4.019-2.663a20.123,20.123,0,0,1,9.759,2.056c2.367,1.2,4.883,2.1,7.311,3.177,5.454,2.427,8.272,6.649,8.356,12.614.065,4.652.022,9.307.01,13.96-.005,1.9-.6,2.463-2.534,2.466-1.056,0-2.112-.037-3.167-.058" transform="translate(-53.289 -82.966)" fill="#f6d06e"/>
          <path id="Trazado_658075" data-name="Trazado 658075" d="M183.644,24.7c11.046-.667,21.691,7.864,23.628,18.907a23.32,23.32,0,0,1-4.383,18.567c-.542.736-.866.92-1.569.131-1.345-1.512-2.811-2.916-4.227-4.364.421-1.524,1.311-2.916,1.286-4.566a17.312,17.312,0,0,0,3.115-9.987A16.522,16.522,0,0,0,189.059,27.68c-.45-.112-.9-.213-1.355-.32.055-.464-.258-.64-.6-.859a27.506,27.506,0,0,0-3.465-1.8" transform="translate(-90.175 -12.113)" fill="#cbeaf8"/>
          <path id="Trazado_658076" data-name="Trazado 658076" d="M103.115,91.669a52.761,52.761,0,0,0,.079-6.826c-.027-1.257-.881-2.25-1.495-3.3,1.055-.016,2.111-.061,3.166-.043a4.229,4.229,0,0,1,4.37,4.065c.039,5.913.458,11.848-.2,17.737-.855,7.6-8.062,13.852-15.709,13.906a21,21,0,0,0,6.471-5.731,16.649,16.649,0,0,0,3.413-9.978c0-1.836.282-3.692-.194-5.514l.1-4.314" transform="translate(-45.825 -40.017)" fill="#f0b0a0"/>
          <path id="Trazado_658077" data-name="Trazado 658077" d="M108.188,59.149a22.16,22.16,0,0,0-9.114-14.587c-.293-.211-.7-.333-.8-.764A19.177,19.177,0,0,1,115.1,52.138a18.281,18.281,0,0,1,3.555,11.138c-.02,1.816-.023,3.633.009,5.449.013.756-.263.934-.991.816-2.057-.333-2.033-.308-2.135-2.435a8.379,8.379,0,0,0-7.351-7.958" transform="translate(-48.257 -21.504)" fill="#534d54"/>
          <path id="Trazado_658078" data-name="Trazado 658078" d="M54.9,148.391c-1.267,0-2.536.049-3.8-.01a5.5,5.5,0,0,1-5.194-5.259c-.07-2.448.013-4.9-.041-7.347-.019-.875.36-1.014,1.071-.867a2.028,2.028,0,0,0,.745.124c2.527-.523,3.649.9,4.746,2.932a17.288,17.288,0,0,0,6.643,6.459c.689.41,1.184,3.155.7,3.775-.249.319-.618.211-.942.214-1.309.012-2.618.005-3.928.005v-.025" transform="translate(-22.522 -66.219)" fill="#655e66"/>
          <path id="Trazado_658079" data-name="Trazado 658079" d="M117.273,142.461a22.4,22.4,0,0,0,5.081-6.723c.126-.273.274-.553.613-.575,1.344-.088,2.689-.172,4.035-.227.483-.02.49.377.489.72-.009,2.7.091,5.41-.07,8.1a5.29,5.29,0,0,1-4.939,4.637c-2.065.075-4.135,0-6.2,0a11.882,11.882,0,0,0,1-5.932" transform="translate(-57.096 -66.257)" fill="#534d54"/>
          <path id="Trazado_658080" data-name="Trazado 658080" d="M177.347,117.957c-1.243,1.606-3.057,2.456-4.69,3.547s-3.5,1.63-5.2,2.546a31.183,31.183,0,0,1-14.677-4.276c-.533-.3-.7-.585-.414-1.2a11.259,11.259,0,0,0,.882-4.044c.369-.237.569.086.789.224a26.843,26.843,0,0,0,22.813,3.284,3.875,3.875,0,0,1,.5-.081" transform="translate(-74.747 -56.196)" fill="#e86c71"/>
          <path id="Trazado_658081" data-name="Trazado 658081" d="M45.1,107.949a32.777,32.777,0,0,0,.313,6.115c.122.581-.014.812-.674.845a6.661,6.661,0,1,1-.553-13.31c.758-.03.942.244.926.941-.036,1.691-.012,3.383-.012,5.409" transform="translate(-18.532 -49.887)" fill="#edae9d"/>
          <path id="Trazado_658082" data-name="Trazado 658082" d="M174.073,83.073a4.3,4.3,0,0,1-3.308-4.18c-.12-5.657-.041-11.318-.041-17.187,2.042,2.013,4.357,3.642,5.727,5.856,1.059,1.711,2.035,4.171-.117,6.209a1.938,1.938,0,0,0-2.432-.789c-1.148.508-1.187,1.508-1.183,2.563.013,3.028.546,3.9,3.058,4.853a3.589,3.589,0,0,1-1.7,2.675" transform="translate(-83.818 -30.3)" fill="#f0c9bc"/>
          <path id="Trazado_658083" data-name="Trazado 658083" d="M139.178,108.315a6.689,6.689,0,0,1-7.059,6.569c-.371-.027-.789.064-.674-.587.673-3.82.307-7.676.338-11.515.009-1.1.382-1.25,1.324-1.127a6.707,6.707,0,0,1,6.07,6.66" transform="translate(-64.534 -49.898)" fill="#e79683"/>
          <path id="Trazado_658084" data-name="Trazado 658084" d="M169.908,24.706a27.507,27.507,0,0,1,3.465,1.8c.337.218.65.394.6.859a17.1,17.1,0,0,0-9.294,1.214,7.862,7.862,0,0,0-5.04,5.781c-1.311-1.324-2.522-2.552-3.74-3.773-.556-.557.067-.727.338-.938a22.858,22.858,0,0,1,11.157-4.75,9.368,9.368,0,0,1,2.52-.189" transform="translate(-76.439 -12.114)" fill="#e0f1f8"/>
          <path id="Trazado_658085" data-name="Trazado 658085" d="M186.636,37.177A12.6,12.6,0,0,1,194.812,59.3c-1.256,1.023-1.265-.66-2.055-.87,2.988-2.452,4.573-5.441,4.358-9.241a10.653,10.653,0,0,0-7.23-9.5c-.238-.082-.471-.179-.706-.269-.468-1.177-1.735-1.446-2.541-2.239" transform="translate(-91.644 -18.253)" fill="#edae9d"/>
          <path id="Trazado_658086" data-name="Trazado 658086" d="M185.122,106.821c.08-.634.645-.735,1.082-.946a25.847,25.847,0,0,0,9.5-8.492,1.009,1.009,0,0,0,.084-.365c1.294,1.264,2.573,2.544,3.892,3.782.432.406.37.629-.062.963a22.872,22.872,0,0,1-14.5,5.058" transform="translate(-90.901 -47.639)" fill="#cbeaf8"/>
          <path id="Trazado_658087" data-name="Trazado 658087" d="M89.553,158.647a24.667,24.667,0,0,0,5.11-.708c.677-.2.788.1.771.679-.033,1.094.03,2.191-.032,3.282-.237,4.215-4.963,6.57-8.2,4.645.62-.066.876-.53,1.187-.994,1.43-2.135,1.165-4.538,1.159-6.9" transform="translate(-42.821 -77.522)" fill="#e79683"/>
          <path id="Trazado_658088" data-name="Trazado 658088" d="M188.774,52.843a8.1,8.1,0,0,0-7.183,3.837L178.5,53.515c1.617-.566,1.863-.944,1.865-2.938,0-1.935.067-2,2.016-2.031a6.642,6.642,0,0,1,6.393,4.3" transform="translate(-87.649 -23.837)" fill="#f4cdbf"/>
          <path id="Trazado_658089" data-name="Trazado 658089" d="M86.283,158.673c.006,2.366.271,4.77-1.159,6.9-.311.464-.567.928-1.187.994a5.212,5.212,0,0,1-3.138-4.423c-.156-1.25-.5-2.8.048-3.733.692-1.181,2.146.175,3.3.053a10.366,10.366,0,0,1,2.136.2" transform="translate(-39.551 -77.548)" fill="#f0b0a0"/>
          <path id="Trazado_658090" data-name="Trazado 658090" d="M177.328,93.656a3.589,3.589,0,0,0,1.7-2.675c2.764-.043,4.109-1.306,4.257-4.081a5.081,5.081,0,0,1,.774-2.762c.252-.356.4-1.25,1.1-.713.49.373,1.476.777.615,1.762a2.756,2.756,0,0,0-.47,1.681,15.7,15.7,0,0,1-.289,2.388c-.821,3.551-4.016,5.361-7.694,4.4" transform="translate(-87.074 -40.882)" fill="#edae9d"/>
          <path id="Trazado_658091" data-name="Trazado 658091" d="M178.756,37.162c.806.793,2.074,1.062,2.541,2.239a11.986,11.986,0,0,0-5.523.108,3.866,3.866,0,0,0-3.1,4.07c-.01.756,0,1.513,0,2.4A3.8,3.8,0,0,1,170.619,42a3.879,3.879,0,0,1,2.168-3.445,11.6,11.6,0,0,1,5.969-1.392" transform="translate(-83.765 -18.238)" fill="#f0c9bc"/>
          <path id="Trazado_658092" data-name="Trazado 658092" d="M114.327,149.722a11.882,11.882,0,0,1-1,5.932c-2.635.521-3.6-.606-2.756-3.193a1.032,1.032,0,0,1,.5-.53q1.623-1.105,3.248-2.208" transform="translate(-54.15 -73.518)" fill="#655e66"/>
          <path id="Trazado_658093" data-name="Trazado 658093" d="M195.038,64.688a6.38,6.38,0,0,1-2.329,3.839c-.366.3-.756.8-1.249.161-.417-.543-1.341-.811-.853-1.833.728-1.525,2.281-2.354,4.43-2.167" transform="translate(-93.527 -31.751)" fill="#e79683"/>
          <path id="Trazado_658094" data-name="Trazado 658094" d="M210.132,81.08c.024,1.65-.866,3.042-1.287,4.566-1.656-1.407-1.651-1.4-.208-2.907.516-.537,1-1.1,1.494-1.659" transform="translate(-101.927 -39.813)" fill="#e0f1f8"/>
          <path id="Trazado_658095" data-name="Trazado 658095" d="M200.512,19.221a.49.49,0,0,1,.56.213c-.214,0-.431.008-.56-.213" transform="translate(-98.458 -9.433)" fill="#e86c71"/>
          <path id="Trazado_658096" data-name="Trazado 658096" d="M84.195,136.362a10.525,10.525,0,0,1-7.347-2.886,1.9,1.9,0,0,1-.333-2.888c.761-.826,1.775-.822,2.813.011,3.353,2.692,6.42,2.679,9.831-.044a1.892,1.892,0,0,1,2.811.079,1.926,1.926,0,0,1-.315,2.8,10.707,10.707,0,0,1-7.459,2.928" transform="translate(-37.315 -63.82)" fill="#040404"/>
          <path id="Trazado_658097" data-name="Trazado 658097" d="M82.167,111.238a2.377,2.377,0,0,1,.291-1.175,34.087,34.087,0,0,1,3.611-4.388,1.681,1.681,0,0,1,2.415.011,1.709,1.709,0,0,1,.369,2.388,16.672,16.672,0,0,1-1.814,2.266c-.587.628-.737,1.088.023,1.718a10.257,10.257,0,0,1,1.7,1.863,1.75,1.75,0,0,1-.248,2.505,1.654,1.654,0,0,1-2.405.072c-1.243-1.2-2.384-2.5-3.537-3.788a2.2,2.2,0,0,1-.408-1.473" transform="translate(-40.347 -51.641)" fill="#040404"/>
          <path id="Trazado_658098" data-name="Trazado 658098" d="M108.862,99.926l-.1,4.314a1.907,1.907,0,0,1-2.379,1.148,2.042,2.042,0,0,1-1.352-2.308c.016-.8.008-1.6,0-2.4-.009-1.1.25-2.054,1.486-2.31a1.886,1.886,0,0,1,2.347,1.558" transform="translate(-51.571 -48.274)" fill="#040404"/>
          <path id="Trazado_658099" data-name="Trazado 658099" d="M71.828,101.872c0-.59-.036-1.183.009-1.77a1.744,1.744,0,0,1,1.777-1.771A1.7,1.7,0,0,1,75.567,99.9a20.552,20.552,0,0,1,.015,3.913,1.776,1.776,0,0,1-1.893,1.677,1.86,1.86,0,0,1-1.855-1.852c-.038-.588-.007-1.18-.006-1.771" transform="translate(-35.263 -48.281)" fill="#040404"/>
        </g>
      </g>
    </g>
  </g>
</svg>
