<svg xmlns="http://www.w3.org/2000/svg" xmlns:xlink="http://www.w3.org/1999/xlink" width="258.61" height="317.117" viewBox="0 0 258.61 317.117"><defs><clipPath id="a"><rect width="258.61" height="317.117" fill="none"/></clipPath></defs><g transform="translate(-285 -4109.097)"><g transform="translate(0 -62.912)"><path d="M179.845,25.74l-.652.013H54.293c8.33-10.072,24.551-13.028,35.663-5.9,6.134-7.025,12.907-13.892,21.5-17.512S130.9-.994,137.781,5.314c4.272,3.912,6.494,9.527,8.582,14.93,10.088-7.612,26.349-4.949,33.481,5.5" transform="translate(248.08 4192.376)" fill="#f7e9e1"/><path d="M198.6,69.459H122.666C128,63.7,134.29,57.64,142.094,57.753c5.745.072,10.84,3.561,15.237,7.259a36.468,36.468,0,0,1,15.917-10.2,20.55,20.55,0,0,1,10.173-.906c7.413,1.513,12.118,8.412,15.175,15.557" transform="translate(334.023 4164.529)" fill="#f7e9e1"/><path d="M78.987,89.026H3.056C8.389,83.27,14.68,77.207,22.484,77.32c5.745.072,10.84,3.561,15.237,7.257a36.478,36.478,0,0,1,15.917-10.2,20.55,20.55,0,0,1,10.173-.906c7.413,1.513,12.118,8.412,15.175,15.557" transform="translate(281.944 4190.427)" fill="#f7e9e1"/></g><g transform="translate(285 4109.097)"><g clip-path="url(#a)"><path d="M258.6,308.9c-.17,1.32-6.67,4.33-10,4.33s-13,1.33-19-2.33c-1.91-1.17-5.67-9.67-6-11a11.048,11.048,0,0,1-.08-2.1c.03-3.19.41-8.57.41-8.57l19.34-1,1.11,1.9,5.89,10.1s.6.42,1.49,1.09a37.885,37.885,0,0,1,5.42,4.8c.92,1.05,1.51,2.04,1.42,2.78" fill="#6598aa"/><path d="M251.761,301.321l-2.42-.48a36.114,36.114,0,0,0-9.78-.22c-4.66.67-8.44,1.55-8.44,1.55s2.44-3.77,3.33-4.22,1.78-.89,1.78-.89l-6.22-.44,7.33-5.11,7.04-1.38,5.89,10.1s.6.42,1.49,1.09" fill="#437a89"/><path d="M258.6,308.9c-.17,1.32-6.67,4.33-10,4.33s-13,1.33-19-2.33c-1.91-1.17-5.67-9.67-6-11a11.048,11.048,0,0,1-.08-2.1c2.84,2.97,7.9,8.13,9.15,8.6,1.78.66,7.34,1.77,14.89,2,5.08.15,8.15-1.31,9.62-2.28.92,1.05,1.51,2.04,1.42,2.78" fill="#437a89"/><path d="M143.259,80.085s2.43-7.593,1.519-10.934l-.912-3.34S146.6,58.522,146.6,56.7s-3.037-1.215-4.556.911-3.037,6.986-5.467,6.378S125.036,44.551,122.3,45.462s4.556,16.4,4.556,16.4-2.734-.607-3.645,1.215A14.82,14.82,0,0,0,122,66.418s-3.341,1.215-2.126,4.252l1.215,3.037s-2.733-1.215-1.518,1.215,6.985,5.467,8.2,5.467a2.277,2.277,0,0,0,1.822-.911s4.859,5.77,10.022,4.859,3.645-4.252,3.645-4.252" fill="#ff9e7b"/><path d="M185.271,121.23s-7.34,9-22,8.331a9.29,9.29,0,0,1-3.03-.69c-7.24-2.83-14.59-14.04-19.94-24.45-4.83-9.42-8.03-18.191-8.03-19.521,0-3,12-8.67,13.33-9s13.67,19.661,13.67,19.661h1.33c1.33,0,2,2.669,2,2.669s5.619-21.62,7.67-25.669a19.132,19.132,0,0,1,9-9l.3,2.9,5.31,50.98Z" fill="#5248da"/><path d="M190.231,111.4l-5.35,6.041-7.65,8.62-16.99,2.809c-7.24-2.829-14.59-14.039-19.94-24.449-3.25-8.14-6.6-17.11-6.07-18.521,1-2.67,9.17-7.17,10.5-7.67s11.67,15.331,12,17.17.83,14.33.83,14.33,1.17-8.5,1.34-9.33.66-.839,1.33-1.17,1.17,16.831,1.67,17.331,2-15.831,2-17,6.33-22,7.16-24.5c.72-2.131,6.74-7.161,8.51-8.6.31-.26.49-.4.49-.4l5.17,2Z" fill="#362bc7"/><path d="M190.267,287.563s1,20.333,0,21.333-44,3-45.667,1.667,10.334-10,10.334-10,10.666-6,12.666-7,5.667-8.333,5.667-8.333Z" fill="#437a89"/><path d="M209.933,35.229l-1,15-13.667,5s.667-6.333-.333-7.667,15-12.333,15-12.333" fill="#d66d58"/><path d="M181.287,26.73s-8.02-8.334-5.187-14.167S183.6,7.9,183.6,7.9s.667-4.666,8.333-6.5S203.6.063,203.6.063l-2.167,1s8-.167,13.167,3.667S216.767,23.9,216.767,23.9,216.1,35.4,212.1,37.23s-6.167.666-6.167.666Z" fill="#1e110f"/><path d="M219.121,23.9c0,1-1.67,9.33-2.67,10.33s-6.33,3-6.33,3a20.075,20.075,0,0,1-2.85,8.67,11.659,11.659,0,0,1-4.6,3.91c-3.31,1.73-7.29,2.51-9.4,2.09-3.34-.67-8.34-12.34-9-14.67a73.868,73.868,0,0,1-1.34-7.67s-1.64-2.16-2.31-3.16.31-10.5.31-10.5c8.87-11.75,19.38-2.82,24.6,3.13a43.7,43.7,0,0,1,3.26,4.2s3.33-2.33,4.66-3,5.67,2.67,5.67,3.67" fill="#ff9e7b"/><path d="M219.121,23.9c0,1-1.67,9.33-2.67,10.33s-6.33,3-6.33,3a20.075,20.075,0,0,1-2.85,8.67,11.659,11.659,0,0,1-4.6,3.91c3.03-3.51,5.29-11.6,4.73-16.25-.67-5.44-2-13.89-2-13.89l.13-.64a43.7,43.7,0,0,1,3.26,4.2s3.33-2.33,4.66-3,5.67,2.67,5.67,3.67" fill="#ef8873"/><path d="M178.564,20.73l3.7-4.5s4.333,4.333,13.667,5.333S208.6,21.23,208.6,21.23s1.667-10.334.334-10.667-19.334-5-19.334-5L178.933,14.9Z" fill="#1e110f"/><path d="M216.767,23.9s-4.167,0-5.833,1-4,6.333-3.334,7.333a1.351,1.351,0,0,0,.874.348,7.227,7.227,0,0,0,8.18-6.806Z" fill="#343c5e"/><path d="M216.62,26.23s-.576-5.334-1.909-5.667-6,2.667-6,2.667,2.333-5.667,6-5.667,1.909,8.667,1.909,8.667" fill="#3a3a5e"/><path d="M66.8,115.563s-47.333,1.142-47.333,2.283,24.357,95.523,24.357,95.523l48.444-3.139Z" fill="#252238"/><path d="M247.6,285.9c0,2-.67,7.33-17.33,7.33-12.83,0-9-5.67-9-5.67s-.26-.39-.63-1.1c-.21-.42-.46-.94-.71-1.56a6.743,6.743,0,0,1-.24-2.92,13.494,13.494,0,0,1,.24-1.75s.67-8,.67-11.67a37.822,37.822,0,0,0-.44-3.94c-1.31-8.82-5.07-28.25-5.89-30.72-1-3-8.67-48-8.67-48s-.33,10-1,16-6.67,31.66-6.67,31.66,1,8.67,1,11,0,0-1,6.67-6,37.67-6,37.67-6.66,2-11,2a27.877,27.877,0,0,1-7.47-1.46c-3.11-1-5.83-2.3-6.19-3.21-.67-1.67,5.33-54.33,5.33-54.33l4.67-67a26.064,26.064,0,0,1-.34-3.67c0-1.67.34-22,.34-22l11.87-1.16,39.46-3.84s3.67,13.67,4,16,.67,17.67.67,17.67.33,4,1,13.33,1.66,26.67,1.66,26.67,1.34,8.33,2.34,13.66,4.33,49.67,4.33,49.67l1-.67c1-.66,2.33,12,2.33,12a4.741,4.741,0,0,1,1.67,3.34" fill="#c16553"/><path d="M204.6,201.9c-.67,6-6.67,31.66-6.67,31.66s1,8.67,1,11,0,0-1,6.67-6,37.67-6,37.67-6.66,2-11,2a27.877,27.877,0,0,1-7.47-1.46l-4.34-11.04s7.11-27.11,8.44-30.23S194.9,234.4,194.9,234.4s-17.34-3.11-18.67-4.45,3.11-61.33,4-63.55,12.89-.89,12.89-.89l-12.45-6.22s14.23,3.11,16.45,4,8.48,22.61,8.48,22.61-.33,10-1,16" fill="#894638"/><path d="M247.6,285.9c0,2-.67,7.33-17.33,7.33-12.83,0-9-5.67-9-5.67s-.26-.39-.63-1.1a39.5,39.5,0,0,0,8.92,1.27c6.94,0,13.46-5.08,13.77-5.32a39.476,39.476,0,0,1-14.66,1.76,21.6,21.6,0,0,1-8.98-2.19,13.494,13.494,0,0,1,.24-1.75s.67-8,.67-11.67a37.822,37.822,0,0,0-.44-3.94l.51-2.22-7.11-33.78s4.45,3.11,7.56,3.11,6.22-2.22,7.55-3.11,3.593-21.749,3.56-24.89c-.444-42.667-4.889-62-4.889-62a58.4,58.4,0,0,1-21.333,3.556c-10.238-.186-25.556-3.778-25.556-3.778l8.688-3.438,39.46-3.84s3.67,13.67,4,16,.67,17.67.67,17.67.33,4,1,13.33,1.66,26.67,1.66,26.67,1.34,8.33,2.34,13.66,4.33,49.67,4.33,49.67l1-.67c1-.66,2.33,12,2.33,12a4.741,4.741,0,0,1,1.67,3.34" fill="#894638"/><path d="M251.931,121.561c-4.66,8.34-23.2.34-23.2.34.12.67,2.5,14.37.87,16-1.67,1.66-15.67,6.66-31.33,6s-23-3-23.34-5a1.517,1.517,0,0,1,1.1-1.84,3.12,3.12,0,0,1,.9-.16s-2.46-62.34-.33-70.34c1.33-5,14-6,14-6l1-3.66s-2.33-3-.33-4a.612.612,0,0,1,.12-.05c1.95-.9,3.68.33,10.21-1.95a22.022,22.022,0,0,0,4.83-2.33c2.64-1.7,3.48-3.13,4.17-2.67,1,.66,0,4.66,0,4.66a3.261,3.261,0,0,1,2.33,3V55.9s12-1,20,4,23.99,52.76,19,61.66" fill="#5248da"/><path d="M82.489,61.021s-8.889-5.6-20.445-.431-7.555,20.261-7.555,20.261-5.778,3.448-5.778,8.621S50.933,96.8,50.933,96.8s-4.785,1.931-5.777,6.467c-.83,3.79.444,5.6.444,5.6s-8.889,12.932.889,19.4,55.555-13.794,55.555-13.794,4-6.467,3.112-12.5-6.223-9.052-6.223-9.052,1.778-4.742,0-8.191a11.98,11.98,0,0,0-4-4.742s1.778-9.052-2.666-12.07-8-2.586-8-2.586Z" fill="#ad5945"/><path d="M149.971,127.2s1.464-8.054,1.464-9.152,4.393-8.42,6.224-9.519,6.59-2.2,7.322-.366-4.027,2.929-4.393,4.027-.187,3.175,1.643,3.541,6.411-3.541,7.509-5.371-3.295-2.2-2.2-3.661,7.687-3.295,7.687.366-2.562,7.322-2.562,7.322,5.125-.732,4.027,1.83l-1.1,2.563s2.563-3.295,2.563,0-1.1,4.027-1.1,4.027,2.729-2.062,1.83.366c-1.625,4.391-18.67,12.081-23.43,12.081s-5.491-8.054-5.491-8.054" fill="#ffbdab"/><path d="M103.342,245.064l79.111-4-2.369-12.634a1.84,1.84,0,0,0-1.911-1.5l-77.5,4.354Z" fill="#252238"/><path d="M104.131,246.676c0,32.05,15.718,58.04,35.108,58.04s35.117-25.99,35.117-58.04-15.718-58.049-35.117-58.049-35.108,25.99-35.108,58.049m4.954-.418c0-27.031,12.391-48.949,27.681-48.949s27.672,21.918,27.672,48.949-12.39,48.958-27.672,48.958-27.681-21.918-27.681-48.958" fill="#252238"/><path d="M58.648,92.48s-2.5,3.584-1.5,5.834a5.506,5.506,0,0,0,3.5,2.834s-3.25,3.5-3.583,7a6.834,6.834,0,0,0,1.666,5.416s-2.166,4.25,3.167,5.584,18.917-.75,18.917-.75l18.666-3.918s4.25-5.332,4-10.666-6.166-6.834-6.166-6.834a5.282,5.282,0,0,0-2.25-4.5c-2.417-1.5-6.5-.416-6.5-.416Z" fill="#934334"/><path d="M41.02,206.007s5.333,16,8,18,48.667,18.667,50.667,19.333,71.333-6,71.333-6l-34-22.666Z" fill="#252238"/><path d="M181.686,194.007l-4.667,15.333h-10l.667-12-54-15.333,4.667-8s58.666,16.667,63.333,20" fill="#252238"/><path d="M176.931,288.671l-11.71-.24s-.75-2.15-1.9-5.51c-3.43-9.97-10.38-30.64-11.76-37.86-1.84-9.64.12-13.1-1.09-13.75a11.615,11.615,0,0,0-2.31-.63c-2.21-.43-5.08-.78-5.08-.78l-2.8-19.41,12.61-2.85,5.1,1.12s1.68.46,3.79,1.1c.96.29,2,.61,3.01.94a29.649,29.649,0,0,1,4.77,1.87c2.21,1.33,2.642,23.356,2.892,26.616s1.148,41.814,1.628,43.6a36.7,36.7,0,0,0,2.85,5.78" fill="#ffbdab"/><path d="M59.02,196.674,50.353,314.007A726.519,726.519,0,0,1,59.02,196.674" fill="#3a3a5e"/><path d="M165.561,285.4a13.765,13.765,0,0,1-2.24-2.48c-3.43-9.97-10.38-30.64-11.76-37.86-1.84-9.64.12-13.1-1.09-13.75a11.615,11.615,0,0,0-2.31-.63l1.07-15.62,4.5-7.16,8.05,1.96,3.12.76s-.04.06-.11.18c-.83,1.41-6.24,10.61-6.39,12.76-.17,2.34,5.775,7.34,6.275,8.17s5.885,51.5,6.225,52.33-4.17,2-5.34,1.34" fill="#f7a397"/><path d="M86.353,269.34l-56.667-38s33.334,26.667,56.667,38" fill="#3a3a5e"/><path d="M71.686,201.34l-36,102.667s18.667-44.667,36-102.667" fill="#3a3a5e"/><path d="M160.011,294.011l-11.08,4.22s-2.35-3.86-5.14-8.44c-3.83-6.28-8.49-13.92-9.11-14.89-2-3.12-10.23-17.34-12.89-25.12a1.556,1.556,0,0,1-.08-.23,92.836,92.836,0,0,1-4.57-21.29l-.23-2.43-.46-4.71,1.57-1.06,12.68-8.54,3.97-2.68s9.78,7.33,10.45,7.56-.85,18.5-.85,18.5,1.3,15.33,4.41,27.33,11.33,31.78,11.33,31.78" fill="#ffbdab"/><path d="M150.561,295.9c-.7-.49-3.39-2.95-6.77-6.11-3.83-6.28-8.49-13.92-9.11-14.89-2-3.12-10.23-17.34-12.89-25.12a1.556,1.556,0,0,1-.08-.23,92.836,92.836,0,0,1-4.57-21.29l-.23-2.43c.32-1.77.71-3.77,1.11-5.77l12.68-8.54,1.2.38s-6.088,12.41-4.17,18.163c.167.5,23.33,54.837,23.33,54.837s1.67,12.5-.5,11" fill="#f7a397"/><path d="M164.9,210.621c-14.96-4.99-14.45,24.22-14.45,24.22l-6.18.06s.38-8.63-1.7-15.35c-1.12-3.63-2.95-6.71-5.94-7.59a6.486,6.486,0,0,0-2.4-.23c-11.11.89-15.56,27.33-15.56,27.33s-7.29-1.94-9.52-2.39-39.11-14.22-42.22-20c-2.63-4.87-2.09-22.76-1.86-28.19.05-1,.08-1.58.08-1.58l26.23-11.12,22.18,3.06s2.59,1.58,6.6,4.04c1.2.74,2.54,1.56,3.97,2.43,15.43,9.46,41.71,25.62,40.77,25.31" fill="#1cf290"/><path d="M136.621,211.961a6.41,6.41,0,0,0-2.39-.23c-11.11.89-15.56,27.33-15.56,27.33s-7.29-1.94-9.52-2.39-39.11-14.22-42.22-20c-2.63-4.87-2.09-22.76-1.86-28.19L79.9,191.9s-.34,12.16.5,14.66,21.83,12.84,21.83,12.84l-6.5-1.17s19.26,8.97,20.33,9.5a28.725,28.725,0,0,0,3.17,1.17s5.17-18.84,14.5-17.84a7.49,7.49,0,0,1,2.89.9" fill="#00d976"/><path d="M40.353,203.34l26.667,106a728.289,728.289,0,0,0-26.667-106" fill="#3a3a5e"/><path d="M83.686,221.34,27.019,280.673s36.667-46,56.667-59.333" fill="#3a3a5e"/><path d="M79.686,296.007l-48-80.667s18.667,44,48,80.667" fill="#3a3a5e"/><path d="M87.686,247.34l-61.333,6.667s20-5.334,61.333-6.667" fill="#3a3a5e"/><path d="M164.9,210.621c-14.96-4.99-14.45,24.22-14.45,24.22l-6.18.06s.38-8.63-1.7-15.35c.08-1.11.38-7.03-2.29-9.06-2.95-2.24-25.05-20.43-26.38-20.43s-13,1.34-13,1.34,8.337-7.177,10-7.837S91.231,188.4,91.231,188.4l22.5-9v4.666l3-1.833c15.43,9.46,49.11,28.7,48.17,28.39" fill="#00d976"/><path d="M21.913,254.677c0,34.48,16.91,62.44,37.77,62.44s37.78-27.96,37.78-62.44-16.91-62.45-37.78-62.45-37.77,27.96-37.77,62.45m5.33-.45c0-29.08,13.33-52.66,29.78-52.66s29.77,23.58,29.77,52.66-13.33,52.67-29.77,52.67-29.78-23.58-29.78-52.67" fill="#252238"/><path d="M108.575,193.118s4.445,20.889.889,22.667-8.444,1.333-10.222.889S94.8,198.9,94.8,198.9L53.908,187.785l8.889-6.667s43.556,10.222,45.778,12" fill="#252238"/><path d="M182.353,240.229s25.778,54.667,23.556,58.222-81.778,7.111-84,7.111-27.556-72.444-27.556-72.444h4.889s27.556,64,28.889,64.444,67.555-4,69.333-4S177.342,238.4,177.342,238.4Z" fill="#252238"/><path d="M19.464,117.846S1.6,120.9.267,123.563,2.933,138.9,4.933,138.9a8.02,8.02,0,0,0,5.334-1.333c2-1.333-2.667-11.333-2.667-11.333l18-4Z" fill="#252238"/><path d="M177.941,282.517s-2.324-4.843-3.008-4.843-7.481,5.472-8.394,5.472-4.975-4.749-4.975-4.749-1.409,13.136-.041,14.184,17.1,11.741,18.47,12.58,16.637,3.279,18.462,3.07,2.745-10.2,1.377-11.038-9.349-3.983-9.349-3.983Z" fill="#5840e2"/><path d="M170.566,302.9s-8-12-9.556-13.333-3.555-7.334-4.222-7.556-6.666-1.555-7.555-.889-3.334,8.889-3.334,8.889-3.333-3.333-3.333-2.666.889,12.444,1.333,14,10.445,11.555,12,12.444,5.556,3.111,9.556,3.111,11.333-.444,13.111-2.667-8-11.333-8-11.333" fill="#5840e2"/><path d="M211.021,102.931a2.259,2.259,0,0,1-.75,1.3c-2,1.33-13.34-3.33-13.34-3.33s-2.33,2-4,2-6.66-4-6.66-4l-1-9.34s-11.34,4.34-16.34,3,20.34-11,20.34-11L187.6,75.9s-1.67-5.34,1-4.67,7.33,9.33,8.67,10.33c.26.19.93.77,1.86,1.57,3.81,3.3,11.8,10.43,11.8,10.43s.92,6.42.09,9.37" fill="#ff9e7b"/><path d="M159.821,137.561a7.968,7.968,0,0,1-.96,2.53c-4.64,9.33-24.73,38.86-27.48,39.249a11.866,11.866,0,0,1-7.56-1.779c-1.33-.89-9.78-8-9.78-8s.86,3.95,1.3,6.169c.31,1.571-1.78,3.11-1.78,3.11s-10.67,3.991-28,5.331a45.062,45.062,0,0,0-6.18,4.169,7.663,7.663,0,0,1-4.45,2.111c-3.55,0-8.44,1.34-12.44-.44-.78-.351-2.11-2.421-3.71-5.62l-.24-.51c-5.53-11.26-13.94-35.18-14.2-48.2a16,16,0,0,1,.82-6.12c4.88-12,28.4-15.61,28.4-15.61s25.37-2.61,30.71-1.72,24,32.44,24,32.44,1.77-2.66,3.11-1.33a2.126,2.126,0,0,1,.45,2.66c.49-.58,16.02-19.11,17.77-19.99,1.78-.89,10.22,8,10.22,11.55" fill="#00d976"/><path d="M67.822,99.34l2.667,16.444a11.477,11.477,0,0,0,9.111,2.111c5.778-.888,7.333-3.555,7.333-3.555l-1.667-10.111Z" fill="#f7a397"/><path d="M69.731,103.23s3.333,12.668,5,13.5,8.667-.666,11.5-2-.333-7.5-.333-7.5Z" fill="#e5867c"/><path d="M93.881,96.141c.2,5.29-3.91,13.52-6.08,14.5a5.958,5.958,0,0,1-1.59.39,19.926,19.926,0,0,1-6.78-.56,9.692,9.692,0,0,1-2.21-.81c-2.55-1.37-6.27-3.53-8.62-7.05a31.416,31.416,0,0,0-2.15-3.11c0,.01-4.5.4-5.48-.2-.98-.58-7.06-7.05-7.06-8.61s3.33-5.89,4.11-5.69l4.9,1.18-.88-4.69-.7-3.77,2.54-4.89,2.96-5.7,17.24-1.57L87.8,68.5s4.12,8.43,4.32,9.41c.11.56.09,3.1.06,5.13-.03,1.49-.06,2.71-.06,2.71s.04.15.12.42a46.239,46.239,0,0,1,1.64,9.97" fill="#ffbdab"/><path d="M86.211,111.031a19.926,19.926,0,0,1-6.78-.56,9.692,9.692,0,0,1-2.21-.81c-2.55-1.37-6.27-3.53-8.62-7.05a31.416,31.416,0,0,0-2.15-3.11c0,.01-4.5.4-5.48-.2-.98-.58-7.06-7.05-7.06-8.61s3.33-5.89,4.11-5.69l4.9,1.18-.88-4.69L66.9,78.9s3,13.253,3.5,15.5,4.91,7.16,6.58,10.08,2.42,5.25,7.17,6.17c.81.15,1.49.28,2.06.38" fill="#f7a397"/><path d="M62.925,86.181A43.722,43.722,0,0,0,74.9,79.064,25.73,25.73,0,0,0,82.489,67.34a17.35,17.35,0,0,1,6.222,4.889,39.044,39.044,0,0,1,3.407,5.681s1.037-11.014-.741-15.459S82.489,58.9,82.489,58.9,47.342,56.175,62.925,86.181" fill="#ad5945"/><path d="M104.453,126.842s6.445,20.667,7.111,22.889-1.111,9.555-1.111,10.666,4,7.556,2.667,8.223-25.778,8-25.778,8,25.333-4.445,25.111-2.889.445,4.444-1.778,5.333-27.555,5.778-28.666,5.778S80.231,164.62,83.342,164.4s24.444-13.333,25.778-14.222-4.667-23.333-4.667-23.333" fill="#1cf290"/><path d="M84.731,128.73s2.022-9.028,1.519-13.467-.914-7.247,2.314-7.033c2.5.168,3.667,10.5,3.667,10.5Z" fill="#f7a397"/><path d="M180.62,26.4a17.043,17.043,0,0,1,2.167-11.111c2.667-4.3-3.854-.39-3.854-.39l-.369,5.834Z" fill="#1e110f"/><path d="M215.953,25.4a15.009,15.009,0,0,0-3.667.278c-1.555.389-3.777,4.166-3.388,5.222s5.222-.889,5.222-.889l-2.945.056Z" fill="#252238"/><path d="M47.686,253.34c0,5.523,2.537,10,5.667,10s5.666-4.477,5.666-10-2.537-10-5.666-10-5.667,4.477-5.667,10" fill="#252238"/><path d="M160.231,116.4a12.386,12.386,0,0,1-1.667,7c-2,3-3.333,4.667-3.333,4.667s3-1.334,4.667-2.334,3.333-6,3.333-6l6.667,8.334s-1-10.334-9.667-11.667" fill="#f7a397"/><path d="M172.669,114.386s-10.438,3.678-9.438,5.345,7,1.333,7,1.333-6.334,1.333-5.334,3,5.334,2,5.334,2-7.334,2-1.334,3.667,11.334-4.334,11.667-6-3.5-.925-3.5-.925,3.17-2.409,2.5-4.409-3.967.382-3.967.382,4.508-7.4-2.928-4.393" fill="#ffbdab"/><path d="M58.561,167.061c-1,2.34.67,12.67.67,12.67l-.69,4.15c-5.53-11.26-13.94-35.18-14.2-48.2,1.63-5.72,4.3-10.28,8.56-11.951,0,0,4,2.671,6,4.331s9,24.67,9,24.67-8.67,3.67-10,4.33c-1.3.65-2.9,8.18-2.99,8.65.2-.43,3.39-7.32,5.65-7.65,2.34-.33,8.34-1.33,8.34-1.33s-9.34,8-10.34,10.33" fill="#1cf290"/><path d="M81.9,139.064s3.428-19.333,4.979-20.577,12.129-4.893,14.242-3.53,7.4,11.132,6.912,13.057-4.369,5.036-5.766,4.883a3.033,3.033,0,0,1-2.113-1.363s-6.744,15.1-10.407,14.979-7.847-7.449-7.847-7.449" fill="#ffbdab"/><path d="M90.711,118.129a.291.291,0,0,1,.322.076c1.142,1.192,9.127,9.6,8.2,10.526-1,1-7.333,14-7.333,14l-8.333-6.667s3.543-16.426,7.146-17.935" fill="#f7a397"/><path d="M94.49,147.339c-.89,7.11-15.11,40.45-15.11,40.45v.55a40.908,40.908,0,0,1-4.45,2.11,17.546,17.546,0,0,1-12.44-.44c-.78-.35-2.11-2.42-3.71-5.62a28.348,28.348,0,0,1,1.04-12.16c1.78-5.33,14.67-24.44,14.67-24.44v-1.78c0-1.78,5.33-12.45,7.55-13.34s13.34,7.56,12.45,14.67" fill="#00d976"/><path d="M158.861,140.09c-4.64,9.331-24.73,38.861-27.48,39.25a11.866,11.866,0,0,1-7.56-1.779c-1.33-.89-9.78-8-9.78-8l-3.59-9.16s6.78,5.329,8.78,5.329,8.33-18.669,8.33-18.669.34,12.34-.66,14c-.96,1.6-2.54,4.12-2.66,4.33l5.99-5.99c2-2,1.33-11.67,1.33-11.67l2.67,4s21-16.67,22.67-15.33a9.824,9.824,0,0,1,1.96,3.689" fill="#1cf290"/><path d="M20.676,119.953l19.555-.889,1.112-1.778-20,.889,8.222.667Z" fill="#3a3a5e"/><path d="M23.787,126.842,41.565,198.62l5.333-3.111L27.787,121.286l-5.556.667,4.445,1.111L22.9,124.175Z" fill="#3a3a5e"/><path d="M96.676,199.064l10.667-4-7.334,5.333,7.334-2.444s1.555,12.666,1.333,14.666-8.667,1.778-9.111,1.112-2.889-14.667-2.889-14.667" fill="#3a3a5e"/><path d="M108.9,271.731s12.444,31.111,13.333,31.778,19.556-.667,19.556-.667-17.556-.889-18.667-1.555S108.9,271.731,108.9,271.731" fill="#3a3a5e"/><path d="M89.731,121.064l12-3s-8.833.333-12,3" fill="#f7a397"/><path d="M100.152,131.534l3.413-2.637,2.667-.333s-2.993,3.44-6.08,2.97" fill="#f7a397"/><path d="M73.7,89.3c.3.421,2.641.3,4.226.079.287-.042.493-.082.681-.11a2.281,2.281,0,0,0,1.48-1.217.836.836,0,0,0,.073-.122,4.6,4.6,0,0,0,.471-1.473,2.111,2.111,0,0,0-1.8-1.95c-1.331-.189-3.568,1.24-4.313,2.642,0,0-1.161,1.666-.817,2.151" fill="#fff"/><path d="M87.857,87.363c.128.249.774.215,1.483.075a10.668,10.668,0,0,0,1.122-.268c.191-.06.371-.119.519-.181a2.236,2.236,0,0,0,1-1.54,5.245,5.245,0,0,0-.1-2.545,1.143,1.143,0,0,0-.842-.64c-.854-.085-2.562,1.87-3.028,3.318,0,0-.383,1.327-.159,1.781" fill="#fff"/><path d="M91.529,86.386c.228-.4.469-4.937-1.131-3.878-1.562,1.034-.89,4.011-.209,4.388a.994.994,0,0,0,1.34-.51" fill="#325d68"/><path d="M79.666,88.611c.253-.383.778-4.9-.885-3.941-1.624.933-1.14,3.947-.485,4.366a1,1,0,0,0,1.37-.425" fill="#325d68"/><path d="M80.479,84.051a6.423,6.423,0,0,0-4.186.83,10.949,10.949,0,0,0-2.952,3.677s2.96-3.775,7.138-4.507" fill="#77463c"/><path d="M87.87,86.3a8.087,8.087,0,0,1,.932-2.862c.423-.566,1.276-1.641,2.4-1.6A2.937,2.937,0,0,1,92.432,82l-.932.63s-.572-.346-1.357.353l-.166.148A10.414,10.414,0,0,0,87.87,86.3" fill="#77463c"/><path d="M76.445,85.784a11.035,11.035,0,0,1,2.691-.6,18.006,18.006,0,0,1,2.157.063,3.183,3.183,0,0,0-2.944-.833c-1.837.4-1.9,1.374-1.9,1.374" fill="#77463c"/><path d="M88.953,85.482c.03.143.3.207.6.143s.519-.23.489-.373-.3-.206-.6-.143-.519.23-.489.373" fill="#fff"/><path d="M77.112,87.272c.021.144.284.225.588.181s.532-.2.511-.342-.284-.225-.587-.18-.533.2-.512.341" fill="#fff"/><path d="M201.861,29.07c-.13.431-1.83.951-3.31,1.271-.24.05-.46.09-.68.13-.28.05-.49.069-.68.1a2.061,2.061,0,0,1-1.45-.429,2.912,2.912,0,0,1-.33-.26,1.066,1.066,0,0,1-.11-.091,4.908,4.908,0,0,1-.91-1.259,2.113,2.113,0,0,1,1.11-2.41c1.2-.6,3.77.06,4.92,1.16,0,0,1.62,1.229,1.44,1.789" fill="#fff"/><path d="M187.811,31.641c-.04.28-.67.45-1.39.54-.11.02-.23.03-.35.04-.27.03-.54.04-.8.05-.2,0-.39,0-.54-.01a1.973,1.973,0,0,1-1.29-.93c-.05-.08-.1-.15-.15-.22a5.231,5.231,0,0,1-.7-2.45,1.154,1.154,0,0,1,.6-.87c.79-.35,3.02.98,3.91,2.21,0,0,.78,1.14.71,1.64" fill="#fff"/><path d="M193.789,26.2a6.422,6.422,0,0,1,4.236-.516,10.954,10.954,0,0,1,3.951,2.574s-3.989-2.664-8.187-2.058" fill="#1e110f"/><path d="M187.467,30.634A8.1,8.1,0,0,0,185.69,28.2c-.578-.406-1.724-1.162-2.777-.777-.982.36-1.119.549-1.119.549l1.082.307s.436-.506,1.4-.087l.2.089a10.4,10.4,0,0,1,2.988,2.348" fill="#1e110f"/><path d="M91.964,81.184a4,4,0,0,0-2.308,1.169,6.562,6.562,0,0,0-1.2,1.843,17.23,17.23,0,0,1,3.509-3.012" fill="#77463c"/><path d="M90.951,94.29c.11.72-1.66,2.05-2.61,2.381s-4.11-1.551-4.44-2c0,0,.08-.49.22-1.25.46-2.49,1.53-7.881,2.33-8.3.88-.459,3.32,5.651,4.19,8.161a9.578,9.578,0,0,1,.31,1.009" fill="#f7a397"/><path d="M90.951,94.29c.11.72-1.66,2.05-2.61,2.381s-4.11-1.551-4.44-2c0,0,.08-.49.22-1.25a11.31,11.31,0,0,0,4,1.2,3.618,3.618,0,0,0,2.52-1.339,9.578,9.578,0,0,1,.31,1.009" fill="#e5867c"/><path d="M89.787,100.675s.222,1.444-.611,1.889-3.389.444-5.389-.778a5.6,5.6,0,0,1-2.445-3.278,6.6,6.6,0,0,0,3.5,1.722c2,.223,4.945.445,4.945.445" fill="#f7a397"/><path d="M81.342,98.508a13.844,13.844,0,0,0,3.167,1.167c1.055.111,2.833-.834,4.389-.334s1.333,1.223,1.333,1.223a8.9,8.9,0,0,1-4.389.611,6.107,6.107,0,0,1-4.5-2.667" fill="#e5867c"/><path d="M56.731,89.064s1.667-1.417,2.833-.833a9.316,9.316,0,0,1,2.5,2.666s-1.333,1.584-.916,2.75,2.416,1.917,2.416,1.917a4.288,4.288,0,0,1-4-1.083c-1.916-1.75.75-3.584.75-3.584s-1.916-2.75-3.583-1.833" fill="#e5867c"/><path d="M61.981,84.4a32.855,32.855,0,0,0,10.25-5.833c5.083-4.25,8.917-12.167,8.75-13.167S77.9,62.9,77.9,62.9l.25.75a8.052,8.052,0,0,0-4.834-2.5c-2.75-.167-9.166.833-12.75,5.333s-2.583,8.084-2.583,8.084-1.917,3.5-1.333,6.5S61.981,84.4,61.981,84.4" fill="#c4624e"/><path d="M81.9,60.564s4.417-1,7,.25,3.369,7.1,3.369,7.1a21.816,21.816,0,0,0-4.2-3.6,15.805,15.805,0,0,0-4.75-1.333l4.25-.25s-1.25-2.084-5.667-2.167" fill="#c4624e"/><path d="M62.065,85.48l4.083,7.583.834-.833-.75-8.5Z" fill="#ad5945"/><path d="M73.731,83.4s2.833-2.333,4.667-2.833a27.425,27.425,0,0,1,3-.667l-.834-2.667s-5.5,2.834-6.833,6.167" fill="#ad5945"/><path d="M87.9,79.064a4.664,4.664,0,0,1,3.167,0l1.333.667s-.5-3-2.333-3.167S87.4,76.4,87.4,76.4Z" fill="#ad5945"/><path d="M194.821,37.07c-.14.781-2.98,3.19-3.87,3.16a5.237,5.237,0,0,1-3.78-2.44,1.478,1.478,0,0,1-.12-.339c-.52-2.02.89-7.82.89-7.82s.25-.77.7-.98c.33-.16,3.66,4.139,5.28,6.68a5.2,5.2,0,0,1,.9,1.739" fill="#e58065"/><path d="M186.071,32.22c-.27.031-.54.04-.8.051-.2,0-.39,0-.54-.011a1.975,1.975,0,0,1-1.29-.929c-.19-.87-.42-2.63.79-2.71,1.28-.09,1.72,2.53,1.84,3.6" fill="#1e110f"/><path d="M198.551,30.341c-.24.05-.46.09-.68.13-.28.05-.49.07-.68.1a2.067,2.067,0,0,1-1.45-.43c-.24-1.13-.47-3.07.82-3.19,1.36-.12,1.83,2.18,1.99,3.39" fill="#1e110f"/><path d="M186.509,30.786c0,.184-.323.333-.722.333s-.722-.149-.722-.333.323-.333.722-.333.722.149.722.333" fill="#fff"/><path d="M199.064,28.953c0,.184-.323.333-.722.333s-.722-.149-.722-.333.323-.333.722-.333.722.149.722.333" fill="#fff"/><path d="M185.787,25.008a9.778,9.778,0,0,0-2.722.611,6.6,6.6,0,0,0-1.723,1.778s-.166-2.611,1.667-3.445a7.49,7.49,0,0,1,2.5-.833Z" fill="#1e110f"/><path d="M192.62,23.953a11.517,11.517,0,0,1,4.389-.444,7.939,7.939,0,0,1,3.167.944,8.829,8.829,0,0,0-3.834-2.333,8.649,8.649,0,0,0-4.166-.389Z" fill="#1e110f"/><path d="M194.821,37.07c-.14.781-2.98,3.19-3.87,3.16a5.237,5.237,0,0,1-3.78-2.44,1.478,1.478,0,0,1-.12-.339,5.072,5.072,0,0,0,3.62.72,4.429,4.429,0,0,0,3.25-2.84,5.2,5.2,0,0,1,.9,1.739" fill="#d8705b"/><path d="M191.4,42.73a24.23,24.23,0,0,1,4.722-.721c1.278.111,4.556-3.056,4.556-3.056s-2.278,3.389-4.611,4.056-5,1-4.667-.279" fill="#d8705b"/><path d="M183.509,14.064s1.167,4.389,8.611,5.944,15.945.278,15.945.278-5.945-1.055-6.167-1.111,7.667,0,7.667,0a21.686,21.686,0,0,0-11-6.778,41.429,41.429,0,0,0-11.889-.889s5.944-2.833,10.889-2.722a36.144,36.144,0,0,1,6.944.611s-3.889-2.444-11.722-1.611-9.278,6.278-9.278,6.278" fill="#351f1c"/><path d="M212.931,53.561V55.9a34.58,34.58,0,0,1-12.87,4.83c-7.5,1.17-9.46-.17-9.46-.17l1-3.66s-2.33-3-.33-4a.612.612,0,0,1,.12-.05c-.62,1.03,1.87,2.39,7.34,1.38,6.33-1.17,8.83-3.33,9.67-4.83.35-.64-.67-.82-1.97-.83,2.64-1.7,3.48-3.13,4.17-2.67,1,.66,0,4.66,0,4.66a3.263,3.263,0,0,1,2.33,3" fill="#362bc7"/><path d="M137.9,66.4s-1.167,2-1.167,6.167.834,5.166.834,5.166A8.92,8.92,0,0,1,137.9,66.4" fill="#e58065"/><path d="M127.231,64.564s5.667,5.667,6,8a2.655,2.655,0,0,1-1.667,3s.334,2.167-.333,2.833l-.667.667-9.476-5.357a56.261,56.261,0,0,0,7.143,2.69c1.833.334-6.232-9.979-6.232-9.979s5.232,6.646,7.732,7.313-2.5-9.167-2.5-9.167" fill="#e58065"/><path d="M211.021,102.931l-1.46.13s-11.33-2.5-12.5-3.83-.66-17.33-.66-17.33l2.73,1.23c3.81,3.3,11.8,10.43,11.8,10.43s.92,6.42.09,9.37" fill="#e58065"/><path d="M185.271,89.561s3.293-2.5,4.293-2.5h2Z" fill="#e58065"/><path d="M196.231,101.064l-3-1.333L192.9,101.4Z" fill="#e58065"/><path d="M211.4,91.23s-1.167-2,.667-2S224.4,93.9,225.565,94.4s7.166,5,9.166,8.332,3.334,11.668,4.5,12.168-3-16-3.5-16.834-6.5-2.834-6.5-2.834,7.834-.832,9.167.168,1.5,8.332,1.5,8.332,1.833-9.166,1.167-9.832-11.834-.168-11.834-.168-4.166-29-3.166-30.666,5.5-3,5.5-3l2.166.834s8,15,8.167,17-1.667,13.332-.333,13.166,2.833-8,2.833-8,11.667,32.334,5.5,39.666-37.833-7.5-39.167-8.832-.166-6.168-.166-6.168.166,3.834,1.166,4.5,3.167-22.5-.333-21" fill="#362bc7"/><path d="M229.6,137.9c-1.67,1.661-15.67,6.661-31.33,6s-23-3-23.34-5a1.516,1.516,0,0,1,1.1-1.839c3.54,1.35,10.1,2.809,21.53,2.339,19.54-.81,26.25-4.119,26.65-4.329A91.324,91.324,0,0,1,202.9,136.9c-12.34-.339-19.34-2-19.34-2l21.5-1.5s-16.66,0-24.33-2.839c0,0,15.17.669,26.67-1.5a89.5,89.5,0,0,0,21.33-7.161c.12.671,2.5,14.371.87,16" fill="#362bc7"/><path d="M177.941,282.517s-2.377,2.325-2.377,3.88,8.445,7.334,11.111,8.667,3.808-1.854,3.808-1.854Z" fill="#7962fc"/><path d="M160.676,288.842s-7.556,1.333-8.222,2.667,10.889,14.222,12,14.888,8-1.555,8-1.555Z" fill="#7962fc"/></g></g></g></svg>