<svg xmlns="http://www.w3.org/2000/svg" xmlns:xlink="http://www.w3.org/1999/xlink" width="295" height="367" viewBox="0 0 295 367">
  <defs>
    <clipPath id="clip-path">
      <rect id="Rectángulo_312890" data-name="Rectángulo 312890" width="124.324" height="113.66" fill="none"/>
    </clipPath>
  </defs>
  <g id="Grupo_995943" data-name="Grupo 995943" transform="translate(-180 -707)">
    <rect id="Rectángulo_312845" data-name="Rectángulo 312845" width="295" height="367" rx="18" transform="translate(180 707)" fill="#ffd357"/>
    <g id="Grupo_995941" data-name="Grupo 995941" transform="translate(230.25 1010.114)">
      <rect id="Rectángulo_308408" data-name="Rectángulo 308408" width="194.5" height="34" rx="17" fill="#fff"/>
      <path id="Trazado_659167" data-name="Trazado 659167" d="M18.594,5.625l2.922,8.25,2.906-8.25H27.5V17H25.149V13.891l.234-5.367L22.313,17H20.7L17.641,8.531l.234,5.359V17H15.531V5.625Zm14.7,11.531a4.15,4.15,0,0,1-3.027-1.141,4.054,4.054,0,0,1-1.168-3.039v-.219a5.106,5.106,0,0,1,.492-2.277,3.612,3.612,0,0,1,1.395-1.547,3.914,3.914,0,0,1,2.059-.543,3.508,3.508,0,0,1,2.73,1.094,4.444,4.444,0,0,1,1,3.1v.922H31.383a2.1,2.1,0,0,0,.66,1.328,2,2,0,0,0,1.395.5,2.437,2.437,0,0,0,2.039-.945l1.109,1.242a3.389,3.389,0,0,1-1.375,1.121A4.511,4.511,0,0,1,33.289,17.156Zm-.258-6.945a1.411,1.411,0,0,0-1.09.455,2.357,2.357,0,0,0-.535,1.3h3.141v-.181a1.681,1.681,0,0,0-.406-1.165A1.456,1.456,0,0,0,33.031,10.211ZM40.75,6.469V8.547H42.2V10.2H40.75v4.219a1.007,1.007,0,0,0,.18.672.9.9,0,0,0,.688.2,3.6,3.6,0,0,0,.664-.055v1.711a4.648,4.648,0,0,1-1.367.2,2.156,2.156,0,0,1-2.422-2.4V10.2H37.258V8.547h1.234V6.469ZM48.352,17a2.507,2.507,0,0,1-.227-.758,2.732,2.732,0,0,1-2.133.914,3,3,0,0,1-2.059-.719,2.312,2.312,0,0,1-.816-1.812,2.389,2.389,0,0,1,1-2.062,4.915,4.915,0,0,1,2.879-.727h1.039v-.484a1.393,1.393,0,0,0-.3-.937,1.183,1.183,0,0,0-.949-.352,1.345,1.345,0,0,0-.895.273.929.929,0,0,0-.324.75H43.3a2.268,2.268,0,0,1,.453-1.359,3,3,0,0,1,1.281-.98A4.669,4.669,0,0,1,46.9,8.391a3.689,3.689,0,0,1,2.48.785,2.747,2.747,0,0,1,.918,2.207v3.664a4.041,4.041,0,0,0,.336,1.82V17Zm-1.867-1.57a1.945,1.945,0,0,0,.922-.223,1.462,1.462,0,0,0,.625-.6V13.156h-.844q-1.7,0-1.8,1.172l-.008.133a.9.9,0,0,0,.3.7A1.153,1.153,0,0,0,46.485,15.43Zm9.18-2.719a5.094,5.094,0,0,1,.887-3.148,2.877,2.877,0,0,1,2.426-1.172,2.589,2.589,0,0,1,2.039.922V5h2.266V17H61.242l-.109-.9a2.657,2.657,0,0,1-2.172,1.055,2.869,2.869,0,0,1-2.395-1.176A5.258,5.258,0,0,1,55.664,12.711Zm2.258.168a3.337,3.337,0,0,0,.414,1.823,1.349,1.349,0,0,0,1.2.634,1.511,1.511,0,0,0,1.477-.884V11.111a1.489,1.489,0,0,0-1.461-.884Q57.922,10.227,57.922,12.879Zm11,4.277a4.15,4.15,0,0,1-3.027-1.141,4.054,4.054,0,0,1-1.168-3.039v-.219a5.106,5.106,0,0,1,.492-2.277,3.612,3.612,0,0,1,1.395-1.547,3.914,3.914,0,0,1,2.059-.543A3.508,3.508,0,0,1,71.4,9.484a4.444,4.444,0,0,1,1,3.1v.922H67.016a2.1,2.1,0,0,0,.66,1.328,2,2,0,0,0,1.395.5,2.437,2.437,0,0,0,2.039-.945l1.109,1.242a3.389,3.389,0,0,1-1.375,1.121A4.511,4.511,0,0,1,68.922,17.156Zm-.258-6.945a1.411,1.411,0,0,0-1.09.455,2.357,2.357,0,0,0-.535,1.3H70.18v-.181a1.681,1.681,0,0,0-.406-1.165A1.456,1.456,0,0,0,68.664,10.211ZM82.563,17a2.507,2.507,0,0,1-.227-.758,2.732,2.732,0,0,1-2.133.914,3,3,0,0,1-2.059-.719,2.312,2.312,0,0,1-.816-1.812,2.389,2.389,0,0,1,1-2.062,4.915,4.915,0,0,1,2.879-.727h1.039v-.484a1.393,1.393,0,0,0-.3-.937,1.183,1.183,0,0,0-.949-.352,1.345,1.345,0,0,0-.895.273.929.929,0,0,0-.324.75H77.516a2.268,2.268,0,0,1,.453-1.359,3,3,0,0,1,1.281-.98,4.669,4.669,0,0,1,1.859-.355,3.689,3.689,0,0,1,2.48.785,2.747,2.747,0,0,1,.918,2.207v3.664a4.041,4.041,0,0,0,.336,1.82V17ZM80.7,15.43a1.945,1.945,0,0,0,.922-.223,1.462,1.462,0,0,0,.625-.6V13.156H81.4q-1.7,0-1.8,1.172l-.008.133a.9.9,0,0,0,.3.7A1.153,1.153,0,0,0,80.7,15.43Zm8.25-8.961V8.547h1.445V10.2H88.946v4.219a1.007,1.007,0,0,0,.18.672.9.9,0,0,0,.688.2,3.6,3.6,0,0,0,.664-.055v1.711a4.648,4.648,0,0,1-1.367.2,2.156,2.156,0,0,1-2.422-2.4V10.2H85.453V8.547h1.234V6.469Zm6.594,10.688a4.15,4.15,0,0,1-3.027-1.141,4.054,4.054,0,0,1-1.168-3.039v-.219a5.106,5.106,0,0,1,.492-2.277,3.612,3.612,0,0,1,1.395-1.547,3.914,3.914,0,0,1,2.059-.543,3.508,3.508,0,0,1,2.73,1.094,4.444,4.444,0,0,1,1,3.1v.922H93.633a2.1,2.1,0,0,0,.66,1.328,2,2,0,0,0,1.395.5,2.437,2.437,0,0,0,2.039-.945l1.109,1.242a3.389,3.389,0,0,1-1.375,1.121A4.511,4.511,0,0,1,95.539,17.156Zm-.258-6.945a1.411,1.411,0,0,0-1.09.455,2.357,2.357,0,0,0-.535,1.3H96.8v-.181a1.681,1.681,0,0,0-.406-1.165A1.456,1.456,0,0,0,95.281,10.211Zm7.094-1.664.07.977a2.951,2.951,0,0,1,2.43-1.133,2.453,2.453,0,0,1,2,.789,3.682,3.682,0,0,1,.672,2.359V17h-2.258V11.594a1.465,1.465,0,0,0-.312-1.043,1.4,1.4,0,0,0-1.039-.324,1.553,1.553,0,0,0-1.43.813V17H100.25V8.547Zm10.4,6.789a1.481,1.481,0,0,0,1.016-.344,1.2,1.2,0,0,0,.406-.914h2.117a2.9,2.9,0,0,1-.469,1.574,3.093,3.093,0,0,1-1.262,1.109,3.949,3.949,0,0,1-1.77.395A3.67,3.67,0,0,1,109.953,16a4.56,4.56,0,0,1-1.047-3.184v-.148a4.508,4.508,0,0,1,1.039-3.117A3.627,3.627,0,0,1,112.8,8.391a3.555,3.555,0,0,1,2.543.9,3.2,3.2,0,0,1,.973,2.4H114.2a1.551,1.551,0,0,0-.406-1.072,1.51,1.51,0,0,0-2.223.163,3.333,3.333,0,0,0-.4,1.866v.235a3.375,3.375,0,0,0,.4,1.878A1.377,1.377,0,0,0,112.774,15.336ZM119.985,17h-2.266V8.547h2.266Zm-2.4-10.641a1.112,1.112,0,0,1,.34-.836,1.465,1.465,0,0,1,1.848,0,1.105,1.105,0,0,1,.344.836,1.108,1.108,0,0,1-.348.844,1.448,1.448,0,0,1-1.836,0A1.108,1.108,0,0,1,117.586,6.359Zm3.906,6.336a5.013,5.013,0,0,1,.484-2.242,3.546,3.546,0,0,1,1.395-1.523,4.069,4.069,0,0,1,2.113-.539,3.849,3.849,0,0,1,2.793,1.047,4.2,4.2,0,0,1,1.207,2.844l.016.578a4.418,4.418,0,0,1-1.086,3.121,4.209,4.209,0,0,1-5.832,0,4.5,4.5,0,0,1-1.09-3.187Zm2.258.16A3.16,3.16,0,0,0,124.2,14.7a1.628,1.628,0,0,0,2.578.008,3.457,3.457,0,0,0,.461-2.015,3.128,3.128,0,0,0-.461-1.831,1.5,1.5,0,0,0-1.3-.649,1.474,1.474,0,0,0-1.281.646A3.516,3.516,0,0,0,123.75,12.856ZM125.93,5h2.461l-2.164,2.422h-1.836Zm7.039,3.547.07.977a2.951,2.951,0,0,1,2.43-1.133,2.453,2.453,0,0,1,2,.789,3.682,3.682,0,0,1,.672,2.359V17h-2.258V11.594a1.465,1.465,0,0,0-.312-1.043,1.4,1.4,0,0,0-1.039-.324,1.553,1.553,0,0,0-1.43.813V17h-2.258V8.547Z" transform="translate(20.5 7)" fill="#12263f"/>
    </g>
    <g id="Grupo_996220" data-name="Grupo 996220">
      <circle id="Elipse_8217" data-name="Elipse 8217" cx="95.354" cy="95.354" r="95.354" transform="translate(232.146 795.146)" fill="#ffda72"/>
      <g id="Grupo_995975" data-name="Grupo 995975" transform="translate(265.338 833.67)">
        <g id="Grupo_995975-2" data-name="Grupo 995975" clip-path="url(#clip-path)">
          <path id="Trazado_658000" data-name="Trazado 658000" d="M90.964,111.936a2.076,2.076,0,0,1-2.371,1.725q-41.417-.031-82.835-.018A5.424,5.424,0,0,1,.01,107.857Q0,94.881.011,81.9a15.448,15.448,0,0,1,9.95-14.686c1.382-.558,2.792-1.048,4.164-1.628a2.129,2.129,0,0,1,2.87.7c.225,1.683-.031,2.117-1.634,2.738-1.428.554-2.87,1.075-4.288,1.656A11.8,11.8,0,0,0,3.659,81.66c-.025,8.7-.011,17.4-.006,26.092,0,1.638.625,2.244,2.287,2.247,3.236.007,6.473-.017,9.709.018a2.012,2.012,0,0,0,1.58-.668q8.133-8.172,16.3-16.308a4.272,4.272,0,0,0,.912-1.395,6.548,6.548,0,0,1,6.3-4.291c1.7-.035,3.4.017,5.1-.014a4.916,4.916,0,0,1,3.551,1.28c.265.24.455.489.917.284,2.012-.895,4.046-1.739,6.273-2.686-3.366-2.528-4.013-5.942-3.856-9.7.09-2.14.024-4.287.006-6.431,0-.285.178-.643-.2-.874-.275.3-.535.608-.811.895a9.6,9.6,0,0,1-16.485-7.442c.065-1.1-.25-1.151-1.173-.785-3.222,1.279-6.482,2.466-9.713,3.725a2.015,2.015,0,0,1-2.812-.812c-.239-1.442.1-2.059,1.5-2.6,3.235-1.242,6.475-2.467,9.859-3.755a14.4,14.4,0,0,1-5.152-4.49A10.394,10.394,0,0,1,25.8,49.562c-.179-1.342-.769-1.512-1.947-1.5a8.646,8.646,0,0,1-8.49-5.491c-1.251-3.307-1.387-9.668,2.864-12.6a1.178,1.178,0,0,0,.453-1.156c-.008-2.508-.016-5.016,0-7.524A21.177,21.177,0,0,1,40.032.005q4.793-.01,9.587,0A21.175,21.175,0,0,1,70.927,21.1a17.194,17.194,0,0,1-.007,1.819c-.085.908.179,1.057,1.069.8a25.88,25.88,0,0,1,13.889-.15,26.5,26.5,0,0,1,19.7,24.882c.01.485.039.972.007,1.456a7,7,0,0,0,1.676,5.461,9.519,9.519,0,0,1-.966,12.871,2.2,2.2,0,0,0-.717,1.789c.03,2.548-.048,5.1.026,7.644a9.842,9.842,0,0,1-3.829,8.567c2.208.946,4.289,1.839,6.371,2.728.418.179.563-.224.781-.413a4.732,4.732,0,0,1,3.214-1.2c1.861.006,3.723-.037,5.582.016a6.7,6.7,0,0,1,6.556,6.62q.081,6.491,0,12.984a6.721,6.721,0,0,1-6.765,6.669c-6.513.03-13.026-.007-19.539.022a2.016,2.016,0,0,1-2.25-1.721c.377-1.534.85-1.921,2.4-1.935,2.085-.02,4.169-.032,6.254-.047.767.015,1.535.01,2.3.052.52.028.719-.13.648-.683a4.1,4.1,0,0,1,.528-2.571,1.191,1.191,0,0,0-.015-1.321,4.313,4.313,0,0,1-.025-4.186,1.442,1.442,0,0,0-.017-1.543,4.452,4.452,0,0,1-.008-4.084,3,3,0,0,0-1.286-3.372q-4.667-2.012-9.341-4.006a2.808,2.808,0,0,0-1.036-.288c-2.5-.006-5.01.024-7.514.043-.835-.105-.6.637-.7,1a9.2,9.2,0,0,1-8.776,6.575,9.037,9.037,0,0,1-8.661-6.52c-.267-.973-.7-1.06-1.564-1.14A22.977,22.977,0,0,0,55.3,90.715a18.283,18.283,0,0,1-2.671,1.129,2.928,2.928,0,0,0-2.179,2.109,2.057,2.057,0,0,0,.048,1.86,3.394,3.394,0,0,1,.424,1.749c.027,1.038-.692,1.957-.753,2.862-.062.923,1.025,1.956.713,2.957a11.3,11.3,0,0,0-.042,5.5c.184,1.072.46,1.129,1.314,1.127q18.127-.031,36.253-.013c1.7,0,2.163.359,2.553,1.934M42.725,68.986a5.8,5.8,0,0,0,7.192-2.462,1.093,1.093,0,0,0,.1-1.118,9.519,9.519,0,0,1-.94-4.924c.039-.524-.136-.726-.667-.708-1.166.039-2.334.042-3.5.06-.764-.018-1.53-.078-2.291-.043-1.231.056-2.96-.561-3.56.258-.619.845-.224,2.475-.174,3.758a5.653,5.653,0,0,0,3.844,5.177M78.9,82.867a19.511,19.511,0,0,1-4.542-.652c-.541-.162-.632.049-.624.5.024,1.493-.075,3,.081,4.478a4.812,4.812,0,0,0,3.08,4.145,5.35,5.35,0,0,0,7.631-3.984,41.29,41.29,0,0,0,.122-4.6c.023-.579-.172-.659-.714-.514a21.544,21.544,0,0,1-5.034.619m9.707-39.1c-1.09-.015-2.183-.089-3.269-.028a4.133,4.133,0,0,0-2.738,1Q80.01,47.213,77.445,49.7c-.173.167-.539.306-.272.668a7.649,7.649,0,0,1,1.533,4.988c-.012.3.171.417.459.429s.45-.116.457-.413c.005-.242,0-.485.011-.727a7.365,7.365,0,0,1,6.8-7.1c1.044-.079,2.093-.085,3.141-.125,1.566.028,3.134.027,4.7.094.757.033.657-.3.484-.8a4.158,4.158,0,0,0-3.5-2.935,17.561,17.561,0,0,0-2.649-.01m5.353,7.446a63.137,63.137,0,0,0-7.263-.025,3.6,3.6,0,0,0-3.407,3.472c-.06,1.411-.061,2.83,0,4.242a3.669,3.669,0,0,0,3.518,3.5c2.3.055,4.6-.009,6.905-.022,2.462.13,4.235-1.313,4.341-3.606.061-1.323.059-2.654,0-3.977a3.684,3.684,0,0,0-4.093-3.583M70.649,62.384c2.732.159,4.38-1.342,4.406-4.026.011-1.127.021-2.256,0-3.382A3.653,3.653,0,0,0,70.9,51.217a62.493,62.493,0,0,0-7.131-.032,3.673,3.673,0,0,0-3.486,3.665c-.063,1.288-.064,2.584,0,3.872a3.722,3.722,0,0,0,3.6,3.688c2.257.051,4.516-.013,6.774-.026M91.285,84.243c1.733.018,3.467.072,5.2.044a5.329,5.329,0,0,0,5.39-4.881c.194-2.649.058-5.322.08-7.984,0-.411-.125-.616-.556-.5a14.842,14.842,0,0,1-3.854.217.775.775,0,0,0-.816.54A23.2,23.2,0,0,1,93.417,76.7a24.125,24.125,0,0,1-4.684,3.609.857.857,0,0,0-.46.772c-.356,3.175-.16,3.385,3.012,3.163m25.245,6.81c-1.411-.02-2.823-.036-4.233-.061a1.144,1.144,0,0,0-1.293.853c-.163.667.281,1.015.811,1.317,1.714.974,1.685,2.461-.051,3.467-1.072.621-1.083,1.474-.029,2.1,1.8,1.073,1.8,2.46,0,3.518-1.047.616-1.093,1.64.039,2.078a1.856,1.856,0,0,1,.047,3.507,1.058,1.058,0,0,0-.815,1.3,1.155,1.155,0,0,0,1.289.866c1.412-.024,2.824-.034,4.236-.049,2.862.171,4.125-1,4.128-3.834q.005-5.627,0-11.255c0-2.843-1.291-4.031-4.127-3.813m-73.8,18.906c1.129.013,2.258.036,3.387.035a1.086,1.086,0,0,0,1.129-.91,1.1,1.1,0,0,0-.659-1.179c-1.926-1.208-1.941-2.422-.054-3.565.978-.593.988-1.475.021-2.067-1.9-1.166-1.9-2.384.007-3.57.922-.573.953-1.438.072-2.01-2-1.3-2.018-2.392-.041-3.622a1.088,1.088,0,0,0,.65-1.175A1.061,1.061,0,0,0,46.114,91c-.967.007-1.933.035-2.9.054-.683-.021-1.366-.064-2.05-.059-2.375.017-3.549,1.189-3.557,3.575q-.018,5.985,0,11.971A3.14,3.14,0,0,0,41.044,110c.563.006,1.126-.026,1.69-.04M89.34,66.121a27.034,27.034,0,0,1-3.626-.171,7.494,7.494,0,0,1-5.649-4.633,16.358,16.358,0,0,1-1.221,1.462c-.541.513-.508.9.04,1.377a16.988,16.988,0,0,1,1.337,1.4c.948,1.045,1,2.109.157,2.879-.83.755-1.8.643-2.762-.34a22.9,22.9,0,0,1-1.9-2.044,1.331,1.331,0,0,0-1.94-.443,6.406,6.406,0,0,1-2.966.467c-2.376-.007-4.753,0-7.219,0a15.668,15.668,0,0,0,7.224,10.7,14.458,14.458,0,0,0,10.524,2.178c5.934-.3,12.632-6.509,13.292-12.3.063-.549-.145-.593-.579-.585-1.572.03-3.145.035-4.717.05M49.763,3.711c-4.242-.008-8.5-.356-12.72.2A17.6,17.6,0,0,0,22.8,17.129c-.717,3.249-.349,6.524-.475,9.787-.032.82.009,1.46,1.119,1.266.829-.144,1.936.479,1.915-1.263a8.11,8.11,0,0,1,4.356-7.586,10.71,10.71,0,0,1,5.768-1.048c1.455.045,1.992.5,2.268,1.965a1.854,1.854,0,0,1-2.1,1.723c-.525,0-1.051,0-1.577,0-3.178.035-5.033,1.871-5.066,5.063q-.039,3.7,0,7.4c.04,4.325-.2,8.658.113,12.973A9.574,9.574,0,0,0,38.307,56.1c3.8.094,7.6.033,11.4.042a1.1,1.1,0,0,0,.964-.34c2.053-2.338,2.061-2.331,2.064-5.548,0-.728.015-1.456.023-2.183.214-.214.307-.538-.007-.6-.208-.044-.325.355-.288.641a3.934,3.934,0,0,1-.393.6,10.376,10.376,0,0,1-14.427.1,1.772,1.772,0,0,1-.245-2.588,1.839,1.839,0,0,1,2.695-.087c.158.125.3.27.457.4a6.651,6.651,0,0,0,8.493.014c1.609-1.3,2.113-1.3,3.759.18a34.79,34.79,0,0,1,2.113-8.239,29.354,29.354,0,0,1,5.375-7.81,1.237,1.237,0,0,0,.336-.985c-.013-1.007.03-2.016-.015-3.021a4.617,4.617,0,0,0-4.333-4.655,11.982,11.982,0,0,0-3.127.059c-2.774-.211-5.551-.046-8.326-.086-1.2-.017-2.028-.445-2.206-1.732.285-1.5.817-1.952,2.373-1.959q5.673-.023,11.346-.026a8.657,8.657,0,0,1,6.876,4.348A12.755,12.755,0,0,1,64.4,27.055c2.138-.7,3.407-1.876,2.883-4.257a5.242,5.242,0,0,1-.011-1.208A16.745,16.745,0,0,0,63.65,10.556,16.8,16.8,0,0,0,49.763,3.711M91.772,40.092c.269.077.535.165.807.23,3.113.747,5.827,3.452,5.865,6.6.023,1.992,1.386,2.849,2.215,4.177a1.006,1.006,0,0,0,1.1.334c.323-.069.178-.4.185-.613C102.206,42.8,99.433,36.1,93.053,31.1a21.125,21.125,0,0,0-14.16-4.682,10.49,10.49,0,0,0-3.011.156A22.99,22.99,0,0,0,56.358,50.769c.046.911.457.738.991.574.393-.121.5-.5.716-.785a6.439,6.439,0,0,1,4.352-2.84,42.649,42.649,0,0,1,10.744.052,1.5,1.5,0,0,0,1.487-.417c1.629-1.626,3.317-3.194,4.956-4.811a8.234,8.234,0,0,1,6.11-2.462c2.019.021,4.039.009,6.058.012M65.291,84.3h2.422c2.376,0,2.328,0,2.4-2.4A1.937,1.937,0,0,0,68.985,79.9a14.867,14.867,0,0,1-5.913-5.761c-1.161-2.206-2.445-3.593-5.1-3.049a2.014,2.014,0,0,1-.827-.148c-.571-.149-.789.027-.781.646.03,2.462-.065,4.926.042,7.384a5.443,5.443,0,0,0,5.612,5.319c1.089.015,2.179,0,3.269,0M22.151,109.96H34.682c-.976-1.924-.693-3.926-.716-5.892-.023-2,0-4.009,0-5.9L22.151,109.96m3.2-71.7c0-1.858.008-3.716-.007-5.573,0-.355.174-.774-.492-.882a5.591,5.591,0,0,0-6.307,3.745,10.5,10.5,0,0,0-.214,3.01c.014,3.924,2.206,6.005,6.155,5.915.683-.016.9-.2.88-.884-.045-1.776-.015-3.554-.015-5.331M56.574,55.462a6.158,6.158,0,0,0-3.634,7.469,6.246,6.246,0,0,0,7.1,4.446,4.629,4.629,0,0,0-1.658-4.039A5.633,5.633,0,0,1,56.763,59.9c-.258-1.444-.048-2.9-.189-4.44M101.7,55.43c0,1.161.022,2.212,0,3.262a6.637,6.637,0,0,1-2.152,5.1c-1.045.892-1.078,1.97-1.264,3.1-.084.512.108.587.564.625a6.4,6.4,0,0,0,6.624-4.921A6.171,6.171,0,0,0,101.7,55.43" transform="translate(0 0)" fill="#030303"/>
          <path id="Trazado_658001" data-name="Trazado 658001" d="M25.381,129.91a2.016,2.016,0,0,0,2.812.812c3.231-1.259,6.49-2.446,9.712-3.725.924-.367,1.238-.31,1.174.785a9.6,9.6,0,0,0,16.485,7.441c.277-.287.537-.591.811-.894.373.231.194.589.2.874.018,2.144.083,4.291-.007,6.432-.157,3.754.49,7.169,3.856,9.7-2.226.948-4.26,1.791-6.273,2.686-.462.205-.652-.043-.916-.284a4.92,4.92,0,0,0-3.552-1.28c-1.7.031-3.4-.02-5.1.015a6.548,6.548,0,0,0-6.3,4.291,4.274,4.274,0,0,1-.912,1.395q-8.166,8.138-16.3,16.308a2.015,2.015,0,0,1-1.579.668c-3.236-.035-6.473-.011-9.71-.018-1.662,0-2.285-.609-2.286-2.247-.005-8.7-.02-17.4.005-26.093A11.8,11.8,0,0,1,14.921,135.8c1.417-.581,2.859-1.1,4.288-1.656,1.6-.621,1.858-1.055,1.633-2.737,1.606-.216,2.982-1.131,4.539-1.5" transform="translate(-3.847 -65.113)" fill="#e1f3fa"/>
          <path id="Trazado_658002" data-name="Trazado 658002" d="M143.923,204.617c-.391-1.575-.852-1.934-2.553-1.934q-18.127,0-36.254.013c-.855,0-1.131-.055-1.314-1.127a11.3,11.3,0,0,1,.042-5.5c.312-1-.775-2.034-.713-2.957.06-.906.78-1.825.753-2.862a3.4,3.4,0,0,0-.424-1.749,2.057,2.057,0,0,1-.048-1.86,2.929,2.929,0,0,1,2.179-2.109,18.339,18.339,0,0,0,2.672-1.129,22.972,22.972,0,0,1,13.613-2.806c.866.08,1.3.166,1.564,1.14a9.037,9.037,0,0,0,8.661,6.52,9.2,9.2,0,0,0,8.776-6.575c.108-.359-.13-1.1.7-1l6.53,2.838a14.5,14.5,0,0,1,8.756,9.977c.791,3.008.411,6.091.48,9.144-2.085.015-4.169.027-6.254.046-1.553.015-2.027.4-2.4,1.936h-4.767" transform="translate(-52.96 -92.681)" fill="#90efc4"/>
          <path id="Trazado_658003" data-name="Trazado 658003" d="M83.323,69.334c-.008.728-.022,1.455-.023,2.183,0,3.218-.011,3.209-2.064,5.548a1.1,1.1,0,0,1-.965.34c-3.8-.009-7.6.053-11.4-.042a9.573,9.573,0,0,1-9.189-8.688c-.318-4.315-.073-8.648-.113-12.973q-.034-3.7,0-7.4c.033-3.191,1.888-5.028,5.066-5.062.526-.006,1.051,0,1.577,0a1.854,1.854,0,0,0,2.1-1.723,27.867,27.867,0,0,1,4.873,0c.178,1.287,1.005,1.715,2.205,1.732,2.775.04,5.553-.124,8.326.086,1.828,2.258,2.043,4.842,1.534,7.573a1.781,1.781,0,0,0-2.178-1.416c-1.13.234-1.476,1.113-1.467,2.182.01,1.124.007,2.247,0,3.372-.006,1,.249,1.873,1.321,2.168A1.8,1.8,0,0,0,85.227,56c.463,1.223.055,2.505.251,3.747a34.843,34.843,0,0,0-2.113,8.239c-1.646-1.475-2.15-1.479-3.758-.18a6.652,6.652,0,0,1-8.493-.013c-.157-.127-.3-.272-.457-.4a1.838,1.838,0,0,0-2.694.088,1.771,1.771,0,0,0,.245,2.588,10.376,10.376,0,0,0,14.427-.1,3.892,3.892,0,0,0,.393-.6l.3-.036m-8-15.518a1.761,1.761,0,0,0-1.259.584C73,55.665,71.9,56.91,70.934,58.245a2.3,2.3,0,0,0,.166,3.014c.944,1.1,1.939,2.161,2.962,3.19a1.8,1.8,0,1,0,2.62-2.47,23.563,23.563,0,0,0-1.73-1.858c-.4-.39-.414-.658-.023-1.084a28.909,28.909,0,0,0,1.907-2.343,1.669,1.669,0,0,0,.1-1.933,1.868,1.868,0,0,0-1.619-.945m-9.824-.48c0,.727-.023,1.456.005,2.182a1.671,1.671,0,0,0,1.634,1.762,1.7,1.7,0,0,0,1.942-1.571,39.9,39.9,0,0,0,.011-4.6,1.736,1.736,0,0,0-1.881-1.662A1.776,1.776,0,0,0,65.5,51.275c-.032.685-.006,1.374,0,2.061" transform="translate(-30.563 -21.263)" fill="#f4ccbe"/>
          <path id="Trazado_658004" data-name="Trazado 658004" d="M151.231,67.928c-2.019,0-4.039.009-6.058-.012a8.233,8.233,0,0,0-6.11,2.462c-1.639,1.617-3.327,3.184-4.956,4.811a1.5,1.5,0,0,1-1.487.417,42.648,42.648,0,0,0-10.744-.052,6.438,6.438,0,0,0-4.352,2.84c-.211.285-.324.665-.717.785-.534.164-.945.337-.991-.574a22.989,22.989,0,0,1,19.524-24.192,10.49,10.49,0,0,1,3.011-.157,2.163,2.163,0,0,0,.44.381,23.429,23.429,0,0,1,8.7,6.739,19.607,19.607,0,0,1,3.741,6.551" transform="translate(-59.459 -27.835)" fill="#f8df85"/>
          <path id="Trazado_658005" data-name="Trazado 658005" d="M66.176,24.044a27.914,27.914,0,0,0-4.873,0c-.276-1.463-.813-1.92-2.268-1.964a10.705,10.705,0,0,0-5.768,1.048,8.109,8.109,0,0,0-4.356,7.586c.02,1.742-1.085,1.118-1.915,1.263-1.111.193-1.15-.446-1.119-1.267.126-3.263-.241-6.538.475-9.787A17.6,17.6,0,0,1,60.6,7.7c4.224-.551,8.478-.2,12.72-.2.071.589.576.856.927,1.228,3.531,3.745,5.667,8.077,5.649,13.325-3.782.008-7.565.01-11.347.026-1.556.006-2.088.459-2.373,1.959" transform="translate(-23.556 -3.796)" fill="#655e66"/>
          <path id="Trazado_658006" data-name="Trazado 658006" d="M148.477,143.683a14.458,14.458,0,0,1-10.524-2.178,15.667,15.667,0,0,1-7.224-10.7c2.466,0,4.842,0,7.219,0a6.413,6.413,0,0,0,2.966-.467,1.332,1.332,0,0,1,1.94.443,22.826,22.826,0,0,0,1.9,2.044c.957.984,1.932,1.1,2.762.34.845-.77.791-1.834-.157-2.878a17,17,0,0,0-1.337-1.4c-.548-.479-.581-.864-.04-1.377a16.355,16.355,0,0,0,1.221-1.462,7.494,7.494,0,0,0,5.649,4.633,26.953,26.953,0,0,0,3.626.171c0,3-1.374,5.489-2.981,7.868a25,25,0,0,1-5.015,4.965m-2.513-3.106a10.337,10.337,0,0,0,7.365-2.738,1.879,1.879,0,0,0,.334-2.77c-.741-.8-1.681-.8-2.69,0-3.2,2.55-6.183,2.556-9.318.018-1.034-.837-2.057-.821-2.779.044a1.867,1.867,0,0,0,.378,2.674,9.853,9.853,0,0,0,6.71,2.772" transform="translate(-67.133 -64.729)" fill="#f4ccbe"/>
          <path id="Trazado_658007" data-name="Trazado 658007" d="M108.871,22.181c.018-5.247-2.119-9.58-5.649-13.325-.351-.373-.857-.64-.927-1.228a16.8,16.8,0,0,1,13.887,6.846A16.748,16.748,0,0,1,119.8,25.508a5.243,5.243,0,0,0,.011,1.208c.524,2.381-.745,3.559-2.883,4.257a12.755,12.755,0,0,0-1.184-4.444,8.657,8.657,0,0,0-6.876-4.348" transform="translate(-52.531 -3.917)" fill="#534d54"/>
          <path id="Trazado_658008" data-name="Trazado 658008" d="M175.053,67.967a19.607,19.607,0,0,0-3.741-6.551,23.429,23.429,0,0,0-8.7-6.739,2.162,2.162,0,0,1-.44-.381,21.126,21.126,0,0,1,14.16,4.682c6.38,5,9.153,11.7,8.891,19.722-.007.213.138.544-.185.613a1.006,1.006,0,0,1-1.1-.334c-.829-1.328-2.192-2.185-2.215-4.177-.037-3.152-2.751-5.858-5.865-6.6-.272-.065-.538-.153-.807-.23" transform="translate(-83.281 -27.874)" fill="#f4cd6d"/>
          <path id="Trazado_658009" data-name="Trazado 658009" d="M124.782,159.137c-1.09,0-2.179.012-3.269,0a5.443,5.443,0,0,1-5.612-5.319c-.108-2.457-.013-4.922-.043-7.383-.007-.619.211-.795.782-.646a2.005,2.005,0,0,0,.827.148c2.651-.544,3.935.843,5.1,3.049a14.865,14.865,0,0,0,5.913,5.76,1.938,1.938,0,0,1,1.127,1.991c-.071,2.4-.022,2.4-2.4,2.4h-2.421" transform="translate(-59.492 -74.84)" fill="#f8df85"/>
          <path id="Trazado_658010" data-name="Trazado 658010" d="M197.94,202.8c-.069-3.053.312-6.136-.48-9.144a14.5,14.5,0,0,0-8.755-9.977l-6.531-2.838c2.505-.018,5.01-.049,7.515-.043a2.809,2.809,0,0,1,1.035.288q4.676,1.991,9.341,4.005a3,3,0,0,1,1.286,3.373,4.452,4.452,0,0,0,.008,4.084,1.441,1.441,0,0,1,.017,1.543,4.314,4.314,0,0,0,.025,4.186,1.191,1.191,0,0,1,.016,1.321,4.094,4.094,0,0,0-.528,2.571c.072.552-.128.71-.648.682-.766-.041-1.534-.036-2.3-.051" transform="translate(-93.552 -92.846)" fill="#6deaaa"/>
          <path id="Trazado_658011" data-name="Trazado 658011" d="M82.422,206.015c-.563.015-1.127.046-1.69.04A3.141,3.141,0,0,1,77.3,202.6q-.026-5.985,0-11.971c.007-2.385,1.182-3.558,3.557-3.575.683,0,1.366.038,2.049.059a9.848,9.848,0,0,1,.747,4.7c-.036,3.464-.048,6.929.007,10.393a5.833,5.833,0,0,1-1.234,3.811" transform="translate(-39.689 -96.056)" fill="#f4ccbe"/>
          <path id="Trazado_658012" data-name="Trazado 658012" d="M233.636,206.007c-1.412.016-2.824.025-4.236.049a1.155,1.155,0,0,1-1.289-.865,1.058,1.058,0,0,1,.815-1.3,1.856,1.856,0,0,0-.047-3.508c-1.132-.438-1.086-1.462-.039-2.078,1.8-1.058,1.8-2.445,0-3.518-1.054-.629-1.043-1.483.029-2.1,1.736-1.007,1.765-2.493.051-3.467-.531-.3-.975-.649-.811-1.316a1.144,1.144,0,0,1,1.292-.854c1.411.025,2.823.041,4.234.061a7.285,7.285,0,0,1,1,4.023q-.1,5.489,0,10.98a6.908,6.908,0,0,1-.995,3.9" transform="translate(-117.107 -96.052)" fill="#f4ccbe"/>
          <path id="Trazado_658013" data-name="Trazado 658013" d="M189.778,151.532a23.2,23.2,0,0,0,3.311-5.025.776.776,0,0,1,.816-.54,14.819,14.819,0,0,0,3.854-.217c.432-.112.559.092.556.5-.022,2.662.114,5.335-.08,7.984a5.329,5.329,0,0,1-5.39,4.881c-1.732.027-3.467-.027-5.2-.045a10.509,10.509,0,0,0,1.3-1.715c.886-1.84,1.562-3.743.833-5.828" transform="translate(-96.362 -74.831)" fill="#f4cd6d"/>
          <path id="Trazado_658014" data-name="Trazado 658014" d="M134.23,116.328c-2.258.014-4.517.077-6.774.026a3.721,3.721,0,0,1-3.6-3.688c-.063-1.288-.062-2.584,0-3.872a3.673,3.673,0,0,1,3.486-3.664,62.489,62.489,0,0,1,7.131.032c-.063.682.443,1.167.6,1.764.169.632.774,1.29.033,1.947a19.713,19.713,0,0,0-5.987-.171,1.576,1.576,0,0,0-1.449,1.665,1.539,1.539,0,0,0,1.287,1.784,18.763,18.763,0,0,0,6.216-.178c.486.522.282,1.151.206,1.724a12.4,12.4,0,0,1-1.156,2.632" transform="translate(-63.581 -53.943)" fill="#fcfcfc"/>
          <path id="Trazado_658015" data-name="Trazado 658015" d="M181.582,116.328c-2.3.013-4.6.078-6.905.022a3.67,3.67,0,0,1-3.518-3.5c-.06-1.412-.06-2.83,0-4.242a3.6,3.6,0,0,1,3.407-3.472,63.017,63.017,0,0,1,7.263.025c.019,1.086.974,1.895.949,2.963-.067,2.779.591,5.673-1.2,8.2m-3.526-7.706v0c-.769,0-1.539-.036-2.3.009a1.861,1.861,0,0,0-1.885,1.83,1.812,1.812,0,0,0,1.9,1.788q2.244.05,4.489,0a1.727,1.727,0,0,0,1.847-1.68,1.77,1.77,0,0,0-1.74-1.929c-.764-.059-1.536-.011-2.3-.011" transform="translate(-87.872 -53.943)" fill="#fcfcfc"/>
          <path id="Trazado_658016" data-name="Trazado 658016" d="M45.534,213.585l11.81-11.795c0,1.894-.018,3.9,0,5.9.023,1.966-.26,3.968.717,5.892Z" transform="translate(-23.383 -103.625)" fill="#cceaf8"/>
          <path id="Trazado_658017" data-name="Trazado 658017" d="M44.7,71.743c0,1.777-.03,3.555.015,5.331.017.687-.2.869-.88.884-3.949.09-6.141-1.991-6.155-5.915a10.5,10.5,0,0,1,.214-3.01A5.591,5.591,0,0,1,44.2,65.288c.665.108.489.527.492.882.016,1.858.007,3.716.007,5.573" transform="translate(-19.346 -33.488)" fill="#f1b1a0"/>
          <path id="Trazado_658018" data-name="Trazado 658018" d="M110.793,52.8c.508-2.731.293-5.316-1.534-7.573a11.983,11.983,0,0,1,3.127-.059,4.617,4.617,0,0,1,4.333,4.655c.045,1.006,0,2.014.015,3.021a1.238,1.238,0,0,1-.335.985,29.345,29.345,0,0,0-5.376,7.81c-.2-1.241.212-2.523-.251-3.747q.01-2.546.021-5.092" transform="translate(-56.108 -23.155)" fill="#efaf9f"/>
          <path id="Trazado_658019" data-name="Trazado 658019" d="M239.54,206.045a6.909,6.909,0,0,0,.995-3.9q-.091-5.489,0-10.98a7.285,7.285,0,0,0-1-4.023c2.837-.218,4.125.97,4.127,3.813q0,5.627,0,11.255c0,2.835-1.265,4-4.128,3.833" transform="translate(-123.011 -96.091)" fill="#f1b1a0"/>
          <path id="Trazado_658020" data-name="Trazado 658020" d="M167.212,148.7a25,25,0,0,0,5.015-4.965c1.607-2.379,2.978-4.871,2.981-7.868,1.573-.015,3.145-.02,4.717-.05.434-.008.642.037.579.586-.66,5.788-7.358,12-13.292,12.3" transform="translate(-85.868 -69.746)" fill="#efaf9f"/>
          <path id="Trazado_658021" data-name="Trazado 658021" d="M170.936,93.574c-1.047.039-2.1.046-3.141.125a7.365,7.365,0,0,0-6.8,7.1c-.008.242-.006.485-.012.727-.006.3-.157.426-.457.413s-.471-.133-.459-.429a7.647,7.647,0,0,0-1.533-4.988c-.267-.362.1-.5.272-.668q2.566-2.49,5.153-4.956a4.132,4.132,0,0,1,2.738-1c1.085-.061,2.178.013,3.268.028.412,1.193,1.3,2.26.967,3.65" transform="translate(-81.365 -46.152)" fill="#f4ccbe"/>
          <path id="Trazado_658022" data-name="Trazado 658022" d="M160.066,169.623A21.546,21.546,0,0,0,165.1,169c.541-.145.737-.066.713.514a41.175,41.175,0,0,1-.122,4.6,5.35,5.35,0,0,1-7.631,3.984,5.632,5.632,0,0,0,1.751-3.077c.492-1.778.183-3.6.253-5.4" transform="translate(-81.17 -86.756)" fill="#e69682"/>
          <path id="Trazado_658023" data-name="Trazado 658023" d="M112.2,114.011c.14,1.54-.07,3,.188,4.44a5.632,5.632,0,0,0,1.618,3.436,4.629,4.629,0,0,1,1.658,4.039,6.246,6.246,0,0,1-7.1-4.446,6.158,6.158,0,0,1,3.634-7.469" transform="translate(-55.628 -58.548)" fill="#efaf9f"/>
          <path id="Trazado_658024" data-name="Trazado 658024" d="M205.435,113.943a6.171,6.171,0,0,1,3.766,7.165,6.4,6.4,0,0,1-6.624,4.921c-.456-.037-.648-.112-.564-.625.187-1.132.219-2.21,1.264-3.1a6.637,6.637,0,0,0,2.152-5.1c.027-1.05,0-2.1,0-3.262" transform="translate(-103.73 -58.513)" fill="#e69682"/>
          <path id="Trazado_658025" data-name="Trazado 658025" d="M83.588,131.925a5.655,5.655,0,0,1-3.845-5.178c-.05-1.283-.445-2.914.175-3.758.6-.819,2.329-.2,3.56-.258.762-.035,1.528.025,2.292.043,0,.44-.011.882.017,1.321.181,2.868-.126,5.6-2.2,7.83" transform="translate(-40.864 -62.939)" fill="#f1b1a0"/>
          <path id="Trazado_658026" data-name="Trazado 658026" d="M87.826,132.085c2.072-2.234,2.38-4.962,2.2-7.83-.028-.439-.013-.881-.017-1.321,1.167-.018,2.335-.021,3.5-.06.531-.018.706.184.667.708a9.516,9.516,0,0,0,.94,4.923,1.093,1.093,0,0,1-.1,1.118,5.8,5.8,0,0,1-7.191,2.462" transform="translate(-45.101 -63.099)" fill="#e69682"/>
          <path id="Trazado_658027" data-name="Trazado 658027" d="M87.843,206.022a5.833,5.833,0,0,0,1.234-3.811c-.054-3.464-.042-6.929-.007-10.393a9.848,9.848,0,0,0-.747-4.7c.967-.018,1.933-.046,2.9-.053a1.061,1.061,0,0,1,1.133.893,1.09,1.09,0,0,1-.65,1.175c-1.977,1.229-1.958,2.325.041,3.622.881.572.85,1.437-.072,2.01-1.908,1.186-1.911,2.405-.007,3.571.967.592.957,1.474-.021,2.067-1.888,1.144-1.873,2.357.054,3.566a1.1,1.1,0,0,1,.659,1.179,1.086,1.086,0,0,1-1.128.91c-1.13,0-2.259-.022-3.388-.035" transform="translate(-45.11 -96.063)" fill="#efaf9f"/>
          <path id="Trazado_658028" data-name="Trazado 658028" d="M156.719,169.6c-.07,1.8.238,3.621-.253,5.4a5.632,5.632,0,0,1-1.751,3.077,4.813,4.813,0,0,1-3.081-4.145c-.156-1.479-.056-2.985-.081-4.478-.007-.455.083-.666.624-.5a19.517,19.517,0,0,0,4.542.652" transform="translate(-77.823 -86.731)" fill="#f1b1a0"/>
          <path id="Trazado_658029" data-name="Trazado 658029" d="M192.633,116.446c1.785-2.531,1.128-5.426,1.2-8.2.026-1.068-.929-1.877-.949-2.963a3.684,3.684,0,0,1,4.094,3.583c.06,1.323.062,2.654,0,3.977-.106,2.293-1.879,3.736-4.341,3.606" transform="translate(-98.923 -54.061)" fill="#eeecef"/>
          <path id="Trazado_658030" data-name="Trazado 658030" d="M145.227,116.441a12.4,12.4,0,0,0,1.156-2.632c.076-.572.28-1.2-.206-1.724,1.024-1.3,1.011-1.843-.068-3.1.741-.657.137-1.315-.033-1.947-.16-.6-.666-1.083-.6-1.764a3.653,3.653,0,0,1,4.155,3.759c.025,1.127.016,2.255,0,3.382-.027,2.683-1.675,4.185-4.406,4.026" transform="translate(-74.578 -54.056)" fill="#eeecef"/>
          <path id="Trazado_658031" data-name="Trazado 658031" d="M186.463,157.667c.729,2.085.053,3.988-.833,5.828a10.511,10.511,0,0,1-1.3,1.715c-3.171.223-3.367.012-3.011-3.163a.855.855,0,0,1,.459-.772,24.111,24.111,0,0,0,4.684-3.609" transform="translate(-93.047 -80.967)" fill="#f8df85"/>
          <path id="Trazado_658032" data-name="Trazado 658032" d="M183.1,93.574c.334-1.39-.556-2.457-.967-3.65a17.569,17.569,0,0,1,2.649.01,4.159,4.159,0,0,1,3.5,2.936c.173.5.273.83-.484.8-1.565-.067-3.133-.067-4.7-.094" transform="translate(-93.532 -46.153)" fill="#efaf9f"/>
          <path id="Trazado_658033" data-name="Trazado 658033" d="M108.136,98.173l-.3.036c-.037-.286.08-.685.288-.641.315.067.221.391.007.6" transform="translate(-55.376 -50.103)" fill="#534d54"/>
          <path id="Trazado_658034" data-name="Trazado 658034" d="M86.861,66.915a1.87,1.87,0,0,1,1.619.945,1.669,1.669,0,0,1-.1,1.934,28.79,28.79,0,0,1-1.906,2.343c-.391.426-.378.694.023,1.084a23.474,23.474,0,0,1,1.73,1.858,1.8,1.8,0,1,1-2.62,2.47c-1.023-1.028-2.018-2.089-2.962-3.19a2.3,2.3,0,0,1-.166-3.015c.969-1.335,2.064-2.58,3.127-3.845a1.761,1.761,0,0,1,1.259-.585" transform="translate(-42.103 -34.363)" fill="#030303"/>
          <path id="Trazado_658035" data-name="Trazado 658035" d="M108.565,59.381q-.011,2.546-.021,5.092a1.8,1.8,0,0,1-2.3,1.214c-1.072-.3-1.327-1.169-1.321-2.169.007-1.124.01-2.247,0-3.371-.01-1.07.337-1.949,1.466-2.182a1.781,1.781,0,0,1,2.179,1.416" transform="translate(-53.879 -29.741)" fill="#030303"/>
          <path id="Trazado_658036" data-name="Trazado 658036" d="M71.8,61.818c0-.687-.027-1.375,0-2.061a1.776,1.776,0,0,1,1.708-1.831,1.736,1.736,0,0,1,1.881,1.662,39.9,39.9,0,0,1-.011,4.6,1.7,1.7,0,0,1-1.942,1.571A1.671,1.671,0,0,1,71.8,64c-.028-.726-.005-1.455-.006-2.182" transform="translate(-36.864 -29.746)" fill="#030303"/>
          <path id="Trazado_658037" data-name="Trazado 658037" d="M154.133,149.466a9.853,9.853,0,0,1-6.71-2.772,1.867,1.867,0,0,1-.378-2.674c.722-.865,1.745-.881,2.779-.044,3.136,2.538,6.121,2.532,9.318-.018,1.008-.8,1.948-.8,2.69,0a1.879,1.879,0,0,1-.334,2.77,10.337,10.337,0,0,1-7.365,2.738" transform="translate(-75.301 -73.617)" fill="#030303"/>
          <path id="Trazado_658038" data-name="Trazado 658038" d="M139.187,112.582c1.079,1.258,1.091,1.8.068,3.1a18.766,18.766,0,0,1-6.217.178,1.539,1.539,0,0,1-1.287-1.784,1.577,1.577,0,0,1,1.449-1.665,19.717,19.717,0,0,1,5.987.171" transform="translate(-67.657 -57.652)" fill="#030303"/>
          <path id="Trazado_658039" data-name="Trazado 658039" d="M180.961,112.38c.769,0,1.541-.048,2.3.011a1.77,1.77,0,0,1,1.74,1.929,1.727,1.727,0,0,1-1.847,1.68q-2.243.051-4.489,0a1.812,1.812,0,0,1-1.9-1.788,1.861,1.861,0,0,1,1.885-1.83c.766-.044,1.536-.009,2.3-.009v0" transform="translate(-90.778 -57.701)" fill="#030303"/>
        </g>
      </g>
    </g>
  </g>
</svg>
