<svg xmlns="http://www.w3.org/2000/svg" xmlns:xlink="http://www.w3.org/1999/xlink" width="295" height="367" viewBox="0 0 295 367">
  <defs>
    <clipPath id="clip-path">
      <rect id="Rectángulo_312893" data-name="Rectángulo 312893" width="116.526" height="116.609" fill="none"/>
    </clipPath>
  </defs>
  <g id="Grupo_995944" data-name="Grupo 995944" transform="translate(-180 -707)">
    <rect id="Rectángulo_312845" data-name="Rectángulo 312845" width="295" height="367" rx="18" transform="translate(180 707)" fill="#ffd357"/>
    <g id="Grupo_995941" data-name="Grupo 995941" transform="translate(229.167 1010.114)">
      <rect id="Rectángulo_308408" data-name="Rectángulo 308408" width="196.665" height="34" rx="17" fill="#fff"/>
      <path id="Trazado_659168" data-name="Trazado 659168" d="M43.891,13.211A4.025,4.025,0,0,1,42.536,16.1a4.76,4.76,0,0,1-3.223,1.055,4.28,4.28,0,0,1-3.441-1.473,6.038,6.038,0,0,1-1.254-4.043v-.7A6.819,6.819,0,0,1,35.2,8.055a4.332,4.332,0,0,1,1.652-1.918,5.164,5.164,0,0,1,5.668.387,4.326,4.326,0,0,1,1.391,2.961H41.563a2.376,2.376,0,0,0-.613-1.6,2.271,2.271,0,0,0-1.605-.5,1.991,1.991,0,0,0-1.754.84,4.707,4.707,0,0,0-.6,2.605V11.7a5.038,5.038,0,0,0,.559,2.7,1.954,1.954,0,0,0,1.762.852,2.314,2.314,0,0,0,1.621-.5,2.241,2.241,0,0,0,.613-1.535ZM47.665,17H45.4V8.547h2.266Zm-2.4-10.641a1.112,1.112,0,0,1,.34-.836,1.465,1.465,0,0,1,1.848,0,1.105,1.105,0,0,1,.344.836,1.108,1.108,0,0,1-.348.844,1.448,1.448,0,0,1-1.836,0A1.108,1.108,0,0,1,45.266,6.359Zm7.773,8.977a1.481,1.481,0,0,0,1.016-.344,1.2,1.2,0,0,0,.406-.914h2.117a2.9,2.9,0,0,1-.469,1.574,3.093,3.093,0,0,1-1.262,1.109,3.949,3.949,0,0,1-1.77.395A3.67,3.67,0,0,1,50.219,16a4.56,4.56,0,0,1-1.047-3.184v-.148a4.508,4.508,0,0,1,1.039-3.117,3.627,3.627,0,0,1,2.852-1.164,3.555,3.555,0,0,1,2.543.9,3.2,3.2,0,0,1,.973,2.4H54.461a1.551,1.551,0,0,0-.406-1.072,1.51,1.51,0,0,0-2.223.163,3.333,3.333,0,0,0-.4,1.866v.235a3.375,3.375,0,0,0,.4,1.878A1.377,1.377,0,0,0,53.04,15.336ZM60.25,17H57.985V5H60.25Zm1.508-4.3a5.013,5.013,0,0,1,.484-2.242A3.546,3.546,0,0,1,63.637,8.93a4.069,4.069,0,0,1,2.113-.539,3.849,3.849,0,0,1,2.793,1.047,4.2,4.2,0,0,1,1.207,2.844l.016.578A4.418,4.418,0,0,1,68.68,15.98a4.209,4.209,0,0,1-5.832,0,4.5,4.5,0,0,1-1.09-3.187Zm2.258.16a3.16,3.16,0,0,0,.453,1.843,1.628,1.628,0,0,0,2.578.008,3.457,3.457,0,0,0,.461-2.015,3.128,3.128,0,0,0-.461-1.831,1.5,1.5,0,0,0-1.3-.649,1.474,1.474,0,0,0-1.281.646A3.516,3.516,0,0,0,64.016,12.856Zm18.742,0a5.119,5.119,0,0,1-.867,3.168,2.872,2.872,0,0,1-2.422,1.137,2.639,2.639,0,0,1-2.2-1.055l-.1.9H75.141V5H77.4V9.3a2.571,2.571,0,0,1,2.055-.914,2.9,2.9,0,0,1,2.426,1.137,5.126,5.126,0,0,1,.879,3.2ZM80.5,12.688a3.363,3.363,0,0,0-.406-1.871,1.374,1.374,0,0,0-1.211-.59,1.489,1.489,0,0,0-1.484.883v3.336a1.509,1.509,0,0,0,1.5.891,1.394,1.394,0,0,0,1.438-1.078A5.562,5.562,0,0,0,80.5,12.688ZM89.047,17a2.507,2.507,0,0,1-.227-.758,2.732,2.732,0,0,1-2.133.914,3,3,0,0,1-2.059-.719,2.312,2.312,0,0,1-.816-1.812,2.389,2.389,0,0,1,1-2.062,4.915,4.915,0,0,1,2.879-.727h1.039v-.484a1.393,1.393,0,0,0-.3-.937,1.183,1.183,0,0,0-.949-.352,1.345,1.345,0,0,0-.895.273.929.929,0,0,0-.324.75H84a2.268,2.268,0,0,1,.453-1.359,3,3,0,0,1,1.281-.98,4.669,4.669,0,0,1,1.859-.355,3.689,3.689,0,0,1,2.48.785,2.747,2.747,0,0,1,.918,2.207v3.664a4.041,4.041,0,0,0,.336,1.82V17ZM87.18,15.43a1.945,1.945,0,0,0,.922-.223,1.462,1.462,0,0,0,.625-.6V13.156h-.844q-1.7,0-1.8,1.172l-.008.133a.9.9,0,0,0,.3.7A1.153,1.153,0,0,0,87.18,15.43ZM88.04,5H90.5L88.336,7.422H86.5Zm9.266,9.664a.727.727,0,0,0-.41-.652,4.659,4.659,0,0,0-1.316-.426q-3.016-.633-3.016-2.562A2.323,2.323,0,0,1,93.5,9.145a3.766,3.766,0,0,1,2.441-.754,4.053,4.053,0,0,1,2.574.758,2.388,2.388,0,0,1,.965,1.969H97.219a1.092,1.092,0,0,0-.312-.8A1.322,1.322,0,0,0,95.93,10a1.351,1.351,0,0,0-.883.258.814.814,0,0,0-.312.656.7.7,0,0,0,.355.605,3.657,3.657,0,0,0,1.2.4,9.8,9.8,0,0,1,1.422.379A2.336,2.336,0,0,1,99.5,14.57a2.2,2.2,0,0,1-.992,1.871,4.28,4.28,0,0,1-2.562.715,4.47,4.47,0,0,1-1.887-.379,3.166,3.166,0,0,1-1.293-1.039,2.414,2.414,0,0,1-.469-1.426h2.141a1.179,1.179,0,0,0,.445.922,1.766,1.766,0,0,0,1.109.32,1.635,1.635,0,0,0,.98-.246A.766.766,0,0,0,97.305,14.664ZM103.336,17h-2.266V8.547h2.266Zm-2.4-10.641a1.112,1.112,0,0,1,.34-.836,1.465,1.465,0,0,1,1.848,0,1.105,1.105,0,0,1,.344.836,1.108,1.108,0,0,1-.348.844,1.448,1.448,0,0,1-1.836,0A1.108,1.108,0,0,1,100.938,6.359Zm7.773,8.977a1.481,1.481,0,0,0,1.016-.344,1.2,1.2,0,0,0,.406-.914h2.117a2.9,2.9,0,0,1-.469,1.574,3.093,3.093,0,0,1-1.262,1.109,3.949,3.949,0,0,1-1.77.395A3.67,3.67,0,0,1,105.891,16a4.56,4.56,0,0,1-1.047-3.184v-.148a4.508,4.508,0,0,1,1.039-3.117,3.627,3.627,0,0,1,2.852-1.164,3.555,3.555,0,0,1,2.543.9,3.2,3.2,0,0,1,.973,2.4h-2.117a1.551,1.551,0,0,0-.406-1.072,1.51,1.51,0,0,0-2.223.163,3.333,3.333,0,0,0-.4,1.866v.235a3.375,3.375,0,0,0,.4,1.878A1.377,1.377,0,0,0,108.711,15.336Zm4.477-2.641a5.013,5.013,0,0,1,.484-2.242,3.546,3.546,0,0,1,1.395-1.523,4.069,4.069,0,0,1,2.113-.539,3.849,3.849,0,0,1,2.793,1.047,4.2,4.2,0,0,1,1.207,2.844l.016.578a4.418,4.418,0,0,1-1.086,3.121,4.209,4.209,0,0,1-5.832,0,4.5,4.5,0,0,1-1.09-3.187Zm2.258.16A3.16,3.16,0,0,0,115.9,14.7a1.628,1.628,0,0,0,2.578.008,3.457,3.457,0,0,0,.461-2.015,3.128,3.128,0,0,0-.461-1.831,1.5,1.5,0,0,0-1.3-.649,1.474,1.474,0,0,0-1.281.646A3.516,3.516,0,0,0,115.446,12.856Z" transform="translate(20.5 7)" fill="#12263f"/>
    </g>
    <g id="Grupo_996221" data-name="Grupo 996221">
      <circle id="Elipse_8217" data-name="Elipse 8217" cx="95.354" cy="95.354" r="95.354" transform="translate(232.146 795.146)" fill="#ffda72"/>
      <g id="Grupo_995979" data-name="Grupo 995979" transform="translate(269.237 832.195)">
        <g id="Grupo_995979-2" data-name="Grupo 995979" clip-path="url(#clip-path)">
          <path id="Trazado_658100" data-name="Trazado 658100" d="M9.767,90.062c-1.418-.314-1.787-.774-1.787-2.283q0-16.552.018-33.1a2.2,2.2,0,0,0-.834-1.826A20.836,20.836,0,0,1,.024,36.976c-.048-4.853-.008-9.707-.01-14.561a5.485,5.485,0,0,1,3.127-5.26,5.378,5.378,0,0,1,6.076.558.634.634,0,0,0,.938.017,5.583,5.583,0,0,1,7.038,0,.653.653,0,0,0,.941.005,5.4,5.4,0,0,1,7.008.044.718.718,0,0,0,1.052-.024,5.3,5.3,0,0,1,5.885-.526,5.69,5.69,0,0,1,3.206,5.245c.015.678-.2,1.513.124,1.983.241.353,1.169.237,1.79.335a3.632,3.632,0,0,1,1.8.633c.852.722,1.591.453,2.475.094a41.22,41.22,0,0,1,24.3-2.123c.743.153,1.042.152,1.132-.746.987-9.808,6.33-16.512,15.132-20.474a23.115,23.115,0,0,1,19.6.014c1.488.663,1.682,1.047,1.433,2.642a2.045,2.045,0,0,1-2.8.511,18.116,18.116,0,0,0-8.089-1.81,12.985,12.985,0,0,0-2.94.134A21.45,21.45,0,0,0,91.966,46.43a19.444,19.444,0,0,0,8.061-1.613c12.639-5.367,17.776-22.53,7.959-33.771-1.085-1.243-1.108-1.76-.275-3A2.043,2.043,0,0,1,110.5,8.7a24.9,24.9,0,0,1,.708,31.634,23.5,23.5,0,0,1-13.964,8.9c-.714.153-.853.365-.6,1.093,8.461,24.7-6.555,48.082-29.329,53.894a40.465,40.465,0,0,1-14.114.853,4.575,4.575,0,0,1-.677-.079c-.952-.242-1.309,0-1.274,1.089.089,2.765.012,5.535.038,8.3.01,1.047-.213,1.9-1.362,2.174-.94.223-1.647-.333-2.1-1.584.012-.378.036-.756.036-1.134q0-9.161,0-18.322c0-1.035.234-1.911,1.382-2.178,3.949-.921,6.277-3.608,7.8-7.158,1.79-4.182,2.036-8.6,1.838-13.058-.078-1.777-1.34-2.777-3.241-2.783q-7-.023-14,0c-1.706,0-2.7.831-2.707,2.226s1,2.24,2.682,2.272c.379.007.759,0,1.138,0,3.6,0,7.209-.011,10.813.012a1.756,1.756,0,0,1,1.971,1.614c.054.989-.7,1.7-1.915,1.812a18.318,18.318,0,0,0-2.149.192A11.033,11.033,0,0,0,42.513,88.83c-.118,1.444-.748,2.143-1.872,2.073-1.064-.066-1.6-.816-1.551-2.211a14.079,14.079,0,0,1,3.975-9.412c.268-.286.669-.476.8-1.016H42.02c-3.461,0-5-1.02-6.314-4.245-.2-.5-.458-.48-.867-.382a5.443,5.443,0,0,1-4.72-1.028.7.7,0,0,0-1.042-.01,5.484,5.484,0,0,1-4.94.988c-.71-.2-.823.064-.81.692.035,1.82-.019,3.643.035,5.462a17.164,17.164,0,0,0,6.485,13.243,3.573,3.573,0,0,1,1.469,3.081c-.039,6.295.007,12.59.023,18.885-.2.915-.658,1.6-1.687,1.634-1.093.041-1.578-.661-1.831-1.606.016-6.179.022-12.358.062-18.536,0-.65-.4-.923-.788-1.274A19.687,19.687,0,0,1,20.27,82.8c-.792-6.409-.374-12.871-.228-19.308.042-1.867,1.318-3.172,2.933-4.058a5.71,5.71,0,0,1,5.016-.208c0-2.16.008-4.236,0-6.311a1.681,1.681,0,0,1,1.352-1.847c3.925-.883,6.22-3.546,7.752-7.035,1.88-4.282,2.061-8.814,1.837-13.384a2.858,2.858,0,0,0-2.962-2.583c-2.2-.031-4.4-.008-6.6-.009q-3.983,0-7.965,0a2.185,2.185,0,0,0-2.218,1.462,2.135,2.135,0,0,0,.61,2.486,2.829,2.829,0,0,0,2.018.59q5.917-.017,11.833,0c1.282,0,2.046.734,1.968,1.816-.073,1-.8,1.582-2.1,1.6a10.779,10.779,0,0,0-6.978,2.625,10.947,10.947,0,0,0-3.966,8.123c-.083,1.55-1.349,2.376-2.537,1.677a1.924,1.924,0,0,1-.877-1.958,14.334,14.334,0,0,1,4.15-9.572,5.756,5.756,0,0,1,.876-.617l-.232-.283H22.264c-3.608,0-5.143-1-6.49-4.329-.2-.487-.373-.391-.737-.314A5.7,5.7,0,0,1,10.2,30.346c-.324-.246-.521-.394-.938-.066a5.569,5.569,0,0,1-5.14,1.015c-.57-.156-.716-.009-.7.562q.05,2.046.006,4.095A17.853,17.853,0,0,0,10.512,51.2a2.175,2.175,0,0,1,.892,1.854q-.021,17.461,0,34.922a1.853,1.853,0,0,1-1.637,2.085M83.544,82.7c-1.709-.53-2.926-1.838-4.384-2.765-2.258-1.435-4.313-.491-4.739,2.14-.35,2.164-.758,4.321-1.01,6.5-.238,2.049-.689,4.111-.131,6.184a14.32,14.32,0,0,0,.544,2.777c.111.568.348.6.841.348A38.477,38.477,0,0,0,89.887,84.063c.4-.622.4-.9-.454-.946a46.075,46.075,0,0,1-5.888-.42M61.887,26.63a17.689,17.689,0,0,0-3.676,5C56.837,34.4,57.3,36,59.906,37.678c.731.471,1.5.883,2.247,1.327a13.56,13.56,0,0,1,3.03,2.377,6.211,6.211,0,0,1,.974,7.916,16.627,16.627,0,0,0-2.17,4.6c-.51,2.432.694,3.571,3.112,2.984a23.585,23.585,0,0,0,4-1.592c3.589-1.6,6.9-1.526,9.777,1.5a3.45,3.45,0,0,0,3.105,1.064c1.157-.165,2.3-.409,3.451-.618a37.124,37.124,0,0,1,7.533,0,39.435,39.435,0,0,0-1.873-6.692c-.159-.427-.337-.687-.875-.663a27.229,27.229,0,0,1-7.078-.848c-.139-.062-.272-.136-.415-.184Q70.2,43.964,67.061,28.978c-.275-.615.293-1.619-.576-1.885a37,37,0,0,0-4.1-.833c-.254-.047-.415.134-.5.369M87.859,60.784c-.562.066-1.132.1-1.687.2-2.71.512-5.4.548-7.454-1.576-2.012-2.082-4.094-2.105-6.481-.912a16.872,16.872,0,0,1-4.25,1.563c-2.229.44-4.445.534-6.137-1.316-1.731-1.892-1.594-4.142-.913-6.425a19.89,19.89,0,0,1,2.077-4.4c1.171-1.984.889-3.432-.944-4.854-.685-.531-1.452-.956-2.186-1.424-.957-.61-1.963-1.155-2.869-1.833a6.692,6.692,0,0,1-2.961-5.72,10.343,10.343,0,0,1,1.758-5.213c.592-.95,1.246-1.859,1.852-2.756-.067-.1-.085-.158-.1-.159a36.5,36.5,0,0,0-15.067,2.8c-.374.149-.336.382-.3.723a32.653,32.653,0,0,1-1.157,13.707c-1.548,4.853-4.175,8.823-9.2,10.7a.6.6,0,0,0-.434.675c.014,1.475.006,2.951.006,4.434,3.069-.326,4.088-.213,5.474.851a.9.9,0,0,0,1.333,0,5.42,5.42,0,0,1,6.653.044.894.894,0,0,0,1.319.05,5.636,5.636,0,0,1,8.684,2.894,7.6,7.6,0,0,1,.268,2.925c-.046.834.142,1.16,1.085,1.213a6.332,6.332,0,0,1,6.07,6.087A35.75,35.75,0,0,1,61.24,84.454c-1.2,4.268-3.2,7.98-7.02,10.54-.964.647-2.569.527-2.888,1.827a20.772,20.772,0,0,0-.079,3.739c-.038.723.3.909.9.981a41.08,41.08,0,0,0,8.4.215,34.579,34.579,0,0,0,8.183-1.519c2.14-.648,2.142-.641,1.512-2.783a22.525,22.525,0,0,1-.622-4.253,65.461,65.461,0,0,1,1.646-12.692,6.026,6.026,0,0,1,8.472-4.056,17.491,17.491,0,0,1,3.139,2.024,3.953,3.953,0,0,0,2.247.969c2.132.3,4.318.05,6.423.6.483.127.592-.159.724-.486.393-.98.829-1.944,1.176-2.939A37.342,37.342,0,0,0,95.5,61.683c-.029-.429.144-1.018-.654-1.075a26.01,26.01,0,0,0-6.991.175M35.8,66.344h.013c0-.606.029-1.213-.006-1.817a2.23,2.23,0,0,0-4.451-.239,16.853,16.853,0,0,0,.005,4.189,2.178,2.178,0,0,0,2.306,1.906,2.206,2.206,0,0,0,2.124-2.11c.051-.639.008-1.286.008-1.929m-7.892.044H27.84c0-.641.051-1.287-.011-1.922a2.181,2.181,0,0,0-2.055-2.038,2.22,2.22,0,0,0-2.345,1.86,15.251,15.251,0,0,0-.006,4.287,2.157,2.157,0,0,0,2.147,1.813A2.187,2.187,0,0,0,27.8,68.532c.1-.706.079-1.429.112-2.144M15.941,24.059c0-.567.017-1.136,0-1.7a2.214,2.214,0,0,0-2.148-2.314,2.28,2.28,0,0,0-2.362,2.131,30.709,30.709,0,0,0,0,3.855A2.176,2.176,0,0,0,13.7,28.1a2.205,2.205,0,0,0,2.238-2.223c.03-.6.005-1.21.008-1.815m-7.967.151h0c0-.566.016-1.133,0-1.7a2.313,2.313,0,0,0-2.119-2.367,2.364,2.364,0,0,0-2.4,2.241,29.174,29.174,0,0,0,0,3.622A2.193,2.193,0,0,0,5.82,28.1a2.2,2.2,0,0,0,2.149-2.187c.031-.565.005-1.132.005-1.7M41.76,66.928c2.144-.045,2.144-.045,2.014-2.233a2.39,2.39,0,0,0-2.352-2.508c-1.661.05-2.373,1.289-2.157,4.218.118,1.582,1.341.082,1.939.509.125.089.368.013.556.013M22.006,24.653v-.007c.415,0,.833-.025,1.247.006.469.035.7-.093.661-.618-.047-.677.041-1.37-.056-2.037a2.369,2.369,0,0,0-2.547-2.072c-1.556.245-2.2,1.548-1.928,4.344.143,1.459,1.174-.015,1.731.362.207.14.589.022.892.022M49.469,66.926c2.472,0,2.645-.207,2.227-2.679-.013-.075-.018-.151-.037-.224a2.271,2.271,0,0,0-3.523-1.3,3.784,3.784,0,0,0-.9,3.783c.379.938,1.344.208,2.009.421a.783.783,0,0,0,.227,0M29.583,24.646c2.587,0,2.59,0,2.268-2.477a2.442,2.442,0,0,0-.181-.648,2.164,2.164,0,0,0-2.181-1.474,2.088,2.088,0,0,0-2,1.557,4.126,4.126,0,0,0-.035,2.863c.219.506,1.316.1,2.014.178a1.039,1.039,0,0,0,.113,0" transform="translate(0 -0.001)" fill="#040303"/>
          <path id="Trazado_658101" data-name="Trazado 658101" d="M13.846,123.517a1.854,1.854,0,0,0,1.637-2.085q-.023-17.461,0-34.923a2.174,2.174,0,0,0-.892-1.853,17.852,17.852,0,0,1-7.084-15.25q.044-2.046-.006-4.095c-.014-.571.132-.717.7-.561a5.569,5.569,0,0,0,5.14-1.015c.417-.328.614-.181.938.066a5.7,5.7,0,0,0,4.835,1.021c.364-.077.54-.173.737.314,1.346,3.33,2.882,4.329,6.489,4.329H28.03l.232.282a5.814,5.814,0,0,0-.877.617,14.337,14.337,0,0,0-4.15,9.572,1.925,1.925,0,0,0,.876,1.958c1.188.7,2.454-.127,2.537-1.677A10.948,10.948,0,0,1,30.614,72.1a10.783,10.783,0,0,1,6.978-2.625c1.3-.019,2.028-.6,2.1-1.6.078-1.081-.685-1.812-1.968-1.816q-5.916-.018-11.833,0a2.831,2.831,0,0,1-2.018-.591,2.135,2.135,0,0,1-.61-2.485,2.186,2.186,0,0,1,2.219-1.462q3.982,0,7.965,0c2.2,0,4.4-.022,6.6.008a2.86,2.86,0,0,1,2.962,2.584c.224,4.569.043,9.1-1.837,13.384-1.532,3.489-3.828,6.153-7.752,7.035a1.681,1.681,0,0,0-1.352,1.847c.012,2.076,0,4.152,0,6.312a5.709,5.709,0,0,0-5.016.208c-1.615.885-2.892,2.191-2.934,4.057-.145,6.437-.563,12.9.229,19.308a19.689,19.689,0,0,0,6.824,12.367c.391.351.792.624.788,1.274-.039,6.179-.045,12.358-.061,18.537l-16.4.016c-.009-5.75-.035-11.5-.014-17.251a1.916,1.916,0,0,0-1.625-2.208q-.008-2.738-.016-5.476" transform="translate(-4.079 -33.456)" fill="#f7d9b7"/>
          <path id="Trazado_658102" data-name="Trazado 658102" d="M59.156,198.832c-.016-6.3-.062-12.591-.023-18.885a3.572,3.572,0,0,0-1.469-3.081,17.161,17.161,0,0,1-6.485-13.243c-.055-1.819,0-3.642-.036-5.462-.012-.628.1-.893.81-.693a5.484,5.484,0,0,0,4.94-.988.7.7,0,0,1,1.042.01,5.441,5.441,0,0,0,4.719,1.028c.409-.1.663-.121.867.382,1.31,3.225,2.853,4.242,6.314,4.245H71.68c-.129.54-.53.73-.8,1.016a14.079,14.079,0,0,0-3.976,9.412c-.047,1.395.487,2.144,1.551,2.211,1.123.07,1.754-.628,1.871-2.073a11.034,11.034,0,0,1,8.948-10.36,18.433,18.433,0,0,1,2.149-.192c1.215-.108,1.969-.823,1.916-1.811a1.756,1.756,0,0,0-1.971-1.614c-3.6-.024-7.209-.011-10.813-.012-.379,0-.759.006-1.138,0-1.686-.032-2.69-.884-2.682-2.272s1-2.223,2.707-2.226q7-.01,14,0c1.9.006,3.162,1.006,3.241,2.783.2,4.457-.048,8.875-1.838,13.057-1.52,3.551-3.847,6.237-7.8,7.158-1.148.268-1.383,1.143-1.382,2.179q.011,9.161,0,18.322c0,.379-.023.757-.035,1.134l-16.479-.026" transform="translate(-27.818 -83.881)" fill="#f4c89d"/>
          <path id="Trazado_658103" data-name="Trazado 658103" d="M217.391,12.254c-.834,1.237-.811,1.755.275,3,9.817,11.241,4.679,28.4-7.959,33.771a19.449,19.449,0,0,1-8.061,1.613A13.85,13.85,0,0,1,204.415,49a21.8,21.8,0,0,0,8.717-9.743,23.458,23.458,0,0,0,1.744-14.484A22.266,22.266,0,0,0,203.94,9.139c-.706-.415-1.677-.5-2.067-1.4a18.117,18.117,0,0,1,8.088,1.81,2.046,2.046,0,0,0,2.8-.511,16.722,16.722,0,0,1,3.508,2.467,4.085,4.085,0,0,0,1.124.751" transform="translate(-109.679 -4.207)" fill="#f2ebe9"/>
          <path id="Trazado_658104" data-name="Trazado 658104" d="M19.295,209.474a1.916,1.916,0,0,1,1.625,2.207c-.021,5.751.005,11.5.014,17.251-.374,1.2-1.03,1.724-1.978,1.584s-1.46-.841-1.462-2.092q-.01-8.4,0-16.8c0-1.383.4-1.839,1.8-2.15" transform="translate(-9.512 -113.937)" fill="#020202"/>
          <path id="Trazado_658105" data-name="Trazado 658105" d="M127.88,246.946a1.666,1.666,0,0,1-1.626-1.788,1.617,1.617,0,0,1,1.789-1.593,1.662,1.662,0,0,1,1.6,1.7,1.723,1.723,0,0,1-1.759,1.679" transform="translate(-68.671 -132.479)" fill="#080909"/>
          <path id="Trazado_658106" data-name="Trazado 658106" d="M232.736,144.141a1.632,1.632,0,0,1-1.663,1.649,1.7,1.7,0,1,1,1.663-1.649" transform="translate(-124.769 -77.447)" fill="#080909"/>
          <path id="Trazado_658107" data-name="Trazado 658107" d="M136.283,31.452a1.59,1.59,0,0,1-1.6,1.692,1.658,1.658,0,0,1-1.776-1.661,1.714,1.714,0,0,1,1.744-1.72,1.648,1.648,0,0,1,1.631,1.69" transform="translate(-72.291 -16.188)" fill="#080909"/>
          <path id="Trazado_658108" data-name="Trazado 658108" d="M188.785,224.99a1.623,1.623,0,0,1-1.739,1.679,1.64,1.64,0,0,1-1.618-1.7,1.694,1.694,0,0,1,1.755-1.7,1.665,1.665,0,0,1,1.6,1.721" transform="translate(-100.858 -121.44)" fill="#080909"/>
          <path id="Trazado_658109" data-name="Trazado 658109" d="M173.552,235.042a1.716,1.716,0,0,1-1.626-1.833,1.63,1.63,0,0,1,1.744-1.565,1.6,1.6,0,0,1,1.607,1.8,1.673,1.673,0,0,1-1.725,1.6" transform="translate(-93.512 -125.996)" fill="#080909"/>
          <path id="Trazado_658110" data-name="Trazado 658110" d="M101.334,32.645a1.7,1.7,0,0,1,3.392-.018,1.73,1.73,0,0,1-1.691,1.754,1.712,1.712,0,0,1-1.7-1.736" transform="translate(-55.118 -16.852)" fill="#080909"/>
          <path id="Trazado_658111" data-name="Trazado 658111" d="M87.738,35.085a1.7,1.7,0,0,1-.044,3.405,1.7,1.7,0,1,1,.044-3.405" transform="translate(-46.769 -19.083)" fill="#080909"/>
          <path id="Trazado_658112" data-name="Trazado 658112" d="M209.747,201.2a1.643,1.643,0,0,1,1.667,1.654,1.714,1.714,0,0,1-1.72,1.744,1.675,1.675,0,0,1-1.641-1.8,1.6,1.6,0,0,1,1.695-1.6" transform="translate(-113.163 -109.439)" fill="#080909"/>
          <path id="Trazado_658113" data-name="Trazado 658113" d="M145.36,243.468a1.6,1.6,0,0,1-1.7,1.707,1.621,1.621,0,0,1-1.652-1.655,1.693,1.693,0,0,1,1.714-1.739,1.669,1.669,0,0,1,1.639,1.687" transform="translate(-77.24 -131.509)" fill="#080909"/>
          <path id="Trazado_658114" data-name="Trazado 658114" d="M232.38,128.25a1.662,1.662,0,0,1-1.774,1.664,1.592,1.592,0,0,1-1.615-1.679,1.67,1.67,0,0,1,1.744-1.695,1.728,1.728,0,0,1,1.645,1.709" transform="translate(-124.553 -68.828)" fill="#080909"/>
          <path id="Trazado_658115" data-name="Trazado 658115" d="M226.484,175.033a1.693,1.693,0,0,1-1.707,1.723,1.646,1.646,0,0,1-1.682-1.61,1.68,1.68,0,0,1,1.625-1.792,1.722,1.722,0,0,1,1.763,1.679" transform="translate(-121.346 -94.29)" fill="#080909"/>
          <path id="Trazado_658116" data-name="Trazado 658116" d="M219.986,189.522a1.7,1.7,0,0,1-1.734,1.7,1.647,1.647,0,0,1-1.652-1.641,1.67,1.67,0,0,1,1.652-1.765,1.72,1.72,0,0,1,1.734,1.708" transform="translate(-117.812 -102.156)" fill="#080909"/>
          <path id="Trazado_658117" data-name="Trazado 658117" d="M158.957,237.777a1.687,1.687,0,0,1,1.735,1.691,1.627,1.627,0,0,1-1.578,1.7,1.673,1.673,0,0,1-1.808-1.6,1.731,1.731,0,0,1,1.651-1.791" transform="translate(-85.561 -129.331)" fill="#080909"/>
          <path id="Trazado_658118" data-name="Trazado 658118" d="M227.941,114.336a1.7,1.7,0,1,1-.059-3.408,1.7,1.7,0,0,1,.059,3.408" transform="translate(-123.024 -60.336)" fill="#080909"/>
          <path id="Trazado_658119" data-name="Trazado 658119" d="M120.484,30.878a1.608,1.608,0,0,1-1.694,1.714,1.586,1.586,0,0,1-1.645-1.641,1.67,1.67,0,1,1,3.338-.073" transform="translate(-63.718 -15.884)" fill="#040404"/>
          <path id="Trazado_658120" data-name="Trazado 658120" d="M229.112,158.172a1.682,1.682,0,0,1-.036,3.364,1.631,1.631,0,0,1-1.652-1.762,1.6,1.6,0,0,1,1.689-1.6" transform="translate(-123.7 -86.033)" fill="#040404"/>
          <path id="Trazado_658121" data-name="Trazado 658121" d="M200.954,214.791a1.727,1.727,0,0,1-1.63,1.724,1.665,1.665,0,0,1-1.738-1.7,1.6,1.6,0,0,1,1.714-1.692,1.655,1.655,0,0,1,1.654,1.669" transform="translate(-107.471 -115.922)" fill="#080909"/>
          <path id="Trazado_658122" data-name="Trazado 658122" d="M122.583,110.374a3.955,3.955,0,0,1-2.247-.968,17.51,17.51,0,0,0-3.139-2.024,6.027,6.027,0,0,0-8.472,4.056,65.461,65.461,0,0,0-1.646,12.692,22.527,22.527,0,0,0,.623,4.253c-1.492.463-2.7,1.487-4.119,2.1-1.836.8-3.714,1.473-5.575,2.2a41.08,41.08,0,0,1-8.4-.215c-.608-.073-.941-.258-.9-.981a20.73,20.73,0,0,1,.08-3.739c.318-1.3,1.924-1.18,2.888-1.827,3.815-2.56,5.82-6.271,7.02-10.54A35.763,35.763,0,0,0,99.745,104a6.333,6.333,0,0,0-6.07-6.087c-.943-.053-1.131-.379-1.085-1.213a7.611,7.611,0,0,0-.268-2.925,5.636,5.636,0,0,0-8.684-2.894.894.894,0,0,1-1.319-.049,5.418,5.418,0,0,0-6.653-.044.9.9,0,0,1-1.333,0c-1.386-1.064-2.405-1.177-5.474-.851,0-1.482.008-2.958-.006-4.433a.6.6,0,0,1,.434-.675c5.026-1.88,7.653-5.85,9.2-10.7a32.652,32.652,0,0,0,1.156-13.707c-.038-.34-.077-.573.3-.723a36.5,36.5,0,0,1,15.067-2.8c.02,0,.038.055.1.158-.606.9-1.26,1.807-1.852,2.756A10.341,10.341,0,0,0,91.5,65.019a6.694,6.694,0,0,0,2.961,5.721c.906.677,1.911,1.223,2.869,1.833.734.467,1.5.893,2.186,1.424,1.833,1.422,2.115,2.869.943,4.854a19.914,19.914,0,0,0-2.077,4.4c-.68,2.282-.818,4.533.914,6.424,1.693,1.85,3.908,1.756,6.137,1.316a16.873,16.873,0,0,0,4.25-1.563c2.388-1.193,4.469-1.17,6.481.912,2.053,2.123,4.743,2.087,7.454,1.575.555-.1,1.124-.137,1.686-.2.133,4.8.065,9.585-1.361,14.237q-.679,2.212-1.365,4.422" transform="translate(-37.451 -30.931)" fill="#a7e6d7"/>
          <path id="Trazado_658123" data-name="Trazado 658123" d="M175.882,7.692c.389.9,1.361.986,2.067,1.4a22.265,22.265,0,0,1,10.936,15.635,23.459,23.459,0,0,1-1.745,14.484,21.791,21.791,0,0,1-8.717,9.742,13.876,13.876,0,0,0-2.77,1.636,21.45,21.45,0,0,1-2.713-42.764,13.01,13.01,0,0,1,2.94-.135m7.073,31.344c.995,1.182,1.848,1.459,2.706.917.888-.562.983-1.469.291-2.806-1.093-2.115-2.216-4.216-3.271-6.35a2.372,2.372,0,0,0-2.5-1.542c-1.057.071-2.123-.005-3.183.023-.5.014-.751-.067-.737-.662.014-.554.192-.716.729-.7,1.174.035,2.35.022,3.525.007,1.276-.016,1.98-.618,1.99-1.672s-.709-1.712-1.949-1.736c-1.174-.023-2.351-.036-3.525.008-.59.022-.767-.149-.775-.752a1.181,1.181,0,0,1,.723-1.122,4.486,4.486,0,1,0-6.693-5.116,4.349,4.349,0,0,0,1.8,5.07,1.492,1.492,0,0,1,.8,1.549c-.03.849-.728.645-1.156.775A9.711,9.711,0,0,0,176.669,43.7a9.531,9.531,0,0,0,6.286-4.663" transform="translate(-83.689 -4.162)" fill="#f9f7f7"/>
          <path id="Trazado_658124" data-name="Trazado 658124" d="M135.582,60.735q3.124,15,17.663,19.865c.143.048.276.122.414.184a36.607,36.607,0,0,1,2.294,8.2c-1.15.209-2.295.453-3.451.617a3.451,3.451,0,0,1-3.106-1.064c-2.881-3.025-6.188-3.1-9.777-1.5a23.522,23.522,0,0,1-4,1.592c-2.418.587-3.622-.552-3.111-2.984a16.648,16.648,0,0,1,2.169-4.6,6.212,6.212,0,0,0-.974-7.917,13.538,13.538,0,0,0-3.03-2.376c-.748-.444-1.516-.857-2.247-1.328-2.605-1.681-3.069-3.283-1.7-6.047a17.681,17.681,0,0,1,3.676-5l5.174,2.348" transform="translate(-68.522 -31.758)" fill="#f8e393"/>
          <path id="Trazado_658125" data-name="Trazado 658125" d="M186.661,151.546q.683-2.211,1.365-4.422c1.427-4.652,1.495-9.435,1.361-14.237a26.032,26.032,0,0,1,6.992-.175c.8.056.626.646.654,1.075a37.343,37.343,0,0,1-2.05,14.939c-.347,1-.783,1.96-1.176,2.939-.131.327-.241.613-.724.486-2.105-.555-4.291-.3-6.423-.6" transform="translate(-101.529 -72.104)" fill="#89dfcc"/>
          <path id="Trazado_658126" data-name="Trazado 658126" d="M170.938,181.32a46.077,46.077,0,0,0,5.889.42c.85.05.85.323.454.945A38.483,38.483,0,0,1,162.058,196.5c-.493.252-.73.22-.841-.348a14.325,14.325,0,0,1-.543-2.778,1.707,1.707,0,0,0,.517-.191,39.553,39.553,0,0,0,9.746-11.865" transform="translate(-87.394 -98.624)" fill="#f6d57b"/>
          <path id="Trazado_658127" data-name="Trazado 658127" d="M170.618,177.224a39.554,39.554,0,0,1-9.746,11.865,1.707,1.707,0,0,1-.517.191c-.559-2.072-.107-4.134.13-6.184.252-2.175.66-4.333,1.011-6.5.426-2.632,2.481-3.576,4.738-2.14,1.458.927,2.675,2.234,4.384,2.764" transform="translate(-87.075 -94.528)" fill="#f8e393"/>
          <path id="Trazado_658128" data-name="Trazado 658128" d="M188.966,115.7a36.614,36.614,0,0,0-2.294-8.2,27.238,27.238,0,0,0,7.079.848c.538-.024.716.235.875.663A39.4,39.4,0,0,1,196.5,115.7a37.124,37.124,0,0,0-7.533,0" transform="translate(-101.535 -58.469)" fill="#f6d57b"/>
          <path id="Trazado_658129" data-name="Trazado 658129" d="M73.043,140.594c0,.643.042,1.29-.009,1.929a2.205,2.205,0,0,1-2.123,2.11,2.178,2.178,0,0,1-2.306-1.906,16.828,16.828,0,0,1-.006-4.189,2.231,2.231,0,0,1,4.452.239c.035.6.006,1.211.006,1.817h-.013" transform="translate(-37.243 -74.251)" fill="#e9b583"/>
          <path id="Trazado_658130" data-name="Trazado 658130" d="M55.665,140.83c-.033.716-.01,1.439-.112,2.144a2.186,2.186,0,0,1-2.227,1.854,2.156,2.156,0,0,1-2.147-1.812,15.217,15.217,0,0,1,.007-4.287,2.219,2.219,0,0,1,2.344-1.86,2.18,2.18,0,0,1,2.055,2.038c.062.635.011,1.281.011,1.922h.069" transform="translate(-27.756 -74.443)" fill="#e9b583"/>
          <path id="Trazado_658131" data-name="Trazado 658131" d="M29.493,47.959c0,.605.024,1.211-.007,1.815A2.205,2.205,0,0,1,27.248,52a2.177,2.177,0,0,1-2.272-2.068,30.8,30.8,0,0,1,0-3.855,2.28,2.28,0,0,1,2.362-2.131,2.214,2.214,0,0,1,2.148,2.314c.02.566,0,1.134,0,1.7" transform="translate(-13.553 -23.901)" fill="#f2c69c"/>
          <path id="Trazado_658132" data-name="Trazado 658132" d="M12.029,48.226c0,.566.026,1.134-.005,1.7a2.2,2.2,0,0,1-2.149,2.187,2.193,2.193,0,0,1-2.361-2.089,29.263,29.263,0,0,1,0-3.622,2.364,2.364,0,0,1,2.4-2.24,2.313,2.313,0,0,1,2.119,2.367c.019.566,0,1.132,0,1.7Z" transform="translate(-4.056 -24.018)" fill="#f2c69c"/>
          <path id="Trazado_658133" data-name="Trazado 658133" d="M88.543,141.092c-.188,0-.431.076-.556-.013-.6-.427-1.822,1.073-1.939-.509-.217-2.929.5-4.169,2.156-4.218a2.39,2.39,0,0,1,2.352,2.508c.13,2.188.13,2.188-2.014,2.232" transform="translate(-46.783 -74.164)" fill="#e9b583"/>
          <path id="Trazado_658134" data-name="Trazado 658134" d="M45.048,48.387c-.3,0-.685.118-.892-.023-.556-.376-1.587,1.1-1.73-.361-.275-2.8.372-4.1,1.928-4.344A2.369,2.369,0,0,1,46.9,45.731c.1.668.009,1.36.056,2.038.036.525-.192.653-.661.618-.414-.031-.831-.006-1.247-.006Z" transform="translate(-23.043 -23.735)" fill="#f2c69c"/>
          <path id="Trazado_658135" data-name="Trazado 658135" d="M105.58,141.211a.78.78,0,0,1-.226,0c-.665-.213-1.631.517-2.009-.421a3.785,3.785,0,0,1,.9-3.783,2.27,2.27,0,0,1,3.522,1.3c.019.073.025.149.037.224.418,2.472.245,2.679-2.227,2.679" transform="translate(-56.111 -74.286)" fill="#e9b583"/>
          <path id="Trazado_658136" data-name="Trazado 658136" d="M62.041,48.552a1.038,1.038,0,0,1-.113,0c-.7-.079-1.795.328-2.014-.178a4.126,4.126,0,0,1,.035-2.863,2.088,2.088,0,0,1,2-1.557,2.164,2.164,0,0,1,2.181,1.474,2.442,2.442,0,0,1,.181.648c.322,2.476.319,2.477-2.268,2.477" transform="translate(-32.457 -23.906)" fill="#f2c69c"/>
          <path id="Trazado_658137" data-name="Trazado 658137" d="M132.776,217.976c1.861-.725,3.739-1.4,5.575-2.2,1.424-.618,2.627-1.641,4.119-2.1.63,2.142.628,2.135-1.512,2.784a34.578,34.578,0,0,1-8.183,1.519" transform="translate(-72.22 -116.221)" fill="#89dfcc"/>
          <path id="Trazado_658138" data-name="Trazado 658138" d="M140.867,60.285l-5.174-2.348c.084-.235.246-.416.5-.37a37.009,37.009,0,0,1,4.1.833c.868.266.3,1.27.576,1.885" transform="translate(-73.806 -31.308)" fill="#f6d57b"/>
          <path id="Trazado_658139" data-name="Trazado 658139" d="M196.073,47.057a9.531,9.531,0,0,1-6.286,4.662,9.711,9.711,0,0,1-4.941-18.77c.427-.13,1.126.073,1.156-.775a1.492,1.492,0,0,0-.8-1.549,4.49,4.49,0,0,1,2.446-8.225A4.5,4.5,0,0,1,190.1,30.67a1.182,1.182,0,0,0-.723,1.123c.009.6.186.773.775.751,1.173-.043,2.35-.031,3.525-.007,1.24.025,1.959.685,1.949,1.736s-.714,1.656-1.99,1.672c-1.175.015-2.351.027-3.525-.007-.538-.016-.716.146-.729.7-.014.6.239.676.737.663,1.06-.029,2.126.047,3.183-.024a2.372,2.372,0,0,1,2.5,1.542c1.054,2.134,2.177,4.235,3.271,6.35.691,1.338.6,2.245-.291,2.806-.857.542-1.711.265-2.706-.917m-8.391,1.5a6.334,6.334,0,0,0,6.069-4.88,2.235,2.235,0,0,0-2.358-2.968h-2.045c-3.271,0-3.343-.073-3.359-3.38-.006-1.175-.093-1.224-1.194-.671a6.218,6.218,0,0,0-3.2,7.086,6.126,6.126,0,0,0,6.085,4.813m1.084-21.672c-.1-.658-.426-1.067-1.114-1.056a1.071,1.071,0,0,0,.056,2.141c.7-.019.98-.464,1.058-1.085" transform="translate(-96.807 -12.183)" fill="#040404"/>
          <path id="Trazado_658140" data-name="Trazado 658140" d="M191.771,65.15a6.127,6.127,0,0,1-6.086-4.813,6.219,6.219,0,0,1,3.2-7.087c1.1-.553,1.188-.5,1.194.671.016,3.307.089,3.38,3.36,3.38h2.044a2.235,2.235,0,0,1,2.358,2.968,6.335,6.335,0,0,1-6.07,4.88" transform="translate(-100.895 -28.779)" fill="#f7f5f5"/>
          <path id="Trazado_658141" data-name="Trazado 658141" d="M199.076,30.969c-.078.621-.361,1.066-1.058,1.085a1.071,1.071,0,0,1-.056-2.141c.688-.011,1.016.4,1.114,1.056" transform="translate(-107.116 -16.27)" fill="#f2ebe9"/>
        </g>
      </g>
    </g>
  </g>
</svg>
