<svg xmlns="http://www.w3.org/2000/svg" xmlns:xlink="http://www.w3.org/1999/xlink" width="295" height="291.85" viewBox="0 0 295 291.85"><defs><clipPath id="a"><rect width="236.173" height="295" fill="#eafff1"/></clipPath><clipPath id="b"><rect width="227.471" height="291.85" fill="none"/></clipPath></defs><g transform="translate(-915 -2687.763)"><g transform="translate(1210 2715.602) rotate(90)"><g clip-path="url(#a)"><path d="M227.948,149.564s25.205,63.344-12.631,93.832-87.249-43.7-125,32.887C63.666,330.367-8.442,302.7.815,245.446,11.349,180.293,48.1,224.595,26.262,80.736,15.446,9.5,166.876-43.144,227.948,149.564" transform="translate(0 -10.39)" fill="#eafff1"/><path d="M467.831,32.744s15.473,7.078,13.406,17.222-21.278,1.444-24.413-7.624,5.677-12.938,11.008-9.6" transform="translate(-294.8 -20.394)" fill="#eafff1"/><path d="M400.521,5.375A7.4,7.4,0,0,1,411.033.807c3.29,1.648,6.462,4.438,5.5,8.93-1.861,8.691-10.706,4.08-14.545,1.032-1.628-1.293-1.837-3.992-1.466-5.394" transform="translate(-258.737 0)" fill="#eafff1"/><path d="M532.092,691.575s15.1-5.7,20.474,1.724-13.027,14.58-20.811,11.194-5.029-11.444.337-12.917" transform="translate(-340.528 -445.584)" fill="#eafff1"/><path d="M615.191,662.856a6.545,6.545,0,0,0-3.805,9.4c1.531,2.873,4.07,5.616,8.021,4.664,7.645-1.841,7.235-9.961,1.358-13.271a9,9,0,0,0-5.574-.792" transform="translate(-394.599 -428.271)" fill="#eafff1"/></g></g><g transform="translate(932.307 2687.763)"><g clip-path="url(#b)"><path d="M225.311,121.157c-.3.441-7.052,4.848-23.07,5.58s-23.211-4.408-23.211-4.99,2.936-8.965,2.936-9.847v-5.139l-.035.044a29.338,29.338,0,0,1-7.749,6.127c-2.839,1.507-11.178,4.884-17.357,7.317-4.064,1.613-7.185,2.821-7.185,2.821l-10.279-4.848a8.091,8.091,0,0,1,1.322-5.589c.458-.573,21.889-15.568,21.889-15.568l.591-.882a2.618,2.618,0,0,1,1-1.587,2.491,2.491,0,0,1,1.49-.476s5.139-17.19,5.139-19.835,2.944-11.9,5.439-15.127,17.384-6.664,17.384-6.664l14.008-2.645s12.976.934,14.6,1.516,3.376,69.35,3.085,69.791" transform="translate(-16.502 -5.905)" fill="#f46464"/><path d="M236.118,301.773c-.758,1.137-3.359,4.108-3.517,4.293-.009.009-2.363,9.415-3.923,10.2s-9.018,3.526-12.544,3.526-10.966-.388-12.535-1.172-1.957-1.966-1.172-3.138a4.944,4.944,0,0,1,.978-.882c2.054-1.525,6.453-3.985,6.832-4.2.026-.009,5.122-9.406,5.9-10.587s1.181-6.656,1.181-6.656L232.2,290.41s4.7,10.182,3.914,11.363" transform="translate(-23.934 -34.403)" fill="#12263f"/><path d="M236.3,301.773c-.758,1.137-3.359,4.108-3.517,4.293-.009.009-3.635,8.992-7.452,8.992-3.138,0-17.284.141-21.745-.458,2.054-1.525,6.453-3.985,6.832-4.2.026-.009,9.626-.185,9.626-.185l2.345-4.408-6.462-2.054,12.051-1.472a26.064,26.064,0,0,0-4.408-1.763c-1.472-.291-7.255-.705-7.255-.705.785-1.172,1.181-6.656,1.181-6.656l14.889-2.742s4.7,10.182,3.914,11.363" transform="translate(-24.118 -34.403)" fill="#051427"/><path d="M183.679,22.071s-3.57-5.1-2.988-8.032c.115-.581,1.652-3.777,1.652-3.777a8.617,8.617,0,0,1-1.59,1.217c-.375.093,4.21-8.607,10.291-10.291S197.593,1,197.593,1a9.243,9.243,0,0,1,10.572,1.59,18.94,18.94,0,0,1,6.361,12.256,20.271,20.271,0,0,1-.562,4.865s-.654,10.011-3.181,11.226-6.455.375-6.455.375Z" transform="translate(-21.398 0)"/><path d="M215.8,92.8s-33.2,8.522-34.086,8.522.685,6.94.685,6.94l-.035.044a29.338,29.338,0,0,1-7.749,6.127c-2.839,1.507-11.178,4.884-17.357,7.317-5.466.141-11.98.141-11.98.141l-2.354-4.7s20.866-16.167,24.392-16.749,9.106.291,9.106.291L167.9,96.92s6.462-26.446,7.934-28.509,3.526-5.871,3.526-5.871v7.934S177.6,87.8,181.125,90.749,215.8,92.8,215.8,92.8" transform="translate(-16.931 -7.409)" fill="#e54646"/><path d="M217.562,47.747s-3.623,7.616-10.235,8.5-8.939-5.4-8.939-5.4l.644-.37a2.08,2.08,0,0,0,.317-.229,2.52,2.52,0,0,0,.9-2.345c-.079-.467-.115-.758-.115-.758l9.6-14.157,1.86-2.742s.123.617.317,1.631c.5,2.618,1.5,7.916,2.239,12.342.071.423.141.837.2,1.243a2.512,2.512,0,0,0,2.019,2.072Z" transform="translate(-23.502 -3.582)" fill="#ff9e7b"/><path d="M213.4,39.407a10.8,10.8,0,0,1-5.048,11.308,8.117,8.117,0,0,1-2.318.919c-3.694.8-5.607-.264-6.559-1.172a2.52,2.52,0,0,0,.9-2.345c-.079-.467-.115-.758-.115-.758l9.6-14.157,2.177-1.111c.319,1.662.837,4.4,1.362,7.317" transform="translate(-23.631 -3.801)" fill="#d6705c"/><path d="M40.293,253.663l57.789,7.248,1.372-11.949-60.532-7.445Z" transform="translate(-4.611 -28.611)" fill="#252238"/><path d="M179.142,314.255c-.882.291-23.669,1.243-36.258,1.208-4.249-.009-7.334-.132-8.022-.423-2.742-1.181,8.621-10.578,10.578-10.975l1.966-.388s11.751-5.88,13.708-7.052,3.923-6.664,3.923-6.664l4.655,2.019,9.838,4.249s.785,17.631-.388,18.027" transform="translate(-15.926 -34.35)" fill="#12263f"/><path d="M179.791,314.526c-.882.291-23.669,1.243-36.258,1.208-2.213-.547-3.614-.9-3.614-.9l5.289-4.7,4.117-5.289,17.631-9.7,3.385-2.9,9.838,4.249s.785,17.631-.388,18.027" transform="translate(-16.575 -34.621)" fill="#051427"/><path d="M176.575,148.088s-20.374,59.356-20.765,64.059,8.228,57.593,8.228,57.593a25.793,25.793,0,0,0,0,5.877c.391,2.742,15.672,3.526,18.022,3.134a3.731,3.731,0,0,0,3.135-3.918,5.472,5.472,0,0,0-1.567-3.135s-.785-21.548-1.567-31.735a145.667,145.667,0,0,0-3.135-19.981,6.645,6.645,0,0,0,0-3.135l-.392-1.959,21.745-47.212-4.9-23.311-9.011-1.959Z" transform="translate(-18.456 -16.87)" fill="#b0c0d2"/><path d="M150.633,217.073s-4.7,14.1-7.052,15.868-42.9,16.456-44.665,17.043-62.883-5.289-62.883-5.289l29.972-19.981Z" transform="translate(-4.269 -25.715)" fill="#252238"/><path d="M63.653,199.694c-17.1,0-30.957,22.911-30.957,51.172s13.856,51.164,30.957,51.164S94.6,279.12,94.6,250.866s-13.856-51.172-30.949-51.172m2.18,93.962c-13.471,0-24.394-19.322-24.394-43.158s10.923-43.15,24.394-43.15,24.4,19.322,24.4,43.15-10.922,43.158-24.4,43.158" transform="translate(-3.873 -23.656)" fill="#252238"/><path d="M25.367,202.7l4.114,13.517H38.3l-.588-10.578,47.6-13.517L81.2,185.073S29.481,199.766,25.367,202.7" transform="translate(-3.005 -21.924)" fill="#252238"/><path d="M68.16,163.214s-3.526,6.661-4.31,7.64-25.074,16.651-25.074,16.651S27.8,190.639,26.63,191.227s-.391,7.444,2.547,8.815,15.475-5.094,15.475-5.094,28.6-9.207,29.972-10.187,8.033-10.186,8.033-10.186L72.47,159.3l-2.742.587Z" transform="translate(-3.093 -18.871)" fill="#ffbdab"/><path d="M236.572,260.3a17.235,17.235,0,0,1-.785,4.311s0,4.628-.1,7.317c-.018.776-.053,1.384-.1,1.693-.2,1.375-2.944,3.72-11.76,3.332s-12.148-2.354-12.342-3.526.194-7.052.194-7.052-.979-9.009-.979-11.169.591-28.015.591-28.015-2.742-20.954-3.332-25.265-4.5-34.477-4.893-35.658-8.815-11.557-10.975-13.126-12.729-6.462-12.729-6.462,4.311-15.083,5.677-15.868,44.271.4,44.271.4.009.071.035.212c.159,1.137.952,6.647,1.675,12.227.035.229.062.458.088.679.573,4.452,1.067,8.824,1.146,10.975a41.413,41.413,0,0,1-.785,9.6s-.4,29.188-.4,33.3-.194,9.2,0,9.794a185.96,185.96,0,0,1,3.526,20.178A137.422,137.422,0,0,1,235.2,250.9s1.569,6.664,1.375,9.406" transform="translate(-21.249 -15.465)" fill="#dee4f0"/><path d="M245.628,36.751c-.264,8.278-3.6,8.427-3.6,8.427l.37-2.5c-.071.229-.688,2.063-1.3,2.407-.652.37-7.766.1-9.168-.467l-1.4-.564-.749-2.239-.1,2.151a15.741,15.741,0,0,1-2.988-.661c-.846-.37,1.966-26.755-6.268-29.558-4.258-1.455-6.929-.467-6.929-.467l-.467-6.647S216.59-.855,227.063.265a10.021,10.021,0,0,1,2.486.591c8,2.988,13.532,15.709,15.392,26.808.256,1.507.441,3,.555,4.416a42.062,42.062,0,0,1,.132,4.672" transform="translate(-25.236 -0.018)"/><path d="M213.531,28.012c-.555.74-4.055,1.807-4.055,1.807a19.345,19.345,0,0,1-.388,5.783,18.16,18.16,0,0,1-3.967,7.431c-.123.15-.247.291-.361.432-.353.414-2.421,2.828-5.2,2.536-7.806-.82-11.875-9.478-12.916-12.624a4.437,4.437,0,0,1-.211-1.661c.028-.487.32-1.314.3-1.535a12.766,12.766,0,0,0-.715-1.765c-.167-.388-.344-.74-.511-1.067-.1-.194-.2-.379-.291-.555a9.12,9.12,0,0,1-.511-1.084,7.252,7.252,0,0,1-.22-.714c-.018-.079-.115-.388-.212-.8a11.435,11.435,0,0,1-.388-1.842c-.018-.229-.044-.476-.062-.74,0-.026-.009-.071-.009-.106-.044-.494-.079-1.049-.132-1.6-.229-3-.485-6.435-.485-6.435l3.182-.926L199.735,8.53l3.923,3.376,3.376,2.891.194.705.9,3.279s2.777-1.966,3.306-2.354,4.311,1.842,4.8,3.024c.458,1.172-2.142,7.837-2.7,8.56" transform="translate(-21.701 -1.01)" fill="#ff9e7b"/><path d="M216.007,28.949c-.555.74-4.055,1.807-4.055,1.807a19.345,19.345,0,0,1-.388,5.783A18.16,18.16,0,0,1,207.6,43.97a31.083,31.083,0,0,0,2.274-8.542c1.217-9.794-5.783-17.655-5.783-17.655s4.8-.443,5.615-1.334l.9,3.279s2.777-1.966,3.306-2.354,4.311,1.842,4.8,3.024c.458,1.172-2.142,7.837-2.7,8.56" transform="translate(-24.177 -1.948)" fill="#e58065"/><path d="M195.6,41.563a2.56,2.56,0,0,0,3.351.086c1.878-1.237,2.646-4.846,2.646-4.846l-3.55,3.435Z" transform="translate(-23.171 -4.36)" fill="#d6705c"/><path d="M222.919,136.529l11.592-4.99c.159,1.137.952,6.647,1.675,12.227l-2.1,1.578a18.954,18.954,0,0,1-5.58-.882c-2.354-.882-5.589-7.934-5.589-7.934" transform="translate(-26.408 -15.583)" fill="#030f1d"/><path d="M240.913,262.155a17.236,17.236,0,0,1-.785,4.311s0,4.628-.1,7.317a12.152,12.152,0,0,1-1.763,1.419c-2.063,1.172-15.868,2.054-17.93.882s-3.226-6.761-2.936-7.934,9.106-2.354,9.106-2.354-9.4-4.408-10.279-6.462,1.172-27.918,1.463-28.8,5-2.354,7.643-3.817,8.225-14.4,8.815-16.749-.882-42.911-.882-44.374-2.354-13.517-2.354-13.517l4.54-5.9c.573,4.452,1.067,8.824,1.146,10.975a41.414,41.414,0,0,1-.785,9.6s-.4,29.188-.4,33.3-.194,9.2,0,9.794a185.959,185.959,0,0,1,3.526,20.178,137.422,137.422,0,0,1,.591,22.717s1.569,6.664,1.375,9.406" transform="translate(-25.589 -17.317)" fill="#b0c0d2"/><path d="M217.29,145.4c0,2.742-4.7,3.138-4.7,3.138s-7.052-12.932-8.225-13.329c-.882-.291-12.959-.361-18.979-.379-2.019-.009-3.359-.009-3.359-.009l2.371-3.121.767-1.014.159-.22,1.6-2.1c0-.009,11.187-.458,16.114-.317.723.026,1.313.053,1.71.106,3.138.4,12.535,14.5,12.535,17.243" transform="translate(-21.564 -15.167)" fill="#252238"/><path d="M187.63,13.659s7.71,8.241,15.849,6.464,5.707-7.391,5.707-7.391L198.148,5.06l-15.157,6.082-.842,2.432,1.31,6.642s-.32-5.341,4.171-6.558" transform="translate(-21.578 -0.599)"/><path d="M210.167,19.075l1.4,3.462,1.5-4.21Z" transform="translate(-24.897 -2.171)"/><path d="M73.23,163.374l-4.308,7.64s7.445,3.346,9.991,5.306.784,8.6.784,8.6l7.835-9.582-9.207-14.5-3.918-.2Z" transform="translate(-8.165 -19.031)" fill="#f7a397"/><path d="M21.893,250.392S-.831,300.009,1.129,303.236s72.089,6.454,74.049,6.454S102.8,241.518,102.8,241.518l-5.485.6s-26.446,59.9-27.622,60.306S10.14,298.8,8.573,298.8s16.456-49.616,16.456-49.616Z" transform="translate(-0.12 -28.611)" fill="#252238"/><path d="M195.6,41.563s1.053-2.14,1.9-2.422a42.055,42.055,0,0,0,4.1-2.339s-2.934,4.188-6,4.76" transform="translate(-23.171 -4.36)" fill="#e58065"/><path d="M34.255,217.674s3.722,27.425,12.929,25.271,2.742-26.055,2.742-26.055a18.756,18.756,0,0,0-15.672.784" transform="translate(-4.058 -25.533)" fill="#363689"/><path d="M48.505,216.939v18.812s-5.289,1.56-6.268,2.345.979,10.191.591,19.6c-.282,6.85-3.482,23.193-5.2,31.533-.635,3.1-1.067,5.1-1.067,5.1l-13.514,1.957a38.268,38.268,0,0,0,1.763-5.871c.194-1.763-1.763-38.594-1.966-41.732s-1.366-24.092.4-25.662,9.6-5.289,9.6-5.289l4.311-1.763Z" transform="translate(-2.64 -25.583)" fill="#ffbdab"/><path d="M43.182,238.6c-.979.785.979,10.191.591,19.6-.282,6.85-3.482,23.193-5.2,31.533-2.821,2.283-5.183,4.134-5.183,4.134s3.277-14.148,3.923-17.243c3.719-17.824-2.55-35.643-3.529-37.609s-3.526.391-3.526.391,1.369-2.936,1.766-4.118.582-8.031.785-9.4S47.1,220.2,47.1,220.2l2.345,1.322v14.73s-5.289,1.56-6.268,2.345" transform="translate(-3.584 -26.086)" fill="#f7a397"/><path d="M87.54,231.419l-1.366,14.3s-.987,4.117-3.332,10.975-9.6,19.394-11.363,22.135c-.749,1.164-6.691,13.1-9.133,18.045-.652,1.313-1.058,2.133-1.058,2.133l-12.139-3.332s7.246-17.437,9.988-28.015,4.7-30.757,4.7-30.757.785-11.557,1.375-11.751l8.225-2.742,4.011,2.565Z" transform="translate(-5.822 -26.347)" fill="#ffbdab"/><path d="M88.8,231.685l-1.366,14.3s-.987,4.117-3.332,10.975-9.6,19.394-11.363,22.135c-.749,1.164-6.691,13.1-9.133,18.045l-1.64,1.164-2.158-3.719S78.621,238.358,79.2,236.4s-4.893-11.751-4.893-11.751,1.886.229,4.4.591Z" transform="translate(-7.085 -26.613)" fill="#f7a397"/><path d="M179.06,128.2c0,.079-.176.837-.494,2.16-.088.379-.185.767-.282,1.181-.22.89-.476,1.939-.767,3.129-4.813,19.561-19.226,76.782-19.226,76.782l-42.7-2.177,21.747-82.644s8.3.159,17.507.406c11.337.3,24.04.732,24.216,1.164" transform="translate(-13.693 -15.001)" fill="#252238"/><path d="M136.121,193.52s-.167,2.689-.52,6.479c-.767,8.392-2.4,22.188-4.963,24.075-3.359,2.486-38.268,16.009-45.082,18-.723.212-1.128.3-1.146.22-.2-.785.979-7.246-.591-9.988s-8.815-10-14.3-9.6-7.449,10.772-7.449,10.772-14.3,7.449-14.889,6.858S49.536,228,46.6,221.332s-12.342-6.268-12.342-6.268,1.172-2.151,2.151-2.151,40.357-14.889,40.357-14.889l4.893-2.742Z" transform="translate(-4.058 -22.925)" fill="#5840e2"/><path d="M142.364,200.392c-.767,8.392-2.4,22.188-4.963,24.075-3.359,2.486-38.267,16.009-45.082,18a33.025,33.025,0,0,0,.414-4.073,25.233,25.233,0,0,0-1.366-7.052c-.591-1.172,21.739-11.169,22.523-15.868S109,205.488,109,205.488s30.951-9.212,31.541-8.621a33.025,33.025,0,0,1,1.825,3.526" transform="translate(-10.822 -23.318)" fill="#3e23d5"/><path d="M70.242,221.53S96.1,206.054,95.513,205.663s-17.631-5.681-17.044-5.681,8.424,4.9,8.424,4.9-10.97-4.7-11.558-4.506,1.959,2.547,4.31,4.114a17.335,17.335,0,0,0,3.526,1.959s-9.4-4.7-10.578-3.918S42.033,213.5,42.033,213.5s6.464.391,8.815,5.681.392,20.961.392,20.961l10.97-5.681s-.2-9.012,8.032-12.93" transform="translate(-4.979 -23.691)" fill="#3e23d5"/><path d="M148.033,207.74l7.64,103.433a640.452,640.452,0,0,0-7.64-103.433" transform="translate(-17.537 -24.61)" fill="#3a3a5e"/><path d="M120.7,275.905l49.954-33.5s-29.385,23.508-49.954,33.5" transform="translate(-14.299 -28.716)" fill="#3a3a5e"/><path d="M135.367,212.407l31.735,90.5s-16.457-39.376-31.735-90.5" transform="translate(-16.036 -25.163)" fill="#3a3a5e"/><path d="M163.541,214.407,140.033,307.85a642.012,642.012,0,0,1,23.508-93.443" transform="translate(-16.589 -25.399)" fill="#3a3a5e"/><path d="M123.367,232.407l49.953,52.3s-32.322-40.551-49.953-52.3" transform="translate(-14.614 -27.532)" fill="#3a3a5e"/><path d="M127.367,297.517l42.314-71.111s-16.457,38.788-42.314,71.111" transform="translate(-15.088 -26.821)" fill="#3a3a5e"/><path d="M119.367,258.407l54.066,5.877s-17.631-4.7-54.066-5.877" transform="translate(-14.141 -30.612)" fill="#3a3a5e"/><path d="M142.894,203.293c-18.4,0-33.3,24.648-33.3,55.052s14.907,55.043,33.3,55.043,33.3-24.648,33.3-55.043-14.907-55.052-33.3-55.052m2.345,101.086c-14.492,0-26.243-20.787-26.243-46.431s11.751-46.422,26.243-46.422,26.252,20.787,26.252,46.422-11.751,46.431-26.252,46.431" transform="translate(-12.982 -24.083)" fill="#252238"/><path d="M153.307,174.747,126.658,189.83s-15.277,3.526-17.04,2.944-28.4-3.332-28.4-3.332a8.452,8.452,0,0,1,.979-1.763,3.675,3.675,0,0,1,2.354-1.375,5.879,5.879,0,0,1,.582-2.345,20.423,20.423,0,0,1,2.354-3.138l-.194-1.172c-.194-1.181.785-5.483.785-5.483s-9.406-15.674-11.557-16.458a2.2,2.2,0,0,0-2.944.979,17.331,17.331,0,0,1-1.745-3.359,1.2,1.2,0,0,1-.018-.167c0-.785,7.643-6.858,10.772-10.966s11.954-16.458,14.1-17.437,17.243-4.311,17.243-4.311l12.729-1.375s22.532,5.1,23.123,6.858c.45,1.366,2.31,28.615,3.138,40.894.238,3.605.388,5.924.388,5.924" transform="translate(-8.507 -14.342)" fill="#ffd357"/><path d="M135.391,105.073s.245,13.37.391,14.4-4.26,4.555-10.138,4.408-6.612-1.909-6.612-1.909l.147-4.7Z" transform="translate(-14.101 -12.447)" fill="#e2877a"/><path d="M143.3,94.258c-.273,1.657-2.486,7.6-3.87,8.154a19.07,19.07,0,0,1-3.87.829,61.475,61.475,0,0,1-2.636,7.052c-.776,1.3-6.479,6.074-10.834,6.708a6.622,6.622,0,0,1-.917.071,12.258,12.258,0,0,1-8.569-3.738c-.555-.829-1.252-9.812-1.111-10.922s1.657-7.881,1.657-7.881-.273-3.87-.273-5.254,2.072-10.235,2.072-10.235c12.562-6.735,17.6,2.53,19.411,8.093a24.172,24.172,0,0,1,.917,3.658s3.87-1.8,4.566-1.657,3.729,3.456,3.456,5.122" transform="translate(-13.206 -9.084)" fill="#ffbdab"/><path d="M144.729,95.663c-.273,1.657-2.486,7.6-3.87,8.154a19.07,19.07,0,0,1-3.87.829,61.475,61.475,0,0,1-2.636,7.052c-.776,1.3-6.479,6.074-10.834,6.708,2.786-.961,7.431-5.9,8.066-6.947.661-1.1,2.574-11.457,2.133-12.859s-.368-3.009.294-3.379,1.4-5.73,1.4-5.73-.35-.361.382-.952a24.172,24.172,0,0,1,.917,3.658s3.87-1.8,4.566-1.657S145,94,144.729,95.663" transform="translate(-14.633 -10.489)" fill="#f7a397"/><path d="M136.14,89.838l-1.383,7.191-1.244.553.137-8.435s-5.677-.731-9.549-3.22a10.62,10.62,0,0,1-4.6-6.342,11.374,11.374,0,0,0-3.918,3.477,18.83,18.83,0,0,0-2.791,5.289s-2.231-7.5-2.231-9.575,4.287-5.808,6.084-5.946,4.7,1.245,4.7,1.245,4.841-2.351,9.265-1.937,11.754,7.606,13.138,10.371-.969,9.819-.969,9.819-2.212-3.873-3.042-3.734a33.417,33.417,0,0,0-3.595,1.245" transform="translate(-13.097 -8.54)" fill="#ad5945"/><path d="M149.842,129.532s-6.905.882-8.668,1.616-3.673,9.7-4.114,11.754,2.2,30.266,2.351,31,5.289.735,5.289.735l9.55,8.08-22.186,2.351-20.569,3.085s-24.83-.882-22.92-1.029,21.45-1.616,21.45-1.616-20.716-2.792-17.924-2.792,16.161-2.5,19.247-3.232,13.077-9.11,15.281-10.432,7.493-25.124,7.787-26.152,5.583-12.929,6.171-13.223,9.256-.147,9.256-.147" transform="translate(-10.48 -15.34)" fill="#e5b223"/><path d="M123.57,104.243a6.1,6.1,0,0,1-.185.793c-.044.141-.088.264-.123.353a3.758,3.758,0,0,1-3.315,1.657c-1.243-.273-3.182-.829-3.456-1.939a3.051,3.051,0,0,1,.176-1.217c.688-2.459,3.041-7.475,4.381-8.04.785-.326,1.5.952,2.036,2.415a10.809,10.809,0,0,1,.485,5.977" transform="translate(-13.798 -11.349)" fill="#f29b8c"/><path d="M114.672,191.518s-5.877,2.547-6.661,3.33-6.269,7.444-4.9,8.032,5.485-3.918,5.485-3.918Z" transform="translate(-12.189 -22.688)" fill="#f7a397"/><path d="M120.547,191.36s-4.9-1.175-5.877-1.175-3.526,4.113-3.526,4.113Z" transform="translate(-13.167 -22.53)" fill="#f7a397"/><path d="M129.552,188.18,126.811,197s-1.886.564-4.461,1.269a80.732,80.732,0,0,1-12.236,2.618,4.391,4.391,0,0,1-1.913-.159c-2.354-1.181,5.677-9.018,7.052-9.6a63.71,63.71,0,0,1,6.232-1.41c3.87-.767,8.066-1.534,8.066-1.534" transform="translate(-12.767 -22.292)" fill="#ffbdab"/><path d="M121.486,189.92c-1.41.934-5.8,3.044-7.019,3.972-2.988,2.277,2.62,3.4,2.47,3.8-.079.194-.123.309-.123.309l-6.7,3.085a4.391,4.391,0,0,1-1.913-.159c-2.354-1.181,5.677-9.018,7.052-9.6a63.71,63.71,0,0,1,6.232-1.41" transform="translate(-12.767 -22.499)" fill="#f7a397"/><path d="M98.209,202.762s-3.918,18.414-.784,19.982,7.444,1.175,9.011.783,3.918-15.671,3.918-15.671l36.045-9.795-7.836-5.877s-38.4,9.011-40.355,10.578" transform="translate(-11.397 -22.767)" fill="#252238"/><path d="M178.459,171.128s-5.094,4.057-9.011,5.232-10.971-3.135-10.971-3.135,14.888-2.628,19.982-2.1" transform="translate(-18.774 -20.264)" fill="#437a89"/><path d="M172.06,200.038c-.785,1.957-6.47,3.923-10.975,3.332s-33.3-6.247-34.671-6.644-8.742-1.469-8.742-1.469,11.484-8.143,13.053-9.13,15.083-1.763,16.256-1.763a12.063,12.063,0,0,0,2.944-.582l-1.287-3.729-.873-2.539,7.687-2.812,10.534-3.852s2.23,8.868,4,16.846c1.34,6,2.407,11.5,2.072,12.342" transform="translate(-13.94 -20.24)" fill="#ffbdab"/><path d="M174.112,187.7a27.258,27.258,0,0,0-4.981-2.336c-6.664-2.345-15.083-1.578-15.083-1.578l-1.569-3.509.282-.22,6.814-5.351,10.534-3.852s2.23,8.868,4,16.846" transform="translate(-18.063 -20.24)" fill="#f7a397"/><path d="M158.273,128.851s3.526,2.154,5.289,9.121c.39,1.537,5.289,15.862,6.661,18.044s6.464,9.517,6.464,10.112-9.4,1.388-16.26,3.966-9.011,5.2-9.011,5.2-5.094.592-5.681.2-.2-5.682-.2-5.682-2.4-22.8-1.96-26.985c.882-8.375,14.693-13.974,14.693-13.974" transform="translate(-17.003 -15.264)" fill="#ffd357"/><path d="M42.017,199.311a32.647,32.647,0,0,1-8.692,5.122c-.749.291-1.463.573-2.125.829-3.905,1.481-6.338,2.292-6.338,2.292s.67,7.793-1.56,8.242c-2.089.414-3.2-3.5-3.332-3.967a7.042,7.042,0,0,1-.282,2.883,1.179,1.179,0,0,1-1.278.855c-2.01-.22-3.57-6.453-3.57-7.793s2.68-9.353,4.011-10.473,12.923-4.231,12.923-4.231Z" transform="translate(-1.758 -22.872)" fill="#ffbdab"/><path d="M35.957,295.41s-.406,13.664-1.6,14.669S19.27,321.336,18.071,322.138,3.4,325.285,1.789,325.083c-.538-.07-1-1.208-1.3-2.715-.617-2.953-.705-7.334.1-7.863.705-.467,3.367-1.675,5.483-2.618,1.525-.67,2.759-1.2,2.759-1.2l11.054-10.252s-.406-3.015.2-3.015,9.045,3.614,9.847,3.614a.733.733,0,0,0,.317-.123A36.293,36.293,0,0,0,34.45,297c.873-.9,1.507-1.587,1.507-1.587" transform="translate(0 -34.995)" fill="#f46464"/><path d="M61.969,300.761c0,.582-.785,10.966-1.181,12.342s-9.2,10.182-10.578,10.966-4.893,2.742-8.419,2.742-10-.388-11.557-2.345c-.626-.785.379-2.548,1.807-4.372a57.65,57.65,0,0,1,5.245-5.624s7.052-10.578,8.419-11.751c1.384-1.19,3.138-6.462,3.72-6.664s5.88-1.366,6.664-.776,2.936,7.828,2.936,7.828,2.944-2.935,2.944-2.345" transform="translate(-3.559 -34.96)" fill="#f46464"/><path d="M191.244,30.907c.031.272-.777.51-1.364.727l-.151.059a6.236,6.236,0,0,1-1.255.354,1.079,1.079,0,0,1-.587-.123,3.128,3.128,0,0,1-1.44-1.285c-.233-.364-.592-1.567-.027-2.049.582-.474,2.853-.114,3.885.859a4.685,4.685,0,0,1,.94,1.458" transform="translate(-22.048 -3.362)" fill="#fff"/><path d="M132.448,98.319c-.249.437-2.1.839-3.694.8-.24-.009-.446-.026-.633-.034a2.349,2.349,0,0,1-1.688-1.113,4.293,4.293,0,0,1-.634-1.363,1.927,1.927,0,0,1,1.567-2.057,3.8,3.8,0,0,1,2.141.711c.608.334,1.285.78,2.031,1.251a4.849,4.849,0,0,1,.909,1.4.528.528,0,0,1,0,.412" transform="translate(-14.901 -11.199)" fill="#fff"/><path d="M118.215,98.124a.7.7,0,0,1-.017.274c-.086.265-.7.325-1.388.291a8.562,8.562,0,0,1-1.6-.2c-.505-.111-.89-.719-1.157-1.336a7.812,7.812,0,0,1-.428-1.276c-.077-.437.086-1.688.866-1.894a1.9,1.9,0,0,1,1.285.463,6.716,6.716,0,0,1,2.022,2.271,5.377,5.377,0,0,1,.42,1.405" transform="translate(-13.458 -11.132)" fill="#fff"/><path d="M196.681,34.076c.009.7-2.179,2.292-2.85,2.44-.653.147-2.183-.021-2.5-.778a4.768,4.768,0,0,1-.047-1.3c0-.106,0-.229.013-.353.12-2.869.695-8.346.695-8.346a.785.785,0,0,1,.934-.457,49.45,49.45,0,0,1,3.256,7.109c.032.078.055.156.086.225a6.037,6.037,0,0,1,.419,1.466" transform="translate(-22.658 -2.99)" fill="#e58065"/><path d="M196.681,35.067c.009.7-2.179,2.292-2.85,2.44-.653.147-2.183-.021-2.5-.778a4.768,4.768,0,0,1-.047-1.3,5.8,5.8,0,0,0,2.065.109,11.524,11.524,0,0,0,2.917-1.932,6.037,6.037,0,0,1,.419,1.466" transform="translate(-22.658 -3.98)" fill="#d6705c"/><path d="M203.805,26.774c.077.316-1.544,1.391-3.2,1.783-.222.042-.444.086-.666.11a3.3,3.3,0,0,1-.5.034,3.771,3.771,0,0,1-.7.06c-.2,0-.409-.009-.606-.017a3.087,3.087,0,0,1-1.143-.239c-.248-.18.308-2.236.308-2.236s.435-.811.878-.99c3.481-1.416,5.5.939,5.631,1.493" transform="translate(-23.328 -2.942)" fill="#fff"/><path d="M204.183,26.035a9.88,9.88,0,0,0-3.843-1.819,5.8,5.8,0,0,0-3.723.977c.252-.072.506-.128.758-.174a1.426,1.426,0,0,0-.313.8,4.022,4.022,0,0,1-.262,1.07,3.3,3.3,0,0,1,3.339-1.946,13.488,13.488,0,0,1,4.043,1.094" transform="translate(-23.292 -2.863)" fill="#934235"/><path d="M196.821,27.253c-.022.048-.034.078-.034.078s.015-.032.034-.078" transform="translate(-23.312 -3.228)" fill="#934235"/><path d="M190.172,29.427a4.7,4.7,0,0,0-1.518-.979,3.437,3.437,0,0,0-2.788.1c-.784.525-.863.719-.863.719l1.014.039a2.219,2.219,0,0,1,1.511-.517c1.63.041,2.972.643,2.645.636" transform="translate(-21.916 -3.34)" fill="#934235"/><path d="M189.9,31.842a6.246,6.246,0,0,1-1.254.354,1.074,1.074,0,0,1-.588-.123c-.314-.634-.879-2-.248-2.354.806-.451,1.977,1.078,2.09,2.123" transform="translate(-22.214 -3.511)"/><path d="M200.791,28.719c-.222.042-.443.086-.666.111a3.411,3.411,0,0,1-.5.034,3.841,3.841,0,0,1-.7.059c-.281-.759-.75-2.287-.11-2.653.8-.46,1.86,1.254,1.979,2.449" transform="translate(-23.514 -3.103)"/><path d="M201.519,27.368c.048.163-.25.393-.666.514s-.789.086-.837-.078.25-.394.666-.514.789-.086.837.078" transform="translate(-23.694 -3.224)" fill="#fff"/><path d="M190.452,30.67c.056.16-.23.406-.638.547s-.784.125-.839-.035.229-.406.637-.547.785-.125.84.035" transform="translate(-22.386 -3.618)" fill="#fff"/><path d="M184.83,26.984a25.864,25.864,0,0,1,2.283-1.775,10.329,10.329,0,0,1,1.965-.8s-2-1.11-3.183.48-1.065,2.091-1.065,2.091" transform="translate(-21.895 -2.847)"/><path d="M201.906,22.767s-4.212-.306-5.069-.283a10.3,10.3,0,0,0-2.086.383s1.52-1.947,3.48-1.667a8.639,8.639,0,0,1,3.674,1.567" transform="translate(-23.071 -2.508)"/><path d="M190.92,9.959a10.45,10.45,0,0,0,8.424,6.807c6.856,1.224,10.774-.294,10.48-.489s-3.575-1.372-3.575-1.372l4.456.392a16.71,16.71,0,0,0-8.13-6.514A18.536,18.536,0,0,0,192.34,7.607a19.531,19.531,0,0,1,7.542-1.616,17.966,17.966,0,0,1,6.709,2.351s-2.253-3.624-4.848-4.506-5.534.587-5.534.587l1.959-1.665a23.745,23.745,0,0,0-5.681,3.576,4.48,4.48,0,0,0-1.567,3.624" transform="translate(-22.615 -0.327)" fill="#1e110f"/><path d="M195.417,2.722s-.294-1.616-2.938-.931a11.882,11.882,0,0,0-6.073,3.771A16.045,16.045,0,0,0,184.3,8.746l1.567-1.42a17.241,17.241,0,0,0-1.763,2.89,12.168,12.168,0,0,0-1.127,2.988s4.653-10.187,12.439-10.481" transform="translate(-21.676 -0.192)" fill="#1e110f"/><path d="M213.978,5.018s.784-1.665,2.5.784,1.763,7.983,1.763,7.983-2.6-6.563-4.26-8.767" transform="translate(-25.349 -0.529)" fill="#4a49ae"/><path d="M246.3,36.815c-.264,8.278-3.6,8.427-3.6,8.427,2.363-1.111,3.517-7.123,2.442-15.594a39.625,39.625,0,0,0-3.914-13.47s.044.388.344,2.01.582,4.7.582,4.7-5.977-16.6-12.826-19.447c-6.294-2.6-10.067-.467-10.649-.1.115-.1.4-.317,1-.785.846-.652,5.439-2.53,10.543-1.64,8,2.988,13.532,15.709,15.392,26.808.247,3.165.485,6.374.688,9.089" transform="translate(-25.905 -0.081)" fill="#1e110f"/><path d="M217.925,21.173s-1.175-1.371-2.154-.979-1.96,3.526-1.96,3.526.588-.2,1.176,1.372a3.173,3.173,0,0,1-.2,2.742,4.752,4.752,0,0,0,2.351-2.742c.392-1.763-1.371-3.135-1.371-3.135s.587-1.959,2.154-.784" transform="translate(-25.329 -2.384)" fill="#c45b49"/><path d="M144.008,95.673s-1.175-1.371-2.154-.979-1.96,3.526-1.96,3.526.588-.2,1.176,1.372a3.173,3.173,0,0,1-.2,2.742,4.752,4.752,0,0,0,2.351-2.742c.392-1.763-1.371-3.135-1.371-3.135s.587-1.959,2.154-.784" transform="translate(-16.572 -11.209)" fill="#e2877a"/><path d="M118.492,98.188a1.325,1.325,0,0,1-1.877-.309c-.848-.891-.719-2.485-.565-3.367a6.716,6.716,0,0,1,2.022,2.271,5.377,5.377,0,0,1,.42,1.405" transform="translate(-13.734 -11.196)" fill="#7f4638"/><path d="M132.945,98.005a1.586,1.586,0,0,1-2.023.385c-1.019-.676-.977-2.364-.917-3.032.608.334,1.285.779,2.031,1.251a4.835,4.835,0,0,1,.909,1.4" transform="translate(-15.398 -11.296)" fill="#7f4638"/><path d="M113.4,91.843a17.053,17.053,0,0,1,3.395-1.2l2.62-.358a4.147,4.147,0,0,0-3.516-.78,4.585,4.585,0,0,0-2.5,2.342" transform="translate(-13.434 -10.584)" fill="#ad5945"/><path d="M132.28,92.789a20.909,20.909,0,0,0-3.782-1.3l-2.917-.431a4.894,4.894,0,0,1,3.91-.685,5.065,5.065,0,0,1,2.789,2.417" transform="translate(-14.877 -10.684)" fill="#ad5945"/><path d="M116.6,96.629c0,.177-.3.321-.679.321s-.678-.144-.678-.321.3-.322.678-.322.679.145.679.322" transform="translate(-13.652 -11.409)" fill="#fff"/><path d="M130.945,97.341c0,.177-.3.321-.678.321s-.679-.144-.679-.321.3-.322.679-.322.678.145.678.322" transform="translate(-15.351 -11.493)" fill="#fff"/><path d="M123.57,105.331a6.1,6.1,0,0,1-.185.793c-.044.141-.088.264-.123.353a3.758,3.758,0,0,1-3.315,1.657c-1.243-.273-3.182-.829-3.456-1.939a3.051,3.051,0,0,1,.176-1.217,4.343,4.343,0,0,0,3.614,1.12,12.14,12.14,0,0,0,3.288-.767" transform="translate(-13.798 -12.436)" fill="#e2877a"/><path d="M117.37,111.939c.391.519,1.066.688,3.324.491a21.432,21.432,0,0,0,5.828-1.812c-2.253.245-7.227-.554-8.424-.049a1.106,1.106,0,0,0-.728,1.37" transform="translate(-13.901 -13.078)" fill="#fff"/><path d="M125.4,94.755a4.513,4.513,0,0,1,3.983-.163,16.513,16.513,0,0,1,3.816,3.323,10.766,10.766,0,0,0-7.8-3.159" transform="translate(-14.856 -11.157)" fill="#ba6f59"/><path d="M228.433,74.537l2.938,14.4s-36.143,22.333-38.2,22.333,25.271-5.289,20.569-4.114-27.915,7.346-24.389,7.934,11.46,2.645,11.46,2.645l-13.223,4.3L216.68,124.2s14.1-6.171,15.868-7.934,6.758-19.394,6.758-19.394Z" transform="translate(-22.222 -8.83)" fill="#e54646"/><path d="M118.062,96.971a8.033,8.033,0,0,0-1.347-2.586,2.639,2.639,0,0,0-2.414-.651,2.915,2.915,0,0,0-1.192.35l.74.278c-.169-.156.854-.289,1.595.086a9.385,9.385,0,0,1,2.618,2.523" transform="translate(-13.399 -11.097)" fill="#ba6f59"/><path d="M117.374,111.988a2.7,2.7,0,0,0,2.638,1.52c1.959-.1,6.366-2.693,6.366-2.693s-6.514,3.085-9,1.173" transform="translate(-13.905 -13.128)" fill="#f29b8c"/><path d="M117.344,111.293s0-.636.979-.784,4.458-.146,4.458-.146-3.967-.686-5-.392-.441,1.322-.441,1.322" transform="translate(-13.881 -13.019)" fill="#e2877a"/><path d="M99.4,131.352s-5.413,18.662-5.9,20.619-5.245,23.105-5.245,23.105S78.856,159.4,76.705,158.618a2.2,2.2,0,0,0-2.944.979,2.245,2.245,0,0,1,1.789-3.456,11.354,11.354,0,0,0,1.394-.106c.591-.141,3.967-5.43,4.707-5.289.705.141,6.215,10.014,6.594,10.693-.317-.705-5.562-12.342-5.272-13.364.291-1.067,13.223-18.627,13.955-19.235s2.477,2.512,2.477,2.512" transform="translate(-8.695 -15.254)" fill="#e5b223"/><path d="M115.589,127.037a12.564,12.564,0,0,0,7.64,2.5,22.094,22.094,0,0,0,9.109-2.35s-11.754,3.232-16.749-.147" transform="translate(-13.693 -15.049)" fill="#e5b223"/><path d="M167.06,152.87c.441,2.057,3.036,6.759,1.714,7.64s-11.606,4.26-13.517,5.289-8.668,6.612-8.668,6.612,8.375-5,10.725-5.877,12.929-2.057,13.958-1.91,4.554,3.233,4.554,3.233-5.583-6.905-5.876-8.375a53.249,53.249,0,0,0-2.89-6.612" transform="translate(-17.365 -18.11)" fill="#e5b223"/><path d="M200.449,127.945l-1.419,3.65H173.166l9.406-1.014,1.269-.132.2-.026-.2-.009-1.111-.053-18.38-.82-4.231-2.451c11.337.3,24.04.732,24.216,1.164,0,0,11.187-.45,16.114-.309" transform="translate(-18.968 -15.056)" fill="#3a3a5e"/><path d="M68.922,172.407l4.7,4.915s-1.763-4.736-4.7-4.915" transform="translate(-8.165 -20.424)" fill="#f7a397"/><path d="M31.624,206.026c-3.905,1.481-6.338,2.292-6.338,2.292s.67,7.793-1.56,8.242c-2.089.414-3.2-3.5-3.332-3.967a7.042,7.042,0,0,1-.282,2.883l-.071-.071s-1.966-5.686-1.569-6.664,3.332-7.052,4.311-7.643,11.751-1.578,11.751-1.578Z" transform="translate(-2.182 -23.636)" fill="#f7a397"/><path d="M35.209,199.4l-6.464,3.33s-6.073,2.154-4.31,4.113,6.073,0,6.073,0,7.836-1.175,10.97-4.113.979-5.682-6.269-3.33" transform="translate(-2.857 -23.516)" fill="#ffbdab"/><path d="M158.024,263.222c0,4.869-2.237,8.815-5,8.815s-4.995-3.947-4.995-8.815,2.236-8.815,4.995-8.815,5,3.947,5,8.815" transform="translate(-17.537 -30.138)" fill="#252238"/><path d="M8.1,312.358l-1.217.2c1.525-.67,2.759-1.2,2.759-1.2L20.693,301.11l6.5,2.433s-11.46,2.354-10.279,2.645,5.289,1.763,4.108,2.354S8.1,312.358,8.1,312.358" transform="translate(-0.815 -35.671)" fill="#e54646"/><path d="M36.022,295.41s-.406,13.664-1.6,14.669-15.083,11.257-16.282,12.059-14.669,3.147-16.282,2.944c-.538-.07-1-1.208-1.3-2.715,3.694-.608,15.215-2.5,16.194-2.75,1.181-.291,14.4-9.988,15.577-11.169.529-.529-.829-4.037-2.01-7.537a36.293,36.293,0,0,0,4.2-3.914c.873-.9,1.507-1.587,1.507-1.587" transform="translate(-0.065 -34.995)" fill="#e54646"/><path d="M61.969,301.509c0,.582-.785,10.966-1.181,12.342s-9.2,10.182-10.578,10.966-4.893,2.742-8.419,2.742-10-.388-11.557-2.345c-.626-.785.379-2.548,1.807-4.372a14.613,14.613,0,0,0,7.89,2.133c7.052,0,15.568-7.934,15.568-7.934a31.518,31.518,0,0,0-9.988-1.172c-5.122.282-6.664.846-6.753.873.194-.229,3.323-3.826,6.462-4.108a39.921,39.921,0,0,1,8.225.591,53.2,53.2,0,0,0-4.7-4.707c-1.86-1.481-6.171,1.472-6.171,1.472l3.129-4.522c.273-.1,4.84-1.64,5.977-1.358,1.172.3,3.817,5,3.817,5l3.526-3.253s2.944-2.935,2.944-2.345" transform="translate(-3.559 -35.709)" fill="#e54646"/><path d="M224.646,123.444l-6.661,2.154s-10.725-4.211-11.9-4.358-7.934,8.081-8.227,9.7.441,3.673,1.322,4.114a5.353,5.353,0,0,0,2.057.441,65.82,65.82,0,0,0,4.114,5.436c1.175,1.176,4.114,3.1,5.583,3.1s1.763-1.959,1.763-1.959l1.763-1,5.877-1.47,9.55-4.408.441-10.138Z" transform="translate(-23.431 -14.362)" fill="#ff9e7b"/><path d="M249.818,115.781c-.582.979-15.762,13.443-17.234,14.3-.846.494-3.623-1.225-3.623-1.225s2.424-5.025.485-8.569c-2.548-4.655-9.009-2.944-9.009-2.944s-.159-.062-.388-.176c-.573-.264-1.569-.82-1.569-1.384,0-.785,13.514-10,13.514-10s-2.742-25.265-2.936-26.834.785-26.94,2.548-27.381c0,0,7.634,2.5,8.815,5.439.123.326.379,1.04.732,2.072.009.009.009.026.018.044,2.847,8.454,12,37.58,12.174,43.336a27.39,27.39,0,0,1-3.526,13.32" transform="translate(-25.882 -6.109)" fill="#f46464"/><path d="M102.877,259.537S83.483,305.965,82.6,306.846s-14.788,2.273-14.788,2.273,13.906.958,15.081.665,19.982-50.248,19.982-50.248" transform="translate(-8.033 -30.746)" fill="#3a3a5e"/><path d="M99.606,206.2l8.815,3.233-3.233,14.986-7.934-1.47,2.351-12.342h5.877Z" transform="translate(-11.521 -24.428)" fill="#3a3a5e"/><path d="M119.43,227.87s-7.64,16.161-5.877,40.551,15.574,36.437,15.574,36.437-26.153-22.92-9.7-76.987" transform="translate(-13.421 -26.994)" fill="#3a3a5e"/><path d="M196.589,57.2s4.114,5,9.4,5a11.958,11.958,0,0,0,8.521-3.821s-10.578,6.171-17.924-1.175" transform="translate(-23.289 -6.776)" fill="#e54646"/><path d="M250.029,116.8c-.582.979-15.762,13.443-17.234,14.3-.846.494-3.623-1.225-3.623-1.225s2.424-5.025.485-8.569c-2.548-4.655-9.009-2.944-9.009-2.944s-.159-.062-.388-.176c1.569-1.278,4.443-3.094,7.052-1.975,3.817,1.648,7.59,6.171,7.59,6.171s13.267-9.291,11.5-12.518-12.923-3.526-12.923-3.526.291-2.063,1.463-2.063,11.169,1.763,11.169,1.763,1.172-4.989-.591-5.289-10.869.882-10.869.882a14.2,14.2,0,0,1,2.936-2.345c.882-.3,10.578-1.763,11.46-1.472.714.238-5.386-27.416-7.669-37.668,2.847,8.454,12,37.58,12.174,43.336a27.39,27.39,0,0,1-3.526,13.32" transform="translate(-26.093 -7.124)" fill="#e54646"/><path d="M234.747,54.2s-5,4.408-5.877,9.4,0,15.868,0,15.868-.882-16.162,5.877-25.271" transform="translate(-27.066 -6.421)" fill="#e54646"/><path d="M203.807,168.008s-7.934-18.4-9.99-19.573a73.189,73.189,0,0,0-8.228-3.233l7.246,9.677,5.1,11.48Z" transform="translate(-21.985 -17.201)" fill="#b0c0d2"/><path d="M121.89,78.134c-.517-1.706-.677.914,4.7,7.052a9.724,9.724,0,0,0,8.595,3.012l-3.893-3.6,5.289,3.233s-2.351-5-5.584-7.346-9.109-2.351-9.109-2.351" transform="translate(-14.411 -9.196)" fill="#c16553"/><path d="M118.678,75.453s-1.763-1.175-2.938-.294-4.114,2.35-3.821,4.113.882,4.114.882,4.114,2.058-7.346,5.877-7.934" transform="translate(-13.256 -8.865)" fill="#c16553"/><path d="M209.367,121.759s6.463,15.28,8.031,15.28,8.228-.784,8.228-.784l-6.27-10.6Z" transform="translate(-24.802 -14.424)" fill="#e58065"/><path d="M201.7,136.314l5.385-8.134s-5.287,3.514-5.385,8.134" transform="translate(-23.894 -15.185)" fill="#e58065"/><path d="M215.01,144.248,210.7,142.5h3.918v-2.742Z" transform="translate(-24.96 -16.556)" fill="#e58065"/></g></g></g></svg>