<svg xmlns="http://www.w3.org/2000/svg" width="1328" height="770" viewBox="0 0 1328 770"><g transform="translate(-136 -2068)"><rect width="1328" height="770" transform="translate(136 2068)" fill="#fffaeb"/><rect width="950.839" height="364.87" transform="translate(324.581 2170.671)" fill="#ffe69f"/><path d="M0,0H925V339.031H0Z" transform="translate(337.5 2183.592)" fill="#fffdf8"/><path d="M1150.98,179.318v224.67h-925V204.54h56.959v46.882h35.027v37.912h11.855V154.17h20.666V139.843h6.528V127.6h3.841V104.967h3.51V127.6h3.841v12.238h6.528V154.17h20.67V289.334h59.013l.655-75.127h24.748V179.581h37.942v34.627H541.6l-.138,51.417h44.5v-24.7h46.012v24.7H658.81V140.6h20.666V126.27H686V114.031h3.845V91.393h3.505v22.638H697.2V126.27h6.528V140.6h20.666V265.624h59.013V174.689h67.221v50.723h58.462V160.866h26.66V144.675h6.533V132.44h3.837V109.8h3.51V132.44h3.841v12.234H960v16.191h26.664v64.546h46.5V98.86h73.546v80.458Z" transform="translate(111.52 2118.635)" fill="#f8f1dc"/><rect width="12.107" height="353.563" transform="translate(638.347 2177.132)" fill="#ffe69f"/><rect width="12.107" height="353.563" transform="translate(950.695 2177.132)" fill="#ffe69f"/><rect width="1328" height="167.218" transform="translate(136 2670.781)" fill="#f5d989"/><rect width="1328" height="160.324" transform="translate(136 2677.676)" fill="#ffe69f"/><path d="M1849.529,548.423s-8.542-5.359-15.4,5.66-2.308,12.352-12.147,24.409,4.915,33.176,14.923,34.6,1.069,9.249,20.611,9.264,59.494-56.984-7.987-73.937" transform="translate(-795.356 1859.155)" fill="#8e4a35"/><rect width="124.202" height="124.203" transform="translate(996.95 2525.076)" fill="#12263f"/><rect width="123.436" height="5.698" transform="translate(997.717 2648.423)" fill="#395d8b"/><path d="M1666.674,1322.493l39.755-.437c-.1-6.354-1.794-19.183-.533-26.434l-2.977-22.438-17.525.193,4.011,29.366a7.339,7.339,0,0,1-4.919,7.938c-7.3,2.869-15.644,1.622-20.319,7.385a2.9,2.9,0,0,0,2.506,4.427" transform="translate(-707.096 1445.753)" fill="#f99370"/><path d="M1707.138,1362.646a10.073,10.073,0,0,1-1.166,3.842l-40.142.441a2.851,2.851,0,0,1-2.759-3.733c1.477-4.32,6.7-10.624,25.192-11.794,0,0,6.316,1.8,16.645-.182,0,0,2.836,5.97,2.23,11.427" transform="translate(-706.639 1401.322)" fill="#12263f"/><path d="M1683.343,1366.421a.814.814,0,0,1-.75-.5,8.612,8.612,0,0,0-4.289-4.739.814.814,0,0,1,.584-1.518,10.218,10.218,0,0,1,5.206,5.629.818.818,0,0,1-.75,1.127" transform="translate(-715.109 1396.549)" fill="#395d8b"/><path d="M1697.028,1362.632a.814.814,0,0,1-.774-.565,11.253,11.253,0,0,0-5.066-6.109.814.814,0,0,1,.735-1.452,12.8,12.8,0,0,1,5.88,7.063.817.817,0,0,1-.774,1.063" transform="translate(-722.483 1399.506)" fill="#395d8b"/><path d="M1713.72,1359.7a.814.814,0,0,1-.765-.538,14.664,14.664,0,0,0-5.135-6.709.814.814,0,0,1,.884-1.365,16.064,16.064,0,0,1,5.781,7.523.818.818,0,0,1-.765,1.089" transform="translate(-731.993 1401.479)" fill="#395d8b"/><path d="M1663.094,1378.239l44.044-.484a10.083,10.083,0,0,1-1.166,3.842l-40.142.441a2.852,2.852,0,0,1-2.736-3.8" transform="translate(-706.639 1386.213)" fill="#06111f"/><path d="M1542.883,1270.487l37.7,12.633c1.989-6.036,4.6-18.71,8.171-25.145l4.551-22.172-16.618-5.569-5.848,29.056a7.339,7.339,0,0,1-7.251,5.885c-7.841.313-15.31-3.6-21.617.308a2.9,2.9,0,0,0,.915,5" transform="translate(-637.16 1470.208)" fill="#f99370"/><path d="M1582.485,1320.289a10.07,10.07,0,0,1-2.362,3.246l-38.064-12.756a2.851,2.851,0,0,1-1.38-4.431c2.812-3.6,9.814-7.837,27.667-2.875,0,0,5.374,3.777,15.783,5.289,0,0,.72,6.57-1.644,11.526" transform="translate(-636.703 1429.793)" fill="#12263f"/><path d="M1564.117,1308.1a.815.815,0,0,1-.545-.718,8.612,8.612,0,0,0-2.5-5.884.814.814,0,0,1,1.05-1.243,10.219,10.219,0,0,1,3.07,7.026.818.818,0,0,1-1.079.819" transform="translate(-648.486 1430.454)" fill="#395d8b"/><path d="M1578.524,1308.988a.814.814,0,0,1-.546-.787,11.252,11.252,0,0,0-2.781-7.433c-.678-4.23,4.8,1.893,4.406,7.471a.817.817,0,0,1-1.079.75" transform="translate(-656.657 1430.85)" fill="#395d8b"/><path d="M1595.023,1311.729a.814.814,0,0,1-.547-.759,14.667,14.667,0,0,0-2.649-8.023.814.814,0,0,1,1.283-1,16.064,16.064,0,0,1,2.992,9,.818.818,0,0,1-1.08.778" transform="translate(-666.057 1429.555)" fill="#395d8b"/><path d="M1540.722,1313.009l41.764,14a10.073,10.073,0,0,1-2.362,3.246L1542.06,1317.5a2.852,2.852,0,0,1-1.338-4.486" transform="translate(-636.703 1423.077)" fill="#06111f"/><path d="M1698.873,1116.846s12.03,4.561,27.465,0c1.763-38.85-6.584-104.162,53.419-102.888,27.086.433,61.725-28.435,50.429-57.339,0,0-67.589,0-67.585,0-70.573,15.209-69.392,83.837-63.728,160.223" transform="translate(-725.754 1625.997)" fill="#f9d36c"/><path d="M1697.821,1059.328c13.318-44.081,23.329-46.445,59.011-39.906,16.675-3.241,30.363-4.25,43.654-8.126l-12.16-52.18c-63.946-5.017-90.942,40.064-90.5,100.212" transform="translate(-726.506 1624.792)" fill="#deb138"/><path d="M1601.995,1084.451s8.209,11.628,26.1,10.817c3.6-13.065,8.718-44.316,15.966-63.388,13.585-45.849,36.824-31.754,81.9-27.665,56.65,3.731,65.231-48.441,54.334-64.08-126.488.734-164.778-21.494-178.292,144.315" transform="translate(-671.948 1635.739)" fill="#f9d36c"/><path d="M1891.28,1223.593a4.574,4.574,0,0,1-4.587-4.561v-83.778a4.587,4.587,0,0,1,9.174,0v83.778a4.574,4.574,0,0,1-4.587,4.561" transform="translate(-834.048 1526.883)" fill="#395d8b"/><path d="M1875.222,1356.028c-8.456-.222-.177-14.465-15.928-15.835h-58.324a11.321,11.321,0,0,0-11.341,11.275c0,5.954-9.162,5.966-9.174,0a20.479,20.479,0,0,1,20.515-20.4h58.324c14.43-1.765,28.3,22.619,15.928,24.957" transform="translate(-773.559 1412.845)" fill="#395d8b"/><path d="M1885.809,1132.138h-17.631c-5.568-.126-6.983-5.1-6.483-9.781h30.6c.5,4.682-.916,9.655-6.483,9.781" transform="translate(-819.762 1531.63)" fill="#12263f"/><path d="M1887.859,1339.607h-21.644c-5.049-.078-4.584-5.494-4.476-9.056a4.463,4.463,0,0,1,4.476-4.451h21.644a4.463,4.463,0,0,1,4.476,4.451c.1,3.564.585,8.975-4.476,9.056" transform="translate(-819.806 1415.623)" fill="#12263f"/><path d="M1788.314,1367.326c-.195,11.326-17.141,11.325-17.333,0,.194-11.326,17.14-11.324,17.333,0" transform="translate(-768.165 1396.986)" fill="#12263f"/><path d="M1997.731,1367.326c-.195,11.326-17.14,11.325-17.333,0,.194-11.326,17.14-11.324,17.333,0" transform="translate(-887.401 1396.986)" fill="#12263f"/><path d="M1822.768,701.66c-.515,1.224-5.685,13.434-6.017,14.224-9.637,12.37-29.622,38.039-39.157,50.284.747-14.222,13.851-60.436,42.428-64.079v0a20.338,20.338,0,0,1,2.746-.426" transform="translate(-771.93 1771.164)" fill="#ffe69f"/><path d="M1822.7,769.469a.554.554,0,0,1-.468-.84c3.959-6.427,8.659-12.9,8.706-12.963a.551.551,0,0,1,.891.648c-.124-.285-4.956,7.721-9.128,13.155" transform="translate(-797.297 1740.543)" fill="#f9d36c"/><path d="M1901,793.682c-.44,6.222,2.753,16.849,1.061,23.706,0,0-51.4-2.1-93.365-11.993,15.954-50.162-10.129-46.843,11.654-75.546,4.575-6.2,15.262-21.4,20.007-28.189.279.04,15.739,1.411,16,1.443,15.686,11.54,47.1,37.354,44.642,90.579" transform="translate(-789.641 1771.164)" fill="#ffe69f"/><path d="M1763.931,771.754l-43.018,12.863,24.419,57.265,43.018-12.863Z" transform="translate(-739.657 1731.255)" fill="#f7e9e1"/><path d="M1711.4,841.882l-25.655-12.863-24.409-57.265,25.655,12.863Z" transform="translate(-705.736 1731.254)" fill="#dec0af"/><path d="M1834.35,820.8a1.06,1.06,0,0,0-.452,1.477,22.935,22.935,0,0,1,1.933,4.956,28.521,28.521,0,0,1-5.806-3.026q-4.161-4.3-7.867-9a1.059,1.059,0,0,0-1.732,1.2c2.022,3.327,4.2,6.577,6.527,9.7-.014.015-.026.03-.039.045a90.136,90.136,0,0,1-9.927-7.64c-6.436-1.223,7.216,9.634,8.264,10.58,0,.009-.006.018-.01.028a52.345,52.345,0,0,1-10.235-6.143c-6.536-.56,8.093,9.236,9.476,9.825,0,.016,0,.031,0,.047a53.45,53.45,0,0,1-8.81-3.529c-6.075.372,7.437,6.884,8.763,7.338,1.316.866,3.752,3.473,11.139,4.812,2.3.42,6.576-4.229,6.455-6.519-.137-2.576-2.193-5.927-2.768-6.817-.632-1.635-2.837-8-4.907-7.336" transform="translate(-792.279 1706.743)" fill="#f99370"/><path d="M1919.4,728.166c53.633,59.616,9.633,109.869-53.793,60.377-3.692-2.942-.483-9.779,3.906-8.251,17.544,6.111,34.216,6.19,45.833.431,9.133-4.528-10.418-18.082-16.539-26.432-20.024-19.3,4.549-42.36,20.593-26.124" transform="translate(-821.125 1759.201)" fill="#f99370"/><path d="M1962.234,793.9c-14.248,6.865-34.641,3.768-46.2-3.436,0,0,5.242-5.183,2.867-17.6,30.966-4.779-10.851-35.1-1.248-70.826,14.678.759,39.729.751,54.421,33.913,13.238,29.879,1.875,52.4-9.839,57.947" transform="translate(-850.753 1770.95)" fill="#ffe69f"/><path d="M1681.7,825.982c2.874,1.1,4.11-2.213,1.215-3.259-2.874-1.1-4.11,2.213-1.215,3.259" transform="translate(-716.391 1702.359)" fill="#f99370"/><path d="M1682.894,832.616c2.874,1.1,4.11-2.213,1.214-3.259-2.873-1.1-4.11,2.213-1.214,3.259" transform="translate(-717.07 1698.583)" fill="#f99370"/><path d="M1686.154,839.634c2.874,1.1,4.11-2.213,1.215-3.259-2.874-1.1-4.11,2.213-1.215,3.259" transform="translate(-718.927 1694.588)" fill="#f99370"/><path d="M1689.608,846.13c2.874,1.1,4.11-2.213,1.215-3.259-2.874-1.1-4.11,2.213-1.215,3.259" transform="translate(-720.893 1690.889)" fill="#f99370"/><path d="M1691.109,784.659l5.462-1.676-22.313-11.23-5.691,1.561Z" transform="translate(-709.854 1731.255)" fill="#fff"/><path d="M1754.907,770.614l-5.7-2.263L1709.749,780.3l4.808,2.42Z" transform="translate(-733.301 1733.191)" fill="#fff"/><path d="M1920.334,884.44c-2.669-1.212-4.3-2.173-4.3-2.169s5.242-5.183,2.867-17.6a25.319,25.319,0,0,0,5.183-1.388s3,14.24-3.748,21.155" transform="translate(-850.753 1679.139)" fill="#f9d36c"/><path d="M1927.373,809.927a.554.554,0,0,1-.23-1.051c8.11-3.728,9.187-5.616,3.306-18.9-5.578-13.339-10.415-24.46-7.483-22.339a211.809,211.809,0,0,0,8.49,21.893c5.938,13.319,5.28,16.33-4.082,20.4" transform="translate(-854.197 1733.747)" fill="#f9d36c"/><path d="M1896.262,701.931c-7.076,32.362-34.351,47.569-23.482.07,2.165-.853,13.97.122,16.3.081-1.161-1.294,2.4.077,2.5-.345a25.806,25.806,0,0,1,4.677.195" transform="translate(-824.688 1771.249)" fill="#f9d36c"/><path d="M1880.061,685.409c.139,7.719-.127,2.327-1.549,17.3-1.478,15.905,4.1,18.348,10.514,4.123,2.5-5.58,7.125-16.591,7.125-16.591s-.739-6.623-.441-8.917Z" transform="translate(-829.254 1782.741)" fill="#f99370"/><path d="M1874.989,857.309s-.089,5.843-4.681,8.842a3.648,3.648,0,0,0,2.468,1.917s5.311-4.307,4.842-10.024a2.477,2.477,0,0,0-2.629-.735" transform="translate(-824.719 1682.596)" fill="#1d3f70"/><path d="M1877.084,868.609l-3.4-1.684a.914.914,0,0,1-.413-1.224l1.684-3.4a.914.914,0,0,1,1.224-.413l3.4,1.684a.914.914,0,0,1,.413,1.224l-1.684,3.4a.914.914,0,0,1-1.224.413" transform="translate(-826.351 1679.99)" fill="#8a9edd"/><path d="M1878.294,868.988c-.652-.434-2.761-.891-2.135-2.077.434-.652.891-2.76,2.077-2.135.652.434,2.761.891,2.135,2.076-.434.652-.891,2.761-2.077,2.135" transform="translate(-827.985 1678.355)" fill="#1d3f70"/><rect width="29.854" height="1.836" transform="translate(991.294 2520.666) rotate(-17.109)" fill="#dec0af"/><rect width="28.355" height="1.836" transform="translate(995.297 2528.812) rotate(-16.689)" fill="#dec0af"/><path d="M1878.22,782.6c.036,2.454-3.819,2.454-3.782,0-.036-2.454,3.819-2.454,3.782,0" transform="translate(-827.07 1726.125)" fill="#f9d36c"/><path d="M1873.828,799.682c.036,2.454-3.819,2.454-3.782,0-.036-2.454,3.819-2.454,3.782,0" transform="translate(-824.569 1716.4)" fill="#f9d36c"/><path d="M1882.217,686.852l.031,4.879,4.349,9.108,12.419-10.163s-.772-5.69-.461-8.085Z" transform="translate(-831.5 1782.021)" fill="#f99370"/><path d="M1879.042,652.056c3.544.04,10.818-.411,16.338-4.261-.1-.5-.187-1.01-.273-1.53a78.3,78.3,0,0,1-1.554-12.213c-.165-5.368.409-7.5-3.21-10.738-4.812-4.1-12.983-.932-13.639,5.464-.345,3.058.78,13.047,2.339,23.278" transform="translate(-828.325 1816.818)" fill="#e57d61"/><path d="M1849.93,616.65c6.236,4.742,13.714,4.932,22.427,2.218,14.431-4.5,14.8-29.018,7.122-39.862-4.77-7.46-15.6-10.832-23.124-5.635-5.205,3.827-6.5,9.9-8.132,16.322a20.2,20.2,0,0,1-2.9,5.567c-4.665,6.324-3.4,14.983,4.609,21.39" transform="translate(-808.952 1845.637)" fill="#f99370"/><path d="M1882.307,585.87c12.22,2.074,12.285,11.7,12.285,11.7l3.9-5.6-12.43-16.327-10.472-3.359a12.734,12.734,0,0,0-6.145,3.869s.636,7.643,12.856,9.718" transform="translate(-824.231 1844.827)" fill="#e57d61"/><path d="M1877.77,622.928a1.034,1.034,0,0,1,1.687-1.194,1.034,1.034,0,0,1-1.687,1.194" transform="translate(-828.852 1816.921)" fill="#c16256"/><path d="M1857.314,622.507a1.034,1.034,0,0,1,1.687-1.194,1.034,1.034,0,0,1-1.687,1.194" transform="translate(-817.205 1817.16)" fill="#c16256"/><path d="M1863.455,632.984c.477-.12,1.5-.177,1.29-.853a.391.391,0,0,0-.524-.179c-1.235.654-4.526.214-3.147-.935,2.019-1.511,2.881-5.878,2.917-6.064a.391.391,0,0,0-.768-.148c-.008.042-.841,4.256-2.617,5.585-2.123,2.013.974,2.844,2.849,2.593" transform="translate(-818.787 1815.098)" fill="#c16256"/><path d="M1874.524,551.8c.221-10.884,22.369-32.359,43.013-6.789,14.973,20.369,50.884,40.064,23.858,56.429-10.615,3.495-.566,12.613-6.9,18.891s-16.538,2.7-15.166,15.317-6.163,16.656-14.96,17.211-25.806-19.58-18.582-34.28c6.7-13.637,0-10.335,1.112-18.941,1.573-12.22,15.074-18.087,15.074-18.087l-3.448-9.693c-2.067-12.529-23.028-8.351-24-20.057" transform="translate(-827.12 1867.209)" fill="#8e4a35"/><path d="M1937.552,624.148c-.533,7.921-10.2,7.317-9.741-.609.533-7.921,10.2-7.317,9.741.609" transform="translate(-857.451 1818.859)" fill="#f99370"/><path d="M1938.973,628.957a.392.392,0,0,0,.33-.329c1.03-5.148-1.926-6.8-4.949-5.007a.391.391,0,0,0,.388.679c2.592-1.539,4.648-.087,3.787,4.211a.393.393,0,0,0,.444.446" transform="translate(-861.075 1815.995)" fill="#c16256"/><path d="M1936.251,630.825c.688-.2.659-3.086,3.6-3.829a.392.392,0,0,0,.3-.465.386.386,0,0,0-.465-.3c-2.937.681-4.632,4.6-3.436,4.593" transform="translate(-862.045 1814.117)" fill="#c16256"/><path d="M1938.145,641.142c-.094,2.455-3.946,2.253-3.781-.2.093-2.455,3.946-2.252,3.781.2" transform="translate(-861.188 1806.728)" fill="#fdffde"/><path d="M1854.979,613.55a.5.5,0,0,0,.122-.013l2.818-.666a.489.489,0,1,0-.225-.952l-2.817.666a.489.489,0,0,0,.1.965" transform="translate(-815.719 1822.267)" fill="#c16256"/><path d="M1881.4,612.136a.489.489,0,0,0,.379-.808,7.943,7.943,0,0,0-5.818-2.415.489.489,0,0,0-.487.491.482.482,0,0,0,.49.487,7.092,7.092,0,0,1,5.075,2.077.487.487,0,0,0,.36.169" transform="translate(-827.662 1823.973)" fill="#c16256"/><path d="M1946.257,914.451a57.443,57.443,0,0,0,18.8-2.97.644.644,0,0,0-.468-1.2c-.208.081-21.1,7.988-43.081-2.718a.644.644,0,1,0-.564,1.158,57.519,57.519,0,0,0,25.31,5.73" transform="translate(-853.346 1653.965)" fill="#f9d36c"/><path d="M1871.086,651.112a1.785,1.785,0,0,1-1.29-.5,1.906,1.906,0,0,1-.472-1.734,3.661,3.661,0,0,1,2.778-2.8,1.8,1.8,0,0,1,2.209,2.193,3.659,3.659,0,0,1-2.777,2.8,2.523,2.523,0,0,1-.448.041m1.459-4.214a1.653,1.653,0,0,0-.29.027,2.6,2.6,0,0,0-1.34.753h0a2.6,2.6,0,0,0-.744,1.347.95.95,0,0,0,1.21,1.2,2.809,2.809,0,0,0,2.084-2.1,1.079,1.079,0,0,0-.231-.977.951.951,0,0,0-.689-.251" transform="translate(-824.137 1802.833)" fill="#c16256"/><rect width="124.202" height="124.203" transform="translate(629.318 2518.052)" fill="#12263f"/><rect width="123.436" height="5.698" transform="translate(629.318 2641.398)" fill="#395d8b"/><path d="M1046.013,1216.117a4.747,4.747,0,0,0,4.587-4.892v-89.868a4.6,4.6,0,1,0-9.174,0v89.868a4.747,4.747,0,0,0,4.587,4.892" transform="translate(-352.774 1534.984)" fill="#395d8b"/><path d="M942.571,1357.481c8.456-.222.177-14.465,15.928-15.835h58.324a11.321,11.321,0,0,1,11.34,11.275c0,5.955,9.162,5.966,9.174,0a20.479,20.479,0,0,0-20.515-20.4H958.5c-14.43-1.765-28.3,22.619-15.928,24.957" transform="translate(-293.764 1412.018)" fill="#395d8b"/><path d="M1022.912,1114.89h17.63c5.568-.126,6.983-5.1,6.483-9.781h-30.6c-.5,4.682.916,9.655,6.484,9.781" transform="translate(-338.489 1541.45)" fill="#12263f"/><path d="M1020.952,1341.059H1042.6c5.049-.078,4.584-5.494,4.476-9.057a4.463,4.463,0,0,0-4.476-4.45h-21.644a4.463,4.463,0,0,0-4.476,4.45c-.1,3.564-.585,8.976,4.476,9.057" transform="translate(-338.535 1414.797)" fill="#12263f"/><path d="M1138.191,1368.778c.195,11.326,17.141,11.324,17.333,0-.194-11.326-17.14-11.324-17.333,0" transform="translate(-407.87 1396.16)" fill="#ce3932"/><path d="M928.774,1368.778c.195,11.326,17.14,11.324,17.333,0-.194-11.326-17.14-11.324-17.333,0" transform="translate(-288.633 1396.16)" fill="#12263f"/><path d="M1287.88,1334.538l-39.755-.436c.1-6.355,1.794-19.184.533-26.434l2.977-22.438,17.525.193-4.011,29.366a7.338,7.338,0,0,0,4.919,7.938c7.3,2.869,15.644,1.622,20.319,7.385a2.9,2.9,0,0,1-2.506,4.427" transform="translate(-470.464 1438.895)" fill="#f99370"/><path d="M1245.3,1374.691a10.076,10.076,0,0,0,1.166,3.842l40.142.441a2.852,2.852,0,0,0,2.759-3.733c-1.477-4.32-6.7-10.624-25.192-11.794,0,0-6.315,1.8-16.644-.183,0,0-2.836,5.97-2.23,11.427" transform="translate(-468.809 1394.463)" fill="#12263f"/><path d="M1319.264,1378.467a.814.814,0,0,0,.75-.5,8.616,8.616,0,0,1,4.289-4.739.814.814,0,0,0-.583-1.519,10.222,10.222,0,0,0-5.206,5.63.818.818,0,0,0,.75,1.127" transform="translate(-510.504 1389.69)" fill="#06111f"/><path d="M1304.607,1374.677a.814.814,0,0,0,.774-.564,11.254,11.254,0,0,1,5.065-6.109.814.814,0,0,0-.734-1.452,12.8,12.8,0,0,0-5.88,7.063.818.818,0,0,0,.774,1.063" transform="translate(-502.159 1392.647)" fill="#06111f"/><path d="M1287.93,1371.741a.815.815,0,0,0,.765-.538,14.663,14.663,0,0,1,5.134-6.709.814.814,0,0,0-.884-1.365,16.064,16.064,0,0,0-5.781,7.523.818.818,0,0,0,.766,1.089" transform="translate(-492.663 1394.621)" fill="#06111f"/><path d="M1289.459,1390.285l-44.044-.484a10.075,10.075,0,0,0,1.166,3.842l40.142.441a2.852,2.852,0,0,0,2.736-3.8" transform="translate(-468.921 1379.354)" fill="#06111f"/><path d="M974.008,993.337c22.925.076,52.6,12.989,66.542,35.113,13.908,21.241,12.72,60.054,12.544,79.158,21.477,6.918,34.247,1.6,34.247,1.6,4.76-56.136,8.975-142.815-70.35-172.666,0,0-95.847,1.3-95.847,1.3,2.078,20.57,34.51,55.106,52.864,55.5" transform="translate(-284.289 1637.429)" fill="#8774f8"/><path d="M1094.4,983.413l22.558,50.09c12.5,7.955,24.593,20.819,29.088,36.565,4.47-75.284-41.588-83.371-51.646-86.655" transform="translate(-382.937 1610.741)" fill="#5840e2"/><path d="M1174.925,1355.687l-39.755-.436c.1-6.355,1.794-19.183.533-26.434l2.977-22.438,17.525.193-1.931,28.379c-.476,3.483-.49,7.793,2.838,8.925,7.3,2.869,15.644,1.622,20.319,7.385a2.9,2.9,0,0,1-2.506,4.427" transform="translate(-406.15 1426.853)" fill="#f99370"/><path d="M1132.349,1395.84a10.075,10.075,0,0,0,1.166,3.842l40.142.44a2.851,2.851,0,0,0,2.759-3.733c-1.477-4.32-6.7-10.624-25.192-11.794,0,0-6.316,1.8-16.644-.183,0,0-2.836,5.97-2.23,11.427" transform="translate(-404.495 1382.422)" fill="#12263f"/><path d="M1206.31,1399.616a.814.814,0,0,0,.75-.5,8.614,8.614,0,0,1,4.289-4.739.814.814,0,0,0-.583-1.518,10.215,10.215,0,0,0-5.206,5.629.818.818,0,0,0,.75,1.127" transform="translate(-446.191 1377.648)" fill="#06111f"/><path d="M1191.653,1395.827a.814.814,0,0,0,.774-.565,11.251,11.251,0,0,1,5.065-6.109.814.814,0,0,0-.734-1.452,12.8,12.8,0,0,0-5.88,7.063.817.817,0,0,0,.774,1.063" transform="translate(-437.846 1380.605)" fill="#06111f"/><path d="M1174.976,1392.89a.815.815,0,0,0,.765-.538,14.665,14.665,0,0,1,5.135-6.709.814.814,0,0,0-.884-1.365,16.067,16.067,0,0,0-5.781,7.523.818.818,0,0,0,.765,1.089" transform="translate(-428.35 1382.579)" fill="#06111f"/><path d="M1176.5,1411.434l-44.044-.484a10.091,10.091,0,0,0,1.166,3.842l40.142.441a2.852,2.852,0,0,0,2.736-3.8" transform="translate(-404.607 1367.313)" fill="#06111f"/><path d="M939.923,998.775c20.569,12.448,43.975,5.872,58.374,34.94,11.583,25.132,7.808,66.938,5.653,87.368,21.477,6.918,33.024,0,33.024,0,20.5-120.889,5.4-162.834-117.67-181.526,0,0-9.392,41.056,20.619,59.217" transform="translate(-282.448 1635.711)" fill="#8774f8"/><path d="M1117.709,1351.517c21.477,6.918,33.024,0,33.024,0s.414-2.092,1.042-5.776c0,0-13.061,4.407-33.277-1.471-.433,4.534-.789,7.247-.789,7.247" transform="translate(-396.208 1405.278)" fill="#5840e2"/><path d="M1227.558,1326.549c21.477,6.917,34.247,1.6,34.247,1.6s.264-2.146.644-5.875c0,0-10.754,4.863-34.756-1.2-.05,3.438-.134,5.481-.134,5.481" transform="translate(-458.753 1418.488)" fill="#5840e2"/><path d="M1188.783,734.072a64.413,64.413,0,0,1-12.5,18.348l0,.022c-11.946,12.165-26.635,20.027-52.266,20.049a49.881,49.881,0,0,1-13.874-2.083,68.921,68.921,0,0,1-15.836-6.93c-.605-.361-1.035-.631-1.279-.782,0,0-11.435-49.158-15.935-61.949,41.209,1.555,61.339,56.59,107,21.255.082.1,6.467,7.673,6.548,7.768-.583,1.469-1.219,2.92-1.863,4.3" transform="translate(-373.087 1771.685)" fill="#f46464"/><path d="M1315.65,753.212c.836,5.461,8.957,8.963,8.957,8.963.644-1.383,1.278-2.837,1.86-4.308l-6.545-7.767q-2.191,1.673-4.272,3.111" transform="translate(-508.911 1743.583)" fill="#f4d4be"/><path d="M1331.03,697.949c2.133.389-.413,5.776.071,7.709a33.272,33.272,0,0,0,5.769-5.019c2.37-4.01,4.518-8.141,6.481-12.37,5.813-4.373-2,12.179-2.473,13.694l.056.041a105.267,105.267,0,0,0,9.191-11.381c6.974-3.141-5.567,12.9-6.5,14.267l.019.029a61.17,61.17,0,0,0,9.949-9.766c7.268-2.416-6.672,12.693-8.084,13.74l.018.052a62.417,62.417,0,0,0,9.043-6.409c6.948-1.114-6.53,9.779-7.952,10.722-1.184,1.359-6.063,5.252-14.066,8.775-2.495,1.1-7.222-4.883-6.968-7.549a32.233,32.233,0,0,1,1.873-6.866c.344-2.2.92-9.627,3.574-9.668" transform="translate(-514.561 1779.206)" fill="#f99370"/><path d="M1306.726,820.622c-.19.2-.378.4-.564.618.189-.2.358-.369.55-.543l0-.023a.078.078,0,0,0,.017-.051" transform="translate(-503.508 1703.43)" fill="#395b96"/><path d="M1132.912,817.837a68.918,68.918,0,0,1-15.836-6.93l5.479-26.859s5.917,24.686,10.357,33.789" transform="translate(-395.848 1724.254)" fill="#d92f2f"/><path d="M1031.563,650.976c2.2-8.706,2.536-21.644,2.009-27.062-.831-10.65-17.79-8.855-16.431,1.688.574-.262-.255,18.725-2.126,23.774-16.031,2.548,28.27,23.98,16.547,1.6" transform="translate(-335.722 1819.506)" fill="#f99370"/><path d="M916.051,798.89l95.847-1.3c13.662-5.937-.489-17.878-.987-25.164-1.46-21.421-5.289-52.771-12.783-63.776-5.385-7.909-14.888-12.816-14.888-12.816-4.138-4.8-7.489-.5-8.194-1.723l0,.005c.056.494,1.394,13.584-16.555-1.615a23.756,23.756,0,0,0-5.269,3.966,10.193,10.193,0,0,0-2.863,4.855c-2.706,13.319-52.082,57.732-34.307,97.567" transform="translate(-279.197 1776.379)" fill="#f46464"/><path d="M895.818,794.313s44.5,2,66.654,0a75.478,75.478,0,0,1,8.478-.357c-3.47-4.752-1.763-11.3-1.763-11.3-1.8-.769-4.086-1.561-6.713-2.387-21.539-6.767-66.009-15.814-53.977-33.206,10.7-15.469,35.343-23.286,19.459-53.95,0,0-31.073,3.563-49.938,38.267-21.2,39,1.57,63.3,17.8,62.93" transform="translate(-254.846 1776.029)" fill="#f46464"/><path d="M1083.527,909.549c5.226-.186,8.478-.357,8.478-.357-3.47-4.752-1.763-11.3-1.763-11.3-1.8-.769-4.086-1.561-6.713-2.387h0c-3.3,8.455-.069,13.926,0,14.04" transform="translate(-375.902 1660.792)" fill="#f4d4be"/><path d="M1005.277,692.041c-1.029,7.533,17.151,16.642,18.306,16.831l3.221-6.505c2.859,1.128,4.907,5.618,4.907,5.618,5.382-3.212,5.062-9.591,4.5-12.875-3.346-4.4-8.2-1.733-8.2-1.733a.017.017,0,0,0,0,.01c.053.5,1.4,13.589-16.555-1.611-2.157-1.373-6.185.265-6.185.265" transform="translate(-332.168 1777.104)" fill="#f4d4be"/><path d="M1090.477,602.746s2.336-8.33,1.459-14.816l-5.429.906Z" transform="translate(-378.442 1835.919)" fill="#8e4a35"/><path d="M1036.227,612.573c-9.536,5-25.986,1.3-29.766-6.47-14.1-28.972,30.592-67.206,35.457-24.445,2.3,12.48,10.355,20.794-5.691,30.915" transform="translate(-331.307 1850.381)" fill="#f99370"/><path d="M1065.24,618.22a1.106,1.106,0,1,0-1.564.037,1.106,1.106,0,0,0,1.564-.037" transform="translate(-365.248 1819.736)" fill="#c16256"/><path d="M1086.973,620.95a1.106,1.106,0,1,0-1.564.037,1.106,1.106,0,0,0,1.564-.037" transform="translate(-377.622 1818.183)" fill="#c16256"/><path d="M1074.146,630.686a4.508,4.508,0,0,1-1.75-.667.418.418,0,1,1,.472-.689c1.218.831,3.322.728,3.764.2.156-.186-.068-.484-.285-.7-1.9-1.913-2.14-6.672-2.149-6.874a.419.419,0,0,1,.4-.437.425.425,0,0,1,.437.4c0,.046.23,4.638,1.906,6.321.914.918.538,1.585.335,1.828-.531.638-1.87.841-3.131.621" transform="translate(-370.305 1816.797)" fill="#c16256"/><path d="M1039.579,576.313c-4.943-4.8-15.985-4.856-21.161-6.456,0,0-1.531,9.084-12.23,12.68-3.155,7.83-5.53,10.95-.2,23.248h0a16.7,16.7,0,0,1-1.389-1.8l-.009,0c-17.858-33.277,27.367-66.51,34.991-27.666" transform="translate(-329.442 1852.502)" fill="#e57d61"/><path d="M1046.352,548.58c-1.353-7.5-10.08-13.963-20.933-8.443-8.357,4.25-15.366,2.1-17.175,8.669-14.821,2.026-12.645,18.348-12.645,18.348l6.772,1.182a20.944,20.944,0,0,0,11.713-12.778l0,0a17.884,17.884,0,0,0,5.09,1.1c5.182.209,12.483,1.745,17.313,5.369s11.38-5.068,9.868-13.447" transform="translate(-326.618 1864.309)" fill="#8e4a35"/><path d="M1042.664,623.134c-10.256-10.587-26.289,4.4-33.745-2.8-6.667-7.063.369-17.65.97-20.27l-5.705,3.572L999.57,614.35c-4.991,15.8,11.982,23.23,21.548,25.839,12.591,4.794,21.533-9.851,21.546-17.055m-22.738,3.992c2.035-3.932,18.94-11.007,18.363-.639-4.043,4.758-12.66,2.715-18.363.639" transform="translate(-328.431 1829.014)" fill="#8e4a35"/><path d="M989.883,609.216c-.3,3.573,1.792,6.663,4.667,6.9s5.448-2.462,5.746-6.035-1.792-6.663-4.667-6.9-5.448,2.462-5.746,6.035" transform="translate(-323.411 1827.244)" fill="#f99370"/><path d="M1000.167,609.856c-.093-.073-2.287-1.767-4.065-.9a2.692,2.692,0,0,0-1.12,1.1s0,.007-.006.009a8.707,8.707,0,0,0-.828,4.323.42.42,0,0,0,.347.41.52.52,0,0,0,.075.007.42.42,0,0,0,.417-.421,9.252,9.252,0,0,1,.509-3.487c2.2,1.1,2.563,4.066,2.567,4.1a.419.419,0,0,0,.832-.093c-.017-.147-.413-3.419-2.976-4.733a1.7,1.7,0,0,1,.55-.461c1.3-.643,3.163.79,3.182.8a.419.419,0,0,0,.516-.659" transform="translate(-325.855 1824.087)" fill="#c16256"/><path d="M1073.29,654.617a6.971,6.971,0,0,1-3.756-1.216.43.43,0,0,1,.506-.695c.026.02,2.729,1.937,5.354.518a.429.429,0,0,1,.408.755,5.216,5.216,0,0,1-2.512.637" transform="translate(-368.679 1799.083)" fill="#c16256"/><path d="M1057.186,609.581a.43.43,0,0,1-.2-.809c.146-.078,3.607-1.883,6.564-.905a.429.429,0,1,1-.27.815c-2.608-.862-5.859.832-5.892.849a.425.425,0,0,1-.2.05" transform="translate(-361.503 1824.732)" fill="#c16256"/><path d="M1086.732,612.037a.429.429,0,0,1-.355-.187,5.868,5.868,0,0,0-4.017-2.086.429.429,0,0,1,.059-.857,6.662,6.662,0,0,1,4.667,2.457.429.429,0,0,1-.354.672" transform="translate(-375.854 1823.976)" fill="#c16256"/><path d="M1010.489,834.523a.442.442,0,0,1-.128-.019c-1.605-.476-39.422-11.739-48.788-17.427-4.106-2.494-6.25-5.311-6.551-8.612-.5-5.467,4.015-12.244,14.208-21.328a.449.449,0,1,1,.6.67C960,796.565,955.45,803.3,955.915,808.385c.274,3,2.277,5.59,6.124,7.926,9.267,5.627,48.185,17.217,48.578,17.334a.449.449,0,0,1-.128.878" transform="translate(-303.557 1722.56)" fill="#d92f2f"/><path d="M1153.006,882.492l-15.058-2.184a2.526,2.526,0,0,1-2.136-2.864l4.314-29.775a2.526,2.526,0,0,1,2.861-2.139l15.058,2.184a2.527,2.527,0,0,1,2.136,2.864l-4.314,29.775a2.526,2.526,0,0,1-2.861,2.139" transform="translate(-406.5 1689.264)" fill="#ffd357"/><path d="M1154.9,853.615l-3.6-.5a1.565,1.565,0,0,1,.43-3.1l3.6.5a1.565,1.565,0,1,1-.43,3.1" transform="translate(-414.564 1686.702)" fill="#a3bcef"/><path d="M1153.553,852.435a.93.93,0,0,1-1.858-.053.93.93,0,0,1,1.858.053" transform="translate(-415.558 1685.848)" fill="#527fbf"/><path d="M1162.051,854.287a.465.465,0,0,1-.929-.027.465.465,0,0,1,.929.027" transform="translate(-420.926 1684.527)" fill="#cadbf9"/><path d="M1116.319,888.149a19.16,19.16,0,0,0,5.719.169c3.887-1.093,7.708-2.39,11.475-3.857a1.046,1.046,0,0,1,.865,1.9c-3.477,1.865-7.045,3.587-10.683,5.125,0,.019.006.039.01.059a92.615,92.615,0,0,0,12.514-1.652,1.046,1.046,0,0,1,.5,2.029,96.955,96.955,0,0,1-13.115,2.984l-.006.03a53.446,53.446,0,0,0,12-.211c5.83,2.823-11.736,3.918-13.265,3.762l-.021.043a53.879,53.879,0,0,0,9.434,1.333,1.053,1.053,0,0,1-.031,2.1,53.769,53.769,0,0,1-11.635-.166c-1.112.3-14.54,1.2-19.807.078,0,0-3.141-4.223-.551-11.357a63.065,63.065,0,0,1,12.015-4.607c1.583-.462,3.973-2.54,5.39-3.36Z" transform="translate(-385.386 1668.17)" fill="#f99370"/><path d="M1056.848,743.331a1.326,1.326,0,1,0,1.326-1.326,1.326,1.326,0,0,0-1.326,1.326" transform="translate(-361.555 1748.192)" fill="#d92f2f"/><path d="M1058.635,757.008a1.326,1.326,0,1,0,1.326-1.326,1.326,1.326,0,0,0-1.326,1.326" transform="translate(-362.573 1740.405)" fill="#d92f2f"/><path d="M653.768,1176.323c0,10.754-7.841,19.471-17.514,19.471s-17.513-8.718-17.513-19.471,7.841-19.472,17.513-19.472,17.514,8.718,17.514,19.472" transform="translate(-112.108 1511.99)" fill="#5279bf"/><path d="M636.477,1029.971c-13.968-15.53-32.6-24.082-52.464-24.082s-38.5,8.552-52.464,24.082c-13.778,15.318-21.365,35.635-21.365,57.208s7.588,41.89,21.365,57.208c13.968,15.529,32.6,24.081,52.464,24.081s38.5-8.552,52.464-24.081c13.778-15.319,21.365-35.635,21.365-57.208s-7.588-41.89-21.365-57.208m7.157,56.46H590.63L631.058,1046a72.165,72.165,0,0,1,12.577,40.429m-14.478-43.037-41.479,41.479v-64.654c16.542,1.134,31.284,9.885,41.479,23.174m-45.143-23.3c.159,0,.316.005.475.007v64.3l-43.065-43.065-2.255,2.255,42.846,42.846H524.392c.358-36.65,26.964-66.342,59.621-66.342m-59.586,69.532h58.5l-42.859,42.86a71.4,71.4,0,0,1-15.643-42.86m17.725,45.288,42.336-42.336v61.69c-.158,0-.316.007-.475.007-16.3,0-31.087-7.4-41.862-19.361m45.525,19.23v-62.045L628,1132.422c-10.139,12.469-24.4,20.625-40.328,21.717m42.3-24.26-40.259-40.259H643.6a71.792,71.792,0,0,1-13.627,40.259" transform="translate(-50.298 1597.943)" fill="#395d8b"/><path d="M574.14,1165.819c-21.873,0-42.39-9.418-57.77-26.518-15.171-16.867-23.527-39.239-23.527-62.994s8.355-46.127,23.527-62.994c15.38-17.1,35.9-26.518,57.77-26.518s42.389,9.418,57.77,26.518c15.172,16.868,23.527,39.239,23.527,62.994s-8.355,46.126-23.527,62.994c-15.381,17.1-35.9,26.518-57.77,26.518m0-163.388c-36.206,0-65.661,33.141-65.661,73.876s29.456,73.876,65.661,73.876,65.661-33.141,65.661-73.876-29.456-73.876-65.661-73.876" transform="translate(-40.425 1608.815)" fill="#224672"/><path d="M756.6,1204.18a3.987,3.987,0,0,1-3.987-3.987V1089.511h-21.38a3.987,3.987,0,1,1,0-7.974H756.6a3.987,3.987,0,0,1,3.987,3.987v114.669a3.987,3.987,0,0,1-3.987,3.987" transform="translate(-173.888 1554.871)" fill="#12263f"/><path d="M790.279,1331.337c0,10.753-7.841,19.471-17.513,19.471s-17.513-8.718-17.513-19.471,7.841-19.471,17.513-19.471,17.513,8.718,17.513,19.471" transform="translate(-189.834 1423.729)" fill="#12263f"/><path d="M570.259,1342.154l101.873-5.008v12.375l-102.771,6.2Z" transform="translate(-83.993 1409.334)" fill="#12263f"/><path d="M336.157,684.63a3.987,3.987,0,0,1-3.987-3.987v-7.956l-22.321-.271a3.987,3.987,0,1,1,.1-7.973l26.26.319a3.986,3.986,0,0,1,3.938,3.986v11.895a3.987,3.987,0,0,1-3.987,3.987" transform="translate(66.01 1792.354)" fill="#12263f"/><path d="M544.534,684.63a3.987,3.987,0,0,1-3.987-3.987v-7.956l-22.321-.271a3.987,3.987,0,1,1,.1-7.973l26.26.319a3.986,3.986,0,0,1,3.938,3.986v11.895a3.987,3.987,0,0,1-3.987,3.987" transform="translate(-52.635 1792.354)" fill="#12263f"/><path d="M464.509,695.714H366.7v80.232c0,49.8-4.038,90.177,51.757,90.177h46.049Z" transform="translate(31.433 1774.55)" fill="#12263f"/><path d="M595.925,775.841l-36.494,10.678s-27.135-85.925-32.583-98c44.367-3.033,66.654,71.127,69.077,87.323" transform="translate(-59.787 1778.698)" fill="#f46464"/><path d="M745.576,1282.735l-39.142-.43c.1-6.257,1.767-18.887.525-26.026l2.931-22.092,17.255.189-3.95,28.913a7.227,7.227,0,0,0,4.843,7.816c7.192,2.825,15.4,1.6,20.005,7.271a2.858,2.858,0,0,1-2.468,4.359" transform="translate(-162.038 1467.957)" fill="#f99370"/><path d="M703.656,1322.269a9.921,9.921,0,0,0,1.148,3.782l39.523.434a2.808,2.808,0,0,0,2.716-3.675c-1.454-4.253-6.6-10.459-24.8-11.612,0,0-6.218,1.777-16.388-.18,0,0-2.792,5.878-2.2,11.251" transform="translate(-160.409 1424.211)" fill="#ffd357"/><path d="M776.476,1325.987a.8.8,0,0,0,.739-.492,8.482,8.482,0,0,1,4.223-4.666.8.8,0,0,0-.575-1.495,10.058,10.058,0,0,0-5.125,5.542.805.805,0,0,0,.739,1.11" transform="translate(-201.462 1419.511)" fill="#deb138"/><path d="M762.046,1322.256a.8.8,0,0,0,.762-.555,11.079,11.079,0,0,1,4.987-6.015.8.8,0,0,0-.723-1.429,12.6,12.6,0,0,0-5.789,6.954.8.8,0,0,0,.762,1.046" transform="translate(-193.246 1422.422)" fill="#deb138"/><path d="M745.626,1319.365a.8.8,0,0,0,.754-.53,14.438,14.438,0,0,1,5.055-6.606.8.8,0,0,0-.87-1.344,15.817,15.817,0,0,0-5.692,7.407.8.8,0,0,0,.754,1.073" transform="translate(-183.896 1424.366)" fill="#deb138"/><path d="M747.132,1337.622l-43.365-.476a9.919,9.919,0,0,0,1.148,3.782l39.523.434a2.808,2.808,0,0,0,2.694-3.74" transform="translate(-160.52 1409.334)" fill="#deb138"/><path d="M476.839,1009.243c22.572.075,50.556,13.616,65.516,34.572,11.556,16.188,12.524,39.991,12.351,58.8,21.146,6.811,33.719,1.573,33.719,1.573,4.687-55.271,11.352-130.809-61.935-137.242,0,0-66.544,0-66.544,0-11.127,22.682-1.177,41.914,16.893,42.3" transform="translate(-19.03 1620.118)" fill="#f4d4be"/><path d="M555.08,981.464l22.21,49.318c15.754,0,28.94,35.236,28.94,35.236,5.307-71.25-33.864-82.508-51.15-84.554" transform="translate(-75.861 1611.851)" fill="#c19480"/><path d="M634.363,1290.226l-39.142-.43c.1-6.256,1.767-18.887.525-26.026l2.931-22.092,17.255.189-1.9,27.942c-.468,3.429-.482,7.672,2.795,8.787,7.192,2.825,15.4,1.6,20.005,7.271a2.858,2.858,0,0,1-2.467,4.359" transform="translate(-98.716 1463.691)" fill="#f99370"/><path d="M592.444,1329.76a9.92,9.92,0,0,0,1.148,3.782l39.523.434a2.808,2.808,0,0,0,2.716-3.675c-1.455-4.253-6.6-10.459-24.8-11.612,0,0-6.218,1.777-16.388-.18,0,0-2.792,5.878-2.2,11.251" transform="translate(-97.087 1419.945)" fill="#ffd357"/><path d="M665.263,1333.477a.8.8,0,0,0,.739-.492,8.482,8.482,0,0,1,4.223-4.666.8.8,0,0,0-.575-1.5,10.064,10.064,0,0,0-5.125,5.543.805.805,0,0,0,.739,1.11" transform="translate(-138.14 1415.246)" fill="#deb138"/><path d="M650.833,1329.747a.8.8,0,0,0,.762-.555,11.079,11.079,0,0,1,4.987-6.016.8.8,0,0,0-.723-1.429,12.6,12.6,0,0,0-5.789,6.954.8.8,0,0,0,.762,1.046" transform="translate(-129.923 1418.157)" fill="#deb138"/><path d="M634.412,1326.855a.8.8,0,0,0,.754-.53,14.441,14.441,0,0,1,5.056-6.606.8.8,0,0,0-.87-1.344,15.82,15.82,0,0,0-5.692,7.407.805.805,0,0,0,.754,1.073" transform="translate(-120.574 1420.101)" fill="#deb138"/><path d="M635.918,1345.113l-43.365-.476a9.917,9.917,0,0,0,1.148,3.782l39.523.434a2.808,2.808,0,0,0,2.694-3.74" transform="translate(-97.197 1405.069)" fill="#deb138"/><path d="M407.412,1013.7c20.251,12.256,39.9-.607,54.073,28.013,11.4,24.745,8.134,46.691,6.012,66.806,21.146,6.811,32.515,0,32.515,0C520.2,989.489,474.9,960.591,384.55,972.232c0,0-6.687,23.582,22.863,41.464" transform="translate(21.604 1618.461)" fill="#f4d4be"/><path d="M578.029,1282.416c21.146,6.811,32.515,0,32.515,0s.408-2.06,1.027-5.686c0,0-12.86,4.339-32.764-1.449-.426,4.464-.777,7.135-.777,7.135" transform="translate(-88.928 1444.559)" fill="#c19480"/><path d="M686.185,1274.869c21.146,6.811,33.719,1.573,33.719,1.573s.26-2.113.634-5.785c0,0-10.588,4.789-34.221-1.185-.049,3.385-.132,5.4-.132,5.4" transform="translate(-150.509 1447.865)" fill="#c19480"/><path d="M482.394,807.014c-39.8,5.558-101.309,3.631-101.309,3.631-12.76-56.592,13.855-106.586,44.713-124.586,0,0,16.191,1.106,16.195,1.11,10.322,9.09,23.457,24.259,30.709,42.943,7.654,19.322,14.514,66.149,9.693,76.9" transform="translate(25.069 1780.047)" fill="#fcb4b4"/><path d="M367.729,725.209c-31.245,31.905-8.275,37.984,30.714,51.591a8.728,8.728,0,0,0-1.352,9.879c-131.54,28.886-93.388-99.833-9.2-100.618-8.478.079,2.092,19.87-20.159,39.149" transform="translate(62.979 1780.047)" fill="#f46464"/><path d="M541.986,905.161s-4.579-13.87-23.608-8.87l-3.676,8.883Z" transform="translate(-52.871 1660.965)" fill="#f99370"/><path d="M559.341,909.1c-.563-.016-5.111-4.871-11.891-5.577a.531.531,0,0,1-.474-.582c3.267-2.095,15.738,6.194,12.365,6.159" transform="translate(-71.246 1656.752)" fill="#e57d61"/><path d="M551.428,912.884c-5.115-1.9-5.581-2.2-9.365-2.92.034-.263.127-.788.187-1.046,3.973.822,3.973.822,9.268,2.9a.539.539,0,0,1-.09,1.066" transform="translate(-68.45 1653.156)" fill="#e57d61"/><path d="M500.842,697.666c-4.534,11-26.924,4.386-30.447-11.047a0,0,0,0,0,0,0,53.638,53.638,0,0,1,8.111-.563s16.191,1.106,16.195,1.11a51.324,51.324,0,0,1,5.752.031c1.974,2.7,1.309,8.232.385,10.472" transform="translate(-27.644 1780.055)" fill="#f46464"/><path d="M505.269,644.677c1.914-8.56,1.887-21.2,1.225-26.475-1.1-10.375-17.6-8.159-15.991,2.1.553-.272.261,18.288-1.428,23.268-2.1,7.5,22.533,17.351,16.193,1.111" transform="translate(-38.208 1822.539)" fill="#f99370"/><path d="M538.927,542.947s4.738-2,7,2.259-1.048,6.647,1.921,10.5,4.97,4.711,3.66,7.951-3.911,3.337-3.234,7.647c-.69-.194-19.9-24.877-9.348-28.36" transform="translate(-64.866 1861.799)" fill="#12263f"/><path d="M491.961,619.29c.01.284.029.573.065.853.4-.208.369,10.045-.4,17.407,6.583,3.88,14.441,3.317,15.884,3.177,1.142-9.308,1.188-17.894.385-23.374-2.02-9.367-16.212-7.624-15.931,1.937" transform="translate(-39.73 1822.694)" fill="#e57d61"/><path d="M506.177,599.181c-6.412,5.279-15.528,6.012-22.514,3.71a18.083,18.083,0,0,1-7.677-4.568h-.009c-8.48-9.634-9.477-27.343-2.746-37.816,5.172-9.083,19.12-12.926,26.757-4.89,3.933,4.075,5.16,9.36,6.854,14.894a21.512,21.512,0,0,0,3.309,5.782c5.221,6.51,4.249,15.746-3.973,22.889" transform="translate(-26.743 1856.812)" fill="#f99370"/><path d="M535.16,631.845l-8.937-5.832c-1.472,5.645,4.119,9.945,8.937,5.832" transform="translate(-59.294 1814.235)" fill="#f9f8f3"/><path d="M531.12,605.848a1.1,1.1,0,0,0-1.84-1.2,1.1,1.1,0,0,0,1.84,1.2" transform="translate(-61.062 1826.681)" fill="#c16256"/><path d="M552.8,604.53a1.1,1.1,0,0,0-1.84-1.2,1.1,1.1,0,0,0,1.84,1.2" transform="translate(-73.405 1827.431)" fill="#c16256"/><path d="M534.927,631.821c-.245.068-8.948-5.835-9.164-5.9a.415.415,0,0,1-.121-.574c.068-1.027,9.275,5.8,9.512,5.711a.418.418,0,0,1-.227.763" transform="translate(-59.062 1814.674)" fill="#c16256"/><path d="M503.595,561.121c-6.859,4.864-13.534-4.429-14.489,3.712-.233,3.35-6.214,1.722-7.1,3.211s-.366,4.56-1.951,6.443-8.711,3.65-8.711,3.65c.889,7.022-.739,12.777,6.008,21.563a15.371,15.371,0,0,1-1.366-1.246h-.009c-8.479-9.634-9.478-27.343-2.746-37.815,6.633-11.661,25.043-12.949,30.364.484" transform="translate(-26.743 1856.681)" fill="#e57d61"/><path d="M543.783,616.08c-.654-.073-2.114.01-1.969-.879a.417.417,0,0,1,.548-.212c1.336.59,3.371.1,3.7-.493.117-.211-.156-.46-.407-.633-2.206-1.516-3.305-6.112-3.352-6.307a.416.416,0,0,1,.809-.19c.01.044,1.072,4.478,3.013,5.813,2.172,1.872-.455,2.859-2.347,2.9" transform="translate(-68.302 1825.029)" fill="#c16256"/><path d="M484.227,545.271s3.971-3.955.593-7.532-2.64-8.325-7.852-8.075-7.187.667-12.6-1.427-10.7,2.757-10.862,6.308-7.64,2.756-9.261,7.411-.659,6.2-.879,8.274-7.03,4.08-6.282,9.147,4.966,4.751,5.425,8-2.551,8.413.91,10.582a10.241,10.241,0,0,0,10.161.23c-7.711-22.226,7.228-10.888,7.089-22.9-.6-4.731,6.063-2.574,7.919-4.791s1-5.2,4.036-5.524,4.608,3.451,11.6.3" transform="translate(-8.647 1870.195)" fill="#12263f"/><path d="M542.5,1338.744c0,10.754-7.841,19.471-17.513,19.471s-17.514-8.718-17.514-19.471,7.841-19.471,17.514-19.471,17.513,8.718,17.513,19.471" transform="translate(-48.758 1419.511)" fill="#12263f"/><path d="M509.336,1211.587a3.987,3.987,0,0,1-3.987-3.987V1096.918H483.969a3.987,3.987,0,0,1,0-7.974h25.367a3.987,3.987,0,0,1,3.987,3.987V1207.6a3.987,3.987,0,0,1-3.987,3.987" transform="translate(-33.102 1550.654)" fill="#12263f"/><path d="M456.143,609.474c.6,3.479,3.352,5.908,6.15,5.427s4.583-3.691,3.985-7.169-3.352-5.909-6.15-5.427-4.583,3.691-3.985,7.169" transform="translate(-19.463 1827.77)" fill="#f99370"/><path d="M461.079,614.482a.412.412,0,0,1-.4-.307c-.745-2.82-.57-4.724.52-5.659,1.478-1.268,3.989-.194,4.095-.147a.412.412,0,0,1-.329.755c-.022-.009-2.145-.914-3.231.019-.817.7-.906,2.369-.258,4.821a.412.412,0,0,1-.293.5.406.406,0,0,1-.105.014" transform="translate(-21.855 1824.549)" fill="#c16256"/><path d="M465.111,616.337a.412.412,0,0,1-.385-.265c-.012-.031-1.205-3.063-3.836-3.337a.412.412,0,1,1,.086-.82c3.139.328,4.465,3.719,4.52,3.864a.412.412,0,0,1-.238.531.418.418,0,0,1-.147.027" transform="translate(-22.021 1822.264)" fill="#c16256"/><path d="M284.615,1038.363c-13.884-15.436-32.4-23.937-52.15-23.937s-38.266,8.5-52.15,23.938c-13.7,15.227-21.238,35.422-21.238,56.866s7.542,41.639,21.238,56.866c13.884,15.436,32.4,23.938,52.15,23.938s38.265-8.5,52.15-23.938c13.7-15.226,21.238-35.422,21.238-56.866s-7.542-41.639-21.238-56.866m7.1,55.161H237.012l40.967-40.967a71.4,71.4,0,0,1,13.74,40.967M276,1050.024l-41.941,41.941v-63.4c16.557.495,31.44,8.667,41.941,21.459m-45.131-21.459v62.922l-41.724-41.724c10.488-12.642,25.281-20.707,41.724-21.2m-43.713,23.719,41.24,41.24H173.212a71.357,71.357,0,0,1,13.946-41.24m-13.948,44.429h56.1l-41.857,41.857a71.326,71.326,0,0,1-14.246-41.857m16.252,44.362,41.41-41.41v62.227c-16.278-.486-30.941-8.393-41.41-20.817m44.6,20.817v-62.705l41.626,41.626c-10.483,12.574-25.235,20.59-41.626,21.079m43.621-23.6L236.1,1096.713h55.625a71.361,71.361,0,0,1-14.041,41.584" transform="translate(149.612 1593.084)" fill="#6288b7"/><path d="M323.856,1176.323c0,10.754-7.841,19.471-17.514,19.471s-17.513-8.718-17.513-19.471,7.841-19.472,17.513-19.472,17.514,8.718,17.514,19.472" transform="translate(75.735 1511.99)" fill="#12263f"/><path d="M325.609,1184.32c0,7.413-5.405,13.423-12.073,13.423s-12.073-6.01-12.073-13.423,5.405-13.423,12.073-13.423,12.073,6.01,12.073,13.423" transform="translate(68.542 1503.992)" fill="#395d8b"/><path d="M522.915,598.225a.479.479,0,0,1-.257-.883c.133-.084,3.293-2.056,6.125-1.363a.479.479,0,0,1-.227.93c-2.433-.593-5.357,1.224-5.387,1.243a.477.477,0,0,1-.255.074" transform="translate(-57.274 1831.42)" fill="#c16256"/><path d="M550.889,596.328a.48.48,0,0,1-.178-.034,4.806,4.806,0,0,0-3.374-.006.478.478,0,0,1-.383-.877,5.7,5.7,0,0,1,4.114-.006.478.478,0,0,1-.178.922" transform="translate(-71.071 1831.882)" fill="#c16256"/><path d="M222.008,1173.226c-21.873,0-42.39-9.417-57.77-26.517-15.171-16.868-23.527-39.24-23.527-62.994s8.355-46.127,23.527-62.994c15.38-17.1,35.9-26.518,57.77-26.518s42.39,9.418,57.77,26.518c15.171,16.867,23.527,39.239,23.527,62.994s-8.355,46.127-23.527,62.994c-15.38,17.1-35.9,26.517-57.77,26.517m0-163.388c-36.206,0-65.661,33.141-65.661,73.876s29.456,73.876,65.661,73.876,65.661-33.141,65.661-73.876-29.456-73.876-65.661-73.876" transform="translate(160.07 1604.598)" fill="#12263f"/><path d="M514.418,897.187l-4.086-.411s-4.773,4.274-1.351,9.879l1.761-.585s3.411-2.13,3.676-8.883" transform="translate(-48.91 1660.07)" fill="#f99370"/><rect width="433.248" height="17.824" transform="translate(510.901 2579.052)" fill="#395d8b"/><path d="M1022.2,928.169H342.53v9.342H457.268v212.246H468.5V937.511H896.235v212.246h11.228V937.511H1022.2Z" transform="translate(45.16 1642.195)" fill="#224672"/><path d="M658.93,833.373H570.858l17.535-64.557h87.54Z" transform="translate(-84.845 1732.927)" fill="#163260"/><rect width="88.072" height="4.384" transform="translate(486.013 2565.98)" fill="#234270"/><path d="M532.514,768.816h-3.151l-17.175,64.237h-41.8v4.384h44.729v-3.921Z" transform="translate(-27.642 1732.928)" fill="#0b274f"/><path d="M1393.34,942.553s-62.536,31.18-66.025,43.2c-62.556,24-41.343,84.316.409,138.307,6.389,11.793-14.623,15.368-15.54,25.105a2.9,2.9,0,0,0,4.241,2.808l35.23-18.426c-8.757-12.394-37.145-72.947-18.395-100.109,19.292-17.658,29.426-40.69,51.872-45.356,17.9-4.058,23.894-25.22,8.208-45.527" transform="translate(-493.163 1634.006)" fill="#f99370"/><path d="M1382.459,1364.272a10.076,10.076,0,0,1,.7,3.952l-35.573,18.6a2.851,2.851,0,0,1-4.152-2.075c-.644-4.52,1.151-12.507,17.1-21.94,0,0,6.885-1.634,15.188-8.092,0,0,4.8,4.411,6.734,9.549" transform="translate(-524.671 1399.326)" fill="#f46464"/><path d="M1343.559,1397.311l39.031-20.413a10.08,10.08,0,0,1,.7,3.952l-35.573,18.605a2.852,2.852,0,0,1-4.161-2.144" transform="translate(-524.801 1386.7)" fill="#d92f2f"/><path d="M1437.873,956.546s-14.384,13.711-17.873,25.729c-62.556,24-41.344,84.316.408,138.307,6.389,11.792-14.623,15.368-15.541,25.1a2.9,2.9,0,0,0,4.241,2.808l35.23-18.426c-8.757-12.394-37.146-72.947-18.4-100.109,19.292-17.658,21.118-27.306,43.563-31.971,17.9-4.058-15.949-21.135-31.635-41.443" transform="translate(-545.936 1626.038)" fill="#f99370"/><path d="M1343.358,1171.366c-13.007,12.59-31.135,11.443-31.135,11.443s-1.6-1.537-4.092-4.5h0a125.525,125.525,0,0,1-27.915-66.174c-4.826-44.589,26.12-59.347,26.12-59.347l19.49,34.644c-5.968,24.222,8.859,63.46,15.012,78.142,1.533,3.658,2.525,5.792,2.525,5.792" transform="translate(-488.442 1571.24)" fill="#f4d4be"/><path d="M1446.4,1201.946c-12.126,12.276-30.753,14.647-30.753,14.647q-1.617-2.274-3.117-4.462h0c-38.083-55.491-23.2-72.895-23.2-72.895l34.115-7.016c.674,22.573,13.865,51.622,19.941,63.869,1.829,3.693,3.014,5.857,3.014,5.857" transform="translate(-549.229 1526.014)" fill="#f4d4be"/><path d="M1480.863,1286.393c-12.126,12.276-30.754,14.647-30.754,14.647q-1.617-2.274-3.117-4.462s24.776-6.857,30.856-16.038v0c1.829,3.693,3.014,5.857,3.014,5.857" transform="translate(-583.693 1441.566)" fill="#c19480"/><path d="M1475.145,1337.7a10.076,10.076,0,0,1,.7,3.952l-35.573,18.605a2.852,2.852,0,0,1-4.152-2.075c-.644-4.52,1.151-12.507,17.1-21.94,0,0,6.884-1.634,15.188-8.092,0,0,4.8,4.411,6.734,9.549" transform="translate(-577.444 1414.457)" fill="#f46464"/><path d="M1436.245,1370.737l39.031-20.413a10.078,10.078,0,0,1,.7,3.952l-35.573,18.605a2.852,2.852,0,0,1-4.162-2.144" transform="translate(-577.575 1401.831)" fill="#d92f2f"/><path d="M1369.611,988.78s-18.488,27.2-5.943,44.582c15.291,21.19,78.252,19.687,97.837.355,14.508-14.321-3.456-44.937-3.456-44.937Z" transform="translate(-533.766 1607.686)" fill="#ce3932"/><path d="M1527.553,788c63.46,43.5,55.258,78.929-24.289,69.224-4.811.219-10.6-1.908-10-7.7.94-7.479,8.577-6.016,14.046-6.368,14-1.26,30.418-.781,42.764-7.373a3.1,3.1,0,0,0-1.142,1.983c-7.887-10.072-22.4-19.7-34.764-26.6-18.882-8.41-3.3-35.411,13.385-23.165" transform="translate(-610.015 1723.791)" fill="#f99370"/><path d="M1474.252,841.685a51.57,51.57,0,0,0-.426,11.219c1.117,12.242-82.122,10.933-80.053,0,1.509-12.52-.682-29.934,1.583-41.238,1.956-15.134,7.861-38.54,14.778-37.668,16.6-5.441,35.213-5.921,51.458.985,0,0,0,0,0,0,9.469,6.327,16.63,48.285,12.657,66.7" transform="translate(-553.371 1732.334)" fill="#c7ffe5"/><path d="M1481.064,774.079c-2.939,8.134-9.422,19.295-22.851,19.295-23.046,0-26.321-19.13-26.4-19.4,18.973-6.089,35.674-5,49.247.108" transform="translate(-575.053 1732.359)" fill="#1cf290"/><path d="M1470.761,741.094V725.468h-16.917c-1.09,17.12,5.092,16.216-11.96,21.974,9.373,22.864,32.281,20.624,40.023-.311-4.1-1.457-11.147-3.681-11.147-6.037" transform="translate(-580.786 1757.608)" fill="#f99370"/><path d="M1456.516,750s-3.154,9.335-2.707,18.51-7.027,16.056-14.733,20.08c0,0,18.008,1.288,25.32-9.081s5.327-19.158,1.641-30.281Z" transform="translate(-579.187 1744.082)" fill="#12263f"/><path d="M1473.475,627.088c-2.133-26.314-19.286-23.671-19.286-23.671-3.364-3.556-9.027-6.58-18.07-3.9-17.526,5.2-17.927,22.817-17.354,31.6,1.26,19.349,18.921,34.131,31.126,32.137,10.782-.314,25.2-16.238,23.584-36.167" transform="translate(-567.543 1829.904)" fill="#12263f"/><path d="M1479.142,748.178a19.621,19.621,0,0,0,9.521-.772s.806-.261-.086-1.062-8.931.111-9.521.771a.645.645,0,0,0,.086,1.063" transform="translate(-601.813 1745.9)" fill="#f4a8a8"/><path d="M1472.81,956.65l-44.778,7.744-40.44-8.672a29.336,29.336,0,0,0,2.681-7.97h0v0a46.864,46.864,0,0,0,.577-11.312s37.855,8.978,79.815,0l.086.094q-.039.355-.086.71a49.166,49.166,0,0,0-.34,10.509,23.365,23.365,0,0,0,2.482,8.9" transform="translate(-549.873 1637.487)" fill="#ce3932"/><path d="M1393.833,950.769s34.948,9.92,79.338,0c0,0,.111,2.924.111,5.141,0,0-37.031,15.188-80.5.614a32.156,32.156,0,0,1,1.054-5.755" transform="translate(-552.826 1629.328)" fill="#f99370"/><path d="M1471.677,973.933v0c-49.374,15.154-88.437,0-88.437,0,1.874-5.479,4.107-10.614,4.107-10.614,10.865,2.71,42.912,11.1,80.5-.614,0,0,1.46,4.324,3.827,11.225" transform="translate(-547.395 1622.529)" fill="#eb5648"/><path d="M1549.4,781.77c37.8,10.551,74.472,64.46,40.319,70.977,0,0-6.8-16.226-15.167-12.06,0,0-7.088,3.9-21.5-24.3-8.69-17-3.65-34.619-3.65-34.619" transform="translate(-641.173 1725.552)" fill="#88ffc8"/><path d="M1367.031,779.468s-37.73,15.795-48.222,49.97c0,0-4.276,13.147,7.236,20.259s21.993,1.276,29.415-13.238,11.571-56.991,11.571-56.991" transform="translate(-510.267 1726.862)" fill="#88ffc8"/><rect width="124.202" height="124.203" transform="translate(817.889 2554.329)" fill="#12263f"/><rect width="124.202" height="5.698" transform="translate(817.889 2677.676)" fill="#395d8b"/><path d="M1483.913,1291.524a4.574,4.574,0,0,0,4.587-4.561v-83.778a4.587,4.587,0,0,0-9.174,0v83.778a4.574,4.574,0,0,0,4.587,4.561" transform="translate(-602.104 1488.205)" fill="#395d8b"/><path d="M1380.471,1423.959c8.456-.221.177-14.465,15.928-15.835h58.324a11.321,11.321,0,0,1,11.34,11.275c0,5.955,9.162,5.966,9.174,0a20.479,20.479,0,0,0-20.515-20.4H1396.4c-14.43-1.765-28.3,22.619-15.928,24.957" transform="translate(-543.093 1374.167)" fill="#395d8b"/><path d="M1460.813,1200.069h17.63c5.568-.126,6.983-5.1,6.483-9.781h-30.6c-.5,4.682.916,9.655,6.483,9.781" transform="translate(-587.818 1492.951)" fill="#12263f"/><path d="M1458.852,1407.538H1480.5c5.049-.078,4.584-5.494,4.476-9.057a4.463,4.463,0,0,0-4.476-4.45h-21.644a4.463,4.463,0,0,0-4.476,4.45c-.1,3.564-.585,8.975,4.476,9.057" transform="translate(-587.864 1376.945)" fill="#12263f"/><path d="M1576.091,1435.257c.195,11.326,17.141,11.324,17.333,0-.194-11.326-17.14-11.324-17.333,0" transform="translate(-657.199 1358.309)" fill="#12263f"/><path d="M1366.675,1435.257c.195,11.326,17.14,11.324,17.333,0-.194-11.326-17.14-11.324-17.333,0" transform="translate(-537.963 1358.309)" fill="#12263f"/><path d="M1378.424,1314.7c1.533,3.659,2.525,5.792,2.525,5.792-13.006,12.59-31.135,11.444-31.135,11.444s-1.6-1.537-4.092-4.5c.413-.051,23.75-2.971,32.7-12.736" transform="translate(-526.032 1422.115)" fill="#c19480"/><path d="M2207.49,1021.787c2.993,45.292,8.62,90.485,14.816,135.446,1.443,10.649,14.141,12.682,15.318,1.061,1.057-11.548.731-22.381,1.65-33.986,2.116-33.843,5.123-67.74,8.872-101.446,2.577-29.242-41.678-30.473-40.656-1.075" transform="translate(-1016.692 1601.111)" fill="#f99370"/><path d="M2282.436,1025.945l37.07,134.305c1.194,4.489,4.165,6.107,8.642,4.91,4-1.069,6.575-1.336,6.228-5.329l-11.88-140.923c-3.347-29.044-46.744-21.457-40.059,7.038" transform="translate(-1058.977 1601.01)" fill="#f99370"/><path d="M2241.92,1364.7s4.041,6.526,15.582.051Z" transform="translate(-1036.306 1393.647)" fill="#f99370"/><path d="M2210.332,1364.7c-17.271.829-22.3,6.722-23.717,10.673l-.022.062a2.676,2.676,0,0,0,2.533,3.54l37.582.122a9.482,9.482,0,0,0,1.143-3.59c.639-5.114-1.936-10.756-1.936-10.756s-7.784,3.412-15.582-.051" transform="translate(-1004.717 1393.647)" fill="#12263f"/><path d="M2186.615,1389.481l41.235.134a9.48,9.48,0,0,1-1.142,3.59l-37.582-.122a2.676,2.676,0,0,1-2.533-3.541Z" transform="translate(-1004.718 1379.536)" fill="#06111f"/><path d="M2361.139,1374.395v3.374h21.822v-3.374a10.911,10.911,0,1,0-21.822,0" transform="translate(-1104.186 1394.356)" fill="#12263f"/><rect width="21.822" height="3.374" transform="translate(1256.953 2768.751)" fill="#06111f"/><path d="M2214.709,609.2s-36.432,7.834-50.323,58.2l35.2,8.013Z" transform="translate(-992.16 1823.808)" fill="#f27e7e"/><path d="M2288.42,673.916h-66.445a317.18,317.18,0,0,1,8.861-78.35c3.683-14.891,5.8-26.8,19.99-34.754-1.011-8.818.368-21.535,1.6-26.773a7.693,7.693,0,0,1,4.946-5.679c5.821-2.021,12.711,2.938,10.92,9.5-.528-.332-2.217,18.374-1.051,23.567,28.84,9.2,14.139,41.969,16.11,63.953a246.5,246.5,0,0,0,5.07,48.537" transform="translate(-1024.935 1870.097)" fill="#f99370"/><path d="M2306.215,536.828c-.04.285-.091.573-.157.851-.38-.252-1.446,10.069-1.455,17.56-7.039,3.2-14.887,1.793-16.324,1.5.427-10.285-.794-25.765,6.859-28.556,5.494-2.349,12.044,2.658,11.077,8.647" transform="translate(-1062.701 1870.275)" fill="#e57d61"/><path d="M2289.239,968.628c-62.882,17.3-109.222,1.669-109.222,1.669,0-38.386,9.153-163,11.446-174.883a253.9,253.9,0,0,0,53.8-.06c7.8-.891,18.759-10.695,23.247-4.221,17.323,24.986,20.729,177.5,20.729,177.5" transform="translate(-1001.06 1721.472)" fill="#f27e7e"/><path d="M2282.931,686.318s-32.6,28.891-76.334,6.76c.059-.078,2.827-66.783,32.146-83.877,0,0,3.67,12.761,23.618,0,24.609,8.079,11.473,46.241,20.57,77.117" transform="translate(-1016.193 1823.808)" fill="#f27e7e"/><path d="M2228.532,664.605a.911.911,0,0,1-.854-1.227,99.6,99.6,0,0,1,5.5-11.551.911.911,0,0,1,1.59.889,99.807,99.807,0,0,0-5.382,11.294.911.911,0,0,1-.854.595" transform="translate(-1028.165 1799.804)" fill="#f46464"/><path d="M2204.944,795.042s39.271,15.935,76.336-6.759l4.039,10s-30.269,25.8-81.622,8.63Z" transform="translate(-1014.542 1721.843)" fill="#f46464"/><path d="M2311.384,618.6c18.085,13.376,35.3,38.277,37.084,60.376,1.871,41.925-37.156,45.269-66.892,29.113-6.269-3.186-1.057-12.819,5.669-11.036,4.9,1.259,8.364,2.36,13.194,2.495,42.875,1.2,17.075-33.342.45-48.881,0,0-1.6-40.549,10.494-32.067" transform="translate(-1057.281 1819.121)" fill="#f99370"/><path d="M2365.8,707.2a45.992,45.992,0,0,1-15.512,5.389s-.075-13.7-9.442-18.187c0,0,7.937-14.785-3.25-28.358-6.975-8.465-14.98-14.818-16.377-26.5-.844-7.047,6.893-27.968,9.606-27.259,7.3,1.911,23.6,7.65,36.55,27.834,14.98,23.353,20.8,53.9-1.575,67.076" transform="translate(-1081.417 1822.06)" fill="#f27e7e"/><path d="M2193.57,751.24l-48.077-3.695-14.778-82.3,48.077,3.694Z" transform="translate(-972.988 1791.896)" fill="#f7e9e1"/><path d="M2151.14,784.1c-2.108.411-6.3-1.923-3.095-3.811,1.218-.655,2.358-.072,3.346.326l-.1.005c3.251-.148,2.722,3.327-.151,3.48" transform="translate(-982.192 1726.563)" fill="#f99370"/><path d="M2148.989,776.106c-1.437-.165-3.041-.7-3.724-2.076-.917-2.215,3.649-3.471,4.456-1.513-.011-.043-.052-.045.041,0a1.563,1.563,0,0,0,.386.112s.061.007-.017,0c3.279.466,1.418,3.83-1.142,3.474" transform="translate(-981.204 1731.373)" fill="#f99370"/><path d="M2146.859,769.058l-1.991-.738c-2.861-1.338.505-4.124,2.508-3.173l1.991.738c2.86,1.338-.506,4.124-2.509,3.174" transform="translate(-980.417 1735.127)" fill="#f99370"/><path d="M2145.373,761.982l-1.991-.738c-2.861-1.338.506-4.124,2.508-3.173l1.991.738c2.861,1.338-.506,4.124-2.508,3.174" transform="translate(-979.571 1739.155)" fill="#f99370"/><path d="M2265.114,797.46a2.441,2.441,0,0,0-.393-1.276c2.221-2.774-.454-4.674-2.7-6.071a34.988,34.988,0,0,0-14.048-5.387,29.849,29.849,0,0,0-6-.235,1.606,1.606,0,0,0-.005,3.2,26.114,26.114,0,0,1,6.246,1.143,56.792,56.792,0,0,0-7.759-.31,1.607,1.607,0,0,0-.222,3.187,56.864,56.864,0,0,1,10.621,2.641,99.5,99.5,0,0,1-10.091-1.749,1.6,1.6,0,0,0-.8,3.1,104.267,104.267,0,0,0,11.086,2.756c-1.9-.113-3.848-.32-5.732-.559a1.607,1.607,0,0,0-.6,3.142c.693.184,1.386.376,2.083.555a66.847,66.847,0,0,0,15.066,2.223,2.863,2.863,0,0,0,2.541-4.588,2.448,2.448,0,0,0,.7-1.771" transform="translate(-1034.563 1724.034)" fill="#f99370"/><path d="M2297.773,803.27a15.729,15.729,0,0,1-3.914,12.411s.435,1.346,2.847,1.292a21.79,21.79,0,0,0,3.806-13,2.466,2.466,0,0,0-2.739-.708" transform="translate(-1065.878 1713.407)" fill="#ffd357"/><path d="M2343.434,437.747c-5.077,6.594-13.823,8.374-19.533,3.976s-6.225-13.308-1.148-19.9,13.823-8.374,19.534-3.976,6.225,13.308,1.147,19.9" transform="translate(-1080.34 1934.135)" fill="#12263f"/><path d="M2325.317,505.4s14.706-5.792,16.1-26.828c1.467-22.075-20.137-26.511-28.841-20.236Z" transform="translate(-1076.538 1911.188)" fill="#12263f"/><path d="M2284.306,456.408c-21.286-5.993-35.443,24.938-25.23,41.054Z" transform="translate(-1044.144 1911.237)" fill="#12263f"/><path d="M2295,495.482c-1.182,7.334-3.658,15.6-9.451,20.452h-.01a18.305,18.305,0,0,1-8.213,3.777c-17.113,4.786-37.184-15.108-23.81-29.6,4.861-4.491,5.891-12.446,9.765-16.913,5.633-8.175,18-7.751,24.671-1.084,6.033,6.028,8.095,14.336,7.049,23.367" transform="translate(-1040.421 1904.724)" fill="#f99370"/><path d="M2290.44,520.4a1.111,1.111,0,0,1,1.979-1.005,1.111,1.111,0,0,1-1.979,1.005" transform="translate(-1063.855 1875.281)" fill="#c16256"/><path d="M2268.767,516.757a1.111,1.111,0,0,1,1.979-1.006,1.111,1.111,0,0,1-1.979,1.006" transform="translate(-1051.515 1877.356)" fill="#c16256"/><path d="M2272.4,529.423c-2.032-.024-5.193-1.394-2.623-3.2,2.1-1.135,3.639-5.484,3.654-5.527,2.168-1.637-.918,5.134-3.253,6.266-1.645,1.008,1.781,1.984,3.2,1.486a.419.419,0,0,1,.528.272c.12.754-.978.648-1.5.7" transform="translate(-1051.618 1874.346)" fill="#c16256"/><path d="M2317.149,495.435c-1.182,7.334-3.658,15.6-9.451,20.452h-.01c3.211-3.985,5.213-12.9,5.213-12.9l-1.517-3.966c-25.465-8.219-23.282-28.671-23.282-28.671,3.8-3.32,8.927-3.991,13.807-2.778,11.955,3.091,16.743,16,15.239,27.867" transform="translate(-1062.574 1904.771)" fill="#e57d61"/><path d="M2294.386,464.305s-2.049,20.167,20.74,28.446l8.179-4.515c7.977-15.649-6.465-38.633-28.919-23.931" transform="translate(-1066.151 1908.991)" fill="#12263f"/><path d="M2352.611,531.785c-1.8,8.335-11.982,6.183-10.258-2.169,1.8-8.335,11.982-6.183,10.258,2.169" transform="translate(-1093.378 1872.126)" fill="#f99370"/><path d="M2354.557,536.615a.422.422,0,0,1-.4-.543c1.589-4.434-.377-6.3-3.367-5.066a.42.42,0,0,1-.306-.783c3.5-1.43,6.373.786,4.476,6.095a.42.42,0,0,1-.4.3" transform="translate(-1097.97 1869.018)" fill="#c16256"/><path d="M2350.713,538.519c-1.305-.1,1.182-4.13,4.369-4.346a.425.425,0,0,1,.447.392.42.42,0,0,1-.392.447c-3.259.337-3.653,3.4-4.424,3.507" transform="translate(-1098.048 1866.527)" fill="#c16256"/><path d="M2353.274,549.344a.944.944,0,0,1-1.887,0,.944.944,0,0,1,1.887,0" transform="translate(-1098.634 1858.412)" fill="#f4d4be"/><path d="M2295.957,510.9a.369.369,0,0,1-.316-.178c-2.408-3.968-5.815-4.254-5.849-4.257a.369.369,0,0,1,.049-.737c.154.01,3.814.3,6.431,4.611a.369.369,0,0,1-.125.507.364.364,0,0,1-.191.054" transform="translate(-1063.367 1882.725)" fill="#c16256"/><path d="M2269.355,506.669a.369.369,0,0,1-.2-.683,8.083,8.083,0,0,1,5.512-.99.37.37,0,0,1-.162.721,7.43,7.43,0,0,0-4.959.9.367.367,0,0,1-.195.056" transform="translate(-1051.716 1883.227)" fill="#c16256"/><path d="M2277.553,545.288c-.283,0-.463-.016-.495-.019a.547.547,0,0,1-.489-.6.552.552,0,0,1,.6-.489c.052,0,3.205.274,4.873-2.03a.546.546,0,0,1,.886.64,6.6,6.6,0,0,1-5.373,2.5" transform="translate(-1056.033 1862.113)" fill="#c16256"/><path d="M2351.391,731.3a.911.911,0,0,1-.739-1.442c13.889-19.372-10.169-50.19-10.413-50.5a.911.911,0,1,1,1.428-1.131,90.674,90.674,0,0,1,10.762,18.448c5.909,13.889,5.807,25.73-.3,34.242a.91.91,0,0,1-.741.38" transform="translate(-1092.174 1784.7)" fill="#f46464"/><g transform="translate(580.797 2356.913)"><rect width="226" height="34" rx="17" fill="#1cf290"/><path d="M11.395,17V5.625h3.984a5.232,5.232,0,0,1,3.141.793,2.712,2.712,0,0,1,1.07,2.324,2.57,2.57,0,0,1-.43,1.473,2.482,2.482,0,0,1-1.2.934,2.4,2.4,0,0,1,1.379.883,2.61,2.61,0,0,1,.5,1.625A3,3,0,0,1,18.8,16.141,4.713,4.713,0,0,1,15.816,17Zm2.344-4.953v3.07h2.008a1.938,1.938,0,0,0,1.293-.395,1.353,1.353,0,0,0,.465-1.09,1.428,1.428,0,0,0-1.617-1.586Zm0-1.656h1.734q1.773-.031,1.773-1.414A1.307,1.307,0,0,0,16.8,7.863a2.363,2.363,0,0,0-1.418-.34H13.738ZM26.355,17a2.507,2.507,0,0,1-.227-.758A2.732,2.732,0,0,1,24,17.156a3,3,0,0,1-2.059-.719,2.312,2.312,0,0,1-.816-1.812,2.389,2.389,0,0,1,1-2.062A4.915,4.915,0,0,1,25,11.836h1.039v-.484a1.393,1.393,0,0,0-.3-.937,1.183,1.183,0,0,0-.949-.352,1.345,1.345,0,0,0-.895.273.929.929,0,0,0-.324.75H21.309a2.268,2.268,0,0,1,.453-1.359,3,3,0,0,1,1.281-.98A4.669,4.669,0,0,1,24.9,8.391a3.689,3.689,0,0,1,2.48.785,2.747,2.747,0,0,1,.918,2.207v3.664a4.041,4.041,0,0,0,.336,1.82V17Zm-1.867-1.57a1.945,1.945,0,0,0,.922-.223,1.462,1.462,0,0,0,.625-.6V13.156h-.844q-1.7,0-1.8,1.172l-.008.133a.9.9,0,0,0,.3.7A1.153,1.153,0,0,0,24.488,15.43Zm10.3-4.766a6.134,6.134,0,0,0-.812-.062,1.654,1.654,0,0,0-1.68.867V17H30.035V8.547h2.133l.063,1.008a2.092,2.092,0,0,1,1.883-1.164,2.366,2.366,0,0,1,.7.1Zm5.836,0a6.134,6.134,0,0,0-.812-.062,1.654,1.654,0,0,0-1.68.867V17H35.871V8.547H38l.063,1.008a2.092,2.092,0,0,1,1.883-1.164,2.366,2.366,0,0,1,.7.1ZM45.6,17.156a4.15,4.15,0,0,1-3.027-1.141A4.054,4.054,0,0,1,41.4,12.977v-.219a5.106,5.106,0,0,1,.492-2.277,3.612,3.612,0,0,1,1.395-1.547,3.914,3.914,0,0,1,2.059-.543,3.508,3.508,0,0,1,2.73,1.094,4.444,4.444,0,0,1,1,3.1v.922H43.691a2.1,2.1,0,0,0,.66,1.328,2,2,0,0,0,1.395.5,2.437,2.437,0,0,0,2.039-.945l1.109,1.242a3.389,3.389,0,0,1-1.375,1.121A4.511,4.511,0,0,1,45.6,17.156Zm-.258-6.945a1.411,1.411,0,0,0-1.09.455,2.357,2.357,0,0,0-.535,1.3h3.141v-.181a1.681,1.681,0,0,0-.406-1.165A1.456,1.456,0,0,0,45.34,10.211Zm9.766.453a6.134,6.134,0,0,0-.812-.062,1.654,1.654,0,0,0-1.68.867V17H50.355V8.547h2.133l.063,1.008a2.092,2.092,0,0,1,1.883-1.164,2.366,2.366,0,0,1,.7.1ZM60.855,17a2.507,2.507,0,0,1-.227-.758,2.732,2.732,0,0,1-2.133.914,3,3,0,0,1-2.059-.719,2.312,2.312,0,0,1-.816-1.812,2.389,2.389,0,0,1,1-2.062,4.915,4.915,0,0,1,2.879-.727h1.039v-.484a1.393,1.393,0,0,0-.3-.937,1.183,1.183,0,0,0-.949-.352,1.345,1.345,0,0,0-.895.273.929.929,0,0,0-.324.75H55.809a2.268,2.268,0,0,1,.453-1.359,3,3,0,0,1,1.281-.98A4.669,4.669,0,0,1,59.4,8.391a3.689,3.689,0,0,1,2.48.785,2.747,2.747,0,0,1,.918,2.207v3.664a4.041,4.041,0,0,0,.336,1.82V17Zm-1.867-1.57a1.945,1.945,0,0,0,.922-.223,1.462,1.462,0,0,0,.625-.6V13.156h-.844q-1.7,0-1.8,1.172l-.008.133a.9.9,0,0,0,.3.7A1.153,1.153,0,0,0,58.988,15.43Zm10.125-.766a.727.727,0,0,0-.41-.652,4.659,4.659,0,0,0-1.316-.426q-3.016-.633-3.016-2.562A2.323,2.323,0,0,1,65.3,9.145a3.766,3.766,0,0,1,2.441-.754,4.053,4.053,0,0,1,2.574.758,2.388,2.388,0,0,1,.965,1.969H69.027a1.092,1.092,0,0,0-.312-.8A1.322,1.322,0,0,0,67.738,10a1.351,1.351,0,0,0-.883.258.814.814,0,0,0-.312.656.7.7,0,0,0,.355.605,3.657,3.657,0,0,0,1.2.4,9.8,9.8,0,0,1,1.422.379,2.336,2.336,0,0,1,1.789,2.273,2.2,2.2,0,0,1-.992,1.871,4.28,4.28,0,0,1-2.562.715,4.47,4.47,0,0,1-1.887-.379,3.166,3.166,0,0,1-1.293-1.039,2.414,2.414,0,0,1-.469-1.426h2.141a1.179,1.179,0,0,0,.445.922,1.766,1.766,0,0,0,1.109.32,1.635,1.635,0,0,0,.98-.246A.766.766,0,0,0,69.113,14.664Zm11.148.672a1.481,1.481,0,0,0,1.016-.344,1.2,1.2,0,0,0,.406-.914H83.8a2.9,2.9,0,0,1-.469,1.574,3.093,3.093,0,0,1-1.262,1.109,3.949,3.949,0,0,1-1.77.395A3.67,3.67,0,0,1,77.441,16a4.56,4.56,0,0,1-1.047-3.184v-.148a4.508,4.508,0,0,1,1.039-3.117,3.627,3.627,0,0,1,2.852-1.164,3.555,3.555,0,0,1,2.543.9,3.2,3.2,0,0,1,.973,2.4H81.684a1.551,1.551,0,0,0-.406-1.072,1.51,1.51,0,0,0-2.223.163,3.333,3.333,0,0,0-.4,1.866v.235a3.375,3.375,0,0,0,.4,1.878A1.377,1.377,0,0,0,80.262,15.336ZM84.738,12.7a5.013,5.013,0,0,1,.484-2.242A3.546,3.546,0,0,1,86.617,8.93a4.069,4.069,0,0,1,2.113-.539,3.849,3.849,0,0,1,2.793,1.047,4.2,4.2,0,0,1,1.207,2.844l.016.578A4.418,4.418,0,0,1,91.66,15.98a4.209,4.209,0,0,1-5.832,0,4.5,4.5,0,0,1-1.09-3.187Zm2.258.16a3.16,3.16,0,0,0,.453,1.843,1.628,1.628,0,0,0,2.578.008,3.457,3.457,0,0,0,.461-2.015,3.128,3.128,0,0,0-.461-1.831,1.5,1.5,0,0,0-1.3-.649,1.474,1.474,0,0,0-1.281.646A3.516,3.516,0,0,0,87,12.856Zm9.258-4.309.07.945a2.971,2.971,0,0,1,2.43-1.1A2.255,2.255,0,0,1,101,9.68a2.9,2.9,0,0,1,2.539-1.289,2.521,2.521,0,0,1,2.047.8,3.681,3.681,0,0,1,.672,2.41V17h-2.266V11.609a1.61,1.61,0,0,0-.281-1.051,1.246,1.246,0,0,0-.992-.332,1.409,1.409,0,0,0-1.406.969l.008,5.8H99.059V11.617a1.59,1.59,0,0,0-.289-1.062,1.259,1.259,0,0,0-.984-.328,1.463,1.463,0,0,0-1.391.8V17H94.137V8.547Zm16.8,7.594a2.831,2.831,0,0,1-2.312,1.016,2.67,2.67,0,0,1-2.074-.781,3.335,3.335,0,0,1-.73-2.289V8.547h2.258v5.467q0,1.322,1.2,1.322a1.63,1.63,0,0,0,1.578-.8V8.547h2.266V17h-2.125Zm5.969-7.594.07.977a2.951,2.951,0,0,1,2.43-1.133,2.453,2.453,0,0,1,2,.789,3.682,3.682,0,0,1,.672,2.359V17h-2.258V11.594a1.465,1.465,0,0,0-.312-1.043,1.4,1.4,0,0,0-1.039-.324,1.553,1.553,0,0,0-1.43.813V17h-2.258V8.547ZM128.285,17H126.02V8.547h2.266Zm-2.4-10.641a1.112,1.112,0,0,1,.34-.836,1.465,1.465,0,0,1,1.848,0,1.105,1.105,0,0,1,.344.836,1.109,1.109,0,0,1-.348.844,1.448,1.448,0,0,1-1.836,0A1.108,1.108,0,0,1,125.887,6.359Zm7.773,8.977a1.481,1.481,0,0,0,1.016-.344,1.2,1.2,0,0,0,.406-.914H137.2a2.9,2.9,0,0,1-.469,1.574,3.093,3.093,0,0,1-1.262,1.109,3.949,3.949,0,0,1-1.77.395A3.67,3.67,0,0,1,130.84,16a4.56,4.56,0,0,1-1.047-3.184v-.148a4.508,4.508,0,0,1,1.039-3.117,3.627,3.627,0,0,1,2.852-1.164,3.555,3.555,0,0,1,2.543.9,3.2,3.2,0,0,1,.973,2.4h-2.117a1.551,1.551,0,0,0-.406-1.072,1.51,1.51,0,0,0-2.223.163,3.333,3.333,0,0,0-.4,1.866v.235a3.375,3.375,0,0,0,.4,1.878A1.377,1.377,0,0,0,133.66,15.336ZM143.387,17a2.507,2.507,0,0,1-.227-.758,2.732,2.732,0,0,1-2.133.914,3,3,0,0,1-2.059-.719,2.312,2.312,0,0,1-.816-1.812,2.389,2.389,0,0,1,1-2.062,4.915,4.915,0,0,1,2.879-.727h1.039v-.484a1.393,1.393,0,0,0-.3-.937,1.183,1.183,0,0,0-.949-.352,1.345,1.345,0,0,0-.895.273.929.929,0,0,0-.324.75H138.34a2.268,2.268,0,0,1,.453-1.359,3,3,0,0,1,1.281-.98,4.669,4.669,0,0,1,1.859-.355,3.689,3.689,0,0,1,2.48.785,2.747,2.747,0,0,1,.918,2.207v3.664a4.041,4.041,0,0,0,.336,1.82V17Zm-1.867-1.57a1.945,1.945,0,0,0,.922-.223,1.462,1.462,0,0,0,.625-.6V13.156h-.844q-1.7,0-1.8,1.172l-.008.133a.9.9,0,0,0,.3.7A1.153,1.153,0,0,0,141.52,15.43Zm8.25-8.961V8.547h1.445V10.2H149.77v4.219a1.007,1.007,0,0,0,.18.672.9.9,0,0,0,.688.2,3.6,3.6,0,0,0,.664-.055v1.711a4.648,4.648,0,0,1-1.367.2,2.156,2.156,0,0,1-2.422-2.4V10.2h-1.234V8.547h1.234V6.469ZM154.855,17H152.59V8.547h2.266Zm-2.4-10.641a1.112,1.112,0,0,1,.34-.836,1.465,1.465,0,0,1,1.848,0,1.105,1.105,0,0,1,.344.836,1.109,1.109,0,0,1-.348.844,1.448,1.448,0,0,1-1.836,0A1.109,1.109,0,0,1,152.457,6.359Zm7.422,7.883,1.57-5.7h2.359L160.957,17H158.8l-2.852-8.453h2.359Zm9.7,2.758a2.507,2.507,0,0,1-.227-.758,2.732,2.732,0,0,1-2.133.914,3,3,0,0,1-2.059-.719,2.312,2.312,0,0,1-.816-1.812,2.389,2.389,0,0,1,1-2.062,4.915,4.915,0,0,1,2.879-.727h1.039v-.484a1.393,1.393,0,0,0-.3-.937,1.183,1.183,0,0,0-.949-.352,1.345,1.345,0,0,0-.895.273.929.929,0,0,0-.324.75h-2.258a2.268,2.268,0,0,1,.453-1.359,3,3,0,0,1,1.281-.98,4.669,4.669,0,0,1,1.859-.355,3.689,3.689,0,0,1,2.48.785,2.747,2.747,0,0,1,.918,2.207v3.664a4.041,4.041,0,0,0,.336,1.82V17Zm-1.867-1.57a1.945,1.945,0,0,0,.922-.223,1.462,1.462,0,0,0,.625-.6V13.156h-.844q-1.7,0-1.8,1.172l-.008.133a.9.9,0,0,0,.3.7A1.153,1.153,0,0,0,167.715,15.43Zm10.125-.766a.727.727,0,0,0-.41-.652,4.659,4.659,0,0,0-1.316-.426q-3.016-.633-3.016-2.562a2.323,2.323,0,0,1,.934-1.879,3.766,3.766,0,0,1,2.441-.754,4.053,4.053,0,0,1,2.574.758,2.388,2.388,0,0,1,.965,1.969h-2.258a1.092,1.092,0,0,0-.312-.8,1.322,1.322,0,0,0-.977-.316,1.351,1.351,0,0,0-.883.258.814.814,0,0,0-.312.656.7.7,0,0,0,.355.605,3.657,3.657,0,0,0,1.2.4,9.8,9.8,0,0,1,1.422.379,2.336,2.336,0,0,1,1.789,2.273,2.205,2.205,0,0,1-.992,1.871,4.28,4.28,0,0,1-2.562.715,4.47,4.47,0,0,1-1.887-.379,3.166,3.166,0,0,1-1.293-1.039,2.414,2.414,0,0,1-.469-1.426h2.141a1.179,1.179,0,0,0,.445.922,1.766,1.766,0,0,0,1.109.32,1.635,1.635,0,0,0,.98-.246A.766.766,0,0,0,177.84,14.664Z" transform="translate(17.5 7)" fill="#12263f"/></g><g transform="translate(1122.061 2308.075)"><rect width="219" height="34" rx="17" fill="#1cf290"/><path d="M8.844,17V5.625h3.984a5.232,5.232,0,0,1,3.141.793,2.712,2.712,0,0,1,1.07,2.324,2.57,2.57,0,0,1-.43,1.473,2.482,2.482,0,0,1-1.2.934,2.4,2.4,0,0,1,1.379.883,2.61,2.61,0,0,1,.5,1.625,3,3,0,0,1-1.047,2.484A4.713,4.713,0,0,1,13.266,17Zm2.344-4.953v3.07H13.2a1.938,1.938,0,0,0,1.293-.395,1.353,1.353,0,0,0,.465-1.09,1.428,1.428,0,0,0-1.617-1.586Zm0-1.656h1.734Q14.7,10.359,14.7,8.977a1.307,1.307,0,0,0-.449-1.113,2.363,2.363,0,0,0-1.418-.34H11.188ZM23.8,17a2.507,2.507,0,0,1-.227-.758,2.732,2.732,0,0,1-2.133.914,3,3,0,0,1-2.059-.719,2.312,2.312,0,0,1-.816-1.812,2.389,2.389,0,0,1,1-2.062,4.915,4.915,0,0,1,2.879-.727h1.039v-.484a1.393,1.393,0,0,0-.3-.937,1.183,1.183,0,0,0-.949-.352,1.345,1.345,0,0,0-.895.273.929.929,0,0,0-.324.75H18.758a2.268,2.268,0,0,1,.453-1.359,3,3,0,0,1,1.281-.98,4.669,4.669,0,0,1,1.859-.355,3.689,3.689,0,0,1,2.48.785,2.747,2.747,0,0,1,.918,2.207v3.664a4.041,4.041,0,0,0,.336,1.82V17Zm-1.867-1.57a1.945,1.945,0,0,0,.922-.223,1.462,1.462,0,0,0,.625-.6V13.156h-.844q-1.7,0-1.8,1.172l-.008.133a.9.9,0,0,0,.3.7A1.153,1.153,0,0,0,21.938,15.43Zm10.3-4.766a6.134,6.134,0,0,0-.812-.062,1.654,1.654,0,0,0-1.68.867V17H27.484V8.547h2.133l.063,1.008a2.092,2.092,0,0,1,1.883-1.164,2.366,2.366,0,0,1,.7.1Zm5.836,0a6.134,6.134,0,0,0-.812-.062,1.654,1.654,0,0,0-1.68.867V17H33.32V8.547h2.133l.063,1.008A2.092,2.092,0,0,1,37.4,8.391a2.366,2.366,0,0,1,.7.1Zm4.977,6.492a4.15,4.15,0,0,1-3.027-1.141,4.054,4.054,0,0,1-1.168-3.039v-.219a5.106,5.106,0,0,1,.492-2.277,3.612,3.612,0,0,1,1.395-1.547A3.914,3.914,0,0,1,42.8,8.391a3.508,3.508,0,0,1,2.73,1.094,4.444,4.444,0,0,1,1,3.1v.922H41.141a2.1,2.1,0,0,0,.66,1.328,2,2,0,0,0,1.395.5,2.437,2.437,0,0,0,2.039-.945l1.109,1.242a3.389,3.389,0,0,1-1.375,1.121A4.511,4.511,0,0,1,43.047,17.156Zm-.258-6.945a1.411,1.411,0,0,0-1.09.455,2.357,2.357,0,0,0-.535,1.3H44.3v-.181a1.681,1.681,0,0,0-.406-1.165A1.456,1.456,0,0,0,42.789,10.211Zm9.766.453a6.134,6.134,0,0,0-.812-.062,1.654,1.654,0,0,0-1.68.867V17H47.8V8.547h2.133L50,9.555a2.092,2.092,0,0,1,1.883-1.164,2.366,2.366,0,0,1,.7.1ZM58.3,17a2.507,2.507,0,0,1-.227-.758,2.732,2.732,0,0,1-2.133.914,3,3,0,0,1-2.059-.719,2.312,2.312,0,0,1-.816-1.812,2.389,2.389,0,0,1,1-2.062,4.915,4.915,0,0,1,2.879-.727h1.039v-.484a1.393,1.393,0,0,0-.3-.937,1.183,1.183,0,0,0-.949-.352,1.345,1.345,0,0,0-.895.273.929.929,0,0,0-.324.75H53.258a2.268,2.268,0,0,1,.453-1.359,3,3,0,0,1,1.281-.98,4.669,4.669,0,0,1,1.859-.355,3.689,3.689,0,0,1,2.48.785,2.747,2.747,0,0,1,.918,2.207v3.664a4.041,4.041,0,0,0,.336,1.82V17Zm-1.867-1.57a1.945,1.945,0,0,0,.922-.223,1.462,1.462,0,0,0,.625-.6V13.156h-.844q-1.7,0-1.8,1.172l-.008.133a.9.9,0,0,0,.3.7A1.153,1.153,0,0,0,56.438,15.43Zm10.125-.766a.727.727,0,0,0-.41-.652,4.659,4.659,0,0,0-1.316-.426q-3.016-.633-3.016-2.562a2.323,2.323,0,0,1,.934-1.879A3.766,3.766,0,0,1,65.2,8.391a4.053,4.053,0,0,1,2.574.758,2.388,2.388,0,0,1,.965,1.969H66.477a1.092,1.092,0,0,0-.312-.8A1.322,1.322,0,0,0,65.188,10a1.351,1.351,0,0,0-.883.258.814.814,0,0,0-.312.656.7.7,0,0,0,.355.605,3.657,3.657,0,0,0,1.2.4,9.8,9.8,0,0,1,1.422.379,2.336,2.336,0,0,1,1.789,2.273,2.2,2.2,0,0,1-.992,1.871,4.28,4.28,0,0,1-2.562.715,4.47,4.47,0,0,1-1.887-.379,3.166,3.166,0,0,1-1.293-1.039,2.414,2.414,0,0,1-.469-1.426H63.7a1.179,1.179,0,0,0,.445.922,1.766,1.766,0,0,0,1.109.32,1.635,1.635,0,0,0,.98-.246A.766.766,0,0,0,66.563,14.664ZM79.094,17a2.507,2.507,0,0,1-.227-.758,2.732,2.732,0,0,1-2.133.914,3,3,0,0,1-2.059-.719,2.312,2.312,0,0,1-.816-1.812,2.389,2.389,0,0,1,1-2.062,4.915,4.915,0,0,1,2.879-.727h1.039v-.484a1.393,1.393,0,0,0-.3-.937,1.183,1.183,0,0,0-.949-.352,1.345,1.345,0,0,0-.895.273.929.929,0,0,0-.324.75H74.047A2.268,2.268,0,0,1,74.5,9.727a3,3,0,0,1,1.281-.98,4.669,4.669,0,0,1,1.859-.355,3.689,3.689,0,0,1,2.48.785,2.747,2.747,0,0,1,.918,2.207v3.664a4.041,4.041,0,0,0,.336,1.82V17Zm-1.867-1.57a1.945,1.945,0,0,0,.922-.223,1.462,1.462,0,0,0,.625-.6V13.156H77.93q-1.7,0-1.8,1.172l-.008.133a.9.9,0,0,0,.3.7A1.153,1.153,0,0,0,77.227,15.43Zm9.063-.094a1.481,1.481,0,0,0,1.016-.344,1.2,1.2,0,0,0,.406-.914h2.117a2.9,2.9,0,0,1-.469,1.574A3.093,3.093,0,0,1,88.1,16.762a3.949,3.949,0,0,1-1.77.395A3.67,3.67,0,0,1,83.469,16a4.56,4.56,0,0,1-1.047-3.184v-.148a4.508,4.508,0,0,1,1.039-3.117,3.627,3.627,0,0,1,2.852-1.164,3.555,3.555,0,0,1,2.543.9,3.2,3.2,0,0,1,.973,2.4H87.711a1.551,1.551,0,0,0-.406-1.072,1.51,1.51,0,0,0-2.223.163,3.333,3.333,0,0,0-.4,1.866v.235a3.375,3.375,0,0,0,.4,1.878A1.377,1.377,0,0,0,86.289,15.336ZM93.82,6.469V8.547h1.445V10.2H93.82v4.219a1.007,1.007,0,0,0,.18.672.9.9,0,0,0,.688.2,3.6,3.6,0,0,0,.664-.055v1.711a4.648,4.648,0,0,1-1.367.2,2.156,2.156,0,0,1-2.422-2.4V10.2H90.328V8.547h1.234V6.469ZM98.906,17H96.641V8.547h2.266Zm-2.4-10.641a1.112,1.112,0,0,1,.34-.836,1.465,1.465,0,0,1,1.848,0,1.105,1.105,0,0,1,.344.836,1.108,1.108,0,0,1-.348.844,1.448,1.448,0,0,1-1.836,0A1.108,1.108,0,0,1,96.508,6.359Zm6.961.109V8.547h1.445V10.2h-1.445v4.219a1.007,1.007,0,0,0,.18.672.9.9,0,0,0,.688.2,3.6,3.6,0,0,0,.664-.055v1.711a4.648,4.648,0,0,1-1.367.2,2.156,2.156,0,0,1-2.422-2.4V10.2H99.977V8.547h1.234V6.469Zm7.766,9.672a2.831,2.831,0,0,1-2.312,1.016,2.67,2.67,0,0,1-2.074-.781,3.335,3.335,0,0,1-.73-2.289V8.547h2.258v5.467q0,1.322,1.2,1.322a1.63,1.63,0,0,0,1.578-.8V8.547h2.266V17H111.3Zm3.539-3.43a5.094,5.094,0,0,1,.887-3.148,2.877,2.877,0,0,1,2.426-1.172,2.589,2.589,0,0,1,2.039.922V5h2.266V17h-2.039l-.109-.9a2.657,2.657,0,0,1-2.172,1.055,2.869,2.869,0,0,1-2.395-1.176A5.258,5.258,0,0,1,114.773,12.711Zm2.258.168a3.337,3.337,0,0,0,.414,1.823,1.349,1.349,0,0,0,1.2.634,1.511,1.511,0,0,0,1.477-.884V11.111a1.489,1.489,0,0,0-1.461-.884Q117.031,10.227,117.031,12.879ZM126.523,17h-2.266V8.547h2.266Zm-2.4-10.641a1.112,1.112,0,0,1,.34-.836,1.465,1.465,0,0,1,1.848,0,1.105,1.105,0,0,1,.344.836,1.108,1.108,0,0,1-.348.844,1.448,1.448,0,0,1-1.836,0A1.108,1.108,0,0,1,124.125,6.359Zm6.336,2.188.07.977a2.951,2.951,0,0,1,2.43-1.133,2.453,2.453,0,0,1,2,.789,3.682,3.682,0,0,1,.672,2.359V17h-2.258V11.594a1.465,1.465,0,0,0-.312-1.043,1.4,1.4,0,0,0-1.039-.324,1.553,1.553,0,0,0-1.43.813V17h-2.258V8.547ZM142.242,17a2.507,2.507,0,0,1-.227-.758,2.732,2.732,0,0,1-2.133.914,3,3,0,0,1-2.059-.719,2.312,2.312,0,0,1-.816-1.812,2.389,2.389,0,0,1,1-2.062,4.915,4.915,0,0,1,2.879-.727h1.039v-.484a1.393,1.393,0,0,0-.3-.937,1.183,1.183,0,0,0-.949-.352,1.345,1.345,0,0,0-.895.273.929.929,0,0,0-.324.75H137.2a2.268,2.268,0,0,1,.453-1.359,3,3,0,0,1,1.281-.98,4.669,4.669,0,0,1,1.859-.355,3.689,3.689,0,0,1,2.48.785,2.747,2.747,0,0,1,.918,2.207v3.664a4.041,4.041,0,0,0,.336,1.82V17Zm-1.867-1.57a1.945,1.945,0,0,0,.922-.223,1.462,1.462,0,0,0,.625-.6V13.156h-.844q-1.7,0-1.8,1.172l-.008.133a.9.9,0,0,0,.3.7A1.153,1.153,0,0,0,140.375,15.43ZM148.3,17h-2.266V5H148.3Zm5.75.156a4.15,4.15,0,0,1-3.027-1.141,4.054,4.054,0,0,1-1.168-3.039v-.219a5.106,5.106,0,0,1,.492-2.277,3.612,3.612,0,0,1,1.395-1.547,3.914,3.914,0,0,1,2.059-.543,3.508,3.508,0,0,1,2.73,1.094,4.444,4.444,0,0,1,1,3.1v.922h-5.383a2.1,2.1,0,0,0,.66,1.328,2,2,0,0,0,1.395.5,2.437,2.437,0,0,0,2.039-.945l1.109,1.242a3.389,3.389,0,0,1-1.375,1.121A4.511,4.511,0,0,1,154.055,17.156Zm-.258-6.945a1.411,1.411,0,0,0-1.09.455,2.357,2.357,0,0,0-.535,1.3h3.141v-.181a1.681,1.681,0,0,0-.406-1.165A1.456,1.456,0,0,0,153.8,10.211Zm9.594,4.453a.727.727,0,0,0-.41-.652,4.659,4.659,0,0,0-1.316-.426q-3.016-.633-3.016-2.562a2.323,2.323,0,0,1,.934-1.879,3.766,3.766,0,0,1,2.441-.754,4.053,4.053,0,0,1,2.574.758,2.388,2.388,0,0,1,.965,1.969H163.3a1.092,1.092,0,0,0-.312-.8,1.322,1.322,0,0,0-.977-.316,1.351,1.351,0,0,0-.883.258.814.814,0,0,0-.312.656.7.7,0,0,0,.355.605,3.657,3.657,0,0,0,1.2.4,9.8,9.8,0,0,1,1.422.379,2.336,2.336,0,0,1,1.789,2.273,2.205,2.205,0,0,1-.992,1.871,4.28,4.28,0,0,1-2.562.715,4.47,4.47,0,0,1-1.887-.379,3.166,3.166,0,0,1-1.293-1.039,2.414,2.414,0,0,1-.469-1.426h2.141a1.179,1.179,0,0,0,.445.922,1.766,1.766,0,0,0,1.109.32,1.635,1.635,0,0,0,.98-.246A.766.766,0,0,0,163.391,14.664Z" transform="translate(22.5 7)" fill="#12263f"/></g><g transform="translate(285.741 2471.213)"><rect width="165" height="34" rx="17" fill="#1cf290"/><path d="M5.9,17V5.625H9.883a5.232,5.232,0,0,1,3.141.793,2.712,2.712,0,0,1,1.07,2.324,2.57,2.57,0,0,1-.43,1.473,2.482,2.482,0,0,1-1.2.934,2.4,2.4,0,0,1,1.379.883,2.61,2.61,0,0,1,.5,1.625A3,3,0,0,1,13.3,16.141,4.713,4.713,0,0,1,10.32,17Zm2.344-4.953v3.07H10.25a1.938,1.938,0,0,0,1.293-.395,1.353,1.353,0,0,0,.465-1.09,1.428,1.428,0,0,0-1.617-1.586Zm0-1.656H9.977q1.773-.031,1.773-1.414A1.307,1.307,0,0,0,11.3,7.863a2.363,2.363,0,0,0-1.418-.34H8.242ZM20.859,17a2.507,2.507,0,0,1-.227-.758,2.732,2.732,0,0,1-2.133.914,3,3,0,0,1-2.059-.719,2.312,2.312,0,0,1-.816-1.812,2.389,2.389,0,0,1,1-2.062,4.915,4.915,0,0,1,2.879-.727h1.039v-.484a1.393,1.393,0,0,0-.3-.937,1.183,1.183,0,0,0-.949-.352,1.345,1.345,0,0,0-.895.273.929.929,0,0,0-.324.75H15.813a2.268,2.268,0,0,1,.453-1.359,3,3,0,0,1,1.281-.98,4.669,4.669,0,0,1,1.859-.355,3.689,3.689,0,0,1,2.48.785,2.747,2.747,0,0,1,.918,2.207v3.664a4.041,4.041,0,0,0,.336,1.82V17Zm-1.867-1.57a1.945,1.945,0,0,0,.922-.223,1.462,1.462,0,0,0,.625-.6V13.156H19.7q-1.7,0-1.8,1.172l-.008.133a.9.9,0,0,0,.3.7A1.153,1.153,0,0,0,18.992,15.43Zm10.3-4.766a6.134,6.134,0,0,0-.812-.062,1.654,1.654,0,0,0-1.68.867V17H24.539V8.547h2.133l.063,1.008a2.092,2.092,0,0,1,1.883-1.164,2.366,2.366,0,0,1,.7.1Zm5.836,0a6.134,6.134,0,0,0-.812-.062,1.654,1.654,0,0,0-1.68.867V17H30.375V8.547h2.133l.063,1.008a2.092,2.092,0,0,1,1.883-1.164,2.366,2.366,0,0,1,.7.1ZM40.1,17.156a4.15,4.15,0,0,1-3.027-1.141,4.054,4.054,0,0,1-1.168-3.039v-.219A5.106,5.106,0,0,1,36.4,10.48a3.612,3.612,0,0,1,1.395-1.547,3.914,3.914,0,0,1,2.059-.543,3.508,3.508,0,0,1,2.73,1.094,4.444,4.444,0,0,1,1,3.1v.922H38.2a2.1,2.1,0,0,0,.66,1.328,2,2,0,0,0,1.395.5,2.437,2.437,0,0,0,2.039-.945L43.4,15.633a3.389,3.389,0,0,1-1.375,1.121A4.511,4.511,0,0,1,40.1,17.156Zm-.258-6.945a1.411,1.411,0,0,0-1.09.455,2.357,2.357,0,0,0-.535,1.3h3.141v-.181a1.681,1.681,0,0,0-.406-1.165A1.456,1.456,0,0,0,39.844,10.211Zm9.766.453A6.134,6.134,0,0,0,48.8,10.6a1.654,1.654,0,0,0-1.68.867V17H44.859V8.547h2.133l.063,1.008a2.092,2.092,0,0,1,1.883-1.164,2.366,2.366,0,0,1,.7.1ZM55.359,17a2.507,2.507,0,0,1-.227-.758A2.732,2.732,0,0,1,53,17.156a3,3,0,0,1-2.059-.719,2.312,2.312,0,0,1-.816-1.812,2.389,2.389,0,0,1,1-2.062A4.915,4.915,0,0,1,54,11.836h1.039v-.484a1.393,1.393,0,0,0-.3-.937,1.183,1.183,0,0,0-.949-.352,1.345,1.345,0,0,0-.895.273.929.929,0,0,0-.324.75H50.313a2.268,2.268,0,0,1,.453-1.359,3,3,0,0,1,1.281-.98,4.669,4.669,0,0,1,1.859-.355,3.689,3.689,0,0,1,2.48.785,2.747,2.747,0,0,1,.918,2.207v3.664a4.041,4.041,0,0,0,.336,1.82V17Zm-1.867-1.57a1.945,1.945,0,0,0,.922-.223,1.462,1.462,0,0,0,.625-.6V13.156H54.2q-1.7,0-1.8,1.172l-.008.133a.9.9,0,0,0,.3.7A1.153,1.153,0,0,0,53.492,15.43Zm10.125-.766a.727.727,0,0,0-.41-.652,4.659,4.659,0,0,0-1.316-.426q-3.016-.633-3.016-2.562a2.323,2.323,0,0,1,.934-1.879,3.766,3.766,0,0,1,2.441-.754,4.053,4.053,0,0,1,2.574.758,2.388,2.388,0,0,1,.965,1.969H63.531a1.092,1.092,0,0,0-.312-.8A1.322,1.322,0,0,0,62.242,10a1.351,1.351,0,0,0-.883.258.814.814,0,0,0-.312.656.7.7,0,0,0,.355.605,3.657,3.657,0,0,0,1.2.4,9.8,9.8,0,0,1,1.422.379,2.336,2.336,0,0,1,1.789,2.273,2.2,2.2,0,0,1-.992,1.871,4.28,4.28,0,0,1-2.562.715,4.47,4.47,0,0,1-1.887-.379,3.166,3.166,0,0,1-1.293-1.039,2.414,2.414,0,0,1-.469-1.426H60.75a1.179,1.179,0,0,0,.445.922,1.766,1.766,0,0,0,1.109.32,1.635,1.635,0,0,0,.98-.246A.766.766,0,0,0,63.617,14.664ZM71.867,17V10.2H70.609V8.547h1.258V7.828a2.918,2.918,0,0,1,.816-2.207,3.162,3.162,0,0,1,2.285-.785,5.278,5.278,0,0,1,1.148.156l-.023,1.75a2.878,2.878,0,0,0-.687-.07q-1.273,0-1.273,1.2v.68h1.68V10.2h-1.68V17Zm7.555,0H77.164V8.547h2.258ZM78.758,5.117h2.461L79.055,7.539H77.219Zm7.188,9.547a.727.727,0,0,0-.41-.652,4.659,4.659,0,0,0-1.316-.426Q81.2,12.953,81.2,11.023a2.323,2.323,0,0,1,.934-1.879,3.766,3.766,0,0,1,2.441-.754,4.053,4.053,0,0,1,2.574.758,2.388,2.388,0,0,1,.965,1.969H85.859a1.092,1.092,0,0,0-.312-.8A1.322,1.322,0,0,0,84.57,10a1.351,1.351,0,0,0-.883.258.814.814,0,0,0-.312.656.7.7,0,0,0,.355.605,3.657,3.657,0,0,0,1.2.4,9.8,9.8,0,0,1,1.422.379,2.336,2.336,0,0,1,1.789,2.273,2.2,2.2,0,0,1-.992,1.871,4.28,4.28,0,0,1-2.562.715,4.47,4.47,0,0,1-1.887-.379,3.166,3.166,0,0,1-1.293-1.039,2.414,2.414,0,0,1-.469-1.426h2.141a1.179,1.179,0,0,0,.445.922,1.766,1.766,0,0,0,1.109.32,1.635,1.635,0,0,0,.98-.246A.766.766,0,0,0,85.945,14.664ZM91.977,17H89.711V8.547h2.266Zm-2.4-10.641a1.112,1.112,0,0,1,.34-.836,1.465,1.465,0,0,1,1.848,0,1.105,1.105,0,0,1,.344.836,1.108,1.108,0,0,1-.348.844,1.448,1.448,0,0,1-1.836,0A1.108,1.108,0,0,1,89.578,6.359Zm7.773,8.977a1.481,1.481,0,0,0,1.016-.344,1.2,1.2,0,0,0,.406-.914h2.117a2.9,2.9,0,0,1-.469,1.574,3.093,3.093,0,0,1-1.262,1.109,3.949,3.949,0,0,1-1.77.395A3.67,3.67,0,0,1,94.531,16a4.56,4.56,0,0,1-1.047-3.184v-.148a4.508,4.508,0,0,1,1.039-3.117,3.627,3.627,0,0,1,2.852-1.164,3.555,3.555,0,0,1,2.543.9,3.2,3.2,0,0,1,.973,2.4H98.773a1.551,1.551,0,0,0-.406-1.072,1.51,1.51,0,0,0-2.223.163,3.333,3.333,0,0,0-.4,1.866v.235a3.375,3.375,0,0,0,.4,1.878A1.377,1.377,0,0,0,97.352,15.336ZM107.078,17a2.507,2.507,0,0,1-.227-.758,2.732,2.732,0,0,1-2.133.914,3,3,0,0,1-2.059-.719,2.312,2.312,0,0,1-.816-1.812,2.389,2.389,0,0,1,1-2.062,4.915,4.915,0,0,1,2.879-.727h1.039v-.484a1.393,1.393,0,0,0-.3-.937,1.183,1.183,0,0,0-.949-.352,1.345,1.345,0,0,0-.895.273.929.929,0,0,0-.324.75h-2.258a2.268,2.268,0,0,1,.453-1.359,3,3,0,0,1,1.281-.98,4.669,4.669,0,0,1,1.859-.355,3.689,3.689,0,0,1,2.48.785,2.747,2.747,0,0,1,.918,2.207v3.664a4.041,4.041,0,0,0,.336,1.82V17Zm-1.867-1.57a1.945,1.945,0,0,0,.922-.223,1.462,1.462,0,0,0,.625-.6V13.156h-.844q-1.7,0-1.8,1.172l-.008.133a.9.9,0,0,0,.3.7A1.153,1.153,0,0,0,105.211,15.43Zm10.125-.766a.727.727,0,0,0-.41-.652,4.659,4.659,0,0,0-1.316-.426q-3.016-.633-3.016-2.562a2.323,2.323,0,0,1,.934-1.879,3.766,3.766,0,0,1,2.441-.754,4.053,4.053,0,0,1,2.574.758,2.388,2.388,0,0,1,.965,1.969H115.25a1.092,1.092,0,0,0-.312-.8,1.322,1.322,0,0,0-.977-.316,1.351,1.351,0,0,0-.883.258.814.814,0,0,0-.312.656.7.7,0,0,0,.355.605,3.657,3.657,0,0,0,1.2.4,9.8,9.8,0,0,1,1.422.379,2.336,2.336,0,0,1,1.789,2.273,2.2,2.2,0,0,1-.992,1.871,4.28,4.28,0,0,1-2.562.715,4.47,4.47,0,0,1-1.887-.379,3.166,3.166,0,0,1-1.293-1.039,2.414,2.414,0,0,1-.469-1.426h2.141a1.179,1.179,0,0,0,.445.922,1.766,1.766,0,0,0,1.109.32,1.635,1.635,0,0,0,.98-.246A.766.766,0,0,0,115.336,14.664Z" transform="translate(21 7)" fill="#12263f"/></g></g></svg>