<svg xmlns="http://www.w3.org/2000/svg" xmlns:xlink="http://www.w3.org/1999/xlink" width="295" height="367" viewBox="0 0 295 367"><defs><clipPath id="a"><rect width="116.5" height="116.492" fill="none"/></clipPath></defs><g transform="translate(3119 10978)"><g transform="translate(-3299 -11685)"><rect width="295" height="367" rx="18" transform="translate(180 707)" fill="#ffd357"/><circle cx="95.354" cy="95.354" r="95.354" transform="translate(232.146 795.146)" fill="#ffda72"/><g transform="translate(269.25 832.254)"><g clip-path="url(#a)"><path d="M50.388,30.336c1.54-.7,1.834-.643,3.071.589q1.167,1.163,2.33,2.329c2.962,2.964,3.066,5.365.342,8.473.818.523,1.65,1.021,2.44,1.577a.636.636,0,0,0,.9-.008,9.369,9.369,0,0,1,1.223-.82c.378-.211.407-.417.256-.819A5.168,5.168,0,0,1,62.477,35.6c1.082-1,2.069-2.111,3.15-3.116.618-.575.778-.863-.108-1.4-1.818-1.1-2.422-2.6-1.98-4.287a3.86,3.86,0,0,1,.956-1.645q4.847-5.268,9.682-10.546a12.139,12.139,0,0,1,5.283-3.393c1-.328,2.03-.615,2.993-1.04a8.557,8.557,0,0,1,8.256.45,1.677,1.677,0,0,0,2.452-.415c2.61-2.743,5.328-5.384,8.011-8.057.863-.859,1.784-1.025,2.512-.427A1.722,1.722,0,0,1,104,4.166c-2.707,2.7-5.38,5.437-8.142,8.081-.773.74-.664,1.122.046,1.751.963.853,1.84,1.8,2.748,2.72,1.048,1.059,1.184,2.093.385,2.857s-1.716.646-2.766-.395c-1.185-1.175-2.287-2.445-3.558-3.516a16.183,16.183,0,0,0-5.858-2.856,3.225,3.225,0,0,0-2.01.172c-1.567.561-3.146,1.088-4.716,1.642a7.665,7.665,0,0,0-3.13,2c-3.246,3.5-6.467,7.031-9.717,10.531-.455.49-.421.767.127,1.139a3.866,3.866,0,0,0,4.984-.574c1.763-1.722,3.49-3.48,5.233-5.222,1.622-1.62,2.2-1.64,3.822,0a6.714,6.714,0,0,0,6.306,2.047c1.224-.22,2.058.264,2.263,1.291s-.358,1.792-1.606,2.043a9.538,9.538,0,0,1-8.135-1.876c-.62-.491-.949-.446-1.468.1-1.3,1.377-2.67,2.691-4.009,4.033a4.79,4.79,0,0,1-2.329,1.569c-1.841.335-2.908,1.656-4.1,2.844C67.1,35.811,65.85,37.08,64.58,38.329a1.772,1.772,0,0,0-.542,1.856c.083.292.251.684.581.59,1.058-.3,2.239-.071,3.153-1.021,2.5-2.6,5.076-5.111,7.622-7.658.831-.831,1.644-1.682,2.5-2.486a1.667,1.667,0,0,1,2.442-.111A1.73,1.73,0,0,1,80.3,32.03c-.2.228-.424.434-.639.648Q76.078,36.256,72.5,39.84c-.255.257-.629.443-.665.853a19.83,19.83,0,0,1,2.256.8,1.228,1.228,0,0,0,1.668-.323c2.136-2.205,4.327-4.358,6.5-6.528,1.154-1.153,2.138-1.314,2.931-.486.769.8.582,1.8-.559,2.939-1.634,1.637-3.275,3.266-4.9,4.909-.557.561-1.445,1.109-1.522,1.744-.082.676,1.034,1.077,1.462,1.737.372.574.653.521,1.111.052,1.986-2.034,4.022-4.02,6.014-6.05a1.969,1.969,0,0,1,2.122-.715,1.725,1.725,0,0,1,1.146,1.78,2.912,2.912,0,0,1-.9,1.409q-3.264,3.241-6.5,6.506c-.252.253-.657.455-.506.927.32,1,.652,1.987.979,2.98l.314.233a6.232,6.232,0,0,1,.693-1.046c4.7-4.722,9.33-9.52,14.159-14.107a13.55,13.55,0,0,0,4.653-9.615,4.744,4.744,0,0,1,1.6-3.356c3.311-3.214,6.525-6.528,9.776-9.8,1.209-.587,2.084-.5,2.612.32.642.992.223,1.77-.521,2.509-3.093,3.071-6.16,6.169-9.262,9.232a2.593,2.593,0,0,0-.84,1.78A16.257,16.257,0,0,1,101.086,39.5c-5.917,5.712-11.671,11.593-17.5,17.393a1.408,1.408,0,0,0-.468.856A11.947,11.947,0,0,1,82.1,61.214a.875.875,0,0,0,.2,1.18c1.175,1.128,2.344,2.267,3.456,3.456.511.547.688.365,1.026-.158,1.324-2.049,2.976-2.748,4.755-2.079a6.841,6.841,0,0,1,2.07,1.564c.562.508,1.1,1.048,1.682,1.529a1.959,1.959,0,0,1,.55,2.712c-1.223.812-1.793.773-2.876-.208-.723-.654-1.459-1.3-2.149-1.984-.42-.418-.726-.432-1.039.083a3.439,3.439,0,0,0-.557,3.071A3.336,3.336,0,0,0,90.4,72.5q2.522,2.53,5.05,5.054c1.688,1.689,1.713,2.211.03,3.886a6.743,6.743,0,0,0-2.032,6.292c.218,1.238-.242,2.053-1.267,2.263s-1.78-.337-2.055-1.568a10.236,10.236,0,0,1,1.485-7.8c.986-.744.907-1.366-.036-2.176-1.26-1.084-2.37-2.343-3.557-3.513a5.33,5.33,0,0,1-1.77-2.593c-.316-1.673-1.461-2.67-2.554-3.754q-1.089-1.081-2.17-2.17C79.968,64.861,80,64.889,78.414,66.4c-.593.568-.666.874-.028,1.5,3.225,3.15,6.391,6.36,9.584,9.544a4.483,4.483,0,0,1,1.019,1.338,1.8,1.8,0,0,1-1.076,1.943,1.914,1.914,0,0,1-2.212-.707q-4.183-4.177-8.392-8.328c-.33-.355-.65-.72-.992-1.064-1.043-1.052-1.046-1.05-2.07-.026-1.264,1.264-1.266,1.267.025,2.551.289.288.6.554.9.83q2.9,2.94,5.808,5.88c.957.967,1.941,1.906,2.87,2.9a1.685,1.685,0,0,1-.015,2.433,1.72,1.72,0,0,1-2.357-.023c-.259-.218-.488-.472-.73-.711L72.7,76.492c-.567-.593-1.148-1.173-1.695-1.784-.334-.373-.55-.3-.9.012-1.97,1.761-1.98,1.75-.081,3.589a3.446,3.446,0,0,0,.353.265Q73,81.242,75.631,83.909c1.065,1.078,2.152,2.134,3.2,3.226a1.618,1.618,0,0,1,.181,2.179A1.575,1.575,0,0,1,77,89.887a3.132,3.132,0,0,1-.969-.761Q71.948,85.1,67.88,81.063c-.543-.571-1.1-1.134-1.626-1.718-.252-.278-.417-.288-.734-.041-2.065,1.61-2.093,1.876-.242,3.638a2.255,2.255,0,0,0,.271.191c.278.306.543.625.835.917C71.148,88.819,76,93.5,80.648,98.383a13.383,13.383,0,0,0,9.427,4.544,5.012,5.012,0,0,1,3.545,1.7c3.182,3.291,6.474,6.476,9.724,9.7.57,1.2.463,2.089-.359,2.606-1,.631-1.772.179-2.505-.559-3.073-3.093-6.17-6.163-9.237-9.261a2.438,2.438,0,0,0-1.676-.81A16.348,16.348,0,0,1,78.4,100.962C72.933,95.28,67.27,89.787,61.709,84.2a1.172,1.172,0,0,0-1.438-.362,3.909,3.909,0,0,1-4.194-.956c-.416-.4-.653-.437-1.063,0q-1.4,1.493-2.894,2.893c-.481.45-.395.62.131.959,2.033,1.314,2.667,2.64,2.238,4.395a3.943,3.943,0,0,1-1,1.747Q48.672,98.1,43.87,103.343a11.9,11.9,0,0,1-4.959,3.3c-1.572.542-3.131,1.121-4.711,1.64a8.121,8.121,0,0,1-6.568-.757c-1.639-.863-1.67-.8-2.976.5-2.6,2.6-5.209,5.193-7.8,7.806a1.811,1.811,0,0,1-2.427.493c-.832-.5-.951-1.3-.434-2.5q3.409-3.388,6.818-6.778c2.3-2.292,2.295-2.295-.208-4.457-.491-.518-.986-1.032-1.472-1.553a1.749,1.749,0,0,1-.179-2.6,1.688,1.688,0,0,1,2.586.181c1.162,1.129,2.323,2.261,3.433,3.44a5.522,5.522,0,0,0,2.553,1.567c.567.291,1.148.56,1.7.879a4.993,4.993,0,0,0,4.678.269c1.149-.478,2.355-.817,3.536-1.218a9.666,9.666,0,0,0,4.114-2.728c2.826-3.115,5.682-6.2,8.526-9.3,1.309-1.425,1.158-1.894-.765-2.382a2.629,2.629,0,0,0-1.234-.058,3.809,3.809,0,0,0-2.564,1.281Q43,92.9,40.465,95.422c-1.7,1.7-2.238,1.728-3.89.057a6.74,6.74,0,0,0-6.4-2.024,1.684,1.684,0,0,1-2.166-1.274,1.656,1.656,0,0,1,1.446-2.043A10.3,10.3,0,0,1,37.37,91.59c.676.912,1.272,1.016,2.1.054,1.057-1.235,2.293-2.316,3.431-3.482a6.027,6.027,0,0,1,2.745-1.956,8.141,8.141,0,0,0,4.018-2.774c.631-.655,1.285-1.289,1.928-1.932,1.558-1.559,1.527-1.531-.043-3.157-.568-.588-.874-.536-1.417.016-3.167,3.214-6.372,6.389-9.559,9.584a4.549,4.549,0,0,1-1.34,1.02,1.78,1.78,0,0,1-1.943-1.046,1.88,1.88,0,0,1,.671-2.205q4.2-4.2,8.364-8.422c.52-.495,1.014-1.02,1.568-1.475.533-.437.4-.721-.03-1.155-1.7-1.723-1.682-1.739-3.4-.014-.158.158-.294.338-.44.507q-2.9,2.867-5.8,5.734c-.994.983-1.962,1.994-2.982,2.949a1.69,1.69,0,0,1-2.356.06,1.725,1.725,0,0,1-.043-2.44c.218-.259.473-.488.712-.73l8.2-8.295a14.49,14.49,0,0,1,1.165-1.06c.773-.57.711-1,.011-1.651-1.534-1.425-1.5-1.468-2.99.044-.183.186-.342.4-.512.595q-2.587,2.548-5.172,5.1c-1.132,1.118-2.243,2.257-3.39,3.36a1.62,1.62,0,0,1-2.18.182,1.575,1.575,0,0,1-.572-2.014,3.123,3.123,0,0,1,.761-.968q4.025-4.083,8.066-8.151c.569-.542,1.132-1.092,1.712-1.622.263-.241.306-.405.071-.74-1.638-2.323-1.627-2.331-3.613-.3a3.927,3.927,0,0,0-.274.349q-1.569,1.532-3.139,3.064c-1.087,1.056-1.708,1.086-2.924.153a1.923,1.923,0,0,1,.476-2.545c2-1.845,3.7-4.015,5.921-5.625.4-.294.278-.539.182-.858a14.61,14.61,0,0,1-.671-4.586,1.1,1.1,0,0,0-.405-.99,8.521,8.521,0,0,1-.642-.641c-.592-.586-1.118-1.523-1.8-1.656s-.911,1.071-1.462,1.6a3.5,3.5,0,0,1-4.922.261Q19.626,48.475,13.912,43.1a9.873,9.873,0,0,1-2.484-4.021c-.5-1.425-.982-2.858-1.509-4.274a8.138,8.138,0,0,1,.363-6.8c1.026-2.039.982-2.064-.65-3.7q-3.7-3.7-7.4-7.395c-.92-.922-1.088-1.836-.5-2.6s1.441-.833,2.644-.188q4.15,4.2,8.294,8.414c.461.471.709.145,1.01-.158,1.07-1.075,2.132-2.157,3.22-3.214a1.769,1.769,0,0,1,2.62-.247c.8.769.744,1.731-.189,2.685-1.194,1.219-2.48,2.354-3.6,3.637a16.133,16.133,0,0,0-2.905,5.835,3.064,3.064,0,0,0,.092,1.909c.608,1.752,1.236,3.5,1.859,5.243a7.284,7.284,0,0,0,1.956,2.894c3.446,3.195,6.93,6.348,10.371,9.548.634.59.928.363,1.285-.241a3.825,3.825,0,0,0-.725-4.874c-1.856-1.9-3.755-3.751-5.62-5.638-1.014-1.025-1.087-1.878-.045-2.842a7.191,7.191,0,0,0,2.488-7.235,1.537,1.537,0,0,1,1.315-1.844A1.58,1.58,0,0,1,27.773,29.1a4.909,4.909,0,0,1,.271,1.215,9.7,9.7,0,0,1-2.058,7.457c-.476.579-.4.915.111,1.4,1.4,1.336,2.742,2.726,4.112,4.09a5.533,5.533,0,0,1,1.683,2.656A5.469,5.469,0,0,0,33.806,48.9c.507.454,1.027,1.334,1.484,1.3.7-.056.57-1.171,1.013-1.709.652-.792.367-1.351-.306-2-2.128-2.052-4.207-4.156-6.28-6.264-1.009-1.025-.9-2.273.207-2.864a1.77,1.77,0,0,1,2.258.457q2.612,2.615,5.23,5.224c.51.507.963,1.279,1.566,1.429.659.165,1.042-.842,1.682-1.143.991-.464.74-.9.087-1.533-2.179-2.109-4.313-4.265-6.44-6.427-1.064-1.082-.741-2.642.585-2.968a2.037,2.037,0,0,1,2.018.754q3.6,3.636,7.235,7.239c.31.308.558.743,1.127.606,1.042-.252,2.089-.485,3.238-.749-.339-.357-.59-.634-.854-.9q-4.018-4.023-8.04-8.043c-1.4-1.4-1.284-2.4.394-3.433a2.8,2.8,0,0,1,1.972.971q4.839,4.885,9.722,9.725a1.6,1.6,0,0,0,2.412.2c.766-.742.731-1.57-.145-2.474-.949-.979-1.882-1.982-2.9-2.883a2.239,2.239,0,0,1-.683-3.084M72.489,44.6a.554.554,0,0,0-.518-.182,11,11,0,0,0-11.208,2.228c-1.559,1.3-1.969,1.318-3.482.024a11.148,11.148,0,0,0-10.473-2.531,11.476,11.476,0,0,0-5.67,18.933c2.46,2.671,5.1,5.176,7.677,7.742,2.545,2.536,5.11,5.053,7.666,7.579.464.495.916,1,1.395,1.482,1.056,1.061,1.207,1.059,2.283-.017Q68.2,71.812,76.235,63.763a14.789,14.789,0,0,0,1.621-1.9c4.285-6.08,1.472-15.119-5.362-17.28Z" transform="translate(-0.758 -0.747)" fill="#030303"/><path d="M40.083,168.176a10.3,10.3,0,0,0-7.918-1.453,1.657,1.657,0,0,0-1.446,2.044,1.683,1.683,0,0,0,2.166,1.273,6.741,6.741,0,0,1,6.4,2.024c1.652,1.67,2.193,1.64,3.89-.057s3.373-3.368,5.054-5.057a3.807,3.807,0,0,1,2.564-1.28A23,23,0,0,1,47.948,169c-1.408,1.675-2.9,3.286-4.414,4.861-1.2,1.248-2.243,2.758-3.83,3.513-3,1.424-6.037,2.8-9.463,2.836a5.523,5.523,0,0,1-2.553-1.567c-1.11-1.179-2.271-2.311-3.433-3.44a1.688,1.688,0,0,0-2.586-.181,1.748,1.748,0,0,0,.179,2.6c.487.522.982,1.036,1.473,1.554-2.784,3.038-5.713,5.932-8.726,8.743q-3.6-3.554-7.2-7.106c-.322-.317-.677-.6-1.017-.9,3.068-3.089,6.078-6.239,9.231-9.238a6.494,6.494,0,0,0,2.249-4.6,11.89,11.89,0,0,1,4.1-8.444c2.1-1.911,4.018-4.018,6.055-6a2.023,2.023,0,0,0,.477-2.816,26.5,26.5,0,0,1,2.326-2.448c.275-.3.645-.538.672-1,1.216.933,1.838.9,2.925-.153q1.573-1.528,3.139-3.063a14.021,14.021,0,0,1,2.1,2.311q-4.035,4.073-8.066,8.151a3.117,3.117,0,0,0-.761.968,1.575,1.575,0,0,0,.572,2.014,1.62,1.62,0,0,0,2.18-.182c1.146-1.1,2.257-2.242,3.389-3.36q2.582-2.552,5.172-5.1l2.326,2.071-8.2,8.295c-.239.242-.493.47-.712.729a1.726,1.726,0,0,0,.043,2.44,1.691,1.691,0,0,0,2.356-.06c1.02-.955,1.988-1.966,2.982-2.95q2.9-2.868,5.8-5.734a6.191,6.191,0,0,1,2.3,2.135q-4.179,4.214-8.363,8.422A1.879,1.879,0,0,0,40,164.5a1.781,1.781,0,0,0,1.943,1.046c-.006.554-.476.8-.772,1.159-.386.471-1.033.752-1.087,1.469" transform="translate(-3.471 -77.332)" fill="#f5cdc0"/><path d="M164.724,43.885a1.724,1.724,0,0,0-1.146-1.78,1.969,1.969,0,0,0-2.122.715c-1.992,2.029-4.028,4.015-6.014,6.049-.458.47-.739.522-1.111-.051-.428-.659-1.544-1.061-1.462-1.737.077-.634.966-1.182,1.522-1.744,1.628-1.643,3.269-3.272,4.9-4.909,1.141-1.143,1.328-2.136.559-2.939-.793-.828-1.777-.667-2.932.486-2.173,2.17-4.364,4.323-6.5,6.528a1.228,1.228,0,0,1-1.668.323,19.792,19.792,0,0,0-2.255-.8c.036-.409.409-.6.665-.852q3.567-3.591,7.153-7.162c.214-.214.439-.42.639-.648a1.729,1.729,0,0,0,.039-2.531,1.667,1.667,0,0,0-2.441.111c-.857.8-1.669,1.655-2.5,2.486-2.547,2.547-5.126,5.062-7.622,7.658-.914.95-2.1.719-3.153,1.021-.33.094-.5-.3-.581-.59a1.772,1.772,0,0,1,.543-1.856c1.27-1.25,2.521-2.518,3.785-3.774,1.2-1.189,2.263-2.51,4.1-2.844a4.789,4.789,0,0,0,2.329-1.569c1.339-1.342,2.707-2.656,4.008-4.033.519-.549.848-.594,1.468-.1a9.538,9.538,0,0,0,8.134,1.876c1.248-.25,1.811-1.02,1.606-2.043s-1.039-1.511-2.263-1.291a6.715,6.715,0,0,1-6.306-2.047c-1.624-1.644-2.2-1.625-3.821,0-1.744,1.742-3.471,3.5-5.234,5.222a3.865,3.865,0,0,1-4.983.574c-.549-.372-.582-.649-.127-1.139,3.25-3.5,6.471-7.028,9.717-10.531a7.662,7.662,0,0,1,3.13-2c1.57-.554,3.149-1.081,4.716-1.642a3.227,3.227,0,0,1,2.011-.172,16.177,16.177,0,0,1,5.857,2.856c1.271,1.071,2.374,2.342,3.558,3.516,1.05,1.041,1.96,1.165,2.766.395s.663-1.8-.385-2.857c-.907-.916-1.784-1.867-2.747-2.72-.71-.628-.819-1.011-.046-1.75,2.762-2.644,5.435-5.38,8.142-8.081.09.491.5.742.812,1.059q3.491,3.554,7,7.1c-.268.314-.516.648-.807.94-2.968,2.977-5.931,5.959-8.924,8.911a3.32,3.32,0,0,0-.992,2.2c-.216,2.216-.439,4.461-1.686,6.391-2.489,3.85-6.035,6.707-9.333,9.794" transform="translate(-75.417 -4.079)" fill="#c88a7c"/><path d="M179.9,196.675c-3.25-3.226-6.542-6.41-9.723-9.7a5.013,5.013,0,0,0-3.545-1.7,13.381,13.381,0,0,1-9.427-4.544c-4.648-4.879-9.5-9.563-14.264-14.333-.292-.292-.557-.611-.834-.917l2.331-2.07q4.074,4.034,8.152,8.063a3.135,3.135,0,0,0,.969.761,1.574,1.574,0,0,0,2.013-.573,1.618,1.618,0,0,0-.181-2.179c-1.05-1.092-2.137-2.148-3.2-3.226q-2.631-2.663-5.254-5.334a5.988,5.988,0,0,1,2.326-2.082L157.3,166.8c.242.239.47.494.73.711a1.719,1.719,0,0,0,2.357.024,1.685,1.685,0,0,0,.015-2.433c-.928-.993-1.914-1.933-2.87-2.9q-2.906-2.937-5.808-5.88a5.952,5.952,0,0,1,2.136-2.291q4.2,4.162,8.392,8.328a1.914,1.914,0,0,0,2.212.707,1.806,1.806,0,0,0,1.077-1.943c.558,0,.8.472,1.156.767.471.386.755,1.028,1.47,1.082a10.241,10.241,0,0,0-1.485,7.8c.275,1.231,1.019,1.78,2.055,1.567s1.485-1.025,1.267-2.263a6.742,6.742,0,0,1,2.032-6.292c1.684-1.676,1.658-2.2-.029-3.887s-3.369-3.367-5.05-5.054a3.332,3.332,0,0,1-1.19-2.119,27.3,27.3,0,0,1,2.587,2.169c1.6,1.489,3.278,2.892,4.83,4.426,1.443,1.427,3.226,2.62,4.075,4.515,1.349,3.01,2.87,6,2.709,9.46a3.811,3.811,0,0,1-1.16,1.891c-1.272,1.237-2.535,2.484-3.761,3.765a1.624,1.624,0,0,0-.053,2.423,1.694,1.694,0,0,0,2.433,0c.593-.521,1.151-1.082,1.724-1.625,3.058,2.757,5.922,5.708,8.745,8.7q-3.519,3.569-7.035,7.141c-.34.346-.644.727-.965,1.092" transform="translate(-77.312 -83.088)" fill="#f8ded0"/><path d="M43.576,34.176c-1.678,1.035-1.8,2.028-.394,3.433q4.017,4.026,8.04,8.043c.264.264.514.54.854.9-1.149.265-2.2.5-3.238.749-.569.138-.818-.3-1.127-.605q-3.627-3.611-7.236-7.239a2.035,2.035,0,0,0-2.018-.754c-1.326.326-1.649,1.886-.585,2.968,2.127,2.162,4.261,4.317,6.44,6.426.653.633.9,1.069-.087,1.534-.641.3-1.023,1.307-1.682,1.143-.6-.15-1.056-.922-1.566-1.43q-2.619-2.608-5.23-5.224a1.77,1.77,0,0,0-2.258-.457c-1.108.591-1.216,1.839-.207,2.864,2.073,2.108,4.152,4.212,6.281,6.263.673.649.958,1.207.306,2-.443.538-.315,1.654-1.013,1.709-.456.036-.977-.844-1.484-1.3a5.467,5.467,0,0,1-1.913-2.981,5.537,5.537,0,0,0-1.684-2.656c-1.37-1.364-2.715-2.754-4.112-4.09-.507-.485-.587-.821-.111-1.4a9.7,9.7,0,0,0,2.059-7.457,4.938,4.938,0,0,0-.272-1.216,1.58,1.58,0,0,0-1.966-1.107,1.537,1.537,0,0,0-1.315,1.844,7.19,7.19,0,0,1-2.488,7.234c-1.042.965-.968,1.817.045,2.843,1.865,1.887,3.765,3.741,5.62,5.638a3.825,3.825,0,0,1,.725,4.874c-.357.6-.651.83-1.284.241-3.441-3.2-6.925-6.354-10.371-9.549a7.285,7.285,0,0,1-1.956-2.894c-.623-1.747-1.252-3.491-1.859-5.243A3.066,3.066,0,0,1,16.4,37.37,16.133,16.133,0,0,1,19.3,31.535c1.118-1.283,2.4-2.418,3.6-3.637.933-.953.987-1.915.189-2.684a1.769,1.769,0,0,0-2.62.247c-1.088,1.056-2.15,2.139-3.22,3.214-.3.3-.549.629-1.01.158q-4.132-4.221-8.294-8.414c2.447-2.54,4.916-5.057,7.492-7.468.314.269.648.518.94.809,2.577,2.566,5.232,5.061,7.684,7.742a7.057,7.057,0,0,0,4.97,2.425,11.976,11.976,0,0,1,8.052,3.911c1.492,1.611,3.085,3.129,4.655,4.666a8.34,8.34,0,0,0,1.838,1.672" transform="translate(-4.322 -7.046)" fill="#975244"/><path d="M52.516,30.641a8.34,8.34,0,0,1-1.838-1.672c-1.57-1.537-3.163-3.055-4.655-4.666a11.976,11.976,0,0,0-8.052-3.911A7.057,7.057,0,0,1,33,17.967c-2.452-2.681-5.108-5.175-7.684-7.742-.292-.291-.626-.541-.94-.809a39.46,39.46,0,0,1,2.816-2.963c3.142,3.117,6.343,6.179,9.4,9.38a6.123,6.123,0,0,0,4.331,2.051,12.065,12.065,0,0,1,8.465,4.039c2.411,2.613,5.005,5.057,7.526,7.569,1.065,1.062,1.609,1.124,2.884.376l3.1,3.232a2.24,2.24,0,0,0,.683,3.084c1.02.9,1.952,1.9,2.9,2.883.877.9.911,1.732.145,2.474a1.6,1.6,0,0,1-2.412-.2q-4.88-4.843-9.722-9.725a2.793,2.793,0,0,0-1.972-.971" transform="translate(-13.262 -3.511)" fill="#7d4234"/><path d="M186.4,53.617c3.3-3.087,6.844-5.944,9.333-9.794,1.247-1.93,1.47-4.176,1.686-6.391a3.32,3.32,0,0,1,.992-2.2c2.993-2.952,5.956-5.934,8.924-8.911.291-.292.539-.626.807-.94l2.523,2.357c-3.251,3.276-6.465,6.59-9.776,9.8a4.742,4.742,0,0,0-1.6,3.356,13.55,13.55,0,0,1-4.653,9.615c-4.83,4.587-9.459,9.385-14.159,14.107a6.23,6.23,0,0,0-.692,1.046l-.314-.233c-.327-.993-.66-1.984-.979-2.98-.151-.472.254-.674.506-.927q3.242-3.262,6.5-6.506a2.912,2.912,0,0,0,.9-1.409" transform="translate(-97.089 -13.811)" fill="#ba7260"/><path d="M217.786,181.776c-.574.543-1.131,1.1-1.724,1.625a1.7,1.7,0,0,1-2.433,0,1.625,1.625,0,0,1,.053-2.423c1.226-1.281,2.489-2.528,3.762-3.765a3.812,3.812,0,0,0,1.159-1.892c.54-1.117,1.1-2.225,1.613-3.353a3.089,3.089,0,0,0,.142-2.228c-1.19-3.686-2.055-7.539-5.5-10.026-1.247-.9-1.232-1.661-.4-2.914.985-.635,1.754-.312,2.653.347,4.129,3.031,5.387,7.616,6.635,12.17.578,2.11-.221,4.116-1.291,5.946a1.438,1.438,0,0,0,.37,2.086c2.777,2.677,5.469,5.443,8.21,8.159a1.778,1.778,0,0,1,.5,2.415c-.632.986-1.543.934-2.491.468q-3.4-3.418-6.792-6.835c-2.3-2.3-2.3-2.3-4.461.216" transform="translate(-115.945 -85.123)" fill="#040404"/><path d="M62.712,26.358c-1.276.748-1.819.685-2.885-.376-2.52-2.512-5.114-4.956-7.526-7.569a12.064,12.064,0,0,0-8.465-4.039,6.121,6.121,0,0,1-4.331-2.051c-3.055-3.2-6.256-6.262-9.4-9.38-.584-1.221-.485-2.066.3-2.621.806-.565,1.594-.394,2.585.592q4.625,4.61,9.232,9.239a2.456,2.456,0,0,0,1.683.784A15.7,15.7,0,0,1,54.8,16.065c2.388,2.584,4.942,5.015,7.458,7.478a2.006,2.006,0,0,1,.451,2.815" transform="translate(-16.177 0)" fill="#020201"/><path d="M25.016,156.148a2.023,2.023,0,0,1-.477,2.816c-2.037,1.981-3.956,4.087-6.055,6a11.89,11.89,0,0,0-4.1,8.444,6.5,6.5,0,0,1-2.249,4.6c-3.153,3-6.163,6.149-9.231,9.238-1.206.574-2.085.471-2.6-.348-.632-1-.2-1.769.545-2.5,3.089-3.068,6.153-6.162,9.251-9.222a2.6,2.6,0,0,0,.839-1.778,15.641,15.641,0,0,1,5.235-10.956c2.073-1.88,3.973-3.949,5.959-5.925,1.085-1.081,1.56-1.133,2.882-.369" transform="translate(0 -84.672)" fill="#030303"/><path d="M203.862,150.637c-.835,1.253-.851,2.015.4,2.914,3.449,2.488,4.314,6.34,5.5,10.027a3.089,3.089,0,0,1-.142,2.228c-.516,1.128-1.073,2.236-1.613,3.353.161-3.456-1.361-6.45-2.709-9.46-.849-1.894-2.632-3.089-4.075-4.515-1.552-1.534-3.233-2.937-4.83-4.426a27.3,27.3,0,0,0-2.588-2.169,3.437,3.437,0,0,1,.557-3.071c.313-.515.618-.5,1.039-.083.691.688,1.426,1.33,2.149,1.985,1.083.981,1.653,1.019,2.876.207,1.157.989,2.07,2.257,3.434,3.01" transform="translate(-105.35 -78.956)" fill="#f4ccbf"/><path d="M223.363,209.7c2.162-2.517,2.164-2.52,4.461-.216q3.4,3.413,6.792,6.835c-1.1.377-1.558,1.526-2.509,2.082-2.823-2.993-5.687-5.944-8.745-8.7" transform="translate(-121.521 -113.043)" fill="#f4ccbf"/><path d="M24.4,232.1c3.013-2.81,5.941-5.7,8.725-8.743,2.5,2.162,2.506,2.165.209,4.457q-3.4,3.395-6.818,6.779c-.427-1.067-1.543-1.549-2.116-2.493" transform="translate(-13.274 -121.517)" fill="#eeb0a1"/><path d="M100.256,128.943c-2.556-2.525-5.121-5.042-7.666-7.579-2.575-2.565-5.216-5.07-7.677-7.742a11.475,11.475,0,0,1,5.67-18.932,11.146,11.146,0,0,1,10.473,2.531c1.513,1.294,1.923,1.272,3.482-.023a11,11,0,0,1,11.208-2.228.388.388,0,0,0,.518.182l.005-.01c-.088.51.24.838.5,1.213A13.114,13.114,0,0,1,119,106.978,14.109,14.109,0,0,1,115.052,114q-6.949,6.966-13.91,13.92c-.318.319-.591.682-.885,1.025" transform="translate(-44.532 -51.304)" fill="#eb7fa6"/><path d="M122.217,129.949c.294-.342.567-.706.885-1.025q6.951-6.964,13.91-13.92a14.109,14.109,0,0,0,3.943-7.021,13.114,13.114,0,0,0-2.229-10.623c-.258-.376-.586-.7-.5-1.213,6.834,2.162,9.647,11.2,5.362,17.281a14.823,14.823,0,0,1-1.621,1.9q-8.025,8.057-16.075,16.088c-1.076,1.076-1.228,1.079-2.283.017-.478-.481-.931-.987-1.395-1.482" transform="translate(-66.492 -52.31)" fill="#e86593"/><path d="M58.714,208.225c3.426-.033,6.468-1.412,9.463-2.836,1.587-.755,2.626-2.264,3.83-3.513,1.519-1.575,3.007-3.187,4.414-4.861a23,23,0,0,0,2.849-3.329,2.623,2.623,0,0,1,1.234.058c1.922.488,2.074.956.765,2.382-2.845,3.1-5.7,6.185-8.527,9.3a9.668,9.668,0,0,1-4.114,2.729c-1.18.4-2.387.74-3.536,1.217a4.992,4.992,0,0,1-4.678-.269c-.551-.318-1.132-.587-1.7-.878" transform="translate(-31.944 -105.349)" fill="#eeb0a1"/><path d="M182.952,156.862c-.714-.055-1-.7-1.47-1.082-.36-.3-.6-.771-1.156-.767a4.477,4.477,0,0,0-1.019-1.338c-3.193-3.183-6.359-6.394-9.584-9.544-.638-.623-.565-.929.028-1.5,1.582-1.513,1.554-1.541,3.115.023q1.084,1.087,2.17,2.17c1.093,1.084,2.238,2.081,2.554,3.754a5.329,5.329,0,0,0,1.77,2.592c1.187,1.17,2.3,2.429,3.556,3.513.942.811,1.022,1.433.036,2.176" transform="translate(-92.094 -76.978)" fill="#f1cabe"/><path d="M80.3,182.933c.055-.717.7-1,1.087-1.469.3-.362.766-.6.772-1.159a4.554,4.554,0,0,0,1.339-1.02c3.187-3.194,6.393-6.369,9.56-9.583.543-.552.849-.6,1.417-.016,1.571,1.627,1.6,1.6.043,3.157-.643.644-1.3,1.277-1.929,1.932a8.14,8.14,0,0,1-4.018,2.774,6.03,6.03,0,0,0-2.745,1.956c-1.139,1.167-2.375,2.248-3.432,3.483-.824.963-1.42.858-2.1-.054" transform="translate(-43.687 -92.09)" fill="#ecaf9f"/><path d="M163.111,153.378a5.956,5.956,0,0,0-2.136,2.292c-.3-.276-.612-.542-.9-.83-1.291-1.285-1.289-1.287-.025-2.551,1.025-1.024,1.028-1.027,2.07.026.342.344.662.709.992,1.064" transform="translate(-86.56 -82.436)" fill="#f1cabe"/><path d="M97.184,163.185a6.185,6.185,0,0,0-2.3-2.135c.146-.17.282-.349.44-.507,1.719-1.726,1.705-1.71,3.4.014.427.434.563.718.03,1.155-.554.454-1.047.98-1.568,1.474" transform="translate(-51.62 -86.644)" fill="#ecaf9f"/><path d="M152.914,163.7a5.988,5.988,0,0,0-2.326,2.082,3.446,3.446,0,0,1-.353-.265c-1.9-1.838-1.889-1.828.081-3.589.353-.316.57-.386.9-.012.547.611,1.128,1.191,1.694,1.784" transform="translate(-80.968 -87.951)" fill="#f1cabe"/><path d="M76.845,142.262a14.02,14.02,0,0,0-2.1-2.311,3.948,3.948,0,0,1,.273-.35c1.987-2.032,1.976-2.023,3.613.3.236.334.192.5-.07.739-.58.531-1.142,1.081-1.712,1.622" transform="translate(-40.662 -75.142)" fill="#ecaf9f"/><path d="M87.135,152.7l-2.325-2.071c.17-.2.328-.409.512-.6,1.493-1.511,1.456-1.469,2.99-.044.7.65.761,1.081-.012,1.65a14.5,14.5,0,0,0-1.165,1.06" transform="translate(-46.141 -81.015)" fill="#ecaf9f"/><path d="M142.5,173.842l-2.331,2.07a2.224,2.224,0,0,1-.271-.191c-1.851-1.762-1.823-2.028.242-3.638.317-.247.482-.237.734.041.529.584,1.083,1.147,1.626,1.718" transform="translate(-75.379 -93.526)" fill="#f1cabe"/><path d="M156.707,95.952a.389.389,0,0,1-.518-.182.554.554,0,0,1,.518.182" transform="translate(-84.975 -52.104)" fill="#e86593"/></g></g></g><g transform="translate(-3079.065 -10677)"><rect width="215.131" height="34" rx="17" fill="#fff"/><path d="M16.09,12.07h-4.5v3.047h5.281V17H9.246V5.625h7.609v1.9H11.59v2.711h4.5Zm4.086-3.523.07.977a2.951,2.951,0,0,1,2.43-1.133,2.453,2.453,0,0,1,2,.789,3.682,3.682,0,0,1,.672,2.359V17H23.09V11.594a1.465,1.465,0,0,0-.312-1.043,1.4,1.4,0,0,0-1.039-.324,1.553,1.553,0,0,0-1.43.813V17H18.051V8.547Zm10.4,6.789a1.481,1.481,0,0,0,1.016-.344A1.2,1.2,0,0,0,32,14.078h2.117a2.9,2.9,0,0,1-.469,1.574,3.093,3.093,0,0,1-1.262,1.109,3.949,3.949,0,0,1-1.77.395A3.67,3.67,0,0,1,27.754,16a4.56,4.56,0,0,1-1.047-3.184v-.148a4.508,4.508,0,0,1,1.039-3.117A3.627,3.627,0,0,1,30.6,8.391a3.555,3.555,0,0,1,2.543.9,3.2,3.2,0,0,1,.973,2.4H32a1.551,1.551,0,0,0-.406-1.072,1.51,1.51,0,0,0-2.223.163,3.333,3.333,0,0,0-.4,1.866v.235a3.375,3.375,0,0,0,.4,1.878A1.377,1.377,0,0,0,30.574,15.336Zm9.891.8a2.831,2.831,0,0,1-2.312,1.016,2.67,2.67,0,0,1-2.074-.781,3.335,3.335,0,0,1-.73-2.289V8.547h2.258v5.467q0,1.322,1.2,1.322a1.63,1.63,0,0,0,1.578-.8V8.547h2.266V17H40.527Zm7.781,1.016a4.15,4.15,0,0,1-3.027-1.141,4.054,4.054,0,0,1-1.168-3.039v-.219a5.106,5.106,0,0,1,.492-2.277,3.612,3.612,0,0,1,1.395-1.547A3.914,3.914,0,0,1,48,8.391a3.508,3.508,0,0,1,2.73,1.094,4.444,4.444,0,0,1,1,3.1v.922H46.34A2.1,2.1,0,0,0,47,14.836a2,2,0,0,0,1.395.5,2.437,2.437,0,0,0,2.039-.945l1.109,1.242a3.389,3.389,0,0,1-1.375,1.121A4.511,4.511,0,0,1,48.246,17.156Zm-.258-6.945a1.411,1.411,0,0,0-1.09.455,2.357,2.357,0,0,0-.535,1.3H49.5v-.181a1.681,1.681,0,0,0-.406-1.165A1.456,1.456,0,0,0,47.988,10.211Zm7.094-1.664.07.977a2.951,2.951,0,0,1,2.43-1.133,2.453,2.453,0,0,1,2,.789,3.682,3.682,0,0,1,.672,2.359V17H58V11.594a1.465,1.465,0,0,0-.312-1.043,1.4,1.4,0,0,0-1.039-.324,1.553,1.553,0,0,0-1.43.813V17H52.957V8.547Zm9.586-2.078V8.547h1.445V10.2H64.668v4.219a1.007,1.007,0,0,0,.18.672.9.9,0,0,0,.688.2,3.6,3.6,0,0,0,.664-.055v1.711a4.648,4.648,0,0,1-1.367.2,2.156,2.156,0,0,1-2.422-2.4V10.2H61.176V8.547H62.41V6.469Zm7.453,4.2a6.134,6.134,0,0,0-.812-.062,1.654,1.654,0,0,0-1.68.867V17H67.371V8.547H69.5l.063,1.008a2.092,2.092,0,0,1,1.883-1.164,2.366,2.366,0,0,1,.7.1Zm.453,2.031a5.013,5.013,0,0,1,.484-2.242A3.546,3.546,0,0,1,74.453,8.93a4.069,4.069,0,0,1,2.113-.539,3.849,3.849,0,0,1,2.793,1.047,4.2,4.2,0,0,1,1.207,2.844l.016.578A4.418,4.418,0,0,1,79.5,15.98a4.209,4.209,0,0,1-5.832,0,4.5,4.5,0,0,1-1.09-3.187Zm2.258.16a3.16,3.16,0,0,0,.453,1.843,1.628,1.628,0,0,0,2.578.008,3.457,3.457,0,0,0,.461-2.015,3.128,3.128,0,0,0-.461-1.831,1.5,1.5,0,0,0-1.3-.649,1.474,1.474,0,0,0-1.281.646A3.516,3.516,0,0,0,74.832,12.856Zm11.719,1.808a.727.727,0,0,0-.41-.652,4.659,4.659,0,0,0-1.316-.426q-3.016-.633-3.016-2.562a2.323,2.323,0,0,1,.934-1.879,3.766,3.766,0,0,1,2.441-.754,4.053,4.053,0,0,1,2.574.758,2.388,2.388,0,0,1,.965,1.969H86.465a1.092,1.092,0,0,0-.312-.8A1.322,1.322,0,0,0,85.176,10a1.351,1.351,0,0,0-.883.258.814.814,0,0,0-.312.656.7.7,0,0,0,.355.605,3.657,3.657,0,0,0,1.2.4,9.8,9.8,0,0,1,1.422.379,2.336,2.336,0,0,1,1.789,2.273,2.2,2.2,0,0,1-.992,1.871,4.28,4.28,0,0,1-2.562.715,4.47,4.47,0,0,1-1.887-.379,3.166,3.166,0,0,1-1.293-1.039,2.414,2.414,0,0,1-.469-1.426h2.141a1.179,1.179,0,0,0,.445.922,1.766,1.766,0,0,0,1.109.32,1.635,1.635,0,0,0,.98-.246A.766.766,0,0,0,86.551,14.664ZM96.566,17H94.3V8.547h2.266Zm-2.4-10.641a1.112,1.112,0,0,1,.34-.836,1.465,1.465,0,0,1,1.848,0,1.105,1.105,0,0,1,.344.836,1.108,1.108,0,0,1-.348.844,1.448,1.448,0,0,1-1.836,0A1.108,1.108,0,0,1,94.168,6.359ZM100.5,8.547l.07.977A2.951,2.951,0,0,1,103,8.391a2.453,2.453,0,0,1,2,.789,3.682,3.682,0,0,1,.672,2.359V17h-2.258V11.594a1.465,1.465,0,0,0-.312-1.043,1.4,1.4,0,0,0-1.039-.324,1.553,1.553,0,0,0-1.43.813V17H98.379V8.547Zm10.4,6.789a1.481,1.481,0,0,0,1.016-.344,1.2,1.2,0,0,0,.406-.914h2.117a2.9,2.9,0,0,1-.469,1.574,3.093,3.093,0,0,1-1.262,1.109,3.949,3.949,0,0,1-1.77.395A3.67,3.67,0,0,1,108.082,16a4.56,4.56,0,0,1-1.047-3.184v-.148a4.508,4.508,0,0,1,1.039-3.117,3.627,3.627,0,0,1,2.852-1.164,3.555,3.555,0,0,1,2.543.9,3.2,3.2,0,0,1,.973,2.4h-2.117a1.551,1.551,0,0,0-.406-1.072,1.51,1.51,0,0,0-2.223.163,3.333,3.333,0,0,0-.4,1.866v.235a3.375,3.375,0,0,0,.4,1.878A1.377,1.377,0,0,0,110.9,15.336ZM118.113,17h-2.266V5h2.266Zm6.922-.859a2.831,2.831,0,0,1-2.312,1.016,2.67,2.67,0,0,1-2.074-.781,3.335,3.335,0,0,1-.73-2.289V8.547h2.258v5.467q0,1.322,1.2,1.322a1.63,1.63,0,0,0,1.578-.8V8.547h2.266V17H125.1Zm8.469-1.477a.727.727,0,0,0-.41-.652,4.659,4.659,0,0,0-1.316-.426q-3.016-.633-3.016-2.562a2.323,2.323,0,0,1,.934-1.879,3.766,3.766,0,0,1,2.441-.754,4.053,4.053,0,0,1,2.574.758,2.388,2.388,0,0,1,.965,1.969h-2.258a1.092,1.092,0,0,0-.312-.8,1.322,1.322,0,0,0-.977-.316,1.351,1.351,0,0,0-.883.258.814.814,0,0,0-.312.656.7.7,0,0,0,.355.605,3.657,3.657,0,0,0,1.2.4,9.8,9.8,0,0,1,1.422.379A2.336,2.336,0,0,1,135.7,14.57a2.205,2.205,0,0,1-.992,1.871,4.28,4.28,0,0,1-2.562.715,4.47,4.47,0,0,1-1.887-.379,3.166,3.166,0,0,1-1.293-1.039,2.414,2.414,0,0,1-.469-1.426h2.141a1.179,1.179,0,0,0,.445.922,1.766,1.766,0,0,0,1.109.32,1.635,1.635,0,0,0,.98-.246A.766.766,0,0,0,133.5,14.664ZM139.535,17H137.27V8.547h2.266Zm-2.4-10.641a1.112,1.112,0,0,1,.34-.836,1.465,1.465,0,0,1,1.848,0,1.105,1.105,0,0,1,.344.836,1.109,1.109,0,0,1-.348.844,1.448,1.448,0,0,1-1.836,0A1.109,1.109,0,0,1,137.137,6.359Zm7.422,7.883,1.57-5.7h2.359L145.637,17H143.48l-2.852-8.453h2.359Zm4.453-1.547a5.013,5.013,0,0,1,.484-2.242,3.546,3.546,0,0,1,1.395-1.523A4.069,4.069,0,0,1,153,8.391,3.849,3.849,0,0,1,155.8,9.438,4.2,4.2,0,0,1,157,12.281l.016.578a4.418,4.418,0,0,1-1.086,3.121,4.209,4.209,0,0,1-5.832,0,4.5,4.5,0,0,1-1.09-3.187Zm2.258.16a3.16,3.16,0,0,0,.453,1.843,1.628,1.628,0,0,0,2.578.008,3.457,3.457,0,0,0,.461-2.015,3.128,3.128,0,0,0-.461-1.831,1.5,1.5,0,0,0-1.3-.649,1.474,1.474,0,0,0-1.281.646A3.516,3.516,0,0,0,151.27,12.856Zm11.719,1.808a.727.727,0,0,0-.41-.652,4.659,4.659,0,0,0-1.316-.426q-3.016-.633-3.016-2.562a2.323,2.323,0,0,1,.934-1.879,3.766,3.766,0,0,1,2.441-.754,4.053,4.053,0,0,1,2.574.758,2.388,2.388,0,0,1,.965,1.969H162.9a1.092,1.092,0,0,0-.312-.8,1.322,1.322,0,0,0-.977-.316,1.351,1.351,0,0,0-.883.258.814.814,0,0,0-.312.656.7.7,0,0,0,.355.605,3.657,3.657,0,0,0,1.2.4,9.8,9.8,0,0,1,1.422.379,2.336,2.336,0,0,1,1.789,2.273,2.205,2.205,0,0,1-.992,1.871,4.28,4.28,0,0,1-2.562.715,4.47,4.47,0,0,1-1.887-.379,3.166,3.166,0,0,1-1.293-1.039,2.414,2.414,0,0,1-.469-1.426h2.141a1.179,1.179,0,0,0,.445.922,1.766,1.766,0,0,0,1.109.32,1.635,1.635,0,0,0,.98-.246A.766.766,0,0,0,162.988,14.664Z" transform="translate(20.5 7)" fill="#12263f"/></g></g></svg>