<svg xmlns="http://www.w3.org/2000/svg" xmlns:xlink="http://www.w3.org/1999/xlink" width="85" height="85" viewBox="0 0 85 85">
  <defs>
    <clipPath id="clip-path">
      <rect id="Rect치ngulo_309870" data-name="Rect치ngulo 309870" width="79.5" height="76.05" fill="none"/>
    </clipPath>
  </defs>
  <g id="Grupo_995478" data-name="Grupo 995478" transform="translate(-1335 -6589)">
    <rect id="Rect치ngulo_309092" data-name="Rect치ngulo 309092" width="85" height="85" transform="translate(1335 6589)" fill="none"/>
    <g id="Grupo_995673" data-name="Grupo 995673" transform="translate(1337.75 6593.475)">
      <g id="Grupo_995673-2" data-name="Grupo 995673" clip-path="url(#clip-path)">
        <path id="Trazado_654377" data-name="Trazado 654377" d="M41.295,74.476c-.218,1.078-.709,1.565-1.578,1.565s-1.363-.49-1.578-1.565A16.02,16.02,0,0,0,32.051,61.65a9.979,9.979,0,0,0-6.229-2.224,2.67,2.67,0,0,1-1.981-.857c-2.154-2.194-4.343-4.351-6.511-6.53a2.7,2.7,0,0,0-2.287-.91A2.5,2.5,0,0,0,12.806,52.9a2.605,2.605,0,0,0,.723,2.833Q17.671,59.863,21.8,64a5.439,5.439,0,0,1,.572.629A1.436,1.436,0,0,1,22.45,66.3a1.477,1.477,0,0,1-1.43.747,1.948,1.948,0,0,1-1.306-.745C16.9,63.492,14.1,60.663,11.27,57.872a12.142,12.142,0,0,1-3.761-9.1c.02-3,.005-5.993,0-8.989a3.188,3.188,0,0,0-.146-1.221A2.187,2.187,0,0,0,5.012,37.2,2.16,2.16,0,0,0,3.131,39.4c-.016,2.764.008,5.528-.008,8.291A22.55,22.55,0,0,0,10.094,64.5c2.884,2.851,5.736,5.734,8.611,8.6a2.249,2.249,0,0,1,.771,1.385,1.58,1.58,0,0,1-1.06,1.481,1.665,1.665,0,0,1-1.81-.555c-3.219-3.247-6.517-6.42-9.662-9.738a24.721,24.721,0,0,1-6.9-16.937c-.075-3.1-.033-6.2-.015-9.3A5.289,5.289,0,1,1,10.6,39.36c.043,3.151.009,6.3.016,9.455,0,.427.04.854.07,1.448a5.964,5.964,0,0,1,3.93-2.2c.447-.045.331-.389.332-.65q.009-3.333,0-6.665c0-4.03-.016-8.06.016-12.09.005-.634-.191-.777-.774-.742-.8.048-1.6,0-2.4.014a1.627,1.627,0,0,1-1.734-1.022,1.592,1.592,0,0,1,.625-1.9q8.387-7.36,16.766-14.728Q32.895,5.5,38.336.713c1.076-.946,1.683-.952,2.76-.006l27.53,24.2c.82.72,1.036,1.288.75,2.005a1.718,1.718,0,0,1-1.889,1.028c-.826-.019-1.654.011-2.48-.011-.378-.01-.538.067-.537.5q.021,9.532.011,19.066c0,.252-.06.538.331.577a5.937,5.937,0,0,1,3.932,2.194c.031-.593.071-1.02.072-1.447.006-3.126-.019-6.252.011-9.377a5.193,5.193,0,0,1,4.626-5.315,5.122,5.122,0,0,1,5.892,4.691,81.247,81.247,0,0,1-.2,12.925A24.893,24.893,0,0,1,71.918,66.3c-3.012,3.053-6.065,6.066-9.09,9.106a1.669,1.669,0,0,1-1.811.554,1.583,1.583,0,0,1-1.061-1.48A2.278,2.278,0,0,1,60.73,73.1c3.109-3.1,6.238-6.183,9.3-9.328a21.443,21.443,0,0,0,5.835-11.23c.832-4.457.336-8.965.408-13.45a2.012,2.012,0,0,0-1.626-1.848,2.16,2.16,0,0,0-2.719,2.232c-.023,3.151-.008,6.3-.008,9.454a11.949,11.949,0,0,1-3.652,8.831c-1.083,1.072-2.156,2.154-3.234,3.232-1.845,1.845-3.682,3.7-5.539,5.529A1.553,1.553,0,1,1,57.3,64.336c.14-.152.291-.293.437-.439q4.027-4.028,8.058-8.052a2.786,2.786,0,0,0,.964-2.267,2.5,2.5,0,0,0-1.7-2.286,2.536,2.536,0,0,0-2.845.645q-3.354,3.33-6.681,6.689a2.452,2.452,0,0,1-1.849.8,9.058,9.058,0,0,0-4.6,1.176c-5.292,3.1-7.612,7.9-7.793,13.88M45.124,26.4c.218-1.179.676-1.567,1.9-1.568q7.907-.006,15.815,0H63.87c-.346-.291-.5-.419-.657-.554Q51.715,14.171,40.231,4.05c-.528-.466-.764-.211-1.13.112Q27.727,14.173,16.343,24.173c-.2.176-.4.35-.756.657H16.6q7.908,0,15.815,0c1.222,0,1.678.386,1.9,1.568-.278,1.162-.739,1.53-1.959,1.531-4.443,0-8.885.027-13.328-.022-.846-.009-.986.256-.982,1.025q.047,8.871,0,17.742c-.008,1.22-.052,2.35,1.262,2.971.154.073.26.248.388.375,1.571,1.571,3.191,3.1,4.694,4.728a4.252,4.252,0,0,0,3.469,1.757,1.274,1.274,0,0,1,.3.066c4.37.879,7.5,3.487,9.9,7.11a27.813,27.813,0,0,1,1.679,3.077,20.542,20.542,0,0,1,1.7-3.147c2.8-4.189,6.527-6.9,11.7-7.275a1.143,1.143,0,0,0,.759-.458c1.481-1.478,2.953-2.964,4.443-4.433a18.733,18.733,0,0,1,2.47-2.34,1.166,1.166,0,0,0,.591-1.115c-.017-6.4-.027-12.81.009-19.214,0-.754-.244-.864-.908-.86-4.468.026-8.937.016-13.405.012-1.221,0-1.685-.372-1.959-1.531" transform="translate(0 0)" fill="#030303"/>
        <path id="Trazado_654378" data-name="Trazado 654378" d="M132.925,156.954c.182-5.983,2.5-10.784,7.793-13.88a9.058,9.058,0,0,1,4.6-1.175,2.452,2.452,0,0,0,1.849-.8q3.318-3.367,6.681-6.689a2.535,2.535,0,0,1,2.845-.645,2.5,2.5,0,0,1,1.7,2.286,2.785,2.785,0,0,1-.964,2.267q-4.04,4.015-8.059,8.052c-.146.146-.3.288-.437.44A1.553,1.553,0,1,0,151.126,149c1.857-1.832,3.694-3.684,5.539-5.529,1.078-1.078,2.151-2.16,3.234-3.232a11.946,11.946,0,0,0,3.652-8.831c0-3.151-.015-6.3.008-9.453a2.16,2.16,0,0,1,2.719-2.232,2.011,2.011,0,0,1,1.626,1.847c-.071,4.485.425,8.993-.407,13.45a21.447,21.447,0,0,1-5.835,11.23c-3.064,3.145-6.193,6.227-9.3,9.328a2.278,2.278,0,0,0-.774,1.383l-18.662-.005" transform="translate(-91.63 -82.478)" fill="#f6d0c7"/>
        <path id="Trazado_654379" data-name="Trazado 654379" d="M26.405,156.955a2.249,2.249,0,0,0-.77-1.385c-2.874-2.861-5.727-5.745-8.611-8.6a22.551,22.551,0,0,1-6.972-16.808c.016-2.764-.008-5.528.008-8.291a2.16,2.16,0,0,1,1.881-2.206,2.188,2.188,0,0,1,2.353,1.368,3.2,3.2,0,0,1,.146,1.221c0,3,.017,5.993,0,8.989a12.14,12.14,0,0,0,3.761,9.1c2.835,2.791,5.631,5.62,8.444,8.434a1.945,1.945,0,0,0,1.306.745,1.476,1.476,0,0,0,1.43-.747,1.436,1.436,0,0,0-.073-1.671,5.467,5.467,0,0,0-.572-.628q-4.135-4.139-8.275-8.274a2.606,2.606,0,0,1-.723-2.833,2.5,2.5,0,0,1,2.236-1.767,2.7,2.7,0,0,1,2.287.91c2.168,2.179,4.358,4.337,6.512,6.53a2.667,2.667,0,0,0,1.981.857,9.979,9.979,0,0,1,6.229,2.224,16.02,16.02,0,0,1,6.087,12.826l-18.663,0" transform="translate(-6.929 -82.474)" fill="#f6d0c7"/>
        <path id="Trazado_654380" data-name="Trazado 654380" d="M85.151,84.976c.274,1.159.738,1.53,1.958,1.531,4.469,0,8.937.014,13.405-.012.664,0,.912.106.908.86-.035,6.4-.026,12.81-.009,19.214a1.166,1.166,0,0,1-.591,1.115,18.71,18.71,0,0,0-2.47,2.339c-1.49,1.468-2.962,2.955-4.443,4.433a1.145,1.145,0,0,1-.759.458c-5.17.376-8.9,3.086-11.7,7.275a20.52,20.52,0,0,0-1.7,3.147,27.871,27.871,0,0,0-1.679-3.077c-2.4-3.623-5.525-6.231-9.9-7.11a1.275,1.275,0,0,0-.3-.066,4.251,4.251,0,0,1-3.469-1.757c-1.5-1.633-3.123-3.157-4.694-4.728-.128-.128-.234-.3-.388-.375-1.314-.62-1.27-1.751-1.262-2.971q.061-8.871,0-17.742c0-.769.136-1.034.982-1.025,4.442.049,8.885.025,13.328.021,1.22,0,1.681-.369,1.959-1.531h3.838c.248,1.018.816,1.558,1.613,1.533s1.314-.548,1.529-1.533h3.833m6.361,15.356a6.864,6.864,0,0,0-3.858-6.116,6.793,6.793,0,0,0-7.38.582c-.4.28-.607.345-1.032.025a7.033,7.033,0,0,0-9.386,10.391c2.312,2.433,4.706,4.79,7.109,7.133a3.922,3.922,0,0,0,5.529.023q3.64-3.535,7.171-7.181a6.918,6.918,0,0,0,1.846-4.858" transform="translate(-40.027 -58.577)" fill="#fdfdfd"/>
        <path id="Trazado_654381" data-name="Trazado 654381" d="M79.711,34.82H75.878c-.187-1.05-.7-1.557-1.566-1.558s-1.358.488-1.576,1.556H68.9c-.222-1.181-.677-1.567-1.9-1.568q-7.908-.006-15.815,0H50.174c.353-.307.556-.481.756-.657q11.381-10,22.758-20.011c.367-.323.6-.578,1.13-.112Q86.287,22.61,97.8,32.7c.153.134.311.263.657.554H97.424q-7.908,0-15.815,0c-1.222,0-1.681.389-1.9,1.568" transform="translate(-34.587 -8.421)" fill="#ed8397"/>
        <path id="Trazado_654382" data-name="Trazado 654382" d="M113.5,119a6.919,6.919,0,0,1-1.846,4.858q-3.539,3.635-7.171,7.18a3.922,3.922,0,0,1-5.529-.023c-2.4-2.343-4.8-4.7-7.109-7.133a7.032,7.032,0,0,1,9.385-10.391c.425.319.631.255,1.032-.025a6.794,6.794,0,0,1,7.38-.582A6.865,6.865,0,0,1,113.5,119m-16.512-3.814a3.84,3.84,0,0,0-3.517,2.284,3.608,3.608,0,0,0,.6,4.247c2.254,2.378,4.607,4.662,6.928,6.976a.966.966,0,0,0,1.5-.024c.261-.249.513-.509.769-.764,1.988-1.99,4-3.955,5.956-5.978a3.906,3.906,0,0,0-.048-5.622,3.959,3.959,0,0,0-5.574.076c-.168.161-.328.329-.494.491-.994.975-1.745.982-2.725.025-.24-.234-.474-.475-.721-.7a3.991,3.991,0,0,0-2.674-1.01" transform="translate(-62.017 -77.248)" fill="#030202"/>
        <path id="Trazado_654383" data-name="Trazado 654383" d="M122.8,81.523c.218-1.068.713-1.556,1.576-1.556s1.379.507,1.566,1.557c-.215.984-.738,1.508-1.529,1.533s-1.365-.515-1.613-1.534" transform="translate(-84.65 -55.124)" fill="#060505"/>
        <path id="Trazado_654384" data-name="Trazado 654384" d="M103.823,122.125a3.991,3.991,0,0,1,2.674,1.01c.247.226.481.467.721.7.98.957,1.731.95,2.725-.025.166-.162.327-.331.494-.491a3.959,3.959,0,0,1,5.574-.076,3.906,3.906,0,0,1,.048,5.622c-1.954,2.022-3.968,3.988-5.956,5.978-.255.255-.507.515-.769.764a.966.966,0,0,1-1.5.024c-2.321-2.313-4.674-4.6-6.928-6.976a3.608,3.608,0,0,1-.6-4.247,3.84,3.84,0,0,1,3.517-2.284" transform="translate(-68.849 -84.185)" fill="#ec8296"/>
      </g>
    </g>
  </g>
</svg>
