<svg xmlns="http://www.w3.org/2000/svg" xmlns:xlink="http://www.w3.org/1999/xlink" width="85" height="85" viewBox="0 0 85 85"><defs><clipPath id="a"><rect width="77.451" height="61.614" fill="none"/></clipPath></defs><g transform="translate(-1335 -6589)"><rect width="85" height="85" transform="translate(1335 6589)" fill="none"/><g transform="translate(1338.775 6600.693)"><g clip-path="url(#a)"><path d="M110.337,48a6.431,6.431,0,0,0-1.287,2.034c-.792-.546-1.2-.516-1.915.169a10.767,10.767,0,0,1-6.743,3.036c-.643.052-.663-.2-.509-.677a2.877,2.877,0,0,1,2.716-1.923,2.721,2.721,0,0,0,2.692-2.783c.02-1.612.016-3.225,0-4.837a2.718,2.718,0,0,0-2.858-2.841c-1.487-.012-2.975-.028-4.461.01-.622.016-.882-.078-.938-.814a5.046,5.046,0,0,0-10.08.093c-.05.874-.536.706-1.032.707-1.494,0-1.494,0-1.5-1.465a2.781,2.781,0,0,0-2.785-3.022,2.818,2.818,0,0,1-2.781-2.8,2.856,2.856,0,0,1,2.8-2.807,2.738,2.738,0,0,0,2.768-2.938c.008-1.562.012-3.124,0-4.686a2.715,2.715,0,0,0-2.86-2.837c-1.512-.011-3.026-.028-4.537.01-.578.015-.825-.074-.849-.743a4.814,4.814,0,0,0-2.19-3.94,5.036,5.036,0,0,0-7.9,3.885c-.052.674-.25.82-.882.8-1.511-.048-3.024-.025-4.537-.013a2.722,2.722,0,0,0-2.85,2.852q-.023,2.381,0,4.762a2.73,2.73,0,0,0,2.711,2.843,3.064,3.064,0,0,1,1.694.559,2.8,2.8,0,0,1-1.483,5.049A2.807,2.807,0,0,0,57.807,38.8c0,1.512-.013,3.023,0,4.535a2.717,2.717,0,0,0,2.714,2.848c2.167.048,4.335.025,6.5.006.851-.008,1.234-.412,1.272-1.265.027-.6-.013-1.212.05-1.811a2.781,2.781,0,0,1,5.508-.137,16.2,16.2,0,0,1,.079,1.883c.03.936.4,1.314,1.351,1.335.63.014,1.26,0,1.89,0,1.492,0,1.492,0,1.5,1.464a2.761,2.761,0,0,0,2.808,2.984,2.777,2.777,0,0,1,2.5,1.673c.4.862.33.963-.624.964q-14.293,0-28.586,0c-.2,0-.4-.031-.6-.047-.381-.92-.8-1.825-1.135-2.762a23.339,23.339,0,0,1-1.3-4.661,5.447,5.447,0,0,0,1.8-1.873A1.034,1.034,0,0,0,53.18,42.5a1.049,1.049,0,0,0-1.432.152c-.177.173-.324.377-.485.567a12.317,12.317,0,0,1-.4-3.1,38.344,38.344,0,0,1,1.194-12.062,10.264,10.264,0,0,0,1.347-.047,1.014,1.014,0,0,0,.919-1.1,1.04,1.04,0,0,0-.939-1.09c-.2-.037-.4-.054-.593-.079a37.033,37.033,0,0,1,8.262-13.648,46.319,46.319,0,0,1,4.761-4.235,11.726,11.726,0,0,1,7.168,1.617,1.926,1.926,0,0,0,2.339-.045,11.143,11.143,0,0,1,7.006-1.972,12.015,12.015,0,0,1,11.107,8.055,1.563,1.563,0,0,0,1.491,1.126,12.744,12.744,0,0,1,7.7,3.468c.344.318.378.5-.035.777a8.416,8.416,0,0,1-2.677,1.18c-1.667.419-3.394.443-5.077.754a6.091,6.091,0,0,0-4.2,2.424,1.163,1.163,0,0,0,.133,1.738,1.13,1.13,0,0,0,1.684-.393,3.5,3.5,0,0,1,1.956-1.334,20.823,20.823,0,0,1,2.825-.482c.5-.074.655.122.741.566a7.223,7.223,0,0,1-.395,4.724,1.131,1.131,0,0,0,.129,1.336,1.083,1.083,0,0,0,1.1.349,1.261,1.261,0,0,0,.891-.844,8.962,8.962,0,0,0,.511-5.834c-.13-.6.047-.767.578-.9a8.089,8.089,0,0,0,3.179-1.512c.414-.331.582-.257.823.162a12.733,12.733,0,0,1,1.491,9.457,1.565,1.565,0,0,0,.508,1.678,10.621,10.621,0,0,1,2.993,12.274c-.334.922-.236,1.237.554,1.782" transform="translate(-35.409 -5.176)" fill="#f2b5bd"/><path d="M15.854,44.874c.161-.19.308-.394.485-.567a1.049,1.049,0,0,1,1.432-.152,1.035,1.035,0,0,1,.371,1.446,5.447,5.447,0,0,1-1.8,1.873,10.032,10.032,0,0,1-3.3,1.008c-.9.129-1.8.212-2.7.336A8.584,8.584,0,0,0,5.515,50.75c-.356.322-.4.526-.037.885A10.627,10.627,0,0,0,9.917,54.4c2.907.884,5.892.5,8.853.5.2.016.4.047.6.047q14.293,0,28.586,0c.954,0,1.023-.1.624-.963a2.777,2.777,0,0,0-2.5-1.673,2.761,2.761,0,0,1-2.808-2.983c-.012-1.464-.012-1.464-1.5-1.464-.63,0-1.26.011-1.891,0-.947-.021-1.32-.4-1.351-1.334a16.074,16.074,0,0,0-.079-1.883,2.781,2.781,0,0,0-5.508.138c-.063.6-.023,1.208-.05,1.811-.039.852-.421,1.257-1.272,1.264-2.168.019-4.336.042-6.5-.006A2.717,2.717,0,0,1,22.4,45c-.016-1.512-.006-3.023,0-4.535a2.807,2.807,0,0,1,2.925-3.119,2.8,2.8,0,0,0,1.483-5.049,3.065,3.065,0,0,0-1.694-.559A2.73,2.73,0,0,1,22.4,28.892q-.024-2.381,0-4.762a2.722,2.722,0,0,1,2.85-2.852c1.512-.012,3.026-.035,4.537.012.632.02.83-.125.882-.8a5.036,5.036,0,0,1,7.9-3.885,4.814,4.814,0,0,1,2.19,3.941c.024.668.271.757.849.743,1.511-.039,3.025-.022,4.537-.011a2.715,2.715,0,0,1,2.86,2.837c.014,1.562.009,3.124,0,4.686A2.737,2.737,0,0,1,46.24,31.74a2.856,2.856,0,0,0-2.8,2.807,2.819,2.819,0,0,0,2.781,2.8,2.781,2.781,0,0,1,2.786,3.021c.009,1.467.009,1.469,1.5,1.466.5,0,.983.166,1.032-.707a5.045,5.045,0,0,1,10.08-.093c.057.736.316.83.939.814,1.486-.038,2.974-.022,4.461-.009a2.718,2.718,0,0,1,2.858,2.84c.014,1.612.018,3.225,0,4.837A2.721,2.721,0,0,1,67.19,52.3a2.877,2.877,0,0,0-2.715,1.924c-.154.479-.134.729.509.677a10.766,10.766,0,0,0,6.743-3.037c.719-.684,1.123-.715,1.915-.169a1.322,1.322,0,0,1-.333,1.809c-2.018,1.965-4.21,3-8.007,3.7a2.534,2.534,0,0,0,1.643.7,2.8,2.8,0,0,1,2.941,3.172c0,1.486.01,2.973,0,4.459a2.722,2.722,0,0,1-2.763,2.875c-2.142.054-4.285.031-6.428.01-.886-.008-1.257-.432-1.289-1.324a12.07,12.07,0,0,0-.076-1.96,2.78,2.78,0,0,0-2.875-2.268,2.743,2.743,0,0,0-2.633,2.449c-.063.573-.03,1.157-.048,1.736-.029.938-.412,1.361-1.331,1.369-2.118.019-4.236.039-6.352-.007a2.744,2.744,0,0,1-2.812-2.911c-.012-1.487,0-2.973,0-4.46a2.8,2.8,0,0,1,2.9-3.137,2.38,2.38,0,0,0,1.52-.589,1.717,1.717,0,0,0-.931-.1q-16.449-.007-32.9,0A13.239,13.239,0,0,1,3.814,53.141a13.147,13.147,0,0,1,.1-18.61.952.952,0,0,0,.306-.928,15.024,15.024,0,0,1,12.1-17.358,2.139,2.139,0,0,0,1.714-1.265,13.705,13.705,0,0,1,4.048-4.719c.817-.617,1.131-.609,1.926.033a1.333,1.333,0,0,1-.58,1.807,12.082,12.082,0,0,0-3.948,5.054,1.692,1.692,0,0,1-1.58,1.145,12.667,12.667,0,0,0-8.982,4.964c-.254.321-.346.532.025.861a12.314,12.314,0,0,0,8.446,3.268c.2.026.4.042.594.08a1.04,1.04,0,0,1,.939,1.09,1.014,1.014,0,0,1-.919,1.1,10.266,10.266,0,0,1-1.347.047,22.256,22.256,0,0,1-3.257-.581,5.432,5.432,0,0,0,1.053,3.938c.488.753.439,1.388-.139,1.791s-1.219.225-1.73-.5a8.168,8.168,0,0,1-1.5-5.486.744.744,0,0,0-.493-.862,10.255,10.255,0,0,1-2.62-1.765c-.544-.514-.673-.26-.863.261a12.224,12.224,0,0,0-.57,7.044,2.158,2.158,0,0,1-.772,2.366A10.67,10.67,0,0,0,3.445,48.7c.255.507.405.537.83.159A8.435,8.435,0,0,1,7.939,47c.468-.115.567-.28.465-.77A9.071,9.071,0,0,1,8.9,40.255c.366-.759.941-1.024,1.571-.746a1.144,1.144,0,0,1,.494,1.659,7.492,7.492,0,0,0-.309,4.8c.072.357.222.511.611.443.841-.147,1.7-.22,2.531-.4a3.2,3.2,0,0,0,2.058-1.14m20.76-26.7a2.719,2.719,0,0,0-3.68,2.566c-.013.377,0,.756-.005,1.133-.012,1.292-.392,1.677-1.666,1.678-1.915,0-3.83.015-5.744-.008-.614-.007-.867.221-.858.841.022,1.435.015,2.871,0,4.306,0,.531.211.749.757.8a5.066,5.066,0,0,1,.018,10.12c-.571.017-.788.3-.779.865q.035,2.153,0,4.306c-.009.586.25.832.808.832,1.537,0,3.074,0,4.611,0,.325,0,.511-.069.525-.453a5.3,5.3,0,0,1,3.137-4.784l.508-.141a5.073,5.073,0,0,1,6.465,4.112c.19,1.258.19,1.258,1.528,1.258,1.006,0,1.006,0,1.032-.98a2.749,2.749,0,0,1,2.47-2.774c1-.081,1-.081,1-1.093,0-1.068,0-1.067-1.082-1.166a3.641,3.641,0,0,1-.52-.087,5.068,5.068,0,0,1,.728-10c.707-.057.9-.329.883-.983-.034-1.309-.009-2.62-.011-3.93,0-1.019-.023-1.04-1.079-1.04-1.915,0-3.831.008-5.747,0-.944-.005-1.336-.39-1.377-1.309-.025-.553-.006-1.11-.058-1.661a2.578,2.578,0,0,0-1.865-2.4m18,42.77a11,11,0,0,1,1.621-.338,5.061,5.061,0,0,1,5.412,4.9c.04.515.171.679.7.666,1.461-.036,2.923-.028,4.384-.006.635.009.916-.212.895-.883-.038-1.157-.01-2.317-.01-3.475,0-1.422,0-1.422-1.412-1.694-.049-.009-.1-.027-.146-.038a5.069,5.069,0,0,1,.718-10.013c.662-.057.866-.295.85-.928-.033-1.359-.042-2.721,0-4.08.024-.722-.212-.98-.95-.963-1.939.042-3.88.019-5.821.012-1.067,0-1.439-.388-1.451-1.463,0-.428.021-.858-.01-1.284a2.7,2.7,0,0,0-1.9-2.626,2.735,2.735,0,0,0-3.689,2.406c-.037.476-.014.956-.022,1.434-.02,1.156-.4,1.533-1.556,1.535-1.965,0-3.929.011-5.893,0-.53,0-.8.171-.795.735.013,1.485.011,2.97,0,4.456,0,.494.187.74.707.756a4.958,4.958,0,0,1,1.116.173A5.126,5.126,0,0,1,51.1,55.517a5.045,5.045,0,0,1-4.669,4.637c-.685.045-.917.31-.9.98.036,1.384.029,2.769,0,4.153-.012.6.2.886.826.88,1.536-.015,3.073-.009,4.609,0,.321,0,.516-.051.526-.444a5.242,5.242,0,0,1,3.122-4.782" transform="translate(0 -6.833)" fill="#040303"/><path d="M135.3,42.829c-.79-.545-.888-.86-.554-1.782a10.621,10.621,0,0,0-2.993-12.274,1.565,1.565,0,0,1-.508-1.678,12.733,12.733,0,0,0-1.491-9.457c-.241-.419-.409-.492-.823-.162a8.089,8.089,0,0,1-3.179,1.512c-.531.129-.708.3-.578.9a8.962,8.962,0,0,1-.511,5.834,1.261,1.261,0,0,1-.891.844,1.083,1.083,0,0,1-1.1-.349,1.131,1.131,0,0,1-.129-1.336,7.223,7.223,0,0,0,.395-4.724c-.086-.444-.239-.64-.741-.566a20.823,20.823,0,0,0-2.825.482,3.5,3.5,0,0,0-1.956,1.334,1.13,1.13,0,0,1-1.684.393,1.163,1.163,0,0,1-.133-1.738,6.091,6.091,0,0,1,4.2-2.424c1.684-.312,3.41-.335,5.077-.754a8.416,8.416,0,0,0,2.677-1.18c.413-.278.378-.459.035-.777a12.744,12.744,0,0,0-7.7-3.468,1.563,1.563,0,0,1-1.491-1.126,12.014,12.014,0,0,0-11.107-8.055,11.143,11.143,0,0,0-7.006,1.972,1.926,1.926,0,0,1-2.339.045,11.726,11.726,0,0,0-7.168-1.617,8.284,8.284,0,0,0-2.525.385,1.227,1.227,0,0,1-1.619-.7c-.053-.943.174-1.274,1.087-1.508A14.951,14.951,0,0,1,98.5,2a1.046,1.046,0,0,0,1.16-.036,14.451,14.451,0,0,1,20.48,6.643,1.1,1.1,0,0,0,1,.724,15.174,15.174,0,0,1,12.621,13.284,14.881,14.881,0,0,1-.157,4.209.943.943,0,0,0,.358.913c3.907,4.112,4.8,8.843,2.893,14.146a1.233,1.233,0,0,1-1.556.946" transform="translate(-60.371 0)" fill="#040303"/><path d="M46.242,7.785a1.228,1.228,0,0,0,1.619.7A8.274,8.274,0,0,1,50.386,8.1a46.281,46.281,0,0,0-4.761,4.235,37.035,37.035,0,0,0-8.262,13.648,12.313,12.313,0,0,1-8.446-3.268c-.371-.33-.279-.54-.025-.861a12.667,12.667,0,0,1,8.982-4.964,1.692,1.692,0,0,0,1.58-1.145A12.079,12.079,0,0,1,43.4,10.693a1.334,1.334,0,0,0,.58-1.807,13.86,13.86,0,0,1,2.259-1.1" transform="translate(-19.98 -5.426)" fill="#ee929d"/><path d="M21.069,82.042a3.2,3.2,0,0,1-2.058,1.14c-.833.181-1.69.254-2.531.4-.389.068-.539-.085-.611-.443a7.493,7.493,0,0,1,.31-4.8,1.144,1.144,0,0,0-.494-1.659c-.63-.278-1.205-.012-1.571.746a9.074,9.074,0,0,0-.5,5.976c.1.489,0,.655-.465.77A8.434,8.434,0,0,0,9.49,86.027c-.425.378-.575.348-.83-.159a10.67,10.67,0,0,1,2.308-12.779,2.158,2.158,0,0,0,.772-2.366,12.226,12.226,0,0,1,.569-7.044c.19-.521.319-.775.863-.261a10.262,10.262,0,0,0,2.62,1.765.744.744,0,0,1,.493.862,8.171,8.171,0,0,0,1.5,5.486c.511.721,1.153.9,1.73.5s.628-1.037.139-1.791A5.431,5.431,0,0,1,18.605,66.3a22.22,22.22,0,0,0,3.257.581,38.342,38.342,0,0,0-1.194,12.062,12.331,12.331,0,0,0,.4,3.1" transform="translate(-5.214 -44.001)" fill="#ed919c"/><path d="M30.79,141.518c-2.961,0-5.945.389-8.853-.5a10.624,10.624,0,0,1-4.44-2.766c-.359-.359-.319-.563.037-.885a8.587,8.587,0,0,1,4.826-1.932c.9-.124,1.8-.207,2.7-.335a10.046,10.046,0,0,0,3.3-1.008,23.338,23.338,0,0,0,1.3,4.661c.332.937.753,1.842,1.135,2.762" transform="translate(-12.02 -93.454)" fill="#e58e98"/><path d="M180.294,105.253a2.7,2.7,0,0,1,1.9,2.626c.03.426,0,.856.01,1.284.012,1.076.384,1.459,1.451,1.463,1.94.007,3.881.03,5.821-.012.739-.016.974.242.95.963-.045,1.359-.036,2.72,0,4.08.015.633-.189.871-.85.928a5.069,5.069,0,0,0-.717,10.013c.049.012.1.028.146.038,1.412.271,1.412.271,1.412,1.693,0,1.159-.027,2.318.01,3.476.022.67-.26.892-.895.883-1.461-.022-2.924-.03-4.385.006-.526.013-.657-.151-.7-.666a5.062,5.062,0,0,0-5.412-4.9,11,11,0,0,0-1.621.338A19.645,19.645,0,0,1,176.2,121c-.011-1.2.008-2.4.116-3.607a32.19,32.19,0,0,1,1.194-6.4,23.875,23.875,0,0,1,2.78-5.735" transform="translate(-122.799 -73.353)" fill="#ee929d"/><path d="M111.37,37.41a2.578,2.578,0,0,1,1.865,2.4c.052.551.033,1.107.058,1.661.042.919.433,1.3,1.377,1.309,1.916.011,3.831,0,5.747,0,1.056,0,1.078.021,1.079,1.04,0,1.31-.023,2.621.01,3.93.017.655-.176.926-.883.983a5.068,5.068,0,0,0-.728,10,3.633,3.633,0,0,0,.52.087c1.08.1,1.08.1,1.082,1.166,0,1.012,0,1.012-1,1.093a2.749,2.749,0,0,0-2.47,2.774c-.027.98-.027.98-1.032.98-1.338,0-1.338,0-1.528-1.258A5.073,5.073,0,0,0,109,59.472l-.507.141a20.621,20.621,0,0,1-1.224-6.465,33.158,33.158,0,0,1,.326-5.625,28.443,28.443,0,0,1,1.268-5.245,26.835,26.835,0,0,1,2.5-4.869" transform="translate(-74.755 -26.072)" fill="#686eab"/><path d="M162.2,104.88a23.874,23.874,0,0,0-2.78,5.735,32.189,32.189,0,0,0-1.194,6.4c-.109,1.206-.128,2.4-.116,3.607a19.645,19.645,0,0,0,1.213,6.463,5.242,5.242,0,0,0-3.122,4.781c-.009.393-.2.446-.526.444-1.536-.008-3.073-.014-4.609,0-.623.006-.837-.277-.826-.88.026-1.384.034-2.77,0-4.153-.018-.671.215-.936.9-.981a5.044,5.044,0,0,0,4.669-4.637,5.126,5.126,0,0,0-3.738-5.295,4.96,4.96,0,0,0-1.116-.173c-.52-.016-.711-.262-.707-.756.01-1.485.012-2.97,0-4.456-.005-.564.265-.739.795-.735,1.965.015,3.929.009,5.894,0,1.159,0,1.536-.379,1.556-1.535.008-.478-.015-.958.022-1.434a2.735,2.735,0,0,1,3.689-2.406" transform="translate(-104.703 -72.981)" fill="#d66371"/><path d="M93.319,37.056a26.834,26.834,0,0,0-2.5,4.869,28.444,28.444,0,0,0-1.268,5.245,33.158,33.158,0,0,0-.326,5.625,20.62,20.62,0,0,0,1.224,6.465,5.3,5.3,0,0,0-3.137,4.784c-.014.385-.2.455-.525.453-1.537-.008-3.074,0-4.611,0-.558,0-.817-.246-.808-.832q.034-2.153,0-4.306c-.009-.569.208-.848.779-.865a5.066,5.066,0,0,0-.018-10.12c-.546-.047-.761-.265-.757-.8.012-1.435.019-2.871,0-4.306-.009-.619.243-.848.858-.84,1.915.022,3.83.01,5.745.008,1.274,0,1.654-.387,1.666-1.678,0-.378-.007-.756.005-1.133a2.719,2.719,0,0,1,3.68-2.566" transform="translate(-56.705 -25.718)" fill="#4c5691"/></g></g></g></svg>