<svg xmlns="http://www.w3.org/2000/svg" width="85" height="85" viewBox="0 0 85 85">
  <g id="Grupo_996135" data-name="Grupo 996135" transform="translate(-1335 -6589)">
    <rect id="Rectángulo_309092" data-name="Rectángulo 309092" width="85" height="85" transform="translate(1335 6589)" fill="none"/>
    <g id="Grupo_996136" data-name="Grupo 996136" transform="translate(1350.096 6594.324)">
      <path id="Trazado_658975" data-name="Trazado 658975" d="M207.662,74.215a1.19,1.19,0,0,1-1.356,1.015c-1.667-.02-3.336-.006-5-.006-1.868,0-2.335-.412-2.57-2.313a4.945,4.945,0,0,1-1.26.65,2.893,2.893,0,0,1-2.826-.691c-1.028-.989-2.044-1.991-3.024-3.028a2.843,2.843,0,0,1-.161-3.889.654.654,0,0,0,.045-.867,11.534,11.534,0,0,1-1.3-4.487,1.6,1.6,0,0,1,1.78-1.973c.723-.015,1.618.286,2.118-.114s.591-1.278.846-1.953c.929-2.456,1.845-4.919,2.783-7.371a1.107,1.107,0,0,0-.036-1.07,2.416,2.416,0,0,1-.025-2.426c.734-1.412,1.473-2.822,2.242-4.215a2.558,2.558,0,0,1,2.52-1.38,1.015,1.015,0,0,0,.692-.1,9.6,9.6,0,0,1,4.218-1.553c.052-.278-.161-.366-.277-.494a10.58,10.58,0,0,1-2.049-3.3.713.713,0,0,0-.759-.569c-3.23-.1-5.063-2.063-5.095-5.325-.014-1.48.015-2.984,1.12-4.069a2.926,2.926,0,0,0,.81-2.383,23.575,23.575,0,0,1,.315-5.776.519.519,0,0,0-.208-.558c-.395-.391-.8-.776-1.175-1.184a1.08,1.08,0,1,1,1.518-1.534,10.8,10.8,0,0,1,.723.82,11.856,11.856,0,0,1,3.49-4.142A14.912,14.912,0,0,1,207.229,9a.5.5,0,0,0,.3-.674,5.749,5.749,0,0,1,5.819-7.4,29.777,29.777,0,0,1,5.137.115A5.7,5.7,0,0,1,223,8.165c-.141.519,0,.7.431.921,1.206.631,1.194.654,2.172-.32.36-.358.705-.733,1.083-1.071a1.077,1.077,0,0,1,1.541,1.5c-.519.573-1.072,1.116-1.634,1.647-.273.257-.348.422-.058.752a10.9,10.9,0,0,1,2.69,5.749c.057.392.232.524.623.5a13.27,13.27,0,0,1,1.522,0,1.071,1.071,0,0,1,.06,2.14,13.46,13.46,0,0,1-1.593.026c-.344-.009-.465.111-.459.46.019.991.015,1.983,0,2.974a.734.734,0,0,0,.282.619,4.822,4.822,0,0,1,1.642,4.082c-.029.574.145.741.712.862a9.555,9.555,0,0,1,7.68,6.963A9.457,9.457,0,0,1,237,45.917c-.255.252-.384.387-.1.731a20.25,20.25,0,0,1,3.9,8.154c.116.46.272.658.805.655C243.885,55.441,245,56.6,245,58.9c0,1.185.013,2.37,0,3.555a2.921,2.921,0,0,1-2.6,2.987c-.523.064-.6.231-.589.694a8.54,8.54,0,0,1-3.573,7.453,8.027,8.027,0,0,1-4.861,1.626c-7.155.018-14.31,0-21.466.015a1.194,1.194,0,0,1-1.355-1.014c.178-.931.456-1.165,1.415-1.168,1.042,0,2.083,0,3.243,0l-4.339-6.157a11.956,11.956,0,0,1-6.037,4.007,14.585,14.585,0,0,1-2.921.4c-.952.009-.952.009-.95.965a1.593,1.593,0,0,1,0,.217c-.058.426.091.6.551.582,1.106-.038,2.213-.024,3.32-.032.478.007.957.015,1.435.021.943.01,1.221.241,1.4,1.169m5.219-28.958.164.036-.061-.143c-.668-1.186-1.415-2.337-1.979-3.572a1.562,1.562,0,0,0-1.976-1,6.944,6.944,0,0,0-3.8.742l1.913.946,5.733,2.99M197.426,71.015c.481-.464.968-.922,1.441-1.394a.792.792,0,0,0,0-1.258c-.866-.859-1.741-1.711-2.611-2.566-.585-.626-.931-.657-1.5-.11-.485.469-.952.955-1.433,1.428a.841.841,0,0,0,0,1.369c.892.879,1.764,1.778,2.66,2.653.528.516.879.474,1.44-.123m42.794-13.357c-1.207-.1-1.42.09-1.422,1.28q0,1.522,0,3.045c0,1.167.227,1.373,1.426,1.3.577.009,1.155.036,1.732.022a.8.8,0,0,0,.861-.862q.018-1.988,0-3.976a.777.777,0,0,0-.866-.845c-.576,0-1.153.023-1.73.035M201.96,54.3l-2.472-3.6c-.991,2.626-1.921,5.1-2.858,7.569-.13.343.064.365.311.362l3.393-.044h4.63a2.839,2.839,0,0,0-.158-.307q-1.42-1.993-2.846-3.984M213.537,3.137c-.191-.011-.383-.034-.574-.03a3.659,3.659,0,0,0-3.483,4.1c.077.556.3.81.9.674.56-.127,1.134-.19,1.7-.28,2.79.135,5.6-.219,8.375.31.376.071.426-.2.488-.473a3.587,3.587,0,0,0-3.28-4.316c-1.371-.069-2.749,0-4.124.013m-9,45.531c.28-.473.558-.947.84-1.418.107-.179.158-.324-.07-.474a1.031,1.031,0,0,1-.4-1.491,1.016,1.016,0,0,1,1.429-.412c.157.069.325.138.408-.1s-.11-.283-.254-.355c-.555-.277-1.112-.55-1.668-.825-.718-.39-1.442-.769-2.151-1.174-.47-.269-.746-.124-.981.329q-.949,1.831-1.942,3.637a.837.837,0,0,0,.035,1q3.849,5.438,7.676,10.89a.647.647,0,0,0,.575.362c1.06-.028,2.121-.038,3.181-.055.119.017.237.042.355.048,1.323.062,1.843.672,1.716,2.009-.034.36-.054.721-.079,1.082a14.539,14.539,0,0,1-.841,2.6.927.927,0,0,0,.128,1.109c1.617,2.258,3.252,4.505,4.778,6.825a1.738,1.738,0,0,0,1.812.8c.289-.015.424-.141.353-.395-.086-.3.291-.806-.269-.895a1.121,1.121,0,0,1-1.09-.974c-.091-.622.309-.974.816-1.226.375.062.6-.021.557-.479-.035-.359.009-.725-.01-1.086-.1-1.849.22-2.51,2.347-2.36.377.026.612-.036.712-.474a.94.94,0,0,1,1.033-.729.927.927,0,0,1,.994.781c.076.551.436.439.736.406.338-.036.824.274.93-.428a.935.935,0,0,1,1.014-.761.911.911,0,0,1,.991.686c.109.523.406.556.818.52a7.067,7.067,0,0,1,.724,0,1.365,1.365,0,0,1,1.534,1.509c.018.628.012,1.256,0,1.884-.006.312,0,.526.425.571a1,1,0,0,1,.947,1.088,1.008,1.008,0,0,1-.993,1.046c-.275.026-.358.114-.382.387-.079.885-.056.925.848.926h.652c4.189,0,6.914-2.785,6.868-6.983,0-.409-.091-.555-.522-.639a2.947,2.947,0,0,1-2.5-3.08c-.008-.58-.023-1.161.006-1.739a.676.676,0,0,0-.437-.73c-.8-.39-1.589-.81-2.379-1.223-.863-.452-.98-.7-.828-1.681a1.266,1.266,0,0,1,1.8-.284c.5.291,1.027.536,1.533.816.244.135.407.188.528-.154a2.781,2.781,0,0,1,1.606-1.676c.278-.118.279-.24.213-.491a18.9,18.9,0,0,0-3.491-7.247c-.426-.525-.648-.374-.926.123-.682,1.222-1.379,2.437-2.1,3.636a1.849,1.849,0,0,1-3.332,0c-.523-.868-1.014-1.756-1.524-2.631-.118-.2-.218-.4-.5-.477-1.672-.449-1.835-.391-2.734,1.1-.112.186-.208.383-.333.56-.275.386-.189.6.242.818,1.893.96,3.757,1.978,5.656,2.927a1.352,1.352,0,0,1,.871,1.678c-.684.687-.966.735-1.843.279Q223.323,53.184,218,50.414c-.238-.123-.469-.362-.71.053-.193.332-.11.477.173.692a.97.97,0,0,1,.3,1.291.932.932,0,0,1-1.194.563c-.569-.219-.767.034-.959.465-.1.219-.24.419-.348.633-.841,1.672-1.392,2.266-3.352.974-.286-.188-.5-.261-.787.069a.946.946,0,0,1-1.254.18.972.972,0,0,1-.531-1.159c.248-.858-.572-.719-.9-1.018-.4-.359-.489.169-.71.318-1.059.328-1.884-.187-1.659-1.1.125-.5-.091-.634-.424-.81a8.954,8.954,0,0,1-.932-.542,1.317,1.317,0,0,1-.481-1.709c.093-.218.2-.431.3-.646M231.82,31.219a7.625,7.625,0,0,0-9,5.374,16.21,16.21,0,0,0-.206,5.908A4.314,4.314,0,0,0,226,46.219a13.26,13.26,0,0,0,4.66.176,7.672,7.672,0,0,0,1.162-15.175M207,20.4a11.447,11.447,0,0,0,2.161-.93,1.377,1.377,0,0,1,1.847.325c.1,1.016-.035,1.259-.946,1.684-.346.162-.689.333-1.032.5-.708.3-1.406.628-2.126.893-.423.156-.5.412-.5.822.019,1.959.007,3.917.009,5.875a15.646,15.646,0,0,0,.145,2.674c.841,4.854,6.1,8.252,10.7,6.9a7.446,7.446,0,0,0,2.665-1.062,1.038,1.038,0,0,0,.549-.864,9.207,9.207,0,0,1,1.889-4.477c.242-.316.5-.62.838-1.036-.451,0-.779.009-1.106,0a1.075,1.075,0,0,1-1.181-1.084,1.091,1.091,0,0,1,1.189-1.088c.459-.016.92.016,1.377-.012.205-.013.516.174.6-.188.078-.337-.21-.37-.43-.462a1.052,1.052,0,0,1-.723-1.059.969.969,0,0,1,.784-1c.366-.079.383-.249.382-.539-.008-2.054,0-4.108-.008-6.163a1.64,1.64,0,0,0-1.833-1.842c-.773-.019-1.547.025-2.319-.01a8.028,8.028,0,0,0-4.747.914c-.655.4-1.2.086-1.623-.475a1.124,1.124,0,0,1,.515-1.38,9.046,9.046,0,0,1,2.871-1.151,27.32,27.32,0,0,1,6.063,0,3.68,3.68,0,0,1,3.26,3.733c.012.773,0,1.546,0,2.319,0,.31-.066.629.438.641s.466-.284.465-.61c0-1.16.01-2.319-.008-3.479a9.252,9.252,0,0,0-6.729-8.563c-2.659-.694-5.371-.359-8.065-.349-.237.018-.475.027-.71.055a9.057,9.057,0,0,0-7.826,6.08c-.833,2.09-.581,4.318-.6,6.5,0,.237.113.373.351.346s.557.138.645-.266a2.071,2.071,0,0,1,1.332-1.5A5.774,5.774,0,0,0,207,20.4m2.774,44.119a1.27,1.27,0,0,0-.794-.1c-1.28-.013-2.561,0-3.841-.019a1,1,0,0,1-1.044-.736,1.049,1.049,0,0,1,.334-1.179,1.364,1.364,0,0,1,.961-.235c1.643,0,3.286-.015,4.928.005.848.011.617-.682.7-1.093.118-.566-.4-.337-.642-.338-3-.018-5.991-.012-8.987-.011-2.778,0-5.556.013-8.334,0-.475,0-.666.115-.55.608a12.753,12.753,0,0,0,.672,2.135c.156.363.269.32.56.131a2.935,2.935,0,0,1,3.943.419c.861.848,1.7,1.718,2.567,2.558a3.23,3.23,0,0,1,1.076,2.071c.022.258.079.394.376.389a8.753,8.753,0,0,0,4.895-1.448c-.5-.069-1-.052-1.5-.073-.791-.034-1.237-.467-1.207-1.138.029-.636.466-1.007,1.244-1.016,1.111-.012,2.226-.054,3.333.014a1.167,1.167,0,0,0,1.3-.945m15.5,8.526v0c1.064,0,2.128.01,3.191-.008.222,0,.631.168.6-.267-.026-.359.334-.883-.353-1.063a1.017,1.017,0,0,1-.81-1.068,1,1,0,0,1,.789-1.007.447.447,0,0,0,.4-.55c-.022-.264-.007-.531,0-.8s.01-.477-.36-.479c-.3,0-.4.085-.451.394a1,1,0,0,1-1.089.946.976.976,0,0,1-1.046-.98c-.037-.5-.392-.379-.625-.336-.322.059-.835-.318-.943.3a1.043,1.043,0,0,1-1.1,1.017,1.006,1.006,0,0,1-1.064-.976c-.06-.481-.373-.389-.625-.324-.286.073-.182.378-.152.559.065.389-.281.928.236,1.146.546.23.942.511.928,1.136a1.11,1.11,0,0,1-.917,1.062c-.539.177-.2.658-.243.994-.052.4.3.287.514.289,1.04.01,2.079,0,3.118,0M216.2,47.016c1.636.853,3.3,1.712,4.958,2.59.3.161.411.039.553-.209a18.459,18.459,0,0,1,1.069-1.718c.265-.364.189-.545-.121-.823a6.8,6.8,0,0,1-2.326-5.4,1.416,1.416,0,0,0-.141-.959c-1.43,2.122-2.411,4.448-3.992,6.52m-2.776,3.776a1.062,1.062,0,0,1,1.339-1.1c.427.1.563-.059.682-.371.148-.387-.235-.354-.4-.439q-2.872-1.517-5.765-2.993c-.174-.089-.347-.395-.6-.088s.06.406.2.571a1.014,1.014,0,0,1,.146,1.266.942.942,0,0,1-1.156.511c-.416-.145-.563.032-.714.339-.106.216-.235.42-.342.636s-.4.412.021.631c.281.147.451.241.685-.113a.976.976,0,0,1,1.4-.292.957.957,0,0,1,.454,1.3c-.31.667.294.637.57.823.252.17.525.522.862-.005a.948.948,0,0,1,1.341-.309,1.027,1.027,0,0,1,.508,1.351,2.189,2.189,0,0,0-.114.262c-.055.278.217.278.358.373.094.063.238.235.359.032a9.885,9.885,0,0,0,.734-1.324c.115-.285-.339-.343-.42-.591-.059-.182-.123-.362-.16-.471m-9.166-22.327h-.023c0-.967-.034-1.936.013-2.9.027-.552-.211-.589-.639-.514a2.68,2.68,0,0,0-2.247,2.491,15.247,15.247,0,0,0,0,1.885,2.655,2.655,0,0,0,2.424,2.466c.388.036.5-.049.481-.454-.036-.99-.011-1.982-.011-2.973m24.872-.6a2.737,2.737,0,0,0-2.278-2.818c-.395-.064-.646-.031-.6.483a8.393,8.393,0,0,1,0,1.444c-.032.4.155.545.5.645a19.125,19.125,0,0,1,1.847.612c.512.21.59,0,.532-.365M215.245,44.621l1.822-3.168a16.014,16.014,0,0,1-3.62.045l1.8,3.123m14.329,4.042.89,1.548a8.911,8.911,0,0,0,.914-1.654l-1.8.107" transform="translate(-190.195 -0.878)" fill="#030302"/>
      <path id="Trazado_658976" data-name="Trazado 658976" d="M221.42,136.277c-.178-.928-.456-1.159-1.4-1.168-.479-.005-.957-.014-1.435-.021q0-1.065,0-2.129a11.95,11.95,0,0,0,6.037-4.007l4.339,6.157c-1.16,0-2.2,0-3.243,0-.959,0-1.237.237-1.415,1.168a18.284,18.284,0,0,0-2.885,0" transform="translate(-203.952 -62.941)" fill="#91cc6e"/>
      <path id="Trazado_658977" data-name="Trazado 658977" d="M249.469,103.375c-.152.985-.035,1.229.828,1.681.79.413,1.577.833,2.379,1.223a.676.676,0,0,1,.437.73c-.029.578-.014,1.159-.006,1.739a2.947,2.947,0,0,0,2.5,3.08c.43.084.518.23.522.639.046,4.2-2.68,6.979-6.868,6.982h-.652c-.9,0-.927-.04-.848-.926.024-.272.107-.36.382-.387a1.008,1.008,0,0,0,.993-1.046,1,1,0,0,0-.947-1.088c-.429-.045-.43-.258-.425-.571.011-.628.016-1.257,0-1.884a1.364,1.364,0,0,0-1.534-1.509,6.928,6.928,0,0,0-.724,0c-.413.036-.709,0-.818-.52a.91.91,0,0,0-.991-.685.934.934,0,0,0-1.014.761c-.106.7-.593.393-.93.429-.3.032-.66.145-.736-.406a.926.926,0,0,0-.994-.781.94.94,0,0,0-1.033.729c-.1.438-.335.5-.712.474-2.127-.149-2.446.511-2.347,2.36.02.361-.025.727.01,1.086.044.458-.182.541-.557.478a.6.6,0,0,0-.047-.209c-1.528-2.178-3.041-4.366-4.608-6.515-.291-.4-.409-1.01-1.033-1.118.026-.361.045-.722.079-1.082.127-1.337-.393-1.946-1.716-2.009-.119-.005-.237-.031-.355-.047q-.26-.388-.519-.776c-.969-1.459-2.072-2.824-2.968-4.332.222-.149.315-.676.71-.317.33.3,1.15.16.9,1.018a.972.972,0,0,0,.531,1.159.946.946,0,0,0,1.254-.18c.286-.33.5-.257.787-.069,1.961,1.292,2.512.7,3.352-.974.108-.215.25-.414.348-.633.192-.432.39-.684.959-.465a.933.933,0,0,0,1.194-.563.971.971,0,0,0-.3-1.291c-.282-.215-.366-.36-.173-.692.242-.415.473-.176.71-.053q5.322,2.765,10.641,5.536c.877.456,1.159.408,1.843-.279l2.5,1.3" transform="translate(-206.68 -47.281)" fill="#f0c443"/>
      <path id="Trazado_658978" data-name="Trazado 658978" d="M226.734,38.289c.344-.167.686-.338,1.032-.5.911-.426,1.049-.668.946-1.684a22.794,22.794,0,0,0,2.555-1.1c.424.56.967.874,1.622.474a8.031,8.031,0,0,1,4.748-.914c.771.035,1.546-.008,2.319.01a1.64,1.64,0,0,1,1.832,1.843c.012,2.054,0,4.109.008,6.163,0,.29-.016.46-.382.539a.969.969,0,0,0-.784,1,1.051,1.051,0,0,0,.723,1.059c.22.092.509.125.43.462-.084.362-.4.176-.6.189-.457.028-.918,0-1.376.012a1.091,1.091,0,0,0-1.189,1.088,1.075,1.075,0,0,0,1.181,1.084c.327.01.655,0,1.106,0-.337.416-.6.72-.838,1.036a9.2,9.2,0,0,0-1.889,4.477,1.039,1.039,0,0,1-.55.864,7.437,7.437,0,0,1-2.665,1.062c-.208-.062-.412-.137-.624-.183a9.957,9.957,0,0,1-7.613-9.74c.04-2.413.008-4.827.008-7.241m6.214,4.414a1.021,1.021,0,0,0-.775.335c-.527.66-1.06,1.316-1.555,2a.939.939,0,0,0,.073,1.267,14.806,14.806,0,0,0,1.686,1.477.957.957,0,0,0,1.366-.19.909.909,0,0,0,.023-1.367c-.884-.649-.6-1.153.005-1.729a.765.765,0,0,0,.147-.247,1.082,1.082,0,0,0-.971-1.545m-.022,9.374c.627,0,1.254.01,1.881,0a1.089,1.089,0,1,0,.005-2.168c-1.253-.019-2.508-.022-3.762,0a1.063,1.063,0,0,0-1.144,1.123,1.046,1.046,0,0,0,1.139,1.042c.627.016,1.254,0,1.881,0m3.789-9.481c0,.387-.019.774,0,1.159a1,1,0,0,0,1.029,1.005.972.972,0,0,0,1.078-.871,9.272,9.272,0,0,0,0-2.6,1.064,1.064,0,0,0-2.1.145c-.025.385,0,.773,0,1.159m-9.687-.022h0c0,.387-.023.775.005,1.16a1.065,1.065,0,0,0,1.093,1.035,1.028,1.028,0,0,0,1.056-1,16.985,16.985,0,0,0-.007-2.391.975.975,0,0,0-1.08-.946,1,1,0,0,0-1.056.978,9.88,9.88,0,0,0-.008,1.159" transform="translate(-207.897 -17.192)" fill="#f8e3c4"/>
      <path id="Trazado_658979" data-name="Trazado 658979" d="M229.369,27.045a22.653,22.653,0,0,1-2.555,1.1,1.377,1.377,0,0,0-1.847-.325,11.427,11.427,0,0,1-2.161.93,17.219,17.219,0,0,1,.137-2.954,10.543,10.543,0,0,1,3.461-6.163c.575-.505,1.339-.765,1.782-1.426,2.694-.01,5.406-.345,8.065.349a9.252,9.252,0,0,1,6.728,8.563c.019,1.159,0,2.319.008,3.479,0,.326.031.622-.465.61s-.438-.331-.438-.641c0-.773.008-1.546,0-2.319a3.681,3.681,0,0,0-3.26-3.733,27.32,27.32,0,0,0-6.063,0,9.038,9.038,0,0,0-2.871,1.151,1.124,1.124,0,0,0-.515,1.38" transform="translate(-205.998 -9.233)" fill="#7e4333"/>
      <path id="Trazado_658980" data-name="Trazado 658980" d="M264.649,59.744a7.673,7.673,0,0,1-1.163,15.176,13.257,13.257,0,0,1-4.659-.176,1.609,1.609,0,0,0-.125-.409c-1.087-1.7-.672-3.6-.719-5.439,0-.1.117-.195.179-.292.2.073.4.158.609.216a2.857,2.857,0,0,0,2.933-.694,1.018,1.018,0,0,0,.195-1.317c-.254-.459-.769-.746-1.143-.487a1.922,1.922,0,0,1-2.291-.045.672.672,0,0,0-.211-.042,8.325,8.325,0,0,1,3.213-4.874,15.754,15.754,0,0,1,3.183-1.618M266.1,72.425a2.958,2.958,0,0,0,1.948-.653,3.114,3.114,0,0,0-3.322-5.231,1.1,1.1,0,0,0-.667,1.472,1.076,1.076,0,0,0,1.514.528c.068-.025.136-.051.2-.079a.932.932,0,0,1,1.165,1.316.892.892,0,0,1-.978.458c-.142-.021-.277-.088-.419-.106a1.036,1.036,0,0,0-1.234.75,1,1,0,0,0,.536,1.272,2.381,2.381,0,0,0,1.254.274" transform="translate(-223.024 -29.403)" fill="#f3c29a"/>
      <path id="Trazado_658981" data-name="Trazado 658981" d="M211.924,120.834a1.167,1.167,0,0,1-1.3.945c-1.107-.068-2.222-.026-3.333-.014-.777.009-1.215.38-1.244,1.016-.03.67.415,1.1,1.207,1.138.5.022.993,0,1.5.073a8.754,8.754,0,0,1-4.895,1.448c-.3.005-.354-.131-.376-.389a3.227,3.227,0,0,0-1.076-2.071c-.867-.84-1.707-1.71-2.567-2.558A2.934,2.934,0,0,0,195.89,120c-.292.189-.405.232-.561-.131a12.8,12.8,0,0,1-.672-2.135c-.116-.493.075-.611.549-.608,2.778.016,5.556,0,8.334,0,3,0,5.991-.006,8.986.011.238,0,.761-.228.643.338-.086.411.145,1.1-.7,1.093-1.643-.021-3.285-.006-4.928-.005a1.364,1.364,0,0,0-.961.235,1.049,1.049,0,0,0-.334,1.179,1,1,0,0,0,1.044.735c1.28.015,2.561.006,3.84.019a1.271,1.271,0,0,1,.794.1" transform="translate(-192.341 -57.196)" fill="#ec9a38"/>
      <path id="Trazado_658982" data-name="Trazado 658982" d="M264.354,100.907l-2.5-1.3a1.351,1.351,0,0,0-.871-1.678c-1.9-.949-3.763-1.967-5.656-2.927-.431-.219-.517-.433-.242-.818.126-.176.221-.374.333-.56.9-1.491,1.062-1.548,2.734-1.1.281.075.381.273.5.477.51.876,1,1.763,1.524,2.631a1.849,1.849,0,0,0,3.332,0c.722-1.2,1.418-2.414,2.1-3.636.278-.5.5-.648.926-.123a18.9,18.9,0,0,1,3.491,7.247c.066.251.065.374-.213.491a2.781,2.781,0,0,0-1.605,1.676c-.12.341-.284.288-.528.154-.506-.28-1.033-.525-1.533-.816a1.266,1.266,0,0,0-1.8.284" transform="translate(-221.565 -44.813)" fill="#47a3cb"/>
      <path id="Trazado_658983" data-name="Trazado 658983" d="M216.573,92.406c.9,1.508,2,2.874,2.968,4.332.172.259.346.517.519.776-1.06.016-2.121.027-3.181.055a.647.647,0,0,1-.575-.362q-3.834-5.448-7.677-10.89a.837.837,0,0,1-.034-1q.99-1.808,1.942-3.637c.235-.453.51-.6.98-.329.709.405,1.434.784,2.152,1.175a18.847,18.847,0,0,1-1.285,2.559,2,2,0,0,0,1,2.513c-.1.215-.209.428-.3.646a1.318,1.318,0,0,0,.481,1.709,9,9,0,0,0,.932.542c.332.176.548.305.423.81-.225.914.6,1.429,1.659,1.1" transform="translate(-199.038 -39.809)" fill="#ddb53d"/>
      <path id="Trazado_658984" data-name="Trazado 658984" d="M224.274,41.81c0,2.414.033,4.828-.008,7.241a9.957,9.957,0,0,0,7.613,9.74c.211.046.416.122.624.183-4.6,1.351-9.859-2.047-10.7-6.9a15.638,15.638,0,0,1-.145-2.673c0-1.959.01-3.917-.009-5.875,0-.409.077-.666.5-.822.721-.265,1.418-.592,2.126-.893" transform="translate(-205.437 -20.713)" fill="#f5d1ac"/>
      <path id="Trazado_658985" data-name="Trazado 658985" d="M224.633,18.292c-.442.661-1.206.921-1.781,1.426a10.545,10.545,0,0,0-3.461,6.163,17.273,17.273,0,0,0-.137,2.954,5.741,5.741,0,0,1-1.427.68,2.072,2.072,0,0,0-1.332,1.5c-.088.4-.41.239-.645.266s-.353-.109-.351-.346c.017-2.186-.236-4.414.6-6.5a9.057,9.057,0,0,1,7.826-6.08c.236-.027.474-.037.71-.055" transform="translate(-202.446 -9.317)" fill="#643528"/>
      <path id="Trazado_658986" data-name="Trazado 658986" d="M262.139,59.529a15.766,15.766,0,0,0-3.183,1.618,8.325,8.325,0,0,0-3.213,4.874,1.146,1.146,0,0,0-.98.928,1.168,1.168,0,0,0,.56,1.166c.112.087.219.182.328.273-.063.1-.182.2-.18.293.048,1.837-.367,3.737.72,5.439a1.586,1.586,0,0,1,.125.409,4.313,4.313,0,0,1-3.384-3.717,16.211,16.211,0,0,1,.206-5.908,7.625,7.625,0,0,1,9-5.374" transform="translate(-220.514 -29.189)" fill="#f0b395"/>
      <path id="Trazado_658987" data-name="Trazado 658987" d="M234.111,5.22c1.375-.009,2.753-.081,4.124-.013a3.587,3.587,0,0,1,3.28,4.316c-.062.276-.112.545-.488.473-2.776-.528-5.585-.175-8.375-.309.047-.614-.007-1.226.088-1.848a8.042,8.042,0,0,1,1.37-2.619" transform="translate(-210.769 -2.962)" fill="#985242"/>
      <path id="Trazado_658988" data-name="Trazado 658988" d="M233.931,118.925c.624.108.743.719,1.033,1.118,1.567,2.149,3.08,4.338,4.608,6.515a.6.6,0,0,1,.047.209c-.508.253-.908.6-.816,1.226a1.12,1.12,0,0,0,1.09.973c.559.089.182.592.269.9.072.254-.063.38-.353.395a1.738,1.738,0,0,1-1.812-.8c-1.526-2.319-3.161-4.567-4.778-6.825a.927.927,0,0,1-.128-1.109,14.542,14.542,0,0,0,.841-2.6" transform="translate(-210.918 -58.081)" fill="#ddb53d"/>
      <path id="Trazado_658989" data-name="Trazado 658989" d="M254.793,135.931c-1.04,0-2.079.005-3.118,0-.213,0-.566.109-.514-.289.044-.336-.3-.817.242-.994a1.111,1.111,0,0,0,.918-1.063c.014-.625-.382-.906-.928-1.136-.516-.218-.17-.757-.236-1.146-.03-.18-.134-.486.152-.559.252-.064.564-.157.625.324a1,1,0,0,0,1.064.976c.663,0,.987-.376,1.1-1.017.108-.621.622-.244.944-.3.233-.043.589-.163.625.336a.976.976,0,0,0,1.046.98,1,1,0,0,0,1.089-.946c.048-.309.152-.395.451-.393.371,0,.363.225.36.478s-.018.533,0,.8a.447.447,0,0,1-.4.55,1,1,0,0,0-.789,1.008,1.017,1.017,0,0,0,.81,1.068c.686.179.327.7.353,1.063.031.435-.378.263-.6.267-1.063.018-2.127.008-3.191.008Z" transform="translate(-219.706 -63.768)" fill="#e8555a"/>
      <path id="Trazado_658990" data-name="Trazado 658990" d="M240.656,84.264c1.581-2.072,2.562-4.4,3.992-6.52a1.416,1.416,0,0,1,.141.959,6.8,6.8,0,0,0,2.326,5.4c.31.278.387.459.121.823a18.55,18.55,0,0,0-1.068,1.718c-.143.248-.249.37-.554.209-1.656-.878-3.321-1.737-4.958-2.59" transform="translate(-214.647 -38.126)" fill="#91cc6e"/>
      <path id="Trazado_658991" data-name="Trazado 658991" d="M228.881,92.9c.037.109.1.289.16.471.08.248.534.306.42.591a9.881,9.881,0,0,1-.735,1.324c-.121.2-.265.031-.359-.031-.141-.1-.412-.1-.358-.374a2.071,2.071,0,0,1,.114-.262,1.027,1.027,0,0,0-.508-1.351.948.948,0,0,0-1.341.309c-.337.527-.61.175-.862.005-.276-.187-.879-.156-.57-.823a.956.956,0,0,0-.454-1.3.975.975,0,0,0-1.4.292c-.234.354-.4.26-.685.113-.419-.219-.124-.423-.021-.63s.236-.42.342-.636c.15-.307.3-.483.714-.339a.942.942,0,0,0,1.156-.511,1.014,1.014,0,0,0-.146-1.266c-.143-.164-.454-.262-.2-.571s.424,0,.6.088q2.892,1.48,5.765,2.993c.161.085.545.052.4.439-.12.312-.256.476-.682.371a1.062,1.062,0,0,0-1.339,1.1" transform="translate(-205.648 -42.988)" fill="#f7f9fa"/>
      <path id="Trazado_658992" data-name="Trazado 658992" d="M206.344,105.444l-3.393.044c-.247,0-.442-.02-.311-.362.937-2.47,1.867-4.943,2.858-7.569l2.472,3.6a19.623,19.623,0,0,0-1.626,4.291" transform="translate(-196.205 -47.727)" fill="#7dc055"/>
      <path id="Trazado_658993" data-name="Trazado 658993" d="M214.739,51.163c0,.991-.024,1.983.011,2.973.015.4-.093.489-.481.454a2.656,2.656,0,0,1-2.424-2.467,15.331,15.331,0,0,1,0-1.885,2.679,2.679,0,0,1,2.247-2.49c.427-.075.666-.039.639.513-.047.965-.013,1.934-.013,2.9h.023" transform="translate(-200.672 -23.577)" fill="#f3c29a"/>
      <path id="Trazado_658994" data-name="Trazado 658994" d="M287.088,111.008c.577-.013,1.154-.036,1.73-.035a.777.777,0,0,1,.866.845q.02,1.988,0,3.976a.8.8,0,0,1-.861.862c-.577.014-1.154-.013-1.732-.022a22.613,22.613,0,0,1,0-5.626" transform="translate(-237.063 -54.228)" fill="#f8e3c4"/>
      <path id="Trazado_658995" data-name="Trazado 658995" d="M200.714,126.831c.871.855,1.745,1.707,2.611,2.566a.792.792,0,0,1,0,1.258c-.473.473-.96.93-1.441,1.394-.676-.655-1.386-1.278-2.018-1.973a1.83,1.83,0,0,1,.005-2.453,10.118,10.118,0,0,1,.841-.792" transform="translate(-194.654 -61.913)" fill="#f8e3c4"/>
      <path id="Trazado_658996" data-name="Trazado 658996" d="M224.969,77.854a1.562,1.562,0,0,1,1.976,1c.563,1.234,1.311,2.385,1.979,3.572l-.1.107-5.732-2.99c.333-.89,1.283-1.093,1.882-1.687" transform="translate(-206.134 -38.152)" fill="#91cc6e"/>
      <path id="Trazado_658997" data-name="Trazado 658997" d="M231.636,5.231a8.041,8.041,0,0,0-1.37,2.619c-.095.622-.041,1.233-.088,1.848-.569.091-1.143.153-1.7.28-.6.137-.819-.118-.9-.674a3.658,3.658,0,0,1,3.483-4.1c.191,0,.383.019.575.029" transform="translate(-208.295 -2.973)" fill="#7e4333"/>
      <path id="Trazado_658998" data-name="Trazado 658998" d="M209.866,108.825a19.625,19.625,0,0,1,1.626-4.291q1.424,1.992,2.847,3.984a2.9,2.9,0,0,1,.158.307Z" transform="translate(-199.727 -51.108)" fill="#91cc6e"/>
      <path id="Trazado_658999" data-name="Trazado 658999" d="M198.864,126.364a10.106,10.106,0,0,0-.841.792,1.83,1.83,0,0,0-.005,2.453c.632.695,1.342,1.318,2.018,1.973-.561.6-.912.639-1.44.123-.9-.876-1.768-1.774-2.66-2.653a.841.841,0,0,1,0-1.369c.48-.473.948-.96,1.433-1.428.567-.547.913-.516,1.5.11" transform="translate(-192.805 -61.446)" fill="#f5d1ac"/>
      <path id="Trazado_659000" data-name="Trazado 659000" d="M214.935,136.726q0,1.065,0,2.129c-1.107.007-2.214-.006-3.32.031-.461.016-.61-.157-.552-.582a1.52,1.52,0,0,0,0-.216c0-.957,0-.957.95-.966a14.511,14.511,0,0,0,2.921-.4" transform="translate(-200.301 -66.708)" fill="#7dc055"/>
      <path id="Trazado_659001" data-name="Trazado 659001" d="M285.914,111.019a22.61,22.61,0,0,0,0,5.626c-1.2.071-1.424-.134-1.426-1.3q0-1.521,0-3.044c0-1.191.215-1.382,1.422-1.28" transform="translate(-235.889 -54.239)" fill="#f5d1ac"/>
      <path id="Trazado_659002" data-name="Trazado 659002" d="M216.947,88.83a2,2,0,0,1-1-2.513,18.736,18.736,0,0,0,1.285-2.56c.556.275,1.113.548,1.668.825.144.072.336.123.254.355s-.251.165-.408.1a1.016,1.016,0,0,0-1.429.413,1.03,1.03,0,0,0,.4,1.491c.227.15.176.294.069.474-.282.472-.56.946-.84,1.418" transform="translate(-202.606 -41.04)" fill="#f0c443"/>
      <path id="Trazado_659003" data-name="Trazado 659003" d="M263.034,50.563c.058.369-.02.576-.532.366a18.968,18.968,0,0,0-1.846-.612c-.341-.1-.528-.245-.5-.644a8.385,8.385,0,0,0,0-1.444c-.048-.515.2-.547.6-.483a2.738,2.738,0,0,1,2.278,2.818" transform="translate(-224.096 -23.577)" fill="#f3c29a"/>
      <path id="Trazado_659004" data-name="Trazado 659004" d="M237.106,82.769l-1.8-3.123a16.044,16.044,0,0,0,3.62-.045l-1.823,3.168" transform="translate(-212.056 -39.026)" fill="#f3c29a"/>
      <path id="Trazado_659005" data-name="Trazado 659005" d="M223.17,77.881c-.6.594-1.548.8-1.882,1.687l-1.913-.945a6.938,6.938,0,0,1,3.795-.742" transform="translate(-204.335 -38.179)" fill="#7dc055"/>
      <path id="Trazado_659006" data-name="Trazado 659006" d="M266.6,93.489l1.8-.107a8.909,8.909,0,0,1-.914,1.654l-.89-1.548" transform="translate(-227.218 -45.704)" fill="#f0b395"/>
      <path id="Trazado_659007" data-name="Trazado 659007" d="M234.313,86.774l.061.143-.164-.036.1-.107" transform="translate(-211.524 -42.502)" fill="#91cc6e"/>
      <path id="Trazado_659008" data-name="Trazado 659008" d="M236.413,50.374a1.082,1.082,0,0,1,.971,1.545.766.766,0,0,1-.148.247c-.6.575-.889,1.08-.005,1.729a.909.909,0,0,1-.022,1.367.957.957,0,0,1-1.366.19,14.787,14.787,0,0,1-1.685-1.476.939.939,0,0,1-.073-1.267c.494-.684,1.028-1.341,1.554-2a1.024,1.024,0,0,1,.776-.334" transform="translate(-211.36 -24.863)" fill="#030302"/>
      <path id="Trazado_659009" data-name="Trazado 659009" d="M235.918,66.507c-.627,0-1.254.013-1.881,0a1.047,1.047,0,0,1-1.139-1.043,1.062,1.062,0,0,1,1.145-1.122c1.253-.023,2.508-.021,3.761,0a1.089,1.089,0,1,1-.005,2.167c-.627.013-1.254,0-1.881,0" transform="translate(-210.888 -31.622)" fill="#030302"/>
      <path id="Trazado_659010" data-name="Trazado 659010" d="M246.1,48.136c0-.387-.021-.774,0-1.159a1.064,1.064,0,0,1,2.1-.145,9.272,9.272,0,0,1,0,2.6.972.972,0,0,1-1.077.871,1,1,0,0,1-1.03-1.005c-.024-.385,0-.773,0-1.159" transform="translate(-217.283 -22.732)" fill="#030302"/>
      <path id="Trazado_659011" data-name="Trazado 659011" d="M227.3,48.115a9.877,9.877,0,0,1,.008-1.159,1,1,0,0,1,1.056-.978.975.975,0,0,1,1.08.946,16.98,16.98,0,0,1,.007,2.391,1.028,1.028,0,0,1-1.056,1,1.065,1.065,0,0,1-1.093-1.035c-.028-.385-.005-.773-.005-1.16Z" transform="translate(-208.169 -22.733)" fill="#030302"/>
      <path id="Trazado_659012" data-name="Trazado 659012" d="M271.752,78.5a2.389,2.389,0,0,1-1.255-.274.994.994,0,0,1-.536-1.272,1.036,1.036,0,0,1,1.233-.75c.142.018.277.085.419.106a.892.892,0,0,0,.978-.458.933.933,0,0,0-1.165-1.316c-.066.029-.133.055-.2.079a1.076,1.076,0,0,1-1.514-.528,1.1,1.1,0,0,1,.667-1.472,3.113,3.113,0,0,1,3.321,5.231,2.959,2.959,0,0,1-1.947.654" transform="translate(-228.681 -35.474)" fill="#030302"/>
      <path id="Trazado_659013" data-name="Trazado 659013" d="M257.514,74.7c-.109-.091-.215-.186-.328-.273a1.17,1.17,0,0,1-.561-1.166,1.148,1.148,0,0,1,.981-.928.672.672,0,0,1,.211.042,1.923,1.923,0,0,0,2.29.045c.374-.26.89.027,1.143.486a1.018,1.018,0,0,1-.195,1.317,2.857,2.857,0,0,1-2.933.693c-.207-.058-.406-.144-.609-.216" transform="translate(-222.377 -35.497)" fill="#030302"/>
    </g>
  </g>
</svg>
