<svg xmlns="http://www.w3.org/2000/svg" xmlns:xlink="http://www.w3.org/1999/xlink" width="281" height="322.136" viewBox="0 0 281 322.136">
  <defs>
    <clipPath id="clip-path">
      <rect id="Rectángulo_312942" data-name="Rectángulo 312942" width="233.913" height="322.136" fill="none"/>
    </clipPath>
  </defs>
  <g id="Grupo_996221" data-name="Grupo 996221" transform="translate(-1034 -5445.264)">
    <g id="Grupo_996090" data-name="Grupo 996090" transform="translate(782.38 1275.309)">
      <path id="Trazado_657613" data-name="Trazado 657613" d="M179.845,25.74l-.652.013H54.293c8.33-10.072,24.551-13.028,35.663-5.9,6.134-7.025,12.907-13.892,21.5-17.512S130.9-.994,137.781,5.314c4.272,3.912,6.494,9.527,8.582,14.93,10.088-7.612,26.349-4.949,33.481,5.5" transform="translate(248.08 4192.376)" fill="#f7e9e1"/>
      <path id="Trazado_657614" data-name="Trazado 657614" d="M198.6,69.459H122.666C128,63.7,134.29,57.64,142.094,57.753c5.745.072,10.84,3.561,15.237,7.259a36.468,36.468,0,0,1,15.917-10.2,20.55,20.55,0,0,1,10.173-.906c7.413,1.513,12.118,8.412,15.175,15.557" transform="translate(334.023 4164.529)" fill="#f7e9e1"/>
      <path id="Trazado_657615" data-name="Trazado 657615" d="M78.987,89.026H3.056C8.389,83.27,14.68,77.207,22.484,77.32c5.745.072,10.84,3.561,15.237,7.257a36.478,36.478,0,0,1,15.917-10.2,20.55,20.55,0,0,1,10.173-.906c7.413,1.513,12.118,8.412,15.175,15.557" transform="translate(281.944 4190.427)" fill="#fff"/>
    </g>
    <g id="Grupo_996089" data-name="Grupo 996089" transform="translate(1034 5445.264)">
      <g id="Grupo_996088" data-name="Grupo 996088" transform="translate(0)" clip-path="url(#clip-path)">
        <path id="Trazado_658678" data-name="Trazado 658678" d="M32,319.727c1.67.66,21.33.66,22.33,0S60,306.057,60,306.057s2.33-2.67,3.33-3.67,1-6,.67-8a37.024,37.024,0,0,0-2.95-6.54c-1.08-2.07-2.05-3.79-2.05-3.79l-14.33,6-2.89,9.22s-1.18,3.25-2.45,5.78c-1.16,2.34-2.07,4.16-2.28,4.58l-.05.09-3,1.66c-1.57.87-2.5,2.93-2.79,4.78-.27,1.7-.01,3.24.79,3.56" transform="translate(138.609 0)" fill="#12263f"/>
        <path id="Trazado_658679" data-name="Trazado 658679" d="M85.358,314.837c.34,2,2.67,5,7.34,5s13.33,0,17.33-2,9.44-1.23,9.44-1.23,4.45-2.66,5.12-3.33,1.77-8.11,1.44-10.78-1-10.33-1-10.33l-1.89.44-13.78,3.23s-1.66,2.66-3,3.33c-1.09.54-14.68,9.36-19.4,13.63-1.05.95-1.66,1.68-1.6,2.04" transform="translate(22.471 0)" fill="#12263f"/>
        <path id="Trazado_658680" data-name="Trazado 658680" d="M85.358,314.837c.34,2,2.67,5,7.34,5s13.33,0,17.33-2,9.44-1.23,9.44-1.23,4.45-2.66,5.12-3.33,1.77-8.11,1.44-10.78-1-10.33-1-10.33l-1.89.44-1.22,3.56a15.717,15.717,0,0,1-7.557,12.889c-5.066,3.184-19.553,5.551-22.893,5.781-2.93.19-4.48-.99-4.51-2.04-1.05.95-1.66,1.68-1.6,2.04" transform="translate(22.471 0)" fill="#061222"/>
        <path id="Trazado_658681" data-name="Trazado 658681" d="M34.537,262.057c.8.8,1.76,5.42,2.61,10.69,1.31,7.92,2.39,17.31,2.39,17.31s-1.34,13.33,3.66,12.67c2.49-.34,5.49-3.57,7.87-6.73a67.433,67.433,0,0,0,4.13-6.27,53.627,53.627,0,0,0-1.33-5.67c-.67-2,1.89-25.22,1.89-25.22s-8.69.46-14.98,1.27c-3.99.52-7.02,1.17-6.24,1.95" transform="translate(143.742 0)" fill="#ffbdab"/>
        <path id="Trazado_658682" data-name="Trazado 658682" d="M80.786,306.167c3.67.14,7.58-1.69,10.94-4.13,4.58-3.31,8.16-7.76,8.73-9.87.75-2.75,4.53-19.12,6.38-27.19.63-2.71,1.03-4.48,1.03-4.48l-22.74,1.67s.33,25.33,0,28.67a36.894,36.894,0,0,1-2,7.66s-7.43,7.47-2.34,7.67" transform="translate(47.043 0)" fill="#ffbdab"/>
        <path id="Trazado_658683" data-name="Trazado 658683" d="M38.414,262.057c.8.8,1.76,5.42,2.61,10.69,1.23.14,2.57.25,3.94.31,5.34.22,10.67,4.89,10.67,4.89s-.89-15.34-1.56-15.56-15.66-.33-15.66-.33" transform="translate(139.865 0)" fill="#f7a397"/>
        <path id="Trazado_658684" data-name="Trazado 658684" d="M81.744,302.037c4.58-3.31,8.16-7.76,8.73-9.87.75-2.75,4.53-19.12,6.38-27.19l-16.82,1.41,6,22.891s1.777.445,3.333.889c1.38.394-3.778,9.778-7.619,11.87" transform="translate(57.025 0)" fill="#f7a397"/>
        <path id="Trazado_658685" data-name="Trazado 658685" d="M34.458,258.167a4.783,4.783,0,0,0,.13,1.94c.98,4.06,9.869,21.838,11.647,24.949C46.814,286.07,44.878,296,44.878,296a67.433,67.433,0,0,0,4.13-6.27,53.627,53.627,0,0,0-1.33-5.67c-.67-2,1.89-25.22,1.89-25.22Z" transform="translate(149.931 0)" fill="#f7a397"/>
        <path id="Trazado_658686" data-name="Trazado 658686" d="M74.4,153.834s-4.667,54.333-4.667,57.333-1,36-1.333,38-3,11-3,13,5.667,8.334,14.333,8,18.334-5,19.667-7-4-38.333-4-40.333,11-38.333,11.333-45S101.4,154.5,101.4,154.5Z" transform="translate(61.766 0)" fill="#442ccb"/>
        <path id="Trazado_658687" data-name="Trazado 658687" d="M27.8,153.837c.66,1.33,26.66,11.33,26.66,11.33s11.34,53,11.34,55.67-2,37.33-.67,39,9.67,8.33,13.33,9,19.34-5.67,19.34-7-5.67-39-6.67-42.34c-.5-1.68-.16-14.78.3-27.37.46-12.4,1.03-24.29,1.03-24.29a16.912,16.912,0,0,1-.33-3.67c0-2.33-2.33-17.67-2.33-17.67l-10.34-18.66-46.66.66s-5.67,24-5,25.34" transform="translate(108.37 0)" fill="#5840e2"/>
        <path id="Trazado_658688" data-name="Trazado 658688" d="M156.748,148.586l-5.87,3.686s-1.544,6.144-3.707,7.68-2.471,2.458-2.471,2.458-3.707,7.065-6.8,6.758-1.236-3.686-1.236-3.686-2.471,1.843-3.707,0,0-5.223,0-5.223-3.089,3.072-4.325,1.844a2.655,2.655,0,0,1-.617-2.765,2.818,2.818,0,0,1-3.708-.922c-1.544-2.15,4.016-8.294,4.016-8.294s1.854-7.066,3.707-8.294,13.9-3.994,13.9-3.994l8.032,2.15Z" transform="translate(-46.875 0)" fill="#ffbdab"/>
        <path id="Trazado_658689" data-name="Trazado 658689" d="M28.168,261.723a23.418,23.418,0,0,0,13.552,7.114c9.52,1.234,19.34-5.67,19.34-7s-5.67-39-6.67-42.34c-.5-1.68-.16-14.78.3-27.37-2.72,12.28-5.9,25.92-6.97,27.71-2,3.33-10,6-11.33,6s-7.33-5-7.33-5c0,2.66-2.222,39.216-.892,40.886" transform="translate(145.109 0)" fill="#442ccb"/>
        <path id="Trazado_658690" data-name="Trazado 658690" d="M93.081,165.167l-22-12.667,13,16.334Z" transform="translate(69.751 0)" fill="#442ccb"/>
        <path id="Trazado_658691" data-name="Trazado 658691" d="M130.759,285.723s12.889-1.333,15.556-17.333-12-25.778-12-25.778l2.222,5.333-4.445-4.444s1.334,8.889-3.111,11.555-13.333,19.111-7.555,22.223a29.2,29.2,0,0,1,9.333,8.444" transform="translate(-32.26 0)" fill="#a06f3e"/>
        <path id="Trazado_658692" data-name="Trazado 658692" d="M16.387,138.837s2.88-.89,7.33,1.77a10.144,10.144,0,0,1,4.89,9.78,22.329,22.329,0,0,0,2.82-.76c3.05-1.04,7.92-3.31,11.07-7.9a121.182,121.182,0,0,1,12.55-14.67l5.22-8.89s-.88,11.11.45,12.44c.64.64,4.43,2,9,3.23,4.97,1.34,10.84,2.55,14.55,2.55,7.12,0,19.12-2.66,19.12-2.66s-4.45,12.44-4,15.55,10.11,13.11,12.77,13.56,9.66-7.34,11-8.67,16.23-29.33,16.67-32.44-13.99-50.83-16.44-54.23c-4.67-6.44-26.12-13.11-26.12-13.11l-23.55,1.34s-17,4.22-20.11,8.66-18.67,50.22-18.67,50.22l-12.78,15.12s-6.22,5.33-6.66,7.11.89,2,.89,2" transform="translate(78.672 0)" fill="#fadbaf"/>
        <path id="Trazado_658693" data-name="Trazado 658693" d="M20.084,130.5l5.22,3.34c4.97,1.34,10.84,2.55,14.55,2.55,7.12,0,19.12-2.66,19.12-2.66l10.11-14.89s8.66-2.67,10.33-3,11.33,1,11.33,1-6.66-4.67-8-4.67-7.33.67-8.33.33,2.33-43.66,1.67-45-2.67-3.33-3.67-3.33-6.33,35-8,37.33-22.33,4.34-27,4.34-17.67-2.67-17-1.34-.33,16.67,1,18.34,18.33,6,23.67,6h12.66s-14.33,3.66-20.33,3.66-17.33-2-17.33-2" transform="translate(123.085 0)" fill="#efc994"/>
        <path id="Trazado_658694" data-name="Trazado 658694" d="M90.733,135.337c.5.33,5.19-.54,9.76,4.65a12.1,12.1,0,0,1,3.01,9.64c3.05-1.04,7.92-3.31,11.07-7.9a121.183,121.183,0,0,1,12.55-14.67l5.22-8.89s.89-12.83.39-14-3-7.67-3.16-9.83,7.5-30.34,7-30.84-2.34-2.33-3.67-1.83-6.33,2-7,3.67-5.83,15-6,16.33.17,20.5-.67,20.17-3.16-7.34-3.83-6-6.83,16.83-5.83,17.33,7.16,1,9.33,2.33c2.11,1.3,4.54,6.7,4.66,6.99-.28-.28-4.71-4.67-6.33-5.15-1.66-.5-6.16-1.67-6.16-1.67s5,4.67,6,5,3.5,1,3.33,1.67-7.67.16-9.17-.34-4.5-5-5.33-4.16-15.67,17.16-15.17,17.5" transform="translate(6.596 0)" fill="#efc994"/>
        <path id="Trazado_658695" data-name="Trazado 658695" d="M72.862,153.278s-2.889.889-2.778,2.444,3.778,2,3.778,2Z" transform="translate(89.97 0)" fill="#ffbdab"/>
        <path id="Trazado_658696" data-name="Trazado 658696" d="M3.236,102.658c1.536-1.625,87.988,219.478,87.988,219.478l-4.735-5.273C85,315.2,0,107.6,0,107.6a27.245,27.245,0,0,1,3.236-4.942" transform="translate(142.689 0)" fill="#252238"/>
        <path id="Trazado_658697" data-name="Trazado 658697" d="M144.89,145.278a18.04,18.04,0,0,1-6.444,4.889,65.33,65.33,0,0,1-7.556,2.222l10.889,9.333,5.556-2.888-7.112-6.889s7.112,3.777,8.223,3.555,3.555-3.778,2.666-4.666-6.222-5.556-6.222-5.556" transform="translate(-48.28 0)" fill="#f7a397"/>
        <path id="Trazado_658698" data-name="Trazado 658698" d="M73.593,157.51a71.407,71.407,0,0,0-4.9,6.33c-.668,1.345-3.414,7.006-4.323,7.988s-10.769,7.277-13.021,7.014-2.471-3.342-2.471-3.342a9.246,9.246,0,0,1-2.447-2.126,6.065,6.065,0,0,1-.533-3.158s-4.335.121-5.2-.4-.961-1.45-.676-2.588,7.814-10.619,7.814-10.619a6.092,6.092,0,0,1,2.942-4.525c2.68-1.444,14.825-2.327,14.825-2.327Z" transform="translate(120.439 0)" fill="#ffbdab"/>
        <path id="Trazado_658699" data-name="Trazado 658699" d="M38.5,46.267a48.113,48.113,0,0,1-.22-7.52s1.11,6.23,2.44,7.31a7.645,7.645,0,0,0,2.16,1.11,11.372,11.372,0,0,0,1.4.39v-4.51l1.33,5.59s2.22,1.5,8.45,3.65a33.291,33.291,0,0,0,9.11,1.35c1.91.06,3.84.03,5.62-.09a24.016,24.016,0,0,0,7.27-1.26,6.9,6.9,0,0,0,3.77-3.87l-.22,2.8s8.67-.65,11.78-3.66a10.326,10.326,0,0,0,2.89-7.3l.15.58.74,2.85a9.027,9.027,0,0,0,3.25-3.75c.02-.04.05-.09.07-.14a13.237,13.237,0,0,0,.52-1.24,13.621,13.621,0,0,0,.38-1.31c1.11-4.73-6.96-19.49-8-21.49a14.286,14.286,0,0,0-1.16-1.82c-.02-.02-.04-.03-.04-.05a37.531,37.531,0,0,0-7.64-7.49c-4.29-3.18-9.73-5.91-15.6-6.33-12-.86-13.34,6.88-13.34,6.88s-5.33-1.29-12.44,13.32a39.693,39.693,0,0,0-2.22,28.37Z" transform="translate(97.11 0)" fill="#77463c"/>
        <path id="Trazado_658700" data-name="Trazado 658700" d="M42.376,52.167c-.03.17.38.68,1.07,1.38a24.016,24.016,0,0,0,7.27-1.26,6.9,6.9,0,0,0,3.77-3.87l-.22,2.8s8.67-.65,11.78-3.66a10.326,10.326,0,0,0,2.89-7.3l.15.58A89.892,89.892,0,0,0,65.876,30l.5,8.67s-.33-1.83-1.66-7A19.772,19.772,0,0,0,59.546,23l1.67,6.67-13.17,3.67s-5.5,18-5.67,18.83" transform="translate(122.454 0)" fill="#563029"/>
        <path id="Trazado_658701" data-name="Trazado 658701" d="M72.617,44.837l.89-6.45a54.731,54.731,0,0,0,.93,8.78,11.372,11.372,0,0,0,1.4.39v-4.51l1.33,5.59s2.22,1.5,8.45,3.65a33.291,33.291,0,0,0,9.11,1.35c1.04-.82,1.89-1.57,1.89-1.91,0-.89-6.34-40.06-6.34-40.06s-2.55-2.83-3.66-2.17a8.132,8.132,0,0,0-2.12,2.68c.38-.82,1.68-3.76.34-3.57-1.56.23-9.11,8.89-11.78,18.45a36.85,36.85,0,0,0-.44,17.78" transform="translate(65.552 0)" fill="#563029"/>
        <path id="Trazado_658702" data-name="Trazado 658702" d="M49.636,59.057a61.374,61.374,0,0,0,14.79,7.55,35.551,35.551,0,0,0,5.21,1.34c10.22,1.78,21.778-10.558,21.778-10.558s-11.108-3.662-11.108-6.782,1.99-14.73,1.99-14.73l-19.33,5.85a43.7,43.7,0,0,1,.8,5.77c.19,2.73.04,5.61-1.24,6.67-2.67,2.22-12.89,4.89-12.89,4.89" transform="translate(92.863 0)" fill="#f7a397"/>
        <path id="Trazado_658703" data-name="Trazado 658703" d="M52.858,59.057a61.374,61.374,0,0,0,14.79,7.55,53.389,53.389,0,0,0,6.99.67c9.22.22,16.776-7.332,16.776-8.332s-4.225-.781-5.445-1.111-13.675,2.45-14.115,2.33.56-1.33.56-1.33,7.551-1.341,9.111-3.111,2.443-13.776,2.443-13.776l-15,4.44-1.98,1.11c.19,2.73.04,5.61-1.24,6.67-2.67,2.22-12.89,4.89-12.89,4.89" transform="translate(89.641 0)" fill="#e58c83"/>
        <path id="Trazado_658704" data-name="Trazado 658704" d="M50.214,30.847a31.7,31.7,0,0,0,1.05,9.99c1.41,4.83,6.03,9.93,8.17,10.66a3.156,3.156,0,0,0,.53.13c4.71.92,13.49-5.64,15.06-9.19,1.64-3.68,1.46-3.71,1.46-3.71s4.29-.37,5.11-1.08,5.33-6.9,5.08-8.36-4.08-4.98-4.78-4.67-4.4,1.9-4.4,1.9l.24-6.36.08-2.22-3.17-4.18L70.954,8.9l-16.42,1.31-3.02,3.36s-2.5,8.57-2.52,9.52c-.02.54.91,1.68,1.27,3.58a16.048,16.048,0,0,1-.01,3.77s-.01.15-.04.41" transform="translate(98.235 0)" fill="#ffbdab"/>
        <path id="Trazado_658705" data-name="Trazado 658705" d="M48.994,51.627c4.71.92,13.49-5.64,15.06-9.19,1.64-3.68,1.46-3.71,1.46-3.71s4.29-.37,5.11-1.08,5.33-6.9,5.08-8.36-4.08-4.98-4.78-4.67-4.4,1.9-4.4,1.9l.24-6.36c-3.11-.16-6.3-.32-6.3-.32s2.08,9.33,2.16,11.58-.25,13.08-7.08,17.42a20.954,20.954,0,0,1-6.55,2.79" transform="translate(109.205 0)" fill="#f9af9d"/>
        <path id="Trazado_658706" data-name="Trazado 658706" d="M55.084,16.167l3.33,9.11s.78-4.78,3.11-7.78c2.36-3.02,5-5.83,5-5.83s1.39,2.5,5.84,6.83,12.27,4.89,12.27,4.89-1.11,9.11-.44,8.78,3.44-9.22,3.44-9.22l1.89-5.11-3.33-11-18.56-1.89-6.01,5.38Z" transform="translate(89.305 0)" fill="#77463c"/>
        <path id="Trazado_658707" data-name="Trazado 658707" d="M147.34,240.5l26-68s4,.333,3.333-2-30.333-22.333-32.666-22-20.334,34.333-20.334,34.333l7-3s13.543-23.5,14.6-23.417S168.007,169.5,168.34,171.5s-24,65.333-24,65.333Z" transform="translate(-66.508 0)" fill="#252238"/>
        <path id="Trazado_658708" data-name="Trazado 658708" d="M183.7,173.5s-6.333-14.333-7.333-15.667c-.756-1.006-2.461-4.1-3.251-5.561a1.191,1.191,0,0,0-2.221.368c-.5,2.961-2.11,13.154-.973,14.86,1.334,2,13.778,6,13.778,6" transform="translate(-119.313 0)" fill="#a06f3e"/>
        <path id="Trazado_658709" data-name="Trazado 658709" d="M128.98,317.457a2.37,2.37,0,0,0,1.21,1.71,11.468,11.468,0,0,0,5,0l8.33-1,6.67.67a63.141,63.141,0,0,0,7,.33c4.33,0,11.67-2.33,11.67-2.33s3.66,3,13.33,2.66,5-7,5-7l8,1.34s2,5,3.67,5,12.66-.34,17-.67,6-5.33,3.66-5.67-2.66-.33-2.66-.33,10-12.67,14.33-21.33,2.67-24,.67-25.34-5.67-1-7.67-.66-7.67,6-7.67,6-4-8-5.33-13.67a7.627,7.627,0,0,1-.16-.9c-.9-5.97,1.38-17.39-7.17-29.1a144.8,144.8,0,0,0-9.4-11.63c-2.88-3.22-4.42-4.73-4.6-6.04-.34-2.33.66-4,3.33-3s8.67,3.67,10,3.67h3a10.343,10.343,0,0,0,4.33.67c1.67-.34,5.34-7.34,5.34-7.34s-9-8-10.34-9.33a5.873,5.873,0,0,1-1.33-3.67s.67-6.33,0-8.33c-.46-1.37-6.09-8.07-11.73-12.8-2.58-2.16-5.17-3.9-7.27-4.53-6.67-2-18.33,3-18.33,3s-7.56,6.55-9.11,16.55c-1.19,7.65-1.23,15.11-1.89,16.45-.22.45-1.4,3.58-2.89,7.89-1.72,4.99-3.83,11.55-5.3,17.26a46.809,46.809,0,0,0-1.81,10.18,102.112,102.112,0,0,0,1.44,13.14c1.48,9.42,3.56,19.53,3.56,19.53s-12.67-7-17.34-2,9.34,40.33,9.34,40.33l-7.19,4.08-2.81,1.59a3.136,3.136,0,0,0-2.67-1c-1.44,0-1.84,3.44-1.21,5.62" transform="translate(-128.691 0)" fill="#c49a6f"/>
        <path id="Trazado_658710" data-name="Trazado 658710" d="M170.144,225.987c7.96,4.67,17.69,10.18,17.69,10.18s31-14.5,17.16-12.67-16-10.83-16-10.83l3.91,2.76c-1.1-.87-3.33-3.05-2.57-6.09,1-4-2.67-10.17-2.67-10.17s-3.163-11.833-.333-17.833,11-13.5,15.333-14.5a17.042,17.042,0,0,1,12.27,2.533c-2.58-2.16-5.17-3.9-7.27-4.53-6.67-2-18.33,3-18.33,3s-7.56,6.55-9.11,16.55c-1.19,7.65-1.23,15.11-1.89,16.45-.22.45-1.4,3.58-2.89,7.89-1.72,4.99-3.83,11.55-5.3,17.26" transform="translate(-151.165 0)" fill="#a06f3e"/>
        <path id="Trazado_658711" data-name="Trazado 658711" d="M201.883,174.167s-6.667-10.667-12-15-7-6.667-8.333-6.333-.334,7-.334,7-2,13.666-1.333,15.666a6.565,6.565,0,0,0,2,3s0-9,4-7.666a29.6,29.6,0,0,1,8,4.666l-.667-2.333s5.334,2,8.667,1" transform="translate(-147.717 0)" fill="#c49a6f"/>
        <path id="Trazado_658712" data-name="Trazado 658712" d="M151.574,236.167a102.112,102.112,0,0,0,1.44,13.14c2.51.39,6.97,1.83,11.56,6.86,7,7.67,9.33,24.33,9.33,24.33l1.31.13,2.02.2s.06-.37.19-1.03c.95-5.08,5.55-27.3,13.81-29.96,9.34-3,12.67,1.66,12.67,1.66l-7,28.34s17.66-6.35,19.84-23.57c-.9-5.97,1.38-17.39-7.17-29.1a144.8,144.8,0,0,0-9.4-11.63c-1.72,2.52-5.34,6.11-12.52,7.61a36.162,36.162,0,0,1-8.08.69c-16.53-.3-20.25-12.35-20.89-15.11-2.96,8.61-7.11,21.88-7.11,27.44" transform="translate(-134.405 0)" fill="#1cf290"/>
        <path id="Trazado_658713" data-name="Trazado 658713" d="M145.248,200.334s.252,5.333,1.007,5.667,4.281-.667,3.777-2-3.777-3.667-4.784-3.667" transform="translate(-61.416 0)" fill="#252238"/>
        <path id="Trazado_658714" data-name="Trazado 658714" d="M164.414,280l.19-.2c.95-5.08,5.55-27.3,13.81-29.96,9.34-3,12.67,1.66,12.67,1.66s-2.5-7-12.833-3.5-13.837,32-13.837,32" transform="translate(-121.585 0)" fill="#008d4c"/>
        <path id="Trazado_658715" data-name="Trazado 658715" d="M169.414,189.167s-2.333-3-4.333-3a27.918,27.918,0,0,0-4,.333l4,1.334s-.667,3.333.333,3,1.167-.334,1.333-1.167.334-1.5.334-1.5Z" transform="translate(-96.582 0)" fill="#252238"/>
        <path id="Trazado_658716" data-name="Trazado 658716" d="M55.636,152.056a30.5,30.5,0,0,1,5.778-1.556,33.326,33.326,0,0,1,5.778.223l-10,5.888Z" transform="translate(111.085 0)" fill="#ffbdab"/>
        <path id="Trazado_658717" data-name="Trazado 658717" d="M155.137,146.389s-6,4.889-7.333,8.222.623,5.675,3.867,4.726,8.133-13.17,3.466-12.948" transform="translate(-70.527 0)" fill="#ffbdab"/>
        <path id="Trazado_658718" data-name="Trazado 658718" d="M151.581,149.278s-6,4.889-7.333,8.222.623,5.675,3.867,4.726,8.133-13.17,3.466-12.948" transform="translate(-63.415 0)" fill="#ffbdab"/>
        <path id="Trazado_658719" data-name="Trazado 658719" d="M146.693,152.834s-6,4.889-7.333,8.222.623,5.674,3.867,4.726,8.133-13.17,3.466-12.948" transform="translate(-53.639 0)" fill="#ffbdab"/>
        <path id="Trazado_658720" data-name="Trazado 658720" d="M143.281,156.614s-4.924,4.722-6.018,7.941.511,5.48,3.173,4.564,6.674-12.72,2.845-12.505" transform="translate(-47.861 0)" fill="#ffbdab"/>
        <path id="Trazado_658721" data-name="Trazado 658721" d="M76.571,26.414a10.3,10.3,0,0,0-3.529-.481,5.527,5.527,0,0,0-2.219.858s-3.954-2.032-5.286-1.384-.544,7.415.558,7.648a9.305,9.305,0,0,0,4.222-.525c1.109-.43.93-4.187.93-4.187a4.514,4.514,0,0,1,2.11-.971,3.232,3.232,0,0,1,1.758.793s1.062,3.878,1.5,4.214,5.171,1.825,7.613.748,3.148-4.935,2.6-5.6-4.184-1.791-5.39-1.938c-4.346-.53-4.87.829-4.87.829" transform="translate(82.071 0)"/>
        <path id="Trazado_658722" data-name="Trazado 658722" d="M67.525,25.611a2.418,2.418,0,0,0-1.778-.667c-1,.111-9.555,2.667-9.555,2.667l1.222,1.333,8.117-2.428Z" transform="translate(110.196 0)"/>
        <path id="Trazado_658723" data-name="Trazado 658723" d="M76.316,35.547a4.975,4.975,0,0,0,.02.58,1.248,1.248,0,0,0,.02.21c.22,1.22.42,1.6,1.53,2.05a5.443,5.443,0,0,0,3.88-.51,3.324,3.324,0,0,0,.23-1.49c.01-.1.01-.2.01-.31.03-.8.01-1.71-.02-2.42-.04-1.16.53-4.01-.03-5.02a2.291,2.291,0,0,0-2.68-1.22c-2.22.38-2.94,5.86-2.96,8.13" transform="translate(75.393 0)" fill="#f7a397"/>
        <path id="Trazado_658724" data-name="Trazado 658724" d="M71.415,28.165s.062,3,.646,3.836,3.666,1.25,3.666,1.25l1-4.75Z" transform="translate(85.771 0)"/>
        <path id="Trazado_658725" data-name="Trazado 658725" d="M66.414,22.834a10.471,10.471,0,0,1,3.833.833l3.667,1.667s-2.333-3-4.167-3.833a5.947,5.947,0,0,0-3.666-.334Z" transform="translate(93.918 0)" fill="#77463c"/>
        <path id="Trazado_658726" data-name="Trazado 658726" d="M86.247,21v1.667a12.162,12.162,0,0,0-3.667.5,11.956,11.956,0,0,0-1.666,1S83.08,20,86.247,21" transform="translate(66.752 0)" fill="#77463c"/>
        <path id="Trazado_658727" data-name="Trazado 658727" d="M80.331,41.611s-2.222,2.556-4.889,2.444-2.222-2.111-2.222-2.111Z" transform="translate(80.39 0)" fill="#f7a397"/>
        <path id="Trazado_658728" data-name="Trazado 658728" d="M71.636,41.278a11.289,11.289,0,0,1,4.5,0,11.042,11.042,0,0,0,5-.333,13.979,13.979,0,0,1-4.5,1.666,10.856,10.856,0,0,1-3.355.1,1.985,1.985,0,0,1-1.645-1.435" transform="translate(81.141 0)" fill="#e58c83"/>
        <path id="Trazado_658729" data-name="Trazado 658729" d="M43.3,160.167s3.111,7.556,3.778,8.222,6,5.556,7.111,5.556,4.889-2.222,5.333-3.778,6.222-10,6.222-10L55.3,150.611s-10.222,5.778-11.111,7.112a4.847,4.847,0,0,0-.889,2.444" transform="translate(124.863 0)" fill="#f7a397"/>
        <path id="Trazado_658730" data-name="Trazado 658730" d="M76.514,36.127a1.248,1.248,0,0,0,.02.21c.22,1.22.42,1.6,1.53,2.05a5.443,5.443,0,0,0,3.88-.51,3.324,3.324,0,0,0,.23-1.49c.01-.1.01-.2.01-.31a14.949,14.949,0,0,1-3.46.76h-1.33Z" transform="translate(75.215 0)" fill="#e58c83"/>
        <path id="Trazado_658731" data-name="Trazado 658731" d="M57.636,28.278s-1.889-1-3-.111a8.336,8.336,0,0,0-1.889,2.556s2,1,1.334,2.222A15.013,15.013,0,0,1,52.3,35.389s3.333-.778,4.222-2.444-1.556-2.667-1.556-2.667.778-2.555,2.667-2" transform="translate(123.974 0)" fill="#e58c83"/>
        <path id="Trazado_658732" data-name="Trazado 658732" d="M78.228,19.25l3.887,6.027s.78-4.78,3.11-7.78c2.36-3.02,5-5.83,5-5.83a25.578,25.578,0,0,0-2.664-2.834c-.54-.33-1.306,1.024-2.236,1.494l-5.014,3.84c-.941.841-2.75,2.416-2.083,5.083" transform="translate(65.604 0)" fill="#563029"/>
        <path id="Trazado_658733" data-name="Trazado 658733" d="M65.247,19.917C59.83,17.167,55.33,8.334,55.33,8.334L57.5,9.25,54.414,5.167s1-.833,6.833.75S74,16.25,74,16.25L68.5,8.917s6.25,3.5,8.333,7.75a25.3,25.3,0,0,1,2.417,6.5s-7.719-.061-14-3.25" transform="translate(100.252 0)" fill="#8e5349"/>
        <path id="Trazado_658734" data-name="Trazado 658734" d="M177.3,236.167a102.112,102.112,0,0,0,1.44,13.14c2.51.39,6.97,1.83,11.56,6.86,7,7.67,9.33,24.33,9.33,24.33l1.31.13a104.93,104.93,0,0,1,.47-10.9c.66-5.34,3.78-11.56,3.78-11.56h-2s1.77-12.44,2.88-13.78,10.67-2,10.67-2l-14.67-4.22,11.31-15.02a36.162,36.162,0,0,1-8.08.69c-16.53-.3-20.25-12.35-20.89-15.11-2.96,8.61-7.11,21.88-7.11,27.44" transform="translate(-160.135 0)" fill="#07cc72"/>
        <path id="Trazado_658735" data-name="Trazado 658735" d="M57.414,140.167s-5.333,14.333-5.667,15.667-6.333,7.666-8.333,8-11.667-8-14-11.334l-2.333-3.333,4.666-11.333Z" transform="translate(149.418 0)" fill="#efc994"/>
        <path id="Trazado_658736" data-name="Trazado 658736" d="M23.748,131.834l9.333-13s10,2.333,13.334,3,9.666.333,9.666.333-5,2.667-6.666,3.334-13-3.334-11.334-2.334,8.334,7,9.334,8-5.667,19.334-6,20.667-12-3-12-3,7.333,6,7.333,7.333-4.667,3.334-6.667,3S18.748,146.5,18.748,146.5Z" transform="translate(159.084 0)" fill="#efc994"/>
        <path id="Trazado_658737" data-name="Trazado 658737" d="M82.192,64.167s-7.778,5.778-14.667,6.889S53.97,68.834,53.97,68.834a38.2,38.2,0,0,0,15.333.444,37.428,37.428,0,0,0,12.889-5.111" transform="translate(97.751 0)" fill="#c49a6f"/>
        <path id="Trazado_658738" data-name="Trazado 658738" d="M62.636,155.945l3.778-2.889-4.667,1.111Z" transform="translate(105.751 0)" fill="#f7a397"/>
        <path id="Trazado_658739" data-name="Trazado 658739" d="M62.637,170.216l4.939-5.827s-2.5,5.16-4.939,5.827" transform="translate(103.7 0)" fill="#f7a397"/>
        <path id="Trazado_658740" data-name="Trazado 658740" d="M147.969,159.337l4.8-8.726s-4.489,5.009-4.8,8.726" transform="translate(-66.825 0)" fill="#f7a397"/>
        <path id="Trazado_658741" data-name="Trazado 658741" d="M32,319.727c1.67.66,21.33.66,22.33,0S60,306.057,60,306.057s2.33-2.67,3.33-3.67,1-6,.67-8a37.024,37.024,0,0,0-2.95-6.54c-2.88,4.73-9.52,15.02-13.27,15.88-4.89,1.11-4.67-4.67-4.67-4.67l-6.06,10.58-.05.09s6.11.88,7.67,1.77,3.33,4.67,1.78,4.67H31.21c-.27,1.7-.01,3.24.79,3.56" transform="translate(138.609 0)" fill="#061222"/>
        <path id="Trazado_658742" data-name="Trazado 658742" d="M116.036,311.945s-19.333-4-18-3.333,7.333,6.889,7.333,6.889Z" transform="translate(19.907 0)" fill="#061222"/>
        <path id="Trazado_658743" data-name="Trazado 658743" d="M153.081,172.167,129.3,236.389l-.889-2.666,23.556-63.334-6.889,21.334Z" transform="translate(-47.582 0)" fill="#322f4f"/>
        <path id="Trazado_658744" data-name="Trazado 658744" d="M60.859,312.834,5.747,179.723l1.778-.667Z" transform="translate(167.307 0)" fill="#322f4f"/>
        <path id="Trazado_658745" data-name="Trazado 658745" d="M90.192,157.056,69.97,108.834l.444-4.223-2,3.556L89.525,159.5Z" transform="translate(75.307 0)" fill="#322f4f"/>
        <path id="Trazado_658746" data-name="Trazado 658746" d="M161.048,313.5s1.444-12.778,1.667-15.222,17.444-25.778,16.555-25.334-19.555,17.334-20.889,17.556-3.666-1.444-3.666-1.444L149.381,310.5l3.889,2Z" transform="translate(-94.771 0)" fill="#a06f3e"/>
        <path id="Trazado_658747" data-name="Trazado 658747" d="M198.636,168.611s-5.556-7.555-7.111-8.444-3.111-1.778-3.333-.667-.667,11.778-.667,11.778,1.555-2.667,3.111-2.667,8.889,1.556,8.889,1.556Z" transform="translate(-153.137 0)" fill="#a06f3e"/>
        <path id="Trazado_658748" data-name="Trazado 658748" d="M205.316,204.834a18.677,18.677,0,0,1-5.667,3,14.99,14.99,0,0,1-7.166.333l7-3.166s-6.5,1.833-11.334,1.5-12.5-3.5-12.5-3.5l5.334-3.834-6,2.5a41.719,41.719,0,0,1-1.834-6.833c-.333-2.667.667-9.333.667-9.333l1,7,1.833-5.167s.667,6.667,4.5,8.333,12.5-.166,12.5-.166l-3.333,2.833s3.667,8.333,15,6.5" transform="translate(-144.484 0)" fill="#a06f3e"/>
        <path id="Trazado_658749" data-name="Trazado 658749" d="M191.894,215.817l-.27-.19c.13.09.22.16.27.19" transform="translate(-149.605 0)" fill="#b2544d"/>
        <path id="Trazado_658750" data-name="Trazado 658750" d="M166.581,209.334l-8.667-4.167s6.667,4.334,8.667,4.167" transform="translate(-90.582 0)" fill="#a04d42"/>
        <path id="Trazado_658751" data-name="Trazado 658751" d="M191.084,280.5l1.167,30.167,2.163-29.837Z" transform="translate(-151.585 0)" fill="#a06f3e"/>
        <path id="Trazado_658752" data-name="Trazado 658752" d="M192.636,251.5l-11.889,28,3.111-3.444s-6.666,31.889-7.111,33-1,3-1,3-1.555-1.778-3.333-1.445a3.838,3.838,0,0,0-2.556,1.889,2.926,2.926,0,0,0-2.889-1.444,3.547,3.547,0,0,0-2.555,1.667,3.882,3.882,0,0,1,2.889-.889c1.666.222,2.555,6.222,2.555,6.222s.222-5.556,3-6,4.222,4.889,4.222,4.889-.888-3.334,1.445-4.667,3.778,1.556,3.778,1.556l-.667-1.337-2.667-3.108,6.667-29.552Z" transform="translate(-123.137 0)" fill="#a06f3e"/>
        <path id="Trazado_658753" data-name="Trazado 658753" d="M204.636,269.723a9.738,9.738,0,0,1,4.778-.444c2.555.444,7.666,4.111,7.666,4.111l6.445,37.666-2.778.111a10.314,10.314,0,0,0-3.889-2.444,8.34,8.34,0,0,0-3.778.111,5.532,5.532,0,0,1,3-1.444h1.778s-9.666-10-11.889-16.556,0-17.222,0-17.222l.778,7.333,1-8.778,1.222,3s1.223-5.222-4.333-5.444" transform="translate(-194.248 0)" fill="#a06f3e"/>
        <path id="Trazado_658754" data-name="Trazado 658754" d="M206.915,268.837l6.552,41.774a3.839,3.839,0,0,0-2.889.223,2.927,2.927,0,0,0-1.111,2.222s-2.555-1.445-4.111-.222-1.778,5-1.222,5.444,9.111.889,9.111.889-6.222-1.222-7.111-2-.222-3.333.889-3.444,2.666,4.111,2.666,4.111-.222-5.334,1.445-5.889a5.888,5.888,0,0,1,3.667.333Z" transform="translate(-184.746 0)" fill="#a06f3e"/>
        <path id="Trazado_658755" data-name="Trazado 658755" d="M224.7,317.457c.06-1.01.37-4.48,1.99-4.29,1.89.22,1.89,4.44,1.89,4.44s0-1.11.11-3,1.11-2.44,2.78-2,2.44,4.78,2.44,4.78a7.348,7.348,0,0,0-2.52-6.14l-2.81,1.59a3.136,3.136,0,0,0-2.67-1c-1.44,0-1.84,3.44-1.21,5.62" transform="translate(-224.409 0)" fill="#a06f3e"/>
        <path id="Trazado_658756" data-name="Trazado 658756" d="M155.192,312.5a4.485,4.485,0,0,0-2,.778,9.806,9.806,0,0,0-1.778,2s1-2.778-1-3.111-4.667,1.555-4.667,1.555,3.445-1.222,4.334-.889.889,3.556.889,3.556,2.555-4,4.222-3.889" transform="translate(-67.026 0)" fill="#a06f3e"/>
        <path id="Trazado_658757" data-name="Trazado 658757" d="M136.527,268.723a79.112,79.112,0,0,1,.111,12.889,30.221,30.221,0,0,1-3.333,11.555c-.445.667.889-5.777.889-5.777l-3.667,7.111s4-11.778,4.555-16.778.667-11.222.667-11.222l.445,4.222Z" transform="translate(-33.473 0)" fill="#a06f3e"/>
        <path id="Trazado_658758" data-name="Trazado 658758" d="M204.414,270.834l6.778,32.667-.889-7.889,2,5.555s-3.889-20.666-4.333-24.555-3.223-13.334-3.223-13.334l1,7-2.222-4.666Z" transform="translate(-181.915 0)" fill="#e8c29b"/>
        <path id="Trazado_658759" data-name="Trazado 658759" d="M194.247,249.307s5.39-2.14,12.39,5.027S215.3,280,215.3,280s-4.947-23.553-21.057-30.693" transform="translate(-175.638 0)" fill="#008d4c"/>
        <path id="Trazado_658760" data-name="Trazado 658760" d="M149.081,311s1.833-13.5,4-17.667,9-16.333,9-16.333l-6.667,14,2.167-2.667s-7.833,18-8.5,22.667" transform="translate(-77.249 0)" fill="#a06f3e"/>
        <path id="Trazado_658761" data-name="Trazado 658761" d="M209.3,225.5s-9.111,2.222-17.111-1.556-8.889-8.666-8.889-8.666,8.445,11.555,26,10.222" transform="translate(-158.693 0)" fill="#008d4c"/>
      </g>
    </g>
  </g>
</svg>
