<svg xmlns="http://www.w3.org/2000/svg" xmlns:xlink="http://www.w3.org/1999/xlink" width="400" height="370" viewBox="0 0 400 370"><defs><clipPath id="a"><rect width="296.266" height="335.907" fill="none"/></clipPath></defs><g transform="translate(-180 -7520)"><rect width="400" height="370" transform="translate(180 7520)" fill="none"/><path d="M177.447,80.915,174.5,82.057a4.84,4.84,0,0,0-2.772,2.771l-1.142,2.952-1.141-2.952a4.846,4.846,0,0,0-2.772-2.771l-2.952-1.142,2.952-1.141A4.851,4.851,0,0,0,169.441,77l1.141-2.952L171.723,77a4.845,4.845,0,0,0,2.772,2.772Z" transform="translate(353.55 7632.623)" fill="#ffd357"/><path d="M28.407,50.905l-3.46,1.339A5.674,5.674,0,0,0,21.7,55.493l-1.339,3.461L19.02,55.493a5.682,5.682,0,0,0-3.251-3.249l-3.461-1.339,3.461-1.338a5.688,5.688,0,0,0,3.251-3.25l1.338-3.461L21.7,46.317a5.68,5.68,0,0,0,3.251,3.25Z" transform="translate(377.635 7546.989)" fill="#ffd357"/><path d="M32.711,53.058l-4.385,1.7a7.191,7.191,0,0,0-4.12,4.118l-1.7,4.387-1.7-4.387a7.2,7.2,0,0,0-4.12-4.118l-4.387-1.7,4.387-1.7a7.209,7.209,0,0,0,4.12-4.12l1.7-4.387,1.7,4.387a7.2,7.2,0,0,0,4.12,4.12Z" transform="translate(261.635 7707.547)" fill="#ffd357"/><g transform="translate(-57.62 3414.518)"><path d="M179.845,25.74l-.652.013H54.293c8.33-10.072,24.551-13.028,35.663-5.9,6.134-7.025,12.907-13.892,21.5-17.512S130.9-.994,137.781,5.314c4.272,3.912,6.494,9.527,8.582,14.93,10.088-7.612,26.349-4.949,33.481,5.5" transform="translate(243.672 4183.376)" fill="#fff"/><path d="M198.6,69.459H122.666C128,63.7,134.29,57.64,142.094,57.753c5.745.072,10.84,3.561,15.237,7.259a36.468,36.468,0,0,1,15.917-10.2,20.55,20.55,0,0,1,10.173-.906c7.413,1.513,12.118,8.412,15.175,15.557" transform="translate(399.023 4155.529)" fill="#fff"/><path d="M78.987,89.026H3.056C8.389,83.27,14.68,77.207,22.484,77.32c5.745.072,10.84,3.561,15.237,7.257a36.478,36.478,0,0,1,15.917-10.2,20.55,20.55,0,0,1,10.173-.906c7.413,1.513,12.118,8.412,15.175,15.557" transform="translate(256.944 4218.427)" fill="#fff"/></g><g transform="translate(221 7539.546)"><g clip-path="url(#a)"><path d="M186.922,116.179s14.516,12.526,26.457,12.877c10.555.311-21.423-20.721-21.423-20.721s-8.195.645-5.034,7.844" transform="translate(9.979 5.806)" fill="#437a89"/><path d="M105.827,12.678s-2.693-1.171-3.161,2.458S104.3,29.653,104.3,29.653l3.044-.82Z" transform="translate(5.499 0.67)"/><path d="M173.5,156.78s-8.195,2.575-9.833,3.278-5.151,5.619-6.322,6.555,1.4,4.214,5.853,2.107,10.3-11.94,10.3-11.94" transform="translate(8.418 8.403)" fill="#ffbdab"/><path d="M89.953,114.51s-7.3,15.93-11,21.535a5.739,5.739,0,0,1-1.644,1.886c-2.339.927-9.366,1.4-11.705.464S25.325,101.867,25.325,99.064,33.29,91.1,39.38,94.85c5.921,3.635,23.527,17.037,24.486,17.764a.312.312,0,0,1,.042.032l.169-.263c.032-.032,3.867-5.826,3.867-5.826l1.623-.4,7.744-1.939Z" transform="translate(1.357 5.013)" fill="#ff9e7b"/><path d="M151,165.336s2.634,12.292,4.565,13.873,10.039,3.374,11.59,4.389,3.864-5.268,3.864-5.268Z" transform="translate(8.093 8.861)" fill="#e58065"/><path d="M206.67,120.532s-.6,4.035-1.475,8.65a82.382,82.382,0,0,1-2.708,11.179,19.559,19.559,0,0,1-.938,2.033c-3.645,7.006-14.35,21.8-14.35,21.8s-4.214,8.9-7.459,14.3c-1.38,2.3-2.592,3.951-3.224,4.025-2.128.242-14.3-11.168-14.561-12.938-.263-1.738,13.149-11.284,13.591-11.6.011-.011,9.388-24.781,10.841-28.816l.063-.179.053-.148.063-.19c.99-3.235,2.887-13.528,3.962-19.544.464-2.666.78-4.478.78-4.478l1.728,1.791Z" transform="translate(8.68 5.607)" fill="#ffbdab"/><path d="M200.882,140.474c-3.635,7.006-14.339,21.8-14.339,21.8s-4.214,8.9-7.459,14.3l-2.4-1.707-2.465-4.92s5.626-9.124,8.081-9.83,15.1-16.152,17.911-19.312c.242-.274.474-.379.674-.327" transform="translate(9.337 7.528)" fill="#f7a397"/><path d="M177.428,172s2.107.351,2.634,4.39.176,8.78-1.756,8.78-2.809-3.512-2.809-3.512Z" transform="translate(9.406 9.218)" fill="#ff9e7b"/><path d="M87.993,113.967s-7.3,15.93-11,21.535c-.137.095-.263.179-.358.242-2.107,1.4-7.965,2.107-7.965,2.107s4.688-3.045,4.92-3.983-.706-9.6-2.813-12.643-8.892-9.124-8.892-9.124c.063-.074.126-.147.232-.263.811-.938,3.256-3.74,5.489-6.227l7.744-1.939Z" transform="translate(3.317 5.556)" fill="#e58065"/><path d="M179.443,188.434c-2.107,2.107-5.268-2.465-5.268-2.465L161.7,173.852l-.284.348-2.876,3.519s-4.562-4.214-5.616-6.669l-1.054-2.465s-12.3-14.044-15.456-25.634c-2.107-7.723-1.875-19.017-1.486-25.708.2-3.361.432-5.552.432-5.552l15.678-6.522,1.18-.5s.221,11.769.316,17.869c.032,1.6.042,2.8.042,3.319,0,2.455,7.723,33.072,9.124,35.18a8.869,8.869,0,0,0,4.214,2.982s10.188,7.723,13.349,10.188,2.286,12.116.179,14.224" transform="translate(7.218 5.61)" fill="#ff9e7b"/><path d="M142.951,229.8c-3.161,4.91-19.312,70.591-19.312,70.591L111,300.737s.011-.674.032-1.875c.2-9.609,1.1-53.07,1.728-57.126.7-4.562,5.268-18.617,6.322-20.018s-2.813-7.027-2.813-7.027l3.972-1.054,22.368-5.963s3.508,17.205.348,22.125" transform="translate(5.949 11.13)" fill="#ff9e7b"/><path d="M122.119,296.683s-6.374,1.148-11.094,1.875c.2-9.609,1.1-53.07,1.728-57.126.7-4.562,5.268-18.617,6.322-20.018s-1.173-5.855-1.173-5.855l2.332-2.226,15.224,3.635s-5.616,9.124-5.268,11.231,5.626,4.92,5.974,7.027-14.044,61.456-14.044,61.456" transform="translate(5.95 11.434)" fill="#e58065"/><path d="M159.082,315.231c-1.1.411-42.2-.706-42.2-.706l-12.19-9.914s5.1-12.39,6.2-12.8a29.573,29.573,0,0,1,5.036-.095c.179,0,.369.01.548.01,3.8.105,8.113.337,8.113.337s.843.727,2.17,1.833c4.162,3.456,13.044,10.652,15.3,10.852,2.971.263,15.319,4.257,17.6,5.658a2.132,2.132,0,0,1,1.085,1.612,3.476,3.476,0,0,1-1.654,3.213" transform="translate(5.611 15.632)" fill="#77463c"/><path d="M174.866,156.727s9.672-25.56,10.894-28.984l-9.472,29.543-1.433-.548Z" transform="translate(9.371 6.846)" fill="#f7a397"/><path d="M205.418,120.441s-.6,4.035-1.475,8.65c-.969-.769-4.847-3.677-8.2-3.677-3.856,0-10.431,3.14-10.431,3.14.99-3.235,2.887-13.528,3.962-19.544l2.508-2.687Z" transform="translate(9.932 5.698)" fill="#f7a397"/><path d="M92.739,225.563s-4.166,32.53-3.26,37.059S92.2,307.5,94.332,308.106s6.011.785,7.687-1.047,6.966-48.475,5.74-52.288-6.568-28.883-6.568-28.883Z" transform="translate(4.789 12.089)" fill="#636363"/><path d="M108.545,218.609a11.941,11.941,0,1,1-11.94-11.94,11.94,11.94,0,0,1,11.94,11.94" transform="translate(4.538 11.076)" fill="#636363"/><path d="M159.082,315.239c-1.1.411-42.2-.706-42.2-.706l-12.19-9.914s5.1-12.39,6.2-12.8a29.573,29.573,0,0,1,5.036-.095c.116-.063.253-.126.39-.2.053.074.105.137.158.211a6.885,6.885,0,0,0,1.77,1.812c2.455,1.412,7.723.706,7.723.706l-2.339,2.16-2.223,2.055s11.231,7.027,12.991,7.375,7.66-1.085,7.66-1.085l18.68,7.27a3.476,3.476,0,0,1-1.654,3.213" transform="translate(5.611 15.624)" fill="#563029"/><path d="M161.415,174.2l-2.876,3.519s-4.562-4.214-5.616-6.669l-1.054-2.465s-12.3-14.044-15.456-25.634c-2.107-7.723-1.875-19.017-1.486-25.708l2.9-4.267,13.212-7.807,1.18-.5s.221,11.769.316,17.869c-2.634,2.423-6.142,5.837-6.985,7.533-1.4,2.8-3.277,15.92-1.633,19.66s7.02,16.4,8.19,16.861,7.488-.467,7.962,2.1c.253,1.4.853,3.7,1.349,5.5" transform="translate(7.218 5.61)" fill="#e58065"/><path d="M153.528,222.094s-1.76.348-8.787,0c-.327-.021-.685-.032-1.064-.032-7.712-.19-25.276,1.085-25.276,1.085l-1.054-10.536-1.4,9.83a170.478,170.478,0,0,1-18.733,1.169c-1.665,0-3.287.021-4.847.042-7.344.105-13.191.306-14.35-.853-1.4-1.412,1.054-9.482,1.054-12.643s1.054-41.09,1.759-48.465,4.214-20.018,4.214-20.018l45.189,3.393,11,.822s7.027,46,7.723,50.214,4.573,25.992,4.573,25.992" transform="translate(4.158 7.593)" fill="#12263f"/><path d="M139.715,148.458s-9.841,4.92-27.046,6.669-21.42.706-21.42.706-5.268,29.848-5.626,35.116-3.161,28.447-2.455,30.207c.348.853,4.731,1.77,9.2,2.5-7.344.105-13.191.306-14.35-.853-1.4-1.412,1.054-9.482,1.054-12.643s1.054-41.09,1.759-48.465,4.214-20.018,4.214-20.018l45.189,3.393Z" transform="translate(4.158 7.593)" fill="#051324"/><path d="M159.464,114.228s-1.928,0-6.5,2.634a54.259,54.259,0,0,0-9.124,6.322s-.179,1.749-.358,3.329-.348,21.43-.348,21.43,1.58,2.8.874,3.688-8.429,6.669-25.982,6.669-34.01-6.206-34.716-7.607S85.186,123,85.186,123s-.3-8.956-8.892-11.063a17.009,17.009,0,0,0-14.4,2.813s-.706-1.58,1.4-4.214S75.556,72,80.971,66.289c6.322-6.68,21.42-10.367,22.473-10.894s11.59-1.222,11.59-1.222a132.474,132.474,0,0,1,14.761,2.16,46.956,46.956,0,0,1,8.524,2.518,11.85,11.85,0,0,1,3.582,2.17c5.268,5.089,7.554,15.277,10.188,23.527s7.2,22.125,7.2,22.125a11.391,11.391,0,0,1,1.759,3.161c.179,1.4-1.58,4.393-1.58,4.393" transform="translate(3.311 2.903)" fill="#9485ed"/><path d="M156,114.118s-1.928,0-6.5,2.634a54.26,54.26,0,0,0-9.124,6.322S137.8,79.286,136.4,76.125s-9.83-14.4-9.83-14.4l-.232-5.5a46.956,46.956,0,0,1,8.524,2.518,35.612,35.612,0,0,1,5.226,4.741c4.91,6.322,13.873,43.724,13.873,43.724l-6.656,4.731c.306-.084,6.4-1.717,8.06-1.043,1.76.7.643,3.224.643,3.224" transform="translate(6.771 3.013)" fill="#6956d8"/><path d="M129.343,54.2c-1.159.643-.9,4.994-.674,7.249.074.822.148,1.359.148,1.359s-2.107,2.982-8.071,1.928-11.421-8.25-11.421-8.25a9.788,9.788,0,0,0,2.465-5.268c.7-3.688.348-10.715.348-10.715s18.786,12.822,17.205,13.7" transform="translate(5.859 2.171)" fill="#e58065"/><path d="M106.4,29.27s-3.478-12.7-2.548-17.659c.51-2.716,8.661-1.868,8.661-1.868s4.584-4.245,16.131-7.3S145.967.064,145.967.064l-4.755,2.377s6.793,0,9.169.34-3.4,6.113-3.4,6.113h2.377l-5.433,9.848L115.063,34.7Z" transform="translate(5.558 0)"/><path d="M276.473,129.66c0,1.928-8.144,6.943-10.367,6.164S254,115.184,254,115.184l20.25-10.178s.063.622.169,1.675c-7.512,3.013-17.584,9.2-18.491,11.136,0,0,4.214-1.222,11.59-3.161a52.366,52.366,0,0,0,7.407-2.676c.653,6.848,1.549,16.457,1.549,17.679" transform="translate(13.613 5.628)" fill="#322f4f"/><path d="M238.035,244.057c-.569,5.11-2.971,31.545-3.877,41.5-.211,2.371-.337,3.8-.337,3.8l-12.3,1.054s-7.618-57.021-8.429-60.055c-1.4-5.268-1.991-23.411-1.991-23.411l22.947-3.277s.211,2.8.432,5.858c.242,3.424.506,7.154.506,7.712,0,1.054,3.74,20.492,3.045,26.814" transform="translate(11.314 10.916)" fill="#ffbdab"/><path d="M261.975,216.864c0,2.455.464,12.053.464,18.722,0,5.689-3.909,39.879-5.5,52.448-.274,2.181-.485,3.709-.59,4.33-.7,4.214-13.339,3.867-13.339,3.867s-3.572-55.019-3.983-62.046c-.464-7.965-2.813-25.286-2.813-25.286l27.162-15.456s-.769,11.537-1.169,18.491c-.137,2.423-.232,4.3-.232,4.931" transform="translate(12.66 10.368)" fill="#ffbdab"/><path d="M200.819,74.081s3.528-17.614,3.7-31.453-.168-19.973,0-20.917,9.745-13.367,13.777-14,24.866-3.46,32.258,12.266,2.856,31.3,2.352,36.958,1.008,21.388,1.008,21.388Z" transform="translate(10.763 0.381)" fill="#77463c"/><path d="M214.575,20.482l-3.456-3.035s-3.513,3.512-4.683,7.024.7,23.179.7,25.988-2.81,14.75-2.81,14.75l3.747-8.663-3.044,14.984,17.56-2.107.936-19.433Z" transform="translate(10.951 0.935)" fill="#563029"/><path d="M244.455,38.558s0,19.2,3.278,25.286-15.921,5.619-15.921,5.619-7.335-9.782-7.3-10.744,2.849-18.054,2.849-18.054Z" transform="translate(12.033 2.067)" fill="#563029"/><path d="M262.164,234.646c0,5.689-3.909,39.879-5.5,52.448H244.021s-3.277-49.635-2.571-51.974,4.446-3.045,5.141-4.214,6.8-17.563,6.8-17.563l8.545-2.35c-.137,2.423-.232,4.3-.232,4.931,0,2.455.464,12.053.464,18.722" transform="translate(12.935 11.308)" fill="#f7a397"/><path d="M237.624,243.819c-.569,5.11-2.971,31.545-3.877,41.5l-4.667.99s1.633-17.321.232-22.7-8.429-28.1-8.429-29.975,1.4-4.214,1.875-5.616-3.983-14.75-3.983-14.75l14.044-5.152,1.254,1.18c.242,3.424.506,7.154.506,7.712,0,1.054,3.74,20.492,3.045,26.814" transform="translate(11.725 11.154)" fill="#f7a397"/><path d="M286.356,108.925c0,.105-.242.327-.674.643-2.413,1.738-8.218,5.795-14.466,7.428-7.375,1.939-11.59,3.161-11.59,3.161v.485c0,.011.653,19.713.653,19.713s.516,1,1.327,2.634c2.244,4.552,6.7,14.055,8.376,20.893,2.286,9.314,5.795,40.037,5.795,42.323s1.054,4.214.706,6.848-14.929,15.625-41.269,14.224c-14.613-.78-23.126-3.066-28.131-5.363a17.79,17.79,0,0,1-6.638-4.646c-1.928-2.286-.7-3.508-.7-3.508s5.437-59,5.795-63.216a33.389,33.389,0,0,1,1.5-7.175c.19-.611.327-.969.327-.969s-1.054-1.928-.706-2.982c.263-.79.327-.99.337-1.033.011-.021-.7-11.136-.7-11.136s-7.375-5.911-13.865-10.831-5.447,2.286-5.447,2.286-3.34-4.741-1.58-6.669,5.279-9.851,8.608-16.868,3.329-24.443,12.749-29.964c10.188-5.974,21.314-2.455,21.314-2.455s20.545-3.045,25.992-.242c.3.148.6.327.917.527,5.51,3.477,13.9,13.813,15.235,18.8,1.4,5.268,11.231,19.492,12.643,21.42.442.611.959,1.338,1.443,2.065a13.4,13.4,0,0,1,2.044,3.614" transform="translate(9.91 3.286)" fill="#ffe8a8"/><path d="M210.632,75.292s-5.619,23.179-5.385,25.052,2.341,6.555,4.682,7.96,42.144.937,42.847,1.639,1.171,9.13,2.107,10.536,4.682.468,4.682.468l.469,14.516-22.945,6.088-24.818.468s25.521-14.516,22.711-14.984-19.667,3.278-19.667,3.278l-9.13-3.278s-14.834-15.082-15.921-15.453a14.636,14.636,0,0,0-3.044-.468s1.669-4.241,4.463-2.589,11.224,7.037,11.224,7.037l1.171-5.151s-10.77-13.111-9.6-13.345,5.853-24.351,9.364-28.1a24.512,24.512,0,0,1,5.151-3.747Z" transform="translate(10.034 3.496)" fill="#ffd357"/><path d="M235.556,63.093s-3.28,3.222-11.948,2.992c-4.351-.115-5.616-2.286-5.616-2.286a5.188,5.188,0,0,0,.687-1.865c.516-2.128,1.1-4.941.9-5.984-.116-.59,1.623-2.16,3.983-3.993,4.636-3.572,11.642-8.123,11.642-8.123s-1.054,9.135-.875,12.822a23.011,23.011,0,0,0,1.231,6.437" transform="translate(11.683 2.349)" fill="#f7a397"/><path d="M233.869,48.978c-.716,3.1-7.828,14.108-11.1,13.992a7.94,7.94,0,0,1-4.12-1.275c.516-2.128,1.1-4.941.9-5.984-.116-.59,1.623-2.16,3.983-3.993,4.667-2.16,10.789-4.678,10.346-2.739" transform="translate(11.718 2.588)" fill="#e58c83"/><path d="M275.355,209.091c-.348,2.634-14.929,15.625-41.269,14.224-14.613-.78-23.126-3.066-28.131-5.363,2.055.5,13.834,3.182,24.275,2.961,11.474-.232,25.518-7.017,24.823-9.6S242.641,177.135,240.3,174.8s-25.055-18.733-25.76-20.608,16.394-12.169,16.394-12.169,11.474-1.875,13.339-2.35c1.338-.327-6.248-.664-10.715-.832,5.489-.516,14.466-3.614,14.466-3.614s6.574,1.928,12.453,3.8c2.244,4.552,6.7,14.055,8.376,20.893,2.286,9.314,5.795,40.037,5.795,42.323s1.054,4.214.706,6.848" transform="translate(11.038 7.247)" fill="#ffd357"/><path d="M241.125,45.354c-.843.716-5.2,1.064-5.2,1.064s.2.527-1.486,4.257c-1.665,3.73-4.857,6.385-7.07,8.1a9.437,9.437,0,0,1-1.97,1.117c-.4.19-.822.358-1.275.527a1.053,1.053,0,0,1-.148.042c-.179.063-.369.126-.558.19-2.234.716-4.667,1.1-5.963.748-2.213-.59-7.449-7.765-8.113-12.833a40.632,40.632,0,0,1-.232-7.164c.063-1.191.137-2.1.2-2.581.032-.274.053-.421.053-.421s-.232-1.159-.5-2.56-.548-3-.674-4.025a5.006,5.006,0,0,1-.084-.885c0-.284.148-1.5.358-3.076.516-3.793,1.359-9.683,1.359-9.683l3.94-.284,16.668-1.254,3.73,4.941,3.2,4.246-.021.126-1.022,7s4.583-1.37,5.31-1.675c.706-.316,4.573,3.256,4.825,4.752s-4.5,8.618-5.331,9.335" transform="translate(11.153 0.891)" fill="#ffbdab"/><path d="M259.007,138.665c-.927.295-18.512,5.795-37.645,3.972-8.629-.822-13.107-2-15.425-3.076.19-.611.327-.969.327-.969s-1.054-1.928-.706-2.982c.263-.79.327-.99.337-1.033a91.708,91.708,0,0,0,22.252,2.908c13.349.232,29.975-5.152,29.975-5.152a92.109,92.109,0,0,1-29.743,7.733,87.376,87.376,0,0,1-13.992.19c6.416,1.075,15.593,2.139,23.59,1.212,13.423-1.57,20.429-2.708,21.03-2.8" transform="translate(11.013 7.092)" fill="#f46464"/><path d="M240.346,44.882c-.843.716-5.2,1.064-5.2,1.064s.2.527-1.486,4.257c-1.665,3.73-4.857,6.385-7.07,8.1a9.437,9.437,0,0,1-1.97,1.117c-.4.19-.822.358-1.275.527a1.053,1.053,0,0,1-.147.042c-.179.063-.369.126-.558.19a14.246,14.246,0,0,0,3.424-2.191c3.393-2.929,5.616-10.178,5.268-17.205s-2.107-8.9-2.107-8.9l5.268-6.437s.853.011,2.076.032l-1.022,7s4.583-1.37,5.31-1.675c.706-.316,4.573,3.256,4.825,4.752s-4.5,8.618-5.331,9.335" transform="translate(11.932 1.364)" fill="#f9af9d"/><path d="M238.511,32.538s-5.352,3.414-12.411-1.285a58.221,58.221,0,0,1-11.642-10.315c-5.71,1.349-6.68,11.021-6.68,11.021l-.864-8.745-.358-3.614L217.987,8.843l19.154,5.047Z" transform="translate(11.07 0.474)" fill="#77463c"/><path d="M240.81,280.4c-.706,2.107-5.616,12.3-5.616,12.3s1.054,13.349,1.054,15.8,0,8.429-1.054,9.135-47.064,2.107-49.519.348c-.643-.464.274-1.433,1.991-2.613,4.825-3.308,15.92-8.271,15.92-8.271l15.1-16.51s-4.92-9.83-3.161-10.536a50.9,50.9,0,0,1,7.7-.7c7.639-.358,18.048-.348,17.585,1.043" transform="translate(9.94 14.961)" fill="#5840e2"/><path d="M240.81,280.4c-.706,2.107-5.616,12.3-5.616,12.3s1.054,13.349,1.054,15.8,0,8.429-1.054,9.135-47.064,2.107-49.519.348c-.643-.464.274-1.433,1.991-2.613,5.4-.685,19.544-3.277,19.544-4.056,0-.938-3.624-4.214-3.624-4.214s8.545-.242,9.714-.706,12.875-14.519,12.875-14.519-5.152-.464-5.616-1.169-1.169-7.027-1.169-8.429c0-.748,1.981-1.949,3.835-2.918,7.639-.358,18.048-.348,17.585,1.043" transform="translate(9.94 14.961)" fill="#31318c"/><path d="M256.789,293.023s1.76,9.482,1.4,14.055-.348,7.723-1.4,8.776-3.867,4.92-5.616,4.92-27.752.348-29.5,0c-.674-.137.938-1.939,3.171-4.1,3.582-3.456,8.766-7.849,8.766-7.849l8.429-14.75s-5.268-11.231-3.508-12.285c0,0,2.434-.348,5.658-.78,6.416-.864,15.994-2.033,15.762-1.328-.348,1.054-3.161,13.339-3.161,13.339" transform="translate(11.872 14.978)" fill="#5840e2"/><path d="M255.833,117.166v.485a.558.558,0,0,1,0-.485" transform="translate(13.708 6.279)" fill="#7a98a5"/><path d="M274.827,111.9a11.188,11.188,0,0,1-5.476,7.889c-5.408,3-13.463-1.054-13.463-1.054-1.171-3.044,10.921-9.122,18.433-12.135.116,1.264.3,3.14.506,5.3" transform="translate(13.71 5.713)" fill="#322f4f"/><path d="M280.936,107.226c-1.517,1.1-2.815,2.9-7.051,4.754-.211-2.16-.39-4.035-.506-5.3,2.729-1.1,5.12-1.77,6.617-1.675,2.244.137.6,1.3.94,2.221" transform="translate(14.652 5.627)" fill="#437a89"/><path d="M234.039,114.8s-5.385-3.278-6.79-4.448-3.746,1.4-2.341,2.81,6.322,3.512,6.322,3.512Z" transform="translate(12.031 5.898)" fill="#322f4f"/><path d="M222.55,116.669s-2.927,1.287-3.161,2.692a24.222,24.222,0,0,0-.234,3.279,7.967,7.967,0,0,0-.937,3.512c0,1.873,3.746,5.853,5.151,6.555s1.638-4.682,1.638-4.682Z" transform="translate(11.695 6.253)" fill="#322f4f"/><path d="M279.449,137.4a7.727,7.727,0,1,1-7.726-7.726,7.726,7.726,0,0,1,7.726,7.726" transform="translate(14.149 6.95)" fill="#252238"/><path d="M271.318,135.911s-23.882-9.833-26.34-10.185-2.81-2.107-4.214-.351-2.81,5.971-1.4,8.78,29.149,18.965,35.119,19.317,7.726-14.75-3.161-17.56" transform="translate(12.797 6.678)" fill="#322f4f"/><path d="M128.4,61.088c-1.707.516-3.306,1.694-5.877,1.589-5.394-.232-6.325-2.345-7.726-3.747s1.171-11.708,1.171-11.708l13.107,6.617c-1.159.643-.9,4.994-.674,7.249" transform="translate(6.13 2.531)" fill="#d16e5a"/><path d="M243.225,127.037s-5.385-15.1-7.492-13.7-9.132,15.8-7.727,17.911,11.941,3.512,11.941,3.512Z" transform="translate(12.21 6.07)" fill="#322f4f"/><path d="M236.17,113.336s-12.643,2.458-13.7,3.512-4.214,12.292-2.107,12.643S231.253,133,231.253,133Z" transform="translate(11.772 6.074)" fill="#3a3a5e"/><path d="M246.767,129.943a5.385,5.385,0,1,1-5.386-5.385,5.385,5.385,0,0,1,5.386,5.385" transform="translate(12.648 6.676)" fill="#252238"/><path d="M179.344,177.825c.174-2.381-4.024-.386-4.024-.386s1.063-3.836-.943-5.364-4.072,1.545-4.072,1.545,1.11-5.765-.92-6.328-4.547,2.384-4.547,2.384,2.8-7.484-.218-7.105-9.342,10.045-8.513,13.19,4.162,1.639,4.162,1.639-.2,3.346,2.51,4.1a4.7,4.7,0,0,0,4.336-.743s-.424,3.284,1.319,4.01A3.49,3.49,0,0,0,171.8,184s.34,2.28,2.145,2.78,5.222-6.571,5.4-8.952" transform="translate(8.363 8.712)" fill="#ffbdab"/><path d="M143.309,25.476c-.337,1.7-2.371,7.017-2.371,7.017s1.011,9.851.674,10.873-4.077,12.938-5.774,14.3a3.452,3.452,0,0,1-1.886.653c-2.307.242-6.079-.611-11.263-2.518-6.659-2.434-8.239-5.3-9.6-7.681a18.243,18.243,0,0,1-1.707-6.111,29.225,29.225,0,0,1-6.111-1.7c-2.033-1.022-3.73-10.536-2.033-11.885s4.415-2.381,5.437-2.044a36.049,36.049,0,0,1,4.415,2.718L115.978,17l.843-3.53s15.288-9.166,27.846.348c0,0-1.011,9.956-1.359,11.653" transform="translate(5.496 0.509)" fill="#ff9e7b"/><path d="M133.953,57.934c-2.307.242-6.079-.611-11.263-2.518-6.659-2.434-8.239-5.3-9.6-7.681a18.243,18.243,0,0,1-1.707-6.111,29.225,29.225,0,0,1-6.111-1.7c-2.033-1.022-3.73-10.536-2.033-11.885s4.415-2.381,5.437-2.044a36.049,36.049,0,0,1,4.415,2.718l2.887-12.1,3.435,2.739s.464,6.09-1.17,9.6-2.35,8.429-1.18,10.3S115.2,46.988,121.52,52.14a30.443,30.443,0,0,0,12.432,5.795" transform="translate(5.496 0.891)" fill="#ef896a"/><path d="M112.7,29.252l.339,3.736,1.868-1.529s2.938-.63,4-4.655a41.4,41.4,0,0,0,1.289-8.312s8.194-4.8,15.452-4.449c6.846.332,8.195,3.98,8.195,3.98l1.8-5.582-5.773-4.754L127.3,6.668l-15.113,5.094-2.377,6.113Z" transform="translate(5.885 0.357)"/><path d="M94.962,315.842s-12.449,1.384-14.764.188S94.076,295.242,97.578,294.9s18.495,11.128,18.495,11.128,17.4,6.063,15.8,9.149-33.028.716-33.028.716l-4.863-3.085Z" transform="translate(4.286 15.805)" fill="#636363"/><path d="M44.013,97.808s-1.462-9.775-3.97-12.438-6.663-11.185-9.4-11.988-2.085,1.634-2.422,4.424a11.869,11.869,0,0,0,1.183,5.8S17.843,81.737,15,81.863a3.847,3.847,0,0,0-3.592,2.395s-5.635-.211-6.734,1.072.071,3.309.071,3.309S-2.513,90.118.924,92.893s24.844,9.316,27.168,9.6,6.979,4.446,6.979,4.446Z" transform="translate(0 3.925)" fill="#ff9e7b"/><path d="M228.916,37.791c-.253.485-2.708.716-4.393.727-.306,0-.527-.011-.727-.011a2.4,2.4,0,0,1-1.728-1.043.918.918,0,0,1-.095-.116,4.849,4.849,0,0,1-.716-1.464,2.224,2.224,0,0,1,1.58-2.307c1.359-.4,3.909.748,4.9,2.1,0,0,1.464,1.559,1.18,2.118" transform="translate(11.857 1.795)" fill="#fff"/><path d="M214.387,38.127c-.077.284-.751.39-1.513.4a11.616,11.616,0,0,1-1.215-.032c-.21-.021-.408-.042-.574-.074-.563-.095-1.038-.727-1.369-1.37a5.513,5.513,0,0,1-.453-2.645,1.2,1.2,0,0,1,.729-.843c.861-.274,3.047,1.37,3.842,2.76,0,0,.685,1.285.552,1.8" transform="translate(11.213 1.797)" fill="#fff"/><path d="M126.229,294.1c-.548,1.918-1.138,3.509-1.138,3.509l-1.991-1-8.545-4.267.843-.421c.116-.063.253-.126.39-.2,3.119-1.517,11.126-5.215,11.41-3.245a17.116,17.116,0,0,1-.969,5.626" transform="translate(6.14 15.43)" fill="#77463c"/><path d="M174.749,157.447a43.648,43.648,0,0,1-.351,5.268c-.352,2.458-3.513,3.864-3.513,3.864a16.679,16.679,0,0,0,3.864-9.132" transform="translate(9.159 8.438)" fill="#f7a397"/><path d="M218.385,46.164A4.557,4.557,0,0,1,215.7,47.8c-.337-.116-2.592-.759-2.792-2.444a.9.9,0,0,1-.021-.242c0-1.875,2.107-8.555,2.107-8.555.843-.558,2.8,5.363,3.308,8.2a3.1,3.1,0,0,1,.084,1.412" transform="translate(11.41 1.957)" fill="#f7a397"/><path d="M218.384,45.745a4.557,4.557,0,0,1-2.687,1.633c-.337-.116-2.592-.759-2.792-2.444a3.8,3.8,0,0,0,2.086.811,7.1,7.1,0,0,0,3.308-1.412,3.1,3.1,0,0,1,.084,1.412" transform="translate(11.411 2.376)" fill="#e58c83"/><path d="M235.774,36.356s3.395-2.927,4.565-2.575a5.088,5.088,0,0,1,2.107,1.521s-1.638-1.171-2.458-.82A8.008,8.008,0,0,0,238,36.24s1.639.586,1.756,1.99-3.161,3.629-3.161,3.629,1.638-3.629-.82-5.5" transform="translate(12.636 1.809)" fill="#e58c83"/><path d="M222.2,48.673s-1.875,3.161-3.867,3.624-3.856,0-4.214-.59a1.344,1.344,0,0,1,.116-1.285l-.464-.938a14.906,14.906,0,0,1,3.867.116c1.749.337,4.225-.769,4.53-.906a.13.13,0,0,0,.032-.021" transform="translate(11.457 2.609)" fill="#e58c83"/><path d="M136.98,45.234,136.4,46.4s-.527.79-.885,1.391a3.11,3.11,0,0,1-3.013,1.148c-.126-.011-.253-.021-.39-.042a6.765,6.765,0,0,1-.843-.147,5.435,5.435,0,0,1-2.307-1.391,15.507,15.507,0,0,1-2.508-3.129A15.817,15.817,0,0,0,128.5,45a8.287,8.287,0,0,0,3.645.379,18.3,18.3,0,0,1,4.794-.148Z" transform="translate(6.777 2.371)" fill="#d16e5a"/><path d="M222.193,48.673s-1.875,3.161-3.867,3.624-3.856,0-4.214-.59a1.344,1.344,0,0,1,.116-1.285,7.877,7.877,0,0,0,3.045.474c2.318.105,4.625-1.949,4.889-2.2a.13.13,0,0,0,.032-.021" transform="translate(11.468 2.609)" fill="#f7a397"/><path d="M210.365,37.917c-.321-.361-1.558-4.987.322-4.244,1.834.726,1.79,3.942,1.171,4.478a1.048,1.048,0,0,1-1.493-.234" transform="translate(11.237 1.8)" fill="#325d68"/><path d="M222.559,37.972c-.321-.361-1.558-4.987.322-4.244,1.834.726,1.79,3.941,1.171,4.478a1.048,1.048,0,0,1-1.493-.234" transform="translate(11.891 1.803)" fill="#325d68"/><path d="M221.059,33.373a6.767,6.767,0,0,1,4.49.227,11.532,11.532,0,0,1,3.638,3.383s-3.661-3.483-8.128-3.61" transform="translate(11.848 1.773)" fill="#77463c"/><path d="M214.179,37.054a8.535,8.535,0,0,0-1.584-2.748c-.559-.491-1.673-1.414-2.819-1.131-1.07.264-1.235.446-1.235.446l1.1.447s.515-.48,1.476.068l.2.116a10.979,10.979,0,0,1,2.861,2.8" transform="translate(11.177 1.775)" fill="#77463c"/><path d="M225.563,34.546a11.633,11.633,0,0,0-2.9-.219,19.121,19.121,0,0,0-2.239.4,3.354,3.354,0,0,1,2.942-1.317c1.975.132,2.195,1.141,2.195,1.141" transform="translate(11.814 1.79)" fill="#77463c"/><path d="M212.723,36.294c0,.154-.262.278-.586.278s-.585-.124-.585-.278.262-.278.585-.278.586.124.586.278" transform="translate(11.338 1.93)" fill="#fff"/><path d="M224.917,36.072c0,.154-.262.278-.586.278s-.585-.124-.585-.278.262-.278.585-.278.586.124.586.278" transform="translate(11.992 1.918)" fill="#fff"/><path d="M120.886,32.736c.253.485,2.708.716,4.393.727.306,0,.527-.011.727-.011a2.4,2.4,0,0,0,1.728-1.043.917.917,0,0,0,.095-.116,4.851,4.851,0,0,0,.716-1.464,2.224,2.224,0,0,0-1.58-2.307c-1.359-.4-3.909.748-4.9,2.1,0,0-1.465,1.559-1.18,2.118" transform="translate(6.477 1.524)" fill="#fff"/><path d="M135.286,33.072c.077.284.751.39,1.513.4a11.616,11.616,0,0,0,1.215-.032c.21-.021.409-.042.574-.074.563-.095,1.038-.727,1.369-1.37a5.513,5.513,0,0,0,.453-2.645,1.2,1.2,0,0,0-.729-.843c-.861-.274-3.047,1.37-3.842,2.76,0,0-.685,1.285-.552,1.8" transform="translate(7.25 1.526)" fill="#fff"/><path d="M139.176,32.861c.321-.361,1.558-4.987-.322-4.244-1.834.726-1.79,3.94-1.171,4.478a1.048,1.048,0,0,0,1.493-.234" transform="translate(7.358 1.529)" fill="#563029"/><path d="M126.981,32.917c.321-.361,1.558-4.987-.322-4.244-1.834.726-1.79,3.941-1.171,4.478a1.048,1.048,0,0,0,1.493-.234" transform="translate(6.705 1.532)" fill="#563029"/><path d="M128.764,28.318a6.767,6.767,0,0,0-4.49.227,11.545,11.545,0,0,0-3.638,3.383s3.661-3.483,8.128-3.61" transform="translate(6.465 1.502)" fill="#77463c"/><path d="M135.517,32A8.535,8.535,0,0,1,137.1,29.25c.559-.491,1.673-1.414,2.819-1.131,1.07.264,1.235.447,1.235.447l-1.1.446s-.515-.48-1.476.068l-.2.116a10.979,10.979,0,0,0-2.86,2.8" transform="translate(7.263 1.504)" fill="#77463c"/><path d="M124.107,29.491a11.633,11.633,0,0,1,2.9-.219,19.121,19.121,0,0,1,2.239.4A3.354,3.354,0,0,0,126.3,28.35c-1.975.132-2.195,1.141-2.195,1.141" transform="translate(6.652 1.519)" fill="#77463c"/><path d="M136.746,31.238c0,.154.262.278.586.278s.585-.124.585-.278-.262-.278-.585-.278-.586.124-.586.278" transform="translate(7.329 1.659)" fill="#fff"/><path d="M124.552,31.016c0,.154.262.278.585.278s.586-.124.586-.278-.262-.278-.586-.278-.585.124-.585.278" transform="translate(6.675 1.647)" fill="#fff"/><path d="M208.83,32.7a4.212,4.212,0,0,1,2.634.7,6.929,6.929,0,0,1,1.639,1.638s-2.869-2.048-4.273-2.341" transform="translate(11.192 1.752)" fill="#77463c"/><path d="M208.774,32.08a5.629,5.629,0,0,1,2.048-.907,20.737,20.737,0,0,1,2.9-.059s-1.141-1.931-3.043-1.609-1.9,2.575-1.9,2.575" transform="translate(11.189 1.579)" fill="#77463c"/><path d="M219.621,31.188a7.035,7.035,0,0,1,3.139-.021c1.441.407,4.759,1.832,4.759,1.832a20.11,20.11,0,0,0-5.154-3.615c-2.378-.93-2.744,1.8-2.744,1.8" transform="translate(11.771 1.564)" fill="#77463c"/><path d="M215.219,18.082s7.609,10.653,15.218,12.409,11.941-1.639,11.941-1.639a13.625,13.625,0,0,1-4.918,0c-3.043-.468-6.555-1.4-6.555-1.4l11.474.234A20.4,20.4,0,0,0,230.05,16.756c-8.978-2.655-13.428-2.421-13.428-2.421l3.045,2.576Z" transform="translate(11.535 0.768)" fill="#874f46"/><path d="M214.439,20.428c-5.71,1.349-6.68,11.021-6.68,11.021L206.9,22.7a15.872,15.872,0,0,1,1.981-3.667c1.633-2.107,5.563,1.391,5.563,1.391" transform="translate(11.089 0.984)" fill="#563029"/><path d="M281.091,105.224a24.794,24.794,0,0,0-7.533.39c-7.491,1.644-16.152,10.3-16.152,10.3s-2.581-6.553-2.581-7.955,11.242-20.377,11.242-22.01-13.349,16.383-13.349,16.383-7.723-26.688-7.723-28.089S248.5,64.176,248.5,64.176l.938-.706,2.328-.527c5.51,3.477,13.9,13.813,15.235,18.8,1.4,5.268,11.231,19.492,12.643,21.42.442.611.959,1.338,1.443,2.065" transform="translate(13.13 3.373)" fill="#ffd357"/><path d="M217,65.391a15.057,15.057,0,0,0,7.726,2.81c4.917.468,10.888-6.088,10.888-6.088s-3.63,6.789-8.312,7.492S217,65.391,217,65.391" transform="translate(11.63 3.329)" fill="#ffd357"/><path d="M256.789,293.023s1.76,9.482,1.4,14.055-.348,7.723-1.4,8.776-3.867,4.92-5.616,4.92-27.752.348-29.5,0c-.674-.137.938-1.939,3.171-4.1h16.731s2.8-2.349.7-4.92-7.955-3.277-7.955-3.277l11-.938s6.8-11.937,7.733-11.937-7.259-1.412-8.9-1.412,10.072-8.892,9.83-9.83-9.83-3.277-9.83-3.277l.042-.074c6.416-.864,15.994-2.033,15.762-1.328-.348,1.054-3.161,13.339-3.161,13.339" transform="translate(11.872 14.978)" fill="#31318c"/><path d="M248.606,128.78s21.775,8.078,24.584,10.185,2.81,3.512,3.161,5.268-23.53-8.429-23.53-8.429l14.4,3.512-19.667-7.024s2.81-2.458,1.054-3.512" transform="translate(13.268 6.902)" fill="#3a3a5e"/><path d="M258.885,117.715l7.024,13.7s1.054-1.756,4.214-1.756h4.565l-7.375-17.208-4.565,2.81,4.214,12.994Z" transform="translate(13.875 6.027)" fill="#3a3a5e"/><path d="M137.941,40.026a4.193,4.193,0,0,1-1.791,2.792c-.769.348-4.436-1.054-5.584-1.759-.369-.221-.211-1.528.19-3.213.832-3.53,2.739-8.682,3.087-8.84.516-.232,1.538.464,1.538.464s2.3,8.429,2.55,9.841a2.329,2.329,0,0,1,.011.716" transform="translate(6.987 1.552)" fill="#e58065"/><path d="M137.941,39.574a4.193,4.193,0,0,1-1.791,2.792c-.769.348-4.436-1.054-5.584-1.76-.369-.221-.211-1.528.19-3.213.917,1.011,2.876,2.866,4.836,2.866a3.8,3.8,0,0,0,2.35-.685" transform="translate(6.987 2.004)" fill="#d16e5a"/><path d="M113.885,10.191s3.044-3.161,9.365-5.151a91.676,91.676,0,0,1,13.7-2.927l-7.141,2.459a79.466,79.466,0,0,1,11-.352c3.862.352,5.15.352,5.15.352a161.142,161.142,0,0,0-16.506,2.575,70.075,70.075,0,0,0-13.463,5.268l2.927-2.224Z" transform="translate(6.104 0.113)" fill="#261613"/><path d="M111.629,11.447s-2.927.351-4.448.7-3.63,3.746-3.63,3.746l3.279-1.99s-1.99,2.224-2.107,3.4,1.989,3.979,1.989,3.979,1.406-8.194,4.917-9.833" transform="translate(5.55 0.614)" fill="#261613"/><path d="M129.022,25.422a15.24,15.24,0,0,0-4.917.586,38.759,38.759,0,0,0-4.331,2.458,12.714,12.714,0,0,1,5.385-4.1c3.161-1.054,4.683-.468,4.683-.468Z" transform="translate(6.419 1.272)"/><path d="M136,25.3a12.506,12.506,0,0,1,3.395.586,3.622,3.622,0,0,1,1.406,1.287,3.694,3.694,0,0,0-1.639-2.693,4.606,4.606,0,0,0-2.927-.7Z" transform="translate(7.289 1.273)"/><path d="M136.834,45.195a2.554,2.554,0,0,1-1.942,1.469,11.562,11.562,0,0,1-3.642-.025,4.246,4.246,0,0,1-2.855-1.675,8.287,8.287,0,0,0,3.645.379,18.3,18.3,0,0,1,4.794-.148" transform="translate(6.881 2.41)" fill="#fff"/><path d="M38.936,97.634s-7.024-7.258-12.409-7.96-9.833,2.341-11.706,2.341-6.789-1.405-8.9-.469.468,3.747,3.746,4.917,18.146,5.151,18.146,5.151S28.869,96,32.849,96.23a15.361,15.361,0,0,1,6.088,1.4" transform="translate(0.277 4.8)" fill="#e58065"/><path d="M160.552,174.839l4.044-5.525s-4.278,1.78-4.044,5.525" transform="translate(8.604 9.074)" fill="#f7a397"/><path d="M166.552,180.191l3.19-7.134s-3.427,5.662-3.19,7.134" transform="translate(8.926 9.275)" fill="#f7a397"/><path d="M171,183.239l3.517-6.558s-3.979,4.114-3.517,6.558" transform="translate(9.163 9.469)" fill="#f7a397"/><path d="M5.219,87.46,18.8,89.567S8.73,86.289,5.219,87.46" transform="translate(0.28 4.674)" fill="#e58065"/><path d="M26.536,83.891l-8.429,5.853s8.9-3.278,8.429-5.853" transform="translate(0.97 4.496)" fill="#e58065"/><path d="M92.031,109.5c.392,2.8,22.242,7.024,27.861,10.536s21.775,9.365,20.37,9.365-23.179-.234-27.16-.937-22.711-12.877-22.711-8.9,29.97,28.1,32.077,29.267,19.2-.468,19.2-.468-16.624,4.448-24.35,4.214-30.905-4.214-32.544-5.62.116-24.29.116-24.29.352-8.489-2.691-13.171-14.883-1.569-14.883-1.569,3.644-3.582,6.922-4.05,7.258,3.043,7.726,2.107-7.492-27.16-5.151-25.755,6.557,7.024,6.557,7.024,0-21.306-.937-21.306-1.757,0-1.757,0l9.717-5.624s-1.4,27.393,1.639,49.168" transform="translate(3.608 3.234)" fill="#6956d8"/><path d="M146.817,218.969c-.811.274-2.75,1.011-5.163,1.96-7.712-.19-25.276,1.085-25.276,1.085l-1.054-10.536s.242-40.974,2.35-42.376,24.58-7.733,21.42-5.974c-3.076,1.717-13.475,7.417-14.023,7.712.664-.179,14.034-3.793,14.371-1.738.358,2.107,10.536,48.813,7.375,49.867" transform="translate(6.181 8.726)" fill="#051324"/><path d="M87.552,221.447a8.6,8.6,0,0,0,8.78,6.322c7.375,0,9.132-5.971,9.132-5.971s-4.917,4.917-10.887,3.513-7.024-3.864-7.024-3.864" transform="translate(4.692 11.868)" fill="#838383"/><path d="M98.287,231.554s-2.107,25.637-1.054,30.905.351,38.632.351,38.632l4.214-.351s4.214-39.686,4.214-43.2-5.619-28.1-5.619-28.1Z" transform="translate(5.195 12.297)" fill="#838383"/><path d="M102.5,300.447s-5.971,1.756-5.619,4.565,4.214,7.375,7.375,8.078,18.613,1.054,20.369-.351-11.239-5.62-11.239-5.62Z" transform="translate(5.192 16.102)" fill="#838383"/><path d="M94.361,232.447s-2.81,25.637-2.81,27.043,1.405,15.8,1.405,15.8Z" transform="translate(4.907 12.458)" fill="#838383"/><path d="M125.243,311.444a16.162,16.162,0,0,0-6.209-2.845c-2.119-.473-4.4-.666-3.811.911,1.054,2.809,9.833,4.565,11.239,3.862.632-.316-.158-1.129-1.219-1.929" transform="translate(6.17 16.521)" fill="#b1b1b1"/><path d="M104.774,29.473s2.81-1.171,3.98,0a5.78,5.78,0,0,1,1.171,3.512,2.622,2.622,0,0,0-1.171,2.342,5.128,5.128,0,0,0,1.638,2.575s-5.619-1.639-5.619-3.278,2.575-3.044,2.575-3.044.235-1.639-2.575-2.107" transform="translate(5.615 1.552)" fill="#d16e5a"/></g></g></g></svg>